<svg xmlns="http://www.w3.org/2000/svg" xmlns:xlink="http://www.w3.org/1999/xlink" width="135" height="204.25" viewBox="0 0 135 204.25">
  <defs>
    <style>
      .cls-1, .cls-3, .cls-5, .cls-8, .cls-9 {
        fill: none;
      }

      .cls-2, .cls-6, .cls-7 {
        fill: #fff;
      }

      .cls-2, .cls-9 {
        stroke: #606060;
      }

      .cls-2 {
        stroke-width: 1.1px;
      }

      .cls-3 {
        stroke: #707070;
        stroke-width: 1.5px;
      }

      .cls-4 {
        fill: #e2e2e2;
      }

      .cls-5 {
        stroke: rgba(112,112,112,0.7);
      }

      .cls-5, .cls-9 {
        stroke-width: 2px;
      }

      .cls-6, .cls-8 {
        stroke: rgba(123,123,123,0.7);
      }

      .cls-10 {
        stroke: none;
      }

      .cls-11 {
        filter: url(#Rectangle_49-2);
      }

      .cls-12 {
        filter: url(#Rectangle_49);
      }

      .cls-13 {
        filter: url(#Rectangle_46-2);
      }

      .cls-14 {
        filter: url(#Rectangle_46);
      }

      .cls-15 {
        filter: url(#Rectangle_43-2);
      }

      .cls-16 {
        filter: url(#Rectangle_43);
      }

      .cls-17 {
        filter: url(#Rectangle_13-2);
      }

      .cls-18 {
        filter: url(#Rectangle_13);
      }
    </style>
    <filter id="Rectangle_13" x="3.401" y="0" width="23" height="192.725" filterUnits="userSpaceOnUse">
      <feOffset input="SourceAlpha"/>
      <feGaussianBlur stdDeviation="3" result="blur"/>
      <feFlood flood-opacity="0.161"/>
      <feComposite operator="in" in2="blur"/>
    </filter>
    <filter id="Rectangle_13-2" x="3.401" y="0" width="23" height="192.725" filterUnits="userSpaceOnUse">
      <feOffset dx="-0.01" input="SourceAlpha"/>
      <feGaussianBlur stdDeviation="1.2" result="blur-2"/>
      <feFlood result="color"/>
      <feComposite operator="out" in="SourceGraphic" in2="blur-2"/>
      <feComposite operator="in" in="color"/>
      <feComposite operator="in" in2="SourceGraphic"/>
    </filter>
    <filter id="Rectangle_43" x="14.401" y="0" width="23" height="192.725" filterUnits="userSpaceOnUse">
      <feOffset input="SourceAlpha"/>
      <feGaussianBlur stdDeviation="3" result="blur-3"/>
      <feFlood flood-opacity="0.161"/>
      <feComposite operator="in" in2="blur-3"/>
    </filter>
    <filter id="Rectangle_43-2" x="14.401" y="0" width="23" height="192.725" filterUnits="userSpaceOnUse">
      <feOffset dx="-0.01" input="SourceAlpha"/>
      <feGaussianBlur stdDeviation="1.2" result="blur-4"/>
      <feFlood result="color-2"/>
      <feComposite operator="out" in="SourceGraphic" in2="blur-4"/>
      <feComposite operator="in" in="color-2"/>
      <feComposite operator="in" in2="SourceGraphic"/>
    </filter>
    <filter id="Rectangle_46" x="25.401" y="0" width="23" height="192.725" filterUnits="userSpaceOnUse">
      <feOffset input="SourceAlpha"/>
      <feGaussianBlur stdDeviation="3" result="blur-5"/>
      <feFlood flood-opacity="0.161"/>
      <feComposite operator="in" in2="blur-5"/>
    </filter>
    <filter id="Rectangle_46-2" x="25.401" y="0" width="23" height="192.725" filterUnits="userSpaceOnUse">
      <feOffset dx="-0.01" input="SourceAlpha"/>
      <feGaussianBlur stdDeviation="1.2" result="blur-6"/>
      <feFlood result="color-3"/>
      <feComposite operator="out" in="SourceGraphic" in2="blur-6"/>
      <feComposite operator="in" in="color-3"/>
      <feComposite operator="in" in2="SourceGraphic"/>
    </filter>
    <filter id="Rectangle_49" x="36.401" y="0" width="23" height="192.725" filterUnits="userSpaceOnUse">
      <feOffset input="SourceAlpha"/>
      <feGaussianBlur stdDeviation="3" result="blur-7"/>
      <feFlood flood-opacity="0.161"/>
      <feComposite operator="in" in2="blur-7"/>
    </filter>
    <filter id="Rectangle_49-2" x="36.401" y="0" width="23" height="192.725" filterUnits="userSpaceOnUse">
      <feOffset dx="-0.01" input="SourceAlpha"/>
      <feGaussianBlur stdDeviation="1.2" result="blur-8"/>
      <feFlood result="color-4"/>
      <feComposite operator="out" in="SourceGraphic" in2="blur-8"/>
      <feComposite operator="in" in="color-4"/>
      <feComposite operator="in" in2="SourceGraphic"/>
    </filter>
  </defs>
  <g id="Group_56" data-name="Group 56" transform="translate(-69.537 9.124)">
    <rect id="Rectangle_41" data-name="Rectangle 41" class="cls-1" width="135" height="198.728" transform="translate(69.537 -3.602)"/>
    <g id="Rectangle_4" data-name="Rectangle 4" class="cls-2" transform="translate(94.036 15.984)">
      <rect class="cls-10" width="86" height="119.016"/>
      <rect class="cls-1" x="0.55" y="0.55" width="84.9" height="117.916"/>
    </g>
    <g id="Rectangle_5" data-name="Rectangle 5" class="cls-2" transform="translate(101.536 23.484)">
      <rect class="cls-10" width="71" height="104.016"/>
      <rect class="cls-1" x="0.55" y="0.55" width="69.9" height="102.916"/>
    </g>
    <line id="Line_43" data-name="Line 43" class="cls-3" x2="135" transform="translate(69.537 177.398)"/>
    <g id="Group_36" data-name="Group 36" transform="translate(81.868 -0.32)">
      <rect id="wrapper1" class="cls-4" width="37.788" height="174.803" transform="translate(0.281 -0.282)"/>
      <line id="Line_12" data-name="Line 12" class="cls-5" x2="1.658" transform="translate(4.61 3.903)"/>
      <line id="Line_34" data-name="Line 34" class="cls-5" x2="1.658" transform="translate(15.61 3.903)"/>
      <line id="Line_38" data-name="Line 38" class="cls-5" x2="1.658" transform="translate(26.61 3.903)"/>
      <line id="Line_30" data-name="Line 30" class="cls-5" x2="1.658" transform="translate(4.492 173.395)"/>
      <line id="Line_33" data-name="Line 33" class="cls-5" x2="1.658" transform="translate(15.492 173.395)"/>
      <line id="Line_37" data-name="Line 37" class="cls-5" x2="1.658" transform="translate(26.492 173.395)"/>
      <line id="Line_13" data-name="Line 13" class="cls-5" x2="1.658" transform="translate(9.584 3.903)"/>
      <line id="Line_32" data-name="Line 32" class="cls-5" x2="1.658" transform="translate(20.584 3.903)"/>
      <line id="Line_36" data-name="Line 36" class="cls-5" x2="1.658" transform="translate(31.584 3.903)"/>
      <line id="Line_29" data-name="Line 29" class="cls-5" x2="1.658" transform="translate(9.466 173.395)"/>
      <line id="Line_31" data-name="Line 31" class="cls-5" x2="1.658" transform="translate(20.466 173.395)"/>
      <line id="Line_35" data-name="Line 35" class="cls-5" x2="1.658" transform="translate(31.466 173.395)"/>
      <g data-type="innerShadowGroup">
        <g class="cls-18" transform="matrix(1, 0, 0, 1, -12.33, -8.8)">
          <g id="Rectangle_13-3" data-name="Rectangle 13" class="cls-6" transform="translate(12.4 9)">
            <rect class="cls-10" width="5" height="174.725" rx="2.5"/>
            <rect class="cls-1" x="0.5" y="0.5" width="4" height="173.725" rx="2"/>
          </g>
        </g>
        <rect id="Rectangle_13-4" data-name="Rectangle 13" class="cls-7" width="5" height="174.725" rx="2.5" transform="translate(0.07 0.196)"/>
        <g class="cls-17" transform="matrix(1, 0, 0, 1, -12.33, -8.8)">
          <rect id="Rectangle_13-5" data-name="Rectangle 13" class="cls-7" width="5" height="174.725" rx="2.5" transform="translate(12.4 9)"/>
        </g>
        <g id="Rectangle_13-6" data-name="Rectangle 13" class="cls-8" transform="translate(0.07 0.196)">
          <rect class="cls-10" width="5" height="174.725" rx="2.5"/>
          <rect class="cls-1" x="0.5" y="0.5" width="4" height="173.725" rx="2"/>
        </g>
      </g>
      <g data-type="innerShadowGroup">
        <g class="cls-16" transform="matrix(1, 0, 0, 1, -12.33, -8.8)">
          <g id="Rectangle_43-3" data-name="Rectangle 43" class="cls-6" transform="translate(23.4 9)">
            <rect class="cls-10" width="5" height="174.725" rx="2.5"/>
            <rect class="cls-1" x="0.5" y="0.5" width="4" height="173.725" rx="2"/>
          </g>
        </g>
        <rect id="Rectangle_43-4" data-name="Rectangle 43" class="cls-7" width="5" height="174.725" rx="2.5" transform="translate(11.07 0.196)"/>
        <g class="cls-15" transform="matrix(1, 0, 0, 1, -12.33, -8.8)">
          <rect id="Rectangle_43-5" data-name="Rectangle 43" class="cls-7" width="5" height="174.725" rx="2.5" transform="translate(23.4 9)"/>
        </g>
        <g id="Rectangle_43-6" data-name="Rectangle 43" class="cls-8" transform="translate(11.07 0.196)">
          <rect class="cls-10" width="5" height="174.725" rx="2.5"/>
          <rect class="cls-1" x="0.5" y="0.5" width="4" height="173.725" rx="2"/>
        </g>
      </g>
      <g data-type="innerShadowGroup">
        <g class="cls-14" transform="matrix(1, 0, 0, 1, -12.33, -8.8)">
          <g id="Rectangle_46-3" data-name="Rectangle 46" class="cls-6" transform="translate(34.4 9)">
            <rect class="cls-10" width="5" height="174.725" rx="2.5"/>
            <rect class="cls-1" x="0.5" y="0.5" width="4" height="173.725" rx="2"/>
          </g>
        </g>
        <rect id="Rectangle_46-4" data-name="Rectangle 46" class="cls-7" width="5" height="174.725" rx="2.5" transform="translate(22.07 0.196)"/>
        <g class="cls-13" transform="matrix(1, 0, 0, 1, -12.33, -8.8)">
          <rect id="Rectangle_46-5" data-name="Rectangle 46" class="cls-7" width="5" height="174.725" rx="2.5" transform="translate(34.4 9)"/>
        </g>
        <g id="Rectangle_46-6" data-name="Rectangle 46" class="cls-8" transform="translate(22.07 0.196)">
          <rect class="cls-10" width="5" height="174.725" rx="2.5"/>
          <rect class="cls-1" x="0.5" y="0.5" width="4" height="173.725" rx="2"/>
        </g>
      </g>
      <g data-type="innerShadowGroup">
        <g class="cls-12" transform="matrix(1, 0, 0, 1, -12.33, -8.8)">
          <g id="Rectangle_49-3" data-name="Rectangle 49" class="cls-6" transform="translate(45.4 9)">
            <rect class="cls-10" width="5" height="174.725" rx="2.5"/>
            <rect class="cls-1" x="0.5" y="0.5" width="4" height="173.725" rx="2"/>
          </g>
        </g>
        <rect id="Rectangle_49-4" data-name="Rectangle 49" class="cls-7" width="5" height="174.725" rx="2.5" transform="translate(33.07 0.196)"/>
        <g class="cls-11" transform="matrix(1, 0, 0, 1, -12.33, -8.8)">
          <rect id="Rectangle_49-5" data-name="Rectangle 49" class="cls-7" width="5" height="174.725" rx="2.5" transform="translate(45.4 9)"/>
        </g>
        <g id="Rectangle_49-6" data-name="Rectangle 49" class="cls-8" transform="translate(33.07 0.196)">
          <rect class="cls-10" width="5" height="174.725" rx="2.5"/>
          <rect class="cls-1" x="0.5" y="0.5" width="4" height="173.725" rx="2"/>
        </g>
      </g>
      <g id="Rectangle_14" data-name="Rectangle 14" class="cls-6" transform="translate(5.715 0.196)">
        <rect class="cls-10" width="4.422" height="174.725"/>
        <rect class="cls-1" x="0.5" y="0.5" width="3.422" height="173.725"/>
      </g>
      <g id="Rectangle_42" data-name="Rectangle 42" class="cls-6" transform="translate(16.715 0.196)">
        <rect class="cls-10" width="4.422" height="174.725"/>
        <rect class="cls-1" x="0.5" y="0.5" width="3.422" height="173.725"/>
      </g>
      <g id="Rectangle_45" data-name="Rectangle 45" class="cls-6" transform="translate(27.715 0.196)">
        <rect class="cls-10" width="4.422" height="174.725"/>
        <rect class="cls-1" x="0.5" y="0.5" width="3.422" height="173.725"/>
      </g>
    </g>
    <line id="Line_1" data-name="Line 1" class="cls-9" x2="115" transform="translate(79.536)"/>
  </g>
</svg>
