<svg xmlns="http://www.w3.org/2000/svg" width="173" height="167" viewBox="15 10 145 150">
  <defs>
    <style>
      .cls-1, .cls-5 {
        fill: none;
      }

      .cls-2 {
        fill: #e4e4e4;
      }

      .cls-3 {
        fill: #c6c6c6;
      }

      .cls-4 {
        fill: #fff;
      }

      .cls-5 {
        stroke: #606060;
        stroke-width: 1.1px;
      }

      .cls-6 {
        stroke: none;
      }
    </style>
  </defs>
  <g id="Group_89" data-name="Group 89" transform="translate(257.762 -115.937)">
    <rect id="Rectangle_59" data-name="Rectangle 59" class="cls-1" width="173" height="167" transform="translate(-257.762 115.937)"/>
    <rect id="Rectangle_73" data-name="Rectangle 73" class="cls-2" width="88.072" height="105" transform="translate(-215.325 138.337)"/>
    <rect id="Rectangle_60" data-name="Rectangle 60" class="cls-3" width="86.7" height="71.67" transform="translate(-214.762 138.337)"/>
    <path id="Path_6" data-name="Path 6" class="cls-3" d="M0,5.752l1.531-.141L3.062,5.2l1.531-.636,1.531-.8,1.531-.889,1.531-.889,1.531-.8L12.248.549,13.779.141,15.31,0l1.531.141,1.531.409,1.531.636,1.531.8,1.531.889,1.531.889,1.531.8,1.531.636,1.531.409,1.531.141,1.531-.141L33.681,5.2l1.531-.636,1.531-.8,1.531-.889,1.531-.889,1.531-.8L42.867.549,44.4.141,45.929,0,47.46.141l1.531.409,1.531.636,1.531.8,1.531.889,1.531.889,1.531.8,1.531.636,1.531.409,1.531.141,1.531-.141L64.3,5.2l1.531-.636,1.531-.8,1.531-.889,1.531-.889,1.531-.8L73.487.549,75.018.141,76.549,0,78.08.141l1.531.409,1.531.636,1.531.8,1.531.889,1.531.889,1.531.8L88.8,5.2l1.531.409,1.531.141,1.531-.141L94.92,5.2l1.531-.636,1.531-.8,1.531-.889,1.531-.889,1.531-.8,1.531-.636,1.531-.409L107.168,0,108.7.141l1.531.409,1.531.636,1.531.8,1.531.889,1.531.889,1.531.8,1.531.636,1.531.409" transform="translate(-110.294 214.227) rotate(180)"/>
    <path id="Path_7" data-name="Path 7" class="cls-2" d="M1-10.248l1.531-.141L4.062-10.8l1.531-.636,1.531-.8,1.531-.889,1.531-.889,1.531-.8,1.531-.636,1.531-.409L16.31-16l1.531.141,1.531.409,1.531.636,1.531.8,1.531.889,1.531.889,1.531.8,1.531.636,1.531.409,1.531.141,1.531-.141,1.531-.409,1.531-.636,1.531-.8,1.531-.889,1.531-.889,1.531-.8,1.531-.636,1.531-.409L46.929-16l1.531.141,1.531.409,1.531.636,1.531.8,1.531.889,1.531.889,1.531.8,1.531.636,1.531.409,1.531.141,1.531-.141L65.3-10.8l1.531-.636,1.531-.8,1.531-.889,1.531-.889,1.531-.8,1.531-.636,1.531-.409L77.549-16l1.531.141,1.531.409,1.531.636,1.531.8,1.531.889,1.531.889,1.531.8L89.8-10.8l1.531.409,1.531.141,1.531-.141L95.92-10.8l1.531-.636,1.531-.8,1.531-.889,1.531-.889,1.531-.8,1.531-.636,1.531-.409L108.168-16l1.531.141,1.531.409,1.531.636,1.531.8,1.531.889,1.531.889,1.531.8,1.531.636,1.531.409" transform="translate(-218.512 224.475)"/>
    <rect id="Rectangle_63" data-name="Rectangle 63" class="cls-4" width="9" height="33" transform="translate(-127.762 205.938)"/>
    <rect id="Rectangle_64" data-name="Rectangle 64" class="cls-4" width="21" height="26" transform="translate(-117.762 204.938)"/>
    <rect id="Rectangle_66" data-name="Rectangle 66" class="cls-4" width="8" height="23" transform="translate(-232.762 204.938)"/>
    <rect id="Rectangle_65" data-name="Rectangle 65" class="cls-4" width="10" height="31" transform="translate(-224.762 204.938)"/>
    <g id="Rectangle_58" data-name="Rectangle 58" class="cls-5" transform="translate(-225.191 128.444)">
      <rect class="cls-6" width="107.531" height="140.475"/>
      <rect class="cls-1" x="0.55" y="0.55" width="106.431" height="139.375"/>
    </g>
    <g id="Rectangle_57" data-name="Rectangle 57" class="cls-5" transform="translate(-215.814 137.297)">
      <rect class="cls-6" width="88.776" height="122.77"/>
      <rect class="cls-1" x="0.55" y="0.55" width="87.676" height="121.67"/>
    </g>
  </g>
</svg>
