<svg xmlns="http://www.w3.org/2000/svg" width="173" height="167" viewBox="15 10 145 150">
  <defs>
    <style>
      .cls-1, .cls-4 {
        fill: none;
      }

      .cls-2 {
        fill: #c6c6c6;
      }

      .cls-3 {
        fill: #fff;
      }

      .cls-4 {
        stroke: #606060;
        stroke-width: 1.1px;
      }

      .cls-5 {
        stroke: none;
      }
    </style>
  </defs>
  <g id="Group_94" data-name="Group 94" transform="translate(257.762 -115.937)">
    <rect id="Rectangle_59" data-name="Rectangle 59" class="cls-1" width="173" height="167" transform="translate(-257.762 115.937)"/>
    <rect id="Rectangle_60" data-name="Rectangle 60" class="cls-2" width="88.5" height="84.82" transform="translate(-215.539 138.337)"/>
    <path id="Path_8" data-name="Path 8" class="cls-2" d="M0,5.752l1.711-.141L3.421,5.2l1.711-.636,1.711-.8,1.711-.889,1.711-.889,1.711-.8L13.685.549,15.4.141,17.107,0l1.711.141,1.711.409,1.711.636,1.711.8,1.711.889,1.711.889,1.711.8,1.711.636,1.711.409,1.711.141,1.711-.141L37.635,5.2l1.711-.636,1.711-.8,1.711-.889,1.711-.889,1.711-.8L47.9.549,49.61.141,51.32,0l1.711.141,1.711.409,1.711.636,1.711.8,1.711.889,1.711.889,1.711.8,1.711.636,1.711.409,1.711.141,1.711-.141L71.848,5.2l1.711-.636,1.711-.8,1.711-.889,1.711-.889,1.711-.8L82.112.549,83.823.141,85.534,0l1.711.141,1.711.409,1.711.636,1.711.8,1.711.889,1.711.889,1.711.8,1.711.636,1.711.409,1.711.141,1.711-.141,1.711-.409,1.711-.636,1.711-.8,1.711-.889,1.711-.889,1.711-.8,1.711-.636,1.711-.409L119.747,0l1.711.141,1.711.409,1.711.636,1.711.8,1.711.889,1.711.889,1.711.8,1.711.636,1.711.409" transform="translate(-119.618 227.91) rotate(180)"/>
    <path id="Path_9" data-name="Path 9" class="cls-3" d="M1-10.248l1.711-.141L4.421-10.8l1.711-.636,1.711-.8,1.711-.889,1.711-.889,1.711-.8,1.711-.636,1.711-.409L18.107-16l1.711.141,1.711.409,1.711.636,1.711.8,1.711.889,1.711.889,1.711.8,1.711.636,1.711.409,1.711.141,1.711-.141,1.711-.409,1.711-.636,1.711-.8,1.711-.889,1.711-.889,1.711-.8,1.711-.636,1.711-.409L52.32-16l1.711.141,1.711.409,1.711.636,1.711.8,1.711.889,1.711.889,1.711.8,1.711.636,1.711.409,1.711.141,1.711-.141,1.711-.409,1.711-.636,1.711-.8,1.711-.889,1.711-.889,1.711-.8,1.711-.636,1.711-.409L86.534-16l1.711.141,1.711.409,1.711.636,1.711.8,1.711.889,1.711.889,1.711.8,1.711.636,1.711.409,1.711.141,1.711-.141,1.711-.409,1.711-.636,1.711-.8,1.711-.889,1.711-.889,1.711-.8,1.711-.636,1.711-.409L120.747-16l1.711.141,1.711.409,1.711.636,1.711.8,1.711.889,1.711.889,1.711.8,1.711.636,1.711.409" transform="translate(-240.5 238.157)"/>
    <rect id="Rectangle_67" data-name="Rectangle 67" class="cls-2" width="22" height="22" transform="translate(-173.65 200.66) rotate(40)"/>
    <rect id="Rectangle_70" data-name="Rectangle 70" class="cls-2" width="22" height="22" transform="translate(-168.179 200.66) rotate(50)"/>
    <rect id="Rectangle_68" data-name="Rectangle 68" class="cls-3" width="40" height="55" transform="translate(-255.762 179.938)"/>
    <rect id="Rectangle_69" data-name="Rectangle 69" class="cls-3" width="40" height="55" transform="translate(-127.762 179.938)"/>
    <g id="Rectangle_58" data-name="Rectangle 58" class="cls-4" transform="translate(-225.191 128.444)">
      <rect class="cls-5" width="107.531" height="140.475"/>
      <rect class="cls-1" x="0.55" y="0.55" width="106.431" height="139.375"/>
    </g>
    <g id="Rectangle_57" data-name="Rectangle 57" class="cls-4" transform="translate(-215.814 137.297)">
      <rect class="cls-5" width="88.776" height="122.77"/>
      <rect class="cls-1" x="0.55" y="0.55" width="87.676" height="121.67"/>
    </g>
  </g>
</svg>
