<svg xmlns="http://www.w3.org/2000/svg" width="153" height="156" viewBox="0 0 153 156">
  <defs>
    <style>
	@font-face {
    font-family: "proximanova-nova";

    src: url('https://doopsalta2.com/Fonts/proxima-nova-three.woff2') format('woff2'),
        url('https://doopsalta2.com/Fonts/proxima-nova-three.woff') format('woff'),
        url('https://doopsalta2.com/Fonts/proxima-nova-three.otf') format('opentype');
    font-style: normal;
	}
	
      .cls-1, .cls-3 {
        fill: none;
      }

      .cls-2 {
        fill: #fff;
      }

      .cls-2, .cls-3, .cls-5 {
        stroke: #606060;
      }

      .cls-2, .cls-3 {
        stroke-width: 1.1px;
      }

      .cls-4, .cls-5 {
        fill: #606060;
      }

      .cls-4 {
        stroke-dasharray: 1 1;
      }

      .cls-5 {
        stroke-width: 0.5px;
        font-size: 8px;
        font-family:'proximanova-nova',sans-serif;
        font-weight: 200;
      }

      .cls-6, .cls-7 {
        stroke: none;
      }

      .cls-7 {
        fill: #606060;
      }
    </style>
  </defs>
  <g id="Group_83" data-name="Group 83" transform="translate(257.762 -115.937)">
    <rect id="Rectangle_59" data-name="Rectangle 59" class="cls-1" width="153" height="156" transform="translate(-257.762 115.937)"/>
    <g id="Rectangle_58" data-name="Rectangle 58" class="cls-2" transform="translate(-228.967 127.651)">
      <rect class="cls-6" width="95.067" height="131.563"/>
      <rect class="cls-1" x="0.55" y="0.55" width="93.967" height="130.463"/>
    </g>
    <g id="Rectangle_57" data-name="Rectangle 57" class="cls-2" transform="translate(-220.677 135.942)">
      <rect class="cls-6" width="78.485" height="114.982"/>
      <rect class="cls-1" x="0.55" y="0.55" width="77.385" height="113.882"/>
    </g>
    <g id="Group_77" data-name="Group 77">
      <g id="Group_73" data-name="Group 73" transform="translate(-210.088 137.038) rotate(90)">
        <line id="Line_7" data-name="Line 7" class="cls-3" x2="109.527" transform="translate(1.775 1.5)"/>
        <g id="Polygon_1" data-name="Polygon 1" class="cls-4" transform="translate(112.802 -1.499) rotate(90)">
          <path class="cls-6" d="M3,0,6,5H0Z"/>
          <path class="cls-7" d="M 3 0 C 3 0 3.001996040344238 0.003326892852783203 3.005743026733398 0.009571552276611328 L 3.005837440490723 0.009728908538818359 C 3.006765127182007 0.01127529144287109 3.007794618606567 0.01299095153808594 3.008929967880249 0.01488351821899414 L 3.008929967880249 0.01488351821899414 C 3.009509086608887 0.01584815979003906 3.010114431381226 0.01685762405395508 3.010746002197266 0.01791000366210938 L 3.010746002197266 0.01791000366210938 C 3.011061668395996 0.01843643188476562 3.011384010314941 0.01897335052490234 3.011712551116943 0.01952123641967773 L 3.011712551116943 0.01952123641967773 C 3.011974573135376 0.01995754241943359 3.012243986129761 0.02040672302246094 3.012514114379883 0.02085685729980469 L 3.015057802200317 0.02509641647338867 C 3.015340566635132 0.02556753158569336 3.015615463256836 0.02602577209472656 3.015905380249023 0.02650880813598633 L 3.016076326370239 0.0267939567565918 C 3.016183137893677 0.02697181701660156 3.016283512115479 0.02713918685913086 3.016391515731812 0.02731943130493164 L 3.514495611190796 0.8574924468994141 L 3.328574895858765 0.9690451622009277 L 3.345449924468994 0.9791698455810547 L 2.830950021743774 1.836669921875 L 2.144959926605225 1.42507004737854 C 2.144959926605225 1.42507004737854 2.273582458496094 1.210697412490845 2.402204990386963 0.9963250160217285 L 2.402204990386963 0.9963250160217285 C 2.404136180877686 0.9931063652038574 2.406076908111572 0.9898719787597656 2.408007621765137 0.9866538047790527 L 2.408556699752808 0.9857387542724609 C 2.409388542175293 0.9843525886535645 2.410227060317993 0.9829549789428711 2.411058902740479 0.9815688133239746 L 2.411548376083374 0.9807524681091309 C 2.412317276000977 0.9794712066650391 2.413060665130615 0.9782323837280273 2.413829326629639 0.9769511222839355 L 2.414761304855347 0.9753975868225098 C 2.415498495101929 0.9741692543029785 2.416232585906982 0.9729456901550293 2.416969299316406 0.9717178344726562 L 2.417407274246216 0.9709882736206055 C 2.417830467224121 0.9702825546264648 2.418276786804199 0.969538688659668 2.418699979782104 0.9688334465026855 L 2.423887252807617 0.9601879119873047 C 2.423981189727783 0.9600315093994141 2.424093961715698 0.959843635559082 2.424187660217285 0.9596872329711914 L 3 0 Z M 4.028989791870117 1.714989900588989 C 4.028989791870117 1.714989900588989 4.229182243347168 2.04863977432251 4.379815101623535 2.299691915512085 L 4.382698059082031 2.304496288299561 C 4.382771015167236 2.30461859703064 4.382829666137695 2.304716348648071 4.382903099060059 2.30483865737915 L 4.383929252624512 2.306549072265625 C 4.384559154510498 2.307598829269409 4.385189533233643 2.308649301528931 4.385817527770996 2.309695959091187 L 4.386836528778076 2.311394214630127 C 4.387069702148438 2.311782836914062 4.38731861114502 2.312198162078857 4.387551784515381 2.312586545944214 L 4.387826442718506 2.31304407119751 C 4.388132095336914 2.313553810119629 4.388419151306152 2.314031600952148 4.388724327087402 2.314540386199951 L 4.543488502502441 2.572480916976929 L 3.857490062713623 2.984080076217651 L 3.342999935150146 2.126579999923706 L 4.028989791870117 1.714989900588989 Z M 5.057980060577393 3.429970026016235 C 5.057980060577393 3.429970026016235 5.135703086853027 3.559507369995117 5.230732440948486 3.717887163162231 L 5.830949783325195 4.718249797821045 L 5.830949783325195 5 C 5.830949783325195 5 4.830949783325195 5 4.830949783325195 5 L 4.830949783325195 4.606509208679199 L 4.371990203857422 3.841569900512695 L 5.057980060577393 3.429970026016235 Z M 2.830950021743774 4.199999809265137 L 3.830950021743774 4.199999809265137 L 3.830950021743774 5 C 3.830950021743774 5 2.830950021743774 5 2.830950021743774 5 L 2.830950021743774 4.199999809265137 Z M 0.6014699935913086 3.997550010681152 L 0.9388818740844727 4.199999809265137 L 1.830949783325195 4.199999809265137 L 1.830949783325195 5 C 1.830949783325195 5 1.187620639801025 5 0.932952880859375 5 L 0.3285698890686035 5 L 0.08696985244750977 4.855040073394775 L 0.5947556495666504 4.008740425109863 C 0.5947713851928711 4.008714199066162 0.5947818756103516 4.008696556091309 0.5947976112365723 4.008670330047607 L 0.5972528457641602 4.004578590393066 C 0.5975313186645508 4.004114627838135 0.5977969169616699 4.003672122955322 0.5980486869812012 4.003252506256104 L 0.5982513427734375 4.002914428710938 C 0.5987625122070312 4.002062797546387 0.599215030670166 4.001308441162109 0.599606990814209 4.000654697418213 L 0.599606990814209 4.000654697418213 C 0.5997200012207031 4.000466823577881 0.5998296737670898 4.000284194946289 0.5999321937561035 4.000112533569336 L 0.6000199317932129 3.999967098236084 C 0.600914478302002 3.998476028442383 0.6014060974121094 3.99765682220459 0.6014642715454102 3.997559785842896 L 0.6014699935913086 3.997550010681152 Z M 1.630459785461426 2.282560110092163 L 2.316459894180298 2.694159984588623 L 1.801959991455078 3.551650047302246 L 1.115970134735107 3.140059947967529 C 1.115970134735107 3.140059947967529 1.281026840209961 2.864960193634033 1.424161911010742 2.626397132873535 L 1.424161911010742 2.626397132873535 C 1.424655437469482 2.625574350357056 1.425148487091064 2.624752283096313 1.425641536712646 2.62393045425415 L 1.630463123321533 2.282561779022217 Z"/>
        </g>
        <g id="Polygon_2" data-name="Polygon 2" class="cls-4" transform="translate(0.125 4.5) rotate(-90)">
          <path class="cls-6" d="M3,0,6,5H0Z"/>
          <path class="cls-7" d="M 3 0 C 3 0 3.001996040344238 0.003326892852783203 3.005743026733398 0.009571552276611328 L 3.005837440490723 0.009728908538818359 C 3.006765127182007 0.01127529144287109 3.007794618606567 0.01299095153808594 3.008929967880249 0.01488351821899414 L 3.008929967880249 0.01488351821899414 C 3.009509086608887 0.01584815979003906 3.010114431381226 0.01685762405395508 3.010746002197266 0.01791000366210938 L 3.010746002197266 0.01791000366210938 C 3.011061668395996 0.01843643188476562 3.011384010314941 0.01897335052490234 3.011712551116943 0.01952123641967773 L 3.011712551116943 0.01952123641967773 C 3.011974573135376 0.01995754241943359 3.012243986129761 0.02040672302246094 3.012514114379883 0.02085685729980469 L 3.015057802200317 0.02509641647338867 C 3.015340566635132 0.02556753158569336 3.015615463256836 0.02602577209472656 3.015905380249023 0.02650880813598633 L 3.016076326370239 0.0267939567565918 C 3.016183137893677 0.02697181701660156 3.016283512115479 0.02713918685913086 3.016391515731812 0.02731943130493164 L 3.514495611190796 0.8574924468994141 L 3.328574895858765 0.9690451622009277 L 3.345449924468994 0.9791698455810547 L 2.830950021743774 1.836669921875 L 2.144959926605225 1.42507004737854 C 2.144959926605225 1.42507004737854 2.273582458496094 1.210697412490845 2.402204990386963 0.9963250160217285 L 2.402204990386963 0.9963250160217285 C 2.404136180877686 0.9931063652038574 2.406076908111572 0.9898719787597656 2.408007621765137 0.9866538047790527 L 2.408556699752808 0.9857387542724609 C 2.409388542175293 0.9843525886535645 2.410227060317993 0.9829549789428711 2.411058902740479 0.9815688133239746 L 2.411548376083374 0.9807524681091309 C 2.412317276000977 0.9794712066650391 2.413060665130615 0.9782323837280273 2.413829326629639 0.9769511222839355 L 2.414761304855347 0.9753975868225098 C 2.415498495101929 0.9741692543029785 2.416232585906982 0.9729456901550293 2.416969299316406 0.9717178344726562 L 2.417407274246216 0.9709882736206055 C 2.417830467224121 0.9702825546264648 2.418276786804199 0.969538688659668 2.418699979782104 0.9688334465026855 L 2.423887252807617 0.9601879119873047 C 2.423981189727783 0.9600315093994141 2.424093961715698 0.959843635559082 2.424187660217285 0.9596872329711914 L 3 0 Z M 4.028989791870117 1.714989900588989 C 4.028989791870117 1.714989900588989 4.229182243347168 2.04863977432251 4.379815101623535 2.299691915512085 L 4.382698059082031 2.304496288299561 C 4.382771015167236 2.30461859703064 4.382829666137695 2.304716348648071 4.382903099060059 2.30483865737915 L 4.383929252624512 2.306549072265625 C 4.384559154510498 2.307598829269409 4.385189533233643 2.308649301528931 4.385817527770996 2.309695959091187 L 4.386836528778076 2.311394214630127 C 4.387069702148438 2.311782836914062 4.38731861114502 2.312198162078857 4.387551784515381 2.312586545944214 L 4.387826442718506 2.31304407119751 C 4.388132095336914 2.313553810119629 4.388419151306152 2.314031600952148 4.388724327087402 2.314540386199951 L 4.543488502502441 2.572480916976929 L 3.857490062713623 2.984080076217651 L 3.342999935150146 2.126579999923706 L 4.028989791870117 1.714989900588989 Z M 5.057980060577393 3.429970026016235 C 5.057980060577393 3.429970026016235 5.135703086853027 3.559507369995117 5.230732440948486 3.717887163162231 L 5.830949783325195 4.718249797821045 L 5.830949783325195 5 C 5.830949783325195 5 4.830949783325195 5 4.830949783325195 5 L 4.830949783325195 4.606509208679199 L 4.371990203857422 3.841569900512695 L 5.057980060577393 3.429970026016235 Z M 2.830950021743774 4.199999809265137 L 3.830950021743774 4.199999809265137 L 3.830950021743774 5 C 3.830950021743774 5 2.830950021743774 5 2.830950021743774 5 L 2.830950021743774 4.199999809265137 Z M 0.6014699935913086 3.997550010681152 L 0.9388818740844727 4.199999809265137 L 1.830949783325195 4.199999809265137 L 1.830949783325195 5 C 1.830949783325195 5 1.187620639801025 5 0.932952880859375 5 L 0.3285698890686035 5 L 0.08696985244750977 4.855040073394775 L 0.5947556495666504 4.008740425109863 C 0.5947713851928711 4.008714199066162 0.5947818756103516 4.008696556091309 0.5947976112365723 4.008670330047607 L 0.5972528457641602 4.004578590393066 C 0.5975313186645508 4.004114627838135 0.5977969169616699 4.003672122955322 0.5980486869812012 4.003252506256104 L 0.5982513427734375 4.002914428710938 C 0.5987625122070312 4.002062797546387 0.599215030670166 4.001308441162109 0.599606990814209 4.000654697418213 L 0.599606990814209 4.000654697418213 C 0.5997200012207031 4.000466823577881 0.5998296737670898 4.000284194946289 0.5999321937561035 4.000112533569336 L 0.6000199317932129 3.999967098236084 C 0.600914478302002 3.998476028442383 0.6014060974121094 3.99765682220459 0.6014642715454102 3.997559785842896 L 0.6014699935913086 3.997550010681152 Z M 1.630459785461426 2.282560110092163 L 2.316459894180298 2.694159984588623 L 1.801959991455078 3.551650047302246 L 1.115970134735107 3.140059947967529 C 1.115970134735107 3.140059947967529 1.281026840209961 2.864960193634033 1.424161911010742 2.626397132873535 L 1.424161911010742 2.626397132873535 C 1.424655437469482 2.625574350357056 1.425148487091064 2.624752283096313 1.425641536712646 2.62393045425415 L 1.630463123321533 2.282561779022217 Z"/>
        </g>
        <text id="A" class="cls-5" transform="translate(-13.1 3.674) rotate(-90)"><tspan x="0" y="0">۳</tspan></text>
      </g>
      <g id="Group_75" data-name="Group 75" transform="translate(-180.005 137.038) rotate(90)">
        <line id="Line_7-2" data-name="Line 7" class="cls-3" x2="109.527" transform="translate(1.775 1.5)"/>
        <g id="Polygon_1-2" data-name="Polygon 1" class="cls-4" transform="translate(112.802 -1.499) rotate(90)">
          <path class="cls-6" d="M3,0,6,5H0Z"/>
          <path class="cls-7" d="M 3 0 C 3 0 3.001996040344238 0.003326892852783203 3.005743026733398 0.009571552276611328 L 3.005837440490723 0.009728908538818359 C 3.006765127182007 0.01127529144287109 3.007794618606567 0.01299095153808594 3.008929967880249 0.01488351821899414 L 3.008929967880249 0.01488351821899414 C 3.009509086608887 0.01584815979003906 3.010114431381226 0.01685762405395508 3.010746002197266 0.01791000366210938 L 3.010746002197266 0.01791000366210938 C 3.011061668395996 0.01843643188476562 3.011384010314941 0.01897335052490234 3.011712551116943 0.01952123641967773 L 3.011712551116943 0.01952123641967773 C 3.011974573135376 0.01995754241943359 3.012243986129761 0.02040672302246094 3.012514114379883 0.02085685729980469 L 3.015057802200317 0.02509641647338867 C 3.015340566635132 0.02556753158569336 3.015615463256836 0.02602577209472656 3.015905380249023 0.02650880813598633 L 3.016076326370239 0.0267939567565918 C 3.016183137893677 0.02697181701660156 3.016283512115479 0.02713918685913086 3.016391515731812 0.02731943130493164 L 3.514495611190796 0.8574924468994141 L 3.328574895858765 0.9690451622009277 L 3.345449924468994 0.9791698455810547 L 2.830950021743774 1.836669921875 L 2.144959926605225 1.42507004737854 C 2.144959926605225 1.42507004737854 2.273582458496094 1.210697412490845 2.402204990386963 0.9963250160217285 L 2.402204990386963 0.9963250160217285 C 2.404136180877686 0.9931063652038574 2.406076908111572 0.9898719787597656 2.408007621765137 0.9866538047790527 L 2.408556699752808 0.9857387542724609 C 2.409388542175293 0.9843525886535645 2.410227060317993 0.9829549789428711 2.411058902740479 0.9815688133239746 L 2.411548376083374 0.9807524681091309 C 2.412317276000977 0.9794712066650391 2.413060665130615 0.9782323837280273 2.413829326629639 0.9769511222839355 L 2.414761304855347 0.9753975868225098 C 2.415498495101929 0.9741692543029785 2.416232585906982 0.9729456901550293 2.416969299316406 0.9717178344726562 L 2.417407274246216 0.9709882736206055 C 2.417830467224121 0.9702825546264648 2.418276786804199 0.969538688659668 2.418699979782104 0.9688334465026855 L 2.423887252807617 0.9601879119873047 C 2.423981189727783 0.9600315093994141 2.424093961715698 0.959843635559082 2.424187660217285 0.9596872329711914 L 3 0 Z M 4.028989791870117 1.714989900588989 C 4.028989791870117 1.714989900588989 4.229182243347168 2.04863977432251 4.379815101623535 2.299691915512085 L 4.382698059082031 2.304496288299561 C 4.382771015167236 2.30461859703064 4.382829666137695 2.304716348648071 4.382903099060059 2.30483865737915 L 4.383929252624512 2.306549072265625 C 4.384559154510498 2.307598829269409 4.385189533233643 2.308649301528931 4.385817527770996 2.309695959091187 L 4.386836528778076 2.311394214630127 C 4.387069702148438 2.311782836914062 4.38731861114502 2.312198162078857 4.387551784515381 2.312586545944214 L 4.387826442718506 2.31304407119751 C 4.388132095336914 2.313553810119629 4.388419151306152 2.314031600952148 4.388724327087402 2.314540386199951 L 4.543488502502441 2.572480916976929 L 3.857490062713623 2.984080076217651 L 3.342999935150146 2.126579999923706 L 4.028989791870117 1.714989900588989 Z M 5.057980060577393 3.429970026016235 C 5.057980060577393 3.429970026016235 5.135703086853027 3.559507369995117 5.230732440948486 3.717887163162231 L 5.830949783325195 4.718249797821045 L 5.830949783325195 5 C 5.830949783325195 5 4.830949783325195 5 4.830949783325195 5 L 4.830949783325195 4.606509208679199 L 4.371990203857422 3.841569900512695 L 5.057980060577393 3.429970026016235 Z M 2.830950021743774 4.199999809265137 L 3.830950021743774 4.199999809265137 L 3.830950021743774 5 C 3.830950021743774 5 2.830950021743774 5 2.830950021743774 5 L 2.830950021743774 4.199999809265137 Z M 0.6014699935913086 3.997550010681152 L 0.9388818740844727 4.199999809265137 L 1.830949783325195 4.199999809265137 L 1.830949783325195 5 C 1.830949783325195 5 1.187620639801025 5 0.932952880859375 5 L 0.3285698890686035 5 L 0.08696985244750977 4.855040073394775 L 0.5947556495666504 4.008740425109863 C 0.5947713851928711 4.008714199066162 0.5947818756103516 4.008696556091309 0.5947976112365723 4.008670330047607 L 0.5972528457641602 4.004578590393066 C 0.5975313186645508 4.004114627838135 0.5977969169616699 4.003672122955322 0.5980486869812012 4.003252506256104 L 0.5982513427734375 4.002914428710938 C 0.5987625122070312 4.002062797546387 0.599215030670166 4.001308441162109 0.599606990814209 4.000654697418213 L 0.599606990814209 4.000654697418213 C 0.5997200012207031 4.000466823577881 0.5998296737670898 4.000284194946289 0.5999321937561035 4.000112533569336 L 0.6000199317932129 3.999967098236084 C 0.600914478302002 3.998476028442383 0.6014060974121094 3.99765682220459 0.6014642715454102 3.997559785842896 L 0.6014699935913086 3.997550010681152 Z M 1.630459785461426 2.282560110092163 L 2.316459894180298 2.694159984588623 L 1.801959991455078 3.551650047302246 L 1.115970134735107 3.140059947967529 C 1.115970134735107 3.140059947967529 1.281026840209961 2.864960193634033 1.424161911010742 2.626397132873535 L 1.424161911010742 2.626397132873535 C 1.424655437469482 2.625574350357056 1.425148487091064 2.624752283096313 1.425641536712646 2.62393045425415 L 1.630463123321533 2.282561779022217 Z"/>
        </g>
        <g id="Polygon_2-2" data-name="Polygon 2" class="cls-4" transform="translate(0.125 4.5) rotate(-90)">
          <path class="cls-6" d="M3,0,6,5H0Z"/>
          <path class="cls-7" d="M 3 0 C 3 0 3.001996040344238 0.003326892852783203 3.005743026733398 0.009571552276611328 L 3.005837440490723 0.009728908538818359 C 3.006765127182007 0.01127529144287109 3.007794618606567 0.01299095153808594 3.008929967880249 0.01488351821899414 L 3.008929967880249 0.01488351821899414 C 3.009509086608887 0.01584815979003906 3.010114431381226 0.01685762405395508 3.010746002197266 0.01791000366210938 L 3.010746002197266 0.01791000366210938 C 3.011061668395996 0.01843643188476562 3.011384010314941 0.01897335052490234 3.011712551116943 0.01952123641967773 L 3.011712551116943 0.01952123641967773 C 3.011974573135376 0.01995754241943359 3.012243986129761 0.02040672302246094 3.012514114379883 0.02085685729980469 L 3.015057802200317 0.02509641647338867 C 3.015340566635132 0.02556753158569336 3.015615463256836 0.02602577209472656 3.015905380249023 0.02650880813598633 L 3.016076326370239 0.0267939567565918 C 3.016183137893677 0.02697181701660156 3.016283512115479 0.02713918685913086 3.016391515731812 0.02731943130493164 L 3.514495611190796 0.8574924468994141 L 3.328574895858765 0.9690451622009277 L 3.345449924468994 0.9791698455810547 L 2.830950021743774 1.836669921875 L 2.144959926605225 1.42507004737854 C 2.144959926605225 1.42507004737854 2.273582458496094 1.210697412490845 2.402204990386963 0.9963250160217285 L 2.402204990386963 0.9963250160217285 C 2.404136180877686 0.9931063652038574 2.406076908111572 0.9898719787597656 2.408007621765137 0.9866538047790527 L 2.408556699752808 0.9857387542724609 C 2.409388542175293 0.9843525886535645 2.410227060317993 0.9829549789428711 2.411058902740479 0.9815688133239746 L 2.411548376083374 0.9807524681091309 C 2.412317276000977 0.9794712066650391 2.413060665130615 0.9782323837280273 2.413829326629639 0.9769511222839355 L 2.414761304855347 0.9753975868225098 C 2.415498495101929 0.9741692543029785 2.416232585906982 0.9729456901550293 2.416969299316406 0.9717178344726562 L 2.417407274246216 0.9709882736206055 C 2.417830467224121 0.9702825546264648 2.418276786804199 0.969538688659668 2.418699979782104 0.9688334465026855 L 2.423887252807617 0.9601879119873047 C 2.423981189727783 0.9600315093994141 2.424093961715698 0.959843635559082 2.424187660217285 0.9596872329711914 L 3 0 Z M 4.028989791870117 1.714989900588989 C 4.028989791870117 1.714989900588989 4.229182243347168 2.04863977432251 4.379815101623535 2.299691915512085 L 4.382698059082031 2.304496288299561 C 4.382771015167236 2.30461859703064 4.382829666137695 2.304716348648071 4.382903099060059 2.30483865737915 L 4.383929252624512 2.306549072265625 C 4.384559154510498 2.307598829269409 4.385189533233643 2.308649301528931 4.385817527770996 2.309695959091187 L 4.386836528778076 2.311394214630127 C 4.387069702148438 2.311782836914062 4.38731861114502 2.312198162078857 4.387551784515381 2.312586545944214 L 4.387826442718506 2.31304407119751 C 4.388132095336914 2.313553810119629 4.388419151306152 2.314031600952148 4.388724327087402 2.314540386199951 L 4.543488502502441 2.572480916976929 L 3.857490062713623 2.984080076217651 L 3.342999935150146 2.126579999923706 L 4.028989791870117 1.714989900588989 Z M 5.057980060577393 3.429970026016235 C 5.057980060577393 3.429970026016235 5.135703086853027 3.559507369995117 5.230732440948486 3.717887163162231 L 5.830949783325195 4.718249797821045 L 5.830949783325195 5 C 5.830949783325195 5 4.830949783325195 5 4.830949783325195 5 L 4.830949783325195 4.606509208679199 L 4.371990203857422 3.841569900512695 L 5.057980060577393 3.429970026016235 Z M 2.830950021743774 4.199999809265137 L 3.830950021743774 4.199999809265137 L 3.830950021743774 5 C 3.830950021743774 5 2.830950021743774 5 2.830950021743774 5 L 2.830950021743774 4.199999809265137 Z M 0.6014699935913086 3.997550010681152 L 0.9388818740844727 4.199999809265137 L 1.830949783325195 4.199999809265137 L 1.830949783325195 5 C 1.830949783325195 5 1.187620639801025 5 0.932952880859375 5 L 0.3285698890686035 5 L 0.08696985244750977 4.855040073394775 L 0.5947556495666504 4.008740425109863 C 0.5947713851928711 4.008714199066162 0.5947818756103516 4.008696556091309 0.5947976112365723 4.008670330047607 L 0.5972528457641602 4.004578590393066 C 0.5975313186645508 4.004114627838135 0.5977969169616699 4.003672122955322 0.5980486869812012 4.003252506256104 L 0.5982513427734375 4.002914428710938 C 0.5987625122070312 4.002062797546387 0.599215030670166 4.001308441162109 0.599606990814209 4.000654697418213 L 0.599606990814209 4.000654697418213 C 0.5997200012207031 4.000466823577881 0.5998296737670898 4.000284194946289 0.5999321937561035 4.000112533569336 L 0.6000199317932129 3.999967098236084 C 0.600914478302002 3.998476028442383 0.6014060974121094 3.99765682220459 0.6014642715454102 3.997559785842896 L 0.6014699935913086 3.997550010681152 Z M 1.630459785461426 2.282560110092163 L 2.316459894180298 2.694159984588623 L 1.801959991455078 3.551650047302246 L 1.115970134735107 3.140059947967529 C 1.115970134735107 3.140059947967529 1.281026840209961 2.864960193634033 1.424161911010742 2.626397132873535 L 1.424161911010742 2.626397132873535 C 1.424655437469482 2.625574350357056 1.425148487091064 2.624752283096313 1.425641536712646 2.62393045425415 L 1.630463123321533 2.282561779022217 Z"/>
        </g>
        <text id="B" class="cls-5" transform="translate(-13.1 3.757) rotate(-90)"><tspan x="0" y="0">۲</tspan></text>
      </g>
      <g id="Group_76" data-name="Group 76" transform="translate(-149.921 137.038) rotate(90)">
        <line id="Line_7-3" data-name="Line 7" class="cls-3" x2="109.527" transform="translate(1.775 1.5)"/>
        <g id="Polygon_1-3" data-name="Polygon 1" class="cls-4" transform="translate(112.802 -1.499) rotate(90)">
          <path class="cls-6" d="M3,0,6,5H0Z"/>
          <path class="cls-7" d="M 3 0 C 3 0 3.001996040344238 0.003326892852783203 3.005743026733398 0.009571552276611328 L 3.005837440490723 0.009728908538818359 C 3.006765127182007 0.01127529144287109 3.007794618606567 0.01299095153808594 3.008929967880249 0.01488351821899414 L 3.008929967880249 0.01488351821899414 C 3.009509086608887 0.01584815979003906 3.010114431381226 0.01685762405395508 3.010746002197266 0.01791000366210938 L 3.010746002197266 0.01791000366210938 C 3.011061668395996 0.01843643188476562 3.011384010314941 0.01897335052490234 3.011712551116943 0.01952123641967773 L 3.011712551116943 0.01952123641967773 C 3.011974573135376 0.01995754241943359 3.012243986129761 0.02040672302246094 3.012514114379883 0.02085685729980469 L 3.015057802200317 0.02509641647338867 C 3.015340566635132 0.02556753158569336 3.015615463256836 0.02602577209472656 3.015905380249023 0.02650880813598633 L 3.016076326370239 0.0267939567565918 C 3.016183137893677 0.02697181701660156 3.016283512115479 0.02713918685913086 3.016391515731812 0.02731943130493164 L 3.514495611190796 0.8574924468994141 L 3.328574895858765 0.9690451622009277 L 3.345449924468994 0.9791698455810547 L 2.830950021743774 1.836669921875 L 2.144959926605225 1.42507004737854 C 2.144959926605225 1.42507004737854 2.273582458496094 1.210697412490845 2.402204990386963 0.9963250160217285 L 2.402204990386963 0.9963250160217285 C 2.404136180877686 0.9931063652038574 2.406076908111572 0.9898719787597656 2.408007621765137 0.9866538047790527 L 2.408556699752808 0.9857387542724609 C 2.409388542175293 0.9843525886535645 2.410227060317993 0.9829549789428711 2.411058902740479 0.9815688133239746 L 2.411548376083374 0.9807524681091309 C 2.412317276000977 0.9794712066650391 2.413060665130615 0.9782323837280273 2.413829326629639 0.9769511222839355 L 2.414761304855347 0.9753975868225098 C 2.415498495101929 0.9741692543029785 2.416232585906982 0.9729456901550293 2.416969299316406 0.9717178344726562 L 2.417407274246216 0.9709882736206055 C 2.417830467224121 0.9702825546264648 2.418276786804199 0.969538688659668 2.418699979782104 0.9688334465026855 L 2.423887252807617 0.9601879119873047 C 2.423981189727783 0.9600315093994141 2.424093961715698 0.959843635559082 2.424187660217285 0.9596872329711914 L 3 0 Z M 4.028989791870117 1.714989900588989 C 4.028989791870117 1.714989900588989 4.229182243347168 2.04863977432251 4.379815101623535 2.299691915512085 L 4.382698059082031 2.304496288299561 C 4.382771015167236 2.30461859703064 4.382829666137695 2.304716348648071 4.382903099060059 2.30483865737915 L 4.383929252624512 2.306549072265625 C 4.384559154510498 2.307598829269409 4.385189533233643 2.308649301528931 4.385817527770996 2.309695959091187 L 4.386836528778076 2.311394214630127 C 4.387069702148438 2.311782836914062 4.38731861114502 2.312198162078857 4.387551784515381 2.312586545944214 L 4.387826442718506 2.31304407119751 C 4.388132095336914 2.313553810119629 4.388419151306152 2.314031600952148 4.388724327087402 2.314540386199951 L 4.543488502502441 2.572480916976929 L 3.857490062713623 2.984080076217651 L 3.342999935150146 2.126579999923706 L 4.028989791870117 1.714989900588989 Z M 5.057980060577393 3.429970026016235 C 5.057980060577393 3.429970026016235 5.135703086853027 3.559507369995117 5.230732440948486 3.717887163162231 L 5.830949783325195 4.718249797821045 L 5.830949783325195 5 C 5.830949783325195 5 4.830949783325195 5 4.830949783325195 5 L 4.830949783325195 4.606509208679199 L 4.371990203857422 3.841569900512695 L 5.057980060577393 3.429970026016235 Z M 2.830950021743774 4.199999809265137 L 3.830950021743774 4.199999809265137 L 3.830950021743774 5 C 3.830950021743774 5 2.830950021743774 5 2.830950021743774 5 L 2.830950021743774 4.199999809265137 Z M 0.6014699935913086 3.997550010681152 L 0.9388818740844727 4.199999809265137 L 1.830949783325195 4.199999809265137 L 1.830949783325195 5 C 1.830949783325195 5 1.187620639801025 5 0.932952880859375 5 L 0.3285698890686035 5 L 0.08696985244750977 4.855040073394775 L 0.5947556495666504 4.008740425109863 C 0.5947713851928711 4.008714199066162 0.5947818756103516 4.008696556091309 0.5947976112365723 4.008670330047607 L 0.5972528457641602 4.004578590393066 C 0.5975313186645508 4.004114627838135 0.5977969169616699 4.003672122955322 0.5980486869812012 4.003252506256104 L 0.5982513427734375 4.002914428710938 C 0.5987625122070312 4.002062797546387 0.599215030670166 4.001308441162109 0.599606990814209 4.000654697418213 L 0.599606990814209 4.000654697418213 C 0.5997200012207031 4.000466823577881 0.5998296737670898 4.000284194946289 0.5999321937561035 4.000112533569336 L 0.6000199317932129 3.999967098236084 C 0.600914478302002 3.998476028442383 0.6014060974121094 3.99765682220459 0.6014642715454102 3.997559785842896 L 0.6014699935913086 3.997550010681152 Z M 1.630459785461426 2.282560110092163 L 2.316459894180298 2.694159984588623 L 1.801959991455078 3.551650047302246 L 1.115970134735107 3.140059947967529 C 1.115970134735107 3.140059947967529 1.281026840209961 2.864960193634033 1.424161911010742 2.626397132873535 L 1.424161911010742 2.626397132873535 C 1.424655437469482 2.625574350357056 1.425148487091064 2.624752283096313 1.425641536712646 2.62393045425415 L 1.630463123321533 2.282561779022217 Z"/>
        </g>
        <g id="Polygon_2-3" data-name="Polygon 2" class="cls-4" transform="translate(0.125 4.5) rotate(-90)">
          <path class="cls-6" d="M3,0,6,5H0Z"/>
          <path class="cls-7" d="M 3 0 C 3 0 3.001996040344238 0.003326892852783203 3.005743026733398 0.009571552276611328 L 3.005837440490723 0.009728908538818359 C 3.006765127182007 0.01127529144287109 3.007794618606567 0.01299095153808594 3.008929967880249 0.01488351821899414 L 3.008929967880249 0.01488351821899414 C 3.009509086608887 0.01584815979003906 3.010114431381226 0.01685762405395508 3.010746002197266 0.01791000366210938 L 3.010746002197266 0.01791000366210938 C 3.011061668395996 0.01843643188476562 3.011384010314941 0.01897335052490234 3.011712551116943 0.01952123641967773 L 3.011712551116943 0.01952123641967773 C 3.011974573135376 0.01995754241943359 3.012243986129761 0.02040672302246094 3.012514114379883 0.02085685729980469 L 3.015057802200317 0.02509641647338867 C 3.015340566635132 0.02556753158569336 3.015615463256836 0.02602577209472656 3.015905380249023 0.02650880813598633 L 3.016076326370239 0.0267939567565918 C 3.016183137893677 0.02697181701660156 3.016283512115479 0.02713918685913086 3.016391515731812 0.02731943130493164 L 3.514495611190796 0.8574924468994141 L 3.328574895858765 0.9690451622009277 L 3.345449924468994 0.9791698455810547 L 2.830950021743774 1.836669921875 L 2.144959926605225 1.42507004737854 C 2.144959926605225 1.42507004737854 2.273582458496094 1.210697412490845 2.402204990386963 0.9963250160217285 L 2.402204990386963 0.9963250160217285 C 2.404136180877686 0.9931063652038574 2.406076908111572 0.9898719787597656 2.408007621765137 0.9866538047790527 L 2.408556699752808 0.9857387542724609 C 2.409388542175293 0.9843525886535645 2.410227060317993 0.9829549789428711 2.411058902740479 0.9815688133239746 L 2.411548376083374 0.9807524681091309 C 2.412317276000977 0.9794712066650391 2.413060665130615 0.9782323837280273 2.413829326629639 0.9769511222839355 L 2.414761304855347 0.9753975868225098 C 2.415498495101929 0.9741692543029785 2.416232585906982 0.9729456901550293 2.416969299316406 0.9717178344726562 L 2.417407274246216 0.9709882736206055 C 2.417830467224121 0.9702825546264648 2.418276786804199 0.969538688659668 2.418699979782104 0.9688334465026855 L 2.423887252807617 0.9601879119873047 C 2.423981189727783 0.9600315093994141 2.424093961715698 0.959843635559082 2.424187660217285 0.9596872329711914 L 3 0 Z M 4.028989791870117 1.714989900588989 C 4.028989791870117 1.714989900588989 4.229182243347168 2.04863977432251 4.379815101623535 2.299691915512085 L 4.382698059082031 2.304496288299561 C 4.382771015167236 2.30461859703064 4.382829666137695 2.304716348648071 4.382903099060059 2.30483865737915 L 4.383929252624512 2.306549072265625 C 4.384559154510498 2.307598829269409 4.385189533233643 2.308649301528931 4.385817527770996 2.309695959091187 L 4.386836528778076 2.311394214630127 C 4.387069702148438 2.311782836914062 4.38731861114502 2.312198162078857 4.387551784515381 2.312586545944214 L 4.387826442718506 2.31304407119751 C 4.388132095336914 2.313553810119629 4.388419151306152 2.314031600952148 4.388724327087402 2.314540386199951 L 4.543488502502441 2.572480916976929 L 3.857490062713623 2.984080076217651 L 3.342999935150146 2.126579999923706 L 4.028989791870117 1.714989900588989 Z M 5.057980060577393 3.429970026016235 C 5.057980060577393 3.429970026016235 5.135703086853027 3.559507369995117 5.230732440948486 3.717887163162231 L 5.830949783325195 4.718249797821045 L 5.830949783325195 5 C 5.830949783325195 5 4.830949783325195 5 4.830949783325195 5 L 4.830949783325195 4.606509208679199 L 4.371990203857422 3.841569900512695 L 5.057980060577393 3.429970026016235 Z M 2.830950021743774 4.199999809265137 L 3.830950021743774 4.199999809265137 L 3.830950021743774 5 C 3.830950021743774 5 2.830950021743774 5 2.830950021743774 5 L 2.830950021743774 4.199999809265137 Z M 0.6014699935913086 3.997550010681152 L 0.9388818740844727 4.199999809265137 L 1.830949783325195 4.199999809265137 L 1.830949783325195 5 C 1.830949783325195 5 1.187620639801025 5 0.932952880859375 5 L 0.3285698890686035 5 L 0.08696985244750977 4.855040073394775 L 0.5947556495666504 4.008740425109863 C 0.5947713851928711 4.008714199066162 0.5947818756103516 4.008696556091309 0.5947976112365723 4.008670330047607 L 0.5972528457641602 4.004578590393066 C 0.5975313186645508 4.004114627838135 0.5977969169616699 4.003672122955322 0.5980486869812012 4.003252506256104 L 0.5982513427734375 4.002914428710938 C 0.5987625122070312 4.002062797546387 0.599215030670166 4.001308441162109 0.599606990814209 4.000654697418213 L 0.599606990814209 4.000654697418213 C 0.5997200012207031 4.000466823577881 0.5998296737670898 4.000284194946289 0.5999321937561035 4.000112533569336 L 0.6000199317932129 3.999967098236084 C 0.600914478302002 3.998476028442383 0.6014060974121094 3.99765682220459 0.6014642715454102 3.997559785842896 L 0.6014699935913086 3.997550010681152 Z M 1.630459785461426 2.282560110092163 L 2.316459894180298 2.694159984588623 L 1.801959991455078 3.551650047302246 L 1.115970134735107 3.140059947967529 C 1.115970134735107 3.140059947967529 1.281026840209961 2.864960193634033 1.424161911010742 2.626397132873535 L 1.424161911010742 2.626397132873535 C 1.424655437469482 2.625574350357056 1.425148487091064 2.624752283096313 1.425641536712646 2.62393045425415 L 1.630463123321533 2.282561779022217 Z"/>
        </g>
        <text id="C" class="cls-5" transform="translate(-13.1 3.841) rotate(-90)"><tspan x="0" y="0">۱</tspan></text>
      </g>
    </g>
  </g>
</svg>
