<?xml version="1.0" encoding="utf-8"?>
<!-- Generator: Adobe Illustrator 18.0.0, SVG Export Plug-In . SVG Version: 6.00 Build 0)  -->
<!DOCTYPE svg PUBLIC "-//W3C//DTD SVG 1.1//EN" "http://www.w3.org/Graphics/SVG/1.1/DTD/svg11.dtd">
<svg version="1.1" id="Layer_1" xmlns="http://www.w3.org/2000/svg" xmlns:xlink="http://www.w3.org/1999/xlink" x="0px" y="0px"
	 width="436.8px" height="566.9px" viewBox="0 0 436.8 566.9" enable-background="new 0 0 436.8 566.9" xml:space="preserve">
<path fill="#DADADA" stroke="#000000" stroke-miterlimit="10" d="M37.9,552"/>
<path fill="#D2D2D2" stroke="#878787" stroke-miterlimit="10" d="M49.3,546.1l353.2-90.8c0.2,0,0.3-0.2,0.3-0.4l-1.1-69.3V37.4h-0.2
	c-1.1-10.8-8.4-18.2-19.8-18.2c-1.8,0-3.5,0.2-5.1,0.6c-0.2-0.2-0.3-0.3-0.3-0.3L38,88.9c-0.4,0.1-0.4,0.5-0.1,0.7
	c3.7,2.2,10.1,11.9,11.7,16.8v0.1l-0.8,439.2C48.9,546,49.1,546.2,49.3,546.1z"/>
<path fill="#FFFFFF" stroke="#878787" stroke-width="1.5" stroke-miterlimit="10" d="M49.6,111.8c0,12.6-5.9,22.7-13.2,22.7
	s-13.2-10.2-13.2-22.7c0-9.9,5.9-22.7,13.2-22.7S49.6,99.2,49.6,111.8z"/>
</svg>
