<?xml version="1.0" encoding="utf-8"?>
<!-- Generator: Adobe Illustrator 18.0.0, SVG Export Plug-In . SVG Version: 6.00 Build 0)  -->
<!DOCTYPE svg PUBLIC "-//W3C//DTD SVG 1.1//EN" "http://www.w3.org/Graphics/SVG/1.1/DTD/svg11.dtd">
<svg version="1.1" id="Layer_1" xmlns="http://www.w3.org/2000/svg" xmlns:xlink="http://www.w3.org/1999/xlink" x="0px" y="0px"
	 viewBox="0 0 436.8 566.9" enable-background="new 0 0 436.8 566.9" xml:space="preserve">
<path fill="#DADADA" stroke="#000000" stroke-miterlimit="10" d="M37.9,552"/>
<polygon fill="#D2D2D2" stroke="#878787" stroke-miterlimit="10" points="33.6,119 393.9,38.4 393.9,386.6 395,456.2 35.7,548.6 "/>
<path fill="#D2D2D2" stroke="#878787" stroke-miterlimit="10" d="M417.9,38.4c0-12.4-7.6-21.1-20-21.1c-1.8,0-3.5,0.2-5.1,0.6
	c-0.2-0.2-0.3-0.3-0.3-0.3L46.8,89.4l-10.7,18.1l7.6,18l5.4,8.9c0,0,340.2-72.3,349.2-72.3c0,0,0,0,0,0
	C410.6,61.8,417.9,50.6,417.9,38.4z"/>
<ellipse fill="#FFFFFF" stroke="#878787" stroke-width="0.8517" stroke-miterlimit="10" cx="48.6" cy="112.1" rx="16" ry="22.7"/>
</svg>
