<?xml version="1.0" encoding="utf-8"?>
<!-- Generator: Adobe Illustrator 18.0.0, SVG Export Plug-In . SVG Version: 6.00 Build 0)  -->
<!DOCTYPE svg PUBLIC "-//W3C//DTD SVG 1.1//EN" "http://www.w3.org/Graphics/SVG/1.1/DTD/svg11.dtd">
<svg version="1.1" id="Layer_1" xmlns="http://www.w3.org/2000/svg" xmlns:xlink="http://www.w3.org/1999/xlink" x="0px" y="0px"
	 viewBox="0 0 436.8 566.9" enable-background="new 0 0 436.8 566.9" xml:space="preserve">
<path fill="#DADADA" stroke="#000000" stroke-miterlimit="10" d="M37.9,552"/>
<polygon fill="#D2D2D2" stroke="#878787" stroke-miterlimit="10" points="33.6,122.2 393.9,41.7 393.9,389.9 395,459.5 35.7,551.9 
	"/>
<path fill="#D2D2D2" stroke="#878787" stroke-miterlimit="10" d="M59.3,154.7c0,0,330-77.7,339-77.7s22.8-11.9,21.4-35.2
	c-1.4-23.3-17.1-24.3-17.1-24.3L60.5,87.5L46.2,88v66.7H59.3z"/>
<path fill="#FFFFFF" stroke="#878787" stroke-miterlimit="10" d="M17,154.7h41.7c0,0,9.5-6.1,11.4-28.2C72.6,98.2,60.5,88,60.5,88
	H33.6h-7.7H17V154.7z"/>
<path fill="#FFFFFF" stroke="#878787" stroke-miterlimit="10" d="M60.5,88H17.7c-0.1,0-0.8-0.3-0.7-0.3L368.5,15l33.2,2.6
	c0.1,0,0.1,0.1,0,0.1L60.5,88z"/>
</svg>
