<?xml version="1.0" encoding="utf-8"?>
<!-- Generator: Adobe Illustrator 18.0.0, SVG Export Plug-In . SVG Version: 6.00 Build 0)  -->
<!DOCTYPE svg PUBLIC "-//W3C//DTD SVG 1.1//EN" "http://www.w3.org/Graphics/SVG/1.1/DTD/svg11.dtd">
<svg version="1.1" id="Layer_1" xmlns="http://www.w3.org/2000/svg" xmlns:xlink="http://www.w3.org/1999/xlink" x="0px" y="0px"
	 width="422px" height="483px" viewBox="0 0 422 483" enable-background="new 0 0 422 483" xml:space="preserve">
<rect x="47.4" y="7.7" fill="#DCDCDC" width="349" height="377.5"/>
<g>
	<g>
		<rect x="81.9" y="80.8" fill="none" stroke="#616261" stroke-width="3" stroke-miterlimit="10" width="280.2" height="389"/>
		<rect x="104.9" y="103.9" fill="none" stroke="#616261" stroke-width="3" stroke-miterlimit="10" width="234" height="342.8"/>
	</g>
</g>
<g>
	<g>
		<line fill="none" stroke="#464545" stroke-width="1.6329" x1="33" y1="462" x2="33" y2="15"/>
		<g>
			<polygon fill="#464545" points="37.9,460.5 33,469 28.1,460.5 			"/>
		</g>
		<g>
			<polygon fill="#464545" points="37.9,16.5 33,8 28.1,16.5 			"/>
		</g>
	</g>
</g>
<g>
	<g>
		<path fill="#464545" d="M26.3,256.7h-8.6v-1.1h3.7v-5h-3.7v-1.1h8.6v1.1h-3.9v5h3.9V256.7z"/>
		<path fill="#464545" d="M23.1,248c-0.6,0-1.1-0.1-1.6-0.4c-0.5-0.3-0.9-0.6-1.2-1.1c-0.3-0.5-0.4-1-0.4-1.6c0-0.6,0.1-1.1,0.4-1.6
			s0.7-0.8,1.2-1c0.5-0.2,1.1-0.3,1.7-0.3h0.2v5c0.6,0,1.1-0.3,1.5-0.7c0.4-0.4,0.6-0.9,0.6-1.6c0-0.4-0.1-0.7-0.2-1.1
			c-0.1-0.3-0.3-0.6-0.6-0.9l0.6-0.5c0.6,0.7,1,1.5,1,2.5c0,0.9-0.3,1.7-0.9,2.3C24.9,247.7,24.1,248,23.1,248z M22.8,247v-4.1
			c-0.2,0-0.5,0-0.7,0.1c-0.2,0.1-0.5,0.2-0.7,0.4s-0.4,0.4-0.5,0.6c-0.1,0.3-0.2,0.6-0.2,0.9c0,0.3,0.1,0.6,0.2,0.9
			c0.1,0.3,0.3,0.5,0.5,0.6c0.2,0.2,0.4,0.3,0.7,0.4C22.3,246.9,22.5,246.9,22.8,247z"/>
		<path fill="#464545" d="M19,240.3c-0.1,0.1-0.3,0.2-0.5,0.2s-0.3-0.1-0.5-0.2c-0.1-0.1-0.2-0.3-0.2-0.5s0.1-0.3,0.2-0.5
			c0.1-0.1,0.3-0.2,0.5-0.2s0.3,0.1,0.5,0.2s0.2,0.3,0.2,0.5S19.1,240.2,19,240.3z M26.3,240.4h-6.2v-1h6.2V240.4z"/>
		<path fill="#464545" d="M23.1,237.8c-1,0-1.8-0.3-2.3-0.8s-0.9-1.2-0.9-2c0-0.4,0.1-0.8,0.3-1.2s0.5-0.7,0.8-0.9h-0.9v-1h6.1
			c0.5,0,0.9,0.1,1.2,0.2c0.3,0.2,0.6,0.4,0.8,0.7c0.2,0.3,0.3,0.6,0.4,0.9c0.1,0.3,0.1,0.7,0.1,1.1c0,0.5-0.1,1-0.2,1.4
			s-0.4,0.8-0.7,1.1l-0.7-0.5c0.3-0.3,0.5-0.5,0.6-0.9c0.1-0.3,0.2-0.7,0.2-1.2c0-0.6-0.1-1-0.4-1.4s-0.8-0.6-1.4-0.6h-0.9
			c0.3,0.2,0.6,0.5,0.8,0.9c0.2,0.4,0.3,0.8,0.3,1.2c0,0.8-0.3,1.5-0.9,2S24.1,237.8,23.1,237.8z M23.1,236.8c0.7,0,1.3-0.2,1.7-0.5
			c0.4-0.4,0.7-0.8,0.7-1.5c0-0.4-0.1-0.7-0.3-1.1s-0.4-0.6-0.7-0.8h-2.7c-0.3,0.2-0.5,0.4-0.7,0.8c-0.2,0.3-0.3,0.7-0.3,1.1
			c0,0.6,0.2,1.1,0.7,1.5S22.4,236.8,23.1,236.8z"/>
		<path fill="#464545" d="M26.3,230.1h-8.6v-1H21c-0.3-0.2-0.5-0.6-0.7-0.9c-0.2-0.4-0.3-0.8-0.3-1.3c0-1.3,0.7-2,2-2h4.4v1h-4.1
			c-0.5,0-0.9,0.1-1.1,0.4c-0.2,0.2-0.3,0.6-0.3,1c0,0.4,0.1,0.7,0.3,1s0.4,0.6,0.7,0.8h4.5V230.1z"/>
		<path fill="#464545" d="M20.9,223.9h-0.8v-1h-1.7v-1h1.7v-1.3h0.8v1.3h3.9c0.2,0,0.4-0.1,0.6-0.2c0.1-0.1,0.2-0.3,0.2-0.5
			c0-0.3-0.1-0.5-0.3-0.7l0.7-0.3c0.3,0.3,0.4,0.7,0.4,1.1c0,0.5-0.1,0.8-0.4,1c-0.3,0.2-0.6,0.3-1.1,0.3h-4.1V223.9z"/>
	</g>
</g>
<g>
	<g>
		<line fill="none" stroke="#464545" stroke-width="1.5" x1="53.4" y1="399" x2="390" y2="399"/>
		<g>
			<polygon fill="#464545" points="54.7,403.4 47,399 54.7,394.5 			"/>
		</g>
		<g>
			<polygon fill="#464545" points="388.7,403.4 396.5,399 388.7,394.5 			"/>
		</g>
	</g>
</g>
<g>
	<g>
		<g>
			<path fill="#464545" d="M123.8,407.9h1.3l2,7.6l2.1-7.6h0.9l2.1,7.6l2-7.6h1.3l-2.6,9.1h-1.3l-2-7.3l-2,7.3h-1.2L123.8,407.9z"/>
			<path fill="#464545" d="M136.8,409.3c-0.1-0.1-0.2-0.3-0.2-0.5c0-0.2,0.1-0.4,0.2-0.5c0.1-0.1,0.3-0.2,0.5-0.2s0.4,0.1,0.5,0.2
				c0.1,0.1,0.2,0.3,0.2,0.5c0,0.2-0.1,0.4-0.2,0.5s-0.3,0.2-0.5,0.2S136.9,409.4,136.8,409.3z M136.8,417.1v-6.6h1v6.6H136.8z"/>
			<path fill="#464545" d="M139.4,413.8c0-1,0.3-1.9,0.8-2.5c0.5-0.6,1.3-1,2.1-1c0.4,0,0.9,0.1,1.2,0.3c0.4,0.2,0.7,0.5,1,0.9v-3.5
				h1v9.1h-1v-1c-0.3,0.3-0.6,0.6-1,0.8c-0.4,0.2-0.8,0.3-1.3,0.3c-0.9,0-1.6-0.3-2.1-0.9C139.7,415.7,139.4,414.8,139.4,413.8z
				 M141.1,411.9c-0.4,0.5-0.6,1.1-0.6,1.8c0,0.8,0.2,1.4,0.6,1.8c0.4,0.5,0.9,0.7,1.6,0.7c0.4,0,0.8-0.1,1.1-0.3s0.6-0.5,0.8-0.7
				v-3c-0.2-0.3-0.5-0.6-0.8-0.8c-0.4-0.2-0.8-0.3-1.1-0.3C142,411.2,141.5,411.4,141.1,411.9z"/>
			<path fill="#464545" d="M146.8,411.3v-0.9h1.1v-1.8h1v1.8h1.4v0.9h-1.4v4.1c0,0.3,0.1,0.5,0.2,0.6c0.1,0.2,0.3,0.2,0.5,0.2
				c0.3,0,0.5-0.1,0.7-0.3l0.3,0.8c-0.3,0.3-0.7,0.4-1.2,0.4c-0.5,0-0.8-0.1-1.1-0.4c-0.2-0.3-0.4-0.7-0.4-1.1v-4.3H146.8z"/>
			<path fill="#464545" d="M151.7,417.1v-9.1h1v3.5c0.2-0.3,0.6-0.6,1-0.8s0.9-0.3,1.3-0.3c1.4,0,2.1,0.7,2.1,2.1v4.7h-1v-4.4
				c0-0.6-0.1-0.9-0.4-1.2s-0.6-0.3-1.1-0.3c-0.4,0-0.7,0.1-1.1,0.3s-0.6,0.4-0.8,0.7v4.8H151.7z"/>
		</g>
	</g>
	<g>
		<g>
			<path fill="#464545" d="M165.9,414.6v-0.9l3.7-5.5h1.5v5.5h1.2v1h-1.2v2.2H170v-2.2H165.9z M167,413.7h3v-4.5L167,413.7z"/>
			<path fill="#464545" d="M173.1,414.1v-0.8h3.1v0.8H173.1z"/>
			<path fill="#464545" d="M177.2,414.6c0-0.5,0.2-1,0.6-1.4s0.9-0.7,1.4-0.9c-0.3-0.1-0.7-0.2-0.9-0.4c-0.3-0.2-0.5-0.4-0.7-0.7
				c-0.2-0.3-0.3-0.6-0.3-1c0-0.4,0.1-0.7,0.3-1s0.4-0.5,0.7-0.7c0.3-0.2,0.6-0.3,0.9-0.4c0.3-0.1,0.7-0.1,1.1-0.1
				c0.4,0,0.7,0,1.1,0.1c0.3,0.1,0.7,0.2,0.9,0.4c0.3,0.2,0.5,0.4,0.7,0.7s0.3,0.6,0.3,1c0,0.5-0.2,0.9-0.5,1.3
				c-0.4,0.3-0.8,0.6-1.4,0.8c0.6,0.2,1.1,0.5,1.4,0.8s0.6,0.9,0.6,1.4c0,0.7-0.3,1.3-0.9,1.7c-0.6,0.4-1.3,0.6-2.2,0.6
				c-0.6,0-1.1-0.1-1.5-0.3s-0.8-0.5-1.1-0.8C177.3,415.5,177.2,415.1,177.2,414.6z M178.3,414.5c0,0.4,0.2,0.8,0.6,1.1
				s0.9,0.4,1.4,0.4c0.5,0,1-0.1,1.4-0.4s0.6-0.6,0.6-1.1c0-0.2-0.1-0.4-0.2-0.6c-0.1-0.2-0.2-0.3-0.4-0.5c-0.2-0.1-0.3-0.2-0.5-0.3
				s-0.4-0.2-0.5-0.2c-0.2,0-0.3-0.1-0.4-0.1c-0.1,0-0.3,0-0.4,0.1c-0.2,0-0.3,0.1-0.5,0.2s-0.4,0.2-0.5,0.3
				c-0.2,0.1-0.3,0.3-0.4,0.5S178.3,414.3,178.3,414.5z M178.4,410.5c0,0.2,0,0.4,0.1,0.5c0.1,0.2,0.2,0.3,0.4,0.4
				c0.1,0.1,0.3,0.2,0.5,0.3c0.2,0.1,0.3,0.1,0.5,0.2c0.1,0,0.3,0.1,0.4,0.1c0.1,0,0.3,0,0.4-0.1s0.3-0.1,0.5-0.2s0.3-0.2,0.5-0.3
				c0.1-0.1,0.3-0.2,0.4-0.4c0.1-0.2,0.1-0.3,0.1-0.5c0-0.4-0.2-0.8-0.5-1c-0.4-0.3-0.8-0.4-1.3-0.4c-0.5,0-1,0.1-1.3,0.4
				C178.6,409.7,178.4,410,178.4,410.5z"/>
			<path fill="#464545" d="M191.3,413.7c0-0.6,0.1-1.2,0.4-1.7c0.3-0.5,0.6-0.9,1.1-1.2s1-0.4,1.6-0.4c1,0,1.7,0.4,2.3,1.1l-0.6,0.6
				c-0.4-0.5-0.9-0.8-1.6-0.8c-0.6,0-1.2,0.2-1.6,0.7s-0.6,1-0.6,1.7c0,0.7,0.2,1.3,0.6,1.7s0.9,0.7,1.6,0.7c0.6,0,1.2-0.3,1.6-0.8
				l0.6,0.6c-0.6,0.7-1.3,1.1-2.3,1.1c-0.9,0-1.7-0.3-2.2-0.9C191.5,415.4,191.3,414.6,191.3,413.7z"/>
			<path fill="#464545" d="M198,416.8v-6.2h1v0.9c0.2-0.2,0.4-0.5,0.8-0.7c0.4-0.2,0.8-0.3,1.2-0.3c0.4,0,0.8,0.1,1.1,0.3
				s0.5,0.5,0.6,0.8c0.2-0.3,0.5-0.6,0.9-0.8c0.4-0.2,0.8-0.4,1.2-0.4c0.6,0,1,0.2,1.3,0.5s0.4,0.8,0.4,1.4v4.5h-1v-4.2
				c0-0.9-0.4-1.3-1.1-1.3c-0.3,0-0.6,0.1-0.9,0.3s-0.5,0.4-0.7,0.7v4.5h-1v-4.2c0-0.9-0.4-1.3-1.1-1.3c-0.3,0-0.6,0.1-0.9,0.3
				c-0.3,0.2-0.5,0.4-0.7,0.7v4.5H198z"/>
			<path fill="#464545" d="M211.3,413.7c0-0.6,0.1-1.1,0.4-1.6c0.3-0.5,0.6-0.9,1.1-1.2s1-0.4,1.6-0.4c0.6,0,1.1,0.1,1.6,0.4
				c0.5,0.3,0.8,0.7,1,1.2s0.3,1.1,0.3,1.7v0.2h-5c0,0.6,0.3,1.1,0.7,1.5c0.4,0.4,0.9,0.6,1.6,0.6c0.4,0,0.7-0.1,1.1-0.2
				c0.3-0.1,0.6-0.3,0.9-0.6l0.5,0.6c-0.7,0.6-1.5,1-2.5,1c-0.9,0-1.7-0.3-2.3-0.9S211.3,414.6,211.3,413.7z M212.3,413.3h4.1
				c0-0.2,0-0.5-0.1-0.7c-0.1-0.2-0.2-0.5-0.4-0.7c-0.2-0.2-0.4-0.4-0.6-0.5c-0.3-0.1-0.6-0.2-0.9-0.2c-0.3,0-0.6,0.1-0.9,0.2
				s-0.5,0.3-0.6,0.5s-0.3,0.4-0.4,0.7C212.4,412.8,212.3,413,212.3,413.3z"/>
			<path fill="#464545" d="M218.1,416.8l2.4-3.2l-2.2-3h1.1l1.7,2.4l1.7-2.4h1.1l-2.2,3l2.4,3.2h-1.1l-1.9-2.5l-1.9,2.5H218.1z"/>
			<path fill="#464545" d="M224.3,411.4v-0.8h1v-1.7h1v1.7h1.3v0.8h-1.3v3.9c0,0.2,0.1,0.4,0.2,0.6c0.1,0.1,0.3,0.2,0.5,0.2
				c0.3,0,0.5-0.1,0.7-0.3l0.3,0.7c-0.3,0.3-0.7,0.4-1.1,0.4c-0.5,0-0.8-0.1-1-0.4s-0.3-0.6-0.3-1.1v-4.1H224.3z"/>
			<path fill="#464545" d="M228.6,413.7c0-0.6,0.1-1.1,0.4-1.6c0.3-0.5,0.6-0.9,1.1-1.2s1-0.4,1.6-0.4c0.6,0,1.1,0.1,1.6,0.4
				c0.5,0.3,0.8,0.7,1,1.2s0.3,1.1,0.3,1.7v0.2h-5c0,0.6,0.3,1.1,0.7,1.5c0.4,0.4,0.9,0.6,1.6,0.6c0.4,0,0.7-0.1,1.1-0.2
				c0.3-0.1,0.6-0.3,0.9-0.6l0.5,0.6c-0.7,0.6-1.5,1-2.5,1c-0.9,0-1.7-0.3-2.3-0.9S228.6,414.6,228.6,413.7z M229.6,413.3h4.1
				c0-0.2,0-0.5-0.1-0.7c-0.1-0.2-0.2-0.5-0.4-0.7c-0.2-0.2-0.4-0.4-0.6-0.5c-0.3-0.1-0.6-0.2-0.9-0.2c-0.3,0-0.6,0.1-0.9,0.2
				s-0.5,0.3-0.6,0.5s-0.3,0.4-0.4,0.7C229.6,412.8,229.6,413,229.6,413.3z"/>
			<path fill="#464545" d="M236.2,416.8v-6.2h1v0.9c0.2-0.3,0.6-0.5,1-0.7c0.4-0.2,0.8-0.3,1.3-0.3c1.3,0,2,0.7,2,2v4.4h-1v-4.1
				c0-0.5-0.1-0.9-0.4-1.1c-0.2-0.2-0.6-0.3-1-0.3c-0.4,0-0.7,0.1-1,0.3c-0.3,0.2-0.6,0.4-0.8,0.7v4.5H236.2z"/>
			<path fill="#464545" d="M242.9,413.7c0-1,0.3-1.8,0.8-2.4c0.5-0.6,1.2-0.9,2-0.9c0.4,0,0.8,0.1,1.2,0.3c0.4,0.2,0.7,0.5,0.9,0.8
				v-3.3h1v8.6h-1v-0.9c-0.2,0.3-0.5,0.6-0.9,0.8s-0.8,0.3-1.2,0.3c-0.8,0-1.5-0.3-2-0.9C243.1,415.5,242.9,414.7,242.9,413.7z
				 M244.4,412c-0.4,0.5-0.5,1-0.5,1.7s0.2,1.3,0.5,1.7c0.4,0.4,0.8,0.7,1.5,0.7c0.4,0,0.7-0.1,1.1-0.3c0.3-0.2,0.6-0.4,0.8-0.7
				v-2.8c-0.2-0.3-0.4-0.5-0.8-0.7c-0.3-0.2-0.7-0.3-1.1-0.3C245.3,411.3,244.8,411.5,244.4,412z"/>
			<path fill="#464545" d="M250.7,409.5c-0.1-0.1-0.2-0.3-0.2-0.5s0.1-0.3,0.2-0.5c0.1-0.1,0.3-0.2,0.5-0.2s0.3,0.1,0.5,0.2
				c0.1,0.1,0.2,0.3,0.2,0.5s-0.1,0.3-0.2,0.5c-0.1,0.1-0.3,0.2-0.5,0.2S250.8,409.6,250.7,409.5z M250.6,416.8v-6.2h1v6.2H250.6z"
				/>
			<path fill="#464545" d="M253.5,416.8v-6.2h1v0.9c0.2-0.3,0.6-0.5,1-0.7c0.4-0.2,0.8-0.3,1.3-0.3c1.3,0,2,0.7,2,2v4.4h-1v-4.1
				c0-0.5-0.1-0.9-0.4-1.1c-0.2-0.2-0.6-0.3-1-0.3c-0.4,0-0.7,0.1-1,0.3c-0.3,0.2-0.6,0.4-0.8,0.7v4.5H253.5z"/>
			<path fill="#464545" d="M260.2,413.7c0-1,0.3-1.8,0.8-2.3c0.5-0.6,1.2-0.9,2-0.9c0.4,0,0.8,0.1,1.2,0.3c0.4,0.2,0.7,0.5,0.9,0.8
				v-0.9h1v6.1c0,0.5-0.1,0.9-0.2,1.2c-0.2,0.3-0.4,0.6-0.7,0.8s-0.6,0.3-0.9,0.4c-0.3,0.1-0.7,0.1-1.1,0.1c-0.5,0-1-0.1-1.4-0.2
				c-0.4-0.1-0.8-0.4-1.1-0.7l0.5-0.7c0.3,0.3,0.5,0.5,0.9,0.6c0.3,0.1,0.7,0.2,1.2,0.2c0.6,0,1-0.1,1.4-0.4s0.6-0.8,0.6-1.4v-0.9
				c-0.2,0.3-0.5,0.6-0.9,0.8c-0.4,0.2-0.8,0.3-1.2,0.3c-0.8,0-1.5-0.3-2-0.9C260.5,415.4,260.2,414.6,260.2,413.7z M261.3,413.7
				c0,0.7,0.2,1.3,0.5,1.7c0.4,0.4,0.8,0.7,1.5,0.7c0.4,0,0.7-0.1,1.1-0.3s0.6-0.4,0.8-0.7v-2.7c-0.2-0.3-0.4-0.5-0.8-0.7
				c-0.3-0.2-0.7-0.3-1.1-0.3c-0.6,0-1.1,0.2-1.5,0.7C261.4,412.4,261.3,413,261.3,413.7z"/>
			<path fill="#464545" d="M270.9,413.7c0-0.6,0.1-1.1,0.4-1.6c0.3-0.5,0.6-0.9,1.1-1.2s1-0.4,1.6-0.4c0.6,0,1.1,0.1,1.6,0.4
				c0.5,0.3,0.8,0.7,1,1.2s0.3,1.1,0.3,1.7v0.2h-5c0,0.6,0.3,1.1,0.7,1.5c0.4,0.4,0.9,0.6,1.6,0.6c0.4,0,0.7-0.1,1.1-0.2
				c0.3-0.1,0.6-0.3,0.9-0.6l0.5,0.6c-0.7,0.6-1.5,1-2.5,1c-0.9,0-1.7-0.3-2.3-0.9S270.9,414.6,270.9,413.7z M271.9,413.3h4.1
				c0-0.2,0-0.5-0.1-0.7c-0.1-0.2-0.2-0.5-0.4-0.7c-0.2-0.2-0.4-0.4-0.6-0.5c-0.3-0.1-0.6-0.2-0.9-0.2c-0.3,0-0.6,0.1-0.9,0.2
				s-0.5,0.3-0.6,0.5s-0.3,0.4-0.4,0.7C272,412.8,272,413,271.9,413.3z"/>
			<path fill="#464545" d="M278.2,414.9c0-0.3,0.1-0.6,0.2-0.9c0.1-0.3,0.3-0.5,0.5-0.6c0.2-0.2,0.4-0.3,0.7-0.4
				c0.2-0.1,0.5-0.1,0.8-0.1c0.9,0,1.6,0.3,2.1,0.8v-1.1c0-0.4-0.1-0.7-0.4-1c-0.3-0.2-0.7-0.3-1.1-0.3c-0.7,0-1.4,0.3-1.9,0.9
				l-0.4-0.7c0.7-0.7,1.5-1,2.5-1c0.3,0,0.7,0,0.9,0.1c0.3,0.1,0.5,0.2,0.8,0.4c0.2,0.2,0.4,0.4,0.5,0.7s0.2,0.6,0.2,1v4.3h-1v-0.7
				c-0.5,0.6-1.2,0.9-2.1,0.9c-0.3,0-0.5,0-0.8-0.1s-0.5-0.2-0.7-0.4c-0.2-0.2-0.4-0.4-0.5-0.6C278.3,415.5,278.2,415.2,278.2,414.9
				z M279.2,414.9c0,0.4,0.1,0.7,0.4,1c0.3,0.3,0.7,0.4,1.1,0.4c0.3,0,0.7-0.1,1-0.2s0.5-0.3,0.7-0.6v-1.2c-0.2-0.2-0.4-0.4-0.7-0.6
				c-0.3-0.1-0.6-0.2-1-0.2c-0.5,0-0.8,0.1-1.1,0.4S279.2,414.5,279.2,414.9z"/>
			<path fill="#464545" d="M284.9,413.7c0-0.6,0.1-1.2,0.4-1.7c0.3-0.5,0.6-0.9,1.1-1.2s1-0.4,1.6-0.4c1,0,1.7,0.4,2.3,1.1l-0.6,0.6
				c-0.4-0.5-0.9-0.8-1.6-0.8c-0.6,0-1.2,0.2-1.6,0.7s-0.6,1-0.6,1.7c0,0.7,0.2,1.3,0.6,1.7s0.9,0.7,1.6,0.7c0.6,0,1.2-0.3,1.6-0.8
				l0.6,0.6c-0.6,0.7-1.3,1.1-2.3,1.1c-0.9,0-1.7-0.3-2.2-0.9C285.2,415.4,284.9,414.6,284.9,413.7z"/>
			<path fill="#464545" d="M291.7,416.8v-8.6h1v3.3c0.2-0.3,0.6-0.5,1-0.7c0.4-0.2,0.8-0.3,1.3-0.3c1.3,0,2,0.7,2,2v4.4h-1v-4.1
				c0-0.5-0.1-0.9-0.4-1.1c-0.2-0.2-0.6-0.3-1-0.3c-0.4,0-0.7,0.1-1,0.3c-0.3,0.2-0.6,0.4-0.8,0.7v4.5H291.7z"/>
			<path fill="#464545" d="M301.6,416l0.5-0.7c0.2,0.2,0.5,0.5,0.9,0.6c0.4,0.2,0.8,0.3,1.2,0.3c0.5,0,0.8-0.1,1.1-0.3
				c0.3-0.2,0.4-0.5,0.4-0.8c0-0.2-0.1-0.4-0.2-0.5c-0.1-0.1-0.3-0.2-0.6-0.3c-0.2-0.1-0.5-0.1-0.7-0.2c-0.3-0.1-0.5-0.2-0.8-0.2
				s-0.5-0.2-0.8-0.3s-0.4-0.3-0.6-0.5c-0.1-0.2-0.2-0.5-0.2-0.8c0-0.5,0.2-0.9,0.6-1.3c0.4-0.3,1-0.5,1.7-0.5
				c0.9,0,1.7,0.3,2.3,0.9l-0.4,0.7c-0.2-0.2-0.5-0.4-0.8-0.6c-0.3-0.1-0.7-0.2-1.1-0.2c-0.4,0-0.7,0.1-1,0.3
				c-0.3,0.2-0.4,0.4-0.4,0.7c0,0.2,0.1,0.3,0.2,0.5c0.1,0.1,0.3,0.2,0.5,0.3s0.5,0.1,0.7,0.2c0.3,0.1,0.5,0.2,0.8,0.2
				s0.5,0.2,0.8,0.3c0.2,0.1,0.4,0.3,0.6,0.5c0.1,0.2,0.2,0.5,0.2,0.8c0,0.5-0.2,1-0.6,1.4s-1,0.5-1.8,0.5
				C303,416.9,302.2,416.6,301.6,416z"/>
			<path fill="#464545" d="M308.1,409.5c-0.1-0.1-0.2-0.3-0.2-0.5s0.1-0.3,0.2-0.5c0.1-0.1,0.3-0.2,0.5-0.2s0.3,0.1,0.5,0.2
				c0.1,0.1,0.2,0.3,0.2,0.5s-0.1,0.3-0.2,0.5c-0.1,0.1-0.3,0.2-0.5,0.2S308.2,409.6,308.1,409.5z M308.1,416.8v-6.2h1v6.2H308.1z"
				/>
			<path fill="#464545" d="M310.6,413.7c0-1,0.3-1.8,0.8-2.4c0.5-0.6,1.2-0.9,2-0.9c0.4,0,0.8,0.1,1.2,0.3c0.4,0.2,0.7,0.5,0.9,0.8
				v-3.3h1v8.6h-1v-0.9c-0.2,0.3-0.5,0.6-0.9,0.8s-0.8,0.3-1.2,0.3c-0.8,0-1.5-0.3-2-0.9C310.8,415.5,310.6,414.7,310.6,413.7z
				 M312.1,412c-0.4,0.5-0.5,1-0.5,1.7s0.2,1.3,0.5,1.7c0.4,0.4,0.8,0.7,1.5,0.7c0.4,0,0.7-0.1,1.1-0.3c0.3-0.2,0.6-0.4,0.8-0.7
				v-2.8c-0.2-0.3-0.4-0.5-0.8-0.7c-0.3-0.2-0.7-0.3-1.1-0.3C313,411.3,312.5,411.5,312.1,412z"/>
			<path fill="#464545" d="M318,413.7c0-0.6,0.1-1.1,0.4-1.6c0.3-0.5,0.6-0.9,1.1-1.2s1-0.4,1.6-0.4c0.6,0,1.1,0.1,1.6,0.4
				c0.5,0.3,0.8,0.7,1,1.2s0.3,1.1,0.3,1.7v0.2h-5c0,0.6,0.3,1.1,0.7,1.5c0.4,0.4,0.9,0.6,1.6,0.6c0.4,0,0.7-0.1,1.1-0.2
				c0.3-0.1,0.6-0.3,0.9-0.6l0.5,0.6c-0.7,0.6-1.5,1-2.5,1c-0.9,0-1.7-0.3-2.3-0.9S318,414.6,318,413.7z M319,413.3h4.1
				c0-0.2,0-0.5-0.1-0.7c-0.1-0.2-0.2-0.5-0.4-0.7c-0.2-0.2-0.4-0.4-0.6-0.5c-0.3-0.1-0.6-0.2-0.9-0.2c-0.3,0-0.6,0.1-0.9,0.2
				s-0.5,0.3-0.6,0.5s-0.3,0.4-0.4,0.7C319,412.8,319,413,319,413.3z"/>
		</g>
	</g>
	<g>
		<g>
			<path fill="#464545" d="M163.1,416.7c-0.3-1-0.5-2-0.5-3s0.2-2,0.5-3s0.8-1.9,1.3-2.7l0.6,0.4c-0.5,0.9-0.8,1.7-1,2.5
				s-0.3,1.7-0.3,2.7c0,1,0.1,1.9,0.3,2.7s0.6,1.6,1,2.5l-0.6,0.5C163.9,418.5,163.4,417.7,163.1,416.7z"/>
			<path fill="#464545" d="M186.4,416.4c0.2-0.8,0.3-1.7,0.3-2.7c0-1-0.1-1.9-0.3-2.7s-0.6-1.6-1-2.5l0.6-0.4c0.6,0.8,1,1.7,1.3,2.7
				c0.3,1,0.5,2,0.5,3s-0.2,2-0.5,3c-0.3,1-0.8,1.9-1.3,2.7l-0.6-0.5C185.9,418,186.2,417.2,186.4,416.4z"/>
		</g>
	</g>
</g>
</svg>
