<?xml version="1.0" encoding="utf-8"?>
<!-- Generator: Adobe Illustrator 18.0.0, SVG Export Plug-In . SVG Version: 6.00 Build 0)  -->
<!DOCTYPE svg PUBLIC "-//W3C//DTD SVG 1.1//EN" "http://www.w3.org/Graphics/SVG/1.1/DTD/svg11.dtd">
<svg version="1.1" id="Layer_1" xmlns="http://www.w3.org/2000/svg" xmlns:xlink="http://www.w3.org/1999/xlink" x="0px" y="0px"
	 width="130px" height="155px" viewBox="0 0 346.5 412.5" enable-background="new 0 0 346.5 412.5" xml:space="preserve">
<g>
	<rect x="12.3" y="14.5" fill="none" stroke="#616261" stroke-width="3" stroke-miterlimit="10" width="280.2" height="389"/>
	<rect x="35.4" y="37.6" fill="none" stroke="#616261" stroke-width="3" stroke-miterlimit="10" width="234" height="342.8"/>
</g>
<g>
	<g>
		<line fill="none" stroke="#464545" stroke-width="3" x1="48.3" y1="211" x2="256.5" y2="211"/>
		<g>
			<polygon fill="#464545" points="51,220 35.4,211 51,202 			"/>
		</g>
		<g>
			<polygon fill="#464545" points="253.9,220 269.4,211 253.9,202 			"/>
		</g>
	</g>
</g>
<g>
	<text transform="matrix(1 0 0 1 326.5422 72.0257)" fill="#464545" font-family="'ProximaNova-Regular'" font-size="24">A</text>
</g>
<g>
	<text transform="matrix(1 0 0 1 326.8889 218.6212)" fill="#464545" font-family="'ProximaNova-Regular'" font-size="24">B</text>
</g>
<g>
	<text transform="matrix(1 0 0 1 326.3264 359.0257)" fill="#464545" font-family="'ProximaNova-Regular'" font-size="24">C</text>
</g>
<g>
	<g>
		<line fill="none" stroke="#464545" stroke-width="3" x1="48.3" y1="64.4" x2="256.5" y2="64.4"/>
		<g>
			<polygon fill="#464545" points="51,73.4 35.4,64.4 51,55.4 			"/>
		</g>
		<g>
			<polygon fill="#464545" points="253.9,73.4 269.4,64.4 253.9,55.4 			"/>
		</g>
	</g>
</g>
<g>
	<g>
		<line fill="none" stroke="#464545" stroke-width="3" x1="48.3" y1="351.4" x2="256.5" y2="351.4"/>
		<g>
			<polygon fill="#464545" points="51,360.4 35.4,351.4 51,342.4 			"/>
		</g>
		<g>
			<polygon fill="#464545" points="253.9,360.4 269.4,351.4 253.9,342.4 			"/>
		</g>
	</g>
</g>
</svg>
