<?xml version="1.0" encoding="utf-8"?>
<!-- Generator: Adobe Illustrator 18.0.0, SVG Export Plug-In . SVG Version: 6.00 Build 0)  -->
<!DOCTYPE svg PUBLIC "-//W3C//DTD SVG 1.1//EN" "http://www.w3.org/Graphics/SVG/1.1/DTD/svg11.dtd">
<svg version="1.1" id="Layer_1" xmlns="http://www.w3.org/2000/svg" xmlns:xlink="http://www.w3.org/1999/xlink" x="0px" y="0px"
	 width="114px" height="170px" viewBox="0 0 303 453" enable-background="new 0 0 303 453" xml:space="preserve">
<g>
	<rect x="10.8" y="55" fill="none" stroke="#616261" stroke-width="3" stroke-miterlimit="10" width="280.2" height="389"/>
	<rect x="33.8" y="78.1" fill="none" stroke="#616261" stroke-width="3" stroke-miterlimit="10" width="234" height="342.8"/>
</g>
<g>
	<g>
		<line fill="none" stroke="#464545" stroke-width="2.989" x1="66" y1="406.5" x2="66" y2="92"/>
		<g>
			<polygon fill="#464545" points="74.9,403.9 66,419.4 57.1,403.9 			"/>
		</g>
		<g>
			<polygon fill="#464545" points="74.9,94.6 66,79.1 57.1,94.6 			"/>
		</g>
	</g>
</g>
<g>
	<g>
		<line fill="none" stroke="#464545" stroke-width="2.989" x1="150.9" y1="406.5" x2="150.9" y2="92"/>
		<g>
			<polygon fill="#464545" points="159.8,403.9 150.9,419.4 141.9,403.9 			"/>
		</g>
		<g>
			<polygon fill="#464545" points="159.8,94.6 150.9,79.1 141.9,94.6 			"/>
		</g>
	</g>
</g>
<g>
	<g>
		<line fill="none" stroke="#464545" stroke-width="2.989" x1="234.3" y1="406.5" x2="234.3" y2="92"/>
		<g>
			<polygon fill="#464545" points="243.3,403.9 234.3,419.4 225.4,403.9 			"/>
		</g>
		<g>
			<polygon fill="#464545" points="243.3,94.6 234.3,79.1 225.4,94.6 			"/>
		</g>
	</g>
</g>
<g>
	<text transform="matrix(1 0 0 1 58.1041 22.1775)" fill="#464545" font-family="'ProximaNova-Regular'" font-size="24">A</text>
</g>
<g>
	<text transform="matrix(1 0 0 1 143.3116 22.1775)" fill="#464545" font-family="'ProximaNova-Regular'" font-size="24">B</text>
</g>
<g>
	<text transform="matrix(1 0 0 1 226.2366 22.1775)" fill="#464545" font-family="'ProximaNova-Regular'" font-size="24">C</text>
</g>
</svg>
