<?xml version="1.0" encoding="utf-8"?>
<!-- Generator: Adobe Illustrator 18.0.0, SVG Export Plug-In . SVG Version: 6.00 Build 0)  -->
<!DOCTYPE svg PUBLIC "-//W3C//DTD SVG 1.1//EN" "http://www.w3.org/Graphics/SVG/1.1/DTD/svg11.dtd">
<svg version="1.1" id="Layer_1" xmlns="http://www.w3.org/2000/svg" xmlns:xlink="http://www.w3.org/1999/xlink" x="0px" y="0px"
	 width="169px" height="169px" viewBox="0 0 450 451.5" enable-background="new 0 0 450 451.5" xml:space="preserve">
<g>
	<rect x="84.9" y="54" fill="none" stroke="#616261" stroke-width="3" stroke-miterlimit="10" width="280.2" height="389"/>
	<rect x="108" y="77" fill="none" stroke="#616261" stroke-width="3" stroke-miterlimit="10" width="234" height="342.8"/>
</g>
<g>
	<g>
		<line fill="none" stroke="#464545" stroke-width="2.989" x1="140.1" y1="405.5" x2="140.1" y2="90.9"/>
		<g>
			<polygon fill="#464545" points="149.1,402.9 140.1,418.4 131.2,402.9 			"/>
		</g>
		<g>
			<polygon fill="#464545" points="149.1,93.5 140.1,78 131.2,93.5 			"/>
		</g>
	</g>
</g>
<g>
	<g>
		<line fill="none" stroke="#464545" stroke-width="2.989" x1="225" y1="405.5" x2="225" y2="90.9"/>
		<g>
			<polygon fill="#464545" points="233.9,402.9 225,418.4 216.1,402.9 			"/>
		</g>
		<g>
			<polygon fill="#464545" points="233.9,93.5 225,78 216.1,93.5 			"/>
		</g>
	</g>
</g>
<g>
	<g>
		<line fill="none" stroke="#464545" stroke-width="2.989" x1="308.5" y1="405.5" x2="308.5" y2="90.9"/>
		<g>
			<polygon fill="#464545" points="317.4,402.9 308.5,418.4 299.5,402.9 			"/>
		</g>
		<g>
			<polygon fill="#464545" points="317.4,93.5 308.5,78 299.5,93.5 			"/>
		</g>
	</g>
</g>
<g>
	<g>
		<path fill="#464545" d="M314.5,3.8c0.1,0.6,0.2,1.2,0.3,1.7c0.1,0.5,0.1,1,0.1,1.4c0,1.3-0.3,2.3-0.8,3c-0.3,0.3-0.6,0.6-0.9,0.7
			c-0.4,0.2-0.8,0.3-1.2,0.3c-0.2,0-0.4,0-0.6-0.1c-0.2,0-0.4-0.1-0.6-0.2c-0.2-0.1-0.4-0.2-0.6-0.4c-0.2-0.2-0.4-0.4-0.6-0.6
			l-0.2,0.3c-0.3,0.4-0.7,0.7-1.1,0.9s-0.9,0.3-1.4,0.3c-0.3,0-0.5,0-0.7,0s-0.4-0.1-0.6-0.2c0,0.1,0,0.2,0,0.2c0,0.1,0,0.2,0,0.2
			c0.1,0.7,0.2,1.3,0.2,2c0.1,0.7,0.1,1.4,0.1,2.1s0,1.4,0.1,2c0,0.7,0,1.3,0,1.9H304c0-0.3,0-0.6,0-0.9c0-0.3,0-0.6,0-0.9
			c0-1,0-2-0.1-3s-0.2-1.9-0.3-2.8s-0.3-1.8-0.5-2.6c-0.2-0.8-0.5-1.6-0.7-2.3c0,0,0-0.1-0.1-0.1c0,0,0-0.1,0-0.1
			c-0.1-0.3-0.2-0.5-0.4-0.8c-0.1-0.3-0.3-0.5-0.4-0.8l1.9-1.1c0,0.1,0.1,0.2,0.2,0.3c0.1,0.1,0.1,0.2,0.2,0.4
			c0.1,0.1,0.1,0.3,0.2,0.4c0.1,0.1,0.1,0.3,0.2,0.4c0.2,0.3,0.3,0.7,0.5,1.1c0.2,0.4,0.4,0.8,0.5,1.1c0.1,0.3,0.3,0.5,0.4,0.7
			c0.2,0.2,0.3,0.3,0.5,0.4c0.2,0.1,0.5,0.1,0.8,0.1c0.2,0,0.4,0,0.5-0.1c0.1-0.1,0.2-0.2,0.4-0.3c0.2-0.2,0.3-0.5,0.5-1
			c0.1-0.4,0.2-0.9,0.2-1.5c0-0.1,0-0.2,0-0.4s0-0.4,0-0.6s0-0.4,0-0.6c0-0.2,0-0.3,0-0.3l2.1-0.2c0,0,0,0.1,0,0.1c0,0,0,0.1,0,0.1
			c0,0.1,0,0.2,0,0.4c0,0.2,0,0.4,0,0.6c0,0.4,0.1,0.9,0.2,1.3c0.1,0.5,0.2,0.9,0.3,1.3c0.1,0.2,0.2,0.4,0.3,0.6
			c0.1,0.1,0.2,0.2,0.3,0.3c0.1,0.1,0.2,0.1,0.2,0.1s0.1,0,0.2,0c0.2,0,0.3,0,0.4-0.1c0.1,0,0.1-0.1,0.2-0.1c0,0,0.1-0.1,0.1-0.2
			s0.1-0.2,0.1-0.3c0-0.1,0.1-0.3,0.1-0.5c0-0.2,0-0.4,0-0.7c0-0.3,0-0.7-0.1-1.1c0-0.4-0.1-1-0.2-1.5L314.5,3.8z"/>
	</g>
</g>
<g>
	<g>
		<path fill="#464545" d="M229.4,3.9c0,0,0,0.1,0,0.2c0,0.1,0,0.3,0.1,0.5c0,0.2,0,0.4,0.1,0.7c0,0.3,0,0.5,0,0.8
			c0,1.6-0.4,2.8-1.1,3.7v0c-0.3,0.4-0.8,0.7-1.3,1c-0.5,0.2-1,0.3-1.6,0.3c-0.3,0-0.6,0-0.9-0.1c-0.3,0-0.5-0.1-0.8-0.2
			c0,0.1,0,0.2,0,0.3c0,0.1,0,0.2,0,0.3c0.1,0.7,0.2,1.3,0.2,2c0.1,0.7,0.1,1.4,0.1,2.1c0,0.7,0.1,1.4,0.1,2s0,1.3,0,1.9h-2.1
			c0-1.1,0-2.2,0-3.3s-0.1-2.2-0.2-3.2s-0.2-2-0.4-3c-0.2-0.9-0.4-1.8-0.7-2.6c-0.1-0.4-0.3-0.7-0.5-1.1c-0.2-0.3-0.4-0.7-0.6-1.1
			l1.7-1.1c0.1,0.2,0.2,0.4,0.3,0.5c0.1,0.2,0.2,0.4,0.3,0.6s0.2,0.4,0.3,0.6s0.2,0.5,0.3,0.7c0.2,0.4,0.3,0.7,0.5,1
			c0.2,0.3,0.3,0.6,0.5,0.8c0.2,0.2,0.4,0.4,0.7,0.5c0.3,0.1,0.6,0.2,1,0.2c0.3,0,0.5,0,0.8-0.1c0.2-0.1,0.4-0.2,0.5-0.4
			c0.1-0.2,0.2-0.3,0.3-0.5c0.1-0.2,0.2-0.4,0.2-0.7c0.1-0.2,0.1-0.5,0.1-0.7c0-0.2,0-0.5,0-0.7c0-0.3,0-0.6,0-0.9
			c0-0.3-0.1-0.5-0.1-0.7L229.4,3.9z"/>
	</g>
</g>
<g>
	<g>
		<path fill="#464545" d="M140,19.4c0-1.4,0-2.7-0.1-4c0-1.3-0.2-2.6-0.3-3.9c-0.2-1.2-0.4-2.4-0.7-3.5c-0.3-1.1-0.7-2-1.2-2.8
			l1.7-1.1c0.6,0.9,1,2,1.4,3.2c0.4,1.2,0.7,2.6,0.9,4.1c0.1,0.7,0.2,1.3,0.2,2c0.1,0.7,0.1,1.4,0.1,2.1c0,0.7,0.1,1.4,0.1,2
			c0,0.7,0,1.3,0,1.9H140z"/>
	</g>
</g>
</svg>
