<?xml version="1.0" encoding="utf-8"?>
<!-- Generator: Adobe Illustrator 18.0.0, SVG Export Plug-In . SVG Version: 6.00 Build 0)  -->
<!DOCTYPE svg PUBLIC "-//W3C//DTD SVG 1.1//EN" "http://www.w3.org/Graphics/SVG/1.1/DTD/svg11.dtd">
<svg version="1.1" id="Layer_1" xmlns="http://www.w3.org/2000/svg" xmlns:xlink="http://www.w3.org/1999/xlink" x="0px" y="0px"
	 width="422px" height="483px" viewBox="0 0 422 483" enable-background="new 0 0 422 483" xml:space="preserve">
<rect x="36.1" y="40.9" fill="#DCDCDC" width="349" height="346.4"/>
<polygon fill="#B2B2B2" stroke="#717070" stroke-width="0.5283" stroke-miterlimit="10" enable-background="new    " points="
	36.2,50.9 36.2,41.3 5.2,41.3 13.7,50.9 36.1,50.9 "/>
<polygon fill="#B2B2B2" stroke="#717070" stroke-width="0.5283" stroke-miterlimit="10" enable-background="new    " points="
	385.3,51.1 407.7,51.1 416.2,41.5 385.2,41.5 385.2,51.1 "/>
<g>
	<g>
		<rect x="70.5" y="82.3" fill="none" stroke="#616261" stroke-width="3" stroke-miterlimit="10" width="280.2" height="389"/>
		<rect x="93.6" y="105.3" fill="none" stroke="#616261" stroke-width="3" stroke-miterlimit="10" width="234" height="342.8"/>
	</g>
</g>
<g>
	<g>
		<path fill="#464545" d="M14.9,256.7H6.3v-1.1H10v-5H6.3v-1.1h8.6v1.1H11v5h3.9V256.7z"/>
		<path fill="#464545" d="M11.8,248c-0.6,0-1.1-0.1-1.6-0.4c-0.5-0.3-0.9-0.6-1.2-1.1s-0.4-1-0.4-1.6c0-0.6,0.1-1.1,0.4-1.6
			s0.7-0.8,1.2-1c0.5-0.2,1.1-0.3,1.7-0.3h0.2v5c0.6,0,1.1-0.3,1.5-0.7s0.6-0.9,0.6-1.6c0-0.4-0.1-0.7-0.2-1.1
			c-0.1-0.3-0.3-0.6-0.6-0.9l0.6-0.5c0.6,0.7,1,1.5,1,2.5c0,0.9-0.3,1.7-0.9,2.3S12.7,248,11.8,248z M11.4,247v-4.1
			c-0.2,0-0.5,0-0.7,0.1c-0.2,0.1-0.5,0.2-0.7,0.4s-0.4,0.4-0.5,0.6c-0.1,0.3-0.2,0.6-0.2,0.9c0,0.3,0.1,0.6,0.2,0.9
			c0.1,0.3,0.3,0.5,0.5,0.6s0.4,0.3,0.7,0.4C10.9,246.9,11.1,246.9,11.4,247z"/>
		<path fill="#464545" d="M7.6,240.3c-0.1,0.1-0.3,0.2-0.5,0.2s-0.3-0.1-0.5-0.2c-0.1-0.1-0.2-0.3-0.2-0.5s0.1-0.3,0.2-0.5
			s0.3-0.2,0.5-0.2s0.3,0.1,0.5,0.2s0.2,0.3,0.2,0.5S7.7,240.2,7.6,240.3z M14.9,240.4H8.7v-1h6.2V240.4z"/>
		<path fill="#464545" d="M11.8,237.8c-1,0-1.8-0.3-2.3-0.8c-0.6-0.5-0.9-1.2-0.9-2c0-0.4,0.1-0.8,0.3-1.2c0.2-0.4,0.5-0.7,0.8-0.9
			H8.7v-1h6.1c0.5,0,0.9,0.1,1.2,0.2c0.3,0.2,0.6,0.4,0.8,0.7c0.2,0.3,0.3,0.6,0.4,0.9c0.1,0.3,0.1,0.7,0.1,1.1c0,0.5-0.1,1-0.2,1.4
			c-0.1,0.4-0.4,0.8-0.7,1.1l-0.7-0.5c0.3-0.3,0.5-0.5,0.6-0.9c0.1-0.3,0.2-0.7,0.2-1.2c0-0.6-0.1-1-0.4-1.4
			c-0.3-0.4-0.8-0.6-1.4-0.6h-0.9c0.3,0.2,0.6,0.5,0.8,0.9s0.3,0.8,0.3,1.2c0,0.8-0.3,1.5-0.9,2C13.5,237.6,12.7,237.8,11.8,237.8z
			 M11.8,236.8c0.7,0,1.3-0.2,1.7-0.5c0.4-0.4,0.7-0.8,0.7-1.5c0-0.4-0.1-0.7-0.3-1.1c-0.2-0.3-0.4-0.6-0.7-0.8h-2.7
			c-0.3,0.2-0.5,0.4-0.7,0.8c-0.2,0.3-0.3,0.7-0.3,1.1c0,0.6,0.2,1.1,0.7,1.5C10.5,236.6,11.1,236.8,11.8,236.8z"/>
		<path fill="#464545" d="M14.9,230.1H6.3v-1h3.3c-0.3-0.2-0.5-0.6-0.7-0.9c-0.2-0.4-0.3-0.8-0.3-1.3c0-1.3,0.7-2,2-2h4.4v1h-4.1
			c-0.5,0-0.9,0.1-1.1,0.4c-0.2,0.2-0.3,0.6-0.3,1c0,0.4,0.1,0.7,0.3,1c0.2,0.3,0.4,0.6,0.7,0.8h4.5V230.1z"/>
		<path fill="#464545" d="M9.5,223.9H8.7v-1H7v-1h1.7v-1.3h0.8v1.3h3.9c0.2,0,0.4-0.1,0.6-0.2c0.1-0.1,0.2-0.3,0.2-0.5
			c0-0.3-0.1-0.5-0.3-0.7l0.7-0.3c0.3,0.3,0.4,0.7,0.4,1.1c0,0.5-0.1,0.8-0.4,1c-0.3,0.2-0.6,0.3-1.1,0.3H9.5V223.9z"/>
	</g>
</g>
<g>
	<g>
		<line fill="none" stroke="#464545" stroke-width="1.5" x1="42" y1="400" x2="378.7" y2="400"/>
		<g>
			<polygon fill="#464545" points="43.4,404.5 35.6,400 43.4,395.5 			"/>
		</g>
		<g>
			<polygon fill="#464545" points="377.3,404.5 385.1,400 377.3,395.5 			"/>
		</g>
	</g>
</g>
<g>
	<g>
		<g>
			<path fill="#464545" d="M112.5,409h1.3l2,7.6l2.1-7.6h0.9l2.1,7.6l2-7.6h1.3l-2.6,9.1h-1.3l-2-7.3l-2,7.3h-1.2L112.5,409z"/>
			<path fill="#464545" d="M125.4,410.4c-0.1-0.1-0.2-0.3-0.2-0.5c0-0.2,0.1-0.4,0.2-0.5c0.1-0.1,0.3-0.2,0.5-0.2s0.4,0.1,0.5,0.2
				c0.1,0.1,0.2,0.3,0.2,0.5c0,0.2-0.1,0.4-0.2,0.5s-0.3,0.2-0.5,0.2S125.6,410.5,125.4,410.4z M125.4,418.1v-6.6h1v6.6H125.4z"/>
			<path fill="#464545" d="M128.1,414.8c0-1,0.3-1.9,0.8-2.5c0.5-0.6,1.3-1,2.1-1c0.4,0,0.9,0.1,1.2,0.3c0.4,0.2,0.7,0.5,1,0.9V409
				h1v9.1h-1v-1c-0.3,0.3-0.6,0.6-1,0.8c-0.4,0.2-0.8,0.3-1.3,0.3c-0.9,0-1.6-0.3-2.1-0.9C128.4,416.7,128.1,415.9,128.1,414.8z
				 M129.7,413c-0.4,0.5-0.6,1.1-0.6,1.8c0,0.8,0.2,1.4,0.6,1.8c0.4,0.5,0.9,0.7,1.6,0.7c0.4,0,0.8-0.1,1.1-0.3s0.6-0.5,0.8-0.7v-3
				c-0.2-0.3-0.5-0.6-0.8-0.8c-0.4-0.2-0.8-0.3-1.1-0.3C130.6,412.3,130.1,412.5,129.7,413z"/>
			<path fill="#464545" d="M135.4,412.4v-0.9h1.1v-1.8h1v1.8h1.4v0.9h-1.4v4.1c0,0.3,0.1,0.5,0.2,0.6c0.1,0.2,0.3,0.2,0.5,0.2
				c0.3,0,0.5-0.1,0.7-0.3l0.3,0.8c-0.3,0.3-0.7,0.4-1.2,0.4c-0.5,0-0.8-0.1-1.1-0.4c-0.2-0.3-0.4-0.7-0.4-1.1v-4.3H135.4z"/>
			<path fill="#464545" d="M140.4,418.1V409h1v3.5c0.2-0.3,0.6-0.6,1-0.8s0.9-0.3,1.3-0.3c1.4,0,2.1,0.7,2.1,2.1v4.7h-1v-4.4
				c0-0.6-0.1-0.9-0.4-1.2s-0.6-0.3-1.1-0.3c-0.4,0-0.7,0.1-1.1,0.3s-0.6,0.4-0.8,0.7v4.8H140.4z"/>
		</g>
	</g>
	<g>
		<g>
			<path fill="#464545" d="M154.6,415.7v-0.9l3.7-5.5h1.5v5.5h1.2v1h-1.2v2.2h-1.1v-2.2H154.6z M155.6,414.8h3v-4.5L155.6,414.8z"/>
			<path fill="#464545" d="M161.7,415.2v-0.8h3.1v0.8H161.7z"/>
			<path fill="#464545" d="M165.8,415.7c0-0.5,0.2-1,0.6-1.4s0.9-0.7,1.4-0.9c-0.3-0.1-0.7-0.2-0.9-0.4c-0.3-0.2-0.5-0.4-0.7-0.7
				c-0.2-0.3-0.3-0.6-0.3-1c0-0.4,0.1-0.7,0.3-1s0.4-0.5,0.7-0.7c0.3-0.2,0.6-0.3,0.9-0.4c0.3-0.1,0.7-0.1,1.1-0.1
				c0.4,0,0.7,0,1.1,0.1c0.3,0.1,0.7,0.2,0.9,0.4c0.3,0.2,0.5,0.4,0.7,0.7s0.3,0.6,0.3,1c0,0.5-0.2,0.9-0.5,1.3
				c-0.4,0.3-0.8,0.6-1.4,0.8c0.6,0.2,1.1,0.5,1.4,0.8s0.6,0.9,0.6,1.4c0,0.7-0.3,1.3-0.9,1.7c-0.6,0.4-1.3,0.6-2.2,0.6
				c-0.6,0-1.1-0.1-1.5-0.3s-0.8-0.5-1.1-0.8C166,416.6,165.8,416.2,165.8,415.7z M166.9,415.6c0,0.4,0.2,0.8,0.6,1.1
				s0.9,0.4,1.4,0.4c0.5,0,1-0.1,1.4-0.4s0.6-0.6,0.6-1.1c0-0.2-0.1-0.4-0.2-0.6c-0.1-0.2-0.2-0.3-0.4-0.5c-0.2-0.1-0.3-0.2-0.5-0.3
				s-0.4-0.2-0.5-0.2c-0.2,0-0.3-0.1-0.4-0.1c-0.1,0-0.3,0-0.4,0.1c-0.2,0-0.3,0.1-0.5,0.2s-0.4,0.2-0.5,0.3
				c-0.2,0.1-0.3,0.3-0.4,0.5S166.9,415.4,166.9,415.6z M167,411.5c0,0.2,0,0.4,0.1,0.5c0.1,0.2,0.2,0.3,0.4,0.4
				c0.1,0.1,0.3,0.2,0.5,0.3c0.2,0.1,0.3,0.1,0.5,0.2c0.1,0,0.3,0.1,0.4,0.1c0.1,0,0.3,0,0.4-0.1s0.3-0.1,0.5-0.2s0.3-0.2,0.5-0.3
				c0.1-0.1,0.3-0.2,0.4-0.4c0.1-0.2,0.1-0.3,0.1-0.5c0-0.4-0.2-0.8-0.5-1c-0.4-0.3-0.8-0.4-1.3-0.4c-0.5,0-1,0.1-1.3,0.4
				C167.2,410.8,167,411.1,167,411.5z"/>
			<path fill="#464545" d="M179.9,414.8c0-0.6,0.1-1.2,0.4-1.7c0.3-0.5,0.6-0.9,1.1-1.2s1-0.4,1.6-0.4c1,0,1.7,0.4,2.3,1.1l-0.6,0.6
				c-0.4-0.5-0.9-0.8-1.6-0.8c-0.6,0-1.2,0.2-1.6,0.7s-0.6,1-0.6,1.7c0,0.7,0.2,1.3,0.6,1.7s0.9,0.7,1.6,0.7c0.6,0,1.2-0.3,1.6-0.8
				l0.6,0.6c-0.6,0.7-1.3,1.1-2.3,1.1c-0.9,0-1.7-0.3-2.2-0.9C180.2,416.5,179.9,415.7,179.9,414.8z"/>
			<path fill="#464545" d="M186.6,417.9v-6.2h1v0.9c0.2-0.2,0.4-0.5,0.8-0.7c0.4-0.2,0.8-0.3,1.2-0.3c0.4,0,0.8,0.1,1.1,0.3
				s0.5,0.5,0.6,0.8c0.2-0.3,0.5-0.6,0.9-0.8c0.4-0.2,0.8-0.4,1.2-0.4c0.6,0,1,0.2,1.3,0.5s0.4,0.8,0.4,1.4v4.5h-1v-4.2
				c0-0.9-0.4-1.3-1.1-1.3c-0.3,0-0.6,0.1-0.9,0.3s-0.5,0.4-0.7,0.7v4.5h-1v-4.2c0-0.9-0.4-1.3-1.1-1.3c-0.3,0-0.6,0.1-0.9,0.3
				c-0.3,0.2-0.5,0.4-0.7,0.7v4.5H186.6z"/>
			<path fill="#464545" d="M199.9,414.8c0-0.6,0.1-1.1,0.4-1.6c0.3-0.5,0.6-0.9,1.1-1.2s1-0.4,1.6-0.4c0.6,0,1.1,0.1,1.6,0.4
				c0.5,0.3,0.8,0.7,1,1.2s0.3,1.1,0.3,1.7v0.2h-5c0,0.6,0.3,1.1,0.7,1.5c0.4,0.4,0.9,0.6,1.6,0.6c0.4,0,0.7-0.1,1.1-0.2
				c0.3-0.1,0.6-0.3,0.9-0.6l0.5,0.6c-0.7,0.6-1.5,1-2.5,1c-0.9,0-1.7-0.3-2.3-0.9S199.9,415.7,199.9,414.8z M201,414.4h4.1
				c0-0.2,0-0.5-0.1-0.7c-0.1-0.2-0.2-0.5-0.4-0.7c-0.2-0.2-0.4-0.4-0.6-0.5c-0.3-0.1-0.6-0.2-0.9-0.2c-0.3,0-0.6,0.1-0.9,0.2
				s-0.5,0.3-0.6,0.5s-0.3,0.4-0.4,0.7C201,413.9,201,414.1,201,414.4z"/>
			<path fill="#464545" d="M206.7,417.9l2.4-3.2l-2.2-3h1.1l1.7,2.4l1.7-2.4h1.1l-2.2,3l2.4,3.2h-1.1l-1.9-2.5l-1.9,2.5H206.7z"/>
			<path fill="#464545" d="M212.9,412.5v-0.8h1V410h1v1.7h1.3v0.8h-1.3v3.9c0,0.2,0.1,0.4,0.2,0.6c0.1,0.1,0.3,0.2,0.5,0.2
				c0.3,0,0.5-0.1,0.7-0.3l0.3,0.7c-0.3,0.3-0.7,0.4-1.1,0.4c-0.5,0-0.8-0.1-1-0.4s-0.3-0.6-0.3-1.1v-4.1H212.9z"/>
			<path fill="#464545" d="M217.2,414.8c0-0.6,0.1-1.1,0.4-1.6c0.3-0.5,0.6-0.9,1.1-1.2s1-0.4,1.6-0.4c0.6,0,1.1,0.1,1.6,0.4
				c0.5,0.3,0.8,0.7,1,1.2s0.3,1.1,0.3,1.7v0.2h-5c0,0.6,0.3,1.1,0.7,1.5c0.4,0.4,0.9,0.6,1.6,0.6c0.4,0,0.7-0.1,1.1-0.2
				c0.3-0.1,0.6-0.3,0.9-0.6l0.5,0.6c-0.7,0.6-1.5,1-2.5,1c-0.9,0-1.7-0.3-2.3-0.9S217.2,415.7,217.2,414.8z M218.2,414.4h4.1
				c0-0.2,0-0.5-0.1-0.7c-0.1-0.2-0.2-0.5-0.4-0.7c-0.2-0.2-0.4-0.4-0.6-0.5c-0.3-0.1-0.6-0.2-0.9-0.2c-0.3,0-0.6,0.1-0.9,0.2
				s-0.5,0.3-0.6,0.5s-0.3,0.4-0.4,0.7C218.3,413.9,218.2,414.1,218.2,414.4z"/>
			<path fill="#464545" d="M224.8,417.9v-6.2h1v0.9c0.2-0.3,0.6-0.5,1-0.7c0.4-0.2,0.8-0.3,1.3-0.3c1.3,0,2,0.7,2,2v4.4h-1v-4.1
				c0-0.5-0.1-0.9-0.4-1.1c-0.2-0.2-0.6-0.3-1-0.3c-0.4,0-0.7,0.1-1,0.3c-0.3,0.2-0.6,0.4-0.8,0.7v4.5H224.8z"/>
			<path fill="#464545" d="M231.5,414.8c0-1,0.3-1.8,0.8-2.4c0.5-0.6,1.2-0.9,2-0.9c0.4,0,0.8,0.1,1.2,0.3c0.4,0.2,0.7,0.5,0.9,0.8
				v-3.3h1v8.6h-1v-0.9c-0.2,0.3-0.5,0.6-0.9,0.8s-0.8,0.3-1.2,0.3c-0.8,0-1.5-0.3-2-0.9C231.8,416.6,231.5,415.8,231.5,414.8z
				 M233.1,413c-0.4,0.5-0.5,1-0.5,1.7s0.2,1.3,0.5,1.7c0.4,0.4,0.8,0.7,1.5,0.7c0.4,0,0.7-0.1,1.1-0.3c0.3-0.2,0.6-0.4,0.8-0.7
				v-2.8c-0.2-0.3-0.4-0.5-0.8-0.7c-0.3-0.2-0.7-0.3-1.1-0.3C233.9,412.4,233.4,412.6,233.1,413z"/>
			<path fill="#464545" d="M239.3,410.6c-0.1-0.1-0.2-0.3-0.2-0.5s0.1-0.3,0.2-0.5c0.1-0.1,0.3-0.2,0.5-0.2s0.3,0.1,0.5,0.2
				c0.1,0.1,0.2,0.3,0.2,0.5s-0.1,0.3-0.2,0.5c-0.1,0.1-0.3,0.2-0.5,0.2S239.4,410.7,239.3,410.6z M239.3,417.9v-6.2h1v6.2H239.3z"
				/>
			<path fill="#464545" d="M242.1,417.9v-6.2h1v0.9c0.2-0.3,0.6-0.5,1-0.7c0.4-0.2,0.8-0.3,1.3-0.3c1.3,0,2,0.7,2,2v4.4h-1v-4.1
				c0-0.5-0.1-0.9-0.4-1.1c-0.2-0.2-0.6-0.3-1-0.3c-0.4,0-0.7,0.1-1,0.3c-0.3,0.2-0.6,0.4-0.8,0.7v4.5H242.1z"/>
			<path fill="#464545" d="M248.9,414.7c0-1,0.3-1.8,0.8-2.3c0.5-0.6,1.2-0.9,2-0.9c0.4,0,0.8,0.1,1.2,0.3c0.4,0.2,0.7,0.5,0.9,0.8
				v-0.9h1v6.1c0,0.5-0.1,0.9-0.2,1.2c-0.2,0.3-0.4,0.6-0.7,0.8s-0.6,0.3-0.9,0.4c-0.3,0.1-0.7,0.1-1.1,0.1c-0.5,0-1-0.1-1.4-0.2
				c-0.4-0.1-0.8-0.4-1.1-0.7l0.5-0.7c0.3,0.3,0.5,0.5,0.9,0.6c0.3,0.1,0.7,0.2,1.2,0.2c0.6,0,1-0.1,1.4-0.4s0.6-0.8,0.6-1.4v-0.9
				c-0.2,0.3-0.5,0.6-0.9,0.8c-0.4,0.2-0.8,0.3-1.2,0.3c-0.8,0-1.5-0.3-2-0.9C249.1,416.5,248.9,415.7,248.9,414.7z M249.9,414.7
				c0,0.7,0.2,1.3,0.5,1.7c0.4,0.4,0.8,0.7,1.5,0.7c0.4,0,0.7-0.1,1.1-0.3s0.6-0.4,0.8-0.7v-2.7c-0.2-0.3-0.4-0.5-0.8-0.7
				c-0.3-0.2-0.7-0.3-1.1-0.3c-0.6,0-1.1,0.2-1.5,0.7C250.1,413.5,249.9,414,249.9,414.7z"/>
			<path fill="#464545" d="M259.6,414.8c0-0.6,0.1-1.1,0.4-1.6c0.3-0.5,0.6-0.9,1.1-1.2s1-0.4,1.6-0.4c0.6,0,1.1,0.1,1.6,0.4
				c0.5,0.3,0.8,0.7,1,1.2s0.3,1.1,0.3,1.7v0.2h-5c0,0.6,0.3,1.1,0.7,1.5c0.4,0.4,0.9,0.6,1.6,0.6c0.4,0,0.7-0.1,1.1-0.2
				c0.3-0.1,0.6-0.3,0.9-0.6l0.5,0.6c-0.7,0.6-1.5,1-2.5,1c-0.9,0-1.7-0.3-2.3-0.9S259.6,415.7,259.6,414.8z M260.6,414.4h4.1
				c0-0.2,0-0.5-0.1-0.7c-0.1-0.2-0.2-0.5-0.4-0.7c-0.2-0.2-0.4-0.4-0.6-0.5c-0.3-0.1-0.6-0.2-0.9-0.2c-0.3,0-0.6,0.1-0.9,0.2
				s-0.5,0.3-0.6,0.5s-0.3,0.4-0.4,0.7C260.6,413.9,260.6,414.1,260.6,414.4z"/>
			<path fill="#464545" d="M266.8,416c0-0.3,0.1-0.6,0.2-0.9c0.1-0.3,0.3-0.5,0.5-0.6c0.2-0.2,0.4-0.3,0.7-0.4
				c0.2-0.1,0.5-0.1,0.8-0.1c0.9,0,1.6,0.3,2.1,0.8v-1.1c0-0.4-0.1-0.7-0.4-1c-0.3-0.2-0.7-0.3-1.1-0.3c-0.7,0-1.4,0.3-1.9,0.9
				l-0.4-0.7c0.7-0.7,1.5-1,2.5-1c0.3,0,0.7,0,0.9,0.1c0.3,0.1,0.5,0.2,0.8,0.4c0.2,0.2,0.4,0.4,0.5,0.7s0.2,0.6,0.2,1v4.3h-1v-0.7
				c-0.5,0.6-1.2,0.9-2.1,0.9c-0.3,0-0.5,0-0.8-0.1s-0.5-0.2-0.7-0.4c-0.2-0.2-0.4-0.4-0.5-0.6C266.9,416.6,266.8,416.3,266.8,416z
				 M267.8,416c0,0.4,0.1,0.7,0.4,1c0.3,0.3,0.7,0.4,1.1,0.4c0.3,0,0.7-0.1,1-0.2s0.5-0.3,0.7-0.6v-1.2c-0.2-0.2-0.4-0.4-0.7-0.6
				c-0.3-0.1-0.6-0.2-1-0.2c-0.5,0-0.8,0.1-1.1,0.4S267.8,415.6,267.8,416z"/>
			<path fill="#464545" d="M273.6,414.8c0-0.6,0.1-1.2,0.4-1.7c0.3-0.5,0.6-0.9,1.1-1.2s1-0.4,1.6-0.4c1,0,1.7,0.4,2.3,1.1l-0.6,0.6
				c-0.4-0.5-0.9-0.8-1.6-0.8c-0.6,0-1.2,0.2-1.6,0.7s-0.6,1-0.6,1.7c0,0.7,0.2,1.3,0.6,1.7s0.9,0.7,1.6,0.7c0.6,0,1.2-0.3,1.6-0.8
				l0.6,0.6c-0.6,0.7-1.3,1.1-2.3,1.1c-0.9,0-1.7-0.3-2.2-0.9C273.9,416.5,273.6,415.7,273.6,414.8z"/>
			<path fill="#464545" d="M280.3,417.9v-8.6h1v3.3c0.2-0.3,0.6-0.5,1-0.7c0.4-0.2,0.8-0.3,1.3-0.3c1.3,0,2,0.7,2,2v4.4h-1v-4.1
				c0-0.5-0.1-0.9-0.4-1.1c-0.2-0.2-0.6-0.3-1-0.3c-0.4,0-0.7,0.1-1,0.3c-0.3,0.2-0.6,0.4-0.8,0.7v4.5H280.3z"/>
			<path fill="#464545" d="M290.2,417l0.5-0.7c0.2,0.2,0.5,0.5,0.9,0.6c0.4,0.2,0.8,0.3,1.2,0.3c0.5,0,0.8-0.1,1.1-0.3
				c0.3-0.2,0.4-0.5,0.4-0.8c0-0.2-0.1-0.4-0.2-0.5c-0.1-0.1-0.3-0.2-0.6-0.3c-0.2-0.1-0.5-0.1-0.7-0.2c-0.3-0.1-0.5-0.2-0.8-0.2
				s-0.5-0.2-0.8-0.3s-0.4-0.3-0.6-0.5c-0.1-0.2-0.2-0.5-0.2-0.8c0-0.5,0.2-0.9,0.6-1.3c0.4-0.3,1-0.5,1.7-0.5
				c0.9,0,1.7,0.3,2.3,0.9l-0.4,0.7c-0.2-0.2-0.5-0.4-0.8-0.6c-0.3-0.1-0.7-0.2-1.1-0.2c-0.4,0-0.7,0.1-1,0.3
				c-0.3,0.2-0.4,0.4-0.4,0.7c0,0.2,0.1,0.3,0.2,0.5c0.1,0.1,0.3,0.2,0.5,0.3s0.5,0.1,0.7,0.2c0.3,0.1,0.5,0.2,0.8,0.2
				s0.5,0.2,0.8,0.3c0.2,0.1,0.4,0.3,0.6,0.5c0.1,0.2,0.2,0.5,0.2,0.8c0,0.5-0.2,1-0.6,1.4s-1,0.5-1.8,0.5
				C291.6,418,290.8,417.7,290.2,417z"/>
			<path fill="#464545" d="M296.7,410.6c-0.1-0.1-0.2-0.3-0.2-0.5s0.1-0.3,0.2-0.5c0.1-0.1,0.3-0.2,0.5-0.2s0.3,0.1,0.5,0.2
				c0.1,0.1,0.2,0.3,0.2,0.5s-0.1,0.3-0.2,0.5c-0.1,0.1-0.3,0.2-0.5,0.2S296.8,410.7,296.7,410.6z M296.7,417.9v-6.2h1v6.2H296.7z"
				/>
			<path fill="#464545" d="M299.2,414.8c0-1,0.3-1.8,0.8-2.4c0.5-0.6,1.2-0.9,2-0.9c0.4,0,0.8,0.1,1.2,0.3c0.4,0.2,0.7,0.5,0.9,0.8
				v-3.3h1v8.6h-1v-0.9c-0.2,0.3-0.5,0.6-0.9,0.8s-0.8,0.3-1.2,0.3c-0.8,0-1.5-0.3-2-0.9C299.5,416.6,299.2,415.8,299.2,414.8z
				 M300.8,413c-0.4,0.5-0.5,1-0.5,1.7s0.2,1.3,0.5,1.7c0.4,0.4,0.8,0.7,1.5,0.7c0.4,0,0.7-0.1,1.1-0.3c0.3-0.2,0.6-0.4,0.8-0.7
				v-2.8c-0.2-0.3-0.4-0.5-0.8-0.7c-0.3-0.2-0.7-0.3-1.1-0.3C301.6,412.4,301.1,412.6,300.8,413z"/>
			<path fill="#464545" d="M306.6,414.8c0-0.6,0.1-1.1,0.4-1.6c0.3-0.5,0.6-0.9,1.1-1.2s1-0.4,1.6-0.4c0.6,0,1.1,0.1,1.6,0.4
				c0.5,0.3,0.8,0.7,1,1.2s0.3,1.1,0.3,1.7v0.2h-5c0,0.6,0.3,1.1,0.7,1.5c0.4,0.4,0.9,0.6,1.6,0.6c0.4,0,0.7-0.1,1.1-0.2
				c0.3-0.1,0.6-0.3,0.9-0.6l0.5,0.6c-0.7,0.6-1.5,1-2.5,1c-0.9,0-1.7-0.3-2.3-0.9S306.6,415.7,306.6,414.8z M307.6,414.4h4.1
				c0-0.2,0-0.5-0.1-0.7c-0.1-0.2-0.2-0.5-0.4-0.7c-0.2-0.2-0.4-0.4-0.6-0.5c-0.3-0.1-0.6-0.2-0.9-0.2c-0.3,0-0.6,0.1-0.9,0.2
				s-0.5,0.3-0.6,0.5s-0.3,0.4-0.4,0.7C307.7,413.9,307.6,414.1,307.6,414.4z"/>
		</g>
	</g>
	<g>
		<g>
			<path fill="#464545" d="M151.8,417.8c-0.3-1-0.5-2-0.5-3s0.2-2,0.5-3s0.8-1.9,1.3-2.7l0.6,0.4c-0.5,0.9-0.8,1.7-1,2.5
				s-0.3,1.7-0.3,2.7c0,1,0.1,1.9,0.3,2.7s0.6,1.6,1,2.5l-0.6,0.5C152.5,419.6,152.1,418.7,151.8,417.8z"/>
			<path fill="#464545" d="M175.1,417.4c0.2-0.8,0.3-1.7,0.3-2.7c0-1-0.1-1.9-0.3-2.7s-0.6-1.6-1-2.5l0.6-0.4c0.6,0.8,1,1.7,1.3,2.7
				c0.3,1,0.5,2,0.5,3s-0.2,2-0.5,3c-0.3,1-0.8,1.9-1.3,2.7l-0.6-0.5C174.5,419.1,174.9,418.2,175.1,417.4z"/>
		</g>
	</g>
</g>
<rect x="5.2" y="9.4" fill="#C6C6C6" stroke="#717070" stroke-width="0.5732" stroke-miterlimit="10" enable-background="new    " width="411" height="32.1"/>
<g>
	<g>
		<line fill="none" stroke="#464545" stroke-width="1.6344" x1="21.2" y1="464.2" x2="21.2" y2="16.4"/>
		<g>
			<polygon fill="#464545" points="26.1,462.8 21.2,471.3 16.3,462.8 			"/>
		</g>
		<g>
			<polygon fill="#464545" points="26.1,17.9 21.2,9.4 16.3,17.9 			"/>
		</g>
	</g>
</g>
</svg>
