<?xml version="1.0" encoding="utf-8"?>
<!-- Generator: Adobe Illustrator 18.0.0, SVG Export Plug-In . SVG Version: 6.00 Build 0)  -->
<!DOCTYPE svg PUBLIC "-//W3C//DTD SVG 1.1//EN" "http://www.w3.org/Graphics/SVG/1.1/DTD/svg11.dtd">
<svg version="1.1" id="Layer_1" xmlns="http://www.w3.org/2000/svg" xmlns:xlink="http://www.w3.org/1999/xlink" x="0px" y="0px"
	 width="422px" height="483px" viewBox="0 0 422 483" enable-background="new 0 0 422 483" xml:space="preserve">
	 <defs>
		<style>
			@font-face {
			font-family: "proximanova-nova";

			src: url('https://doopsalta2.com/Fonts/proxima-nova-three.woff2') format('woff2'),
				url('https://doopsalta2.com/Fonts/proxima-nova-three.woff') format('woff'),
				url('https://doopsalta2.com/Fonts/proxima-nova-three.otf') format('opentype');
			font-style: normal;
			}
		</style>
	</defs>
<rect x="39.1" y="41.5" fill="#DCDCDC" width="349" height="345.8"/>
<polygon fill="#B2B2B2" stroke="#717070" stroke-width="0.5283" stroke-miterlimit="10" enable-background="new    " points="
	39.2,50.9 39.2,41.3 8.2,41.3 16.7,50.9 39.1,50.9 "/>
<polygon fill="#B2B2B2" stroke="#717070" stroke-width="0.5283" stroke-miterlimit="10" enable-background="new    " points="
	388.3,51.1 410.7,51.1 419.2,41.5 388.2,41.5 388.2,51.1 "/>
<g>
	<g>
		<rect x="73.5" y="82.3" fill="none" stroke="#616261" stroke-width="3" stroke-miterlimit="10" width="280.2" height="389"/>
		<rect x="96.6" y="105.3" fill="none" stroke="#616261" stroke-width="3" stroke-miterlimit="10" width="234" height="342.8"/>
	</g>
</g>
<g>
	<g>
		<line fill="none" stroke="#464545" stroke-width="1.5" x1="45" y1="400" x2="381.7" y2="400"/>
		<g>
			<polygon fill="#464545" points="46.4,404.5 38.6,400 46.4,395.5 			"/>
		</g>
		<g>
			<polygon fill="#464545" points="380.3,404.5 388.1,400 380.3,395.5 			"/>
		</g>
	</g>
</g>
<rect x="8.2" y="9.6" fill="#C6C6C6" stroke="#717070" stroke-width="0.5732" stroke-miterlimit="10" enable-background="new    " width="411" height="32.1"/>
<g>
	<g>
		<line fill="none" stroke="#464545" stroke-width="1.6327" x1="24.2" y1="463.4" x2="24.2" y2="16.6"/>
		<g>
			<polygon fill="#464545" points="29.1,462 24.2,470.4 19.3,462 			"/>
		</g>
		<g>
			<polygon fill="#464545" points="29.1,18 24.2,9.6 19.3,18 			"/>
		</g>
	</g>
</g>
<g>
	<g>
		<path fill="#464545" d="M21.1,254.2c0,0.4,0,0.8-0.1,1.2s-0.2,0.8-0.3,1.2c-0.1,0.4-0.3,0.8-0.6,1.1c-0.2,0.4-0.5,0.7-0.9,1
			c-0.5,0.4-1,0.7-1.6,0.9c-0.6,0.2-1.2,0.3-1.9,0.2c-0.5,0-1-0.1-1.5-0.3c-0.5-0.2-0.9-0.5-1.4-0.8c-0.7-0.6-1.3-1.3-1.8-2.3
			c-0.1-0.1-0.1-0.2-0.2-0.3c0-0.1-0.1-0.2-0.2-0.3l0,0c-0.5,0.7-1.2,1.1-2.1,1.2c-0.5,0.1-0.9,0-1.3-0.1c-0.4-0.1-0.8-0.3-1.2-0.7
			c-0.4-0.3-0.7-0.7-0.9-1.2c-0.2-0.4-0.3-0.9-0.4-1.4c0-0.8,0.2-1.6,0.8-2.5c0.2-0.3,0.4-0.5,0.5-0.7c0.2-0.2,0.2-0.3,0.3-0.3
			l1.1,1.1c-0.2,0.2-0.4,0.4-0.6,0.7c-0.1,0.2-0.3,0.4-0.4,0.7s-0.2,0.6-0.1,0.8c0,0.3,0.1,0.5,0.2,0.8c0.1,0.3,0.3,0.5,0.5,0.6
			c0.1,0.1,0.3,0.2,0.5,0.3s0.5,0.1,0.8,0.1c0.4,0,0.7-0.2,1-0.5c0.2-0.3,0.3-0.6,0.4-1.1c0.1-0.4,0.1-1,0-1.5
			c0-0.2-0.1-0.5-0.1-0.7c0-0.2-0.1-0.4-0.1-0.6c0-0.2-0.1-0.4-0.1-0.5l1.5-0.3c0,0,0,0.1,0,0.2s0,0.2,0.1,0.4
			c0,0.2,0.1,0.4,0.1,0.6c0,0.2,0.1,0.5,0.1,0.8c0.1,0.5,0.1,0.8,0.2,1.2c0.1,0.3,0.2,0.6,0.2,0.9c0.1,0.3,0.2,0.5,0.3,0.7
			c0.1,0.2,0.2,0.5,0.3,0.7c0.1,0.1,0.1,0.3,0.2,0.4c0.1,0.2,0.2,0.3,0.4,0.5c0.1,0.2,0.3,0.4,0.5,0.6c0.2,0.2,0.4,0.3,0.6,0.5
			c0.2,0.1,0.5,0.3,0.8,0.4s0.6,0.2,0.9,0.2c0.6,0,1.2-0.1,1.6-0.3c0.5-0.2,0.9-0.6,1.2-1c0.3-0.4,0.5-0.9,0.7-1.5
			c0.1-0.6,0.2-1.1,0.1-1.8s-0.2-1.2-0.4-1.8s-0.5-1.1-0.9-1.6l1.3-0.9c0.4,0.4,0.6,0.8,0.9,1.3s0.4,0.8,0.5,1.2s0.2,0.8,0.2,1.2
			S21.1,253.9,21.1,254.2z"/>
		<path fill="#464545" d="M15.5,243.8c0,0.6-0.1,1.1-0.2,1.5c-0.1,0.4-0.3,0.8-0.6,1c-0.2,0.2-0.4,0.3-0.6,0.4s-0.4,0.2-0.6,0.2
			c-0.2,0-0.4,0.1-0.6,0.1c-0.2,0-0.3,0-0.5,0h-0.1c0,0-0.1,0-0.3,0c-0.2,0-0.4,0-0.8,0c-0.3,0-0.7,0-1.1,0s-0.8,0-1.3,0
			c-0.4,0-0.9,0-1.4,0c-0.5,0-1,0-1.4,0c-0.5,0-0.9,0.1-1.3,0.1c-0.4,0-0.7,0.1-0.9,0.1l-0.3-1.5c0.3,0,0.6-0.1,1-0.1
			c0.4,0,0.8-0.1,1.3-0.1s0.9,0,1.4-0.1c0.5,0,1,0,1.4,0c0.5,0,0.9,0,1.3,0c0.4,0,0.8,0,1.1,0c0.3,0,0.6,0,0.8,0c0.2,0,0.3,0,0.4,0
			h0.1c0.2,0,0.4,0,0.6,0c0.2,0,0.3-0.1,0.4-0.2c0.2-0.2,0.4-0.7,0.4-1.3v-0.1c0-0.1,0-0.2,0.1-0.3c0-0.1,0.1-0.2,0.2-0.2
			s0.2-0.1,0.2-0.2c0.1,0,0.2-0.1,0.3-0.1c0.2,0,0.4,0.1,0.5,0.2C15.5,243.4,15.5,243.6,15.5,243.8z"/>
		<path fill="#464545" d="M5,238.3l1.3,1.3L5,240.8l-1.3-1.3L5,238.3z M14.8,244.6c-0.1,0-0.2,0-0.3-0.1s-0.2-0.1-0.2-0.2
			c-0.1-0.1-0.1-0.2-0.2-0.2S14,244,14,243.9c0-0.2,0-0.4,0-0.6c0-0.2,0-0.4,0-0.6c0-0.2,0-0.4,0-0.6c0-0.2,0-0.3,0-0.5
			c-0.6,0.7-1.3,1-2,1c-0.5,0-0.9-0.1-1.4-0.2s-0.8-0.4-1.2-0.6s-0.6-0.6-0.8-1c-0.2-0.4-0.3-0.7-0.3-1.1c0-0.5,0.1-0.9,0.3-1.2
			s0.5-0.6,0.8-0.9c0.3-0.2,0.7-0.4,1.1-0.5c0.4-0.1,0.8-0.2,1.2-0.1c0.4,0,0.8,0.1,1.2,0.2c0.4,0.1,0.7,0.4,1.1,0.6
			c0-0.2,0.1-0.3,0.1-0.5c0-0.2,0-0.4,0.1-0.6s0-0.4,0-0.6s0-0.4,0-0.6c0-0.2,0.1-0.4,0.2-0.6c0.1-0.1,0.3-0.2,0.5-0.2
			c0.1,0,0.2,0,0.3,0.1c0.1,0,0.2,0.1,0.2,0.2c0.1,0.1,0.1,0.2,0.2,0.2c0,0.1,0.1,0.2,0.1,0.3v0.1c0,0.2,0,0.3,0,0.5
			c0,0.2,0,0.4,0,0.6s0,0.4,0,0.6s0,0.3-0.1,0.5c-0.1,0.3-0.1,0.6-0.2,0.9c-0.1,0.3-0.1,0.6-0.2,0.8c0.1,0.2,0.2,0.5,0.2,0.9
			c0.1,0.3,0.1,0.7,0.2,1c0,0.4,0.1,0.8,0.1,1.2c0,0.4,0,0.8,0,1.2v0.1c0,0.2-0.1,0.4-0.2,0.5C15.2,244.6,15,244.6,14.8,244.6z
			 M9.7,239.7c0,0.1,0.1,0.3,0.2,0.5s0.2,0.3,0.4,0.5c0.2,0.1,0.4,0.3,0.7,0.3c0.3,0.1,0.6,0.1,0.9,0.1c0.2,0,0.5-0.1,0.7-0.3
			c0.2-0.2,0.5-0.6,0.7-1l0.1-0.1c-0.1-0.3-0.3-0.5-0.6-0.7s-0.5-0.3-0.7-0.3s-0.5-0.1-0.8,0c-0.3,0-0.5,0.1-0.7,0.2
			c-0.2,0.1-0.4,0.2-0.5,0.4C9.8,239.4,9.7,239.5,9.7,239.7z"/>
		<path fill="#464545" d="M5.8,232.5l1.3,1.3L5.8,235l-1.3-1.3L5.8,232.5z M5.8,229.3l1.3,1.3l-1.3,1.3l-1.3-1.3L5.8,229.3z
			 M14.8,236.5c-0.2,0-0.4-0.1-0.5-0.2c-0.1-0.1-0.2-0.3-0.2-0.5v-0.9c0-0.2,0-0.4,0-0.6c0-0.2,0-0.4,0-0.6c0-0.2-0.1-0.4-0.1-0.6
			c0-0.2-0.1-0.4-0.2-0.6c-0.1-0.2-0.2-0.3-0.3-0.5c-0.1-0.1-0.2-0.2-0.4-0.3c-0.2-0.1-0.5-0.1-1-0.1s-0.9,0.1-1.5,0.3
			c-0.2,0.1-0.3,0.1-0.5,0.2c-0.2,0.1-0.4,0.2-0.5,0.2c-0.2,0.1-0.4,0.2-0.6,0.3l-0.7-1.4c0,0,0.1,0,0.2-0.1c0.1,0,0.2-0.1,0.4-0.2
			s0.4-0.2,0.6-0.2c0.2-0.1,0.5-0.2,0.7-0.3c1.5-0.5,2.7-0.5,3.5-0.2c0.8,0.4,1.4,1,1.7,2c0,0.1,0.1,0.3,0.1,0.5
			c0,0.2,0,0.4,0.1,0.7c0,0.2,0,0.4,0,0.7s0,0.4,0,0.5v1.1v0.1c0,0.2-0.1,0.4-0.2,0.5C15.2,236.4,15,236.5,14.8,236.5z"/>
		<path fill="#464545" d="M10.5,225.3c0.5-0.1,1-0.3,1.4-0.4c0.2-0.1,0.4-0.1,0.6-0.2c0.2-0.1,0.4-0.1,0.7-0.2
			c0.2,0,0.4-0.1,0.6-0.1c0.2,0,0.4-0.1,0.6-0.1c0.1,0,0.1,0,0.2,0c0.1,0,0.2,0,0.2,0c0.5,0,0.9,0.1,1.3,0.2
			c0.4,0.1,0.8,0.3,1.2,0.6c0.4,0.2,0.8,0.5,1.1,0.8c0.4,0.3,0.7,0.7,1,1.1s0.6,0.8,0.9,1.2c0.3,0.4,0.5,0.9,0.7,1.3l-1.4,0.7
			c-0.3-0.5-0.6-1.1-0.9-1.6s-0.7-1-1.2-1.4s-0.9-0.7-1.3-1c-0.5-0.2-1-0.4-1.5-0.4c0,0-0.1,0-0.1,0c-0.1,0-0.1,0-0.2,0h0
			c-0.2,0-0.3,0-0.5,0.1c-0.2,0-0.4,0.1-0.6,0.1c-0.2,0-0.4,0.1-0.6,0.1c-0.2,0.1-0.4,0.1-0.6,0.2c-0.4,0.1-0.9,0.3-1.3,0.4
			L10.5,225.3z"/>
		<path fill="#464545" d="M3.2,220.5c2.1-0.2,4-0.4,5.7-0.4c2.8-0.1,5,0,6.7,0.1l-0.1,1.5c-2.3-0.2-4.3-0.2-5.8-0.2
			c-2.5,0.1-4.6,0.2-6.3,0.4L3.2,220.5z"/>
	</g>
</g>
<g>
	<g>
		<path fill="#464545" d="M106,414.2c0.5-1.1,1.3-1.9,2.2-2.6c0,0.1,0.1,0.1,0.1,0.2l0.1,0.2l0.1,0.2c0,0.1,0.1,0.1,0.1,0.2
			c-0.8,0.7-1.4,1.4-1.7,2.2c-0.4,0.9-0.6,1.9-0.7,3.1c0,2,0.8,3.7,2.4,5.2l-0.5,0.7c-0.9-0.7-1.6-1.6-2.1-2.6
			c-0.5-1.1-0.8-2.2-0.8-3.4C105.3,416.3,105.5,415.2,106,414.2z"/>
		<path fill="#464545" d="M110.1,420c0.1-0.1,0.3-0.2,0.5-0.2c0.2,0,0.4,0.1,0.5,0.2c0.1,0.1,0.2,0.3,0.2,0.4c0,0.2-0.1,0.3-0.2,0.4
			c-0.1,0.1-0.3,0.2-0.5,0.2s-0.4-0.1-0.5-0.2c-0.1-0.1-0.2-0.2-0.2-0.4C109.9,420.2,110,420.1,110.1,420z"/>
		<path fill="#464545" d="M114.7,420.4c-0.4,0-0.7-0.1-1-0.2c-0.3-0.2-0.6-0.4-0.9-0.7l0.5-0.8c0.2,0.2,0.4,0.3,0.6,0.4
			s0.4,0.2,0.6,0.2c0.2,0,0.4,0.1,0.6,0c0.2,0,0.4-0.1,0.5-0.1c0.2-0.1,0.3-0.1,0.4-0.2c0.1-0.1,0.2-0.1,0.2-0.2l-1.5-3.6l0.9-0.4
			c0.1,0.2,0.2,0.5,0.4,0.9c0.1,0.3,0.3,0.7,0.5,1.1s0.4,0.9,0.6,1.5c0.1,0.2,0.1,0.3,0.2,0.4c0,0.1,0.1,0.2,0.2,0.3
			c0.1,0.1,0.2,0.2,0.3,0.2c0.1,0,0.3,0.1,0.5,0.1c0.1,0,0.2,0,0.3,0.1c0.1,0.1,0.1,0.2,0.1,0.3s0,0.2-0.1,0.3
			c-0.1,0.1-0.2,0.1-0.3,0.1c-0.2,0-0.4,0-0.6,0c-0.2,0-0.3-0.1-0.4-0.1c-0.1-0.1-0.2-0.1-0.3-0.2c-0.1-0.1-0.2-0.2-0.2-0.2
			c-0.1,0.1-0.2,0.1-0.3,0.2c-0.1,0.1-0.3,0.1-0.4,0.2c-0.2,0.1-0.4,0.1-0.6,0.2C115.2,420.4,115,420.4,114.7,420.4z"/>
		<path fill="#464545" d="M117.7,419.9c0-0.1,0-0.2,0.1-0.3c0.1-0.1,0.2-0.1,0.3-0.1h0.4c0.3,0,0.5,0,0.8,0c0.2,0,0.5-0.1,0.6-0.2
			s0.3-0.2,0.4-0.4s0.2-0.3,0.1-0.6c0-0.2,0-0.4,0-0.6c0-0.2-0.1-0.4-0.1-0.7l0.9-0.3c0,0.1,0.1,0.2,0.1,0.4c0,0.1,0,0.2,0.1,0.4
			c0,0.1,0,0.3,0.1,0.4c0,0.1,0,0.3,0,0.4c0,0.1,0,0.2,0,0.4c0,0.1,0.1,0.3,0.1,0.4c0.1,0.1,0.1,0.2,0.2,0.3
			c0.1,0.1,0.2,0.1,0.4,0.1c0.1,0,0.2,0,0.3,0.1c0.1,0.1,0.1,0.2,0.1,0.3c0,0.1,0,0.1,0,0.2s-0.1,0.1-0.1,0.1c0,0-0.1,0.1-0.1,0.1
			c-0.1,0-0.1,0-0.2,0c-0.3,0-0.6-0.1-0.8-0.2c-0.2-0.1-0.4-0.3-0.5-0.4c-0.1,0.1-0.3,0.2-0.4,0.3s-0.4,0.1-0.6,0.2
			c-0.2,0-0.4,0.1-0.7,0.1c-0.2,0-0.5,0-0.7,0h-0.4c-0.1,0-0.2,0-0.3-0.1C117.8,420.2,117.7,420,117.7,419.9z M119.7,422.2l-0.8,0.8
			l-0.8-0.8l0.8-0.8L119.7,422.2z M121.7,422.2l-0.8,0.8l-0.8-0.8l0.8-0.8L121.7,422.2z"/>
		<path fill="#464545" d="M121.9,419.9c0-0.1,0-0.2,0.1-0.3s0.2-0.1,0.3-0.1h0.1c0.5,0,0.9-0.1,1.2-0.3c0.2-0.2,0.4-0.5,0.4-0.9
			c0-0.1,0-0.2,0-0.3c0-0.1,0-0.2,0-0.3c0-0.1,0-0.2-0.1-0.3c0-0.1-0.1-0.2-0.1-0.3l0.9-0.3c0,0.1,0.1,0.2,0.1,0.3
			c0,0.1,0,0.2,0.1,0.3s0,0.2,0,0.4s0,0.3,0,0.5c0,0.1,0,0.2,0,0.4s0.1,0.3,0.1,0.4c0.1,0.1,0.1,0.2,0.2,0.3
			c0.1,0.1,0.2,0.1,0.4,0.1c0.1,0,0.1,0,0.2,0c0.1,0,0.1,0.1,0.2,0.1s0.1,0.1,0.1,0.2s0,0.1,0,0.2c0,0.1,0,0.1,0,0.2
			s-0.1,0.1-0.1,0.1c0,0-0.1,0.1-0.1,0.1c-0.1,0-0.1,0-0.2,0c-0.2,0-0.3,0-0.4,0c-0.1,0-0.3-0.1-0.4-0.1c-0.1-0.1-0.2-0.1-0.3-0.2
			c-0.1-0.1-0.2-0.2-0.2-0.2c-0.2,0.2-0.5,0.3-0.8,0.4s-0.7,0.1-1.2,0.1h-0.1c-0.1,0-0.2,0-0.3-0.1S121.9,420,121.9,419.9z
			 M124.9,414.9l-0.8,0.8l-0.8-0.8l0.8-0.8L124.9,414.9z"/>
		<path fill="#464545" d="M125.2,419.9c0-0.1,0-0.2,0.1-0.3s0.2-0.1,0.4-0.1h0.5c0.2,0,0.4,0,0.6,0s0.4,0,0.6-0.1s0.4-0.1,0.5-0.2
			c0.2-0.1,0.3-0.2,0.4-0.3c0.1-0.2,0.2-0.3,0.2-0.5c0-0.2,0-0.4-0.1-0.6c0-0.1-0.1-0.3-0.3-0.5s-0.3-0.4-0.5-0.7s-0.4-0.5-0.7-0.7
			s-0.5-0.5-0.8-0.7l0.1-1l3.9-1.7l0.4,0.9l-3.4,1.4c0.2,0.1,0.3,0.3,0.5,0.4c0.2,0.2,0.4,0.3,0.6,0.5c0.2,0.3,0.4,0.5,0.6,0.8
			c0.2,0.2,0.3,0.5,0.4,0.7s0.1,0.4,0.2,0.6c0,0.2,0,0.4,0,0.6s0,0.3-0.1,0.5c0,0.1-0.1,0.3-0.2,0.4c-0.3,0.5-0.8,0.8-1.4,0.9
			c-0.1,0-0.3,0-0.4,0h-1.5c-0.2,0-0.3,0-0.4-0.1S125.2,420,125.2,419.9z"/>
		<path fill="#464545" d="M136.3,419.7c-0.8,0-1.4-0.2-1.7-0.6c-0.1-0.1-0.2-0.2-0.2-0.3c0-0.1-0.1-0.2-0.1-0.4c0-0.1,0-0.2,0-0.3
			c0-0.1,0-0.2,0.1-0.3c0.1-0.2,0.2-0.3,0.3-0.5c0.1-0.1,0.2-0.3,0.4-0.4c0.1-0.1,0.3-0.2,0.4-0.3c0.1-0.1,0.3-0.2,0.4-0.2
			c0.1-0.1,0.3-0.1,0.4-0.2c0.1-0.1,0.2-0.1,0.3-0.1c0-0.2,0-0.4-0.1-0.5c0-0.1,0-0.2,0-0.2l0.9-0.2v0c0,0,0,0.1,0,0.2
			c0,0.1,0,0.2,0,0.3c0,0.1,0,0.3,0,0.4c0,0.1,0,0.3,0,0.4s0,0.2,0,0.3c0,0.1,0,0.1,0,0.2c0,0.4,0.1,0.7,0.1,1
			c0,0.3,0.1,0.5,0.1,0.6s0.1,0.3,0.1,0.3c0,0.1,0,0.1,0,0.1c0,0.1,0.1,0.2,0.1,0.2s0.1,0.1,0.2,0.1c0.1,0,0.1,0.1,0.2,0.1
			s0.2,0,0.3,0c0.1,0,0.2,0,0.3,0.1c0.1,0.1,0.1,0.2,0.1,0.3c0,0.1,0,0.1,0,0.2s-0.1,0.1-0.1,0.2c0,0-0.1,0.1-0.2,0.1
			c-0.1,0-0.1,0-0.2,0c-0.1,0-0.3,0-0.4,0c-0.2,0-0.3-0.1-0.5-0.1c-0.3-0.1-0.5-0.3-0.6-0.6c-0.2,0-0.4,0.1-0.6,0.1
			C136.6,419.7,136.5,419.7,136.3,419.7z M136.8,417c-0.1,0-0.2,0.1-0.3,0.1s-0.2,0.1-0.3,0.2c-0.1,0.1-0.2,0.1-0.3,0.2
			c-0.1,0.1-0.2,0.1-0.3,0.2c-0.1,0.1-0.2,0.2-0.2,0.3c-0.1,0.1-0.1,0.2-0.1,0.3c0,0.1,0,0.2,0.1,0.3c0.1,0.1,0.1,0.1,0.3,0.2
			c0.1,0,0.2,0.1,0.4,0.1s0.3,0,0.4,0c0.1,0,0.3,0,0.4,0s0.2,0,0.3,0c0-0.2-0.1-0.4-0.1-0.7C136.9,417.8,136.8,417.4,136.8,417z"/>
		<path fill="#464545" d="M138.4,419.9c0-0.1,0-0.2,0.1-0.3c0.1-0.1,0.2-0.1,0.3-0.1c0.4,0,0.7,0,1,0c0.3,0,0.6-0.1,0.8-0.1
			c0.2-0.1,0.4-0.1,0.6-0.2c0.2-0.1,0.3-0.1,0.4-0.2c0,0,0.1-0.1,0.1-0.1c0,0,0.1-0.1,0.1-0.1h-0.5c-0.2,0-0.3,0-0.5,0
			c-0.2,0-0.3-0.1-0.5-0.1c-0.1-0.1-0.3-0.1-0.4-0.2c-0.1-0.1-0.2-0.2-0.3-0.3c0-0.1-0.1-0.1-0.1-0.2c0-0.1-0.1-0.2-0.1-0.3
			c0-0.1,0-0.2-0.1-0.4c0-0.1,0-0.3,0-0.4c0-0.2,0.1-0.5,0.2-0.7c0.1-0.2,0.2-0.4,0.3-0.5c0.1-0.2,0.3-0.3,0.5-0.4s0.4-0.1,0.6-0.1
			c0.4,0,0.8,0.2,1.1,0.6c0.1,0.2,0.3,0.4,0.4,0.6c0.1,0.2,0.2,0.4,0.3,0.7c0.1,0.2,0.1,0.5,0.1,0.8c0,0.3,0,0.5,0,0.8h0
			c0,0.1,0,0.3-0.1,0.4c0,0,0,0.1,0,0.2c0,0.1-0.1,0.1-0.1,0.2c0,0.1-0.1,0.2-0.2,0.3c-0.1,0.1-0.2,0.2-0.3,0.3
			c-0.2,0.1-0.3,0.2-0.6,0.3s-0.5,0.2-0.8,0.2c-0.3,0.1-0.6,0.1-0.9,0.1c-0.3,0-0.6,0-1,0.1h-0.1c-0.1,0-0.2,0-0.3-0.1
			S138.4,420,138.4,419.9z M141.6,413.4l-0.8,0.8l-0.8-0.8l0.8-0.8L141.6,413.4z M141,415.9c0,0-0.1,0-0.2,0.1s-0.1,0.1-0.2,0.2
			c-0.1,0.1-0.1,0.2-0.2,0.3c-0.1,0.1-0.1,0.3-0.1,0.4c0,0.2,0,0.4,0.1,0.5c0.1,0.1,0.2,0.1,0.3,0.2c0.1,0,0.3,0.1,0.4,0.1
			c0.2,0,0.3,0,0.5,0s0.3,0,0.4,0c0-0.3-0.1-0.6-0.2-0.9c-0.1-0.3-0.2-0.5-0.4-0.7c-0.1-0.1-0.1-0.1-0.2-0.2S141,415.9,141,415.9z"
			/>
		<path fill="#464545" d="M146.4,420.4c-0.4,0-0.7,0-0.9-0.1c-0.2-0.1-0.5-0.2-0.6-0.4c-0.1-0.1-0.2-0.2-0.2-0.3s-0.1-0.2-0.1-0.4
			s0-0.2,0-0.3c0-0.1,0-0.2,0-0.3v-0.1c0,0,0-0.1,0-0.2s0-0.3,0-0.5c0-0.2,0-0.4,0-0.7s0-0.5,0-0.8c0-0.3,0-0.6,0-0.9
			c0-0.3,0-0.6,0-0.9s0-0.5-0.1-0.8s0-0.4-0.1-0.6l0.9-0.2c0,0.2,0.1,0.4,0.1,0.6c0,0.2,0,0.5,0.1,0.8c0,0.3,0,0.6,0,0.9
			c0,0.3,0,0.6,0,0.9c0,0.3,0,0.6,0,0.8c0,0.3,0,0.5,0,0.7c0,0.2,0,0.4,0,0.5c0,0.1,0,0.2,0,0.2v0.1c0,0.1,0,0.3,0,0.4
			c0,0.1,0.1,0.2,0.1,0.3c0.1,0.2,0.4,0.2,0.8,0.2h0c0.1,0,0.1,0,0.2,0c0.1,0,0.1,0.1,0.2,0.1s0.1,0.1,0.1,0.2s0,0.1,0,0.2
			c0,0.1,0,0.2-0.1,0.3C146.7,420.3,146.6,420.4,146.4,420.4z"/>
		<path fill="#464545" d="M145.9,419.9c0-0.1,0-0.2,0.1-0.3c0.1-0.1,0.2-0.1,0.3-0.1c0.2,0,0.4,0,0.5,0c0.1,0,0.2-0.1,0.3-0.1
			c0.1,0,0.2-0.1,0.2-0.1s0.1-0.1,0.1-0.2c0.1-0.2,0.2-0.3,0.2-0.5c0.1-0.2,0.1-0.4,0.2-0.7c0-0.1,0.1-0.3,0.1-0.4
			c0-0.1,0.1-0.3,0.1-0.4l0.9,0.3c0,0.1,0,0.1-0.1,0.2c0,0.1,0,0.1,0,0.2h0c0,0.1,0,0.2,0,0.3c0,0.1,0,0.3,0,0.4s0,0.3,0.1,0.4
			s0.1,0.3,0.2,0.4c0-0.1,0.1-0.2,0.2-0.4s0.2-0.3,0.3-0.5c0.1-0.2,0.2-0.4,0.4-0.5s0.3-0.4,0.5-0.5c0.1-0.1,0.3-0.3,0.4-0.4
			s0.3-0.2,0.5-0.3s0.3-0.2,0.5-0.2c0.2-0.1,0.3-0.1,0.5-0.1c0.4-0.1,0.8-0.1,1.1,0c0.3,0.1,0.6,0.3,0.9,0.6
			c0.2,0.2,0.3,0.4,0.4,0.6c0.1,0.2,0.1,0.5,0.1,0.7c0,0.6-0.3,1.1-0.8,1.5c-0.2,0.2-0.5,0.3-0.7,0.4s-0.5,0.2-0.8,0.3
			s-0.6,0.1-0.9,0.1c-0.3,0-0.6,0-0.8,0c-0.3,0-0.6,0-0.8,0c-0.2,0-0.4,0-0.5,0c-0.3,0-0.5-0.1-0.7-0.2c-0.1,0-0.1-0.1-0.2-0.1
			c-0.1,0-0.1-0.1-0.2-0.1c-0.1-0.1-0.1-0.1-0.2-0.2s-0.1-0.1-0.2-0.2c-0.2,0.3-0.5,0.5-0.8,0.6s-0.7,0.2-1.1,0.2h0
			c-0.1,0-0.2,0-0.3-0.1S145.9,420,145.9,419.9z M150.1,419.5c0.2,0,0.4,0,0.6,0c0.2,0,0.4,0,0.6,0c0.2,0,0.4,0,0.7,0
			c0.2,0,0.4-0.1,0.7-0.1c0.2,0,0.4-0.1,0.6-0.2c0.2-0.1,0.3-0.2,0.5-0.3c0.3-0.2,0.4-0.5,0.4-0.8c0-0.1,0-0.1,0-0.2s0-0.1-0.1-0.2
			s-0.1-0.1-0.1-0.1c0,0-0.1-0.1-0.1-0.1c-0.1-0.1-0.2-0.2-0.3-0.2c-0.1-0.1-0.2-0.1-0.3-0.1c-0.1,0-0.2,0-0.3,0c-0.1,0-0.2,0-0.3,0
			c-0.3,0.1-0.5,0.1-0.8,0.3s-0.5,0.3-0.7,0.5c-0.1,0.1-0.3,0.3-0.4,0.4s-0.2,0.3-0.3,0.4c-0.1,0.1-0.2,0.3-0.2,0.4
			C150.2,419.3,150.2,419.4,150.1,419.5z M153.4,414.4l-0.8,0.8l-0.8-0.8l0.8-0.8L153.4,414.4z"/>
		<path fill="#464545" d="M157.4,412.8c0.1,1.3,0.2,2.5,0.2,3.5c0,1.7,0,3.1-0.1,4.1l-0.9-0.1c0.1-1.4,0.1-2.6,0.1-3.6
			c-0.1-1.5-0.2-2.8-0.3-3.8L157.4,412.8z"/>
		<path fill="#464545" d="M165.3,423.5c-0.1,0-0.2,0-0.2,0c-0.1,0-0.2,0-0.2,0c-0.3,0-0.6-0.1-0.9-0.1c-0.3-0.1-0.5-0.2-0.7-0.3
			c-0.2-0.1-0.4-0.3-0.5-0.4c-0.1-0.2-0.3-0.3-0.4-0.5c-0.2-0.4-0.3-0.8-0.3-1.3c0-0.2,0-0.4,0-0.6c0-0.2,0.1-0.4,0.1-0.7
			c0-0.2,0.1-0.4,0.2-0.5c0.1-0.2,0.1-0.3,0.2-0.5s0.1-0.3,0.2-0.4c0-0.1,0.1-0.2,0.1-0.2l0.8,0.5c0,0-0.1,0.1-0.1,0.2
			c-0.1,0.1-0.1,0.3-0.2,0.5c-0.1,0.2-0.1,0.4-0.2,0.6s-0.1,0.4-0.1,0.7c0,0.2,0,0.5,0,0.7c0,0.2,0.1,0.4,0.2,0.6
			c0.3,0.5,0.8,0.8,1.7,0.9c0.9,0.1,1.6-0.1,2.1-0.5c0.1-0.1,0.3-0.2,0.3-0.4c0.1-0.1,0.2-0.3,0.2-0.4c0.1-0.1,0.1-0.3,0.1-0.4
			s0-0.3,0.1-0.4c0-0.3,0-0.6,0-0.8c0-0.3-0.1-0.6-0.2-0.8c-0.1-0.3-0.1-0.5-0.2-0.7s-0.1-0.3-0.2-0.4c0,0,0,0,0,0c0,0,0,0,0,0
			l0.9-0.4l0,0.1c0.1,0.2,0.2,0.5,0.3,0.7c0.1,0.2,0.2,0.4,0.4,0.6c0,0.1,0.1,0.1,0.2,0.2c0.1,0.1,0.1,0.1,0.2,0.2
			c0.1-0.1,0.1-0.2,0.2-0.3c0.1-0.1,0.2-0.3,0.3-0.4c0.1-0.1,0.2-0.3,0.3-0.4s0.2-0.3,0.4-0.4c0.3-0.3,0.6-0.5,0.9-0.7
			c0.3-0.2,0.7-0.3,1-0.4c0.4-0.1,0.8-0.1,1.1,0c0.3,0.1,0.6,0.3,0.9,0.5c0.2,0.2,0.3,0.4,0.4,0.6c0.1,0.2,0.1,0.5,0.1,0.7
			c0,0.4-0.1,0.7-0.3,1c-0.2,0.3-0.4,0.5-0.7,0.7c-0.2,0.1-0.4,0.2-0.5,0.3s-0.4,0.1-0.6,0.2c-0.2,0-0.4,0.1-0.5,0.1s-0.3,0-0.5,0
			c-0.4,0-0.7,0-1.1-0.1s-0.7-0.1-1-0.2c-0.2-0.1-0.3-0.1-0.5-0.2c-0.1-0.1-0.3-0.2-0.4-0.3c0,0.2,0,0.5,0,0.7
			c0,0.4-0.1,0.8-0.3,1.2c-0.1,0.2-0.2,0.4-0.3,0.6c-0.1,0.2-0.3,0.3-0.4,0.5C167,423.2,166.3,423.5,165.3,423.5z M169.9,419.4
			c0.1,0,0.3,0.1,0.5,0.1c0.2,0,0.4,0.1,0.6,0.1c0.2,0,0.4,0,0.6,0c0.2,0,0.4,0,0.6-0.1s0.4-0.1,0.6-0.1c0.2-0.1,0.3-0.1,0.5-0.2
			c0.4-0.2,0.6-0.6,0.6-1c0-0.1,0-0.1,0-0.2c0-0.1,0-0.1-0.1-0.2c0-0.1-0.1-0.1-0.1-0.1c0,0-0.1-0.1-0.1-0.1
			c-0.1-0.1-0.2-0.2-0.3-0.2s-0.2-0.1-0.3-0.1s-0.2,0-0.3,0s-0.2,0-0.3,0c-0.3,0-0.5,0.1-0.8,0.3c-0.2,0.1-0.5,0.3-0.7,0.5
			c-0.1,0.1-0.2,0.2-0.3,0.4c-0.1,0.1-0.2,0.2-0.3,0.4s-0.2,0.2-0.2,0.3C170,419.2,170,419.3,169.9,419.4z M173,414.4l-0.8,0.8
			l-0.8-0.8l0.8-0.8L173,414.4z"/>
		<path fill="#464545" d="M178.3,420.1c0,0.3,0,0.5-0.1,0.8c-0.1,0.3-0.2,0.5-0.3,0.8c-0.1,0.2-0.3,0.5-0.5,0.7
			c-0.2,0.2-0.4,0.4-0.7,0.6c-0.2,0.2-0.5,0.4-0.7,0.5c-0.3,0.2-0.5,0.3-0.8,0.4l-0.4-0.8c0.2-0.1,0.5-0.2,0.7-0.4
			c0.2-0.1,0.4-0.3,0.6-0.5c0.2-0.2,0.4-0.3,0.6-0.5c0.2-0.2,0.3-0.4,0.4-0.6c0.1-0.2,0.2-0.4,0.3-0.6c0.1-0.2,0.1-0.4,0.1-0.7v0
			c0-0.2-0.1-0.4-0.1-0.6c0-0.2-0.1-0.4-0.2-0.6c-0.1-0.2-0.1-0.4-0.2-0.6s-0.1-0.3-0.1-0.4l0.9-0.3c0.1,0.4,0.2,0.7,0.4,0.9
			c0.1,0.3,0.2,0.5,0.4,0.6c0.1,0.2,0.3,0.3,0.4,0.4c0.1,0.1,0.3,0.1,0.4,0.1h0c0.1,0,0.1,0,0.2,0c0.1,0,0.1,0.1,0.2,0.1
			s0.1,0.1,0.1,0.2c0,0.1,0,0.1,0,0.2c0,0.1,0,0.2-0.1,0.3c-0.1,0.1-0.2,0.1-0.3,0.1h0c0,0-0.1,0-0.2,0c-0.1,0-0.2,0-0.2,0
			s-0.2-0.1-0.3-0.1C178.5,420.2,178.4,420.1,178.3,420.1L178.3,420.1z"/>
		<path fill="#464545" d="M183.4,417.5c-0.1-0.1-0.2-0.2-0.4-0.3c-0.1-0.1-0.3-0.2-0.4-0.2c-0.2-0.1-0.4-0.1-0.6-0.1
			c-0.2,0-0.3,0-0.5,0.1c-0.1,0.1-0.3,0.1-0.4,0.3c-0.1,0.1-0.2,0.2-0.2,0.4c0,0.1-0.1,0.3-0.1,0.4c0,0.2,0,0.4,0.1,0.5
			c0.1,0.2,0.2,0.3,0.4,0.4s0.3,0.2,0.5,0.3c0.2,0.1,0.4,0.1,0.6,0.1c0.2,0,0.4,0,0.5,0c0.2,0,0.3,0,0.5-0.1c0.2,0,0.3-0.1,0.4-0.1
			l0.1,0.9c-0.2,0-0.4,0.1-0.6,0.1c-0.2,0-0.5,0.1-0.8,0.1c-0.3,0-0.7,0.1-1,0.1s-0.8,0-1.3,0l-1,0c-0.1,0-0.2,0-0.3-0.1
			s-0.1-0.2-0.1-0.3s0-0.2,0.1-0.3c0.1-0.1,0.2-0.1,0.3-0.1l1.4,0c-0.2-0.2-0.4-0.4-0.5-0.7c-0.1-0.2-0.1-0.5-0.1-0.8
			c0-0.3,0.1-0.5,0.2-0.8c0.1-0.2,0.2-0.5,0.4-0.7c0.2-0.2,0.4-0.3,0.7-0.4s0.5-0.2,0.8-0.2c0.1,0,0.3,0,0.4,0
			c0.1,0,0.3,0.1,0.4,0.1c0.1,0,0.2,0.1,0.3,0.1s0.2,0.1,0.3,0.2c0.2,0.1,0.4,0.3,0.5,0.4L183.4,417.5z"/>
		<path fill="#464545" d="M190.4,419.7c-0.8,0-1.4-0.2-1.7-0.6c-0.1-0.1-0.2-0.2-0.2-0.3c0-0.1-0.1-0.2-0.1-0.4c0-0.1,0-0.2,0-0.3
			c0-0.1,0-0.2,0.1-0.3c0.1-0.2,0.2-0.3,0.3-0.5c0.1-0.1,0.2-0.3,0.4-0.4c0.1-0.1,0.3-0.2,0.4-0.3c0.1-0.1,0.3-0.2,0.4-0.2
			c0.1-0.1,0.3-0.1,0.4-0.2c0.1-0.1,0.2-0.1,0.3-0.1c0-0.2,0-0.4-0.1-0.5c0-0.1,0-0.2,0-0.2l0.9-0.2v0c0,0,0,0.1,0,0.2
			c0,0.1,0,0.2,0,0.3c0,0.1,0,0.3,0,0.4c0,0.1,0,0.3,0,0.4s0,0.2,0,0.3c0,0.1,0,0.1,0,0.2c0,0.4,0.1,0.7,0.1,1
			c0,0.3,0.1,0.5,0.1,0.6s0.1,0.3,0.1,0.3c0,0.1,0,0.1,0,0.1c0,0.1,0.1,0.2,0.1,0.2s0.1,0.1,0.2,0.1c0.1,0,0.1,0.1,0.2,0.1
			s0.2,0,0.3,0c0.1,0,0.2,0,0.3,0.1c0.1,0.1,0.1,0.2,0.1,0.3c0,0.1,0,0.1,0,0.2s-0.1,0.1-0.1,0.2c0,0-0.1,0.1-0.2,0.1
			c-0.1,0-0.1,0-0.2,0c-0.1,0-0.3,0-0.4,0c-0.2,0-0.3-0.1-0.5-0.1c-0.3-0.1-0.5-0.3-0.6-0.6c-0.2,0-0.4,0.1-0.6,0.1
			C190.7,419.7,190.5,419.7,190.4,419.7z M190.9,417c-0.1,0-0.2,0.1-0.3,0.1s-0.2,0.1-0.3,0.2c-0.1,0.1-0.2,0.1-0.3,0.2
			c-0.1,0.1-0.2,0.1-0.3,0.2c-0.1,0.1-0.2,0.2-0.2,0.3c-0.1,0.1-0.1,0.2-0.1,0.3c0,0.1,0,0.2,0.1,0.3c0.1,0.1,0.1,0.1,0.3,0.2
			c0.1,0,0.2,0.1,0.4,0.1s0.3,0,0.4,0c0.1,0,0.3,0,0.4,0s0.2,0,0.3,0c0-0.2-0.1-0.4-0.1-0.7C190.9,417.8,190.9,417.4,190.9,417z"/>
		<path fill="#464545" d="M192.5,419.9c0-0.1,0-0.2,0.1-0.3c0.1-0.1,0.2-0.1,0.3-0.1h0.5c0.2,0,0.3,0,0.5,0s0.3,0,0.4-0.1
			c0.1,0,0.2-0.1,0.3-0.2s0.2-0.2,0.2-0.3c0.1-0.1,0.1-0.3,0.1-0.6c0-0.3-0.1-0.5-0.2-0.9c0-0.1-0.1-0.2-0.1-0.3
			c0-0.1-0.1-0.2-0.1-0.3c-0.1-0.1-0.1-0.2-0.2-0.4l0.9-0.4c0,0,0,0,0,0.1c0,0.1,0.1,0.1,0.1,0.3c0,0.1,0.1,0.2,0.1,0.4
			s0.1,0.3,0.2,0.4c0.3,0.9,0.3,1.6,0.1,2.1c-0.2,0.5-0.6,0.9-1.2,1c-0.2,0.1-0.3,0.1-0.5,0.1c-0.2,0-0.3,0-0.5,0H193h0
			c-0.1,0-0.2,0-0.3-0.1S192.5,420,192.5,419.9z M195.2,422.2l-0.8,0.8l-0.8-0.8l0.8-0.8L195.2,422.2z"/>
		<path fill="#464545" d="M207.8,415.5c0.1,0.2,0.3,0.4,0.4,0.6c0.1,0.2,0.2,0.5,0.3,0.8c0.1,0.3,0.1,0.6,0.1,0.9
			c0,0.3,0,0.6-0.1,0.9c0,0,0,0.1-0.1,0.2s-0.1,0.2-0.1,0.2c-0.1,0.1-0.1,0.2-0.2,0.3c-0.1,0.1-0.2,0.2-0.4,0.3
			c-0.2,0.1-0.4,0.2-0.6,0.3c-0.3,0.1-0.5,0.2-0.8,0.2s-0.6,0.1-1,0.1c-0.3,0-0.7,0-1.1,0c-1.9,0-3.2-0.5-3.7-1.5
			c-0.1-0.2-0.2-0.4-0.3-0.7c0-0.2-0.1-0.4-0.1-0.6s0-0.4,0.1-0.6s0.1-0.4,0.1-0.5c0-0.1,0.1-0.3,0.1-0.3c0-0.1,0.1-0.1,0.1-0.2
			l0.8,0.5c0,0,0,0,0,0.1c0,0.1-0.1,0.1-0.1,0.2c0,0.1-0.1,0.2-0.1,0.3c0,0.1-0.1,0.3-0.1,0.4c0,0.1,0,0.3,0,0.4
			c0,0.1,0.1,0.3,0.2,0.4c0.1,0.2,0.2,0.3,0.4,0.4c0.2,0.1,0.4,0.2,0.6,0.3c0.2,0.1,0.5,0.2,0.8,0.2c0.3,0,0.6,0.1,1,0.1
			c0.5,0,0.9,0,1.2,0s0.6-0.1,0.9-0.1s0.4-0.1,0.6-0.2c0.2-0.1,0.3-0.1,0.4-0.2c0.1-0.1,0.2-0.1,0.3-0.2s0.1-0.1,0.2-0.1h-0.2
			c-0.1,0-0.2,0-0.2,0s-0.2,0-0.2,0c-0.6,0-1.1-0.2-1.4-0.6c0-0.1-0.1-0.1-0.1-0.2c0-0.1-0.1-0.2-0.1-0.3c0-0.1,0-0.2,0-0.4
			c0-0.1,0-0.3,0-0.4c0-0.2,0.1-0.4,0.2-0.6s0.2-0.4,0.3-0.6c0.1-0.2,0.3-0.3,0.5-0.4c0.2-0.1,0.4-0.2,0.6-0.2
			C207,415,207.4,415.2,207.8,415.5z M207.4,413.4l-0.8,0.8l-0.8-0.8l0.8-0.8L207.4,413.4z M206.8,417.7c0.3,0,0.6,0,0.8,0
			c0-0.2-0.1-0.3-0.1-0.5c0-0.2-0.1-0.4-0.2-0.6c-0.1-0.2-0.2-0.3-0.3-0.5c-0.1-0.1-0.3-0.2-0.4-0.3c-0.1,0-0.1,0-0.2,0.1
			s-0.1,0.1-0.2,0.2s-0.1,0.2-0.2,0.3c-0.1,0.1-0.1,0.2-0.1,0.3c0,0.1,0,0.2,0,0.3c0,0.1,0.1,0.2,0.1,0.3c0.1,0.1,0.2,0.1,0.3,0.2
			C206.5,417.7,206.6,417.7,206.8,417.7z"/>
		<path fill="#464545" d="M212.1,420.1c0,0.3,0,0.5-0.1,0.8c-0.1,0.3-0.2,0.5-0.3,0.8c-0.1,0.2-0.3,0.5-0.5,0.7
			c-0.2,0.2-0.4,0.4-0.7,0.6c-0.2,0.2-0.5,0.4-0.7,0.5c-0.3,0.2-0.5,0.3-0.8,0.4l-0.4-0.8c0.2-0.1,0.5-0.2,0.7-0.4
			c0.2-0.1,0.4-0.3,0.6-0.5c0.2-0.2,0.4-0.3,0.6-0.5c0.2-0.2,0.3-0.4,0.4-0.6c0.1-0.2,0.2-0.4,0.3-0.6c0.1-0.2,0.1-0.4,0.1-0.7v0
			c0-0.2-0.1-0.4-0.1-0.6c0-0.2-0.1-0.4-0.2-0.6c-0.1-0.2-0.1-0.4-0.2-0.6s-0.1-0.3-0.1-0.4l0.9-0.3c0.1,0.4,0.2,0.7,0.4,0.9
			c0.1,0.3,0.2,0.5,0.4,0.6c0.1,0.2,0.3,0.3,0.4,0.4c0.1,0.1,0.3,0.1,0.4,0.1h0c0.1,0,0.1,0,0.2,0c0.1,0,0.1,0.1,0.2,0.1
			s0.1,0.1,0.1,0.2c0,0.1,0,0.1,0,0.2c0,0.1,0,0.2-0.1,0.3c-0.1,0.1-0.2,0.1-0.3,0.1h0c0,0-0.1,0-0.2,0c-0.1,0-0.2,0-0.2,0
			s-0.2-0.1-0.3-0.1C212.3,420.2,212.2,420.1,212.1,420.1L212.1,420.1z"/>
		<path fill="#464545" d="M212.5,419.9c0-0.1,0-0.1,0-0.2c0-0.1,0.1-0.1,0.1-0.1s0.1-0.1,0.2-0.1s0.1,0,0.2,0h0h0.7
			c0-0.1,0.1-0.2,0.2-0.4c0.1-0.2,0.3-0.4,0.5-0.7c0-0.2,0.1-0.5,0.1-0.8s0-0.6,0-1.1c0-0.4,0-0.8,0-1.2c0-0.4,0-0.8-0.1-1.1
			c0-0.4-0.1-0.7-0.1-0.8c0-0.2,0-0.3,0-0.3l1-0.2c0.2,1.3,0.2,2.7,0.2,4.2c0.8-0.7,1.5-1.1,2.2-1.3c0.2,0,0.3,0,0.5,0
			c0.2,0,0.3,0,0.5,0.1c0.1,0,0.3,0.1,0.4,0.2c0.1,0.1,0.3,0.2,0.4,0.3c0.1,0.1,0.3,0.3,0.3,0.5c0.1,0.2,0.1,0.4,0.1,0.6
			c0,0.2,0,0.3,0,0.5c0,0.2-0.1,0.3-0.2,0.5c-0.1,0.2-0.1,0.3-0.2,0.4c-0.1,0.1-0.2,0.2-0.3,0.3l0,0c-0.3,0.3-0.6,0.5-0.9,0.6
			c-0.3,0.2-0.6,0.3-0.9,0.3c-0.3,0.1-0.6,0.1-0.8,0.2c-0.3,0-0.5,0-0.8,0l-2.8,0h0c-0.1,0-0.1,0-0.2,0c-0.1,0-0.1-0.1-0.2-0.1
			c0,0-0.1-0.1-0.1-0.1C212.5,420,212.5,420,212.5,419.9z M214.8,419.4c0.1,0,0.1,0,0.2,0c0.1,0,0.2,0,0.2,0c0.2,0,0.5,0,0.8,0
			c0.3,0,0.5,0,0.8-0.1c0.3-0.1,0.6-0.1,0.9-0.3s0.6-0.3,0.9-0.5c0.2-0.1,0.3-0.3,0.4-0.5c0.1-0.2,0.1-0.4,0.1-0.5
			c0-0.1-0.1-0.2-0.2-0.3c-0.1-0.1-0.2-0.2-0.3-0.2c-0.1-0.1-0.2-0.1-0.4-0.1s-0.2,0-0.4,0c-0.3,0.1-0.7,0.2-1.1,0.5
			s-0.8,0.6-1.2,1.1c-0.1,0.1-0.2,0.2-0.2,0.3c-0.1,0.1-0.1,0.2-0.2,0.2L214.8,419.4z"/>
		<path fill="#464545" d="M224,422.8c0.5-0.1,0.9-0.2,1.3-0.4c0.4-0.2,0.7-0.4,1-0.6c0.3-0.2,0.5-0.5,0.7-0.7s0.3-0.5,0.3-0.7
			c-0.1,0-0.3,0-0.5,0c-0.2,0-0.4,0-0.5,0c-0.7,0-1.2-0.3-1.5-0.7c-0.1-0.2-0.2-0.4-0.3-0.6s0-0.5,0-0.7c0-0.3,0.1-0.5,0.2-0.7
			c0.1-0.2,0.2-0.4,0.3-0.6c0.2-0.2,0.3-0.4,0.5-0.5s0.4-0.2,0.6-0.2c0.5,0,0.9,0.2,1.2,0.6c0.2,0.2,0.3,0.4,0.4,0.6
			c0.1,0.2,0.2,0.5,0.3,0.8c0.1,0.3,0.1,0.5,0.2,0.8c0,0.3,0,0.6,0,0.9c0,0.4-0.1,0.7-0.2,1c-0.1,0.3-0.3,0.6-0.5,0.8
			c-0.2,0.3-0.4,0.5-0.7,0.7c-0.2,0.2-0.5,0.4-0.8,0.6s-0.6,0.3-0.9,0.4c-0.3,0.1-0.6,0.2-1,0.2L224,422.8z M226.1,417.3
			c-0.1,0-0.2,0-0.3,0.1c-0.1,0.1-0.2,0.2-0.2,0.3c-0.1,0.1-0.1,0.2-0.2,0.4s-0.1,0.3-0.1,0.4c0,0.1,0,0.3,0,0.4s0.1,0.2,0.1,0.3
			c0,0.1,0.1,0.1,0.2,0.2s0.1,0.1,0.2,0.1c0.1,0,0.2,0,0.2,0.1c0.1,0,0.1,0,0.2,0c0.2,0,0.4,0,0.6,0c0.2,0,0.3,0,0.4,0
			c0-0.2,0-0.4-0.1-0.6c0-0.2-0.1-0.4-0.1-0.5c-0.1-0.2-0.1-0.3-0.2-0.4c-0.1-0.1-0.2-0.2-0.2-0.3c0,0-0.1-0.1-0.1-0.1
			c0,0-0.1-0.1-0.1-0.1s-0.1-0.1-0.1-0.1S226.2,417.3,226.1,417.3z"/>
		<path fill="#464545" d="M231.4,420.4c-0.2,0-0.3,0-0.5-0.1c-0.2,0-0.4-0.1-0.6-0.1c-0.2-0.1-0.4-0.1-0.6-0.2
			c-0.2-0.1-0.3-0.1-0.4-0.2l0.4-0.9c0.1,0.1,0.3,0.2,0.4,0.2c0.2,0.1,0.3,0.1,0.5,0.2c0.2,0.1,0.4,0.1,0.6,0.1c0.2,0,0.4,0,0.6,0
			c0.2,0,0.4-0.1,0.5-0.1c0.2-0.1,0.3-0.2,0.4-0.3c0.1-0.1,0.1-0.3,0-0.6c0-0.2-0.1-0.3-0.2-0.5s-0.2-0.3-0.3-0.5
			c-0.1-0.2-0.2-0.3-0.4-0.5c-0.1-0.2-0.3-0.3-0.4-0.5c-0.1-0.1-0.3-0.3-0.4-0.4c-0.2-0.1-0.3-0.2-0.4-0.3l0.4-0.9
			c0.2,0.1,0.4,0.2,0.6,0.3c0.2,0.1,0.4,0.3,0.6,0.5c0.2,0.2,0.4,0.4,0.5,0.6s0.3,0.4,0.4,0.6s0.2,0.4,0.3,0.6s0.2,0.4,0.2,0.6
			c0,0.2,0.1,0.3,0.1,0.5s0,0.3,0,0.4c0,0.1-0.1,0.2-0.1,0.3c0,0.1-0.1,0.2-0.1,0.2c-0.3,0.4-0.7,0.6-1.2,0.7
			c-0.1,0-0.2,0.1-0.4,0.1S231.6,420.4,231.4,420.4z"/>
		<path fill="#464545" d="M239.7,417.3c0.1,0.3,0.2,0.6,0.3,0.9c0,0.1,0.1,0.3,0.1,0.4c0,0.1,0.1,0.3,0.1,0.4s0.1,0.3,0.1,0.4
			c0,0.1,0,0.2,0.1,0.4c0,0,0,0.1,0,0.1c0,0,0,0.1,0,0.1c0,0.3,0,0.5-0.1,0.8c-0.1,0.3-0.2,0.5-0.3,0.8c-0.1,0.2-0.3,0.5-0.5,0.7
			s-0.4,0.4-0.7,0.6c-0.2,0.2-0.5,0.4-0.7,0.5c-0.3,0.2-0.5,0.3-0.8,0.4l-0.4-0.8c0.3-0.2,0.7-0.4,1-0.6c0.3-0.2,0.6-0.5,0.8-0.7
			c0.2-0.3,0.4-0.5,0.6-0.8c0.2-0.3,0.2-0.6,0.2-0.9c0,0,0,0,0-0.1c0,0,0-0.1,0-0.1v0c0-0.1,0-0.2,0-0.3c0-0.1,0-0.2-0.1-0.4
			c0-0.1-0.1-0.2-0.1-0.4c0-0.1-0.1-0.2-0.1-0.4c-0.1-0.3-0.2-0.5-0.2-0.8L239.7,417.3z M239.9,415.3l-0.8,0.8l-0.8-0.8l0.8-0.8
			L239.9,415.3z"/>
		<path fill="#464545" d="M242.7,412.8c0.1,1.3,0.2,2.5,0.2,3.5c0,1.7,0,3.1-0.1,4.1l-0.9-0.1c0.1-1.4,0.1-2.6,0.1-3.6
			c-0.1-1.5-0.2-2.8-0.3-3.8L242.7,412.8z"/>
		<path fill="#464545" d="M249.6,420.1c0,0.3,0,0.5-0.1,0.8c-0.1,0.3-0.2,0.5-0.3,0.8c-0.1,0.2-0.3,0.5-0.5,0.7
			c-0.2,0.2-0.4,0.4-0.7,0.6c-0.2,0.2-0.5,0.4-0.7,0.5s-0.5,0.3-0.8,0.4l-0.4-0.8c0.2-0.1,0.5-0.2,0.7-0.4c0.2-0.1,0.4-0.3,0.6-0.5
			c0.2-0.2,0.4-0.3,0.6-0.5c0.2-0.2,0.3-0.4,0.4-0.6c0.1-0.2,0.2-0.4,0.3-0.6c0.1-0.2,0.1-0.4,0.1-0.7v0c0-0.2-0.1-0.4-0.1-0.6
			c0-0.2-0.1-0.4-0.2-0.6c-0.1-0.2-0.1-0.4-0.2-0.6c-0.1-0.2-0.1-0.3-0.1-0.4l0.9-0.3c0.1,0.4,0.2,0.7,0.4,0.9
			c0.1,0.3,0.2,0.5,0.4,0.6c0.1,0.2,0.3,0.3,0.4,0.4c0.1,0.1,0.3,0.1,0.4,0.1h0c0.1,0,0.1,0,0.2,0s0.1,0.1,0.2,0.1s0.1,0.1,0.1,0.2
			c0,0.1,0,0.1,0,0.2c0,0.1,0,0.2-0.1,0.3c-0.1,0.1-0.2,0.1-0.3,0.1h0c0,0-0.1,0-0.2,0c-0.1,0-0.2,0-0.2,0c-0.1,0-0.2-0.1-0.3-0.1
			S249.7,420.1,249.6,420.1L249.6,420.1z"/>
		<path fill="#464545" d="M250,419.9c0-0.1,0-0.2,0.1-0.3c0.1-0.1,0.2-0.1,0.3-0.1h0.4c0.3,0,0.5,0,0.8,0c0.2,0,0.5-0.1,0.6-0.2
			s0.3-0.2,0.4-0.4s0.2-0.3,0.1-0.6c0-0.2,0-0.4,0-0.6c0-0.2-0.1-0.4-0.1-0.7l0.9-0.3c0,0.1,0.1,0.2,0.1,0.4c0,0.1,0,0.2,0.1,0.4
			c0,0.1,0,0.3,0,0.4s0,0.3,0,0.4c0,0.1,0,0.2,0,0.4s0.1,0.3,0.1,0.4c0.1,0.1,0.1,0.2,0.2,0.3c0.1,0.1,0.2,0.1,0.4,0.1
			c0.1,0,0.2,0,0.3,0.1c0.1,0.1,0.1,0.2,0.1,0.3c0,0.1,0,0.1,0,0.2c0,0.1-0.1,0.1-0.1,0.1c0,0-0.1,0.1-0.1,0.1c-0.1,0-0.1,0-0.2,0
			c-0.3,0-0.6-0.1-0.8-0.2c-0.2-0.1-0.4-0.3-0.5-0.4c-0.1,0.1-0.3,0.2-0.4,0.3c-0.2,0.1-0.4,0.1-0.6,0.2c-0.2,0-0.4,0.1-0.7,0.1
			s-0.5,0-0.7,0h-0.4c-0.1,0-0.2,0-0.3-0.1C250.1,420.2,250,420,250,419.9z M252.4,415.2l-0.8,0.8l-0.8-0.8l0.8-0.8L252.4,415.2z
			 M254.4,415.2l-0.8,0.8l-0.8-0.8l0.8-0.8L254.4,415.2z"/>
		<path fill="#464545" d="M260.3,419.4c0.1,0,0.2,0,0.3,0.1c0.1,0.1,0.1,0.2,0.1,0.3c0,0.1,0,0.2-0.1,0.3c-0.1,0.1-0.2,0.1-0.3,0.1
			c-0.5,0-0.8-0.2-1.1-0.5c-0.3,0.4-0.6,0.5-1,0.4c-0.6-0.1-1.3-0.3-1.9-0.7c-0.1,0.1-0.2,0.3-0.4,0.4c-0.4,0.3-0.8,0.4-1.3,0.4
			c-0.1,0-0.2,0-0.3-0.1c-0.1-0.1-0.1-0.2-0.1-0.3c0-0.1,0-0.2,0.1-0.3c0.1-0.1,0.2-0.1,0.3-0.1c0.5,0,0.9-0.2,1.2-0.7
			c0.1-0.2,0.2-0.3,0.3-0.6c0-0.1,0.1-0.2,0.1-0.3l0-0.1l0-0.1c0,0,0-0.1,0-0.1l0.1-0.2c0-0.1,0.1-0.2,0.1-0.2
			c0.1-0.2,0.2-0.3,0.3-0.4c0.3-0.3,0.6-0.4,0.9-0.4c0.4,0,0.8,0.2,1.1,0.5c0.3,0.3,0.5,0.8,0.6,1.3c0,0.1,0,0.3,0,0.5
			c0,0.2,0.1,0.4,0.2,0.6C259.9,419.4,260.1,419.4,260.3,419.4z M258.1,419.4c0.3,0,0.4,0,0.5-0.2c0.1-0.1,0.1-0.3,0.1-0.5
			c0-0.1,0-0.1,0-0.2l0,0c0-0.3-0.1-0.5-0.3-0.8c-0.2-0.2-0.4-0.3-0.6-0.3c-0.2,0-0.3,0.2-0.5,0.5c-0.1,0.1-0.1,0.3-0.2,0.5
			l-0.1,0.1l-0.1,0.1c0,0.1-0.1,0.2-0.1,0.2C257.4,419.2,257.8,419.4,258.1,419.4z"/>
		<path fill="#464545" d="M259.8,419.9c0-0.1,0-0.2,0.1-0.3c0.1-0.1,0.2-0.1,0.3-0.1h0.4c0.3,0,0.5,0,0.8,0c0.2,0,0.5-0.1,0.6-0.2
			s0.3-0.2,0.4-0.4s0.2-0.3,0.1-0.6c0-0.2,0-0.4,0-0.6c0-0.2-0.1-0.4-0.1-0.7l0.9-0.3c0,0.1,0.1,0.2,0.1,0.4c0,0.1,0,0.2,0.1,0.4
			c0,0.1,0,0.3,0.1,0.4c0,0.1,0,0.3,0,0.4c0,0.1,0,0.2,0,0.4c0,0.1,0.1,0.3,0.1,0.4c0.1,0.1,0.1,0.2,0.2,0.3
			c0.1,0.1,0.2,0.1,0.4,0.1c0.1,0,0.2,0,0.3,0.1c0.1,0.1,0.1,0.2,0.1,0.3c0,0.1,0,0.1,0,0.2s-0.1,0.1-0.1,0.1c0,0-0.1,0.1-0.1,0.1
			c-0.1,0-0.1,0-0.2,0c-0.3,0-0.6-0.1-0.8-0.2c-0.2-0.1-0.4-0.3-0.5-0.4c-0.1,0.1-0.3,0.2-0.4,0.3s-0.4,0.1-0.6,0.2
			c-0.2,0-0.4,0.1-0.7,0.1c-0.2,0-0.5,0-0.7,0h-0.4c-0.1,0-0.2,0-0.3-0.1C259.9,420.2,259.8,420,259.8,419.9z M261.8,422.2L261,423
			l-0.8-0.8l0.8-0.8L261.8,422.2z M263.8,422.2L263,423l-0.8-0.8l0.8-0.8L263.8,422.2z"/>
		<path fill="#464545" d="M263.9,419.9c0-0.1,0-0.2,0.1-0.3c0.1-0.1,0.2-0.1,0.3-0.1h0.4c0.3,0,0.5,0,0.8,0c0.2,0,0.5-0.1,0.6-0.2
			s0.3-0.2,0.4-0.4s0.2-0.3,0.1-0.6c0-0.2,0-0.4,0-0.6c0-0.2-0.1-0.4-0.1-0.7l0.9-0.3c0,0.1,0.1,0.2,0.1,0.4c0,0.1,0,0.2,0.1,0.4
			c0,0.1,0,0.3,0,0.4s0,0.3,0,0.4c0,0.1,0,0.2,0,0.4s0.1,0.3,0.1,0.4c0.1,0.1,0.1,0.2,0.2,0.3c0.1,0.1,0.2,0.1,0.4,0.1
			c0.1,0,0.2,0,0.3,0.1c0.1,0.1,0.1,0.2,0.1,0.3c0,0.1,0,0.1,0,0.2c0,0.1-0.1,0.1-0.1,0.1c0,0-0.1,0.1-0.1,0.1c-0.1,0-0.1,0-0.2,0
			c-0.3,0-0.6-0.1-0.8-0.2c-0.2-0.1-0.4-0.3-0.5-0.4c-0.1,0.1-0.3,0.2-0.4,0.3c-0.2,0.1-0.4,0.1-0.6,0.2c-0.2,0-0.4,0.1-0.7,0.1
			s-0.5,0-0.7,0h-0.4c-0.1,0-0.2,0-0.3-0.1C264,420.2,263.9,420,263.9,419.9z M266.4,415.2l-0.8,0.8l-0.8-0.8l0.8-0.8L266.4,415.2z
			 M268.3,415.2l-0.8,0.8l-0.8-0.8l0.8-0.8L268.3,415.2z"/>
		<path fill="#464545" d="M268.1,419.9c0-0.1,0-0.2,0.1-0.3c0.1-0.1,0.2-0.1,0.3-0.1h0.5c0.2,0,0.3,0,0.5,0s0.3,0,0.4-0.1
			c0.1,0,0.2-0.1,0.3-0.2s0.2-0.2,0.2-0.3c0.1-0.1,0.1-0.3,0.1-0.6c0-0.3-0.1-0.5-0.2-0.9c0-0.1-0.1-0.2-0.1-0.3
			c0-0.1-0.1-0.2-0.1-0.3c-0.1-0.1-0.1-0.2-0.2-0.4l0.9-0.4c0,0,0,0,0,0.1c0,0.1,0.1,0.1,0.1,0.3c0,0.1,0.1,0.2,0.1,0.4
			c0.1,0.1,0.1,0.3,0.2,0.4c0.3,0.9,0.3,1.6,0.1,2.1c-0.2,0.5-0.6,0.9-1.2,1c-0.2,0.1-0.3,0.1-0.5,0.1c-0.2,0-0.3,0-0.5,0h-0.7h0
			c-0.1,0-0.2,0-0.3-0.1S268.1,420,268.1,419.9z M271,414.4l-0.8,0.8l-0.8-0.8l0.8-0.8L271,414.4z"/>
		<path fill="#464545" d="M275,420.4c-0.4,0-0.7,0-0.9-0.1s-0.5-0.2-0.6-0.4c-0.1-0.1-0.2-0.2-0.2-0.3c-0.1-0.1-0.1-0.2-0.1-0.4
			c0-0.1,0-0.2,0-0.3c0-0.1,0-0.2,0-0.3v-0.1c0,0,0-0.1,0-0.2c0-0.1,0-0.3,0-0.5c0-0.2,0-0.4,0-0.7s0-0.5,0-0.8c0-0.3,0-0.6,0-0.9
			c0-0.3,0-0.6,0-0.9c0-0.3,0-0.5-0.1-0.8c0-0.2,0-0.4-0.1-0.6l0.9-0.2c0,0.2,0.1,0.4,0.1,0.6c0,0.2,0,0.5,0.1,0.8s0,0.6,0,0.9
			c0,0.3,0,0.6,0,0.9c0,0.3,0,0.6,0,0.8c0,0.3,0,0.5,0,0.7c0,0.2,0,0.4,0,0.5s0,0.2,0,0.2v0.1c0,0.1,0,0.3,0,0.4
			c0,0.1,0.1,0.2,0.1,0.3c0.1,0.2,0.4,0.2,0.8,0.2h0c0.1,0,0.1,0,0.2,0c0.1,0,0.1,0.1,0.2,0.1s0.1,0.1,0.1,0.2s0,0.1,0,0.2
			c0,0.1,0,0.2-0.1,0.3C275.2,420.3,275.1,420.4,275,420.4z"/>
		<path fill="#464545" d="M274.5,419.9c0-0.1,0-0.1,0-0.2s0.1-0.1,0.1-0.1c0,0,0.1-0.1,0.1-0.1c0.1,0,0.1,0,0.2,0
			c0.2,0,0.4,0,0.5-0.1c0.2-0.1,0.3-0.2,0.4-0.3c0.1-0.1,0.2-0.3,0.3-0.4s0.2-0.3,0.2-0.5s0.1-0.3,0.2-0.5c0-0.2,0.1-0.3,0.1-0.5
			l0.9,0.2c0,0.1-0.1,0.2-0.1,0.3c0,0.1-0.1,0.3-0.1,0.4s-0.1,0.3-0.1,0.4s0,0.3,0,0.4c0,0.1,0,0.2,0,0.3c0,0.1,0,0.2,0.1,0.2
			c0,0.1,0.1,0.1,0.2,0.2c0.1,0,0.2,0.1,0.3,0.1c0.2,0,0.3,0,0.4-0.1c0.1-0.1,0.2-0.2,0.3-0.3c0.1-0.1,0.2-0.3,0.3-0.5
			c0.1-0.2,0.1-0.4,0.2-0.6s0.1-0.4,0.1-0.5s0.1-0.3,0.1-0.5l0.9,0.2c0,0.2-0.1,0.4-0.1,0.5c0,0.1,0,0.3-0.1,0.5c0,0.2,0,0.3,0,0.4
			c0,0.1,0,0.2,0,0.3s0,0.2,0.1,0.3s0.1,0.1,0.2,0.2s0.1,0.1,0.2,0.1c0.1,0,0.3,0,0.4,0c0.1,0,0.2-0.1,0.2-0.1
			c0.1,0,0.1-0.1,0.1-0.1c0,0,0-0.1,0.1-0.1h0c0-0.1,0.1-0.2,0.1-0.2c0-0.1,0-0.2,0-0.3c0-0.2,0-0.4-0.1-0.6c0-0.2-0.1-0.4-0.2-0.6
			c-0.1-0.2-0.1-0.4-0.2-0.6c-0.1-0.2-0.1-0.3-0.2-0.4l0.8-0.4c0,0,0,0.1,0.1,0.2s0.1,0.2,0.2,0.3c0.1,0.1,0.1,0.3,0.2,0.4
			c0.1,0.2,0.1,0.3,0.2,0.5c0.1,0.2,0.1,0.4,0.1,0.6s0.1,0.4,0.1,0.6c0,0.3,0,0.5-0.1,0.7s-0.2,0.4-0.3,0.6
			c-0.2,0.2-0.3,0.3-0.6,0.4c-0.2,0.1-0.5,0.1-0.8,0.1c-0.1,0-0.2,0-0.4-0.1s-0.2-0.1-0.3-0.2c-0.1-0.1-0.2-0.1-0.3-0.2
			s-0.2-0.2-0.2-0.3c-0.2,0.2-0.4,0.4-0.7,0.5c-0.2,0.1-0.5,0.2-0.8,0.2c-0.1,0-0.2,0-0.4,0s-0.2-0.1-0.4-0.1
			c-0.1-0.1-0.2-0.1-0.3-0.2c-0.1-0.1-0.2-0.2-0.2-0.3c-0.2,0.2-0.4,0.4-0.7,0.5s-0.5,0.2-0.9,0.2H275c-0.1,0-0.1,0-0.2,0
			c-0.1,0-0.1-0.1-0.1-0.1c0,0-0.1-0.1-0.1-0.1S274.5,420,274.5,419.9z"/>
		<path fill="#464545" d="M289.8,413.4c0,0.7,0.1,1.4,0.2,2c0.1,0.6,0.3,1.2,0.5,1.7c0.2,0.5,0.5,1.1,0.7,1.5s0.5,0.9,0.8,1.4
			l-0.8,0.5c-0.2-0.3-0.4-0.6-0.5-0.9c-0.2-0.3-0.3-0.6-0.5-0.8s-0.3-0.5-0.4-0.8s-0.2-0.5-0.3-0.8c0-0.1-0.1-0.2-0.1-0.2
			c0-0.1-0.1-0.1-0.1-0.2c0-0.1,0-0.1-0.1-0.2c0-0.1,0-0.2-0.1-0.2c-0.1,0.4-0.3,0.8-0.4,1.2s-0.3,0.8-0.5,1.2
			c-0.2,0.4-0.3,0.7-0.5,1c-0.2,0.3-0.3,0.6-0.4,0.8l-0.8-0.5c0.1-0.3,0.3-0.6,0.5-0.9c0.2-0.3,0.3-0.6,0.5-1s0.3-0.7,0.5-1.1
			c0.1-0.4,0.3-0.7,0.4-1.1c0.1-0.4,0.2-0.8,0.3-1.2c0.1-0.4,0.1-0.9,0.1-1.3H289.8z"/>
		<path fill="#464545" d="M299.6,423.5c-0.3,0-0.6,0-0.9,0c-0.3,0-0.6-0.1-0.9-0.2c-0.3-0.1-0.5-0.2-0.8-0.4
			c-0.2-0.2-0.4-0.4-0.6-0.6c-0.3-0.5-0.5-1.2-0.5-2c0-0.4,0.1-0.9,0.2-1.4c0.1-0.5,0.3-1.1,0.6-1.7l0.9,0.4c-0.4,1-0.6,1.9-0.7,2.6
			c-0.1,0.7,0,1.3,0.3,1.6c0.1,0.2,0.3,0.3,0.5,0.4c0.2,0.1,0.4,0.2,0.6,0.2s0.4,0.1,0.6,0.1c0.2,0,0.4,0,0.5,0c0.1,0,0.2,0,0.4,0
			c0.2,0,0.4,0,0.5-0.1c0.2,0,0.4-0.1,0.6-0.1c0.2-0.1,0.4-0.1,0.6-0.2c0.2-0.1,0.3-0.2,0.4-0.3c0.1-0.1,0.2-0.3,0.2-0.4
			c0,0,0-0.1-0.1-0.1s-0.1-0.1-0.2-0.2s-0.2-0.1-0.3-0.2c-0.1-0.1-0.3-0.1-0.5-0.2c-0.1,0-0.2-0.1-0.3-0.1c-0.1,0-0.2-0.1-0.3-0.1
			c-0.1,0-0.2,0-0.3-0.1c-0.1,0-0.1,0-0.2,0l-0.1,0l0.1-0.9l3.7,0c0.1,0,0.2,0,0.3,0.1c0.1,0.1,0.1,0.2,0.1,0.3s0,0.2-0.1,0.3
			c-0.1,0.1-0.2,0.1-0.3,0.1h-1.1c0.1,0.1,0.2,0.2,0.3,0.3s0.1,0.2,0.2,0.3c0,0.1,0.1,0.2,0.1,0.2c0,0.1,0,0.2,0,0.2
			c0,0.3-0.1,0.5-0.2,0.7c-0.1,0.2-0.3,0.4-0.5,0.5c-0.2,0.2-0.4,0.3-0.7,0.4c-0.3,0.1-0.5,0.2-0.8,0.3c-0.3,0.1-0.5,0.1-0.8,0.1
			C300,423.5,299.8,423.5,299.6,423.5z"/>
		<path fill="#464545" d="M303.2,419.9c0-0.1,0-0.2,0.1-0.3c0.1-0.1,0.2-0.1,0.3-0.1h0h0.2c0.4,0,0.6-0.1,0.8-0.2
			c0.2-0.2,0.2-0.5,0.2-1v-0.1c0-0.1,0-0.4,0-0.8c0-0.4,0-0.9-0.1-1.4c0-0.4,0-0.7,0-1s0-0.6,0-0.8s0-0.4,0-0.6c0-0.1,0-0.2,0-0.3
			l0.9-0.1c0,0.1,0,0.2,0,0.3c0,0.2,0,0.3,0.1,0.6c0,0.2,0,0.5,0.1,0.8s0,0.6,0.1,1c0,0.6,0,1.1,0,1.4s0,0.7,0,0.8c0,0,0,0,0,0.1
			s0,0,0,0.1c0,0.1,0,0.3,0,0.4c0,0.1,0,0.3-0.1,0.4c0,0.1-0.1,0.3-0.2,0.4c-0.1,0.1-0.2,0.3-0.3,0.4c-0.3,0.3-0.8,0.5-1.4,0.5h-0.2
			h0c-0.1,0-0.2,0-0.3-0.1S303.2,420,303.2,419.9z"/>
		<path fill="#464545" d="M308.2,412.8c0.1,1.3,0.2,2.5,0.2,3.5c0,1.7,0,3.1-0.1,4.1l-0.9-0.1c0.1-1.4,0.1-2.6,0.1-3.6
			c-0.1-1.5-0.1-2.8-0.3-3.8L308.2,412.8z"/>
		<path fill="#464545" d="M315.9,417c-0.2,0-0.4,0-0.6,0c-0.2,0-0.4-0.1-0.5-0.1c-0.1,0-0.2-0.1-0.3-0.2c-0.1-0.1-0.2-0.1-0.3-0.2
			l0,0.3c0,0.3,0.1,0.6,0.1,0.9c0,0.3,0,0.6,0.1,0.9c0,0.3,0,0.6,0,0.9s0,0.6,0,0.9h-1c0-0.6,0-1.2,0-1.9c0-0.6-0.1-1.2-0.1-1.8
			c-0.1-0.6-0.2-1.1-0.3-1.6c-0.1-0.5-0.3-0.9-0.6-1.3l0.8-0.5c0.1,0.2,0.2,0.4,0.3,0.6s0.2,0.4,0.3,0.6c0-0.1,0.1-0.2,0.1-0.3
			c0.1-0.1,0.1-0.2,0.2-0.3l0,0c0.2-0.2,0.4-0.4,0.7-0.5c0.3-0.1,0.5-0.2,0.8-0.2c0.2,0,0.4,0,0.7,0.1c0.2,0.1,0.5,0.2,0.7,0.3
			c0.1,0.1,0.3,0.2,0.3,0.3s0.1,0.1,0.2,0.2l0.1,0.1l-0.7,0.7c-0.1-0.1-0.1-0.1-0.2-0.2s-0.1-0.1-0.2-0.2c-0.1-0.1-0.2-0.1-0.3-0.1
			s-0.2-0.1-0.3-0.1s-0.2,0-0.3,0h0c-0.2,0-0.3,0-0.4,0.1s-0.3,0.2-0.4,0.3c-0.1,0.1-0.1,0.2-0.2,0.3s-0.1,0.2,0,0.4
			c0,0.1,0.1,0.3,0.2,0.4c0.1,0.1,0.2,0.2,0.3,0.2c0.1,0,0.2,0.1,0.3,0.1c0.1,0,0.2,0,0.4,0c0.1,0,0.1,0,0.2,0c0.1,0,0.1,0,0.2,0
			c0.2,0,0.4-0.1,0.6-0.1s0.3-0.1,0.4-0.2l0.4,0.8c-0.2,0.1-0.3,0.2-0.5,0.3c-0.2,0.1-0.4,0.2-0.7,0.2c-0.1,0-0.2,0-0.3,0
			C316.1,417,316,417,315.9,417z"/>
		<path fill="#464545" d="M321.1,421c-0.5,1-1.2,1.9-2.1,2.6l-0.1-0.2l-0.1-0.2c-0.1-0.2-0.2-0.3-0.2-0.4c1.6-1.5,2.4-3.2,2.4-5.2
			c0-1.2-0.2-2.2-0.7-3.1c-0.4-0.8-1-1.5-1.7-2.2c0-0.1,0.1-0.1,0.1-0.2l0.1-0.2c0.1-0.2,0.2-0.3,0.2-0.4c0.9,0.6,1.7,1.5,2.2,2.6
			c0.5,1.1,0.8,2.2,0.8,3.4C321.9,418.7,321.6,419.9,321.1,421z"/>
	</g>
</g>
</svg>
