<?xml version="1.0" encoding="utf-8"?>
<!-- Generator: Adobe Illustrator 18.0.0, SVG Export Plug-In . SVG Version: 6.00 Build 0)  -->
<!DOCTYPE svg PUBLIC "-//W3C//DTD SVG 1.1//EN" "http://www.w3.org/Graphics/SVG/1.1/DTD/svg11.dtd">
<svg version="1.1" id="Layer_1" xmlns="http://www.w3.org/2000/svg" xmlns:xlink="http://www.w3.org/1999/xlink" x="0px" y="0px"
	 width="422px" height="483px" viewBox="0 0 422 483" enable-background="new 0 0 422 483" xml:space="preserve">
<g>
	<rect x="94.1" y="70.6" opacity="0.8" fill="#DCDCDC" width="233.8" height="277.3"/>
	<g>
		<g>
			<rect x="70.9" y="47" fill="none" stroke="#616261" stroke-width="3" stroke-miterlimit="10" width="280.2" height="389"/>
			<rect x="94" y="70.1" fill="none" stroke="#616261" stroke-width="3" stroke-miterlimit="10" width="234" height="342.8"/>
		</g>
	</g>
	<g>
		<g>
			<line fill="none" stroke="#464545" stroke-width="1.5" x1="126.5" y1="405.2" x2="126.5" y2="403.2"/>
			
				<line fill="none" stroke="#464545" stroke-width="1.5" stroke-dasharray="3.9927,3.9927" x1="126.5" y1="399.2" x2="126.5" y2="81.8"/>
			<line fill="none" stroke="#464545" stroke-width="1.5" x1="126.5" y1="79.8" x2="126.5" y2="77.8"/>
			<g>
				<polygon fill="#464545" points="131,403.9 126.5,411.7 122.1,403.9 				"/>
			</g>
			<g>
				<polygon fill="#464545" points="131,79.1 126.5,71.3 122.1,79.1 				"/>
			</g>
		</g>
	</g>
	<g>
		<g>
			<line fill="none" stroke="#464545" stroke-width="1.5" x1="211" y1="405.2" x2="211" y2="403.2"/>
			
				<line fill="none" stroke="#464545" stroke-width="1.5" stroke-dasharray="3.9927,3.9927" x1="211" y1="399.2" x2="211" y2="81.8"/>
			<line fill="none" stroke="#464545" stroke-width="1.5" x1="211" y1="79.8" x2="211" y2="77.8"/>
			<g>
				<polygon fill="#464545" points="215.5,403.9 211,411.7 206.5,403.9 				"/>
			</g>
			<g>
				<polygon fill="#464545" points="215.5,79.1 211,71.3 206.5,79.1 				"/>
			</g>
		</g>
	</g>
	<g>
		<g>
			<line fill="none" stroke="#464545" stroke-width="1.5" x1="294.9" y1="405.2" x2="294.9" y2="403.2"/>
			
				<line fill="none" stroke="#464545" stroke-width="1.5" stroke-dasharray="3.9927,3.9927" x1="294.9" y1="399.2" x2="294.9" y2="81.8"/>
			<line fill="none" stroke="#464545" stroke-width="1.5" x1="294.9" y1="79.8" x2="294.9" y2="77.8"/>
			<g>
				<polygon fill="#464545" points="299.4,403.9 294.9,411.7 290.4,403.9 				"/>
			</g>
			<g>
				<polygon fill="#464545" points="299.4,79.1 294.9,71.3 290.4,79.1 				"/>
			</g>
		</g>
	</g>
	<g>
		<g>
			<line fill="none" stroke="#464545" stroke-width="1.5" x1="100.4" y1="253.2" x2="321.6" y2="253.2"/>
			<g>
				<polygon fill="#464545" points="101.8,257.7 94,253.2 101.8,248.7 				"/>
			</g>
			<g>
				<polygon fill="#464545" points="320.2,257.7 328,253.2 320.2,248.7 				"/>
			</g>
		</g>
	</g>
	<g>
		<g>
			<line fill="none" stroke="#464545" stroke-width="1.5" x1="100.4" y1="102.6" x2="321.6" y2="102.6"/>
			<g>
				<polygon fill="#464545" points="101.8,107.1 94,102.6 101.8,98.2 				"/>
			</g>
			<g>
				<polygon fill="#464545" points="320.2,107.1 328,102.6 320.2,98.2 				"/>
			</g>
		</g>
	</g>
	<g>
		<g>
			<line fill="none" stroke="#464545" stroke-width="1.5" x1="100.4" y1="381.6" x2="321.6" y2="381.6"/>
			<g>
				<polygon fill="#464545" points="101.8,386.1 94,381.6 101.8,377.2 				"/>
			</g>
			<g>
				<polygon fill="#464545" points="320.2,386.1 328,381.6 320.2,377.2 				"/>
			</g>
		</g>
	</g>
</g>
</svg>
