<?xml version="1.0" encoding="utf-8"?>
<!-- Generator: Adobe Illustrator 18.0.0, SVG Export Plug-In . SVG Version: 6.00 Build 0)  -->
<!DOCTYPE svg PUBLIC "-//W3C//DTD SVG 1.1//EN" "http://www.w3.org/Graphics/SVG/1.1/DTD/svg11.dtd">
<svg version="1.1" id="Layer_1" xmlns="http://www.w3.org/2000/svg" xmlns:xlink="http://www.w3.org/1999/xlink" x="0px" y="0px"
	 width="422px" height="483px" viewBox="0 0 422 483" enable-background="new 0 0 422 483" xml:space="preserve">
	 <defs>
		<style>
			@font-face {
			font-family: "proximanova-nova";

			src: url('https://doopsalta2.com/Fonts/proxima-nova-three.woff2') format('woff2'),
				url('https://doopsalta2.com/Fonts/proxima-nova-three.woff') format('woff'),
				url('https://doopsalta2.com/Fonts/proxima-nova-three.otf') format('opentype');
			font-style: normal;
			}
		</style>
	</defs>
<rect x="45.1" y="9.6" fill="#DCDCDC" width="349" height="377.5"/>
<g>
	<g>
		<rect x="79.5" y="82.3" fill="none" stroke="#616261" stroke-width="3" stroke-miterlimit="10" width="280.2" height="389"/>
		<rect x="102.6" y="105.3" fill="none" stroke="#616261" stroke-width="3" stroke-miterlimit="10" width="234" height="342.8"/>
	</g>
</g>
<g>
	<g>
		<line fill="none" stroke="#464545" stroke-width="1.5" x1="51" y1="399.8" x2="387.7" y2="399.8"/>
		<g>
			<polygon fill="#464545" points="52.4,404.3 44.6,399.8 52.4,395.3 			"/>
		</g>
		<g>
			<polygon fill="#464545" points="386.3,404.3 394.1,399.8 386.3,395.3 			"/>
		</g>
	</g>
</g>
<g>
	<g>
		<line fill="none" stroke="#464545" stroke-width="1.6323" x1="30.2" y1="463.2" x2="30.2" y2="16.6"/>
		<g>
			<polygon fill="#464545" points="35.1,461.8 30.2,470.2 25.3,461.8 			"/>
		</g>
		<g>
			<polygon fill="#464545" points="35.1,18 30.2,9.6 25.3,18 			"/>
		</g>
	</g>
</g>
<g>
	<g>
		<path fill="#464545" d="M27.1,254.2c0,0.4,0,0.8-0.1,1.2s-0.2,0.8-0.3,1.2s-0.3,0.8-0.6,1.1s-0.5,0.7-0.9,1
			c-0.5,0.4-1,0.7-1.6,0.9s-1.2,0.3-1.9,0.2c-0.5,0-1-0.1-1.5-0.3c-0.5-0.2-0.9-0.5-1.4-0.8c-0.7-0.6-1.3-1.3-1.8-2.3
			c-0.1-0.1-0.1-0.2-0.2-0.3c0-0.1-0.1-0.2-0.2-0.3l0,0c-0.5,0.7-1.2,1.1-2.1,1.2c-0.5,0.1-0.9,0-1.3-0.1s-0.8-0.3-1.2-0.7
			c-0.4-0.3-0.7-0.7-0.9-1.2c-0.2-0.4-0.3-0.9-0.4-1.4c0-0.8,0.2-1.6,0.8-2.5c0.2-0.3,0.4-0.5,0.5-0.7c0.2-0.2,0.2-0.3,0.3-0.3
			l1.1,1.1c-0.2,0.2-0.4,0.4-0.6,0.7c-0.1,0.2-0.3,0.4-0.4,0.7s-0.2,0.5-0.1,0.8c0,0.3,0.1,0.5,0.2,0.8c0.1,0.3,0.3,0.5,0.5,0.6
			c0.1,0.1,0.3,0.2,0.5,0.3s0.5,0.1,0.8,0.1c0.4,0,0.7-0.2,1-0.5c0.2-0.3,0.3-0.6,0.4-1.1c0.1-0.4,0.1-1,0-1.5
			c0-0.2-0.1-0.5-0.1-0.7c0-0.2-0.1-0.4-0.1-0.6c0-0.2-0.1-0.4-0.1-0.5l1.5-0.3c0,0,0,0.1,0,0.2c0,0.1,0,0.2,0.1,0.4
			c0,0.2,0.1,0.4,0.1,0.6c0,0.2,0.1,0.5,0.1,0.8c0.1,0.5,0.1,0.8,0.2,1.2c0.1,0.3,0.2,0.6,0.2,0.9c0.1,0.3,0.2,0.5,0.3,0.7
			c0.1,0.2,0.2,0.5,0.3,0.7c0.1,0.1,0.1,0.3,0.2,0.4c0.1,0.2,0.2,0.3,0.4,0.5c0.1,0.2,0.3,0.4,0.5,0.6c0.2,0.2,0.4,0.3,0.6,0.5
			s0.5,0.3,0.8,0.4s0.6,0.2,0.9,0.2c0.6,0,1.2-0.1,1.6-0.3c0.5-0.2,0.9-0.6,1.2-1s0.5-0.9,0.7-1.5c0.1-0.6,0.2-1.1,0.1-1.7
			c0-0.6-0.2-1.2-0.4-1.8c-0.2-0.6-0.5-1.1-0.9-1.6l1.3-0.9c0.4,0.4,0.6,0.8,0.9,1.3c0.2,0.4,0.4,0.8,0.5,1.2s0.2,0.8,0.2,1.2
			S27.1,253.9,27.1,254.2z"/>
		<path fill="#464545" d="M21.5,243.8c0,0.6-0.1,1.1-0.2,1.5c-0.1,0.4-0.3,0.8-0.6,1c-0.2,0.2-0.4,0.3-0.6,0.4
			c-0.2,0.1-0.4,0.2-0.6,0.2c-0.2,0-0.4,0.1-0.6,0.1c-0.2,0-0.3,0-0.4,0h-0.2c0,0-0.1,0-0.3,0c-0.2,0-0.4,0-0.8,0
			c-0.3,0-0.7,0-1.1,0c-0.4,0-0.8,0-1.3,0c-0.4,0-0.9,0-1.4,0c-0.5,0-1,0-1.4,0c-0.5,0-0.9,0-1.3,0.1c-0.4,0-0.7,0.1-0.9,0.1
			l-0.3-1.5c0.3,0,0.6-0.1,1-0.1c0.4,0,0.8-0.1,1.3-0.1c0.5,0,0.9,0,1.4-0.1c0.5,0,1,0,1.4,0c0.5,0,0.9,0,1.3,0c0.4,0,0.8,0,1.1,0
			c0.3,0,0.6,0,0.8,0c0.2,0,0.3,0,0.4,0h0.1c0.2,0,0.4,0,0.6,0c0.2,0,0.3-0.1,0.4-0.2c0.2-0.2,0.4-0.7,0.4-1.3v-0.1
			c0-0.1,0-0.2,0.1-0.3c0-0.1,0.1-0.2,0.2-0.2c0.1-0.1,0.2-0.1,0.2-0.2c0.1,0,0.2-0.1,0.3-0.1c0.2,0,0.4,0.1,0.5,0.2
			S21.5,243.6,21.5,243.8z"/>
		<path fill="#464545" d="M11,238.3l1.3,1.3l-1.3,1.3l-1.3-1.3L11,238.3z M20.8,244.6c-0.1,0-0.2,0-0.3-0.1c-0.1,0-0.2-0.1-0.2-0.2
			s-0.1-0.2-0.2-0.2S20,244,20,243.9c0-0.2,0-0.4,0-0.6c0-0.2,0-0.4,0-0.6c0-0.2,0-0.4,0-0.6c0-0.2,0-0.3,0-0.5c-0.6,0.7-1.3,1-2,1
			c-0.5,0-0.9-0.1-1.4-0.2c-0.4-0.1-0.8-0.4-1.2-0.6c-0.4-0.3-0.6-0.6-0.8-1c-0.2-0.4-0.3-0.7-0.3-1.1c0-0.5,0.1-0.9,0.3-1.2
			c0.2-0.3,0.5-0.6,0.8-0.9c0.3-0.2,0.7-0.4,1.1-0.5c0.4-0.1,0.8-0.2,1.2-0.1c0.4,0,0.8,0.1,1.2,0.3s0.7,0.4,1.1,0.6
			c0-0.2,0.1-0.3,0.1-0.5s0-0.4,0.1-0.6s0-0.4,0-0.6s0-0.4,0-0.6c0-0.2,0.1-0.4,0.2-0.6s0.3-0.2,0.5-0.2c0.1,0,0.2,0,0.3,0.1
			s0.2,0.1,0.2,0.2s0.1,0.2,0.2,0.2s0.1,0.2,0.1,0.3v0.1c0,0.2,0,0.3,0,0.5c0,0.2,0,0.4,0,0.6c0,0.2,0,0.4,0,0.6s0,0.3-0.1,0.5
			c-0.1,0.3-0.1,0.6-0.2,0.9c-0.1,0.3-0.1,0.6-0.2,0.8c0.1,0.2,0.2,0.5,0.2,0.9c0.1,0.3,0.1,0.7,0.2,1c0,0.4,0.1,0.8,0.1,1.2
			c0,0.4,0,0.8,0,1.2v0.1c0,0.2-0.1,0.4-0.2,0.5C21.2,244.6,21,244.6,20.8,244.6z M15.7,239.7c0,0.1,0.1,0.3,0.2,0.5
			c0.1,0.2,0.2,0.3,0.4,0.5c0.2,0.1,0.4,0.3,0.7,0.3c0.3,0.1,0.6,0.1,0.9,0.1c0.2,0,0.5-0.1,0.7-0.3c0.2-0.2,0.5-0.6,0.7-1l0.1-0.1
			c-0.1-0.3-0.3-0.5-0.6-0.7c-0.2-0.2-0.5-0.3-0.7-0.3c-0.3-0.1-0.5-0.1-0.8,0c-0.3,0-0.5,0.1-0.7,0.2c-0.2,0.1-0.4,0.2-0.5,0.4
			C15.8,239.4,15.7,239.5,15.7,239.7z"/>
		<path fill="#464545" d="M11.8,232.5l1.3,1.3l-1.3,1.3l-1.3-1.3L11.8,232.5z M11.8,229.3l1.3,1.3l-1.3,1.3l-1.3-1.3L11.8,229.3z
			 M20.8,236.5c-0.2,0-0.4-0.1-0.5-0.2S20,236,20,235.8v-0.9c0-0.2,0-0.4,0-0.6s0-0.4,0-0.6s-0.1-0.4-0.1-0.6c0-0.2-0.1-0.4-0.2-0.6
			s-0.2-0.3-0.3-0.5c-0.1-0.1-0.2-0.2-0.4-0.3c-0.2-0.1-0.5-0.1-1-0.1c-0.4,0-0.9,0.2-1.5,0.3c-0.2,0.1-0.3,0.1-0.5,0.2
			c-0.2,0.1-0.4,0.1-0.5,0.2c-0.2,0.1-0.4,0.2-0.6,0.3l-0.7-1.4c0,0,0.1,0,0.2-0.1s0.2-0.1,0.4-0.2s0.4-0.2,0.6-0.2
			c0.2-0.1,0.5-0.2,0.7-0.2c1.5-0.5,2.7-0.5,3.5-0.2c0.8,0.4,1.4,1,1.7,2c0,0.1,0.1,0.3,0.1,0.5s0,0.4,0.1,0.7c0,0.2,0,0.4,0,0.7
			c0,0.2,0,0.4,0,0.5v1.1v0.1c0,0.2-0.1,0.4-0.2,0.5S21,236.5,20.8,236.5z"/>
		<path fill="#464545" d="M16.5,225.3c0.5-0.1,1-0.3,1.4-0.4c0.2-0.1,0.4-0.1,0.6-0.2c0.2-0.1,0.4-0.1,0.7-0.2
			c0.2,0,0.4-0.1,0.6-0.1c0.2,0,0.4-0.1,0.6-0.1c0.1,0,0.1,0,0.2,0c0.1,0,0.2,0,0.2,0c0.5,0,0.9,0.1,1.3,0.2s0.8,0.3,1.2,0.6
			c0.4,0.2,0.8,0.5,1.1,0.8s0.7,0.7,1,1.1c0.3,0.4,0.6,0.8,0.9,1.2c0.3,0.4,0.5,0.9,0.7,1.3l-1.4,0.7c-0.3-0.5-0.6-1.1-0.9-1.6
			s-0.7-1-1.2-1.4c-0.4-0.4-0.9-0.7-1.3-1s-1-0.4-1.5-0.4c0,0-0.1,0-0.1,0c-0.1,0-0.1,0-0.2,0h0c-0.2,0-0.3,0-0.5,0.1
			c-0.2,0-0.4,0.1-0.6,0.1c-0.2,0-0.4,0.1-0.6,0.1s-0.4,0.1-0.6,0.2c-0.4,0.1-0.9,0.3-1.3,0.4L16.5,225.3z"/>
		<path fill="#464545" d="M9.2,220.5c2.1-0.2,4-0.4,5.7-0.4c2.8-0.1,5,0,6.7,0.1l-0.1,1.5c-2.3-0.2-4.3-0.2-5.8-0.2
			c-2.5,0.1-4.6,0.2-6.3,0.4L9.2,220.5z"/>
	</g>
</g>
<g>
	<g>
		<path fill="#464545" d="M112,413.9c0.5-1.1,1.3-1.9,2.2-2.6c0,0.1,0.1,0.1,0.1,0.2l0.1,0.2l0.1,0.2c0,0.1,0.1,0.1,0.1,0.2
			c-0.8,0.7-1.4,1.4-1.7,2.2c-0.4,0.9-0.6,1.9-0.7,3.1c0,2,0.8,3.7,2.4,5.2l-0.5,0.7c-0.9-0.7-1.6-1.6-2.1-2.6
			c-0.5-1.1-0.8-2.2-0.8-3.4C111.3,416.1,111.5,415,112,413.9z"/>
		<path fill="#464545" d="M116.1,419.7c0.1-0.1,0.3-0.2,0.5-0.2c0.2,0,0.4,0.1,0.5,0.2c0.1,0.1,0.2,0.3,0.2,0.4
			c0,0.2-0.1,0.3-0.2,0.4c-0.1,0.1-0.3,0.2-0.5,0.2s-0.4-0.1-0.5-0.2c-0.1-0.1-0.2-0.2-0.2-0.4C115.9,420,116,419.8,116.1,419.7z"/>
		<path fill="#464545" d="M120.7,420.2c-0.4,0-0.7-0.1-1-0.2c-0.3-0.2-0.6-0.4-0.9-0.7l0.5-0.8c0.2,0.2,0.4,0.3,0.6,0.4
			s0.4,0.2,0.6,0.2c0.2,0,0.4,0.1,0.6,0c0.2,0,0.4-0.1,0.5-0.1c0.2-0.1,0.3-0.1,0.4-0.2c0.1-0.1,0.2-0.1,0.2-0.2l-1.5-3.6l0.9-0.4
			c0.1,0.2,0.2,0.5,0.4,0.9c0.1,0.3,0.3,0.7,0.5,1.1s0.4,0.9,0.6,1.5c0.1,0.2,0.1,0.3,0.2,0.4c0,0.1,0.1,0.2,0.2,0.3
			c0.1,0.1,0.2,0.2,0.3,0.2c0.1,0,0.3,0.1,0.5,0.1c0.1,0,0.2,0,0.3,0.1c0.1,0.1,0.1,0.2,0.1,0.3s0,0.2-0.1,0.3
			c-0.1,0.1-0.2,0.1-0.3,0.1c-0.2,0-0.4,0-0.6,0c-0.2,0-0.3-0.1-0.4-0.1c-0.1-0.1-0.2-0.1-0.3-0.2c-0.1-0.1-0.2-0.2-0.2-0.2
			c-0.1,0.1-0.2,0.1-0.3,0.2c-0.1,0.1-0.3,0.1-0.4,0.2c-0.2,0.1-0.4,0.1-0.6,0.2C121.2,420.1,121,420.2,120.7,420.2z"/>
		<path fill="#464545" d="M123.7,419.7c0-0.1,0-0.2,0.1-0.3c0.1-0.1,0.2-0.1,0.3-0.1h0.4c0.3,0,0.5,0,0.8,0c0.2,0,0.5-0.1,0.6-0.2
			s0.3-0.2,0.4-0.4s0.2-0.3,0.1-0.6c0-0.2,0-0.4,0-0.6c0-0.2-0.1-0.4-0.1-0.7l0.9-0.3c0,0.1,0.1,0.2,0.1,0.4c0,0.1,0,0.2,0.1,0.4
			c0,0.1,0,0.3,0.1,0.4c0,0.1,0,0.3,0,0.4c0,0.1,0,0.2,0,0.4c0,0.1,0.1,0.3,0.1,0.4c0.1,0.1,0.1,0.2,0.2,0.3
			c0.1,0.1,0.2,0.1,0.4,0.1c0.1,0,0.2,0,0.3,0.1c0.1,0.1,0.1,0.2,0.1,0.3c0,0.1,0,0.1,0,0.2s-0.1,0.1-0.1,0.1c0,0-0.1,0.1-0.1,0.1
			c-0.1,0-0.1,0-0.2,0c-0.3,0-0.6-0.1-0.8-0.2c-0.2-0.1-0.4-0.3-0.5-0.4c-0.1,0.1-0.3,0.2-0.4,0.3s-0.4,0.1-0.6,0.2
			c-0.2,0-0.4,0.1-0.7,0.1c-0.2,0-0.5,0-0.7,0h-0.4c-0.1,0-0.2,0-0.3-0.1C123.8,419.9,123.7,419.8,123.7,419.7z M125.7,422l-0.8,0.8
			l-0.8-0.8l0.8-0.8L125.7,422z M127.7,422l-0.8,0.8l-0.8-0.8l0.8-0.8L127.7,422z"/>
		<path fill="#464545" d="M127.9,419.7c0-0.1,0-0.2,0.1-0.3c0.1-0.1,0.2-0.1,0.3-0.1h0.1c0.5,0,0.9-0.1,1.2-0.3
			c0.2-0.2,0.4-0.5,0.4-0.9c0-0.1,0-0.2,0-0.3c0-0.1,0-0.2,0-0.3c0-0.1,0-0.2-0.1-0.3c0-0.1-0.1-0.2-0.1-0.3l0.9-0.3
			c0,0.1,0.1,0.2,0.1,0.3c0,0.1,0,0.2,0.1,0.3s0,0.2,0,0.4s0,0.3,0,0.5c0,0.1,0,0.2,0,0.4s0.1,0.3,0.1,0.4c0.1,0.1,0.1,0.2,0.2,0.3
			c0.1,0.1,0.2,0.1,0.4,0.1c0.1,0,0.1,0,0.2,0c0.1,0,0.1,0.1,0.2,0.1s0.1,0.1,0.1,0.2s0,0.1,0,0.2c0,0.1,0,0.1,0,0.2
			s-0.1,0.1-0.1,0.1c0,0-0.1,0.1-0.1,0.1c-0.1,0-0.1,0-0.2,0c-0.2,0-0.3,0-0.4,0c-0.1,0-0.3-0.1-0.4-0.1c-0.1-0.1-0.2-0.1-0.3-0.2
			c-0.1-0.1-0.2-0.2-0.2-0.2c-0.2,0.2-0.5,0.3-0.8,0.4s-0.7,0.1-1.2,0.1h-0.1c-0.1,0-0.2,0-0.3-0.1
			C127.9,419.9,127.9,419.8,127.9,419.7z M130.9,414.7l-0.8,0.8l-0.8-0.8l0.8-0.8L130.9,414.7z"/>
		<path fill="#464545" d="M131.2,419.7c0-0.1,0-0.2,0.1-0.3s0.2-0.1,0.4-0.1h0.5c0.2,0,0.4,0,0.6,0s0.4,0,0.6-0.1s0.4-0.1,0.5-0.2
			c0.2-0.1,0.3-0.2,0.4-0.3c0.1-0.2,0.2-0.3,0.2-0.5c0-0.2,0-0.4-0.1-0.6c0-0.1-0.1-0.3-0.3-0.5s-0.3-0.4-0.5-0.7s-0.4-0.5-0.7-0.7
			s-0.5-0.5-0.8-0.7l0.1-1l3.9-1.7l0.4,0.9l-3.4,1.4c0.2,0.1,0.3,0.3,0.5,0.4c0.2,0.2,0.4,0.3,0.6,0.5c0.2,0.3,0.4,0.5,0.6,0.8
			c0.2,0.2,0.3,0.5,0.4,0.7s0.1,0.4,0.2,0.6c0,0.2,0,0.4,0,0.6s0,0.3-0.1,0.5c0,0.1-0.1,0.3-0.2,0.4c-0.3,0.5-0.8,0.8-1.4,0.9
			c-0.1,0-0.3,0-0.4,0h-1.5c-0.2,0-0.3,0-0.4-0.1S131.2,419.8,131.2,419.7z"/>
		<path fill="#464545" d="M142.3,419.5c-0.8,0-1.4-0.2-1.7-0.6c-0.1-0.1-0.2-0.2-0.2-0.3c0-0.1-0.1-0.2-0.1-0.4c0-0.1,0-0.2,0-0.3
			c0-0.1,0-0.2,0.1-0.3c0.1-0.2,0.2-0.3,0.3-0.5c0.1-0.1,0.2-0.3,0.4-0.4c0.1-0.1,0.3-0.2,0.4-0.3c0.1-0.1,0.3-0.2,0.4-0.2
			c0.1-0.1,0.3-0.1,0.4-0.2c0.1-0.1,0.2-0.1,0.3-0.1c0-0.2,0-0.4-0.1-0.5c0-0.1,0-0.2,0-0.2l0.9-0.2v0c0,0,0,0.1,0,0.2
			c0,0.1,0,0.2,0,0.3c0,0.1,0,0.3,0,0.4c0,0.1,0,0.3,0,0.4s0,0.2,0,0.3c0,0.1,0,0.1,0,0.2c0,0.4,0.1,0.7,0.1,1
			c0,0.3,0.1,0.5,0.1,0.6s0.1,0.3,0.1,0.3c0,0.1,0,0.1,0,0.1c0,0.1,0.1,0.2,0.1,0.2s0.1,0.1,0.2,0.1c0.1,0,0.1,0.1,0.2,0.1
			s0.2,0,0.3,0c0.1,0,0.2,0,0.3,0.1c0.1,0.1,0.1,0.2,0.1,0.3c0,0.1,0,0.1,0,0.2s-0.1,0.1-0.1,0.2c0,0-0.1,0.1-0.2,0.1
			c-0.1,0-0.1,0-0.2,0c-0.1,0-0.3,0-0.4,0c-0.2,0-0.3-0.1-0.5-0.1c-0.3-0.1-0.5-0.3-0.6-0.6c-0.2,0-0.4,0.1-0.6,0.1
			C142.6,419.5,142.5,419.5,142.3,419.5z M142.8,416.8c-0.1,0-0.2,0.1-0.3,0.1s-0.2,0.1-0.3,0.2c-0.1,0.1-0.2,0.1-0.3,0.2
			c-0.1,0.1-0.2,0.1-0.3,0.2c-0.1,0.1-0.2,0.2-0.2,0.3c-0.1,0.1-0.1,0.2-0.1,0.3c0,0.1,0,0.2,0.1,0.3c0.1,0.1,0.1,0.1,0.3,0.2
			c0.1,0,0.2,0.1,0.4,0.1s0.3,0,0.4,0c0.1,0,0.3,0,0.4,0s0.2,0,0.3,0c0-0.2-0.1-0.4-0.1-0.7C142.9,417.6,142.8,417.2,142.8,416.8z"
			/>
		<path fill="#464545" d="M144.4,419.7c0-0.1,0-0.2,0.1-0.3c0.1-0.1,0.2-0.1,0.3-0.1c0.4,0,0.7,0,1,0c0.3,0,0.6-0.1,0.8-0.1
			c0.2-0.1,0.4-0.1,0.6-0.2c0.2-0.1,0.3-0.1,0.4-0.2c0,0,0.1-0.1,0.1-0.1c0,0,0.1-0.1,0.1-0.1h-0.5c-0.2,0-0.3,0-0.5,0
			c-0.2,0-0.3-0.1-0.5-0.1c-0.1-0.1-0.3-0.1-0.4-0.2c-0.1-0.1-0.2-0.2-0.3-0.3c0-0.1-0.1-0.1-0.1-0.2c0-0.1-0.1-0.2-0.1-0.3
			c0-0.1,0-0.2-0.1-0.4c0-0.1,0-0.3,0-0.4c0-0.2,0.1-0.5,0.2-0.7c0.1-0.2,0.2-0.4,0.3-0.5c0.1-0.2,0.3-0.3,0.5-0.4s0.4-0.1,0.6-0.1
			c0.4,0,0.8,0.2,1.1,0.6c0.1,0.2,0.3,0.4,0.4,0.6c0.1,0.2,0.2,0.4,0.3,0.7c0.1,0.2,0.1,0.5,0.1,0.8c0,0.3,0,0.5,0,0.8h0
			c0,0.1,0,0.3-0.1,0.4c0,0,0,0.1,0,0.2c0,0.1-0.1,0.1-0.1,0.2c0,0.1-0.1,0.2-0.2,0.3c-0.1,0.1-0.2,0.2-0.3,0.3
			c-0.2,0.1-0.3,0.2-0.6,0.3s-0.5,0.2-0.8,0.2c-0.3,0.1-0.6,0.1-0.9,0.1c-0.3,0-0.6,0-1,0.1h-0.1c-0.1,0-0.2,0-0.3-0.1
			S144.4,419.8,144.4,419.7z M147.6,413.1l-0.8,0.8l-0.8-0.8l0.8-0.8L147.6,413.1z M147,415.7c0,0-0.1,0-0.2,0.1s-0.1,0.1-0.2,0.2
			c-0.1,0.1-0.1,0.2-0.2,0.3c-0.1,0.1-0.1,0.3-0.1,0.4c0,0.2,0,0.4,0.1,0.5c0.1,0.1,0.2,0.1,0.3,0.2c0.1,0,0.3,0.1,0.4,0.1
			c0.2,0,0.3,0,0.5,0s0.3,0,0.4,0c0-0.3-0.1-0.6-0.2-0.9c-0.1-0.3-0.2-0.5-0.4-0.7c-0.1-0.1-0.1-0.1-0.2-0.2S147,415.7,147,415.7z"
			/>
		<path fill="#464545" d="M152.4,420.2c-0.4,0-0.7,0-0.9-0.1c-0.2-0.1-0.5-0.2-0.6-0.4c-0.1-0.1-0.2-0.2-0.2-0.3s-0.1-0.2-0.1-0.4
			s0-0.2,0-0.3c0-0.1,0-0.2,0-0.3v-0.1c0,0,0-0.1,0-0.2s0-0.3,0-0.5c0-0.2,0-0.4,0-0.7s0-0.5,0-0.8c0-0.3,0-0.6,0-0.9
			c0-0.3,0-0.6,0-0.9s0-0.5-0.1-0.8s0-0.4-0.1-0.6l0.9-0.2c0,0.2,0.1,0.4,0.1,0.6c0,0.2,0,0.5,0.1,0.8c0,0.3,0,0.6,0,0.9
			c0,0.3,0,0.6,0,0.9c0,0.3,0,0.6,0,0.8c0,0.3,0,0.5,0,0.7c0,0.2,0,0.4,0,0.5c0,0.1,0,0.2,0,0.2v0.1c0,0.1,0,0.3,0,0.4
			c0,0.1,0.1,0.2,0.1,0.3c0.1,0.2,0.4,0.2,0.8,0.2h0c0.1,0,0.1,0,0.2,0c0.1,0,0.1,0.1,0.2,0.1s0.1,0.1,0.1,0.2s0,0.1,0,0.2
			c0,0.1,0,0.2-0.1,0.3C152.7,420.1,152.6,420.2,152.4,420.2z"/>
		<path fill="#464545" d="M152,419.7c0-0.1,0-0.2,0.1-0.3c0.1-0.1,0.2-0.1,0.3-0.1c0.2,0,0.4,0,0.5,0c0.1,0,0.2-0.1,0.3-0.1
			c0.1,0,0.2-0.1,0.2-0.1s0.1-0.1,0.1-0.2c0.1-0.2,0.2-0.3,0.2-0.5c0.1-0.2,0.1-0.4,0.2-0.7c0-0.1,0.1-0.3,0.1-0.4
			c0-0.1,0.1-0.3,0.1-0.4l0.9,0.3c0,0.1,0,0.1-0.1,0.2c0,0.1,0,0.1,0,0.2h0c0,0.1,0,0.2,0,0.3c0,0.1,0,0.3,0,0.4s0,0.3,0.1,0.4
			s0.1,0.3,0.2,0.4c0-0.1,0.1-0.2,0.2-0.4s0.2-0.3,0.3-0.5c0.1-0.2,0.2-0.4,0.4-0.5s0.3-0.4,0.5-0.5c0.1-0.1,0.3-0.3,0.4-0.4
			s0.3-0.2,0.5-0.3s0.3-0.2,0.5-0.2c0.2-0.1,0.3-0.1,0.5-0.1c0.4-0.1,0.8-0.1,1.1,0c0.3,0.1,0.6,0.3,0.9,0.6
			c0.2,0.2,0.3,0.4,0.4,0.6c0.1,0.2,0.1,0.5,0.1,0.7c0,0.6-0.3,1.1-0.8,1.5c-0.2,0.2-0.5,0.3-0.7,0.4s-0.5,0.2-0.8,0.3
			s-0.6,0.1-0.9,0.1c-0.3,0-0.6,0-0.8,0c-0.3,0-0.6,0-0.8,0c-0.2,0-0.4,0-0.5,0c-0.3,0-0.5-0.1-0.7-0.2c-0.1,0-0.1-0.1-0.2-0.1
			c-0.1,0-0.1-0.1-0.2-0.1c-0.1-0.1-0.1-0.1-0.2-0.2s-0.1-0.1-0.2-0.2c-0.2,0.3-0.5,0.5-0.8,0.6s-0.7,0.2-1.1,0.2h0
			c-0.1,0-0.2,0-0.3-0.1S152,419.8,152,419.7z M156.1,419.3c0.2,0,0.4,0,0.6,0c0.2,0,0.4,0,0.6,0c0.2,0,0.4,0,0.7,0
			c0.2,0,0.4-0.1,0.7-0.1c0.2,0,0.4-0.1,0.6-0.2c0.2-0.1,0.3-0.2,0.5-0.3c0.3-0.2,0.4-0.5,0.4-0.8c0-0.1,0-0.1,0-0.2s0-0.1-0.1-0.2
			s-0.1-0.1-0.1-0.1c0,0-0.1-0.1-0.1-0.1c-0.1-0.1-0.2-0.2-0.3-0.2c-0.1-0.1-0.2-0.1-0.3-0.1c-0.1,0-0.2,0-0.3,0c-0.1,0-0.2,0-0.3,0
			c-0.3,0.1-0.5,0.1-0.8,0.3s-0.5,0.3-0.7,0.5c-0.1,0.1-0.3,0.3-0.4,0.4s-0.2,0.3-0.3,0.4c-0.1,0.1-0.2,0.3-0.2,0.4
			C156.2,419.1,156.2,419.2,156.1,419.3z M159.4,414.2l-0.8,0.8l-0.8-0.8l0.8-0.8L159.4,414.2z"/>
		<path fill="#464545" d="M163.4,412.6c0.1,1.3,0.2,2.5,0.2,3.5c0,1.7,0,3.1-0.1,4.1l-0.9-0.1c0.1-1.4,0.1-2.6,0.1-3.6
			c-0.1-1.5-0.2-2.8-0.3-3.8L163.4,412.6z"/>
		<path fill="#464545" d="M171.3,423.3c-0.1,0-0.2,0-0.2,0c-0.1,0-0.2,0-0.2,0c-0.3,0-0.6-0.1-0.9-0.1c-0.3-0.1-0.5-0.2-0.7-0.3
			c-0.2-0.1-0.4-0.3-0.5-0.4c-0.1-0.2-0.3-0.3-0.4-0.5c-0.2-0.4-0.3-0.8-0.3-1.3c0-0.2,0-0.4,0-0.6c0-0.2,0.1-0.4,0.1-0.7
			c0-0.2,0.1-0.4,0.2-0.5c0.1-0.2,0.1-0.3,0.2-0.5s0.1-0.3,0.2-0.4c0-0.1,0.1-0.2,0.1-0.2l0.8,0.5c0,0-0.1,0.1-0.1,0.2
			c-0.1,0.1-0.1,0.3-0.2,0.5c-0.1,0.2-0.1,0.4-0.2,0.6s-0.1,0.4-0.1,0.7c0,0.2,0,0.5,0,0.7c0,0.2,0.1,0.4,0.2,0.6
			c0.3,0.5,0.8,0.8,1.7,0.9c0.9,0.1,1.6-0.1,2.1-0.5c0.1-0.1,0.3-0.2,0.3-0.4c0.1-0.1,0.2-0.3,0.2-0.4c0.1-0.1,0.1-0.3,0.1-0.4
			s0-0.3,0.1-0.4c0-0.3,0-0.6,0-0.8c0-0.3-0.1-0.6-0.2-0.8c-0.1-0.3-0.1-0.5-0.2-0.7s-0.1-0.3-0.2-0.4c0,0,0,0,0,0c0,0,0,0,0,0
			l0.9-0.4l0,0.1c0.1,0.2,0.2,0.5,0.3,0.7c0.1,0.2,0.2,0.4,0.4,0.6c0,0.1,0.1,0.1,0.2,0.2c0.1,0.1,0.1,0.1,0.2,0.2
			c0.1-0.1,0.1-0.2,0.2-0.3c0.1-0.1,0.2-0.3,0.3-0.4c0.1-0.1,0.2-0.3,0.3-0.4s0.2-0.3,0.4-0.4c0.3-0.3,0.6-0.5,0.9-0.7
			c0.3-0.2,0.7-0.3,1-0.4c0.4-0.1,0.8-0.1,1.1,0c0.3,0.1,0.6,0.3,0.9,0.5c0.2,0.2,0.3,0.4,0.4,0.6c0.1,0.2,0.1,0.5,0.1,0.7
			c0,0.4-0.1,0.7-0.3,1c-0.2,0.3-0.4,0.5-0.7,0.7c-0.2,0.1-0.4,0.2-0.5,0.3s-0.4,0.1-0.6,0.2c-0.2,0-0.4,0.1-0.5,0.1s-0.3,0-0.5,0
			c-0.4,0-0.7,0-1.1-0.1s-0.7-0.1-1-0.2c-0.2-0.1-0.3-0.1-0.5-0.2c-0.1-0.1-0.3-0.2-0.4-0.3c0,0.2,0,0.5,0,0.7
			c0,0.4-0.1,0.8-0.3,1.2c-0.1,0.2-0.2,0.4-0.3,0.6c-0.1,0.2-0.3,0.3-0.4,0.5C173,423,172.3,423.3,171.3,423.3z M175.9,419.2
			c0.1,0,0.3,0.1,0.5,0.1c0.2,0,0.4,0.1,0.6,0.1c0.2,0,0.4,0,0.6,0c0.2,0,0.4,0,0.6-0.1s0.4-0.1,0.6-0.1c0.2-0.1,0.3-0.1,0.5-0.2
			c0.4-0.2,0.6-0.6,0.6-1c0-0.1,0-0.1,0-0.2c0-0.1,0-0.1-0.1-0.2c0-0.1-0.1-0.1-0.1-0.1c0,0-0.1-0.1-0.1-0.1
			c-0.1-0.1-0.2-0.2-0.3-0.2s-0.2-0.1-0.3-0.1s-0.2,0-0.3,0s-0.2,0-0.3,0c-0.3,0-0.5,0.1-0.8,0.3c-0.2,0.1-0.5,0.3-0.7,0.5
			c-0.1,0.1-0.2,0.2-0.3,0.4c-0.1,0.1-0.2,0.2-0.3,0.4s-0.2,0.2-0.2,0.3C176,419,176,419.1,175.9,419.2z M179,414.2l-0.8,0.8
			l-0.8-0.8l0.8-0.8L179,414.2z"/>
		<path fill="#464545" d="M184.3,419.8c0,0.3,0,0.5-0.1,0.8c-0.1,0.3-0.2,0.5-0.3,0.8c-0.1,0.2-0.3,0.5-0.5,0.7
			c-0.2,0.2-0.4,0.4-0.7,0.6c-0.2,0.2-0.5,0.4-0.7,0.5c-0.3,0.2-0.5,0.3-0.8,0.4l-0.4-0.8c0.2-0.1,0.5-0.2,0.7-0.4
			c0.2-0.1,0.4-0.3,0.6-0.5c0.2-0.2,0.4-0.3,0.6-0.5c0.2-0.2,0.3-0.4,0.4-0.6c0.1-0.2,0.2-0.4,0.3-0.6c0.1-0.2,0.1-0.4,0.1-0.7v0
			c0-0.2-0.1-0.4-0.1-0.6c0-0.2-0.1-0.4-0.2-0.6c-0.1-0.2-0.1-0.4-0.2-0.6s-0.1-0.3-0.1-0.4l0.9-0.3c0.1,0.4,0.2,0.7,0.4,0.9
			c0.1,0.3,0.2,0.5,0.4,0.6c0.1,0.2,0.3,0.3,0.4,0.4c0.1,0.1,0.3,0.1,0.4,0.1h0c0.1,0,0.1,0,0.2,0c0.1,0,0.1,0.1,0.2,0.1
			s0.1,0.1,0.1,0.2c0,0.1,0,0.1,0,0.2c0,0.1,0,0.2-0.1,0.3c-0.1,0.1-0.2,0.1-0.3,0.1h0c0,0-0.1,0-0.2,0c-0.1,0-0.2,0-0.2,0
			s-0.2-0.1-0.3-0.1C184.5,420,184.4,419.9,184.3,419.8L184.3,419.8z"/>
		<path fill="#464545" d="M189.4,417.3c-0.1-0.1-0.2-0.2-0.4-0.3c-0.1-0.1-0.3-0.2-0.4-0.2c-0.2-0.1-0.4-0.1-0.6-0.1
			c-0.2,0-0.3,0-0.5,0.1c-0.1,0.1-0.3,0.1-0.4,0.3c-0.1,0.1-0.2,0.2-0.2,0.4c0,0.1-0.1,0.3-0.1,0.4c0,0.2,0,0.4,0.1,0.5
			c0.1,0.2,0.2,0.3,0.4,0.4s0.3,0.2,0.5,0.3c0.2,0.1,0.4,0.1,0.6,0.1c0.2,0,0.4,0,0.5,0c0.2,0,0.3,0,0.5-0.1c0.2,0,0.3-0.1,0.4-0.1
			l0.1,0.9c-0.2,0-0.4,0.1-0.6,0.1c-0.2,0-0.5,0.1-0.8,0.1c-0.3,0-0.7,0.1-1,0.1s-0.8,0-1.3,0l-1,0c-0.1,0-0.2,0-0.3-0.1
			s-0.1-0.2-0.1-0.3s0-0.2,0.1-0.3c0.1-0.1,0.2-0.1,0.3-0.1l1.4,0c-0.2-0.2-0.4-0.4-0.5-0.7c-0.1-0.2-0.1-0.5-0.1-0.8
			c0-0.3,0.1-0.5,0.2-0.8c0.1-0.2,0.2-0.5,0.4-0.7c0.2-0.2,0.4-0.3,0.7-0.4s0.5-0.2,0.8-0.2c0.1,0,0.3,0,0.4,0
			c0.1,0,0.3,0.1,0.4,0.1c0.1,0,0.2,0.1,0.3,0.1s0.2,0.1,0.3,0.2c0.2,0.1,0.4,0.3,0.5,0.4L189.4,417.3z"/>
		<path fill="#464545" d="M196.4,419.5c-0.8,0-1.4-0.2-1.7-0.6c-0.1-0.1-0.2-0.2-0.2-0.3c0-0.1-0.1-0.2-0.1-0.4c0-0.1,0-0.2,0-0.3
			c0-0.1,0-0.2,0.1-0.3c0.1-0.2,0.2-0.3,0.3-0.5c0.1-0.1,0.2-0.3,0.4-0.4c0.1-0.1,0.3-0.2,0.4-0.3c0.1-0.1,0.3-0.2,0.4-0.2
			c0.1-0.1,0.3-0.1,0.4-0.2c0.1-0.1,0.2-0.1,0.3-0.1c0-0.2,0-0.4-0.1-0.5c0-0.1,0-0.2,0-0.2l0.9-0.2v0c0,0,0,0.1,0,0.2
			c0,0.1,0,0.2,0,0.3c0,0.1,0,0.3,0,0.4c0,0.1,0,0.3,0,0.4s0,0.2,0,0.3c0,0.1,0,0.1,0,0.2c0,0.4,0.1,0.7,0.1,1
			c0,0.3,0.1,0.5,0.1,0.6s0.1,0.3,0.1,0.3c0,0.1,0,0.1,0,0.1c0,0.1,0.1,0.2,0.1,0.2s0.1,0.1,0.2,0.1c0.1,0,0.1,0.1,0.2,0.1
			s0.2,0,0.3,0c0.1,0,0.2,0,0.3,0.1c0.1,0.1,0.1,0.2,0.1,0.3c0,0.1,0,0.1,0,0.2s-0.1,0.1-0.1,0.2c0,0-0.1,0.1-0.2,0.1
			c-0.1,0-0.1,0-0.2,0c-0.1,0-0.3,0-0.4,0c-0.2,0-0.3-0.1-0.5-0.1c-0.3-0.1-0.5-0.3-0.6-0.6c-0.2,0-0.4,0.1-0.6,0.1
			C196.7,419.5,196.5,419.5,196.4,419.5z M196.9,416.8c-0.1,0-0.2,0.1-0.3,0.1s-0.2,0.1-0.3,0.2c-0.1,0.1-0.2,0.1-0.3,0.2
			c-0.1,0.1-0.2,0.1-0.3,0.2c-0.1,0.1-0.2,0.2-0.2,0.3c-0.1,0.1-0.1,0.2-0.1,0.3c0,0.1,0,0.2,0.1,0.3c0.1,0.1,0.1,0.1,0.3,0.2
			c0.1,0,0.2,0.1,0.4,0.1s0.3,0,0.4,0c0.1,0,0.3,0,0.4,0s0.2,0,0.3,0c0-0.2-0.1-0.4-0.1-0.7C197,417.6,196.9,417.2,196.9,416.8z"/>
		<path fill="#464545" d="M198.5,419.7c0-0.1,0-0.2,0.1-0.3c0.1-0.1,0.2-0.1,0.3-0.1h0.5c0.2,0,0.3,0,0.5,0s0.3,0,0.4-0.1
			c0.1,0,0.2-0.1,0.3-0.2s0.2-0.2,0.2-0.3c0.1-0.1,0.1-0.3,0.1-0.6c0-0.3-0.1-0.5-0.2-0.9c0-0.1-0.1-0.2-0.1-0.3
			c0-0.1-0.1-0.2-0.1-0.3c-0.1-0.1-0.1-0.2-0.2-0.4l0.9-0.4c0,0,0,0,0,0.1c0,0.1,0.1,0.1,0.1,0.3c0,0.1,0.1,0.2,0.1,0.4
			s0.1,0.3,0.2,0.4c0.3,0.9,0.3,1.6,0.1,2.1c-0.2,0.5-0.6,0.9-1.2,1c-0.2,0.1-0.3,0.1-0.5,0.1c-0.2,0-0.3,0-0.5,0H199h0
			c-0.1,0-0.2,0-0.3-0.1S198.5,419.8,198.5,419.7z M201.2,422l-0.8,0.8l-0.8-0.8l0.8-0.8L201.2,422z"/>
		<path fill="#464545" d="M213.8,415.3c0.1,0.2,0.3,0.4,0.4,0.6c0.1,0.2,0.2,0.5,0.3,0.8c0.1,0.3,0.1,0.6,0.1,0.9
			c0,0.3,0,0.6-0.1,0.9c0,0,0,0.1-0.1,0.2s-0.1,0.2-0.1,0.2c-0.1,0.1-0.1,0.2-0.2,0.3c-0.1,0.1-0.2,0.2-0.4,0.3
			c-0.2,0.1-0.4,0.2-0.6,0.3c-0.3,0.1-0.5,0.2-0.8,0.2s-0.6,0.1-1,0.1c-0.3,0-0.7,0-1.1,0c-1.9,0-3.2-0.5-3.7-1.5
			c-0.1-0.2-0.2-0.4-0.3-0.7c0-0.2-0.1-0.4-0.1-0.6s0-0.4,0.1-0.6s0.1-0.4,0.1-0.5c0-0.1,0.1-0.3,0.1-0.3c0-0.1,0.1-0.1,0.1-0.2
			l0.8,0.5c0,0,0,0,0,0.1c0,0.1-0.1,0.1-0.1,0.2c0,0.1-0.1,0.2-0.1,0.3c0,0.1-0.1,0.3-0.1,0.4c0,0.1,0,0.3,0,0.4
			c0,0.1,0.1,0.3,0.2,0.4c0.1,0.2,0.2,0.3,0.4,0.4c0.2,0.1,0.4,0.2,0.6,0.3c0.2,0.1,0.5,0.2,0.8,0.2c0.3,0,0.6,0.1,1,0.1
			c0.5,0,0.9,0,1.2,0s0.6-0.1,0.9-0.1s0.4-0.1,0.6-0.2c0.2-0.1,0.3-0.1,0.4-0.2c0.1-0.1,0.2-0.1,0.3-0.2s0.1-0.1,0.2-0.1h-0.2
			c-0.1,0-0.2,0-0.2,0s-0.2,0-0.2,0c-0.6,0-1.1-0.2-1.4-0.6c0-0.1-0.1-0.1-0.1-0.2c0-0.1-0.1-0.2-0.1-0.3c0-0.1,0-0.2,0-0.4
			c0-0.1,0-0.3,0-0.4c0-0.2,0.1-0.4,0.2-0.6s0.2-0.4,0.3-0.6c0.1-0.2,0.3-0.3,0.5-0.4c0.2-0.1,0.4-0.2,0.6-0.2
			C213,414.7,213.4,414.9,213.8,415.3z M213.4,413.2l-0.8,0.8l-0.8-0.8l0.8-0.8L213.4,413.2z M212.8,417.5c0.3,0,0.6,0,0.8,0
			c0-0.2-0.1-0.3-0.1-0.5c0-0.2-0.1-0.4-0.2-0.6c-0.1-0.2-0.2-0.3-0.3-0.5c-0.1-0.1-0.3-0.2-0.4-0.3c-0.1,0-0.1,0-0.2,0.1
			s-0.1,0.1-0.2,0.2s-0.1,0.2-0.2,0.3c-0.1,0.1-0.1,0.2-0.1,0.3c0,0.1,0,0.2,0,0.3c0,0.1,0.1,0.2,0.1,0.3c0.1,0.1,0.2,0.1,0.3,0.2
			C212.5,417.5,212.6,417.5,212.8,417.5z"/>
		<path fill="#464545" d="M218.1,419.8c0,0.3,0,0.5-0.1,0.8c-0.1,0.3-0.2,0.5-0.3,0.8c-0.1,0.2-0.3,0.5-0.5,0.7
			c-0.2,0.2-0.4,0.4-0.7,0.6c-0.2,0.2-0.5,0.4-0.7,0.5c-0.3,0.2-0.5,0.3-0.8,0.4l-0.4-0.8c0.2-0.1,0.5-0.2,0.7-0.4
			c0.2-0.1,0.4-0.3,0.6-0.5c0.2-0.2,0.4-0.3,0.6-0.5c0.2-0.2,0.3-0.4,0.4-0.6c0.1-0.2,0.2-0.4,0.3-0.6c0.1-0.2,0.1-0.4,0.1-0.7v0
			c0-0.2-0.1-0.4-0.1-0.6c0-0.2-0.1-0.4-0.2-0.6c-0.1-0.2-0.1-0.4-0.2-0.6s-0.1-0.3-0.1-0.4l0.9-0.3c0.1,0.4,0.2,0.7,0.4,0.9
			c0.1,0.3,0.2,0.5,0.4,0.6c0.1,0.2,0.3,0.3,0.4,0.4c0.1,0.1,0.3,0.1,0.4,0.1h0c0.1,0,0.1,0,0.2,0c0.1,0,0.1,0.1,0.2,0.1
			s0.1,0.1,0.1,0.2c0,0.1,0,0.1,0,0.2c0,0.1,0,0.2-0.1,0.3c-0.1,0.1-0.2,0.1-0.3,0.1h0c0,0-0.1,0-0.2,0c-0.1,0-0.2,0-0.2,0
			s-0.2-0.1-0.3-0.1C218.3,420,218.2,419.9,218.1,419.8L218.1,419.8z"/>
		<path fill="#464545" d="M218.5,419.7c0-0.1,0-0.1,0-0.2c0-0.1,0.1-0.1,0.1-0.1s0.1-0.1,0.2-0.1s0.1,0,0.2,0h0h0.7
			c0-0.1,0.1-0.2,0.2-0.4c0.1-0.2,0.3-0.4,0.5-0.7c0-0.2,0.1-0.5,0.1-0.8s0-0.6,0-1.1c0-0.4,0-0.8,0-1.2c0-0.4,0-0.8-0.1-1.1
			c0-0.4-0.1-0.7-0.1-0.8c0-0.2,0-0.3,0-0.3l1-0.2c0.2,1.3,0.2,2.7,0.2,4.2c0.8-0.7,1.5-1.1,2.2-1.3c0.2,0,0.3,0,0.5,0
			c0.2,0,0.3,0,0.5,0.1c0.1,0,0.3,0.1,0.4,0.2c0.1,0.1,0.3,0.2,0.4,0.3c0.1,0.1,0.3,0.3,0.3,0.5c0.1,0.2,0.1,0.4,0.1,0.6
			c0,0.2,0,0.3,0,0.5c0,0.2-0.1,0.3-0.2,0.5c-0.1,0.2-0.1,0.3-0.2,0.4c-0.1,0.1-0.2,0.2-0.3,0.3l0,0c-0.3,0.3-0.6,0.5-0.9,0.6
			c-0.3,0.2-0.6,0.3-0.9,0.3c-0.3,0.1-0.6,0.1-0.8,0.2c-0.3,0-0.5,0-0.8,0l-2.8,0h0c-0.1,0-0.1,0-0.2,0c-0.1,0-0.1-0.1-0.2-0.1
			c0,0-0.1-0.1-0.1-0.1C218.5,419.8,218.5,419.8,218.5,419.7z M220.8,419.2c0.1,0,0.1,0,0.2,0c0.1,0,0.2,0,0.2,0c0.2,0,0.5,0,0.8,0
			c0.3,0,0.5,0,0.8-0.1c0.3-0.1,0.6-0.1,0.9-0.3s0.6-0.3,0.9-0.5c0.2-0.1,0.3-0.3,0.4-0.5c0.1-0.2,0.1-0.4,0.1-0.5
			c0-0.1-0.1-0.2-0.2-0.3c-0.1-0.1-0.2-0.2-0.3-0.2c-0.1-0.1-0.2-0.1-0.4-0.1s-0.2,0-0.4,0c-0.3,0.1-0.7,0.2-1.1,0.5
			s-0.8,0.6-1.2,1.1c-0.1,0.1-0.2,0.2-0.2,0.3c-0.1,0.1-0.1,0.2-0.2,0.2L220.8,419.2z"/>
		<path fill="#464545" d="M230,422.6c0.5-0.1,0.9-0.2,1.3-0.4c0.4-0.2,0.7-0.4,1-0.6c0.3-0.2,0.5-0.5,0.7-0.7s0.3-0.5,0.3-0.7
			c-0.1,0-0.3,0-0.5,0c-0.2,0-0.4,0-0.5,0c-0.7,0-1.2-0.3-1.5-0.7c-0.1-0.2-0.2-0.4-0.3-0.6s0-0.5,0-0.7c0-0.3,0.1-0.5,0.2-0.7
			c0.1-0.2,0.2-0.4,0.3-0.6c0.2-0.2,0.3-0.4,0.5-0.5s0.4-0.2,0.6-0.2c0.5,0,0.9,0.2,1.2,0.6c0.2,0.2,0.3,0.4,0.4,0.6
			c0.1,0.2,0.2,0.5,0.3,0.8c0.1,0.3,0.1,0.5,0.2,0.8c0,0.3,0,0.6,0,0.9c0,0.4-0.1,0.7-0.2,1c-0.1,0.3-0.3,0.6-0.5,0.8
			c-0.2,0.3-0.4,0.5-0.7,0.7c-0.2,0.2-0.5,0.4-0.8,0.6s-0.6,0.3-0.9,0.4c-0.3,0.1-0.6,0.2-1,0.2L230,422.6z M232.1,417.1
			c-0.1,0-0.2,0-0.3,0.1c-0.1,0.1-0.2,0.2-0.2,0.3c-0.1,0.1-0.1,0.2-0.2,0.4s-0.1,0.3-0.1,0.4c0,0.1,0,0.3,0,0.4s0.1,0.2,0.1,0.3
			c0,0.1,0.1,0.1,0.2,0.2s0.1,0.1,0.2,0.1c0.1,0,0.2,0,0.2,0.1c0.1,0,0.1,0,0.2,0c0.2,0,0.4,0,0.6,0c0.2,0,0.3,0,0.4,0
			c0-0.2,0-0.4-0.1-0.6c0-0.2-0.1-0.4-0.1-0.5c-0.1-0.2-0.1-0.3-0.2-0.4c-0.1-0.1-0.2-0.2-0.2-0.3c0,0-0.1-0.1-0.1-0.1
			c0,0-0.1-0.1-0.1-0.1s-0.1-0.1-0.1-0.1S232.2,417.1,232.1,417.1z"/>
		<path fill="#464545" d="M237.4,420.2c-0.2,0-0.3,0-0.5-0.1c-0.2,0-0.4-0.1-0.6-0.1c-0.2-0.1-0.4-0.1-0.6-0.2
			c-0.2-0.1-0.3-0.1-0.4-0.2l0.4-0.9c0.1,0.1,0.3,0.2,0.4,0.2c0.2,0.1,0.3,0.1,0.5,0.2c0.2,0.1,0.4,0.1,0.6,0.1c0.2,0,0.4,0,0.6,0
			c0.2,0,0.4-0.1,0.5-0.1c0.2-0.1,0.3-0.2,0.4-0.3c0.1-0.1,0.1-0.3,0-0.6c0-0.2-0.1-0.3-0.2-0.5s-0.2-0.3-0.3-0.5
			c-0.1-0.2-0.2-0.3-0.4-0.5c-0.1-0.2-0.3-0.3-0.4-0.5c-0.1-0.1-0.3-0.3-0.4-0.4c-0.2-0.1-0.3-0.2-0.4-0.3l0.4-0.9
			c0.2,0.1,0.4,0.2,0.6,0.3c0.2,0.1,0.4,0.3,0.6,0.5c0.2,0.2,0.4,0.4,0.5,0.6s0.3,0.4,0.4,0.6s0.2,0.4,0.3,0.6s0.2,0.4,0.2,0.6
			c0,0.2,0.1,0.3,0.1,0.5s0,0.3,0,0.4c0,0.1-0.1,0.2-0.1,0.3c0,0.1-0.1,0.2-0.1,0.2c-0.3,0.4-0.7,0.6-1.2,0.7
			c-0.1,0-0.2,0.1-0.4,0.1S237.6,420.2,237.4,420.2z"/>
		<path fill="#464545" d="M245.7,417.1c0.1,0.3,0.2,0.6,0.3,0.9c0,0.1,0.1,0.3,0.1,0.4c0,0.1,0.1,0.3,0.1,0.4s0.1,0.3,0.1,0.4
			c0,0.1,0,0.2,0.1,0.4c0,0,0,0.1,0,0.1c0,0,0,0.1,0,0.1c0,0.3,0,0.5-0.1,0.8c-0.1,0.3-0.2,0.5-0.3,0.8c-0.1,0.2-0.3,0.5-0.5,0.7
			s-0.4,0.4-0.7,0.6c-0.2,0.2-0.5,0.4-0.7,0.5c-0.3,0.2-0.5,0.3-0.8,0.4l-0.4-0.8c0.3-0.2,0.7-0.4,1-0.6c0.3-0.2,0.6-0.5,0.8-0.7
			c0.2-0.3,0.4-0.5,0.6-0.8c0.2-0.3,0.2-0.6,0.2-0.9c0,0,0,0,0-0.1c0,0,0-0.1,0-0.1v0c0-0.1,0-0.2,0-0.3c0-0.1,0-0.2-0.1-0.4
			c0-0.1-0.1-0.2-0.1-0.4c0-0.1-0.1-0.2-0.1-0.4c-0.1-0.3-0.2-0.5-0.2-0.8L245.7,417.1z M245.9,415.1l-0.8,0.8l-0.8-0.8l0.8-0.8
			L245.9,415.1z"/>
		<path fill="#464545" d="M248.7,412.6c0.1,1.3,0.2,2.5,0.2,3.5c0,1.7,0,3.1-0.1,4.1l-0.9-0.1c0.1-1.4,0.1-2.6,0.1-3.6
			c-0.1-1.5-0.2-2.8-0.3-3.8L248.7,412.6z"/>
		<path fill="#464545" d="M255.6,419.8c0,0.3,0,0.5-0.1,0.8c-0.1,0.3-0.2,0.5-0.3,0.8c-0.1,0.2-0.3,0.5-0.5,0.7
			c-0.2,0.2-0.4,0.4-0.7,0.6c-0.2,0.2-0.5,0.4-0.7,0.5s-0.5,0.3-0.8,0.4l-0.4-0.8c0.2-0.1,0.5-0.2,0.7-0.4c0.2-0.1,0.4-0.3,0.6-0.5
			c0.2-0.2,0.4-0.3,0.6-0.5c0.2-0.2,0.3-0.4,0.4-0.6c0.1-0.2,0.2-0.4,0.3-0.6c0.1-0.2,0.1-0.4,0.1-0.7v0c0-0.2-0.1-0.4-0.1-0.6
			c0-0.2-0.1-0.4-0.2-0.6c-0.1-0.2-0.1-0.4-0.2-0.6c-0.1-0.2-0.1-0.3-0.1-0.4l0.9-0.3c0.1,0.4,0.2,0.7,0.4,0.9
			c0.1,0.3,0.2,0.5,0.4,0.6c0.1,0.2,0.3,0.3,0.4,0.4c0.1,0.1,0.3,0.1,0.4,0.1h0c0.1,0,0.1,0,0.2,0s0.1,0.1,0.2,0.1s0.1,0.1,0.1,0.2
			c0,0.1,0,0.1,0,0.2c0,0.1,0,0.2-0.1,0.3c-0.1,0.1-0.2,0.1-0.3,0.1h0c0,0-0.1,0-0.2,0c-0.1,0-0.2,0-0.2,0c-0.1,0-0.2-0.1-0.3-0.1
			S255.7,419.9,255.6,419.8L255.6,419.8z"/>
		<path fill="#464545" d="M256,419.7c0-0.1,0-0.2,0.1-0.3c0.1-0.1,0.2-0.1,0.3-0.1h0.4c0.3,0,0.5,0,0.8,0c0.2,0,0.5-0.1,0.6-0.2
			s0.3-0.2,0.4-0.4s0.2-0.3,0.1-0.6c0-0.2,0-0.4,0-0.6c0-0.2-0.1-0.4-0.1-0.7l0.9-0.3c0,0.1,0.1,0.2,0.1,0.4c0,0.1,0,0.2,0.1,0.4
			c0,0.1,0,0.3,0,0.4s0,0.3,0,0.4c0,0.1,0,0.2,0,0.4s0.1,0.3,0.1,0.4c0.1,0.1,0.1,0.2,0.2,0.3c0.1,0.1,0.2,0.1,0.4,0.1
			c0.1,0,0.2,0,0.3,0.1c0.1,0.1,0.1,0.2,0.1,0.3c0,0.1,0,0.1,0,0.2c0,0.1-0.1,0.1-0.1,0.1c0,0-0.1,0.1-0.1,0.1c-0.1,0-0.1,0-0.2,0
			c-0.3,0-0.6-0.1-0.8-0.2c-0.2-0.1-0.4-0.3-0.5-0.4c-0.1,0.1-0.3,0.2-0.4,0.3c-0.2,0.1-0.4,0.1-0.6,0.2c-0.2,0-0.4,0.1-0.7,0.1
			s-0.5,0-0.7,0h-0.4c-0.1,0-0.2,0-0.3-0.1C256.1,419.9,256,419.8,256,419.7z M258.4,415l-0.8,0.8l-0.8-0.8l0.8-0.8L258.4,415z
			 M260.4,415l-0.8,0.8l-0.8-0.8l0.8-0.8L260.4,415z"/>
		<path fill="#464545" d="M266.3,419.2c0.1,0,0.2,0,0.3,0.1c0.1,0.1,0.1,0.2,0.1,0.3c0,0.1,0,0.2-0.1,0.3c-0.1,0.1-0.2,0.1-0.3,0.1
			c-0.5,0-0.8-0.2-1.1-0.5c-0.3,0.4-0.6,0.5-1,0.4c-0.6-0.1-1.3-0.3-1.9-0.7c-0.1,0.1-0.2,0.3-0.4,0.4c-0.4,0.3-0.8,0.4-1.3,0.4
			c-0.1,0-0.2,0-0.3-0.1c-0.1-0.1-0.1-0.2-0.1-0.3c0-0.1,0-0.2,0.1-0.3c0.1-0.1,0.2-0.1,0.3-0.1c0.5,0,0.9-0.2,1.2-0.7
			c0.1-0.2,0.2-0.3,0.3-0.6c0-0.1,0.1-0.2,0.1-0.3l0-0.1l0-0.1c0,0,0-0.1,0-0.1l0.1-0.2c0-0.1,0.1-0.2,0.1-0.2
			c0.1-0.2,0.2-0.3,0.3-0.4c0.3-0.3,0.6-0.4,0.9-0.4c0.4,0,0.8,0.2,1.1,0.5c0.3,0.3,0.5,0.8,0.6,1.3c0,0.1,0,0.3,0,0.5
			c0,0.2,0.1,0.4,0.2,0.6C265.9,419.2,266.1,419.2,266.3,419.2z M264.1,419.2c0.3,0,0.4,0,0.5-0.2c0.1-0.1,0.1-0.3,0.1-0.5
			c0-0.1,0-0.1,0-0.2l0,0c0-0.3-0.1-0.5-0.3-0.8c-0.2-0.2-0.4-0.3-0.6-0.3c-0.2,0-0.3,0.2-0.5,0.5c-0.1,0.1-0.1,0.3-0.2,0.5
			l-0.1,0.1l-0.1,0.1c0,0.1-0.1,0.2-0.1,0.2C263.4,418.9,263.8,419.1,264.1,419.2z"/>
		<path fill="#464545" d="M265.8,419.7c0-0.1,0-0.2,0.1-0.3c0.1-0.1,0.2-0.1,0.3-0.1h0.4c0.3,0,0.5,0,0.8,0c0.2,0,0.5-0.1,0.6-0.2
			s0.3-0.2,0.4-0.4s0.2-0.3,0.1-0.6c0-0.2,0-0.4,0-0.6c0-0.2-0.1-0.4-0.1-0.7l0.9-0.3c0,0.1,0.1,0.2,0.1,0.4c0,0.1,0,0.2,0.1,0.4
			c0,0.1,0,0.3,0.1,0.4c0,0.1,0,0.3,0,0.4c0,0.1,0,0.2,0,0.4c0,0.1,0.1,0.3,0.1,0.4c0.1,0.1,0.1,0.2,0.2,0.3
			c0.1,0.1,0.2,0.1,0.4,0.1c0.1,0,0.2,0,0.3,0.1c0.1,0.1,0.1,0.2,0.1,0.3c0,0.1,0,0.1,0,0.2s-0.1,0.1-0.1,0.1c0,0-0.1,0.1-0.1,0.1
			c-0.1,0-0.1,0-0.2,0c-0.3,0-0.6-0.1-0.8-0.2c-0.2-0.1-0.4-0.3-0.5-0.4c-0.1,0.1-0.3,0.2-0.4,0.3s-0.4,0.1-0.6,0.2
			c-0.2,0-0.4,0.1-0.7,0.1c-0.2,0-0.5,0-0.7,0h-0.4c-0.1,0-0.2,0-0.3-0.1C265.9,419.9,265.8,419.8,265.8,419.7z M267.8,422l-0.8,0.8
			l-0.8-0.8l0.8-0.8L267.8,422z M269.8,422l-0.8,0.8l-0.8-0.8l0.8-0.8L269.8,422z"/>
		<path fill="#464545" d="M269.9,419.7c0-0.1,0-0.2,0.1-0.3c0.1-0.1,0.2-0.1,0.3-0.1h0.4c0.3,0,0.5,0,0.8,0c0.2,0,0.5-0.1,0.6-0.2
			s0.3-0.2,0.4-0.4s0.2-0.3,0.1-0.6c0-0.2,0-0.4,0-0.6c0-0.2-0.1-0.4-0.1-0.7l0.9-0.3c0,0.1,0.1,0.2,0.1,0.4c0,0.1,0,0.2,0.1,0.4
			c0,0.1,0,0.3,0,0.4s0,0.3,0,0.4c0,0.1,0,0.2,0,0.4s0.1,0.3,0.1,0.4c0.1,0.1,0.1,0.2,0.2,0.3c0.1,0.1,0.2,0.1,0.4,0.1
			c0.1,0,0.2,0,0.3,0.1c0.1,0.1,0.1,0.2,0.1,0.3c0,0.1,0,0.1,0,0.2c0,0.1-0.1,0.1-0.1,0.1c0,0-0.1,0.1-0.1,0.1c-0.1,0-0.1,0-0.2,0
			c-0.3,0-0.6-0.1-0.8-0.2c-0.2-0.1-0.4-0.3-0.5-0.4c-0.1,0.1-0.3,0.2-0.4,0.3c-0.2,0.1-0.4,0.1-0.6,0.2c-0.2,0-0.4,0.1-0.7,0.1
			s-0.5,0-0.7,0h-0.4c-0.1,0-0.2,0-0.3-0.1C270,419.9,269.9,419.8,269.9,419.7z M272.4,415l-0.8,0.8l-0.8-0.8l0.8-0.8L272.4,415z
			 M274.3,415l-0.8,0.8l-0.8-0.8l0.8-0.8L274.3,415z"/>
		<path fill="#464545" d="M274.1,419.7c0-0.1,0-0.2,0.1-0.3c0.1-0.1,0.2-0.1,0.3-0.1h0.5c0.2,0,0.3,0,0.5,0s0.3,0,0.4-0.1
			c0.1,0,0.2-0.1,0.3-0.2s0.2-0.2,0.2-0.3c0.1-0.1,0.1-0.3,0.1-0.6c0-0.3-0.1-0.5-0.2-0.9c0-0.1-0.1-0.2-0.1-0.3
			c0-0.1-0.1-0.2-0.1-0.3c-0.1-0.1-0.1-0.2-0.2-0.4l0.9-0.4c0,0,0,0,0,0.1c0,0.1,0.1,0.1,0.1,0.3c0,0.1,0.1,0.2,0.1,0.4
			c0.1,0.1,0.1,0.3,0.2,0.4c0.3,0.9,0.3,1.6,0.1,2.1c-0.2,0.5-0.6,0.9-1.2,1c-0.2,0.1-0.3,0.1-0.5,0.1c-0.2,0-0.3,0-0.5,0h-0.7h0
			c-0.1,0-0.2,0-0.3-0.1S274.1,419.8,274.1,419.7z M277,414.2l-0.8,0.8l-0.8-0.8l0.8-0.8L277,414.2z"/>
		<path fill="#464545" d="M281,420.2c-0.4,0-0.7,0-0.9-0.1s-0.5-0.2-0.6-0.4c-0.1-0.1-0.2-0.2-0.2-0.3c-0.1-0.1-0.1-0.2-0.1-0.4
			c0-0.1,0-0.2,0-0.3c0-0.1,0-0.2,0-0.3v-0.1c0,0,0-0.1,0-0.2c0-0.1,0-0.3,0-0.5c0-0.2,0-0.4,0-0.7s0-0.5,0-0.8c0-0.3,0-0.6,0-0.9
			c0-0.3,0-0.6,0-0.9c0-0.3,0-0.5-0.1-0.8c0-0.2,0-0.4-0.1-0.6l0.9-0.2c0,0.2,0.1,0.4,0.1,0.6c0,0.2,0,0.5,0.1,0.8s0,0.6,0,0.9
			c0,0.3,0,0.6,0,0.9c0,0.3,0,0.6,0,0.8c0,0.3,0,0.5,0,0.7c0,0.2,0,0.4,0,0.5s0,0.2,0,0.2v0.1c0,0.1,0,0.3,0,0.4
			c0,0.1,0.1,0.2,0.1,0.3c0.1,0.2,0.4,0.2,0.8,0.2h0c0.1,0,0.1,0,0.2,0c0.1,0,0.1,0.1,0.2,0.1s0.1,0.1,0.1,0.2s0,0.1,0,0.2
			c0,0.1,0,0.2-0.1,0.3C281.2,420.1,281.1,420.2,281,420.2z"/>
		<path fill="#464545" d="M280.5,419.7c0-0.1,0-0.1,0-0.2s0.1-0.1,0.1-0.1c0,0,0.1-0.1,0.1-0.1c0.1,0,0.1,0,0.2,0
			c0.2,0,0.4,0,0.5-0.1c0.2-0.1,0.3-0.2,0.4-0.3c0.1-0.1,0.2-0.3,0.3-0.4s0.2-0.3,0.2-0.5s0.1-0.3,0.2-0.5c0-0.2,0.1-0.3,0.1-0.5
			l0.9,0.2c0,0.1-0.1,0.2-0.1,0.3c0,0.1-0.1,0.3-0.1,0.4s-0.1,0.3-0.1,0.4s0,0.3,0,0.4c0,0.1,0,0.2,0,0.3c0,0.1,0,0.2,0.1,0.2
			c0,0.1,0.1,0.1,0.2,0.2c0.1,0,0.2,0.1,0.3,0.1c0.2,0,0.3,0,0.4-0.1c0.1-0.1,0.2-0.2,0.3-0.3c0.1-0.1,0.2-0.3,0.3-0.5
			c0.1-0.2,0.1-0.4,0.2-0.6s0.1-0.4,0.1-0.5s0.1-0.3,0.1-0.5l0.9,0.2c0,0.2-0.1,0.4-0.1,0.5c0,0.1,0,0.3-0.1,0.5c0,0.2,0,0.3,0,0.4
			c0,0.1,0,0.2,0,0.3s0,0.2,0.1,0.3s0.1,0.1,0.2,0.2s0.1,0.1,0.2,0.1c0.1,0,0.3,0,0.4,0c0.1,0,0.2-0.1,0.2-0.1
			c0.1,0,0.1-0.1,0.1-0.1c0,0,0-0.1,0.1-0.1h0c0-0.1,0.1-0.2,0.1-0.2c0-0.1,0-0.2,0-0.3c0-0.2,0-0.4-0.1-0.6c0-0.2-0.1-0.4-0.2-0.6
			c-0.1-0.2-0.1-0.4-0.2-0.6c-0.1-0.2-0.1-0.3-0.2-0.4l0.8-0.4c0,0,0,0.1,0.1,0.2s0.1,0.2,0.2,0.3c0.1,0.1,0.1,0.3,0.2,0.4
			c0.1,0.2,0.1,0.3,0.2,0.5c0.1,0.2,0.1,0.4,0.1,0.6s0.1,0.4,0.1,0.6c0,0.3,0,0.5-0.1,0.7s-0.2,0.4-0.3,0.6
			c-0.2,0.2-0.3,0.3-0.6,0.4c-0.2,0.1-0.5,0.1-0.8,0.1c-0.1,0-0.2,0-0.4-0.1s-0.2-0.1-0.3-0.2c-0.1-0.1-0.2-0.1-0.3-0.2
			s-0.2-0.2-0.2-0.3c-0.2,0.2-0.4,0.4-0.7,0.5c-0.2,0.1-0.5,0.2-0.8,0.2c-0.1,0-0.2,0-0.4,0s-0.2-0.1-0.4-0.1
			c-0.1-0.1-0.2-0.1-0.3-0.2c-0.1-0.1-0.2-0.2-0.2-0.3c-0.2,0.2-0.4,0.4-0.7,0.5s-0.5,0.2-0.9,0.2H281c-0.1,0-0.1,0-0.2,0
			c-0.1,0-0.1-0.1-0.1-0.1c0,0-0.1-0.1-0.1-0.1S280.5,419.8,280.5,419.7z"/>
		<path fill="#464545" d="M295.8,413.2c0,0.7,0.1,1.4,0.2,2c0.1,0.6,0.3,1.2,0.5,1.7c0.2,0.5,0.5,1.1,0.7,1.5s0.5,0.9,0.8,1.4
			l-0.8,0.5c-0.2-0.3-0.4-0.6-0.5-0.9c-0.2-0.3-0.3-0.6-0.5-0.8s-0.3-0.5-0.4-0.8s-0.2-0.5-0.3-0.8c0-0.1-0.1-0.2-0.1-0.2
			c0-0.1-0.1-0.1-0.1-0.2c0-0.1,0-0.1-0.1-0.2c0-0.1,0-0.2-0.1-0.2c-0.1,0.4-0.3,0.8-0.4,1.2s-0.3,0.8-0.5,1.2
			c-0.2,0.4-0.3,0.7-0.5,1c-0.2,0.3-0.3,0.6-0.4,0.8l-0.8-0.5c0.1-0.3,0.3-0.6,0.5-0.9c0.2-0.3,0.3-0.6,0.5-1s0.3-0.7,0.5-1.1
			c0.1-0.4,0.3-0.7,0.4-1.1c0.1-0.4,0.2-0.8,0.3-1.2c0.1-0.4,0.1-0.9,0.1-1.3H295.8z"/>
		<path fill="#464545" d="M305.6,423.3c-0.3,0-0.6,0-0.9,0c-0.3,0-0.6-0.1-0.9-0.2c-0.3-0.1-0.5-0.2-0.8-0.4
			c-0.2-0.2-0.4-0.4-0.6-0.6c-0.3-0.5-0.5-1.2-0.5-2c0-0.4,0.1-0.9,0.2-1.4c0.1-0.5,0.3-1.1,0.6-1.7l0.9,0.4c-0.4,1-0.6,1.9-0.7,2.6
			c-0.1,0.7,0,1.3,0.3,1.6c0.1,0.2,0.3,0.3,0.5,0.4c0.2,0.1,0.4,0.2,0.6,0.2s0.4,0.1,0.6,0.1c0.2,0,0.4,0,0.5,0c0.1,0,0.2,0,0.4,0
			c0.2,0,0.4,0,0.5-0.1c0.2,0,0.4-0.1,0.6-0.1c0.2-0.1,0.4-0.1,0.6-0.2c0.2-0.1,0.3-0.2,0.4-0.3c0.1-0.1,0.2-0.3,0.2-0.4
			c0,0,0-0.1-0.1-0.1s-0.1-0.1-0.2-0.2s-0.2-0.1-0.3-0.2c-0.1-0.1-0.3-0.1-0.5-0.2c-0.1,0-0.2-0.1-0.3-0.1c-0.1,0-0.2-0.1-0.3-0.1
			c-0.1,0-0.2,0-0.3-0.1c-0.1,0-0.1,0-0.2,0l-0.1,0l0.1-0.9l3.7,0c0.1,0,0.2,0,0.3,0.1c0.1,0.1,0.1,0.2,0.1,0.3s0,0.2-0.1,0.3
			c-0.1,0.1-0.2,0.1-0.3,0.1h-1.1c0.1,0.1,0.2,0.2,0.3,0.3s0.1,0.2,0.2,0.3c0,0.1,0.1,0.2,0.1,0.2c0,0.1,0,0.2,0,0.2
			c0,0.3-0.1,0.5-0.2,0.7c-0.1,0.2-0.3,0.4-0.5,0.5c-0.2,0.2-0.4,0.3-0.7,0.4c-0.3,0.1-0.5,0.2-0.8,0.3c-0.3,0.1-0.5,0.1-0.8,0.1
			C306,423.3,305.8,423.3,305.6,423.3z"/>
		<path fill="#464545" d="M309.2,419.7c0-0.1,0-0.2,0.1-0.3c0.1-0.1,0.2-0.1,0.3-0.1h0h0.2c0.4,0,0.6-0.1,0.8-0.2
			c0.2-0.2,0.2-0.5,0.2-1v-0.1c0-0.1,0-0.4,0-0.8c0-0.4,0-0.9-0.1-1.4c0-0.4,0-0.7,0-1s0-0.6,0-0.8s0-0.4,0-0.6c0-0.1,0-0.2,0-0.3
			l0.9-0.1c0,0.1,0,0.2,0,0.3c0,0.2,0,0.3,0.1,0.6c0,0.2,0,0.5,0.1,0.8s0,0.6,0.1,1c0,0.6,0,1.1,0,1.4s0,0.7,0,0.8c0,0,0,0,0,0.1
			s0,0,0,0.1c0,0.1,0,0.3,0,0.4c0,0.1,0,0.3-0.1,0.4c0,0.1-0.1,0.3-0.2,0.4c-0.1,0.1-0.2,0.3-0.3,0.4c-0.3,0.3-0.8,0.5-1.4,0.5h-0.2
			h0c-0.1,0-0.2,0-0.3-0.1S309.2,419.8,309.2,419.7z"/>
		<path fill="#464545" d="M314.2,412.6c0.1,1.3,0.2,2.5,0.2,3.5c0,1.7,0,3.1-0.1,4.1l-0.9-0.1c0.1-1.4,0.1-2.6,0.1-3.6
			c-0.1-1.5-0.1-2.8-0.3-3.8L314.2,412.6z"/>
		<path fill="#464545" d="M321.9,416.7c-0.2,0-0.4,0-0.6,0c-0.2,0-0.4-0.1-0.5-0.1c-0.1,0-0.2-0.1-0.3-0.2c-0.1-0.1-0.2-0.1-0.3-0.2
			l0,0.3c0,0.3,0.1,0.6,0.1,0.9c0,0.3,0,0.6,0.1,0.9c0,0.3,0,0.6,0,0.9s0,0.6,0,0.9h-1c0-0.6,0-1.2,0-1.9c0-0.6-0.1-1.2-0.1-1.8
			c-0.1-0.6-0.2-1.1-0.3-1.6c-0.1-0.5-0.3-0.9-0.6-1.3l0.8-0.5c0.1,0.2,0.2,0.4,0.3,0.6s0.2,0.4,0.3,0.6c0-0.1,0.1-0.2,0.1-0.3
			c0.1-0.1,0.1-0.2,0.2-0.3l0,0c0.2-0.2,0.4-0.4,0.7-0.5c0.3-0.1,0.5-0.2,0.8-0.2c0.2,0,0.4,0,0.7,0.1c0.2,0.1,0.5,0.2,0.7,0.3
			c0.1,0.1,0.3,0.2,0.3,0.3s0.1,0.1,0.2,0.2l0.1,0.1l-0.7,0.7c-0.1-0.1-0.1-0.1-0.2-0.2s-0.1-0.1-0.2-0.2c-0.1-0.1-0.2-0.1-0.3-0.1
			s-0.2-0.1-0.3-0.1s-0.2,0-0.3,0h0c-0.2,0-0.3,0-0.4,0.1s-0.3,0.2-0.4,0.3c-0.1,0.1-0.1,0.2-0.2,0.3s-0.1,0.2,0,0.4
			c0,0.1,0.1,0.3,0.2,0.4c0.1,0.1,0.2,0.2,0.3,0.2c0.1,0,0.2,0.1,0.3,0.1c0.1,0,0.2,0,0.4,0c0.1,0,0.1,0,0.2,0c0.1,0,0.1,0,0.2,0
			c0.2,0,0.4-0.1,0.6-0.1s0.3-0.1,0.4-0.2l0.4,0.8c-0.2,0.1-0.3,0.2-0.5,0.3c-0.2,0.1-0.4,0.2-0.7,0.2c-0.1,0-0.2,0-0.3,0
			C322.1,416.7,322,416.7,321.9,416.7z"/>
		<path fill="#464545" d="M327.1,420.7c-0.5,1-1.2,1.9-2.1,2.6l-0.1-0.2l-0.1-0.2c-0.1-0.2-0.2-0.3-0.2-0.4c1.6-1.5,2.4-3.2,2.4-5.2
			c0-1.2-0.2-2.2-0.7-3.1c-0.4-0.8-1-1.5-1.7-2.2c0-0.1,0.1-0.1,0.1-0.2l0.1-0.2c0.1-0.2,0.2-0.3,0.2-0.4c0.9,0.6,1.7,1.5,2.2,2.6
			c0.5,1.1,0.8,2.2,0.8,3.4C327.9,418.5,327.6,419.7,327.1,420.7z"/>
	</g>
</g>
</svg>
