<?xml version="1.0" encoding="utf-8"?>
<!-- Generator: Adobe Illustrator 18.0.0, SVG Export Plug-In . SVG Version: 6.00 Build 0)  -->
<!DOCTYPE svg PUBLIC "-//W3C//DTD SVG 1.1//EN" "http://www.w3.org/Graphics/SVG/1.1/DTD/svg11.dtd">
<svg version="1.1" id="Layer_1" xmlns="http://www.w3.org/2000/svg" xmlns:xlink="http://www.w3.org/1999/xlink" x="0px" y="0px"
	 width="169px" height="169px" viewBox="0 0 450 451.5" enable-background="new 0 0 450 451.5" xml:space="preserve">
<g>
	<rect x="84.9" y="54" fill="none" stroke="#616261" stroke-width="3" stroke-miterlimit="10" width="280.2" height="389"/>
	<rect x="108" y="77" fill="none" stroke="#616261" stroke-width="3" stroke-miterlimit="10" width="234" height="342.8"/>
</g>
<g>
	<g>
		<line fill="none" stroke="#464545" stroke-width="3" x1="120.9" y1="250.5" x2="329.1" y2="250.5"/>
		<g>
			<polygon fill="#464545" points="123.5,259.4 108,250.5 123.5,241.5 			"/>
		</g>
		<g>
			<polygon fill="#464545" points="326.5,259.4 342,250.5 326.5,241.5 			"/>
		</g>
	</g>
</g>
<g>
	<g>
		<line fill="none" stroke="#464545" stroke-width="3" x1="120.9" y1="103.9" x2="329.1" y2="103.9"/>
		<g>
			<polygon fill="#464545" points="123.5,112.8 108,103.9 123.5,94.9 			"/>
		</g>
		<g>
			<polygon fill="#464545" points="326.5,112.8 342,103.9 326.5,94.9 			"/>
		</g>
	</g>
</g>
<g>
	<g>
		<line fill="none" stroke="#464545" stroke-width="3" x1="120.9" y1="390.9" x2="329.1" y2="390.9"/>
		<g>
			<polygon fill="#464545" points="123.5,399.8 108,390.9 123.5,381.9 			"/>
		</g>
		<g>
			<polygon fill="#464545" points="326.5,399.8 342,390.9 326.5,381.9 			"/>
		</g>
	</g>
</g>
<g>
	<g>
		<path fill="#464545" d="M406.8,106.1c0-1.4,0-2.7-0.1-4c0-1.3-0.2-2.6-0.3-3.9c-0.2-1.2-0.4-2.4-0.7-3.5c-0.3-1.1-0.7-2-1.2-2.8
			l1.7-1.1c0.6,0.9,1,2,1.4,3.2c0.4,1.2,0.7,2.6,0.9,4.1c0.1,0.7,0.2,1.3,0.2,2c0.1,0.7,0.1,1.4,0.1,2.1c0,0.7,0.1,1.4,0.1,2
			c0,0.7,0,1.3,0,1.9H406.8z"/>
	</g>
</g>
<g>
	<g>
		<path fill="#464545" d="M411.4,237.2c0,0,0,0.1,0,0.2c0,0.1,0,0.3,0.1,0.5c0,0.2,0,0.4,0.1,0.7c0,0.3,0,0.5,0,0.8
			c0,1.6-0.4,2.8-1.1,3.7v0c-0.3,0.4-0.8,0.7-1.3,1c-0.5,0.2-1,0.3-1.6,0.3c-0.3,0-0.6,0-0.9-0.1s-0.5-0.1-0.8-0.2
			c0,0.1,0,0.2,0,0.3c0,0.1,0,0.2,0,0.3c0.1,0.7,0.2,1.3,0.2,2c0.1,0.7,0.1,1.4,0.1,2.1s0.1,1.4,0.1,2c0,0.7,0,1.3,0,1.9h-2.1
			c0-1.1,0-2.2,0-3.3s-0.1-2.2-0.2-3.2c-0.1-1-0.2-2-0.4-3c-0.2-0.9-0.4-1.8-0.7-2.6c-0.1-0.4-0.3-0.7-0.5-1.1
			c-0.2-0.3-0.4-0.7-0.6-1.1l1.7-1.1c0.1,0.2,0.2,0.4,0.3,0.5c0.1,0.2,0.2,0.4,0.3,0.6s0.2,0.4,0.3,0.6s0.2,0.5,0.3,0.7
			c0.2,0.4,0.3,0.7,0.5,1c0.2,0.3,0.3,0.6,0.5,0.8s0.4,0.4,0.7,0.5c0.3,0.1,0.6,0.2,1,0.2c0.3,0,0.5,0,0.8-0.1
			c0.2-0.1,0.4-0.2,0.5-0.4c0.1-0.2,0.2-0.3,0.3-0.5s0.2-0.4,0.2-0.7c0.1-0.2,0.1-0.5,0.1-0.7s0-0.5,0-0.7c0-0.3,0-0.6,0-0.9
			c0-0.3-0.1-0.5-0.1-0.7L411.4,237.2z"/>
	</g>
</g>
<g>
	<g>
		<path fill="#464545" d="M413,377.5c0.1,0.6,0.2,1.2,0.3,1.7c0.1,0.5,0.1,1,0.1,1.4c0,1.3-0.3,2.3-0.8,3c-0.3,0.3-0.6,0.6-0.9,0.7
			s-0.8,0.2-1.2,0.2c-0.2,0-0.4,0-0.6-0.1c-0.2,0-0.4-0.1-0.6-0.2c-0.2-0.1-0.4-0.2-0.6-0.4c-0.2-0.2-0.4-0.4-0.6-0.6l-0.2,0.3
			c-0.3,0.4-0.7,0.7-1.1,0.9c-0.4,0.2-0.9,0.3-1.4,0.3c-0.3,0-0.5,0-0.7,0s-0.4-0.1-0.6-0.2c0,0.1,0,0.2,0,0.3c0,0.1,0,0.2,0,0.2
			c0.1,0.7,0.2,1.3,0.2,2s0.1,1.4,0.1,2.1s0,1.4,0.1,2c0,0.7,0,1.3,0,1.9h-2.1c0-0.3,0-0.6,0-0.9s0-0.6,0-0.9c0-1,0-2-0.1-3
			c-0.1-1-0.2-1.9-0.3-2.8c-0.1-0.9-0.3-1.8-0.5-2.6c-0.2-0.8-0.5-1.6-0.7-2.3c0,0,0-0.1-0.1-0.1c0,0,0-0.1,0-0.1
			c-0.1-0.3-0.2-0.5-0.4-0.8c-0.1-0.3-0.3-0.5-0.4-0.8l1.9-1.1c0,0.1,0.1,0.2,0.2,0.3c0.1,0.1,0.1,0.2,0.2,0.4
			c0.1,0.1,0.1,0.3,0.2,0.4c0.1,0.1,0.1,0.3,0.2,0.4c0.2,0.3,0.3,0.7,0.5,1.1c0.2,0.4,0.4,0.8,0.5,1.1s0.3,0.5,0.4,0.7
			c0.2,0.2,0.3,0.3,0.5,0.4s0.5,0.1,0.8,0.1c0.2,0,0.4,0,0.5-0.1c0.1-0.1,0.2-0.2,0.4-0.3c0.2-0.2,0.3-0.5,0.5-1s0.2-0.9,0.2-1.5
			c0-0.1,0-0.2,0-0.4s0-0.4,0-0.6c0-0.2,0-0.4,0-0.6c0-0.2,0-0.3,0-0.3l2.1-0.2c0,0,0,0.1,0,0.1c0,0,0,0.1,0,0.1c0,0.1,0,0.2,0,0.4
			c0,0.2,0,0.4,0,0.6c0,0.4,0.1,0.9,0.2,1.3c0.1,0.5,0.2,0.9,0.3,1.3c0.1,0.2,0.2,0.4,0.3,0.6c0.1,0.1,0.2,0.2,0.3,0.3
			c0.1,0.1,0.2,0.1,0.2,0.1c0.1,0,0.1,0,0.2,0c0.2,0,0.3,0,0.4-0.1c0.1,0,0.1-0.1,0.2-0.1c0,0,0.1-0.1,0.1-0.2s0.1-0.2,0.1-0.3
			c0-0.1,0.1-0.3,0.1-0.5c0-0.2,0-0.4,0-0.7c0-0.3,0-0.7-0.1-1.1c0-0.4-0.1-1-0.2-1.6L413,377.5z"/>
	</g>
</g>
</svg>
