<?xml version="1.0" encoding="utf-8"?>
<!-- Generator: Adobe Illustrator 18.0.0, SVG Export Plug-In . SVG Version: 6.00 Build 0)  -->
<!DOCTYPE svg PUBLIC "-//W3C//DTD SVG 1.1//EN" "http://www.w3.org/Graphics/SVG/1.1/DTD/svg11.dtd">
<svg version="1.1" id="Layer_1" xmlns="http://www.w3.org/2000/svg" xmlns:xlink="http://www.w3.org/1999/xlink" x="0px" y="0px"
	 width="436.8px" height="566.9px" viewBox="0 0 436.8 566.9" enable-background="new 0 0 436.8 566.9" xml:space="preserve">
<rect x="43.4" y="95.5" fill="#FFFFFF" stroke="#878787" stroke-miterlimit="10" width="362.3" height="402.8"/>
<rect x="43.2" y="95.5" fill="#D2D2D2" stroke="#878787" stroke-miterlimit="10" width="362.7" height="36.6"/>
<rect x="43.2" y="168.8" fill="#D2D2D2" stroke="#878787" stroke-miterlimit="10" width="362.7" height="36.6"/>
<rect x="43.2" y="242" fill="#D2D2D2" stroke="#878787" stroke-miterlimit="10" width="362.7" height="36.6"/>
<rect x="43.2" y="315.2" fill="#D2D2D2" stroke="#878787" stroke-miterlimit="10" width="362.7" height="36.6"/>
<rect x="43.2" y="388.4" fill="#D2D2D2" stroke="#878787" stroke-miterlimit="10" width="362.7" height="36.6"/>
<rect x="43.2" y="461.7" fill="#D2D2D2" stroke="#878787" stroke-miterlimit="10" width="362.7" height="36.6"/>
<circle fill="#878787" stroke="#878787" stroke-miterlimit="10" cx="25.6" cy="107.2" r="2.4"/>
<circle fill="#878787" stroke="#878787" stroke-miterlimit="10" cx="25.6" cy="116.9" r="2.4"/>
<circle fill="#878787" stroke="#878787" stroke-miterlimit="10" cx="25.6" cy="126.6" r="2.4"/>
<circle fill="#878787" stroke="#878787" stroke-miterlimit="10" cx="25.6" cy="136.2" r="2.4"/>
<circle fill="#878787" stroke="#878787" stroke-miterlimit="10" cx="25.6" cy="145.9" r="2.4"/>
<circle fill="#878787" stroke="#878787" stroke-miterlimit="10" cx="25.6" cy="155.5" r="2.4"/>
<circle fill="#878787" stroke="#878787" stroke-miterlimit="10" cx="25.6" cy="165.2" r="2.4"/>
<circle fill="#878787" stroke="#878787" stroke-miterlimit="10" cx="25.6" cy="174.9" r="2.4"/>
<circle fill="#878787" stroke="#878787" stroke-miterlimit="10" cx="25.6" cy="184.5" r="2.4"/>
<circle fill="#878787" stroke="#878787" stroke-miterlimit="10" cx="25.6" cy="194.2" r="2.4"/>
<circle fill="#878787" stroke="#878787" stroke-miterlimit="10" cx="25.6" cy="203.8" r="2.4"/>
<circle fill="#878787" stroke="#878787" stroke-miterlimit="10" cx="25.6" cy="213.5" r="2.4"/>
<circle fill="#878787" stroke="#878787" stroke-miterlimit="10" cx="25.6" cy="223.1" r="2.4"/>
<circle fill="#878787" stroke="#878787" stroke-miterlimit="10" cx="25.6" cy="232.8" r="2.4"/>
<circle fill="#878787" stroke="#878787" stroke-miterlimit="10" cx="25.6" cy="242.5" r="2.4"/>
<circle fill="#878787" stroke="#878787" stroke-miterlimit="10" cx="25.6" cy="252.1" r="2.4"/>
<circle fill="#878787" stroke="#878787" stroke-miterlimit="10" cx="25.6" cy="261.8" r="2.4"/>
<circle fill="#878787" stroke="#878787" stroke-miterlimit="10" cx="25.6" cy="271.4" r="2.4"/>
<circle fill="#878787" stroke="#878787" stroke-miterlimit="10" cx="25.6" cy="281.1" r="2.4"/>
<circle fill="#878787" stroke="#878787" stroke-miterlimit="10" cx="25.6" cy="290.7" r="2.4"/>
<circle fill="#878787" stroke="#878787" stroke-miterlimit="10" cx="25.6" cy="300.4" r="2.4"/>
<circle fill="#878787" stroke="#878787" stroke-miterlimit="10" cx="25.6" cy="310.1" r="2.4"/>
<circle fill="#878787" stroke="#878787" stroke-miterlimit="10" cx="25.6" cy="319.7" r="2.4"/>
<circle fill="#878787" stroke="#878787" stroke-miterlimit="10" cx="25.6" cy="329.4" r="2.4"/>
<circle fill="#878787" stroke="#878787" stroke-miterlimit="10" cx="25.6" cy="339" r="2.4"/>
<circle fill="#878787" stroke="#878787" stroke-miterlimit="10" cx="25.6" cy="348.7" r="2.4"/>
<circle fill="#878787" stroke="#878787" stroke-miterlimit="10" cx="25.6" cy="358.3" r="2.4"/>
<circle fill="#878787" stroke="#878787" stroke-miterlimit="10" cx="25.6" cy="368" r="2.4"/>
<circle fill="#878787" stroke="#878787" stroke-miterlimit="10" cx="25.6" cy="377.7" r="2.4"/>
<circle fill="#878787" stroke="#878787" stroke-miterlimit="10" cx="25.6" cy="387.3" r="2.4"/>
<circle fill="#878787" stroke="#878787" stroke-miterlimit="10" cx="25.6" cy="397" r="2.4"/>
<path fill="#FFFFFF" stroke="#878787" stroke-width="2" stroke-miterlimit="10" d="M25.6,439.7L25.6,439.7c-2.6,0-4.6-2.1-4.6-4.6
	v-25.5c0-2.6,2.1-4.6,4.6-4.6l0,0c2.6,0,4.6,2.1,4.6,4.6v25.5C30.3,437.6,28.2,439.7,25.6,439.7z"/>
<path fill="#FFFFFF" stroke="#878787" stroke-width="2" stroke-miterlimit="10" d="M411.4,95.5H19.7C15,84.8,14.5,74,19.7,63h391.7
	C417.6,73.9,417.6,84.7,411.4,95.5z"/>
</svg>
