<svg xmlns="http://www.w3.org/2000/svg" width="153" height="156" viewBox="0 0 153 156">
  <defs>
    <style>
	@font-face {
    font-family: "proximanova-nova";

    src: url('http://doopsalta2.com/Fonts/proxima-nova-three.woff2') format('woff2'),
        url('http://doopsalta2.com/Fonts/proxima-nova-three.woff') format('woff'),
        url('http://doopsalta2.com/Fonts/proxima-nova-three.otf') format('opentype');
    font-style: normal;
	}
	
      .cls-1, .cls-4, .cls-7 {
        fill: none;
      }

      .cls-2 {
        fill: #fff;
        stroke-width: 1.1px;
      }

      .cls-2, .cls-4, .cls-6, .cls-7, .cls-8 {
        stroke: #606060;
      }

      .cls-3 {
        fill: #c6c6c6;
        stroke: #707070;
      }

      .cls-4 {
        stroke-width: 0.6px;
      }

      .cls-5, .cls-6, .cls-8 {
        fill: #606060;
      }

      .cls-6, .cls-8 {
        stroke-width: 0.2px;
        font-family:'proximanova-nova',sans-serif;
        font-weight: 200;
      }

      .cls-6 {
        font-size: 4.2px;
      }

      .cls-7 {
        stroke-width: 0.7px;
      }

      .cls-8 {
        font-size: 4px;
      }

      .cls-10, .cls-9 {
        stroke: none;
      }

      .cls-10 {
        fill: #606060;
      }
    </style>
  </defs>
  <g id="Group_84" data-name="Group 84" transform="translate(257.762 -114.938)">
    <rect id="Rectangle_61" data-name="Rectangle 61" class="cls-1" width="153" height="156" transform="translate(-257.762 114.938)"/>
    <g id="Rectangle_57" data-name="Rectangle 57" class="cls-2" transform="translate(-220.677 135.942)">
      <rect class="cls-9" width="78.485" height="114.982"/>
      <rect class="cls-1" x="0.55" y="0.55" width="77.385" height="113.882"/>
    </g>
    <g id="Rectangle_60" data-name="Rectangle 60" class="cls-3" transform="translate(-229.762 121.937)">
      <rect class="cls-9" width="97" height="97"/>
      <rect class="cls-1" x="0.5" y="0.5" width="96" height="96"/>
    </g>
    <g id="Group_78" data-name="Group 78" transform="translate(-229.762 220.688)">
      <line id="Line_7" data-name="Line 7" class="cls-4" x2="93.098" transform="translate(2.1 3.053)"/>
      <g id="Polygon_1" data-name="Polygon 1" class="cls-5" transform="translate(97 1.252) rotate(90)">
        <path class="cls-9" d="M 2.896082162857056 2.602137565612793 L 0.7064805030822754 2.602137565612793 L 1.801281332969666 0.7774655818939209 L 2.896082162857056 2.602137565612793 Z"/>
        <path class="cls-10" d="M 1.801281332969666 1.554916858673096 L 1.412949800491333 2.20213770866394 L 2.189612865447998 2.20213770866394 L 1.801281332969666 1.554916858673096 M 1.801281332969666 -2.384185791015625e-06 L 3.602561235427856 3.002137660980225 L 1.430511474609375e-06 3.002137660980225 L 1.801281332969666 -2.384185791015625e-06 Z"/>
      </g>
      <g id="Polygon_2" data-name="Polygon 2" class="cls-5" transform="translate(0 4.854) rotate(-90)">
        <path class="cls-9" d="M 2.896082162857056 2.602137565612793 L 0.7064805030822754 2.602137565612793 L 1.801281332969666 0.7774655818939209 L 2.896082162857056 2.602137565612793 Z"/>
        <path class="cls-10" d="M 1.801281332969666 1.554916858673096 L 1.412949800491333 2.20213770866394 L 2.189612865447998 2.20213770866394 L 1.801281332969666 1.554916858673096 M 1.801281332969666 -2.384185791015625e-06 L 3.602561235427856 3.002137660980225 L 1.430511474609375e-06 3.002137660980225 L 1.801281332969666 -2.384185791015625e-06 Z"/>
      </g>
      <text id="Width_4-8cm_extending_on_each_side_" data-name="Width (4-8cm extending on each side)" class="cls-6" transform="translate(13.5 8.855)"><tspan x="0" y="0">عرض (۴-۸ سانتی متر از هر طرف اضافه تر در نظر بگیرید)</tspan></text>
    </g>
    <g id="Group_79" data-name="Group 79" transform="translate(-236.512 121.938) rotate(90)">
      <line id="Line_7-2" data-name="Line 7" class="cls-7" x2="124.358" transform="translate(2.491 3.947)"/>
      <g id="Polygon_1-2" data-name="Polygon 1" class="cls-5" transform="translate(128.986 1.811) rotate(90)">
        <path class="cls-9" d="M 3.566421985626221 3.16075587272644 L 0.7064799666404724 3.16075587272644 L 2.136451005935669 0.7774642109870911 L 3.566421985626221 3.16075587272644 Z"/>
        <path class="cls-10" d="M 2.136451005935669 1.554915904998779 L 1.412948846817017 2.760756015777588 L 2.859952926635742 2.760756015777588 L 2.136451005935669 1.554915904998779 M 2.136451005935669 -4.053115844726562e-06 L 4.272901058197021 3.560755968093872 L 9.5367431640625e-07 3.560755968093872 L 2.136451005935669 -4.053115844726562e-06 Z"/>
      </g>
      <g id="Polygon_2-2" data-name="Polygon 2" class="cls-5" transform="translate(0 6.083) rotate(-90)">
        <path class="cls-9" d="M 3.566421985626221 3.16075587272644 L 0.7064799666404724 3.16075587272644 L 2.136451005935669 0.7774642109870911 L 3.566421985626221 3.16075587272644 Z"/>
        <path class="cls-10" d="M 2.136451005935669 1.554915904998779 L 1.412948846817017 2.760756015777588 L 2.859952926635742 2.760756015777588 L 2.136451005935669 1.554915904998779 M 2.136451005935669 -4.053115844726562e-06 L 4.272901058197021 3.560755968093872 L 9.5367431640625e-07 3.560755968093872 L 2.136451005935669 -4.053115844726562e-06 Z"/>
      </g>
      <text id="Length" class="cls-8" transform="translate(71.367 9.659) rotate(180)"><tspan x="0" y="0">ارتفاع</tspan></text>
    </g>
  </g>
</svg>
