<svg xmlns="http://www.w3.org/2000/svg" width="153" height="156" viewBox="0 0 153 156">
  <defs>
    <style>
	@font-face {
    font-family: "proximanova-nova";

    src: url('http://doopsalta2.com/Fonts/proxima-nova-three.woff2') format('woff2'),
        url('http://doopsalta2.com/Fonts/proxima-nova-three.woff') format('woff'),
        url('http://doopsalta2.com/Fonts/proxima-nova-three.otf') format('opentype');
    font-style: normal;
	}
	
      .cls-1, .cls-4, .cls-7 {
        fill: none;
      }

      .cls-2 {
        fill: #fff;
        stroke-width: 1.1px;
      }

      .cls-2, .cls-4, .cls-6, .cls-7 {
        stroke: #606060;
      }

      .cls-3 {
        fill: rgba(138,138,138,0.3);
      }

      .cls-4, .cls-6, .cls-7 {
        stroke-width: 0.2px;
      }

      .cls-4 {
        stroke-dasharray: 1.2 1.2;
      }

      .cls-5, .cls-6, .cls-8 {
        fill: #606060;
      }

      .cls-5 {
        stroke-dasharray: 1 1;
      }

      .cls-6 {
        font-size: 4.2px;
        font-family:'proximanova-nova',sans-serif;
        font-weight: 200;
      }

      .cls-10, .cls-9 {
        stroke: none;
      }

      .cls-10 {
        fill: #606060;
      }
    </style>
  </defs>
  <g id="Group_85" data-name="Group 85" transform="translate(257.762 -115.937)">
    <rect id="Rectangle_59" data-name="Rectangle 59" class="cls-1" width="153" height="156" transform="translate(-257.762 115.937)"/>
    <g id="Rectangle_57" data-name="Rectangle 57" class="cls-2" transform="translate(-220.677 135.942)">
      <rect class="cls-9" width="78.485" height="114.982"/>
      <rect class="cls-1" x="0.55" y="0.55" width="77.385" height="113.882"/>
    </g>
    <rect id="Rectangle_60" data-name="Rectangle 60" class="cls-3" width="77" height="95" transform="translate(-219.762 135.937)"/>
    <g id="Group_77" data-name="Group 77">
      <g id="Group_73" data-name="Group 73" transform="translate(-210.088 137.038) rotate(90)">
        <line id="Line_7" data-name="Line 7" class="cls-4" x2="109.527" transform="translate(1.775 1.5)"/>
        <g id="Polygon_1" data-name="Polygon 1" class="cls-5" transform="translate(112.802 0) rotate(90)">
          <path class="cls-9" d="M1.5,0,3,2.5H0Z"/>
          <path class="cls-10" d="M 0.5579800605773926 1.570029973983765 L 0.9154798984527588 1.78452479839325 L 0.9154798984527588 1.700000047683716 L 1.915480017662048 1.700000047683716 L 1.915480017662048 2.083092451095581 L 2.528990030288696 1.714990019798279 C 2.528990030288696 1.714990019798279 2.779928922653198 2.133218050003052 2.915479898452759 2.359134674072266 L 2.915479898452759 2.359133243560791 L 3 2.5 L 2.067050933837891 2.5 L 1.915480017662048 2.247380495071411 L 1.915480017662048 2.5 C 1.915480017662048 2.5 1.066086053848267 2.5 0.9329519271850586 2.5 L 0.1642882823944092 2.5 L 0.04348993301391602 2.427520036697388 C 0.04348993301391602 2.427520036697388 0.1721124649047852 2.213147401809692 0.3007349967956543 1.998775005340576 L 0.3007349967956543 1.998775005340576 C 0.3016142845153809 1.997309565544128 0.3024935722351074 1.995844125747681 0.303372859954834 1.994378685951233 L 0.3040008544921875 1.993332028388977 C 0.3045032024383545 1.992494702339172 0.3050055503845215 1.991657376289368 0.3055078983306885 1.990820169448853 L 0.5579814910888672 1.570030927658081 Z M 1.5 0 L 2.014495611190796 0.8574926853179932 L 1.864428877830505 0.9475326538085938 L 1.758470058441162 1.124130010604858 L 1.664284586906433 1.067619323730469 L 1.328500032424927 1.269090056419373 L 1.03352415561676 0.7774597406387329 L 1.5 0 Z"/>
        </g>
        <g id="Polygon_2" data-name="Polygon 2" class="cls-5" transform="translate(0.025 3) rotate(-90)">
          <path class="cls-9" d="M1.5,0,3,2.5H0Z"/>
          <path class="cls-10" d="M 0.5579800605773926 1.570029973983765 L 0.9154798984527588 1.78452479839325 L 0.9154798984527588 1.700000047683716 L 1.915480017662048 1.700000047683716 L 1.915480017662048 2.083092451095581 L 2.528990030288696 1.714990019798279 C 2.528990030288696 1.714990019798279 2.779928922653198 2.133218050003052 2.915479898452759 2.359134674072266 L 2.915479898452759 2.359133243560791 L 3 2.5 L 2.067050933837891 2.5 L 1.915480017662048 2.247380495071411 L 1.915480017662048 2.5 C 1.915480017662048 2.5 1.066086053848267 2.5 0.9329519271850586 2.5 L 0.1642882823944092 2.5 L 0.04348993301391602 2.427520036697388 C 0.04348993301391602 2.427520036697388 0.1721124649047852 2.213147401809692 0.3007349967956543 1.998775005340576 L 0.3007349967956543 1.998775005340576 C 0.3016142845153809 1.997309565544128 0.3024935722351074 1.995844125747681 0.303372859954834 1.994378685951233 L 0.3040008544921875 1.993332028388977 C 0.3045032024383545 1.992494702339172 0.3050055503845215 1.991657376289368 0.3055078983306885 1.990820169448853 L 0.5579814910888672 1.570030927658081 Z M 1.5 0 L 2.014495611190796 0.8574926853179932 L 1.864428877830505 0.9475326538085938 L 1.758470058441162 1.124130010604858 L 1.664284586906433 1.067619323730469 L 1.328500032424927 1.269090056419373 L 1.03352415561676 0.7774597406387329 L 1.5 0 Z"/>
        </g>
        <text id="Length_-_Left_" data-name="Length - Left " class="cls-6" transform="translate(-6.1 13.674) rotate(-90)"><tspan x="0" y="0">ارتفاع - چپ</tspan></text>
      </g>
      <g id="Group_75" data-name="Group 75" transform="translate(-180.005 137.038) rotate(90)">
        <line id="Line_7-2" data-name="Line 7" class="cls-4" x2="109.527" transform="translate(1.775 1.5)"/>
        <g id="Polygon_1-2" data-name="Polygon 1" class="cls-5" transform="translate(112.802 0) rotate(90)">
          <path class="cls-9" d="M1.5,0,3,2.5H0Z"/>
          <path class="cls-10" d="M 0.5579800605773926 1.570029973983765 L 0.9154798984527588 1.78452479839325 L 0.9154798984527588 1.700000047683716 L 1.915480017662048 1.700000047683716 L 1.915480017662048 2.083092451095581 L 2.528990030288696 1.714990019798279 C 2.528990030288696 1.714990019798279 2.779928922653198 2.133218050003052 2.915479898452759 2.359134674072266 L 2.915479898452759 2.359133243560791 L 3 2.5 L 2.067050933837891 2.5 L 1.915480017662048 2.247380495071411 L 1.915480017662048 2.5 C 1.915480017662048 2.5 1.066086053848267 2.5 0.9329519271850586 2.5 L 0.1642882823944092 2.5 L 0.04348993301391602 2.427520036697388 C 0.04348993301391602 2.427520036697388 0.1721124649047852 2.213147401809692 0.3007349967956543 1.998775005340576 L 0.3007349967956543 1.998775005340576 C 0.3016142845153809 1.997309565544128 0.3024935722351074 1.995844125747681 0.303372859954834 1.994378685951233 L 0.3040008544921875 1.993332028388977 C 0.3045032024383545 1.992494702339172 0.3050055503845215 1.991657376289368 0.3055078983306885 1.990820169448853 L 0.5579814910888672 1.570030927658081 Z M 1.5 0 L 2.014495611190796 0.8574926853179932 L 1.864428877830505 0.9475326538085938 L 1.758470058441162 1.124130010604858 L 1.664284586906433 1.067619323730469 L 1.328500032424927 1.269090056419373 L 1.03352415561676 0.7774597406387329 L 1.5 0 Z"/>
        </g>
        <g id="Polygon_2-2" data-name="Polygon 2" class="cls-5" transform="translate(0.025 3) rotate(-90)">
          <path class="cls-9" d="M1.5,0,3,2.5H0Z"/>
          <path class="cls-10" d="M 0.5579800605773926 1.570029973983765 L 0.9154798984527588 1.78452479839325 L 0.9154798984527588 1.700000047683716 L 1.915480017662048 1.700000047683716 L 1.915480017662048 2.083092451095581 L 2.528990030288696 1.714990019798279 C 2.528990030288696 1.714990019798279 2.779928922653198 2.133218050003052 2.915479898452759 2.359134674072266 L 2.915479898452759 2.359133243560791 L 3 2.5 L 2.067050933837891 2.5 L 1.915480017662048 2.247380495071411 L 1.915480017662048 2.5 C 1.915480017662048 2.5 1.066086053848267 2.5 0.9329519271850586 2.5 L 0.1642882823944092 2.5 L 0.04348993301391602 2.427520036697388 C 0.04348993301391602 2.427520036697388 0.1721124649047852 2.213147401809692 0.3007349967956543 1.998775005340576 L 0.3007349967956543 1.998775005340576 C 0.3016142845153809 1.997309565544128 0.3024935722351074 1.995844125747681 0.303372859954834 1.994378685951233 L 0.3040008544921875 1.993332028388977 C 0.3045032024383545 1.992494702339172 0.3050055503845215 1.991657376289368 0.3055078983306885 1.990820169448853 L 0.5579814910888672 1.570030927658081 Z M 1.5 0 L 2.014495611190796 0.8574926853179932 L 1.864428877830505 0.9475326538085938 L 1.758470058441162 1.124130010604858 L 1.664284586906433 1.067619323730469 L 1.328500032424927 1.269090056419373 L 1.03352415561676 0.7774597406387329 L 1.5 0 Z"/>
        </g>
        <text id="Length_-_Middle_" data-name="Length - Middle " class="cls-6" transform="translate(-6.1 16.757) rotate(-90)"><tspan x="0" y="0">ارتفاع - وسط</tspan></text>
      </g>
      <g id="Group_76" data-name="Group 76" transform="translate(-149.921 137.038) rotate(90)">
        <line id="Line_7-3" data-name="Line 7" class="cls-4" x2="109.527" transform="translate(1.775 1.5)"/>
        <g id="Polygon_1-3" data-name="Polygon 1" class="cls-5" transform="translate(112.802 0) rotate(90)">
          <path class="cls-9" d="M1.5,0,3,2.5H0Z"/>
          <path class="cls-10" d="M 0.5579800605773926 1.570029973983765 L 0.9154798984527588 1.78452479839325 L 0.9154798984527588 1.700000047683716 L 1.915480017662048 1.700000047683716 L 1.915480017662048 2.083092451095581 L 2.528990030288696 1.714990019798279 C 2.528990030288696 1.714990019798279 2.779928922653198 2.133218050003052 2.915479898452759 2.359134674072266 L 2.915479898452759 2.359133243560791 L 3 2.5 L 2.067050933837891 2.5 L 1.915480017662048 2.247380495071411 L 1.915480017662048 2.5 C 1.915480017662048 2.5 1.066086053848267 2.5 0.9329519271850586 2.5 L 0.1642882823944092 2.5 L 0.04348993301391602 2.427520036697388 C 0.04348993301391602 2.427520036697388 0.1721124649047852 2.213147401809692 0.3007349967956543 1.998775005340576 L 0.3007349967956543 1.998775005340576 C 0.3016142845153809 1.997309565544128 0.3024935722351074 1.995844125747681 0.303372859954834 1.994378685951233 L 0.3040008544921875 1.993332028388977 C 0.3045032024383545 1.992494702339172 0.3050055503845215 1.991657376289368 0.3055078983306885 1.990820169448853 L 0.5579814910888672 1.570030927658081 Z M 1.5 0 L 2.014495611190796 0.8574926853179932 L 1.864428877830505 0.9475326538085938 L 1.758470058441162 1.124130010604858 L 1.664284586906433 1.067619323730469 L 1.328500032424927 1.269090056419373 L 1.03352415561676 0.7774597406387329 L 1.5 0 Z"/>
        </g>
        <g id="Polygon_2-3" data-name="Polygon 2" class="cls-5" transform="translate(0.026 3) rotate(-90)">
          <path class="cls-9" d="M1.5,0,3,2.5H0Z"/>
          <path class="cls-10" d="M 0.5579800605773926 1.570029973983765 L 0.9154798984527588 1.78452479839325 L 0.9154798984527588 1.700000047683716 L 1.915480017662048 1.700000047683716 L 1.915480017662048 2.083092451095581 L 2.528990030288696 1.714990019798279 C 2.528990030288696 1.714990019798279 2.779928922653198 2.133218050003052 2.915479898452759 2.359134674072266 L 2.915479898452759 2.359133243560791 L 3 2.5 L 2.067050933837891 2.5 L 1.915480017662048 2.247380495071411 L 1.915480017662048 2.5 C 1.915480017662048 2.5 1.066086053848267 2.5 0.9329519271850586 2.5 L 0.1642882823944092 2.5 L 0.04348993301391602 2.427520036697388 C 0.04348993301391602 2.427520036697388 0.1721124649047852 2.213147401809692 0.3007349967956543 1.998775005340576 L 0.3007349967956543 1.998775005340576 C 0.3016142845153809 1.997309565544128 0.3024935722351074 1.995844125747681 0.303372859954834 1.994378685951233 L 0.3040008544921875 1.993332028388977 C 0.3045032024383545 1.992494702339172 0.3050055503845215 1.991657376289368 0.3055078983306885 1.990820169448853 L 0.5579814910888672 1.570030927658081 Z M 1.5 0 L 2.014495611190796 0.8574926853179932 L 1.864428877830505 0.9475326538085938 L 1.758470058441162 1.124130010604858 L 1.664284586906433 1.067619323730469 L 1.328500032424927 1.269090056419373 L 1.03352415561676 0.7774597406387329 L 1.5 0 Z"/>
        </g>
        <text id="Length_-_Right" data-name="Length - Right" class="cls-6" transform="translate(-6.1 14.841) rotate(-90)"><tspan x="0" y="0">ارتفاع - راست</tspan></text>
      </g>
    </g>
    <g id="Group_74" data-name="Group 74">
      <g id="Group_70" data-name="Group 70" transform="translate(-219.558 148.955)">
        <line id="Line_7-4" data-name="Line 7" class="cls-7" x2="72.689" transform="translate(1.749 2.25)"/>
        <g id="Polygon_1-4" data-name="Polygon 1" class="cls-8" transform="translate(75.938 0.75) rotate(90)">
          <path class="cls-9" d="M 2.293519973754883 2.099999904632568 L 0.7064800262451172 2.099999904632568 L 1.5 0.7774666547775269 L 2.293519973754883 2.099999904632568 Z"/>
          <path class="cls-10" d="M 1.5 0 L 3 2.5 L 0 2.5 L 1.5 0 Z"/>
        </g>
        <g id="Polygon_2-4" data-name="Polygon 2" class="cls-8" transform="translate(0 3.75) rotate(-90)">
          <path class="cls-9" d="M 2.293519973754883 2.099999904632568 L 0.7064800262451172 2.099999904632568 L 1.5 0.7774666547775269 L 2.293519973754883 2.099999904632568 Z"/>
          <path class="cls-10" d="M 1.5 0 L 3 2.5 L 0 2.5 L 1.5 0 Z"/>
        </g>
        <text id="Width_-_Top" data-name="Width - Top" class="cls-6" transform="translate(81.796 3.924)"><tspan x="0" y="0">عرض - بالا</tspan></text>
      </g>
      <g id="Group_71" data-name="Group 71" transform="translate(-219.558 191.379)">
        <line id="Line_7-5" data-name="Line 7" class="cls-7" x2="72.689" transform="translate(1.749 2.25)"/>
        <g id="Polygon_1-5" data-name="Polygon 1" class="cls-8" transform="translate(75.938 0.75) rotate(90)">
          <path class="cls-9" d="M 2.293519973754883 2.099999904632568 L 0.7064800262451172 2.099999904632568 L 1.5 0.7774666547775269 L 2.293519973754883 2.099999904632568 Z"/>
          <path class="cls-10" d="M 1.5 0 L 3 2.5 L 0 2.5 L 1.5 0 Z"/>
        </g>
        <g id="Polygon_2-5" data-name="Polygon 2" class="cls-8" transform="translate(0 3.75) rotate(-90)">
          <path class="cls-9" d="M 2.293519973754883 2.099999904632568 L 0.7064800262451172 2.099999904632568 L 1.5 0.7774666547775269 L 2.293519973754883 2.099999904632568 Z"/>
          <path class="cls-10" d="M 1.5 0 L 3 2.5 L 0 2.5 L 1.5 0 Z"/>
        </g>
        <text id="Width_-_Middle" data-name="Width - Middle" class="cls-6" transform="translate(81.796 3.5)"><tspan x="0" y="0">عرض - وسط</tspan></text>
      </g>
      <g id="Group_72" data-name="Group 72" transform="translate(-219.558 233.805)">
        <line id="Line_7-6" data-name="Line 7" class="cls-7" x2="72.689" transform="translate(1.749 2.25)"/>
        <g id="Polygon_1-6" data-name="Polygon 1" class="cls-8" transform="translate(75.938 0.75) rotate(90)">
          <path class="cls-9" d="M 2.293519973754883 2.099999904632568 L 0.7064800262451172 2.099999904632568 L 1.5 0.7774666547775269 L 2.293519973754883 2.099999904632568 Z"/>
          <path class="cls-10" d="M 1.5 0 L 3 2.5 L 0 2.5 L 1.5 0 Z"/>
        </g>
        <g id="Polygon_2-6" data-name="Polygon 2" class="cls-8" transform="translate(0 3.749) rotate(-90)">
          <path class="cls-9" d="M 2.293519973754883 2.099999904632568 L 0.7064800262451172 2.099999904632568 L 1.5 0.7774666547775269 L 2.293519973754883 2.099999904632568 Z"/>
          <path class="cls-10" d="M 1.5 0 L 3 2.5 L 0 2.5 L 1.5 0 Z"/>
        </g>
        <text id="Width_-_Bottom" data-name="Width - Bottom" class="cls-6" transform="translate(81.796 3.575)"><tspan x="0" y="0">عرض - پایین</tspan></text>
      </g>
    </g>
  </g>
</svg>
