<?xml version="1.0" encoding="utf-8"?>
<!-- Generator: Adobe Illustrator 18.0.0, SVG Export Plug-In . SVG Version: 6.00 Build 0)  -->
<!DOCTYPE svg PUBLIC "-//W3C//DTD SVG 1.1//EN" "http://www.w3.org/Graphics/SVG/1.1/DTD/svg11.dtd">
<svg version="1.1" id="Layer_1" xmlns="http://www.w3.org/2000/svg" xmlns:xlink="http://www.w3.org/1999/xlink" x="0px" y="0px"
	 width="510px" height="595.6px" viewBox="0 0 510 595.6" enable-background="new 0 0 510 595.6" xml:space="preserve">
<rect x="28.1" y="28.6" fill="#F6F6F6" stroke="#706F6F" stroke-width="0.5828" stroke-miterlimit="10" width="453.8" height="538.5"/>
<path fill="#DADADA" stroke="#878787" stroke-width="0.9854" stroke-miterlimit="10" d="M102.3,98.2v366.1h305.5V98.2H102.3z
	 M402,457.6H108V105.3h294V457.6z"/>
<polygon fill="#DADADA" stroke="#878787" stroke-width="0.915" stroke-miterlimit="10" points="83.3,82.8 102.3,98.2 407.7,98.2 
	420.6,82.8 "/>
<polygon fill="#DADADA" stroke="#878787" stroke-width="0.915" stroke-miterlimit="10" points="407.7,464.2 420.6,479.6 420.6,82.8 
	407.7,98.2 "/>
<polygon fill="#DADADA" stroke="#878787" stroke-width="0.915" stroke-miterlimit="10" points="420.6,479.6 407.7,464.2 
	102.3,464.2 83.3,479.6 "/>
<polygon fill="#DADADA" stroke="#878787" stroke-width="0.915" stroke-miterlimit="10" points="102.3,98.2 83.3,82.8 83.3,479.6 
	102.3,464.2 "/>
<g>
	<rect x="98.9" y="87.5" fill="#B2B2B2" stroke="#706F6F" stroke-width="0.666" stroke-miterlimit="10" width="310.2" height="6"/>
</g>
<g>
	<g opacity="0.85">
		<path fill="#B2B2B2" stroke="#706F6F" stroke-width="0.6539" stroke-miterlimit="10" d="M107.4,95.5v372.8h0.1
			c0.8,2.6,5.5,4.5,11.2,4.5c5.7,0,10.4-2,11.2-4.5h0.1V95.5H107.4z"/>
	</g>
	<path fill="none" stroke="#878787" stroke-width="0.6539" stroke-miterlimit="10" d="M107.4,119.7c0,0,9,5.6,22.7,0"/>
</g>
<g>
	<g opacity="0.85">
		<path fill="#B2B2B2" stroke="#706F6F" stroke-width="0.6539" stroke-miterlimit="10" d="M130.1,95.5v372.8h0.1
			c0.8,2.6,5.5,4.5,11.2,4.5c5.7,0,10.4-2,11.2-4.5h0.1V95.5H130.1z"/>
	</g>
	<path fill="none" stroke="#878787" stroke-width="0.6539" stroke-miterlimit="10" d="M130.1,119.7c0,0,9,5.6,22.7,0"/>
</g>
<g>
	<g opacity="0.85">
		<path fill="#B2B2B2" stroke="#706F6F" stroke-width="0.6539" stroke-miterlimit="10" d="M152.7,95.5v372.8h0.1
			c0.8,2.6,5.5,4.5,11.2,4.5c5.7,0,10.4-2,11.2-4.5h0.1V95.5H152.7z"/>
	</g>
	<path fill="none" stroke="#878787" stroke-width="0.6539" stroke-miterlimit="10" d="M152.7,119.7c0,0,9,5.6,22.7,0"/>
</g>
<g>
	<g opacity="0.85">
		<path fill="#B2B2B2" stroke="#706F6F" stroke-width="0.6539" stroke-miterlimit="10" d="M175.4,95.5v372.8h0.1
			c0.8,2.6,5.5,4.5,11.2,4.5c5.7,0,10.4-2,11.2-4.5h0.1V95.5H175.4z"/>
	</g>
	<path fill="none" stroke="#878787" stroke-width="0.6539" stroke-miterlimit="10" d="M175.4,119.7c0,0,9,5.6,22.7,0"/>
</g>
<g>
	<g opacity="0.85">
		<path fill="#B2B2B2" stroke="#706F6F" stroke-width="0.6539" stroke-miterlimit="10" d="M198.1,95.5v372.8h0.1
			c0.8,2.6,5.5,4.5,11.2,4.5c5.7,0,10.4-2,11.2-4.5h0.1V95.5H198.1z"/>
	</g>
	<path fill="none" stroke="#878787" stroke-width="0.6539" stroke-miterlimit="10" d="M198.1,119.7c0,0,9,5.6,22.7,0"/>
</g>
<g>
	<g opacity="0.85">
		<path fill="#B2B2B2" stroke="#706F6F" stroke-width="0.6539" stroke-miterlimit="10" d="M220.8,95.5v372.8h0.1
			c0.8,2.6,5.5,4.5,11.2,4.5s10.4-2,11.2-4.5h0.1V95.5H220.8z"/>
	</g>
	<path fill="none" stroke="#878787" stroke-width="0.6539" stroke-miterlimit="10" d="M220.8,119.7c0,0,9,5.6,22.7,0"/>
</g>
<g>
	<g opacity="0.85">
		<path fill="#B2B2B2" stroke="#706F6F" stroke-width="0.6539" stroke-miterlimit="10" d="M243.4,95.5v372.8h0.1
			c0.8,2.6,5.5,4.5,11.2,4.5c5.7,0,10.4-2,11.2-4.5h0.1V95.5H243.4z"/>
	</g>
	<path fill="none" stroke="#878787" stroke-width="0.6539" stroke-miterlimit="10" d="M243.4,119.7c0,0,9,5.6,22.7,0"/>
</g>
<g>
	<g opacity="0.85">
		<path fill="#B2B2B2" stroke="#706F6F" stroke-width="0.6539" stroke-miterlimit="10" d="M266.1,95.5v372.8h0.1
			c0.8,2.6,5.5,4.5,11.2,4.5c5.7,0,10.4-2,11.2-4.5h0.1V95.5H266.1z"/>
	</g>
	<path fill="none" stroke="#878787" stroke-width="0.6539" stroke-miterlimit="10" d="M266.1,119.7c0,0,9,5.6,22.7,0"/>
</g>
<g>
	<g opacity="0.85">
		<path fill="#B2B2B2" stroke="#706F6F" stroke-width="0.6539" stroke-miterlimit="10" d="M288.8,95.5v372.8h0.1
			c0.8,2.6,5.5,4.5,11.2,4.5c5.7,0,10.4-2,11.2-4.5h0.1V95.5H288.8z"/>
	</g>
	<path fill="none" stroke="#878787" stroke-width="0.6539" stroke-miterlimit="10" d="M288.8,119.7c0,0,9,5.6,22.7,0"/>
</g>
<g>
	<g opacity="0.85">
		<path fill="#B2B2B2" stroke="#706F6F" stroke-width="0.6539" stroke-miterlimit="10" d="M311.5,95.5v372.8h0.1
			c0.8,2.6,5.5,4.5,11.2,4.5s10.4-2,11.2-4.5h0.1V95.5H311.5z"/>
	</g>
	<path fill="none" stroke="#878787" stroke-width="0.6539" stroke-miterlimit="10" d="M311.5,119.7c0,0,9,5.6,22.7,0"/>
</g>
<g>
	<g opacity="0.85">
		<path fill="#B2B2B2" stroke="#706F6F" stroke-width="0.6539" stroke-miterlimit="10" d="M334.2,95.5v372.8h0.1
			c0.8,2.6,5.5,4.5,11.2,4.5s10.4-2,11.2-4.5h0.1V95.5H334.2z"/>
	</g>
	<path fill="none" stroke="#878787" stroke-width="0.6539" stroke-miterlimit="10" d="M334.2,119.7c0,0,9,5.6,22.7,0"/>
</g>
<g>
	<g opacity="0.85">
		<path fill="#B2B2B2" stroke="#706F6F" stroke-width="0.6539" stroke-miterlimit="10" d="M356.8,95.5v372.8h0.1
			c0.8,2.6,5.5,4.5,11.2,4.5s10.4-2,11.2-4.5h0.1V95.5H356.8z"/>
	</g>
	<path fill="none" stroke="#878787" stroke-width="0.6539" stroke-miterlimit="10" d="M356.8,119.7c0,0,9,5.6,22.7,0"/>
</g>
<g>
	<g opacity="0.85">
		<path fill="#B2B2B2" stroke="#706F6F" stroke-width="0.6539" stroke-miterlimit="10" d="M379.5,95.5v372.8h0.1
			c0.8,2.6,5.5,4.5,11.2,4.5s10.4-2,11.2-4.5h0.1V95.5H379.5z"/>
	</g>
	<path fill="none" stroke="#878787" stroke-width="0.6539" stroke-miterlimit="10" d="M379.5,119.7c0,0,9,5.6,22.7,0"/>
</g>
</svg>
