<?xml version="1.0" encoding="utf-8"?>
<!-- Generator: Adobe Illustrator 18.0.0, SVG Export Plug-In . SVG Version: 6.00 Build 0)  -->
<!DOCTYPE svg PUBLIC "-//W3C//DTD SVG 1.1//EN" "http://www.w3.org/Graphics/SVG/1.1/DTD/svg11.dtd">
<svg version="1.1" id="Layer_1" xmlns="http://www.w3.org/2000/svg" xmlns:xlink="http://www.w3.org/1999/xlink" x="0px" y="0px"
	 width="510px" height="595.6px" viewBox="0 0 510 595.6" enable-background="new 0 0 510 595.6" xml:space="preserve">
<rect x="30.1" y="23.5" fill="#F6F6F6" stroke="#717070" stroke-width="0.5855" stroke-miterlimit="10" width="453.8" height="543.5"/>
<path fill="#DADADA" stroke="#878787" stroke-width="0.9508" stroke-miterlimit="10" d="M109.6,116.1v353.3h294.8V116.1H109.6z
	 M396.9,462.9H117V122.9h279.8V462.9z"/>
<polygon fill="#9E9D9C" stroke="#878787" stroke-width="0.7316" stroke-miterlimit="10" points="473.8,61 483.9,52.3 30.4,52.3 
	39.8,61 472.5,61 "/>
<g>
	<g>
		<g opacity="0.85">
			<path fill="#B2B2B2" stroke="#706F6F" stroke-width="0.7603" stroke-miterlimit="10" d="M64.3,49.5v504.1h0.1
				c0.8,3.5,5.5,6.1,11.2,6.1c5.7,0,10.4-2.7,11.2-6.1h0.1V49.5H64.3z"/>
		</g>
		<path fill="none" stroke="#878787" stroke-width="0.7603" stroke-miterlimit="10" d="M64.3,75.4c0,0,9,7.5,22.7,0"/>
	</g>
	<g>
		<g opacity="0.85">
			<path fill="#B2B2B2" stroke="#706F6F" stroke-width="0.7603" stroke-miterlimit="10" d="M86.9,49.5v504.1h0.1
				c0.8,3.5,5.5,6.1,11.2,6.1s10.4-2.7,11.2-6.1h0.1V49.5H86.9z"/>
		</g>
		<path fill="none" stroke="#878787" stroke-width="0.7603" stroke-miterlimit="10" d="M86.9,75.4c0,0,9,7.5,22.7,0"/>
	</g>
	<g>
		<g opacity="0.85">
			<path fill="#B2B2B2" stroke="#706F6F" stroke-width="0.7603" stroke-miterlimit="10" d="M109.6,49.5v504.1h0.1
				c0.8,3.5,5.5,6.1,11.2,6.1s10.4-2.7,11.2-6.1h0.1V49.5H109.6z"/>
		</g>
		<path fill="none" stroke="#878787" stroke-width="0.7603" stroke-miterlimit="10" d="M109.6,75.4c0,0,9,7.5,22.7,0"/>
	</g>
	<g>
		<g opacity="0.85">
			<path fill="#B2B2B2" stroke="#706F6F" stroke-width="0.7603" stroke-miterlimit="10" d="M132.3,49.5v504.1h0.1
				c0.8,3.5,5.5,6.1,11.2,6.1c5.7,0,10.4-2.7,11.2-6.1h0.1V49.5H132.3z"/>
		</g>
		<path fill="none" stroke="#878787" stroke-width="0.7603" stroke-miterlimit="10" d="M132.3,75.4c0,0,9,7.5,22.7,0"/>
	</g>
	<g>
		<g opacity="0.85">
			<path fill="#B2B2B2" stroke="#706F6F" stroke-width="0.7603" stroke-miterlimit="10" d="M155,49.5v504.1h0.1
				c0.8,3.5,5.5,6.1,11.2,6.1c5.7,0,10.4-2.7,11.2-6.1h0.1V49.5H155z"/>
		</g>
		<path fill="none" stroke="#878787" stroke-width="0.7603" stroke-miterlimit="10" d="M155,75.4c0,0,9,7.5,22.7,0"/>
	</g>
	<g>
		<g opacity="0.85">
			<path fill="#B2B2B2" stroke="#706F6F" stroke-width="0.7603" stroke-miterlimit="10" d="M177.6,49.5v504.1h0.1
				c0.8,3.5,5.5,6.1,11.2,6.1c5.7,0,10.4-2.7,11.2-6.1h0.1V49.5H177.6z"/>
		</g>
		<path fill="none" stroke="#878787" stroke-width="0.7603" stroke-miterlimit="10" d="M177.6,75.4c0,0,9,7.5,22.7,0"/>
	</g>
	<g>
		<g opacity="0.85">
			<path fill="#B2B2B2" stroke="#706F6F" stroke-width="0.7603" stroke-miterlimit="10" d="M200.3,49.5v504.1h0.1
				c0.8,3.5,5.5,6.1,11.2,6.1c5.7,0,10.4-2.7,11.2-6.1h0.1V49.5H200.3z"/>
		</g>
		<path fill="none" stroke="#878787" stroke-width="0.7603" stroke-miterlimit="10" d="M200.3,75.4c0,0,9,7.5,22.7,0"/>
	</g>
	<g>
		<g opacity="0.85">
			<path fill="#B2B2B2" stroke="#706F6F" stroke-width="0.7603" stroke-miterlimit="10" d="M223,49.5v504.1h0.1
				c0.8,3.5,5.5,6.1,11.2,6.1c5.7,0,10.4-2.7,11.2-6.1h0.1V49.5H223z"/>
		</g>
		<path fill="none" stroke="#878787" stroke-width="0.7603" stroke-miterlimit="10" d="M223,75.4c0,0,9,7.5,22.7,0"/>
	</g>
	<g>
		<g opacity="0.85">
			<path fill="#B2B2B2" stroke="#706F6F" stroke-width="0.7603" stroke-miterlimit="10" d="M245.7,49.5v504.1h0.1
				c0.8,3.5,5.5,6.1,11.2,6.1c5.7,0,10.4-2.7,11.2-6.1h0.1V49.5H245.7z"/>
		</g>
		<path fill="none" stroke="#878787" stroke-width="0.7603" stroke-miterlimit="10" d="M245.7,75.4c0,0,9,7.5,22.7,0"/>
	</g>
	<g>
		<g opacity="0.85">
			<path fill="#B2B2B2" stroke="#706F6F" stroke-width="0.7603" stroke-miterlimit="10" d="M268.3,49.5v504.1h0.1
				c0.8,3.5,5.5,6.1,11.2,6.1c5.7,0,10.4-2.7,11.2-6.1h0.1V49.5H268.3z"/>
		</g>
		<path fill="none" stroke="#878787" stroke-width="0.7603" stroke-miterlimit="10" d="M268.3,75.4c0,0,9,7.5,22.7,0"/>
	</g>
	<g>
		<g opacity="0.85">
			<path fill="#B2B2B2" stroke="#706F6F" stroke-width="0.7603" stroke-miterlimit="10" d="M291,49.5v504.1h0.1
				c0.8,3.5,5.5,6.1,11.2,6.1c5.7,0,10.4-2.7,11.2-6.1h0.1V49.5H291z"/>
		</g>
		<path fill="none" stroke="#878787" stroke-width="0.7603" stroke-miterlimit="10" d="M291,75.4c0,0,9,7.5,22.7,0"/>
	</g>
	<g>
		<g opacity="0.85">
			<path fill="#B2B2B2" stroke="#706F6F" stroke-width="0.7603" stroke-miterlimit="10" d="M313.7,49.5v504.1h0.1
				c0.8,3.5,5.5,6.1,11.2,6.1c5.7,0,10.4-2.7,11.2-6.1h0.1V49.5H313.7z"/>
		</g>
		<path fill="none" stroke="#878787" stroke-width="0.7603" stroke-miterlimit="10" d="M313.7,75.4c0,0,9,7.5,22.7,0"/>
	</g>
	<g>
		<g opacity="0.85">
			<path fill="#B2B2B2" stroke="#706F6F" stroke-width="0.7603" stroke-miterlimit="10" d="M336.4,49.5v504.1h0.1
				c0.8,3.5,5.5,6.1,11.2,6.1s10.4-2.7,11.2-6.1h0.1V49.5H336.4z"/>
		</g>
		<path fill="none" stroke="#878787" stroke-width="0.7603" stroke-miterlimit="10" d="M336.4,75.4c0,0,9,7.5,22.7,0"/>
	</g>
	<g>
		<g opacity="0.85">
			<path fill="#B2B2B2" stroke="#706F6F" stroke-width="0.7603" stroke-miterlimit="10" d="M359,49.5v504.1h0.1
				c0.8,3.5,5.5,6.1,11.2,6.1s10.4-2.7,11.2-6.1h0.1V49.5H359z"/>
		</g>
		<path fill="none" stroke="#878787" stroke-width="0.7603" stroke-miterlimit="10" d="M359,75.4c0,0,9,7.5,22.7,0"/>
	</g>
	<g>
		<g opacity="0.85">
			<path fill="#B2B2B2" stroke="#706F6F" stroke-width="0.7603" stroke-miterlimit="10" d="M381.7,49.5v504.1h0.1
				c0.8,3.5,5.5,6.1,11.2,6.1s10.4-2.7,11.2-6.1h0.1V49.5H381.7z"/>
		</g>
		<path fill="none" stroke="#878787" stroke-width="0.7603" stroke-miterlimit="10" d="M381.7,75.4c0,0,9,7.5,22.7,0"/>
	</g>
	<g>
		<g opacity="0.85">
			<path fill="#B2B2B2" stroke="#706F6F" stroke-width="0.7603" stroke-miterlimit="10" d="M404.4,49.5v504.1h0.1
				c0.8,3.5,5.5,6.1,11.2,6.1s10.4-2.7,11.2-6.1h0.1V49.5H404.4z"/>
		</g>
		<path fill="none" stroke="#878787" stroke-width="0.7603" stroke-miterlimit="10" d="M404.4,75.4c0,0,9,7.5,22.7,0"/>
	</g>
	<g>
		<g opacity="0.85">
			<path fill="#B2B2B2" stroke="#706F6F" stroke-width="0.7603" stroke-miterlimit="10" d="M427.1,49.5v504.1h0.1
				c0.8,3.5,5.5,6.1,11.2,6.1s10.4-2.7,11.2-6.1h0.1V49.5H427.1z"/>
		</g>
		<path fill="none" stroke="#878787" stroke-width="0.7603" stroke-miterlimit="10" d="M427.1,75.4c0,0,9,7.5,22.7,0"/>
	</g>
</g>
<rect x="30.1" y="23.1" fill="#C7C6C7" stroke="#717070" stroke-width="0.5743" stroke-miterlimit="10" enable-background="new    " width="453.8" height="29.2"/>
</svg>
