<?xml version="1.0" encoding="utf-8"?>
<!-- Generator: Adobe Illustrator 18.0.0, SVG Export Plug-In . SVG Version: 6.00 Build 0)  -->
<!DOCTYPE svg PUBLIC "-//W3C//DTD SVG 1.1//EN" "http://www.w3.org/Graphics/SVG/1.1/DTD/svg11.dtd">
<svg version="1.1" id="Layer_1" xmlns="http://www.w3.org/2000/svg" xmlns:xlink="http://www.w3.org/1999/xlink" x="0px" y="0px"
	 width="510px" height="595.6px" viewBox="0 0 510 595.6" enable-background="new 0 0 510 595.6" xml:space="preserve">
<rect x="28.1" y="24.7" fill="#F6F6F6" stroke="#717070" stroke-width="0.5849" stroke-miterlimit="10" width="453.8" height="542.3"/>
<path fill="#DADADA" stroke="#878787" stroke-width="0.9629" stroke-miterlimit="10" d="M105.7,112.8v357.7h298.5V112.8H105.7z
	 M396.7,464H113.4V119.7h283.4V464z"/>
<g>
	<g>
		<g opacity="0.85">
			<path fill="#B2B2B2" stroke="#706F6F" stroke-width="0.7483" stroke-miterlimit="10" d="M59.8,71.7v482.1H60
				c0.8,3.3,5.6,5.9,11.3,5.9s10.5-2.5,11.3-5.9h0.1V71.7H59.8z"/>
		</g>
		<path fill="none" stroke="#878787" stroke-width="0.7483" stroke-miterlimit="10" d="M59.8,96.5c0,0,9.1,7.2,23,0"/>
	</g>
	<g>
		<g opacity="0.85">
			<path fill="#B2B2B2" stroke="#706F6F" stroke-width="0.7483" stroke-miterlimit="10" d="M82.8,71.7v482.1h0.1
				c0.8,3.3,5.6,5.9,11.3,5.9c5.8,0,10.5-2.5,11.3-5.9h0.1V71.7H82.8z"/>
		</g>
		<path fill="none" stroke="#878787" stroke-width="0.7483" stroke-miterlimit="10" d="M82.8,96.5c0,0,9.1,7.2,23,0"/>
	</g>
	<g>
		<g opacity="0.85">
			<path fill="#B2B2B2" stroke="#706F6F" stroke-width="0.7483" stroke-miterlimit="10" d="M105.7,71.7v482.1h0.1
				c0.8,3.3,5.6,5.9,11.3,5.9c5.8,0,10.5-2.5,11.3-5.9h0.1V71.7H105.7z"/>
		</g>
		<path fill="none" stroke="#878787" stroke-width="0.7483" stroke-miterlimit="10" d="M105.7,96.5c0,0,9.1,7.2,23,0"/>
	</g>
	<g>
		<g opacity="0.85">
			<path fill="#B2B2B2" stroke="#706F6F" stroke-width="0.7483" stroke-miterlimit="10" d="M128.7,71.7v482.1h0.1
				c0.8,3.3,5.6,5.9,11.3,5.9s10.5-2.5,11.3-5.9h0.1V71.7H128.7z"/>
		</g>
		<path fill="none" stroke="#878787" stroke-width="0.7483" stroke-miterlimit="10" d="M128.7,96.5c0,0,9.1,7.2,23,0"/>
	</g>
	<g>
		<g opacity="0.85">
			<path fill="#B2B2B2" stroke="#706F6F" stroke-width="0.7483" stroke-miterlimit="10" d="M151.7,71.7v482.1h0.1
				c0.8,3.3,5.6,5.9,11.3,5.9s10.5-2.5,11.3-5.9h0.1V71.7H151.7z"/>
		</g>
		<path fill="none" stroke="#878787" stroke-width="0.7483" stroke-miterlimit="10" d="M151.7,96.5c0,0,9.1,7.2,23,0"/>
	</g>
	<g>
		<g opacity="0.85">
			<path fill="#B2B2B2" stroke="#706F6F" stroke-width="0.7483" stroke-miterlimit="10" d="M174.6,71.7v482.1h0.1
				c0.8,3.3,5.6,5.9,11.3,5.9s10.5-2.5,11.3-5.9h0.1V71.7H174.6z"/>
		</g>
		<path fill="none" stroke="#878787" stroke-width="0.7483" stroke-miterlimit="10" d="M174.6,96.5c0,0,9.1,7.2,23,0"/>
	</g>
	<g>
		<g opacity="0.85">
			<path fill="#B2B2B2" stroke="#706F6F" stroke-width="0.7483" stroke-miterlimit="10" d="M197.6,71.7v482.1h0.1
				c0.8,3.3,5.6,5.9,11.3,5.9s10.5-2.5,11.3-5.9h0.1V71.7H197.6z"/>
		</g>
		<path fill="none" stroke="#878787" stroke-width="0.7483" stroke-miterlimit="10" d="M197.6,96.5c0,0,9.1,7.2,23,0"/>
	</g>
	<g>
		<g opacity="0.85">
			<path fill="#B2B2B2" stroke="#706F6F" stroke-width="0.7483" stroke-miterlimit="10" d="M220.6,71.7v482.1h0.1
				c0.8,3.3,5.6,5.9,11.3,5.9s10.5-2.5,11.3-5.9h0.1V71.7H220.6z"/>
		</g>
		<path fill="none" stroke="#878787" stroke-width="0.7483" stroke-miterlimit="10" d="M220.6,96.5c0,0,9.1,7.2,23,0"/>
	</g>
	<g>
		<g opacity="0.85">
			<path fill="#B2B2B2" stroke="#706F6F" stroke-width="0.7483" stroke-miterlimit="10" d="M243.5,71.7v482.1h0.1
				c0.8,3.3,5.6,5.9,11.3,5.9s10.5-2.5,11.3-5.9h0.1V71.7H243.5z"/>
		</g>
		<path fill="none" stroke="#878787" stroke-width="0.7483" stroke-miterlimit="10" d="M243.5,96.5c0,0,9.1,7.2,23,0"/>
	</g>
	<g>
		<g opacity="0.85">
			<path fill="#B2B2B2" stroke="#706F6F" stroke-width="0.7483" stroke-miterlimit="10" d="M266.5,71.7v482.1h0.1
				c0.8,3.3,5.6,5.9,11.3,5.9s10.5-2.5,11.3-5.9h0.1V71.7H266.5z"/>
		</g>
		<path fill="none" stroke="#878787" stroke-width="0.7483" stroke-miterlimit="10" d="M266.5,96.5c0,0,9.1,7.2,23,0"/>
	</g>
	<g>
		<g opacity="0.85">
			<path fill="#B2B2B2" stroke="#706F6F" stroke-width="0.7483" stroke-miterlimit="10" d="M289.4,71.7v482.1h0.1
				c0.8,3.3,5.6,5.9,11.3,5.9c5.8,0,10.5-2.5,11.3-5.9h0.1V71.7H289.4z"/>
		</g>
		<path fill="none" stroke="#878787" stroke-width="0.7483" stroke-miterlimit="10" d="M289.4,96.5c0,0,9.1,7.2,23,0"/>
	</g>
	<g>
		<g opacity="0.85">
			<path fill="#B2B2B2" stroke="#706F6F" stroke-width="0.7483" stroke-miterlimit="10" d="M312.4,71.7v482.1h0.1
				c0.8,3.3,5.6,5.9,11.3,5.9c5.8,0,10.5-2.5,11.3-5.9h0.1V71.7H312.4z"/>
		</g>
		<path fill="none" stroke="#878787" stroke-width="0.7483" stroke-miterlimit="10" d="M312.4,96.5c0,0,9.1,7.2,23,0"/>
	</g>
	<g>
		<g opacity="0.85">
			<path fill="#B2B2B2" stroke="#706F6F" stroke-width="0.7483" stroke-miterlimit="10" d="M335.4,71.7v482.1h0.1
				c0.8,3.3,5.6,5.9,11.3,5.9c5.8,0,10.5-2.5,11.3-5.9h0.1V71.7H335.4z"/>
		</g>
		<path fill="none" stroke="#878787" stroke-width="0.7483" stroke-miterlimit="10" d="M335.4,96.5c0,0,9.1,7.2,23,0"/>
	</g>
	<g>
		<g opacity="0.85">
			<path fill="#B2B2B2" stroke="#706F6F" stroke-width="0.7483" stroke-miterlimit="10" d="M358.3,71.7v482.1h0.1
				c0.8,3.3,5.6,5.9,11.3,5.9c5.8,0,10.5-2.5,11.3-5.9h0.1V71.7H358.3z"/>
		</g>
		<path fill="none" stroke="#878787" stroke-width="0.7483" stroke-miterlimit="10" d="M358.3,96.5c0,0,9.1,7.2,23,0"/>
	</g>
	<g>
		<g opacity="0.85">
			<path fill="#B2B2B2" stroke="#706F6F" stroke-width="0.7483" stroke-miterlimit="10" d="M381.3,71.7v482.1h0.1
				c0.8,3.3,5.6,5.9,11.3,5.9c5.8,0,10.5-2.5,11.3-5.9h0.1V71.7H381.3z"/>
		</g>
		<path fill="none" stroke="#878787" stroke-width="0.7483" stroke-miterlimit="10" d="M381.3,96.5c0,0,9.1,7.2,23,0"/>
	</g>
	<g>
		<g opacity="0.85">
			<path fill="#B2B2B2" stroke="#706F6F" stroke-width="0.7483" stroke-miterlimit="10" d="M404.3,71.7v482.1h0.1
				c0.8,3.3,5.6,5.9,11.3,5.9s10.5-2.5,11.3-5.9h0.1V71.7H404.3z"/>
		</g>
		<path fill="none" stroke="#878787" stroke-width="0.7483" stroke-miterlimit="10" d="M404.3,96.5c0,0,9.1,7.2,23,0"/>
	</g>
	<g>
		<g opacity="0.85">
			<path fill="#B2B2B2" stroke="#706F6F" stroke-width="0.7483" stroke-miterlimit="10" d="M427.2,71.7v482.1h0.1
				c0.8,3.3,5.6,5.9,11.3,5.9c5.8,0,10.5-2.5,11.3-5.9h0.1V71.7H427.2z"/>
		</g>
		<path fill="none" stroke="#878787" stroke-width="0.7483" stroke-miterlimit="10" d="M427.2,96.5c0,0,9.1,7.2,23,0"/>
	</g>
</g>
<g>
	
		<rect x="56.6" y="63.4" fill="#B2B2B2" stroke="#706F6F" stroke-width="0.7389" stroke-miterlimit="10" width="396.9" height="5.9"/>
</g>
</svg>
