<?xml version="1.0" encoding="utf-8"?>
<!-- Generator: Adobe Illustrator 18.0.0, SVG Export Plug-In . SVG Version: 6.00 Build 0)  -->
<!DOCTYPE svg PUBLIC "-//W3C//DTD SVG 1.1//EN" "http://www.w3.org/Graphics/SVG/1.1/DTD/svg11.dtd">
<svg version="1.1" id="Layer_1" xmlns="http://www.w3.org/2000/svg" xmlns:xlink="http://www.w3.org/1999/xlink" x="0px" y="0px"
	 width="510px" height="680px" viewBox="0 0 510 680" enable-background="new 0 0 510 680" xml:space="preserve">
<rect x="133.1" y="103" fill="none" stroke="#878787" stroke-width="1.39" stroke-miterlimit="10" width="243.8" height="350.9"/>
<rect x="145.4" y="116.4" fill="none" stroke="#878787" stroke-width="1.2796" stroke-miterlimit="10" width="219.2" height="324.1"/>
<rect x="113.3" y="80" fill="none" stroke="#878787" stroke-width="2.8983" stroke-miterlimit="10" width="283.5" height="396.9"/>
<g>
	
		<rect x="133.1" y="107.1" fill="#B2B2B2" stroke="#706F6F" stroke-width="0.9493" stroke-miterlimit="10" width="243.8" height="6.2"/>
</g>
<g opacity="0.8">
	<g>
		<g>
			<path fill="#B2B2B2" stroke="#706F6F" stroke-width="0.8212" stroke-miterlimit="10" d="M133.1,116.4v329.5h0.2
				c1.1,3,7.4,5.3,15,5.3s13.9-2.3,15-5.3h0.2V116.4H133.1z"/>
		</g>
		<path fill="none" stroke="#878787" stroke-width="0.8212" stroke-miterlimit="10" d="M133.1,144.8c0,0,12.1,6.5,30.5,0"/>
	</g>
	<g>
		<g>
			<path fill="#B2B2B2" stroke="#706F6F" stroke-width="0.8212" stroke-miterlimit="10" d="M163.6,116.4v329.5h0.2
				c1.1,3,7.4,5.3,15,5.3s13.9-2.3,15-5.3h0.2V116.4H163.6z"/>
		</g>
		<path fill="none" stroke="#878787" stroke-width="0.8212" stroke-miterlimit="10" d="M163.6,144.8c0,0,12.1,6.5,30.5,0"/>
	</g>
	<g>
		<g>
			<path fill="#B2B2B2" stroke="#706F6F" stroke-width="0.8212" stroke-miterlimit="10" d="M194.1,116.4v329.5h0.2
				c1.1,3,7.4,5.3,15,5.3s13.9-2.3,15-5.3h0.2V116.4H194.1z"/>
		</g>
		<path fill="none" stroke="#878787" stroke-width="0.8212" stroke-miterlimit="10" d="M194.1,144.8c0,0,12.1,6.5,30.5,0"/>
	</g>
	<g>
		<g>
			<path fill="#B2B2B2" stroke="#706F6F" stroke-width="0.8212" stroke-miterlimit="10" d="M224.5,116.4v329.5h0.2
				c1.1,3,7.4,5.3,15,5.3c7.6,0,13.9-2.3,15-5.3h0.2V116.4H224.5z"/>
		</g>
		<path fill="none" stroke="#878787" stroke-width="0.8212" stroke-miterlimit="10" d="M224.5,144.8c0,0,12.1,6.5,30.5,0"/>
	</g>
	<g>
		<g>
			<path fill="#B2B2B2" stroke="#706F6F" stroke-width="0.8212" stroke-miterlimit="10" d="M255,116.4v329.5h0.2
				c1.1,3,7.4,5.3,15,5.3c7.6,0,13.9-2.3,15-5.3h0.2V116.4H255z"/>
		</g>
		<path fill="none" stroke="#878787" stroke-width="0.8212" stroke-miterlimit="10" d="M255,144.8c0,0,12.1,6.5,30.5,0"/>
	</g>
	<g>
		<g>
			<path fill="#B2B2B2" stroke="#706F6F" stroke-width="0.8212" stroke-miterlimit="10" d="M285.5,116.4v329.5h0.2
				c1.1,3,7.4,5.3,15,5.3c7.6,0,13.9-2.3,15-5.3h0.2V116.4H285.5z"/>
		</g>
		<path fill="none" stroke="#878787" stroke-width="0.8212" stroke-miterlimit="10" d="M285.5,144.8c0,0,12.1,6.5,30.5,0"/>
	</g>
	<g>
		<g>
			<path fill="#B2B2B2" stroke="#706F6F" stroke-width="0.8212" stroke-miterlimit="10" d="M315.9,116.4v329.5h0.2
				c1.1,3,7.4,5.3,15,5.3c7.6,0,13.9-2.3,15-5.3h0.2V116.4H315.9z"/>
		</g>
		<path fill="none" stroke="#878787" stroke-width="0.8212" stroke-miterlimit="10" d="M315.9,144.8c0,0,12.1,6.5,30.5,0"/>
	</g>
	<g>
		<g>
			<path fill="#B2B2B2" stroke="#706F6F" stroke-width="0.8212" stroke-miterlimit="10" d="M346.4,116.4v329.5h0.2
				c1.1,3,7.4,5.3,15,5.3c7.6,0,13.9-2.3,15-5.3h0.2V116.4H346.4z"/>
		</g>
		<path fill="none" stroke="#878787" stroke-width="0.8212" stroke-miterlimit="10" d="M346.4,144.8c0,0,12.1,6.5,30.5,0"/>
	</g>
</g>
</svg>
