<?xml version="1.0" encoding="utf-8"?>
<!-- Generator: Adobe Illustrator 18.0.0, SVG Export Plug-In . SVG Version: 6.00 Build 0)  -->
<!DOCTYPE svg PUBLIC "-//W3C//DTD SVG 1.1//EN" "http://www.w3.org/Graphics/SVG/1.1/DTD/svg11.dtd">
<svg version="1.1" id="Layer_1" xmlns="http://www.w3.org/2000/svg" xmlns:xlink="http://www.w3.org/1999/xlink" x="0px" y="0px"
	 width="510px" height="680px" viewBox="0 0 510 680" enable-background="new 0 0 510 680" xml:space="preserve">
<g>
	
		<rect x="35.3" y="20.6" fill="#B2B2B2" stroke="#706F6F" stroke-width="1.2756" stroke-miterlimit="10" width="439.4" height="6.2"/>
</g>
<g>
	<g opacity="0.8">
		<g>
			<g>
				<path fill="#B2B2B2" stroke="#706F6F" stroke-width="0.8316" stroke-miterlimit="10" d="M50.3,30.7v532.5h0.2
					c1.1,3,7.7,5.3,15.6,5.3s14.4-2.3,15.6-5.3h0.2V30.7H50.3z"/>
			</g>
			<path fill="none" stroke="#878787" stroke-width="0.8316" stroke-miterlimit="10" d="M50.3,58.8c0,0,12.5,6.5,31.5,0"/>
		</g>
		<g>
			<g>
				<path fill="#B2B2B2" stroke="#706F6F" stroke-width="0.8316" stroke-miterlimit="10" d="M81.8,30.7v532.5H82
					c1.1,3,7.7,5.3,15.6,5.3s14.4-2.3,15.6-5.3h0.2V30.7H81.8z"/>
			</g>
			<path fill="none" stroke="#878787" stroke-width="0.8316" stroke-miterlimit="10" d="M81.8,58.8c0,0,12.5,6.5,31.5,0"/>
		</g>
		<g>
			<g>
				<path fill="#B2B2B2" stroke="#706F6F" stroke-width="0.8316" stroke-miterlimit="10" d="M113.3,30.7v532.5h0.2
					c1.1,3,7.7,5.3,15.6,5.3s14.4-2.3,15.6-5.3h0.2V30.7H113.3z"/>
			</g>
			<path fill="none" stroke="#878787" stroke-width="0.8316" stroke-miterlimit="10" d="M113.3,58.8c0,0,12.5,6.5,31.5,0"/>
		</g>
		<g>
			<g>
				<path fill="#B2B2B2" stroke="#706F6F" stroke-width="0.8316" stroke-miterlimit="10" d="M144.8,30.7v532.5h0.2
					c1.1,3,7.7,5.3,15.6,5.3s14.4-2.3,15.6-5.3h0.2V30.7H144.8z"/>
			</g>
			<path fill="none" stroke="#878787" stroke-width="0.8316" stroke-miterlimit="10" d="M144.8,58.8c0,0,12.5,6.5,31.5,0"/>
		</g>
		<g>
			<g>
				<path fill="#B2B2B2" stroke="#706F6F" stroke-width="0.8316" stroke-miterlimit="10" d="M176.3,30.7v532.5h0.2
					c1.1,3,7.7,5.3,15.6,5.3c7.9,0,14.4-2.3,15.6-5.3h0.2V30.7H176.3z"/>
			</g>
			<path fill="none" stroke="#878787" stroke-width="0.8316" stroke-miterlimit="10" d="M176.3,58.8c0,0,12.5,6.5,31.5,0"/>
		</g>
		<g>
			<g>
				<path fill="#B2B2B2" stroke="#706F6F" stroke-width="0.8316" stroke-miterlimit="10" d="M207.8,30.7v532.5h0.2
					c1.1,3,7.7,5.3,15.6,5.3s14.4-2.3,15.6-5.3h0.2V30.7H207.8z"/>
			</g>
			<path fill="none" stroke="#878787" stroke-width="0.8316" stroke-miterlimit="10" d="M207.8,58.8c0,0,12.5,6.5,31.5,0"/>
		</g>
		<g>
			<g>
				<path fill="#B2B2B2" stroke="#706F6F" stroke-width="0.8316" stroke-miterlimit="10" d="M239.3,30.7v532.5h0.2
					c1.1,3,7.7,5.3,15.6,5.3s14.4-2.3,15.6-5.3h0.2V30.7H239.3z"/>
			</g>
			<path fill="none" stroke="#878787" stroke-width="0.8316" stroke-miterlimit="10" d="M239.3,58.8c0,0,12.5,6.5,31.5,0"/>
		</g>
		<g>
			<g>
				<path fill="#B2B2B2" stroke="#706F6F" stroke-width="0.8316" stroke-miterlimit="10" d="M270.7,30.7v532.5h0.2
					c1.1,3,7.7,5.3,15.6,5.3s14.4-2.3,15.6-5.3h0.2V30.7H270.7z"/>
			</g>
			<path fill="none" stroke="#878787" stroke-width="0.8316" stroke-miterlimit="10" d="M270.7,58.8c0,0,12.5,6.5,31.5,0"/>
		</g>
		<g>
			<g>
				<path fill="#B2B2B2" stroke="#706F6F" stroke-width="0.8316" stroke-miterlimit="10" d="M302.2,30.7v532.5h0.2
					c1.1,3,7.7,5.3,15.6,5.3s14.4-2.3,15.6-5.3h0.2V30.7H302.2z"/>
			</g>
			<path fill="none" stroke="#878787" stroke-width="0.8316" stroke-miterlimit="10" d="M302.2,58.8c0,0,12.5,6.5,31.5,0"/>
		</g>
	</g>
	<g opacity="0.8">
		<g>
			<path fill="#B2B2B2" stroke="#706F6F" stroke-width="0.8316" stroke-miterlimit="10" d="M333.7,30.7v532.5h0.2
				c1.1,3,7.7,5.3,15.6,5.3s14.4-2.3,15.6-5.3h0.2V30.7H333.7z"/>
		</g>
		<path fill="none" stroke="#878787" stroke-width="0.8316" stroke-miterlimit="10" d="M333.7,58.8c0,0,12.5,6.5,31.5,0"/>
	</g>
	<g opacity="0.8">
		<g>
			<path fill="#B2B2B2" stroke="#706F6F" stroke-width="0.8316" stroke-miterlimit="10" d="M365.2,30.7v532.5h0.2
				c1.1,3,7.7,5.3,15.6,5.3s14.4-2.3,15.6-5.3h0.2V30.7H365.2z"/>
		</g>
		<path fill="none" stroke="#878787" stroke-width="0.8316" stroke-miterlimit="10" d="M365.2,58.8c0,0,12.5,6.5,31.5,0"/>
	</g>
	<g opacity="0.8">
		<g>
			<path fill="#B2B2B2" stroke="#706F6F" stroke-width="0.8316" stroke-miterlimit="10" d="M396.7,30.7v532.5h0.2
				c1.1,3,7.7,5.3,15.6,5.3s14.4-2.3,15.6-5.3h0.2V30.7H396.7z"/>
		</g>
		<path fill="none" stroke="#878787" stroke-width="0.8316" stroke-miterlimit="10" d="M396.7,58.8c0,0,12.5,6.5,31.5,0"/>
	</g>
	<g opacity="0.8">
		<g>
			<path fill="#B2B2B2" stroke="#706F6F" stroke-width="0.8316" stroke-miterlimit="10" d="M428.2,30.7v532.5h0.2
				c1.1,3,7.7,5.3,15.6,5.3s14.4-2.3,15.6-5.3h0.2V30.7H428.2z"/>
		</g>
		<path fill="none" stroke="#878787" stroke-width="0.8316" stroke-miterlimit="10" d="M428.2,58.8c0,0,12.5,6.5,31.5,0"/>
	</g>
</g>
<rect x="133.1" y="103" fill="none" stroke="#878787" stroke-width="1.3187" stroke-miterlimit="10" width="243.8" height="350.9"/>
<rect x="145.4" y="116.4" fill="none" stroke="#878787" stroke-width="1.2796" stroke-miterlimit="10" width="219.2" height="324.1"/>
<rect x="113.3" y="80" fill="none" stroke="#878787" stroke-width="2.8983" stroke-miterlimit="10" width="283.5" height="396.9"/>
</svg>
