<svg xmlns="http://www.w3.org/2000/svg" width="564px" height="564px" version="1.1" viewBox="160 160 432 432" fill="#f90606">
 <g>
  <path d="m376 164.79c-116.5 0-211.69 94.715-211.69 211.21 0 116.5 95.188 211.22 211.69 211.22s211.69-94.715 211.69-211.22c0-116.5-95.188-211.21-211.69-211.21zm0 405.38c-107.03 0-194.64-87.137-194.64-194.17 0-107.03 87.613-194.17 194.64-194.17s194.64 87.141 194.64 194.17c0.003906 107.03-87.609 194.17-194.64 194.17z"/>
  <path d="m376 422.41c4.7344 0 8.5234-3.7891 8.5234-8.5234l0.003906-165.76c0-4.7344-3.7891-8.5234-8.5234-8.5234s-8.5234 3.7891-8.5234 8.5234v165.75c-0.003907 4.7383 3.7852 8.5273 8.5195 8.5273z"/>
  <path d="m376 457.46c-8.0508 0-14.207 6.6289-14.207 14.207 0 8.0508 6.6289 14.207 14.207 14.207 8.0508 0 14.207-6.6289 14.207-14.207 0-7.5781-6.1562-14.207-14.207-14.207z"/>
 </g>
</svg>