<svg role="img" aria-labelledby="svg-bag" width="19px" height="25px" viewBox="0 0 28 36" version="1.1" xmlns="http://www.w3.org/2000/svg" xmlns:xlink="http://www.w3.org/1999/xlink">
    <title id="svg-bag">Shopping Cart</title>
    <g id="Symbols" stroke="none" stroke-width="1" fill="none" fill-rule="evenodd">
        <g id="Nav---Black" transform="translate(-1272.000000, -9.000000)" fill="#111111" fill-rule="nonzero">
            <g id="Icons" transform="translate(1148.353846, 9.000000)">
                <g id="HNY-web-Shop" transform="translate(124.500254, 0.000000)">
                    <path d="M21.1292308,7.78640031 C21.1292308,3.48609016 17.6391182,0 13.3338462,0 C9.02857411,0 5.53846154,3.48609016 5.53846154,7.78640031 L0,7.78640031 L0,35.9087207 L26.6510769,35.9087207 L26.6510769,7.78640031 L21.1292308,7.78640031 Z M13.3338462,1.79239339 C16.6678385,1.79748196 19.3895674,4.45716094 19.4676923,7.78640031 L7.2,7.78640031 C7.27812491,4.45716094 9.99985378,1.79748196 13.3338462,1.79239339 Z M24.9978462,34.2490972 L1.66984615,34.2490972 L1.66984615,9.44602382 L5.54676923,9.44602382 L5.54676923,12.9450634 L7.20830769,12.9450634 L7.20830769,9.44602382 L19.4704615,9.44602382 L19.4704615,12.9450634 L21.132,12.9450634 L21.132,9.44602382 L25.0089231,9.44602382 L24.9978462,34.2490972 Z" id="Shape"></path>
                </g>
            </g>
        </g>
    </g>
</svg>