<svg xmlns="http://www.w3.org/2000/svg" width="62" height="50" fill="none" viewBox="-1 -1 62 50" id="price-tag" y="712"><path d="M35.09 45.07L12.52 22.5 14.3 4.78l17.51-1.57 22.57 22.57-19.29 19.29zm-21-23.13l21 21 17.17-17.16-21-21-15.59 1.38-1.58 15.78z" fill="#3E3934"/><path d="M20.47 14.14A2.999 2.999 0 1122.58 9a3 3 0 01.87 2.12 3 3 0 01-3 3l.02.02zm0-4.47A1.49 1.49 0 1022 11.16a1.47 1.47 0 00-.43-1.05 1.49 1.49 0 00-1.1-.44zM26.62 24.16h-.26a3.18 3.18 0 01-1.92-.94 2.72 2.72 0 01-.29-3.81 2.31 2.31 0 011.85-.65c.73.07 1.412.4 1.92.93a3.18 3.18 0 01.94 1.92 2.279 2.279 0 01-.65 1.89 2.25 2.25 0 01-1.59.66zm-.83-4.42a1.299 1.299 0 00-.93.36 1.75 1.75 0 00.29 2.41c.345.36.805.586 1.3.64a1.26 1.26 0 001.45-1.45 2.12 2.12 0 00-.64-1.3 2.16 2.16 0 00-1.26-.65l-.21-.01zM35.54 24a3.121 3.121 0 01-2.17-1 2.73 2.73 0 01-.29-3.82 2.35 2.35 0 011.92-.61 3.17 3.17 0 011.92.93 2.73 2.73 0 01.3 3.82 2.29 2.29 0 01-1.68.68zm-.82-4.41a1.26 1.26 0 00-.93.36 1.73 1.73 0 00.29 2.4 1.74 1.74 0 002.4.29 1.74 1.74 0 00-.29-2.4 2.14 2.14 0 00-1.31-.64l-.16-.01zM31.63 28.4a.5.5 0 01-.49-.43l-1.93-13.08a.505.505 0 111-.14l1.93 13.07a.501.501 0 01-.42.57l-.09.01zM31.23 35.08a.47.47 0 01-.35-.14.5.5 0 010-.71l12.66-12.66a.498.498 0 01.854.355.51.51 0 01-.144.355L31.58 34.94a.46.46 0 01-.35.14zM35.46 35.31a.5.5 0 01-.35-.85l8.66-8.66a.495.495 0 11.7.7l-8.66 8.67a.52.52 0 01-.35.14z" fill="#3E3934"/><path d="M21.12 11.34a3.15 3.15 0 00-1.49-1.88 3 3 0 00-1 .75c-.08.1-.14.2-.21.3a2.05 2.05 0 011.28 1.21 2.621 2.621 0 01-1.13 2.34 10.2 10.2 0 01-4.34 2.21l-.26.06c-3.56.85-6.39 0-6.74-1.36-.18-.69.24-1.55 1.14-2.38a10.58 10.58 0 014.33-2.18c.485-.119.976-.212 1.47-.28V8.61c-.64.07-1.276.188-1.9.35a12.11 12.11 0 00-5 2.52c-1.27 1.23-1.85 2.6-1.53 3.86.51 2 3.08 3 6.28 2.8a14.274 14.274 0 001.87-.27l.68-.15A11.38 11.38 0 0019.78 15a3.82 3.82 0 001.34-3.66z" fill="#3E3934"/></svg>