<svg aria-labelledby="svg-wishlist" role="img" width="26px" height="25px" viewBox="0 0 35 30" version="1.1" xmlns="http://www.w3.org/2000/svg" xmlns:xlink="http://www.w3.org/1999/xlink">
    <title id="svg-wishlist">Wishlist</title>
    <g id="Symbols" stroke="none" stroke-width="1" fill="none" fill-rule="evenodd">
        <g id="Nav---Black" transform="translate(-1209.000000, -13.000000)" fill="#000000" fill-rule="nonzero">
            <g id="Icons" transform="translate(1148.353846, 9.000000)">
                <g id="Wishlist" transform="translate(61.000000, 4.000000)">
                    <path d="M16.8780539,30 C16.6957855,30 16.5135171,29.9270926 16.3677024,29.7812779 L2.9527481,16.4027773 C1.05715673,14.4707322 -9.71321163e-16,11.9189746 -9.71321163e-16,9.22140226 C-9.71321163e-16,6.52382993 1.05715673,3.97207231 2.98920178,2.04002726 C4.84833947,0.144435886 7.40009709,-0.438822998 10.3528452,0.326704287 C12.540066,0.909963171 14.9095552,2.29520302 16.8780539,4.11788703 C18.8465527,2.29520302 21.1795882,0.909963171 23.4032627,0.326704287 C26.3560108,-0.438822998 28.9077684,0.144435886 30.8033598,2.04002726 L30.8033598,2.04002726 L30.8033598,2.04002726 C32.7354049,3.97207231 33.7925616,6.52382993 33.7925616,9.22140226 C33.7925616,11.9189746 32.7354049,14.4707322 30.8033598,16.4027773 L17.3884055,29.7812779 C17.2425908,29.9270926 17.0603224,30 16.8780539,30 Z M7.94690229,1.45676837 C6.6345698,1.45676837 5.21287627,1.82130518 4.00990483,3.02427662 C2.36948922,4.66469224 1.45814721,6.85191305 1.45814721,9.18494858 C1.45814721,11.5179841 2.36948922,13.7052049 4.00990483,15.3456205 L16.8780539,28.2502233 L29.7462031,15.3820742 C31.3866187,13.7416586 32.2979607,11.5544378 32.2979607,9.22140226 C32.2979607,6.88836673 31.3866187,4.70114592 29.7462031,3.0607303 L29.7462031,3.0607303 C27.8506117,1.16513893 25.4446688,1.31095365 23.7677995,1.74839782 C21.6170324,2.29520302 19.3204505,3.71689655 17.4613128,5.57603424 L17.3884055,5.6489416 C17.096776,5.94057104 16.6593319,5.94057104 16.3677024,5.6489416 L16.2947951,5.57603424 C14.4356574,3.71689655 12.1390755,2.29520302 9.9518547,1.74839782 C9.36859582,1.6025831 8.6759759,1.45676837 7.94690229,1.45676837 Z" id="Shape"></path>
                </g>
            </g>
        </g>
    </g>
</svg>