<?xml version="1.0" encoding="utf-8"?>
<!-- Generator: Adobe Illustrator 18.0.0, SVG Export Plug-In . SVG Version: 6.00 Build 0)  -->
<!DOCTYPE svg PUBLIC "-//W3C//DTD SVG 1.1//EN" "http://www.w3.org/Graphics/SVG/1.1/DTD/svg11.dtd">
<svg version="1.1" id="Layer_1" xmlns="http://www.w3.org/2000/svg" xmlns:xlink="http://www.w3.org/1999/xlink" x="0px" y="0px"
	 width="425.2px" height="72.5px" viewBox="0 0 425.2 72.5" enable-background="new 0 0 425.2 72.5" xml:space="preserve">
<g>
	<g>
		<path fill-rule="evenodd" clip-rule="evenodd" fill="#49443E" d="M126.8,30.7v-7.9c0-1.4,0-2.6-1.1-3.7c-0.7-0.7-1.7-1.4-4.1-1.4
			c-2.3,0-4.1,0.5-6.3,1.8c-2.1,1.2-3.6,3.2-3.6,4.9c0,1.2,0.4,1.7,1.2,1.7c2.1,0,2.7-1.1,2.7-3c0-0.9-0.5-1.7,0.3-2.4
			c0.7-0.7,2.3-1.1,3.4-1.1c1.5,0,2.5,0.5,3.1,1.1c0.6,0.7,0.6,2,0.7,2.9v3.3c-0.8,0.7-3.5,2-5.8,3c-4.1,1.8-5.2,3.9-5.2,6.3
			c0,3.3,1.9,4.3,3.1,4.3c1.1,0,2.1,0,3.1-0.3c2.3-0.8,4-1.9,5.1-3.2h0.1c0.5,2.1,1.8,3.5,3.7,3.5c2.6,0,3.6-1.8,4-2.5
			c0.3-0.5,0.2-0.8,0.1-0.9l-0.5-0.4c-0.2-0.2-0.3-0.1-0.5,0.2c-0.3,0.4-1,0.8-1.8,0.8c-0.9,0-1.6-0.9-1.6-3.9V30.7z M123,34.9
			c0,1.4-2.7,3.2-4.2,3.2c-1.6,0-2.7-0.9-2.7-2.8c0-4.3,5.1-5.3,6.9-6.7V34.9z"/>
		<path fill-rule="evenodd" clip-rule="evenodd" fill="#49443E" d="M153.6,28.2c0-2.4,0-4.9,0.2-7.3h6.7c0.3,0,0.4-0.1,0.5-0.4
			l0.5-1.8c0.1-0.2-0.1-0.5-0.4-0.5h-7.2l0.3-5.1c0-0.4-0.1-0.8-0.5-0.8c-0.3,0-0.6,0.1-0.7,0.5c-0.7,1.8-4.6,5.8-5.9,6.5
			c-0.6,0.4-0.9,0.5-0.9,0.9c0,0.4,0.3,0.6,0.8,0.6h3.2c-0.1,2.2-0.1,5.7-0.1,6.6v1.1c0,0.7-0.2,5.3-0.2,7.4c0,2,2.5,4.4,5,4.4
			c3.1,0,5.2-1.6,5.7-2.1c0.2-0.2,0.3-0.4,0.1-0.6l-0.3-0.5c-0.2-0.2-0.4-0.3-0.6-0.1c-0.7,0.5-2.2,0.7-3.4,0.7
			c-0.9,0-2.7-0.7-2.7-4.6V28.2z"/>
		<path fill-rule="evenodd" clip-rule="evenodd" fill="#49443E" d="M183.4,19.8c0-2.8,0.2-13.6,0.2-16.5c0-0.7-0.1-0.9-0.4-0.9
			c-0.3,0-0.6,0.1-1.1,0.4c-1.9,1.2-4.2,2.2-6,3c-0.3,0.1-0.5,0.2-0.5,0.4v0.4c0,0.1,0,0.2,0.3,0.3l1,0.4c1.7,0.5,2.5,1.4,2.6,3.1
			c0.1,1.3,0.2,6.1,0.2,9.7v3.3c0,3,0,11.9-0.1,13.5c-0.1,0.9-0.6,1.3-1.1,1.3H176c-0.6,0-0.7,0.1-0.7,0.5v0.9
			c0,0.3,0.1,0.5,0.4,0.5c0.5,0,2.5-0.2,5.8-0.2c3.2,0,5.5,0.2,5.8,0.2c0.2,0,0.3-0.2,0.3-0.5v-0.9c0-0.3-0.1-0.5-0.6-0.5h-2.3
			c-1.1,0-1.3-0.7-1.3-1.6c-0.1-1.6-0.1-9.4-0.1-12.1V19.8z"/>
		<path fill-rule="evenodd" clip-rule="evenodd" fill="#49443E" d="M218.7,30.7v-7.9c0-1.4,0-2.6-1.1-3.7c-0.7-0.7-1.7-1.4-4.1-1.4
			c-2.3,0-4.1,0.5-6.3,1.8c-2.1,1.2-3.6,3.2-3.6,4.9c0,1.2,0.4,1.7,1.2,1.7c2.1,0,2.7-1.1,2.7-3c0-0.9-0.5-1.7,0.3-2.4
			c0.7-0.7,2.3-1.1,3.4-1.1c1.5,0,2.5,0.5,3.1,1.1c0.6,0.7,0.6,2,0.7,2.9v3.3c-0.8,0.7-3.5,2-5.8,3c-4.1,1.8-5.2,3.9-5.2,6.3
			c0,3.3,1.9,4.3,3.1,4.3c1.1,0,2.1,0,3-0.3c2.3-0.8,4-1.9,5.1-3.2h0.1c0.5,2.1,1.8,3.5,3.7,3.5c2.6,0,3.6-1.8,4-2.5
			c0.3-0.5,0.2-0.8,0.1-0.9l-0.5-0.4c-0.2-0.2-0.3-0.1-0.5,0.2c-0.3,0.4-1,0.8-1.8,0.8c-0.9,0-1.5-0.9-1.5-3.9V30.7z M214.9,34.9
			c0,1.4-2.7,3.2-4.2,3.2c-1.5,0-2.7-0.9-2.7-2.8c0-4.3,5.1-5.3,6.9-6.7V34.9z"/>
		<path fill-rule="evenodd" clip-rule="evenodd" fill="#49443E" d="M245.3,40.5c4.4,0,7.8-2.6,7.8-6.8c0-4-2.4-5.6-6.2-6.6
			c-2.5-0.7-5-1.3-5-4.3c0-2.2,2-3.4,4-3.4c2,0,3,1,3.6,2l1.8,2.4c0.2,0.3,0.3,0.3,0.5,0.3l0.6-0.2c0.3-0.1,0.4-0.3,0.4-0.5
			l-0.8-3.6c0-0.3-0.2-0.6-0.9-0.9c-0.9-0.5-2.3-1.1-4.8-1.1c-3.9,0-7.2,2.7-7.2,6.3c0,4.1,3,5.7,6.1,6.6c3.9,1.1,5,2.4,5,4.8
			c0,2.4-2.3,3.5-4.1,3.5c-2.7,0-3.5-1.3-4.5-3.2l-1.3-2.5c-0.1-0.3-0.3-0.4-0.5-0.3l-0.7,0.2c-0.2,0.1-0.4,0.2-0.3,0.4l0.9,4.9
			c0,0.3,0,0.6,0.3,0.7C240.7,39.5,242.8,40.5,245.3,40.5z"/>
		<path fill-rule="evenodd" clip-rule="evenodd" fill="#49443E" d="M285.2,42c0,5.1,0,7.9-0.2,9c-0.1,0.8-0.2,1.3-1.1,1.3h-2
			c-0.5,0-0.6,0.2-0.6,0.5v0.9c0,0.3,0.1,0.5,0.5,0.5c0.4,0,2.2-0.2,5.2-0.2c3.3,0,5.1,0.2,5.3,0.2c0.4,0,0.5-0.2,0.5-0.5v-0.9
			c0-0.3,0-0.5-0.5-0.5H290c-0.8,0-1.1-0.3-1.1-1.7V39.6c1.6,0.7,3.8,0.9,5.2,0.9c6.5,0,11.2-5.4,11.2-12.2c0-4-0.8-6.1-2.8-8.1
			c-1.5-1.4-3.3-2.5-5.9-2.5c-3.5,0-6.1,1.7-7.5,3.5h-0.2l-0.2-2.5c0-0.8-0.1-1-0.4-1c-0.4,0-0.8,0.2-1.2,0.4l-5,2.5
			c-0.3,0.1-0.4,0.2-0.4,0.4v0.4c0,0.2,0,0.3,0.4,0.5l1.2,0.7c1.5,0.8,1.9,1.6,1.9,2.8V42z M288.9,23.4c1.2-2.1,3.4-3.3,5.5-3.3
			c3.5,0,6.7,2.9,6.7,10.2c0,6.4-3.1,8.7-6,8.7c-2.1,0-3.7-0.4-5.2-1.4c-1-0.7-1.1-1.6-1.1-2.7V23.4z"/>
		<path fill-rule="evenodd" clip-rule="evenodd" fill="#49443E" d="M333,40.5c6.3,0,11.4-5.8,11.4-11.4c0-3.4-1.2-6.1-3.5-8.5
			c-1.6-1.6-4.4-3-7.2-3c-1.7,0-4.2,0.4-6.9,2.5c-3,2.4-4.4,5.7-4.4,8.4c0,3.7,0.5,5.6,2.8,8.5C327.3,39.5,330.5,40.5,333,40.5z
			 M333.6,39c-2.4,0-3.9-1-5.1-2.7c-1.7-2.4-2-4.4-2-7.3c0-3.9,0.7-6.1,2.7-8.1c1.2-1.3,2.6-1.7,4-1.7c2.6,0,6.8,3.6,6.8,9.4
			C340.1,34.1,337.5,39,333.6,39z"/>
		<path fill-rule="evenodd" clip-rule="evenodd" fill="#49443E" d="M372.1,40.5c6.4,0,11.4-5.8,11.4-11.4c0-3.4-1.2-6.1-3.5-8.5
			c-1.5-1.6-4.4-3-7.2-3c-1.7,0-4.2,0.4-6.9,2.5c-3,2.4-4.4,5.7-4.4,8.4c0,3.7,0.5,5.6,2.8,8.5C366.4,39.5,369.6,40.5,372.1,40.5z
			 M372.7,39c-2.4,0-3.9-1-5.1-2.7c-1.7-2.4-2-4.4-2-7.3c0-3.9,0.7-6.1,2.7-8.1c1.2-1.3,2.6-1.7,4-1.7c2.6,0,6.8,3.6,6.8,9.4
			C379.2,34.1,376.6,39,372.7,39z"/>
		<path fill-rule="evenodd" clip-rule="evenodd" fill="#49443E" d="M417.4,18.4c-1.6-0.5-3.4-0.8-5.5-0.8c-2.9,0-5.7,1.1-7.7,3.3
			c-2.4,2.4-3.6,5.6-3.6,8.8c0,3.5,0.6,5.8,3.2,8.4c2.4,2.5,4.4,2.4,6.1,2.4c2.6,0,5.9-1.1,7.6-2.8l0.7,2.3c0.1,0.4,0.4,0.5,0.7,0.4
			l5.8-2c0.3-0.1,0.4-0.3,0.4-0.6l-0.1-0.4c-0.1-0.3-0.3-0.3-1-0.4c-0.7,0-1.8-0.4-2.3-0.9c-0.4-0.5-0.5-2.8-0.5-4.7V20
			c0-6.6,0.1-14.1,0.2-16.7c0.1-0.6,0-0.9-0.3-0.9c-0.4,0-0.7,0.1-1.2,0.2c-1,0.2-3.7,0.7-5.7,1.1c-0.3,0.1-0.4,0.1-0.4,0.4v0.9
			c0,0.2,0.1,0.3,0.4,0.4c2.9,0.5,3.3,1.1,3.3,3.1V18.4z M417.4,33.7c0,0.6,0,1-0.3,1.8c-0.5,1.3-2.7,2.9-5.6,2.9c-3,0-7-4.2-7-10.1
			c0-2,0.4-4.7,2.4-6.9c1.4-1.4,3.1-1.9,4.7-1.9c3.1,0,4.7,1.4,5.4,2.8c0.5,0.8,0.5,1.8,0.5,2.5V33.7z"/>
	</g>
	<g>
		<path fill-rule="evenodd" clip-rule="evenodd" fill="#49443E" d="M110.6,60v-0.5l3.2,0l3,0V60c-0.8,0-1.3,0-1.5,0.1
			c-0.2,0-0.3,0.1-0.4,0.2c-0.1,0.1-0.1,0.3-0.2,0.7c0,0.1,0,0.8,0,2.1v1c1.4,0,3.1,0.1,5,0.1c1.5,0,2.7,0,3.6-0.1v-1
			c0-0.7,0-1.3,0-1.9c0-0.5-0.1-0.7-0.2-0.8c-0.1-0.1-0.2-0.1-0.4-0.2c-0.2,0-0.7-0.1-1.5-0.1v-0.5c1.5,0,2.5,0,3.1,0
			c0.2,0,1.2,0,3.1,0V60c-0.8,0-1.3,0-1.5,0.1c-0.2,0-0.3,0.1-0.4,0.2c-0.1,0.1-0.1,0.3-0.2,0.7c0,0.1,0,0.8,0,2.1v3.3
			c0,0.7,0,1.3,0,1.9c0,0.5,0.1,0.7,0.1,0.8c0.1,0.1,0.2,0.2,0.4,0.2c0.2,0,0.7,0.1,1.5,0.1v0.5c-1.3,0-2.4-0.1-3.3-0.1
			c-0.9,0-1.9,0-2.8,0.1v-0.5c0.8,0,1.3,0,1.5-0.1c0.2,0,0.3-0.1,0.4-0.2c0.1-0.1,0.1-0.3,0.2-0.7c0-0.1,0-0.8,0.1-2.1v-1.6
			c-2,0-3.4,0-4.5,0c-1.1,0-2.5,0-4.2,0v1.6c0,0.7,0,1.3,0,1.9c0,0.5,0.1,0.7,0.1,0.8c0.1,0.1,0.2,0.2,0.4,0.2
			c0.2,0,0.7,0.1,1.5,0.1v0.5c-1,0-1.9-0.1-2.9-0.1c-1.1,0-2.2,0-3.2,0.1v-0.5c0.8,0,1.3,0,1.5-0.1c0.2,0,0.3-0.1,0.4-0.2
			c0.1-0.1,0.1-0.3,0.2-0.7c0-0.1,0-0.8,0-2.1V63c0-0.7,0-1.3,0-1.9c0-0.5-0.1-0.7-0.2-0.8c-0.1-0.1-0.2-0.1-0.4-0.2
			C111.9,60.1,111.4,60,110.6,60z"/>
		<path fill-rule="evenodd" clip-rule="evenodd" fill="#49443E" d="M134.4,64.8c0-0.8,0.2-1.5,0.5-2.1c0.3-0.6,0.9-1.2,1.7-1.7
			c0.8-0.5,1.6-0.9,2.6-1.2c1-0.3,2.1-0.4,3.3-0.4c1.1,0,2.2,0.1,3.1,0.3c0.9,0.2,1.7,0.5,2.3,0.9c0.6,0.4,1.1,0.8,1.4,1.2
			c0.3,0.3,0.5,0.7,0.6,1.2c0.2,0.4,0.2,0.9,0.2,1.4c0,1.6-0.8,3-2.4,4.1c-1.6,1.1-3.6,1.6-6,1.6c-1.1,0-2.1-0.1-3.1-0.4
			c-1-0.2-1.8-0.6-2.4-1.1c-0.7-0.5-1.2-1.1-1.5-1.8C134.6,66.1,134.4,65.4,134.4,64.8z M136.6,64.2c0,0.5,0.1,0.9,0.2,1.4
			c0.1,0.5,0.3,0.9,0.5,1.2c0.3,0.6,0.8,1.1,1.3,1.5c0.5,0.4,1.1,0.7,1.8,0.9c0.7,0.2,1.4,0.3,2.2,0.3c1.1,0,2.1-0.2,2.9-0.6
			c0.8-0.4,1.5-0.9,1.9-1.6c0.4-0.7,0.6-1.5,0.6-2.4c0-0.8-0.1-1.5-0.4-2.1c-0.2-0.4-0.4-0.7-0.7-1.1c-0.3-0.3-0.7-0.6-1.1-0.8
			c-0.4-0.2-1-0.4-1.6-0.6c-0.7-0.2-1.4-0.3-2.1-0.3c-1.1,0-2.1,0.2-2.9,0.5c-0.8,0.3-1.5,0.8-1.9,1.5
			C136.8,62.6,136.6,63.3,136.6,64.2z"/>
		<path fill-rule="evenodd" clip-rule="evenodd" fill="#49443E" d="M157.2,60v-0.5c0.7,0,1.4,0,2.1,0c0.7,0,1.3,0,2,0
			c0.6,1,1.2,1.8,1.7,2.5l4,5.6l3.6-5.2c1-1.4,1.6-2.4,2-3c0.7,0,1.4,0,1.9,0c0.5,0,1.2,0,2.3,0V60c-0.8,0-1.3,0-1.5,0.1
			c-0.2,0-0.3,0.1-0.4,0.2c-0.1,0.1-0.1,0.3-0.2,0.7c0,0.1,0,0.8,0,2.1v3.3c0,0.7,0,1.3,0,1.9c0,0.5,0.1,0.7,0.1,0.8
			c0.1,0.1,0.2,0.2,0.4,0.2c0.2,0,0.7,0.1,1.5,0.1v0.5c-1.4,0-2.4-0.1-3-0.1c-0.5,0-1.5,0-3.1,0.1v-0.5c0.8,0,1.3,0,1.5-0.1
			c0.2,0,0.3-0.1,0.4-0.2c0.1-0.1,0.1-0.3,0.2-0.7c0-0.1,0-0.8,0-2.1v-5.3l-3.6,5.2c-0.6,0.8-1,1.5-1.3,2c-0.2,0.4-0.6,0.9-1.1,1.7
			h-0.4c-0.1-0.2-0.2-0.3-0.3-0.4l-0.7-1.1l-5-7.2v5.1c0,0.7,0,1.3,0,1.9c0,0.5,0.1,0.7,0.1,0.8c0.1,0.1,0.2,0.2,0.4,0.2
			c0.2,0,0.7,0.1,1.5,0.1v0.5l-2.5-0.1l-2.6,0.1v-0.5c0.8,0,1.3,0,1.5-0.1c0.2,0,0.3-0.1,0.4-0.2c0.1-0.1,0.1-0.3,0.2-0.7
			c0-0.1,0-0.8,0-2.1V63c0-0.7,0-1.3,0-1.9c0-0.5-0.1-0.7-0.2-0.8c-0.1-0.1-0.2-0.1-0.4-0.2C158.5,60.1,158,60,157.2,60z"/>
		<path fill-rule="evenodd" clip-rule="evenodd" fill="#49443E" d="M183.8,69.8v-0.5c0.7,0,1.2,0,1.4-0.1c0.1,0,0.2-0.1,0.2-0.1
			c0.1-0.1,0.1-0.3,0.1-0.8c0-0.6,0.1-1.2,0.1-1.6V63c0-0.7,0-1.3,0-1.9c0-0.5-0.1-0.7-0.2-0.8c-0.1-0.1-0.2-0.1-0.4-0.2
			c-0.2,0-0.7-0.1-1.5-0.1v-0.5l3,0l3.2,0c1.5,0,2.6,0,3.3,0c0.7,0,1.3,0,2,0.1c-0.1,0.3-0.2,0.5-0.2,0.7c0,0-0.1,0.5-0.2,1.5h-0.7
			c0-0.5,0-0.9-0.1-1.3c-0.4-0.1-0.8-0.2-1.3-0.2c-0.8-0.1-1.6-0.1-2.3-0.1c-0.2,0-0.5,0-1.1,0c-0.6,0-1,0-1.3,0.1
			c0,0.5,0,1-0.1,1.5l0,2.4c0.8,0,1.6,0,2.3,0c0.8,0,1.5,0,2.1-0.1c0.2,0,0.4-0.1,0.4-0.1c0.1-0.1,0.1-0.3,0.2-0.6l0.1-0.5h0.6v0.1
			l-0.1,1.5l0.1,1.7h-0.7l0-0.5c0-0.4-0.1-0.6-0.1-0.7c-0.1-0.1-0.2-0.1-0.5-0.2c-0.4-0.1-1.2-0.1-2.3-0.1c-0.5,0-1.1,0-2,0
			c0,0.5-0.1,1.2-0.1,2.1c0,0.9,0,1.6,0.1,2c1,0.1,2.1,0.1,3.4,0.1c0.9,0,1.5,0,1.9-0.1c0.4,0,0.7-0.1,1-0.2
			c0.1-0.1,0.2-0.3,0.3-0.6c0.2-0.4,0.3-0.8,0.3-1h0.7c-0.2,1-0.3,1.8-0.3,2.4c-0.6,0.1-1.3,0.1-2.2,0.1l-6.3-0.1
			C186.5,69.8,185.6,69.8,183.8,69.8z"/>
		<path fill-rule="evenodd" clip-rule="evenodd" fill="#49443E" d="M216.8,60v-0.5c1.1,0,2,0,2.7,0c0.5,0,1.5,0,2.8,0
			c1.4,0,2.3,0,2.8,0c0.5,0,1,0,1.4,0c0.4,0,0.8,0,1.2,0c-0.2,0.4-0.3,1.1-0.3,2.2h-0.7c-0.1-0.6-0.2-1-0.3-1.3
			c-0.4-0.1-0.8-0.1-1.4-0.2c-0.5,0-1.1-0.1-1.9-0.1c-0.7,0-1.4,0-2.2,0.1c0,0.3-0.1,0.5-0.1,0.7c0,0.1,0,0.7-0.1,1.7v1.6
			c0.8,0,1.5,0,2.1,0c0.9,0,1.6,0,2.1-0.1c0.2,0,0.3-0.1,0.4-0.1c0.1-0.1,0.1-0.3,0.2-0.6l0.1-0.4h0.7l-0.1,1.6l0.1,1.8h-0.7
			l-0.1-0.5c-0.1-0.5-0.1-0.8-0.2-0.8c-0.1-0.1-0.2-0.1-0.4-0.2c-0.4-0.1-1.3-0.1-2.7-0.1c-0.5,0-1,0-1.5,0v1.5c0,0.7,0,1.3,0,1.9
			c0,0.5,0.1,0.7,0.1,0.8c0.1,0.1,0.2,0.2,0.4,0.2c0.2,0,0.7,0.1,1.5,0.1v0.5c-0.9,0-1.8-0.1-2.7-0.1c-0.8,0-1.9,0-3.5,0.1v-0.5
			c0.8,0,1.3,0,1.5-0.1c0.2,0,0.3-0.1,0.4-0.2c0.1-0.1,0.1-0.3,0.2-0.7c0-0.1,0-0.8,0-2.1V63c0-0.7,0-1.3,0-1.9
			c0-0.5-0.1-0.7-0.2-0.8c-0.1-0.1-0.2-0.1-0.4-0.2C218.1,60.1,217.6,60,216.8,60z"/>
		<path fill-rule="evenodd" clip-rule="evenodd" fill="#49443E" d="M234.6,60v-0.5c1.1,0,2.2,0.1,3.2,0.1c1,0,2,0,3-0.1V60
			c-0.8,0-1.3,0-1.5,0.1c-0.2,0-0.3,0.1-0.4,0.2c-0.1,0.1-0.1,0.3-0.2,0.7c0,0.1,0,0.8,0,2.1v2.7c0,1,0.1,1.7,0.3,2.1
			c0.2,0.3,0.5,0.6,0.9,0.8c0.3,0.2,0.8,0.3,1.3,0.4c0.5,0.1,1.2,0.1,1.8,0.1c0.8,0,1.5-0.1,2.1-0.2c0.6-0.1,1.1-0.3,1.4-0.5
			c0.3-0.2,0.5-0.4,0.7-0.6c0.2-0.2,0.3-0.6,0.3-1c0.1-0.4,0.1-0.9,0.1-1.6V63c0-0.7,0-1.3,0-1.9c0-0.5-0.1-0.7-0.1-0.8
			c-0.1-0.1-0.2-0.1-0.4-0.2c-0.2,0-0.7-0.1-1.5-0.1v-0.5c1.2,0,2,0.1,2.5,0.1c0.5,0,1.4,0,2.6-0.1V60c-0.8,0-1.3,0-1.5,0.1
			c-0.2,0-0.3,0.1-0.4,0.2c-0.1,0.1-0.1,0.3-0.2,0.7c0,0.1,0,0.8,0,2.1v2.4c0,1.2-0.1,2-0.4,2.5c-0.2,0.5-0.7,0.9-1.3,1.3
			c-0.5,0.3-1.1,0.5-1.9,0.6c-0.8,0.1-1.6,0.2-2.5,0.2c-1.1,0-2-0.1-2.8-0.3c-0.8-0.2-1.4-0.4-1.8-0.7c-0.4-0.3-0.7-0.6-0.9-0.9
			c-0.2-0.4-0.3-1.1-0.3-2V63c0-0.7,0-1.3,0-1.9c0-0.5-0.1-0.7-0.2-0.8c-0.1-0.1-0.2-0.1-0.4-0.2C235.9,60.1,235.4,60,234.6,60z"/>
		<path fill-rule="evenodd" clip-rule="evenodd" fill="#49443E" d="M257.4,60v-0.5c0.3,0,0.7,0,1.2,0l2,0c0.4,0,1,0,1.9,0
			c1.1,0,1.7,0,1.9,0c1.3,0,2.3,0.1,2.9,0.2c0.6,0.2,1.1,0.4,1.4,0.8c0.3,0.4,0.5,0.8,0.5,1.2c0,0.4-0.2,0.8-0.5,1.2
			c-0.3,0.4-0.8,0.7-1.4,1c-0.6,0.3-1.4,0.5-2.3,0.6c0.2,0.2,0.6,0.5,1.2,1.1l2.6,2.4c0.8,0.7,1.2,1,1.3,1.1c0.1,0,0.1,0.1,0.2,0.1
			c0.1,0,0.3,0,0.7,0v0.5c-0.5,0-1,0-1.4,0c-0.4,0-0.9,0-1.5,0c-0.5-0.4-1.2-1.1-2.3-2.1c-0.6-0.6-1.1-1.1-1.6-1.5
			c-0.7-0.6-1.4-1.2-2.1-1.8l0.1-0.2c0.4,0,0.6,0,0.8,0c1.3,0,2.2-0.2,2.9-0.6c0.7-0.4,1-1,1-1.6c0-0.6-0.3-1.1-0.9-1.4
			c-0.6-0.4-1.4-0.5-2.6-0.5c-0.7,0-1.4,0.1-2.1,0.2c0,0.3,0,0.5-0.1,0.7c0,0.1,0,0.8-0.1,2.1v3.2c0,0.7,0,1.3,0,1.9
			c0,0.5,0.1,0.7,0.1,0.8c0.1,0.1,0.2,0.2,0.4,0.2c0.2,0,0.7,0.1,1.5,0.1v0.5c-1,0-1.9-0.1-2.7-0.1c-0.7,0-1.8,0-3.4,0.1v-0.5
			c0.8,0,1.3,0,1.5-0.1c0.2,0,0.3-0.1,0.4-0.2c0.1-0.1,0.1-0.3,0.2-0.7c0-0.1,0-0.8,0-2.1V63c0-0.7,0-1.3,0-1.9
			c0-0.5-0.1-0.7-0.2-0.8c-0.1-0.1-0.2-0.1-0.4-0.2C258.8,60.1,258.3,60,257.4,60z"/>
		<path fill-rule="evenodd" clip-rule="evenodd" fill="#49443E" d="M277.9,69.8v-0.5c0.7,0,1.2,0,1.4-0.1c0.1,0,0.2-0.1,0.2-0.1
			c0.1-0.1,0.1-0.3,0.1-0.8c0-0.6,0.1-1.2,0.1-1.6v-5.9c0-0.2,0-0.3,0-0.3c-0.1-0.1-0.2-0.2-0.4-0.3c-0.1-0.1-0.3-0.1-0.4-0.1
			c-0.2,0-0.5,0-1.1,0v-0.5c1.2,0,1.9,0,2.2,0c0.5,0,1,0,1.5,0c0.6,0.5,1,0.9,1.3,1.2l2.2,1.8l3.2,2.6c1,0.8,1.8,1.5,2.4,2
			c0.4,0.3,0.7,0.6,1,0.8v-5.3c0-0.5,0-1-0.1-1.7c0-0.4-0.1-0.6-0.1-0.7c0-0.1-0.1-0.1-0.2-0.1c-0.2-0.1-0.7-0.1-1.4-0.1v-0.5
			c0.8,0,1.7,0,2.5,0c0.8,0,1.5,0,2.2,0V60c-0.7,0-1.2,0-1.4,0.1c-0.1,0-0.2,0.1-0.2,0.1c-0.1,0.1-0.1,0.3-0.1,0.8
			c0,0.6-0.1,1.2-0.1,1.6v3.5c0,0.7,0,2,0.1,3.9l-1.1-0.2l-0.3,0c0,0-0.1,0-0.1,0c0,0-0.2-0.1-0.4-0.3c-0.6-0.5-1-0.8-1.3-1
			l-1.4-1.2l-7.4-6.1v5.6c0,0.5,0,1,0.1,1.7c0,0.4,0.1,0.6,0.1,0.7c0,0.1,0.1,0.1,0.2,0.1c0.2,0.1,0.7,0.1,1.4,0.1v0.5
			c-0.6,0-1.3,0-2,0C279.7,69.8,278.8,69.8,277.9,69.8z"/>
		<path fill-rule="evenodd" clip-rule="evenodd" fill="#49443E" d="M307.8,69.4v0.5c-1.5,0-2.5-0.1-2.9-0.1l-3.2,0.1v-0.5
			c0.8,0,1.3,0,1.5-0.1c0.2,0,0.3-0.1,0.4-0.2c0.1-0.1,0.1-0.3,0.2-0.7c0-0.1,0-0.8,0-2.1V63c0-0.7,0-1.3,0-1.9
			c0-0.5-0.1-0.7-0.2-0.8c-0.1-0.1-0.2-0.1-0.4-0.2c-0.2,0-0.7-0.1-1.5-0.1v-0.5c1.3,0,2.4,0.1,3.1,0.1c0.7,0,1.7,0,3.1-0.1V60
			c-0.8,0-1.3,0-1.5,0.1c-0.2,0-0.3,0.1-0.4,0.2c-0.1,0.1-0.1,0.3-0.2,0.7c0,0.1,0,0.8,0,2.1v3.3c0,0.7,0,1.3,0,1.9
			c0,0.5,0.1,0.7,0.1,0.8c0.1,0.1,0.2,0.2,0.4,0.2C306.4,69.3,307,69.4,307.8,69.4z"/>
		<path fill-rule="evenodd" clip-rule="evenodd" fill="#49443E" d="M314.9,69.5c0.1-0.5,0.2-1.2,0.2-2.2h0.7c0,0.7,0.1,1.1,0.2,1.2
			c0.1,0.1,0.3,0.3,0.6,0.4c0.3,0.1,0.7,0.3,1.2,0.4c0.5,0.1,1,0.2,1.5,0.2c0.7,0,1.4-0.1,1.9-0.3c0.6-0.2,1-0.5,1.3-0.9
			c0.3-0.4,0.4-0.8,0.4-1.2c0-0.3-0.1-0.6-0.2-0.8c-0.1-0.2-0.3-0.4-0.6-0.6c-0.3-0.2-0.6-0.2-1-0.3c-0.3,0-0.8-0.1-1.5-0.1
			c-0.8-0.1-1.4-0.1-2-0.2c-0.7-0.2-1.3-0.3-1.6-0.5c-0.3-0.2-0.6-0.5-0.8-0.8c-0.2-0.3-0.3-0.7-0.3-1.1c0-0.6,0.2-1.1,0.6-1.6
			c0.4-0.5,1.1-0.9,1.9-1.2c0.8-0.3,1.8-0.4,2.7-0.4c0.6,0,1.2,0.1,1.9,0.2c0.7,0.1,1.4,0.3,2,0.5c-0.1,0.3-0.2,0.6-0.2,0.9
			c0,0.3-0.1,0.7-0.1,1.2H323c0-0.7-0.1-1.1-0.1-1.2c-0.2-0.2-0.4-0.3-0.7-0.5c-0.7-0.3-1.5-0.4-2.3-0.4c-1,0-1.8,0.2-2.4,0.6
			c-0.6,0.4-0.9,1-0.9,1.7c0,0.4,0.1,0.7,0.3,1c0.2,0.2,0.6,0.4,1.2,0.5c0.4,0.1,1,0.2,1.9,0.3c0.9,0.1,1.7,0.2,2.4,0.3
			c0.7,0.1,1.1,0.3,1.5,0.5c0.3,0.2,0.6,0.4,0.8,0.7c0.2,0.3,0.3,0.7,0.3,1.1c0,1-0.6,1.8-1.7,2.5c-1.2,0.7-2.6,1.1-4.5,1.1
			C317.3,70,316,69.9,314.9,69.5z"/>
		<path fill-rule="evenodd" clip-rule="evenodd" fill="#49443E" d="M332.1,60v-0.5l3.2,0l3,0V60c-0.8,0-1.3,0-1.5,0.1
			c-0.2,0-0.3,0.1-0.4,0.2c-0.1,0.1-0.1,0.3-0.2,0.7c0,0.1,0,0.8,0,2.1v1c1.4,0,3.1,0.1,5,0.1c1.5,0,2.7,0,3.6-0.1v-1
			c0-0.7,0-1.3,0-1.9c0-0.5-0.1-0.7-0.2-0.8c-0.1-0.1-0.2-0.1-0.4-0.2c-0.2,0-0.7-0.1-1.5-0.1v-0.5c1.5,0,2.5,0,3.1,0
			c0.2,0,1.2,0,3.1,0V60c-0.8,0-1.3,0-1.5,0.1c-0.2,0-0.3,0.1-0.4,0.2c-0.1,0.1-0.1,0.3-0.2,0.7c0,0.1,0,0.8,0,2.1v3.3
			c0,0.7,0,1.3,0,1.9c0,0.5,0.1,0.7,0.1,0.8c0.1,0.1,0.2,0.2,0.4,0.2c0.2,0,0.7,0.1,1.5,0.1v0.5c-1.3,0-2.4-0.1-3.3-0.1
			c-0.9,0-1.9,0-2.8,0.1v-0.5c0.8,0,1.3,0,1.5-0.1c0.2,0,0.3-0.1,0.4-0.2c0.1-0.1,0.1-0.3,0.2-0.7c0-0.1,0-0.8,0.1-2.1v-1.6
			c-2,0-3.4,0-4.5,0c-1.1,0-2.5,0-4.2,0v1.6c0,0.7,0,1.3,0,1.9c0,0.5,0.1,0.7,0.1,0.8c0.1,0.1,0.2,0.2,0.4,0.2
			c0.2,0,0.7,0.1,1.5,0.1v0.5c-0.9,0-1.9-0.1-2.9-0.1c-1.1,0-2.2,0-3.2,0.1v-0.5c0.8,0,1.3,0,1.5-0.1c0.2,0,0.3-0.1,0.4-0.2
			c0.1-0.1,0.1-0.3,0.2-0.7c0-0.1,0-0.8,0-2.1V63c0-0.7,0-1.3,0-1.9c0-0.5-0.1-0.7-0.2-0.8c-0.1-0.1-0.2-0.1-0.4-0.2
			C333.4,60.1,332.9,60,332.1,60z"/>
		<path fill-rule="evenodd" clip-rule="evenodd" fill="#49443E" d="M362.1,69.4v0.5c-1.5,0-2.5-0.1-2.9-0.1l-3.2,0.1v-0.5
			c0.8,0,1.3,0,1.5-0.1c0.2,0,0.3-0.1,0.4-0.2c0.1-0.1,0.1-0.3,0.2-0.7c0-0.1,0-0.8,0-2.1V63c0-0.7,0-1.3,0-1.9
			c0-0.5-0.1-0.7-0.2-0.8c-0.1-0.1-0.2-0.1-0.4-0.2c-0.2,0-0.7-0.1-1.5-0.1v-0.5c1.3,0,2.4,0.1,3.1,0.1c0.7,0,1.7,0,3.1-0.1V60
			c-0.8,0-1.3,0-1.5,0.1c-0.2,0-0.3,0.1-0.4,0.2c-0.1,0.1-0.1,0.3-0.2,0.7c0,0.1,0,0.8-0.1,2.1v3.3c0,0.7,0,1.3,0,1.9
			c0,0.5,0.1,0.7,0.1,0.8c0.1,0.1,0.2,0.2,0.4,0.2C360.8,69.3,361.3,69.4,362.1,69.4z"/>
		<path fill-rule="evenodd" clip-rule="evenodd" fill="#49443E" d="M369.3,69.8v-0.5c0.7,0,1.2,0,1.4-0.1c0.1,0,0.2-0.1,0.2-0.1
			c0.1-0.1,0.1-0.3,0.1-0.8c0-0.6,0.1-1.2,0.1-1.6v-5.9c0-0.2,0-0.3,0-0.3c-0.1-0.1-0.2-0.2-0.4-0.3c-0.1-0.1-0.3-0.1-0.4-0.1
			c-0.2,0-0.5,0-1.1,0v-0.5c1.2,0,1.9,0,2.2,0c0.5,0,1,0,1.5,0c0.6,0.5,1,0.9,1.3,1.2l2.2,1.8l3.2,2.6c1,0.8,1.8,1.5,2.4,2
			c0.4,0.3,0.7,0.6,1,0.8v-5.3c0-0.5,0-1-0.1-1.7c0-0.4-0.1-0.6-0.1-0.7c-0.1-0.1-0.1-0.1-0.2-0.1c-0.2-0.1-0.7-0.1-1.4-0.1v-0.5
			c0.8,0,1.7,0,2.5,0c0.8,0,1.5,0,2.2,0V60c-0.7,0-1.2,0-1.4,0.1c-0.1,0-0.2,0.1-0.2,0.1c-0.1,0.1-0.1,0.3-0.2,0.8
			c0,0.6-0.1,1.2-0.1,1.6v3.5c0,0.7,0,2,0,3.9l-1.1-0.2l-0.3,0c0,0-0.1,0-0.1,0c-0.1,0-0.2-0.1-0.4-0.3c-0.6-0.5-1-0.8-1.3-1
			l-1.4-1.2l-7.4-6.1v5.6c0,0.5,0,1,0.1,1.7c0,0.4,0.1,0.6,0.1,0.7c0,0.1,0.1,0.1,0.2,0.1c0.2,0.1,0.7,0.1,1.4,0.1v0.5
			c-0.6,0-1.3,0-2,0C371.1,69.8,370.2,69.8,369.3,69.8z"/>
		<path fill-rule="evenodd" clip-rule="evenodd" fill="#49443E" d="M407.4,69.3c-1.1,0.3-1.9,0.4-2.6,0.5c-1.2,0.2-2.3,0.2-3.4,0.2
			c-1.6,0-3.1-0.2-4.3-0.7c-1.3-0.4-2.2-1-2.9-1.8c-0.7-0.8-1-1.7-1-2.8c0-0.9,0.2-1.7,0.7-2.4c0.5-0.7,1.1-1.2,1.8-1.6
			c0.7-0.4,1.5-0.7,2.2-0.9c1.1-0.3,2.5-0.5,4.2-0.5c0.8,0,1.6,0.1,2.4,0.2c0.9,0.1,1.8,0.3,2.9,0.5c-0.1,0.3-0.2,0.5-0.2,0.7
			c-0.1,0.2-0.1,0.7-0.2,1.5h-0.6l0-0.8c0-0.1,0-0.2,0-0.3c0-0.1-0.1-0.2-0.1-0.3c-0.2-0.2-0.5-0.3-0.9-0.5
			c-0.7-0.2-1.3-0.3-1.8-0.4c-0.5-0.1-1-0.1-1.7-0.1c-1.3,0-2.5,0.2-3.4,0.6c-1,0.4-1.7,1-2.2,1.7c-0.5,0.7-0.7,1.5-0.7,2.4
			c0,0.9,0.3,1.8,0.9,2.6c0.6,0.8,1.4,1.3,2.3,1.7c1,0.4,2.1,0.6,3.4,0.6c0.6,0,1.2,0,1.8-0.1c0.6-0.1,1.1-0.2,1.5-0.3
			c0.1-0.2,0.1-0.5,0.1-0.9v-0.8c0-0.4,0-0.7-0.1-0.7c-0.1-0.1-0.2-0.1-0.5-0.2c-0.3,0-0.9-0.1-1.9-0.1v-0.4l3.3,0
			c0.6,0,1.3,0,1.9,0l0.1,0.3l-0.8,0.3c-0.1,0.5-0.1,1-0.1,1.4C407.3,68.3,407.3,68.8,407.4,69.3z"/>
		<path fill-rule="evenodd" clip-rule="evenodd" fill="#49443E" d="M415.4,69.5c0.1-0.5,0.2-1.2,0.2-2.2h0.7c0,0.7,0.1,1.1,0.2,1.2
			c0.1,0.1,0.3,0.3,0.6,0.4c0.3,0.1,0.7,0.3,1.2,0.4c0.5,0.1,1,0.2,1.5,0.2c0.7,0,1.3-0.1,1.9-0.3c0.6-0.2,1-0.5,1.3-0.9
			c0.3-0.4,0.4-0.8,0.4-1.2c0-0.3-0.1-0.6-0.2-0.8c-0.1-0.2-0.3-0.4-0.6-0.6c-0.3-0.2-0.6-0.2-1-0.3c-0.3,0-0.8-0.1-1.6-0.1
			c-0.8-0.1-1.4-0.1-2-0.2c-0.7-0.2-1.3-0.3-1.6-0.5c-0.3-0.2-0.6-0.5-0.8-0.8c-0.2-0.3-0.3-0.7-0.3-1.1c0-0.6,0.2-1.1,0.6-1.6
			c0.4-0.5,1.1-0.9,1.9-1.2c0.8-0.3,1.8-0.4,2.7-0.4c0.6,0,1.2,0.1,1.9,0.2c0.7,0.1,1.4,0.3,2,0.5c-0.1,0.3-0.2,0.6-0.2,0.9
			c0,0.3-0.1,0.7-0.1,1.2h-0.7c0-0.7-0.1-1.1-0.1-1.2c-0.2-0.2-0.4-0.3-0.7-0.5c-0.7-0.3-1.5-0.4-2.3-0.4c-1,0-1.8,0.2-2.4,0.6
			c-0.6,0.4-0.9,1-0.9,1.7c0,0.4,0.1,0.7,0.3,1c0.2,0.2,0.6,0.4,1.2,0.5c0.4,0.1,1,0.2,1.9,0.3c0.9,0.1,1.7,0.2,2.4,0.3
			c0.7,0.1,1.1,0.3,1.5,0.5c0.3,0.2,0.6,0.4,0.8,0.7c0.2,0.3,0.3,0.7,0.3,1.1c0,1-0.6,1.8-1.7,2.5c-1.2,0.7-2.7,1.1-4.5,1.1
			C417.8,70,416.6,69.9,415.4,69.5z"/>
	</g>
	<rect x="112.9" y="45.6" fill-rule="evenodd" clip-rule="evenodd" fill="#49443E" width="170.3" height="1.1"/>
	<rect x="291" y="45.6" fill-rule="evenodd" clip-rule="evenodd" fill="#49443E" width="133.5" height="1.1"/>
	<path fill-rule="evenodd" clip-rule="evenodd" fill="#49443E" d="M39.6,46.3c0.1-1.3,0.6-2.5,2-4c2-2.3,8.8-4.2,14.8-0.6v4.9
		c-0.7-0.6-1.8-1.6-2.6-2.2c-3.1-2-8.7-2.7-11.2-0.1c-0.6,0.7-1.2,1.7-1.3,2.3C41.1,47.6,39.5,47.1,39.6,46.3z"/>
	<path fill-rule="evenodd" clip-rule="evenodd" fill="#49443E" d="M62.4,49.5c0.1,1.6-0.8,5.3-4.9,5.5c-0.4,0-0.9,0.1-1.3-0.1
		c1.5-0.8,1.7-2.3,1.8-5c0,0,0-31,0-32.3c-0.2-6.2,3.6-6.4,4.3-6.4C62.4,11.2,62.4,40.1,62.4,49.5z"/>
	<path fill-rule="evenodd" clip-rule="evenodd" fill="#49443E" d="M45.8,4h1.5c25.7,0,46.2,14.9,46.2,32.5
		c0,17.7-20.6,32.5-46.2,32.5h-1.5c-25.7,0-46-14.9-46-32.5C-0.2,18.9,20.1,4,45.8,4z M46,6.8h1.4c23.8,0,43.1,13.3,43.1,29.7
		c0,16.4-19.3,29.7-43.1,29.7H46c-23.8,0-43.1-13.3-43.1-29.7C2.8,20.1,22.1,6.8,46,6.8z"/>
	<path fill-rule="evenodd" clip-rule="evenodd" fill="#49443E" d="M69.7,31.9c-0.8,0-1.6-0.4-1.6-1.1c0-0.6,0.5-1.1,1.1-1.1
		c3.5,0,5-2.4,5.2-5.2c0.2-3.2-2.7-6.5-6.6-6.8C44.6,15.7,41,54.4,21.7,54.4c-4.2,0-10.5-2.3-9-9.4c0.2-1,2.1-0.7,2.2,0.1
		c0,0.3,0.1,1.2,0.1,1.7c0.4,5.2,6.7,5.1,11.4,2.6c12.9-6.9,17.8-35.1,39.1-35.1c1.2,0,7.9,0.4,11,5.5c1.3,2.2,1.6,5.9-0.2,8.6
		C74.6,30.6,72.4,31.9,69.7,31.9z"/>
</g>
</svg>
