<?xml version="1.0" encoding="utf-8"?>
<!-- Generator: Adobe Illustrator 18.0.0, SVG Export Plug-In . SVG Version: 6.00 Build 0)  -->
<!DOCTYPE svg PUBLIC "-//W3C//DTD SVG 1.1//EN" "http://www.w3.org/Graphics/SVG/1.1/DTD/svg11.dtd">
<svg version="1.1" id="Layer_1" xmlns="http://www.w3.org/2000/svg" xmlns:xlink="http://www.w3.org/1999/xlink" x="0px" y="0px"
	 viewBox="8.7 62.1 269.3 42.5" enable-background="new 8.7 62.1 269.3 42.5" xml:space="preserve">
<g>
	<path fill="#445156" d="M146.4,62.6c0-0.4,0.1-0.4,0.3-0.4c0.1,0,0.2,0.1,0.5,0.4c1.1,1.7,1.8,1.7,2.9,2.4
		c-0.1,0.2-0.3,0.5-0.5,0.8c-0.3,0.5-0.6,1.1-0.6,1.5v13.1c0,1.4-0.2,2.4-0.9,3.2c-0.7,0.7-2,0.9-2.9,1c-2.6,0.2-6.6-2.1-6.9-3.4
		c0-0.1,0-0.1,0-0.1s0,0,0.1,0s0.2,0,0.3,0.2c1.2,1.1,3.9,1.7,4.6,1.7c2.4,0,2.8-1.6,2.8-3.9V62.6H146.4z"/>
	<path fill="#445156" d="M127.5,72.9c0-0.4,0.1-0.4,0.3-0.4c0.1,0,0.2,0.1,0.5,0.4c1.1,1.7,1.7,1.7,2.9,2.4
		c-0.1,0.2-0.3,0.5-0.5,0.8c-0.3,0.5-0.6,1.1-0.6,1.5v2.8c0,1.4-0.2,2.4-0.9,3.2c-0.7,0.7-1.6,1-2.6,1c-1.2,0-2.3-0.4-3.6-1.2
		c-1.1-0.8-1.6-1.3-1.6-1.6c0-0.1,0-0.2,0-0.2s0-0.1,0.1-0.1s0.4,0.3,0.5,0.4c1.1,0.7,2,1,2.7,1.1c2.4,0.1,2.7-1.6,2.7-4
		C127.5,79,127.5,72.9,127.5,72.9z"/>
	<path fill="#445156" d="M136.1,72.9c0-0.4,0.1-0.4,0.3-0.4c0.1,0,0.2,0.1,0.5,0.4c1.1,1.7,1.7,1.7,2.9,2.4
		c-0.1,0.2-0.3,0.5-0.5,0.8c-0.3,0.5-0.6,1.1-0.6,1.5v2.8c0,1.4-0.2,2.4-0.9,3.2c-0.7,0.7-1.6,1-2.6,1c-1.2,0-2.3-0.4-3.6-1.2
		c-1.1-0.8-1.6-1.3-1.6-1.6c0-0.1,0-0.2,0-0.2s0,0,0.1,0c0.1,0,0.4,0.2,0.5,0.2c1.1,0.7,2,1,2.7,1.1c2.4,0.1,2.7-1.6,2.7-4
		L136.1,72.9L136.1,72.9z"/>
	<rect x="37.2" y="90.6" fill="#445156" width="23.2" height="0.8"/>
	<rect x="79.9" y="90.6" fill="#445156" width="103.1" height="0.8"/>
	<path fill="#445156" d="M179.6,62.5c0-0.4,0.1-0.4,0.3-0.4c0.1,0,0.2,0.1,0.5,0.4c1.1,1.7,1.8,1.7,3,2.4c-0.1,0.2-0.3,0.5-0.5,0.8
		c-0.3,0.5-0.6,1.1-0.6,1.5v9.9c0,1.4,0.1,2.7,0,3.8s-0.3,2-0.7,2.7c-0.4,0.8-1,1.7-2.2,2.6c-0.9,0.8-1.5,1-1.9,1.1
		c-0.5,0.2-1.1-0.5-0.7-0.8c1.2-0.8,2-1.5,2.4-2.7c0.1-0.3,0.2-1.3,0.2-1.8V62.5H179.6z"/>
	<path fill="#445156" d="M54,79.5c0-1.4-1.2-3.4-2.6-4.5c-0.8-0.6-1.5-1.1-2-1.6c-0.3-0.2-0.5-0.4-0.7-0.5c-0.1-0.1-0.2-0.2-0.2-0.2
		c0-0.2,0.1-1.1,0.3-1.8c0.1-0.4,0.2-0.7,0.3-1c0.2-0.2,0.7-0.3,1.4,0.4c0.2,0.2,0.5,0.5,0.7,0.8c0.2,0.3,0.5,0.6,0.8,1
		c1.4,1.7,3.1,5.4,3.1,7.9c0,3.1-1.2,4.7-2.9,4.7H40.7c-1.5,0-2.5,0.4-2.5,1.4c0,0.5,0.2,0.8,0.5,1.2c0.2,0.2,0.3,0.4,0.2,0.5
		c-0.3,0.4-1.1,0-1.7-1.1c-0.4-0.5-0.8-1.4-0.8-2.1c0-2.6,2.9-2.9,4.1-2.9c0.1,0,10.4,0,10.4,0C53,81.6,54,81.1,54,79.5"/>
	<path fill="#445156" d="M75.8,90.1c-0.3,0.3-0.7,0.5-1.2,0.5c-0.5,0-0.9-0.2-1.2-0.5s-0.5-0.7-0.5-1.1s0.2-0.8,0.5-1.1
		c0.3-0.4,0.8-0.5,1.2-0.5c0.4,0,0.8,0.2,1.2,0.5c0.3,0.3,0.5,0.7,0.5,1.2C76.2,89.4,76.1,89.7,75.8,90.1"/>
	<path fill="#445156" d="M79.7,90.1c-0.3,0.3-0.7,0.5-1.2,0.5c-0.5,0-0.9-0.2-1.2-0.5s-0.5-0.7-0.5-1.1s0.2-0.8,0.5-1.1
		c0.3-0.4,0.8-0.5,1.2-0.5c0.4,0,0.8,0.2,1.2,0.5c0.3,0.3,0.5,0.7,0.5,1.2C80.1,89.4,80,89.7,79.7,90.1"/>
	<path fill="#445156" d="M77.7,93.3c-0.3,0.3-0.7,0.5-1.2,0.5c-0.5,0-0.9-0.2-1.2-0.5c-0.3-0.3-0.5-0.7-0.5-1.1
		c0-0.5,0.2-0.8,0.5-1.1c0.3-0.4,0.8-0.5,1.2-0.5c0.4,0,0.8,0.2,1.2,0.5c0.3,0.3,0.5,0.7,0.5,1.2C78.2,92.6,78,93,77.7,93.3"/>
	<path fill="#445156" d="M83.2,71.3c-0.3-0.3-0.5-0.4-0.5-0.4c-0.2,0-0.3,0.1-0.3,0.4v6.8c0,2.5-1,3.5-2.6,3.9c-0.7,0.2-8.8,0-8.8,0
		v-7.3c0-1.8-1.1-3.5-4.1-3.5c-2.6,0-4.8,0.9-6.2,2.3c-3.4,3.2-3,7.3,0.1,9.5c1.2,0.9,3,1.7,7.2,1.7c0,0,0.1,2.3,0,2.6
		c-0.2,4.2-6.6,2.4-8,0.9c-0.3-0.3-0.8,0.2-0.8,0.4c1.4,2.1,4.4,3.2,7.8,2.6c2.1-0.3,4.1-2.1,4.1-4.3v-2.3c0,0,5.7,0,8.1,0
		c4.8-0.1,6-3.7,6-5V76c0-0.3,0.2-1,0.5-1.4c0.2-0.3,0.2-0.6,0.4-0.8C84.7,73.1,84.2,73,83.2,71.3 M67.5,82c-0.4,0-0.8,0-1.2,0
		c-1.4-0.1-3.6-0.5-4.2-2.4c-1.1-3.5,1.5-6.9,3.2-7.1c1.1-0.2,2.3,0.7,2.3,2.8L67.5,82L67.5,82z"/>
	<path fill="#445156" d="M169.8,81.7c2.3,0,2.7-1.2,2.7-2.8c0-1.7-3.5-4.6-7.3-3.2c-2,0.8-7.3,6.3-7.3,6.3L169.8,81.7z M156.9,81.5
		C156.9,81.5,156.9,81.4,156.9,81.5c0.2-0.2,0.2-0.3,0.4-0.5c0.3-0.4,0.6-0.8,1.1-1.3c1-1,2.3-3,2.6-3.3c2.3-3.3,5.3-6.1,10.4-1.7
		c1.5,1.7,2.3,2.9,2.3,5.5c0.1,3.1-1.6,4.4-3.4,4.5h-16.5c-1.7,0-4.5-0.7-4.9-2.5c-0.1-0.4-0.2-0.6-0.2-0.8c0-0.2,0-0.2,0-0.3
		c0.2,0,0.2,0,0.5,0.1c0.5,0.2,1.3,0.4,2.4,0.5c1.1,0.2,3,0.4,5,0.3h0L156.9,81.5L156.9,81.5z"/>
	<path fill="#445156" d="M157.4,81.8c-1.4,1.1-2.2,1.1-2.6,1.1c-0.2,0-0.5-0.3-0.5-0.5c0-0.2,0.5-0.4,1-0.7c1.2-0.8,2-1.7,2.5-2.9
		c0.2-0.6,0.4-1.3,0.5-2.2v-14c0-0.4,0.1-0.4,0.3-0.4c0.1,0,0.2,0.1,0.5,0.4c1.1,1.7,1.8,1.7,3,2.4c-0.1,0.2-0.3,0.5-0.5,0.8
		c-0.3,0.5-0.6,1.1-0.6,1.5v8.8c0,0.4-0.9,2.4-0.9,2.7C160.1,79.4,158.7,80.9,157.4,81.8"/>
	<path fill="#445156" d="M121.6,82.4c0,0.5,0,1.1-0.1,1.7c-0.2,1.1-1.1,2.3-2.6,3.3c-4,2.8-14.9,2.3-19.2-1.1s-4.5-8.1-0.7-11
		c1.9-1.4,4.5-2,7-1.9c0.3,0,0.4,0.9-0.2,0.9c-1.4,0.2-2.9,1-4,2c-2.6,2.6-2.3,6.5,0.4,9.2s12,2.9,14.6,0.4c0.7-0.7,1.9-2.1,1.9-3.5
		v-9.7c0-0.4,0.1-0.4,0.3-0.4c0.1,0,0.2,0.1,0.5,0.4c1.1,1.7,1.8,1.7,3,2.4c-0.1,0.2-0.3,0.5-0.5,0.8c-0.3,0.5-0.5,1.1-0.5,1.5
		C121.5,77.6,121.6,81.9,121.6,82.4"/>
	<path fill="#445156" d="M181.7,100.7c0-0.3-0.5-1.1-1.1-1.1c-0.5,0-0.8,0.5-1,0.8c0.5,0.2,1.4,0.6,1.8,0.6
		C181.5,100.9,181.7,100.8,181.7,100.7 M161.1,101.7h-0.7c0,0.5-0.2,1-0.8,1.7c-0.8,0.9-1.1,1-1.6,1c-0.6,0-1.9-0.1-1.9-0.2
		c0-0.1,0.1-0.1,0.2-0.1c0.9-0.2,1.7-0.4,2.3-0.9c0.5-0.4,1.1-1,1.1-1.5c-0.2,0-0.5,0-0.9,0c-1.2,0-1.7-0.2-1.7-0.9
		c0-0.7,0.5-1.9,1.5-1.9c1,0,1.5,1,1.6,2h1h2.9c0.7,0,1.7-0.2,1.7-1c0-0.1,0.1-0.2,0.2-0.2c0.1,0,0.2,0.1,0.2,0.2c0,0.8,0.7,1,1.2,1
		c0.8,0,1.1-0.4,1.1-1c0-0.1,0.1-0.2,0.2-0.2c0.1,0,0.2,0.1,0.2,0.2c0,0.4,0.2,1,1,1c0.9,0,1.1-0.6,1.1-1c0-0.1,0.1-0.2,0.2-0.2
		c0.1,0,0.2,0.1,0.2,0.2c0,0.8,0.5,1,1.3,1h0.2h0.8c0.6,0,1.2-0.2,1.4-1.1c0-0.1,0.1-0.2,0.2-0.2c0.1,0,0.2,0.1,0.2,0.2
		c0.2,0.9,0.8,1.1,1.4,1.1h0.4h0.2c0.2,0,0.9-0.1,1.3-0.5c1.1-1.1,1.4-1.5,2.1-1.5c0.8,0,1.3,0.8,1.3,1.6s-0.5,1.3-1,1.3
		c-0.4,0-1.2-0.2-2-0.8c-0.9,0.7-1.1,0.8-1.6,0.8h-0.1c-0.9,0-1.6,0-2-0.7c-0.5,0.8-1.7,0.7-2.6,0.7c-0.7-0.1-1.1-0.2-1.4-0.7
		c-0.3,0.4-0.7,0.6-1.3,0.6s-1-0.2-1.2-0.7c-0.3,0.5-0.8,0.7-1.5,0.7c-0.6,0-0.9-0.3-1.2-0.7c-0.5,0.5-1.7,0.7-2.5,0.7L161.1,101.7
		L161.1,101.7z M159.8,100.8c-0.1-0.5-0.5-1.1-1.1-1.1c-0.5,0-0.8,0.3-0.8,0.6c0,0.5,0.7,0.5,1.1,0.5H159.8z M175.7,97.1l-0.8,0.6
		l-0.8-0.6l0.8-0.6L175.7,97.1z M153.4,103.1l-0.8,0.6l-0.8-0.6l0.8-0.6L153.4,103.1z M147.7,101.6c-1.1,0-2-0.5-2-1.4
		c0-1.1-0.2-2.2-0.3-3.8l0.8-0.6c0.2,1.7,0.2,2.3,0.2,4.2c0,0.5,0.8,0.8,1.1,0.8h0.4c0.5,0,2.2,0,2.7-0.1c0.7-0.1,2-0.5,3.2-0.9
		c-0.1-0.2-2.4-0.8-2.9-0.8c-0.8,0-1,0.5-1.2,0.5c-0.1,0-0.1,0-0.1-0.1c0-0.4,0.6-1.2,1.4-1.2c0.5,0,1.4,0.3,2.8,0.8
		c0.8,0.3,1.4,0.4,2.7,0.4l-0.5,0.8h-0.4c-0.8,0-1.1,0.1-3,0.8c-1.9,0.8-4,0.8-4.6,0.8L147.7,101.6L147.7,101.6z M141.6,97.3
		l-0.8,0.6l-0.8-0.6l0.8-0.5L141.6,97.3z M139.9,97.3l-0.8,0.6l-0.8-0.6l0.8-0.5L139.9,97.3z M144.6,100.2c0,0.5-0.4,1-1.1,1.2
		c-1.1,0.3-2.4,0.4-4.6,0.4s-3.2-0.5-3.2-1.6c0-0.7,0.5-1.3,0.7-1.3c0.1,0,0.2,0.1,0.2,0.2c0,0.1-0.3,0.4-0.3,0.8
		c0,0.6,0.5,1.1,3.4,1.1c2.3,0,4.5-0.2,4.5-0.6c0-0.2-0.1-0.3-0.6-0.8l0.5-0.8C144.3,99.1,144.6,99.4,144.6,100.2 M132,101.2
		c0,0.9-0.2,1.4-0.8,2c-0.8,0.9-1.1,1-1.6,1c-0.6,0-1.9-0.1-1.9-0.2c0-0.1,0.1-0.1,0.2-0.1c0.9-0.2,1.7-0.4,2.3-0.9
		c0.5-0.4,1.1-1,1.1-1.5c-0.2,0-0.5,0-0.9,0c-1.2,0-1.7-0.2-1.7-0.9s0.5-1.9,1.5-1.9C131.3,98.8,132,99.8,132,101.2 M131.3,100.8
		c-0.1-0.5-0.5-1.1-1.1-1.1c-0.5,0-0.8,0.3-0.8,0.6c0,0.5,0.7,0.5,1.1,0.5H131.3z M125.2,100.1c0,1.1-0.8,1.5-2.9,1.5
		c-1.4,0-1.8-0.5-1.8-1.1c0-0.6,0.2-0.8,0.4-0.8c0.2,0,0.1,0.4,0.1,0.5c0,0.4,0.5,0.6,1.4,0.6c1.5,0,2.3-0.2,2.3-0.6
		c0-0.4-1.1-1.4-2.4-2l0.3-0.9C124.4,98.3,125.2,99.2,125.2,100.1 M115.4,101.6h-0.2h-4.6c0,0.5-0.2,1-0.8,1.7c-0.8,0.9-1.1,1-1.6,1
		c-0.6,0-1.9-0.1-1.9-0.2s0.1-0.1,0.2-0.1c0.9-0.2,1.7-0.4,2.3-0.9c0.5-0.4,1.1-1,1.1-1.5c-0.2,0-0.5,0-0.9,0
		c-1.2,0-1.7-0.2-1.7-0.9s0.5-1.9,1.5-1.9c1,0,1.5,1,1.6,2h4.8h0.2c1.9,0,2.9-0.2,2.9-0.8c0-0.5-1-1.1-1.7-1.5v0.1
		c-0.3-0.2-0.9-0.7-0.9-1c0-0.7,0.3-1.1,0.5-1.1l5.1-1.4l-0.3,0.8l-1.5,0.4c-2.6,0.7-2.9,0.8-3.2,0.9c0.2,0.3,2.5,1.1,2.5,2.8
		c0,0.5-0.2,0.8-0.5,1.1C117.8,101.5,116.8,101.6,115.4,101.6L115.4,101.6z M109.9,100.8c-0.1-0.5-0.5-1.1-1.1-1.1
		c-0.5,0-0.8,0.3-0.8,0.6c0,0.5,0.7,0.5,1.1,0.5H109.9z M105.5,101.6c0,1.1-1.4,2.4-2,2.4c-0.7,0-2.2-0.1-2.2-0.2
		c0-0.1,0.1-0.1,0.5-0.2c0.5-0.1,1.3-0.5,2-0.9c1.1-0.7,1.1-0.9,1.1-1.3c0-0.4-0.5-0.8-1-1.3c0.1-0.3,0.2-0.5,0.5-0.8
		C105.1,99.9,105.5,100.5,105.5,101.6 M101.8,100.4c0,0.7-0.4,1.4-0.5,1.4c0,0-0.1-0.2-0.2-1.1l-0.5-4.2l0.9-0.7L101.8,100.4z
		 M85.7,103l-0.8,0.6l-0.8-0.6l0.8-0.5L85.7,103z M83.9,103l-0.8,0.6l-0.8-0.6l0.8-0.5L83.9,103z M79.9,101.6h-0.2h-0.8
		c0,0.5-0.2,1-0.8,1.7c-0.8,0.9-1.1,1-1.6,1c-0.6,0-1.9-0.1-1.9-0.2s0.1-0.1,0.2-0.1c0.9-0.2,1.7-0.5,2.4-1.1
		c0.5-0.4,1.1-0.8,1.1-1.4c-0.2,0-0.5,0-0.9,0c-1.2,0-1.7-0.2-1.7-0.9s0.5-1.9,1.5-1.9c1,0,1.5,1,1.6,2h1l3.2,0.1
		c0.6,0,1.2-0.2,1.4-1.1c0-0.1,0.1-0.2,0.2-0.2c0.1,0,0.2,0.1,0.2,0.2c0.2,0.9,0.8,1.1,1.4,1.1h0.4H91c0.7,0,1.7-0.2,1.7-1
		c0-0.1,0.1-0.2,0.2-0.2s0.2,0.1,0.2,0.2c0,0.8,0.7,1,1.2,1c0.8,0,1.2-0.4,1.2-1c0-0.1,0.1-0.2,0.2-0.2c0.1,0,0.2,0.1,0.2,0.2
		c0,0.4,0.2,1,1,1s1.3-0.2,1.3-0.4c0-0.3-0.2-0.6-0.6-1l0.5-0.8c0.5,0.5,0.7,1,0.7,1.5c0,0.8-0.5,1.5-1.8,1.5c-0.6,0-1-0.2-1.2-0.7
		c-0.3,0.5-0.8,0.7-1.5,0.7c-0.6,0-0.9-0.3-1.2-0.7c-0.5,0.5-1.2,0.7-2,0.7l-4.4,0.1c-0.8-0.1-1.4-0.2-1.8-0.8
		C84.1,101.6,81,101.6,79.9,101.6 M78.3,100.8c-0.1-0.5-0.5-1.1-1.1-1.1c-0.5,0-0.8,0.3-0.8,0.6c0,0.5,0.7,0.5,1.1,0.5H78.3z
		 M74.3,101.4c0,1.8-2.4,2.3-4.5,2.3c-1.1,0-2.7-0.5-2.7-1.9c0-1.1,0.7-2,1-2c0.1,0,0.2,0.1,0.2,0.1c0,0.2-0.5,0.5-0.5,1.4
		c0,1.2,1.2,1.4,2.6,1.4c1.1,0,3.5-0.3,3.5-1.4c0-0.5-0.2-0.9-1.1-1.8l0.5-0.8C74,99.6,74.3,100.5,74.3,101.4 M71.5,98.4L70.7,99
		l-0.8-0.6l0.8-0.6L71.5,98.4z M64.7,100.1c0,1.1-0.8,1.5-2.9,1.5c-1.4,0-1.8-0.5-1.8-1.1c0-0.6,0.2-0.8,0.4-0.8s0.1,0.4,0.1,0.5
		c0,0.4,0.5,0.6,1.4,0.6c1.5,0,2.3-0.2,2.3-0.6c0-0.4-1.1-1.4-2.4-2l0.3-0.9C64,98.3,64.7,99.2,64.7,100.1 M58.8,100.3
		c0,0.7-0.4,1.4-0.5,1.4c0,0-0.1-0.2-0.2-1.1l-0.5-4.2l0.9-0.7L58.8,100.3z M53.8,96.1L53,96.7l-0.7-0.6l0.8-0.6L53.8,96.1z
		 M45.3,101.6h-0.9c-2.4,0-2.9,0-2.9,0.2c0,0.1,0.5,0.2,1.1,0.2c1.4,0.1,1.5,0.2,1.5,0.7c-0.1,1.5-2.5,1.9-4.8,1.9
		c-1.6,0-3-0.5-3-1.9c0-1.1,0.5-1.6,0.8-1.6c0.1,0,0.2,0.1,0.2,0.2c0,0.2-0.4,0.2-0.4,1c0,1.2,1.2,1.5,3.2,1.5s3.5-0.5,3.5-0.8
		c0-0.3-2.9,0.2-2.9-0.6c0-0.6,1-1.4,1.8-1.5c0.6-0.1,1.8-0.2,2.6-0.2h0.1h0.1c0.1,0,0.5,0,0.7-0.1c0.4-0.1,0.8-0.2,0.7-0.9
		l-0.1-3.2l0.7-0.6l0.2,4.1c0,0.5,0.6,0.8,1.4,0.8h0.2c0.5,0,1.1-0.1,1.7-0.2c0.7-0.1,2-0.5,3.2-0.9c-0.1-0.2-2.4-0.8-2.9-0.8
		c-0.8,0-1,0.5-1.2,0.5c-0.1,0-0.1,0-0.1-0.1c0-0.4,0.6-1.2,1.4-1.2c0.5,0,1.4,0.3,2.8,0.8c0.8,0.3,1.4,0.4,2.7,0.4l-0.5,0.8h-0.5
		c-0.8,0-1.1,0.1-3,0.8c-1.9,0.8-2.9,0.8-3.5,0.8H49h-0.1c-0.8,0-1.5-0.2-1.9-0.7C46.8,101.2,46.2,101.5,45.3,101.6L45.3,101.6
		L45.3,101.6z"/>
	<path fill="#445156" d="M182.1,100.4c0-0.8-0.5-1.6-1.3-1.6c-0.7,0-1.1,0.4-2.1,1.5c-0.4,0.4-1.1,0.5-1.3,0.5h-0.2
		c-0.2,0-0.2,0.8,0,0.8h0.2c0.5,0,0.8-0.1,1.6-0.8c0.8,0.5,1.7,0.8,2,0.8C181.7,101.7,182.1,101.2,182.1,100.4 M181.7,100.7
		c0,0.2-0.1,0.2-0.3,0.2c-0.5,0-1.4-0.4-1.8-0.6c0.2-0.3,0.5-0.8,1-0.8C181.1,99.6,181.7,100.5,181.7,100.7"/>
	<path fill="#445156" d="M175.7,97.1l-0.8,0.6l-0.8-0.6l0.8-0.6L175.7,97.1z M177.4,101.7c-0.9,0-1.6,0-2-0.7
		c-0.5,0.8-1.7,0.7-2.6,0.7c-0.2,0-0.2-0.8,0-0.8h1c0.6,0,1.2-0.2,1.4-1.1c0-0.1,0.1-0.2,0.2-0.2s0.2,0.1,0.2,0.2
		c0.2,0.9,0.8,1.1,1.4,1.1h0.5C177.5,100.8,177.6,101.7,177.4,101.7L177.4,101.7z"/>
	<path fill="#445156" d="M173,101.7c0.2,0,0.2-0.8,0-0.8h-0.2c-0.8,0-1.3-0.2-1.3-1c0-0.1-0.1-0.2-0.2-0.2c-0.1,0-0.2,0.1-0.2,0.2
		c0,0.4-0.2,1-1.1,1c-0.8,0-1-0.6-1-1c0-0.1-0.1-0.2-0.2-0.2c-0.1,0-0.2,0.1-0.2,0.2c0,0.6-0.4,1-1.1,1c-0.5,0-1.2-0.2-1.2-1
		c0-0.1-0.1-0.2-0.2-0.2c-0.1,0-0.2,0.1-0.2,0.2c0,0.8-1,1-1.7,1h-2.5c-0.2,0-0.6,0.8-0.4,0.8h2.6c0.8,0,2-0.1,2.5-0.7
		c0.3,0.4,0.6,0.7,1.2,0.7c0.7,0,1.1-0.2,1.5-0.7c0.2,0.4,0.6,0.7,1.2,0.7c0.6,0,1-0.3,1.3-0.6c0.4,0.5,0.8,0.6,1.5,0.6H173z"/>
	<path fill="#445156" d="M161.5,101.7c0.2,0,0.2-0.8,0-0.8h-1c-0.2-1.1-0.7-2-1.6-2c-1,0-1.5,1.2-1.5,1.9s0.5,0.9,1.7,0.9
		c0.5,0,0.7,0,0.9,0c0,0.5-0.7,1.1-1.1,1.5c-0.7,0.5-1.4,0.7-2.3,0.9c-0.2,0-0.2,0.1-0.2,0.1c0,0.1,1.2,0.2,1.9,0.2
		c0.5,0,0.8-0.1,1.6-1c0.5-0.7,0.8-1.2,0.8-1.7L161.5,101.7C161.4,101.7,161.5,101.7,161.5,101.7z M159.8,100.8H159
		c-0.5,0-1.1-0.1-1.1-0.5c0-0.4,0.4-0.6,0.8-0.6C159.3,99.6,159.8,100.3,159.8,100.8"/>
	<path fill="#445156" d="M153.4,103.1l-0.8,0.6l-0.8-0.6l0.8-0.6L153.4,103.1z M156.7,99.3l-0.5,0.8h-0.5c-0.8,0-1.1,0.1-3,0.8
		c-1.9,0.8-4,0.8-4.6,0.8h-0.3c-0.2,0-0.2-0.8,0-0.8h0.2c0.4,0,2.1,0,2.7-0.2c0.7-0.1,2-0.5,3.2-0.9c-0.1-0.2-2.4-0.8-2.9-0.8
		c-0.8,0-1,0.5-1.2,0.5c-0.1,0-0.1,0-0.1-0.1c0-0.4,0.6-1.2,1.4-1.2c0.5,0,1.4,0.3,2.8,0.8C154.9,99.2,155.4,99.3,156.7,99.3"/>
	<path fill="#445156" d="M148,101.6c0.2,0,0.2-0.8,0-0.8h-0.4c-0.3,0-1.1-0.2-1.1-0.8c0-1.9,0-2.4-0.2-4.2l-0.8,0.6
		c0.2,1.6,0.3,2.6,0.3,3.8C145.8,101.1,146.8,101.6,148,101.6L148,101.6z"/>
	<path fill="#445156" d="M141.6,97.3l-0.8,0.6l-0.8-0.6l0.8-0.5L141.6,97.3z M139.9,97.3l-0.8,0.6l-0.8-0.6l0.8-0.5L139.9,97.3z
		 M144.6,100.2c0,0.5-0.4,1-1.1,1.2c-1.1,0.3-2.4,0.4-4.6,0.4s-3.2-0.5-3.2-1.6c0-0.7,0.5-1.3,0.7-1.3c0.1,0,0.2,0.1,0.2,0.2
		c0,0.1-0.3,0.4-0.3,0.8c0,0.6,0.5,1.1,3.4,1.1c2.3,0,4.5-0.2,4.5-0.6c0-0.2-0.1-0.3-0.6-0.8l0.5-0.8
		C144.3,99.1,144.6,99.4,144.6,100.2"/>
	<path fill="#445156" d="M132,101.2c0-1.4-0.7-2.4-1.6-2.4c-1,0-1.5,1.2-1.5,1.9s0.5,0.9,1.7,0.9c0.5,0,0.7,0,0.9,0
		c0,0.5-0.7,1.1-1.1,1.5c-0.7,0.5-1.4,0.7-2.3,0.9c-0.2,0-0.2,0.1-0.2,0.1c0,0.1,1.2,0.2,1.9,0.2c0.5,0,0.8-0.1,1.6-1
		C131.8,102.6,132,102.1,132,101.2 M131.3,100.8h-0.7c-0.5,0-1.1-0.1-1.1-0.5c0-0.4,0.4-0.6,0.8-0.6
		C130.8,99.6,131.3,100.3,131.3,100.8"/>
	<path fill="#445156" d="M125.2,100.1c0,1.1-0.8,1.5-2.9,1.5c-1.4,0-1.8-0.5-1.8-1.1c0-0.6,0.2-0.8,0.4-0.8c0.2,0,0.1,0.4,0.1,0.5
		c0,0.4,0.5,0.6,1.4,0.6c1.5,0,2.3-0.2,2.3-0.6c0-0.4-1.1-1.4-2.4-2l0.3-0.9C124.4,98.3,125.2,99.2,125.2,100.1 M115.4,101.6h-0.2
		h-4.6c0,0.5-0.2,1-0.8,1.7c-0.8,0.9-1.1,1-1.6,1c-0.6,0-1.9-0.1-1.9-0.2s0.1-0.1,0.2-0.1c0.9-0.2,1.7-0.4,2.3-0.9
		c0.5-0.4,1.1-1,1.1-1.5c-0.2,0-0.5,0-0.9,0c-1.2,0-1.7-0.2-1.7-0.9s0.5-1.9,1.5-1.9c1,0,1.5,1,1.6,2h4.8h0.2c1.9,0,2.9-0.2,2.9-0.8
		c0-0.5-1-1.1-1.7-1.5v0.1c-0.3-0.2-0.9-0.7-0.9-1c0-0.7,0.3-1.1,0.5-1.1l5.1-1.4l-0.3,0.8l-1.5,0.4c-2.6,0.7-2.9,0.8-3.2,0.9
		c0.2,0.3,2.5,1.1,2.5,2.8c0,0.5-0.2,0.8-0.5,1.1C117.8,101.5,116.8,101.6,115.4,101.6L115.4,101.6z M109.9,100.8
		c-0.1-0.5-0.5-1.1-1.1-1.1c-0.5,0-0.8,0.3-0.8,0.6c0,0.5,0.7,0.5,1.1,0.5H109.9z M105.5,101.6c0,1.1-1.4,2.4-2,2.4
		c-0.7,0-2.2-0.1-2.2-0.2c0-0.1,0.1-0.1,0.5-0.2c0.5-0.1,1.3-0.5,2-0.9c1.1-0.7,1.1-0.9,1.1-1.3c0-0.4-0.5-0.8-1-1.3
		c0.1-0.3,0.2-0.5,0.5-0.8C105.1,99.9,105.5,100.5,105.5,101.6 M101.8,100.4c0,0.7-0.4,1.4-0.5,1.4c0,0-0.1-0.2-0.2-1.1l-0.5-4.2
		l0.9-0.7L101.8,100.4z M85.7,103l-0.8,0.6l-0.8-0.6l0.8-0.5L85.7,103z M83.9,103l-0.8,0.6l-0.8-0.6l0.8-0.5L83.9,103z M79.9,101.6
		h-0.2h-0.8c0,0.5-0.2,1-0.8,1.7c-0.8,0.9-1.1,1-1.6,1c-0.6,0-1.9-0.1-1.9-0.2s0.1-0.1,0.2-0.1c0.9-0.2,1.7-0.5,2.4-1.1
		c0.5-0.4,1.1-0.8,1.1-1.4c-0.2,0-0.5,0-0.9,0c-1.2,0-1.7-0.2-1.7-0.9s0.5-1.9,1.5-1.9c1,0,1.5,1,1.6,2h1l3.2,0.1
		c0.6,0,1.2-0.2,1.4-1.1c0-0.1,0.1-0.2,0.2-0.2c0.1,0,0.2,0.1,0.2,0.2c0.2,0.9,0.8,1.1,1.4,1.1h0.4H91c0.7,0,1.7-0.2,1.7-1
		c0-0.1,0.1-0.2,0.2-0.2s0.2,0.1,0.2,0.2c0,0.8,0.7,1,1.2,1c0.8,0,1.2-0.4,1.2-1c0-0.1,0.1-0.2,0.2-0.2c0.1,0,0.2,0.1,0.2,0.2
		c0,0.4,0.2,1,1,1s1.3-0.2,1.3-0.4c0-0.3-0.2-0.6-0.6-1l0.5-0.8c0.5,0.5,0.7,1,0.7,1.5c0,0.8-0.5,1.5-1.8,1.5c-0.6,0-1-0.2-1.2-0.7
		c-0.3,0.5-0.8,0.7-1.5,0.7c-0.6,0-0.9-0.3-1.2-0.7c-0.5,0.5-1.2,0.7-2,0.7l-4.4,0.1c-0.8-0.1-1.4-0.2-1.8-0.8
		C84.1,101.6,81,101.6,79.9,101.6 M78.3,100.8c-0.1-0.5-0.5-1.1-1.1-1.1c-0.5,0-0.8,0.3-0.8,0.6c0,0.5,0.7,0.5,1.1,0.5H78.3z
		 M74.3,101.4c0,1.8-2.4,2.3-4.5,2.3c-1.1,0-2.7-0.5-2.7-1.9c0-1.1,0.7-2,1-2c0.1,0,0.2,0.1,0.2,0.1c0,0.2-0.5,0.5-0.5,1.4
		c0,1.2,1.2,1.4,2.6,1.4c1.1,0,3.5-0.3,3.5-1.4c0-0.5-0.2-0.9-1.1-1.8l0.5-0.8C74,99.6,74.3,100.5,74.3,101.4 M71.5,98.4L70.7,99
		l-0.8-0.6l0.8-0.6L71.5,98.4z"/>
	<path fill="#445156" d="M125.2,100.1c0-0.9-0.8-1.8-2.6-2.8l-0.3,0.9c1.3,0.7,2.4,1.6,2.4,2c0,0.5-0.8,0.6-2.3,0.6
		c-1,0-1.4-0.2-1.4-0.6c0-0.2,0.2-0.5-0.1-0.5c-0.2,0-0.4,0.3-0.4,0.8c0,0.6,0.4,1.1,1.8,1.1C124.4,101.6,125.2,101.1,125.2,100.1"
		/>
	<path fill="#445156" d="M121.4,95l-5.1,1.4c-0.3,0.1-0.5,0.5-0.5,1.1c0,0.2,0.6,0.8,0.9,1l0.1-0.2c0.7,0.4,1.7,1,1.7,1.5
		c0,0.6-1,0.8-2.9,0.8h-0.2c-0.2,0-0.2,0.8,0,0.8h0.2c1.2,0,2.3-0.1,2.9-0.6c0.3-0.2,0.5-0.6,0.5-1.1c0-1.7-2.3-2.5-2.5-2.8
		c0.2-0.1,0.5-0.2,3.2-0.9l1.5-0.4L121.4,95z"/>
	<path fill="#445156" d="M115.4,101.6c0.2,0,0.2-0.8,0-0.8h-4.8c-0.2-1.1-0.7-2-1.6-2c-1,0-1.5,1.2-1.5,1.9s0.5,0.9,1.7,0.9
		c0.5,0,0.7,0,0.9,0c0,0.5-0.7,1.1-1.1,1.5c-0.7,0.5-1.4,0.7-2.3,0.9c-0.2,0-0.2,0.1-0.2,0.1c0,0.1,1.2,0.2,1.9,0.2
		c0.5,0,0.8-0.1,1.6-1c0.5-0.7,0.8-1.2,0.8-1.7h4.7C115.3,101.6,115.4,101.6,115.4,101.6z M109.9,100.8h-0.8c-0.5,0-1.1-0.1-1.1-0.5
		c0-0.4,0.4-0.6,0.8-0.6C109.4,99.6,109.9,100.3,109.9,100.8"/>
	<path fill="#445156" d="M105.5,101.6c0-1.1-0.5-1.6-1.1-2.2c-0.2,0.2-0.4,0.5-0.5,0.8c0.5,0.5,1,0.9,1,1.3c0,0.4-0.1,0.6-1.1,1.3
		c-0.8,0.5-1.5,0.8-2,0.9c-0.4,0.1-0.5,0.1-0.5,0.2c0,0.1,1.4,0.2,2.2,0.2C104.2,103.9,105.5,102.7,105.5,101.6"/>
	<path fill="#445156" d="M101.8,100.4l-0.2-4.5l-0.9,0.7l0.5,4.2c0.1,0.8,0.1,1.1,0.2,1.1C101.4,101.8,101.8,101.1,101.8,100.4"/>
	<path fill="#445156" d="M98.6,100.1c0-0.5-0.2-1.1-0.7-1.5l-0.5,0.8c0.5,0.4,0.6,0.7,0.6,1c0,0.2-0.5,0.4-1.3,0.4s-1-0.6-1-1
		c0-0.1-0.1-0.2-0.2-0.2c-0.1,0-0.2,0.1-0.2,0.2c0,0.6-0.4,1-1.2,1c-0.5,0-1.2-0.2-1.2-1c0-0.1-0.1-0.2-0.2-0.2s-0.2,0.1-0.2,0.2
		c0,0.8-1,1-1.7,1l-4.6,0.1c-0.2,0-0.2,0.8,0,0.8l4.4-0.1c0.8,0,1.5-0.2,2-0.7c0.3,0.4,0.6,0.7,1.2,0.7c0.7,0,1.1-0.2,1.5-0.7
		c0.2,0.4,0.6,0.7,1.2,0.7C98,101.6,98.6,101,98.6,100.1"/>
	<path fill="#445156" d="M85.7,103l-0.8,0.6l-0.8-0.6l0.8-0.5L85.7,103z M83.9,103l-0.8,0.6l-0.8-0.6l0.8-0.5L83.9,103z M86.6,101.6
		c-0.9,0-1.6,0-2-0.7c-0.5,0.8-3.9,0.7-4.8,0.7c-0.2,0-0.2-0.8,0-0.8l3.2,0.1c0.6,0,1.2-0.2,1.4-1.1c0-0.1,0.1-0.2,0.2-0.2
		s0.2,0.1,0.2,0.2c0.2,0.9,0.8,1.1,1.4,1.1h0.4C86.8,100.8,86.9,101.6,86.6,101.6L86.6,101.6z"/>
	<path fill="#445156" d="M79.9,101.6c0.2,0,0.2-0.8,0-0.8h-1c-0.2-1.1-0.7-2-1.6-2c-1,0-1.5,1.2-1.5,1.9s0.5,0.9,1.7,0.9
		c0.5,0,0.7,0,0.9,0c0,0.5-0.6,1-1.1,1.4c-0.7,0.5-1.5,0.8-2.4,1.1c-0.2,0-0.2,0.1-0.2,0.1c0,0.1,1.2,0.2,1.9,0.2
		c0.5,0,0.8-0.1,1.6-1c0.5-0.7,0.7-1.2,0.7-1.7h0.8C79.7,101.6,79.9,101.6,79.9,101.6z M78.3,100.8h-0.8c-0.5,0-1.1-0.1-1.1-0.5
		c0-0.4,0.4-0.6,0.8-0.6C77.7,99.6,78.3,100.2,78.3,100.8"/>
	<path fill="#445156" d="M74.3,101.4c0-0.9-0.3-1.7-1-2.5l-0.5,0.8c0.8,0.9,1.1,1.2,1.1,1.8c0,1.1-2.5,1.4-3.5,1.4
		c-1.3,0-2.6-0.3-2.6-1.4c0-0.8,0.5-1.2,0.5-1.4c0-0.1-0.1-0.1-0.2-0.1c-0.3,0-1,0.9-1,2c0,1.4,1.5,1.9,2.7,1.9
		C71.9,103.7,74.3,103.1,74.3,101.4 M71.5,98.4L70.7,99l-0.8-0.6l0.8-0.6L71.5,98.4z"/>
	<path fill="#445156" d="M64.7,100.1c0,1.1-0.8,1.5-2.9,1.5c-1.4,0-1.8-0.5-1.8-1.1c0-0.6,0.2-0.8,0.4-0.8s0.1,0.4,0.1,0.5
		c0,0.4,0.5,0.6,1.4,0.6c1.5,0,2.3-0.2,2.3-0.6c0-0.4-1.1-1.4-2.4-2l0.3-0.9C64,98.3,64.7,99.2,64.7,100.1 M58.8,100.3
		c0,0.7-0.4,1.4-0.5,1.4c0,0-0.1-0.2-0.2-1.1l-0.5-4.2l0.9-0.7L58.8,100.3z M53.8,96.1L53,96.7l-0.7-0.6l0.8-0.6L53.8,96.1z
		 M45.3,101.6h-0.9c-2.4,0-2.9,0-2.9,0.2c0,0.1,0.5,0.2,1.1,0.2c1.4,0.1,1.5,0.2,1.5,0.7c-0.1,1.5-2.5,1.9-4.8,1.9
		c-1.6,0-3-0.5-3-1.9c0-1.1,0.5-1.6,0.8-1.6c0.1,0,0.2,0.1,0.2,0.2c0,0.2-0.4,0.2-0.4,1c0,1.2,1.2,1.5,3.2,1.5s3.5-0.5,3.5-0.8
		c0-0.3-2.9,0.2-2.9-0.6c0-0.6,1-1.4,1.8-1.5c0.6-0.1,1.8-0.2,2.6-0.2h0.1h0.1c0.1,0,0.5,0,0.7-0.1c0.4-0.1,0.8-0.2,0.7-0.9
		l-0.1-3.2l0.7-0.6l0.2,4.1c0,0.5,0.6,0.8,1.4,0.8h0.2c0.5,0,1.1-0.1,1.7-0.2c0.7-0.1,2-0.5,3.2-0.9c-0.1-0.2-2.4-0.8-2.9-0.8
		c-0.8,0-1,0.5-1.2,0.5c-0.1,0-0.1,0-0.1-0.1c0-0.4,0.6-1.2,1.4-1.2c0.5,0,1.4,0.3,2.8,0.8c0.8,0.3,1.4,0.4,2.7,0.4l-0.5,0.8h-0.5
		c-0.8,0-1.1,0.1-3,0.8c-1.9,0.8-2.9,0.8-3.5,0.8H49h-0.1c-0.8,0-1.5-0.2-1.9-0.7C46.8,101.2,46.2,101.5,45.3,101.6L45.3,101.6
		L45.3,101.6z"/>
	<path fill="#445156" d="M64.7,100c0-0.9-0.8-1.8-2.6-2.8l-0.3,0.9c1.3,0.7,2.4,1.6,2.4,2s-0.8,0.6-2.3,0.6c-1,0-1.4-0.2-1.4-0.6
		c0-0.1,0.2-0.5-0.1-0.5c-0.2,0-0.4,0.3-0.4,0.8c0,0.6,0.4,1.1,1.8,1.1C63.9,101.6,64.7,101.1,64.7,100"/>
	<path fill="#445156" d="M58.8,100.3l-0.2-4.4l-0.9,0.7l0.5,4.2c0.1,0.8,0.1,1.1,0.2,1.1S58.8,101.1,58.8,100.3"/>
	<path fill="#445156" d="M53.8,96.1L53,96.7l-0.7-0.6l0.8-0.6L53.8,96.1z M56.7,99.3l-0.5,0.8h-0.5c-0.8,0-1.1,0.1-3,0.8
		c-1.9,0.8-2.9,0.8-3.5,0.8h-0.3c-0.2,0-0.2-0.8,0-0.8h0.2c0.4,0,1.1-0.1,1.7-0.2c0.7-0.1,2-0.5,3.2-0.9c-0.1-0.2-2.4-0.8-2.9-0.8
		c-0.8,0-1,0.5-1.2,0.5c-0.1,0-0.1,0-0.1-0.1c0-0.4,0.6-1.2,1.4-1.2c0.5,0,1.4,0.3,2.8,0.8C54.9,99.1,55.5,99.2,56.7,99.3"/>
	<path fill="#445156" d="M49,101.6c0.2,0,0.2-0.8,0-0.8h-0.2c-0.8,0-1.3-0.3-1.4-0.8l-0.2-4.1l-0.7,0.6l0.2,3.3
		c0,0.7-0.3,0.8-0.7,0.9c-0.3,0.1-0.7,0.1-0.7,0.1l0,0c-0.2,0-0.2,0.8,0,0.8h0.2c0.8,0,1.3-0.2,1.7-0.7
		C47.5,101.4,48.2,101.7,49,101.6L49,101.6L49,101.6z"/>
	<path fill="#445156" d="M45.3,101.6c0.2,0,0.2-0.8,0-0.8h-0.1c-0.8,0-2,0-2.6,0.2c-1,0.1-1.9,0.7-1.9,1.4c0,0.8,2.9,0.3,2.9,0.6
		c0,0.3-1.4,0.8-3.5,0.8c-2,0-3.2-0.3-3.2-1.5c0-0.8,0.4-0.8,0.4-1c0-0.1-0.1-0.2-0.2-0.2c-0.3,0-0.8,0.5-0.8,1.6
		c0,1.4,1.5,1.9,3,1.9c2.3,0,4.8-0.3,4.8-1.9c0-0.4-0.1-0.6-1.5-0.6c-0.6-0.1-1.1-0.2-1.1-0.2c0-0.2,0.5-0.2,2.9-0.2h0.9V101.6z"/>
	<path fill="#445156" d="M222.9,63.5H222c-15.3,0-27.3,8.9-27.3,19.4s12.1,19.3,27.3,19.3h0.9c15.3,0,27.6-8.8,27.6-19.3
		S238.2,63.5,222.9,63.5z M223,100.5h-0.8c-14.2,0-25.7-7.9-25.7-17.7s11.5-17.7,25.7-17.7h0.8c14.2,0,25.7,7.9,25.7,17.7
		S237.2,100.5,223,100.5z"/>
	<path fill="#445156" d="M218.4,88.7c0.1-0.8,0.4-1.4,1.2-2.4c1.2-1.4,5.2-2.5,8.8-0.3v2.9c-0.5-0.4-1.1-1-1.6-1.3
		c-1.8-1.2-5.1-1.7-6.6-0.1c-0.4,0.4-0.7,1.1-0.8,1.4C219.2,89.4,218.3,89.1,218.4,88.7"/>
	<path fill="#445156" d="M231.9,90.6c0.1,0.9-0.5,3.1-2.9,3.2c-0.2,0-0.5,0.1-0.8-0.1c0.9-0.5,1.1-1.4,1.1-2.9c0,0,0-18.4,0-19.3
		c-0.2-3.7,2.2-3.8,2.6-3.8L231.9,90.6L231.9,90.6z"/>
	<path fill="#445156" d="M236.3,80.1c-0.5,0-0.9-0.2-0.9-0.7c0-0.4,0.3-0.7,0.7-0.7c2.1,0,2.9-1.4,3.1-3.1c0.2-1.9-1.6-3.9-3.9-4
		c-13.8-1.1-16,21.8-27.5,21.8c-2.5,0-6.3-1.4-5.4-5.6c0.1-0.6,1.2-0.5,1.3,0.1c0,0.2,0.1,0.7,0.1,1c0.3,3.1,4,3,6.8,1.5
		c7.6-4.1,10.6-20.9,23.3-20.9c0.7,0,4.8,0.2,6.6,3.2c0.8,1.3,1,3.5-0.1,5.1C239.2,79.3,237.9,80.1,236.3,80.1"/>
</g>
</svg>
