<?xml version="1.0" encoding="utf-8"?>
<!-- Generator: Adobe Illustrator 18.0.0, SVG Export Plug-In . SVG Version: 6.00 Build 0)  -->
<!DOCTYPE svg PUBLIC "-//W3C//DTD SVG 1.1//EN" "http://www.w3.org/Graphics/SVG/1.1/DTD/svg11.dtd">
<svg version="1.1" id="Layer_1" xmlns="http://www.w3.org/2000/svg" xmlns:xlink="http://www.w3.org/1999/xlink" x="0px" y="0px"
	 width="451px" height="87.1px" viewBox="0 0 451 87.1" enable-background="new 0 0 451 87.1" xml:space="preserve">
<g>
	<rect x="14.6" y="56.9" fill-rule="evenodd" clip-rule="evenodd" fill="#49443E" width="46" height="1.1"/>
	<rect x="99.7" y="56.9" fill-rule="evenodd" clip-rule="evenodd" fill="#49443E" width="204.7" height="1.1"/>
	<path fill="#49443E" d="M297.4,4.5c0-0.6,0.2-0.8,0.6-0.8c0.1,0,0.5,0.1,1,0.7c2.2,3.2,3.7,3.3,6,4.5c-0.2,0.4-0.6,0.9-0.9,1.5
		c-0.5,1-1.2,2.2-1.2,2.8l0,18.4c0,2.8,0.1,5.1,0,7.1c-0.1,2-0.6,3.7-1.3,5.1c-0.8,1.6-2,3.1-4.3,4.8c-1.9,1.3-3.1,1.8-3.7,2.1
		c-1.1,0.4-2.2-1-1.4-1.5c2.4-1.4,3.9-2.9,4.8-5.1c0.2-0.5,0.5-2.4,0.5-3.4L297.4,4.5z"/>
	<path fill-rule="evenodd" clip-rule="evenodd" fill="#49443E" d="M231.6,4.6c0-0.6,0.2-0.8,0.6-0.8c0.2,0,0.5,0.1,1,0.7
		c2.2,3.2,3.6,3.3,5.9,4.5c-0.2,0.4-0.6,0.9-0.9,1.5c-0.5,1-1.2,2.2-1.2,2.8v24.9c0,2.6-0.3,4.5-1.8,5.9c-1.4,1.2-4,1.7-5.6,1.8
		c-5.2,0.3-13.1-3.9-13.6-6.4c0-0.1,0-0.2,0-0.2c0,0,0.1,0,0.1,0c0.1,0,0.3,0.1,0.6,0.2c2.4,2,7.8,3,9.2,3c4.8,0,5.6-2.9,5.6-7.2
		V4.6z"/>
	<path fill-rule="evenodd" clip-rule="evenodd" fill="#49443E" d="M194.2,24c0-0.6,0.2-0.8,0.6-0.8c0.1,0,0.5,0.1,1,0.7
		c2.2,3.2,3.5,3.3,5.8,4.5c-0.2,0.4-0.6,0.9-0.9,1.5c-0.5,1-1.2,2.2-1.2,2.8v5.4c0,2.6-0.3,4.5-1.8,5.9c-1.4,1.2-3.2,1.8-5.3,1.8
		c-2.5,0-4.6-0.8-7.1-2.3c-2.3-1.4-3.1-2.4-3.1-2.9c0-0.2,0-0.3,0-0.3c0,0,0-0.1,0.1-0.1c0.1,0,0.8,0.5,1.1,0.7
		c2.1,1.3,3.9,1.9,5.4,1.9c4.8,0.2,5.4-2.9,5.4-7.5V24z"/>
	<path fill="#49443E" d="M48.1,36.4c0-2.5-2.4-6.3-5.3-8.6c-1.5-1.1-2.9-2.2-4-3c-0.5-0.4-1-0.7-1.3-1c-0.2-0.1-0.3-0.2-0.3-0.3
		c-0.1-0.5,0.2-2,0.5-3.4c0.2-0.7,0.4-1.3,0.6-1.8c0.2-0.5,1.4-0.6,2.9,0.7c0.5,0.4,0.9,0.9,1.4,1.4c0.5,0.5,1,1.2,1.6,1.8
		c2.9,3.1,6.1,10.1,6.1,14.9c0,5.8-2.3,8.7-5.8,8.7H21.7c-3,0-4.9,0.8-4.9,2.7c0,0.9,0.4,1.6,0.9,2.3c0.3,0.3,0.7,0.7,0.3,1
		c-0.7,0.6-2.1-0.1-3.5-2c-0.7-0.9-1.6-2.6-1.6-4.1c0-4.8,5.9-5.5,8.1-5.6c0.1,0,20.7,0,20.7,0C46.1,40.3,48.1,39.3,48.1,36.4z"/>
	<path fill-rule="evenodd" clip-rule="evenodd" fill="#49443E" d="M91.3,56.2c-0.6,0.6-1.4,0.9-2.4,0.9c-1,0-1.8-0.3-2.4-0.9
		c-0.7-0.6-1-1.3-1-2.2c0-0.8,0.3-1.5,1-2.2c0.6-0.6,1.5-1,2.4-1c0.9,0,1.7,0.3,2.4,1c0.6,0.6,1,1.3,1,2.2
		C92.3,54.9,92,55.6,91.3,56.2z"/>
	<path fill-rule="evenodd" clip-rule="evenodd" fill="#49443E" d="M99.1,56.2c-0.6,0.6-1.4,0.9-2.4,0.9c-1,0-1.8-0.3-2.4-0.9
		c-0.7-0.6-1-1.3-1-2.2c0-0.8,0.3-1.5,1-2.2c0.6-0.6,1.5-1,2.4-1c0.9,0,1.7,0.3,2.4,1c0.6,0.6,1,1.3,1,2.2
		C100.1,54.9,99.8,55.6,99.1,56.2z"/>
	<path fill-rule="evenodd" clip-rule="evenodd" fill="#49443E" d="M95.2,62.2c-0.6,0.6-1.4,0.9-2.4,0.9c-1,0-1.8-0.3-2.4-0.9
		c-0.7-0.6-1-1.3-1-2.1c0-0.8,0.3-1.5,1-2.2c0.7-0.6,1.5-1,2.4-1c0.9,0,1.7,0.3,2.4,1c0.6,0.6,1,1.3,1,2.2
		C96.2,60.9,95.8,61.6,95.2,62.2z"/>
	<path fill="#49443E" d="M106,21c-0.5-0.6-0.9-0.7-1-0.7c-0.4,0-0.6,0.1-0.6,0.8v12.7c0,4.7-1.9,6.6-5.2,7.2c-1.4,0.3-17.5,0-17.5,0
		V27.2c0-3.4-2.1-6.5-8.1-6.5c-5.2,0-9.5,1.7-12.4,4.2c-6.8,6-5.9,13.5,0.1,17.8c2.4,1.7,6,3.1,14.3,3.1c0,0,0.2,4.3,0,5
		c-0.5,7.8-13.2,4.6-15.9,1.7C59.2,52,58,53,58.2,53.3c2.9,4,8.7,6,15.5,5c4.2-0.6,8.1-3.9,8.1-8c0-1.1,0-4.3,0-4.3s11.4,0,16.1,0
		c9.6-0.1,12-6.9,12-9.4v-6.8c0-0.6,0.5-1.8,0.9-2.8c0.3-0.6,0.5-1.2,0.7-1.5C109,24.3,108.2,24.1,106,21z M74.8,40.9
		c-0.7,0-1.6,0-2.4-0.1c-2.9-0.1-7.3-0.9-8.5-4.6C61.8,29.7,67,23.4,70.1,23c2.3-0.3,4.7,1.3,4.7,5.3V40.9z"/>
	<path fill-rule="evenodd" clip-rule="evenodd" fill="#49443E" d="M278,40.6c4.4-0.1,5.4-2.3,5.4-5.2c-0.1-3.3-7.1-8.6-14.6-6.1
		c-3.8,1.3-14.3,11.6-14.3,11.6L278,40.6z M252.7,40.2c0,0,0-0.1,0.1-0.2c0.1-0.2,0.3-0.5,0.7-0.8c0.6-0.7,1.3-1.5,2.2-2.5
		c2-1.9,4.6-5.7,5-6.3c4.5-6.2,10.5-11.4,20.7-3.1c3,3.1,4.6,5.4,4.7,10.3c0.1,5.8-3.2,8.2-6.7,8.3h-32.7c-3.5,0-8.9-1.3-9.7-4.6
		c-0.2-0.7-0.2-1.1-0.3-1.5c-0.1-0.3,0-0.5,0.1-0.5c0.3,0,0.5,0,1,0.1c1,0.3,2.6,0.7,4.9,1c2.3,0.4,6,0.6,9.9,0.6l-0.3,0L252.7,40.2
		L252.7,40.2z"/>
	<path fill="#49443E" d="M253.5,40.7c-2.9,2.2-4.4,2.1-5.1,2.1c-0.4,0-0.8-0.6-0.8-0.8c0-0.3,1-0.7,1.9-1.2c2.4-1.4,4-3.3,4.9-5.5
		c0.4-1.1,0.8-2.5,1-4.1c0-4.8,0-26.6,0-26.6c0-0.6,0.2-0.8,0.6-0.8c0.1,0,0.5,0.1,1,0.7c2.2,3.2,3.6,3.3,6,4.5
		c-0.2,0.4-0.6,0.9-0.9,1.5c-0.5,1-1.2,2.2-1.2,2.8v16.5c0,0.7-1.7,4.6-1.8,5.1C258.8,36.2,255.9,38.9,253.5,40.7z"/>
	<path fill="#49443E" d="M182.4,41.8c0,1.1,0,2.1-0.2,3.1c-0.4,1.9-2.2,4.2-5.2,6.2c-7.9,5.2-29.5,4.4-38.1-2
		c-8.5-6.4-9-15.1-1.4-20.5c3.8-2.6,8.8-3.8,14-3.6c0.5,0,0.7,1.7-0.3,1.7c-2.8,0.3-5.9,1.8-8,3.8c-5.1,4.9-4.7,12.2,0.7,17.3
		c5.5,5.1,23.8,5.5,28.9,0.7c1.4-1.3,3.8-3.9,3.8-6.5V24c0-0.6,0.2-0.8,0.6-0.8c0.1,0,0.5,0.1,1,0.7c2.2,3.2,3.6,3.3,5.9,4.5
		c-0.2,0.4-0.6,0.9-0.9,1.5c-0.5,1-1.1,2.2-1.1,2.8C182.3,32.8,182.4,40.8,182.4,41.8z"/>
	<path fill-rule="evenodd" clip-rule="evenodd" fill="#49443E" d="M211.2,24c0-0.6,0.2-0.8,0.6-0.8c0.1,0,0.5,0.1,1,0.7
		c2.2,3.2,3.5,3.3,5.8,4.5c-0.2,0.4-0.6,0.9-0.9,1.5c-0.5,1-1.2,2.2-1.2,2.8v5.4c0,2.6-0.3,4.5-1.8,5.9c-1.4,1.2-3.1,1.8-5.3,1.8
		c-2.4,0-4.7-0.8-7.1-2.3c-2.2-1.4-3.1-2.4-3.1-2.9c0-0.2,0-0.2,0-0.2c0,0,0.1,0,0.1,0c0.1,0,0.7,0.3,1,0.5c2.1,1.3,4,1.9,5.4,1.9
		c4.8,0.2,5.4-2.9,5.4-7.5V24z"/>
	<path fill="#49443E" d="M301.5,76.2c0-0.5-1-2.2-2.3-2.2c-0.9,0-1.6,0.9-2,1.4c0.9,0.4,2.8,1.1,3.6,1.1
		C301.2,76.5,301.5,76.4,301.5,76.2z M260.7,77.9h-1.3c0,0.8-0.4,1.8-1.5,3.1c-1.4,1.7-2,1.8-3.1,1.8c-1.3,0-3.7-0.2-3.7-0.3
		c0-0.1,0.2-0.2,0.4-0.2c1.9-0.4,3.3-0.7,4.7-1.6c0.9-0.7,2.2-1.8,2.2-2.8c-0.4,0-1,0.1-1.8,0.1c-2.5,0-3.4-0.5-3.4-1.7
		c0-1.3,1.1-3.5,3-3.5c1.9,0,2.9,1.8,3.2,3.7h2l5.7,0c1.3,0,3.3-0.3,3.3-1.9c0-0.2,0.2-0.3,0.3-0.3c0.2,0,0.4,0.1,0.4,0.3
		c0,1.6,1.4,1.9,2.3,1.9c1.5,0,2.3-0.7,2.3-1.9c0-0.2,0.2-0.3,0.3-0.3c0.2,0,0.3,0.1,0.3,0.3c0,0.7,0.4,1.9,2,1.9
		c1.9,0,2.3-1.1,2.3-1.9c0-0.2,0.2-0.3,0.3-0.3c0.2,0,0.3,0.1,0.3,0.3c0,1.4,1.1,1.9,2.6,1.9h0.3l1.6,0c1.2,0,2.5-0.4,2.7-2.1
		c0-0.2,0.2-0.3,0.3-0.3c0.2,0,0.3,0.1,0.3,0.3c0.3,1.7,1.5,2.1,2.7,2.1h0.8h0.3c0.3,0,1.8-0.1,2.5-0.9c2.1-2.2,2.8-2.9,4.2-2.9
		c1.5,0,2.5,1.5,2.5,2.9c0,1.5-0.9,2.4-2,2.4c-0.7,0-2.4-0.5-4.1-1.4c-1.8,1.2-2.2,1.4-3.2,1.4h-0.2c-1.8,0-3.2-0.1-4-1.3
		c-0.9,1.4-3.3,1.3-5.1,1.3c-1.3-0.1-2.2-0.5-2.8-1.2c-0.6,0.7-1.3,1.2-2.5,1.2c-1.2,0-1.9-0.5-2.5-1.2c-0.7,0.8-1.6,1.2-2.9,1.2
		c-1.2,0-1.8-0.6-2.4-1.2c-1,1-3.3,1.2-5,1.2L260.7,77.9L260.7,77.9z M258.1,76.3c-0.1-0.9-1-2.2-2.2-2.2c-0.9,0-1.6,0.5-1.6,1.2
		c0,0.9,1.4,1,2.3,1H258.1z M289.6,69.4l-1.5,1.1l-1.5-1.1l1.5-1.1L289.6,69.4z M245.6,80.6l-1.5,1.1l-1.5-1.1l1.5-1.1L245.6,80.6z
		 M234.3,77.8c-2.2,0-4-0.8-4-2.5c0-2.2-0.2-4.1-0.6-7l1.6-1.1c0.4,3.2,0.4,4.3,0.4,7.7c0,1.1,1.7,1.4,2.3,1.4h0.8
		c1,0,4.3,0,5.5-0.2c1.4-0.2,3.8-0.9,6.4-1.8c-0.1-0.3-4.9-1.4-5.7-1.4c-1.5,0-1.9,0.9-2.3,0.9c-0.1,0-0.2,0-0.2-0.2
		c0-0.7,1.2-2.3,2.9-2.3c1,0,2.9,0.5,5.5,1.4c1.7,0.5,2.9,0.7,5.3,0.8l-1,1.4h-1c-1.5,0-2.1,0.1-6,1.5c-3.8,1.4-8,1.4-9.2,1.4h-0.6
		L234.3,77.8z M222.1,69.7l-1.4,1.1l-1.5-1.1l1.4-1L222.1,69.7z M218.7,69.7l-1.4,1.1l-1.5-1.1l1.4-1L218.7,69.7z M228,75.1
		c0,0.9-0.7,1.9-2.3,2.2c-2.2,0.5-4.8,0.7-9.1,0.7c-4.3,0-6.5-0.9-6.5-2.9c0-1.2,0.9-2.4,1.3-2.4c0.2,0,0.4,0.1,0.4,0.3
		c0,0.2-0.5,0.6-0.5,1.4c0,1.1,1,2.1,6.8,2.1c4.4,0,8.9-0.3,8.9-1.1c0-0.2-0.2-0.6-1.2-1.5l1-1.5C227.6,73.1,228,73.7,228,75.1z
		 M203,77.1c0,1.7-0.4,2.5-1.5,3.8c-1.4,1.7-2,1.8-3.1,1.8c-1.3,0-3.7-0.2-3.7-0.3c0-0.1,0.2-0.2,0.4-0.2c1.9-0.4,3.3-0.7,4.7-1.6
		c0.9-0.7,2.2-1.8,2.2-2.8c-0.4,0-1,0.1-1.8,0.1c-2.5,0-3.4-0.5-3.4-1.7c0-1.3,1.1-3.5,3-3.5C201.8,72.5,203,74.4,203,77.1z
		 M201.8,76.2c-0.1-0.9-1-2.2-2.2-2.2c-0.9,0-1.6,0.5-1.6,1.2c0,0.9,1.4,1,2.3,1H201.8z M189.6,74.9c0,2-1.6,2.9-5.8,2.9
		c-2.8,0-3.6-0.9-3.6-2c0-1.1,0.5-1.6,0.8-1.6c0.5,0,0.2,0.8,0.2,1c0,0.7,0.9,1.1,2.9,1.1c3,0,4.5-0.3,4.5-1.1
		c0-0.8-2.3-2.5-4.8-3.8l0.5-1.6C188,71.5,189.6,73.2,189.6,74.9z M170.1,77.8h-0.3l-9.3,0.1c0,0.8-0.4,1.8-1.5,3.1
		c-1.4,1.7-2,1.8-3.1,1.8c-1.3,0-3.7-0.2-3.7-0.3c0-0.1,0.2-0.2,0.4-0.2c1.9-0.4,3.3-0.7,4.7-1.6c0.9-0.7,2.2-1.8,2.2-2.8
		c-0.4,0-1,0.1-1.8,0.1c-2.5,0-3.4-0.5-3.4-1.7c0-1.3,1.1-3.5,3-3.5c1.9,0,2.9,1.8,3.2,3.7l9.4-0.1h0.3c3.8,0,5.8-0.5,5.8-1.6
		c0-1-2-2.1-3.3-2.8l-0.1,0.3c-0.6-0.4-1.8-1.3-1.8-1.8c0-1.3,0.6-2,1.1-2.2l10-2.7l-0.7,1.6l-3,0.8c-5.2,1.3-5.8,1.5-6.2,1.7
		c0.3,0.5,4.9,2.1,4.9,5.2c0,0.9-0.3,1.6-0.9,2c-1.2,0.9-3.2,1.1-5.6,1.1H170.1z M159.2,76.3c-0.1-0.9-1-2.2-2.2-2.2
		c-0.9,0-1.6,0.5-1.6,1.2c0,0.9,1.4,1,2.3,1H159.2z M150.5,77.7c0,2.2-2.7,4.5-4,4.5c-1.4,0-4.3-0.1-4.3-0.3c0-0.1,0.1-0.1,0.9-0.3
		c1-0.2,2.6-0.8,4.1-1.7c2.1-1.3,2.3-1.7,2.3-2.5c0-0.7-0.9-1.6-2-2.4c0.2-0.6,0.5-1,0.9-1.5C149.5,74.7,150.5,75.7,150.5,77.7z
		 M143.1,75.5c0,1.3-0.8,2.7-1,2.7c-0.1,0-0.1-0.3-0.3-1.9l-0.9-7.9l1.8-1.3L143.1,75.5z M111,80.5l-1.4,1.1l-1.5-1.1l1.4-1
		L111,80.5z M107.5,80.5l-1.4,1.1l-1.5-1.1l1.4-1L107.5,80.5z M99.6,77.7h-0.3h-1.7c0,0.8-0.4,1.8-1.4,3.1c-1.4,1.7-2,1.8-3.1,1.8
		c-1.3,0-3.7-0.2-3.7-0.3c0-0.1,0.2-0.2,0.4-0.2c1.9-0.4,3.4-1,4.8-2c0.9-0.7,2.1-1.5,2.1-2.5c-0.4,0-1,0.1-1.8,0.1
		c-2.5,0-3.4-0.5-3.4-1.7c0-1.3,1.1-3.5,3-3.5c1.9,0,2.9,1.8,3.2,3.7h1.9l6.4,0.1c1.2,0,2.5-0.4,2.7-2.1c0-0.2,0.2-0.3,0.4-0.3
		c0.2,0,0.3,0.1,0.3,0.3c0.3,1.7,1.5,2.1,2.7,2.1h0.9l8.7,0c1.3,0,3.3-0.3,3.3-1.9c0-0.2,0.2-0.3,0.3-0.3c0.2,0,0.4,0.1,0.4,0.3
		c0,1.6,1.4,1.9,2.3,1.9c1.5,0,2.3-0.7,2.3-1.9c0-0.2,0.2-0.3,0.3-0.3c0.2,0,0.3,0.1,0.3,0.3c0,0.7,0.4,1.9,2,1.9
		c1.5,0,2.5-0.4,2.5-0.7c0-0.6-0.4-1.2-1.2-1.9l1-1.6c0.9,0.9,1.4,1.8,1.4,2.9c0,1.6-1.1,2.8-3.6,2.8c-1.2,0-1.9-0.5-2.5-1.2
		c-0.7,0.8-1.6,1.2-2.9,1.2c-1.2,0-1.8-0.6-2.4-1.2c-1,1-2.4,1.2-4,1.2l-8.7,0.1c-1.6-0.1-2.9-0.2-3.6-1.4
		C108,77.8,101.7,77.7,99.6,77.7z M96.3,76.2c-0.1-0.9-1-2.2-2.2-2.2c-0.9,0-1.6,0.5-1.6,1.2c0,0.9,1.4,1,2.3,1H96.3z M88.5,77.3
		c0,3.3-4.8,4.3-8.8,4.3c-2.3,0-5.4-0.9-5.4-3.5c0-1.9,1.3-3.6,2-3.6c0.2,0,0.3,0.1,0.3,0.2c0,0.3-1,1-1,2.5c0,2.2,2.4,2.7,5,2.7
		c2.1,0,7-0.5,7-2.5c0-1-0.5-1.7-2.1-3.3l1.1-1.5C87.8,74.2,88.5,75.6,88.5,77.3z M83,71.6l-1.5,1.1L80,71.6l1.5-1.1L83,71.6z
		 M69.5,74.9c0,2-1.6,2.9-5.8,2.9c-2.8,0-3.6-0.9-3.6-2c0-1.1,0.5-1.6,0.8-1.6c0.5,0,0.2,0.8,0.2,1c0,0.7,0.9,1.1,2.9,1.1
		c3,0,4.5-0.3,4.5-1.1c0-0.8-2.3-2.5-4.8-3.8l0.5-1.6C67.9,71.5,69.5,73.2,69.5,74.9z M57.6,75.4c0,1.3-0.8,2.7-1,2.7
		c-0.1,0-0.1-0.3-0.3-1.9l-0.9-7.9l1.8-1.3L57.6,75.4z M47.8,67.4l-1.5,1.1l-1.5-1.1l1.5-1.1L47.8,67.4z M30.9,77.7h-1.8
		c-4.7,0-5.8,0-5.8,0.4c0,0.2,0.9,0.3,2.2,0.4c2.7,0.2,3,0.5,2.9,1.3c-0.1,2.9-5,3.5-9.5,3.5c-3.1,0-6.1-0.9-6.1-3.5
		c0-1.9,1-2.9,1.7-2.9c0.2,0,0.3,0.1,0.3,0.2c0,0.3-0.7,0.4-0.7,1.8c0,2.2,2.4,2.9,6.3,2.9c4.1,0,6.9-0.8,6.9-1.4
		c0-0.6-5.7,0.3-5.7-1.2c0-1.2,1.9-2.5,3.7-2.8c1.2-0.2,3.6-0.2,5.2-0.2h0.3h0.2c0.1,0,0.9,0,1.4-0.1c0.8-0.1,1.4-0.4,1.4-1.7
		l-0.3-6.3l1.4-1.1l0.3,7.6c0,1,1.2,1.5,2.6,1.5h0.3c0.9,0,2.2-0.1,3.4-0.3c1.4-0.2,3.8-0.9,6.4-1.8c-0.1-0.3-4.9-1.4-5.7-1.4
		c-1.5,0-1.9,0.9-2.4,0.9c-0.1,0-0.2,0-0.2-0.2c0-0.7,1.2-2.3,2.9-2.3c1,0,2.9,0.5,5.5,1.4c1.7,0.5,2.9,0.7,5.3,0.8l-1,1.4h-1
		c-1.6,0-2.1,0.1-6,1.5c-3.8,1.4-5.8,1.5-7,1.5h-0.4h-0.2c-1.5,0-2.9-0.3-3.7-1.2c-0.6,0.8-1.8,1.2-3.3,1.2H30.9z"/>
	<path fill-rule="evenodd" clip-rule="evenodd" fill="#49443E" d="M302.4,75.5c0-1.4-1-2.9-2.5-2.9c-1.4,0-2.1,0.7-4.2,2.9
		c-0.7,0.8-2.2,0.9-2.5,0.9h-0.3c-0.4,0-0.3,1.5,0,1.5h0.3c1,0,1.4-0.2,3.2-1.4c1.6,0.9,3.4,1.4,4.1,1.4
		C301.5,77.9,302.4,77.1,302.4,75.5z M301.5,76.2c0,0.2-0.2,0.3-0.6,0.3c-0.9,0-2.8-0.7-3.6-1.1c0.3-0.5,1-1.4,2-1.4
		C300.4,74,301.5,75.6,301.5,76.2z"/>
	<path fill-rule="evenodd" clip-rule="evenodd" fill="#49443E" d="M289.6,69.4l-1.5,1.1l-1.5-1.1l1.5-1.1L289.6,69.4z M292.9,77.9
		c-1.7,0-3.2,0-4-1.3c-0.9,1.4-3.3,1.3-5.1,1.3c-0.3,0-0.4-1.5,0-1.5h2c1.2,0,2.5-0.4,2.7-2.1c0-0.2,0.2-0.3,0.3-0.3
		c0.2,0,0.3,0.1,0.3,0.3c0.3,1.7,1.5,2.1,2.7,2.1h0.9C293.3,76.4,293.4,77.9,292.9,77.9L292.9,77.9z"/>
	<path fill-rule="evenodd" clip-rule="evenodd" fill="#49443E" d="M284.3,77.9c0.4,0,0.3-1.5,0-1.5H284c-1.4,0-2.6-0.4-2.6-1.9
		c0-0.2-0.2-0.3-0.3-0.3c-0.2,0-0.3,0.1-0.3,0.3c0,0.8-0.4,1.9-2.3,1.9c-1.6,0-2-1.1-2-1.9c0-0.2-0.2-0.3-0.3-0.3
		c-0.2,0-0.3,0.1-0.3,0.3c0,1.1-0.8,1.9-2.3,1.9c-1,0-2.3-0.3-2.3-1.9c0-0.2-0.2-0.3-0.4-0.3c-0.2,0-0.3,0.1-0.3,0.3
		c0,1.6-2,1.9-3.3,1.9l-5.6,0c-0.4,0-1.2,1.6-0.8,1.6l5.1,0c1.7,0,3.9-0.2,5-1.2c0.6,0.7,1.2,1.2,2.4,1.2c1.3,0,2.3-0.4,2.9-1.2
		c0.5,0.8,1.3,1.2,2.5,1.2c1.1,0,1.9-0.5,2.5-1.2c0.7,0.8,1.6,1.2,2.9,1.2H284.3z"/>
	<path fill-rule="evenodd" clip-rule="evenodd" fill="#49443E" d="M261.4,77.9c0.4,0,0.3-1.5,0-1.5h-2c-0.3-1.9-1.3-3.7-3.2-3.7
		c-1.9,0-3,2.2-3,3.5c0,1.3,0.9,1.7,3.4,1.7c0.8,0,1.4,0,1.8-0.1c0,1-1.3,2.2-2.2,2.8c-1.4,1-2.8,1.3-4.7,1.6
		c-0.2,0-0.4,0.1-0.4,0.2c0,0.2,2.5,0.3,3.7,0.3c1.1,0,1.7-0.1,3.1-1.8c1.1-1.3,1.5-2.3,1.5-3.1h1.7H261.4z M258.1,76.3h-1.5
		c-0.9,0-2.3-0.1-2.3-1c0-0.7,0.7-1.2,1.6-1.2C257.1,74.1,258,75.4,258.1,76.3z"/>
	<path fill-rule="evenodd" clip-rule="evenodd" fill="#49443E" d="M245.6,80.6l-1.5,1.1l-1.5-1.1l1.5-1.1L245.6,80.6z M252.1,73.5
		l-1,1.4h-1c-1.5,0-2.1,0.1-6,1.5c-3.8,1.4-8,1.4-9.2,1.4c-0.6,0,0,0-0.6,0c-0.3,0-0.4-1.5,0-1.5h0.3c0.7,0,4.2-0.1,5.4-0.2
		c1.4-0.2,3.8-0.9,6.4-1.8c-0.1-0.3-4.9-1.4-5.7-1.4c-1.5,0-1.9,0.9-2.3,0.9c-0.1,0-0.2,0-0.2-0.2c0-0.7,1.2-2.3,2.9-2.3
		c1,0,2.9,0.5,5.5,1.4C248.5,73.2,249.6,73.4,252.1,73.5z"/>
	<path fill-rule="evenodd" clip-rule="evenodd" fill="#49443E" d="M234.7,77.8c0.4,0,0.4-1.6,0-1.6h-0.8c-0.6,0-2.3-0.3-2.3-1.4
		c0-3.5,0-4.5-0.4-7.7l-1.6,1.1c0.4,2.9,0.6,4.9,0.6,7c0,1.7,1.7,2.5,4,2.5H234.7z"/>
	<path fill-rule="evenodd" clip-rule="evenodd" fill="#49443E" d="M222.1,69.7l-1.4,1.1l-1.5-1.1l1.4-1L222.1,69.7z M218.7,69.7
		l-1.4,1.1l-1.5-1.1l1.4-1L218.7,69.7z M228,75.1c0,0.9-0.7,1.9-2.3,2.2c-2.2,0.5-4.8,0.7-9.1,0.7c-4.3,0-6.5-0.9-6.5-2.9
		c0-1.2,0.9-2.4,1.3-2.4c0.2,0,0.4,0.1,0.4,0.3c0,0.2-0.5,0.6-0.5,1.4c0,1.1,1,2.1,6.8,2.1c4.4,0,8.9-0.3,8.9-1.1
		c0-0.2-0.2-0.6-1.2-1.5l1-1.5C227.6,73.1,228,73.7,228,75.1z"/>
	<path fill-rule="evenodd" clip-rule="evenodd" fill="#49443E" d="M203,77.1c0-2.7-1.3-4.6-3.2-4.6c-1.9,0-3,2.2-3,3.5
		c0,1.3,0.9,1.7,3.4,1.7c0.8,0,1.4,0,1.8-0.1c0,1-1.3,2.2-2.2,2.8c-1.4,1-2.8,1.3-4.7,1.6c-0.2,0-0.4,0.1-0.4,0.2
		c0,0.2,2.5,0.3,3.7,0.3c1.1,0,1.7-0.1,3.1-1.8C202.6,79.6,203,78.8,203,77.1z M201.8,76.2h-1.5c-0.9,0-2.3-0.1-2.3-1
		c0-0.7,0.7-1.2,1.6-1.2C200.7,74.1,201.7,75.4,201.8,76.2z"/>
	<path fill="#49443E" d="M189.6,74.9c0,2-1.6,2.9-5.8,2.9c-2.8,0-3.6-0.9-3.6-2c0-1.1,0.5-1.6,0.8-1.6c0.5,0,0.2,0.8,0.2,1
		c0,0.7,0.9,1.1,2.9,1.1c3,0,4.5-0.3,4.5-1.1c0-0.8-2.3-2.5-4.8-3.8l0.5-1.6C188,71.5,189.6,73.2,189.6,74.9z M170.1,77.8h-0.3
		l-9.3,0.1c0,0.8-0.4,1.8-1.5,3.1c-1.4,1.7-2,1.8-3.1,1.8c-1.3,0-3.7-0.2-3.7-0.3c0-0.1,0.2-0.2,0.4-0.2c1.9-0.4,3.3-0.7,4.7-1.6
		c0.9-0.7,2.2-1.8,2.2-2.8c-0.4,0-1,0.1-1.8,0.1c-2.5,0-3.4-0.5-3.4-1.7c0-1.3,1.1-3.5,3-3.5c1.9,0,2.9,1.8,3.2,3.7l9.4-0.1h0.3
		c3.8,0,5.8-0.5,5.8-1.6c0-1-2-2.1-3.3-2.8l-0.1,0.3c-0.6-0.4-1.8-1.3-1.8-1.8c0-1.3,0.6-2,1.1-2.2l10-2.7l-0.7,1.6l-3,0.8
		c-5.2,1.3-5.8,1.5-6.2,1.7c0.3,0.5,4.9,2.1,4.9,5.2c0,0.9-0.3,1.6-0.9,2c-1.2,0.9-3.2,1.1-5.6,1.1H170.1z M159.2,76.3
		c-0.1-0.9-1-2.2-2.2-2.2c-0.9,0-1.6,0.5-1.6,1.2c0,0.9,1.4,1,2.3,1H159.2z M150.5,77.7c0,2.2-2.7,4.5-4,4.5c-1.4,0-4.3-0.1-4.3-0.3
		c0-0.1,0.1-0.1,0.9-0.3c1-0.2,2.6-0.8,4.1-1.7c2.1-1.3,2.3-1.7,2.3-2.5c0-0.7-0.9-1.6-2-2.4c0.2-0.6,0.5-1,0.9-1.5
		C149.5,74.7,150.5,75.7,150.5,77.7z M143.1,75.5c0,1.3-0.8,2.7-1,2.7c-0.1,0-0.1-0.3-0.3-1.9l-0.9-7.9l1.8-1.3L143.1,75.5z
		 M111,80.5l-1.4,1.1l-1.5-1.1l1.4-1L111,80.5z M107.5,80.5l-1.4,1.1l-1.5-1.1l1.4-1L107.5,80.5z M99.6,77.7h-0.3h-1.7
		c0,0.8-0.4,1.8-1.4,3.1c-1.4,1.7-2,1.8-3.1,1.8c-1.3,0-3.7-0.2-3.7-0.3c0-0.1,0.2-0.2,0.4-0.2c1.9-0.4,3.4-1,4.8-2
		c0.9-0.7,2.1-1.5,2.1-2.5c-0.4,0-1,0.1-1.8,0.1c-2.5,0-3.4-0.5-3.4-1.7c0-1.3,1.1-3.5,3-3.5c1.9,0,2.9,1.8,3.2,3.7h1.9l6.4,0.1
		c1.2,0,2.5-0.4,2.7-2.1c0-0.2,0.2-0.3,0.4-0.3c0.2,0,0.3,0.1,0.3,0.3c0.3,1.7,1.5,2.1,2.7,2.1h0.9l8.7,0c1.3,0,3.3-0.3,3.3-1.9
		c0-0.2,0.2-0.3,0.3-0.3c0.2,0,0.4,0.1,0.4,0.3c0,1.6,1.4,1.9,2.3,1.9c1.5,0,2.3-0.7,2.3-1.9c0-0.2,0.2-0.3,0.3-0.3
		c0.2,0,0.3,0.1,0.3,0.3c0,0.7,0.4,1.9,2,1.9c1.5,0,2.5-0.4,2.5-0.7c0-0.6-0.4-1.2-1.2-1.9l1-1.6c0.9,0.9,1.4,1.8,1.4,2.9
		c0,1.6-1.1,2.8-3.6,2.8c-1.2,0-1.9-0.5-2.5-1.2c-0.7,0.8-1.6,1.2-2.9,1.2c-1.2,0-1.8-0.6-2.4-1.2c-1,1-2.4,1.2-4,1.2l-8.7,0.1
		c-1.6-0.1-2.9-0.2-3.6-1.4C108,77.8,101.7,77.7,99.6,77.7z M96.3,76.2c-0.1-0.9-1-2.2-2.2-2.2c-0.9,0-1.6,0.5-1.6,1.2
		c0,0.9,1.4,1,2.3,1H96.3z M88.5,77.3c0,3.3-4.8,4.3-8.8,4.3c-2.3,0-5.4-0.9-5.4-3.5c0-1.9,1.3-3.6,2-3.6c0.2,0,0.3,0.1,0.3,0.2
		c0,0.3-1,1-1,2.5c0,2.2,2.4,2.7,5,2.7c2.1,0,7-0.5,7-2.5c0-1-0.5-1.7-2.1-3.3l1.1-1.5C87.8,74.2,88.5,75.6,88.5,77.3z M83,71.6
		l-1.5,1.1L80,71.6l1.5-1.1L83,71.6z"/>
	<path fill-rule="evenodd" clip-rule="evenodd" fill="#49443E" d="M189.6,74.9c0-1.7-1.6-3.4-5.2-5.3l-0.5,1.6
		c2.5,1.3,4.8,3,4.8,3.8c0,0.8-1.5,1.1-4.5,1.1c-2,0-2.9-0.4-2.9-1.1c0-0.2,0.3-1-0.2-1c-0.3,0-0.8,0.5-0.8,1.6c0,1.1,0.7,2,3.6,2
		C187.9,77.8,189.6,76.9,189.6,74.9z"/>
	<path fill-rule="evenodd" clip-rule="evenodd" fill="#49443E" d="M182,65.4l-10,2.7c-0.5,0.2-1.1,0.8-1.1,2.2
		c0,0.5,1.1,1.4,1.8,1.8l0.1-0.3c1.4,0.7,3.3,1.9,3.3,2.8c0,1.1-2,1.6-5.8,1.6h-0.3c-0.4,0-0.3,1.5,0,1.5h0.5c2.5,0,4.5-0.1,5.6-1.1
		c0.6-0.5,0.9-1.1,0.9-2c0-3.1-4.6-4.7-4.9-5.2c0.4-0.1,1-0.3,6.2-1.7l3-0.8L182,65.4z"/>
	<path fill-rule="evenodd" clip-rule="evenodd" fill="#49443E" d="M170.1,77.8c0.4,0,0.3-1.5,0-1.5l-9.6,0.1
		c-0.3-1.9-1.3-3.7-3.2-3.7c-1.9,0-3,2.2-3,3.5c0,1.3,0.9,1.7,3.4,1.7c0.8,0,1.4,0,1.8-0.1c0,1-1.3,2.2-2.2,2.8
		c-1.4,1-2.8,1.3-4.7,1.6c-0.2,0-0.4,0.1-0.4,0.2c0,0.2,2.5,0.3,3.7,0.3c1.1,0,1.7-0.1,3.1-1.8c1.1-1.3,1.5-2.3,1.5-3.1l9.3-0.1
		H170.1z M159.2,76.3h-1.5c-0.9,0-2.3-0.1-2.3-1c0-0.7,0.7-1.2,1.6-1.2C158.2,74.1,159.1,75.4,159.2,76.3z"/>
	<path fill-rule="evenodd" clip-rule="evenodd" fill="#49443E" d="M150.5,77.7c0-2-1-3-2.1-4.1c-0.4,0.5-0.7,1-0.9,1.5
		c1,0.8,2,1.7,2,2.4c0,0.7-0.2,1.2-2.3,2.5c-1.4,0.9-3,1.5-4.1,1.7c-0.8,0.1-0.9,0.2-0.9,0.3c0,0.2,2.9,0.3,4.3,0.3
		C147.8,82.2,150.5,79.9,150.5,77.7z"/>
	<path fill-rule="evenodd" clip-rule="evenodd" fill="#49443E" d="M143.1,75.5l-0.3-8.3l-1.8,1.3l0.9,7.9c0.1,1.6,0.2,1.9,0.3,1.9
		C142.3,78.3,143.1,76.9,143.1,75.5z"/>
	<path fill-rule="evenodd" clip-rule="evenodd" fill="#49443E" d="M136.6,75c0-1-0.5-2-1.4-2.9l-1,1.6c0.8,0.7,1.2,1.3,1.2,1.9
		c0,0.3-1,0.7-2.5,0.7c-1.6,0-2-1.1-2-1.9c0-0.2-0.2-0.3-0.3-0.3c-0.2,0-0.3,0.1-0.3,0.3c0,1.1-0.8,1.9-2.3,1.9
		c-1,0-2.3-0.3-2.3-1.9c0-0.2-0.2-0.3-0.4-0.3c-0.2,0-0.3,0.1-0.3,0.3c0,1.6-2,1.9-3.3,1.9l-9.1,0.1c-0.4,0-0.3,1.5,0,1.5l8.7-0.1
		c1.6,0,3-0.2,4-1.2c0.6,0.7,1.2,1.2,2.4,1.2c1.3,0,2.3-0.4,2.9-1.2c0.5,0.8,1.3,1.2,2.5,1.2C135.5,77.8,136.6,76.6,136.6,75z"/>
	<path fill-rule="evenodd" clip-rule="evenodd" fill="#49443E" d="M111,80.5l-1.4,1.1l-1.5-1.1l1.4-1L111,80.5z M107.5,80.5
		l-1.4,1.1l-1.5-1.1l1.4-1L107.5,80.5z M112.9,77.8c-1.7,0-3.2,0-4-1.3c-0.9,1.4-7.7,1.2-9.5,1.2c-0.3,0-0.4-1.5,0-1.5l6.4,0.1
		c1.2,0,2.5-0.4,2.7-2.1c0-0.2,0.2-0.3,0.4-0.3c0.2,0,0.3,0.1,0.3,0.3c0.3,1.7,1.5,2.1,2.7,2.1h0.9
		C113.3,76.3,113.3,77.8,112.9,77.8L112.9,77.8z"/>
	<path fill-rule="evenodd" clip-rule="evenodd" fill="#49443E" d="M99.6,77.7c0.4,0,0.3-1.5,0-1.5h-2c-0.3-1.9-1.3-3.7-3.2-3.7
		c-1.9,0-3,2.2-3,3.5c0,1.3,0.9,1.7,3.4,1.7c0.8,0,1.4,0,1.8-0.1c0,1-1.1,1.9-2.1,2.5c-1.4,1-2.9,1.6-4.8,2c-0.2,0-0.4,0.1-0.4,0.2
		c0,0.2,2.5,0.3,3.7,0.3c1.1,0,1.7-0.1,3.1-1.8c1.1-1.3,1.4-2.3,1.4-3.1h1.7H99.6z M96.3,76.2h-1.5c-0.8,0-2.3-0.1-2.3-1
		c0-0.7,0.7-1.2,1.6-1.2C95.3,74,96.2,75.3,96.3,76.2z"/>
	<path fill-rule="evenodd" clip-rule="evenodd" fill="#49443E" d="M88.5,77.3c0-1.7-0.7-3.2-1.9-4.6l-1.1,1.5
		c1.6,1.6,2.1,2.3,2.1,3.3c0,2-4.9,2.5-7,2.5c-2.6,0-5-0.5-5-2.7c0-1.4,1-2.2,1-2.5c0-0.1-0.1-0.2-0.3-0.2c-0.6,0-2,1.7-2,3.6
		c0,2.6,3.1,3.5,5.4,3.5C83.7,81.7,88.5,80.7,88.5,77.3z M83,71.6l-1.5,1.1L80,71.6l1.5-1.1L83,71.6z"/>
	<path fill="#49443E" d="M69.5,74.9c0,2-1.6,2.9-5.8,2.9c-2.8,0-3.6-0.9-3.6-2c0-1.1,0.5-1.6,0.8-1.6c0.5,0,0.2,0.8,0.2,1
		c0,0.7,0.9,1.1,2.9,1.1c3,0,4.5-0.3,4.5-1.1c0-0.8-2.3-2.5-4.8-3.8l0.5-1.6C67.9,71.5,69.5,73.2,69.5,74.9z M57.6,75.4
		c0,1.3-0.8,2.7-1,2.7c-0.1,0-0.1-0.3-0.3-1.9l-0.9-7.9l1.8-1.3L57.6,75.4z M47.8,67.4l-1.5,1.1l-1.5-1.1l1.5-1.1L47.8,67.4z
		 M30.9,77.7h-1.8c-4.7,0-5.8,0-5.8,0.4c0,0.2,0.9,0.3,2.2,0.4c2.7,0.2,3,0.5,2.9,1.3c-0.1,2.9-5,3.5-9.5,3.5
		c-3.1,0-6.1-0.9-6.1-3.5c0-1.9,1-2.9,1.7-2.9c0.2,0,0.3,0.1,0.3,0.2c0,0.3-0.7,0.4-0.7,1.8c0,2.2,2.4,2.9,6.3,2.9
		c4.1,0,6.9-0.8,6.9-1.4c0-0.6-5.7,0.3-5.7-1.2c0-1.2,1.9-2.5,3.7-2.8c1.2-0.2,3.6-0.2,5.2-0.2h0.3h0.2c0.1,0,0.9,0,1.4-0.1
		c0.8-0.1,1.4-0.4,1.4-1.7l-0.3-6.3l1.4-1.1l0.3,7.6c0,1,1.2,1.5,2.6,1.5h0.3c0.9,0,2.2-0.1,3.4-0.3c1.4-0.2,3.8-0.9,6.4-1.8
		c-0.1-0.3-4.9-1.4-5.7-1.4c-1.5,0-1.9,0.9-2.4,0.9c-0.1,0-0.2,0-0.2-0.2c0-0.7,1.2-2.3,2.9-2.3c1,0,2.9,0.5,5.5,1.4
		c1.7,0.5,2.9,0.7,5.3,0.8l-1,1.4h-1c-1.6,0-2.1,0.1-6,1.5c-3.8,1.4-5.8,1.5-7,1.5h-0.4h-0.2c-1.5,0-2.9-0.3-3.7-1.2
		c-0.6,0.8-1.8,1.2-3.3,1.2H30.9z"/>
	<path fill-rule="evenodd" clip-rule="evenodd" fill="#49443E" d="M69.5,74.9c0-1.7-1.6-3.4-5.2-5.3l-0.5,1.6c2.5,1.3,4.8,3,4.8,3.8
		c0,0.8-1.6,1.1-4.5,1.1c-2,0-2.9-0.4-2.9-1.1c0-0.2,0.3-1-0.2-1c-0.3,0-0.8,0.5-0.8,1.6c0,1.1,0.7,2,3.6,2
		C67.9,77.7,69.5,76.9,69.5,74.9z"/>
	<path fill-rule="evenodd" clip-rule="evenodd" fill="#49443E" d="M57.6,75.4l-0.3-8.3l-1.8,1.3l0.9,7.9c0.1,1.6,0.2,1.9,0.3,1.9
		C56.8,78.2,57.6,76.8,57.6,75.4z"/>
	<path fill-rule="evenodd" clip-rule="evenodd" fill="#49443E" d="M47.8,67.4l-1.5,1.1l-1.5-1.1l1.5-1.1L47.8,67.4z M53.6,73.4
		l-1,1.4h-1c-1.6,0-2.1,0.1-6,1.5c-3.8,1.4-5.8,1.5-7,1.5c-0.6,0,0,0-0.6,0c-0.3,0-0.4-1.5,0-1.5h0.3c0.7,0,2.1-0.1,3.3-0.3
		c1.4-0.2,3.8-0.9,6.4-1.8c-0.1-0.3-4.9-1.4-5.7-1.4c-1.5,0-1.9,0.9-2.4,0.9c-0.1,0-0.2,0-0.2-0.2c0-0.7,1.2-2.3,2.9-2.3
		c1,0,2.9,0.5,5.5,1.4C50,73.1,51.1,73.3,53.6,73.4z"/>
	<path fill-rule="evenodd" clip-rule="evenodd" fill="#49443E" d="M38.3,77.7c0.4,0,0.3-1.5,0-1.5h-0.3c-1.5,0-2.6-0.5-2.6-1.5
		L35,67.1l-1.4,1.1l0.3,6.3c0.1,1.2-0.6,1.5-1.4,1.7c-0.6,0.1-1.3,0.1-1.4,0.1h-0.3c-0.4,0-0.3,1.5,0,1.5h0.3c1.4,0,2.6-0.4,3.3-1.2
		c0.7,0.9,2.2,1.2,3.6,1.2H38.3z"/>
	<path fill-rule="evenodd" clip-rule="evenodd" fill="#49443E" d="M30.9,77.7c0.4,0,0.3-1.5,0-1.5h-0.3c-1.6,0-4.1,0-5.2,0.2
		c-1.8,0.3-3.7,1.6-3.7,2.8c0,1.5,5.7,0.6,5.7,1.2c0,0.6-2.8,1.4-6.9,1.4c-3.9,0-6.3-0.6-6.3-2.9c0-1.4,0.7-1.5,0.7-1.8
		c0-0.1-0.1-0.2-0.3-0.2c-0.6,0-1.7,1-1.7,2.9c0,2.6,3,3.5,6.1,3.5c4.5,0,9.4-0.6,9.5-3.5c0-0.8-0.2-1.1-2.9-1.3
		c-1.2-0.1-2.2-0.2-2.2-0.4c0-0.5,1-0.4,5.8-0.4H30.9z"/>
	<path fill-rule="evenodd" clip-rule="evenodd" fill="#49443E" d="M381.9,9.6h1.6c28.2,0,51,14.8,51,33.1c0,18.3-22.8,33.1-51,33.1
		h-1.6c-28.2,0-51-14.8-51-33.1C330.9,24.4,353.7,9.6,381.9,9.6z M381.6,6.4h1.8c30.4,0,54.7,16.6,54.7,36.3
		c0,19.7-24.3,36.3-54.7,36.3h-1.8c-30.4,0-54.4-16.6-54.4-36.3C327.3,23,351.3,6.4,381.6,6.4z"/>
	<path fill-rule="evenodd" clip-rule="evenodd" fill="#49443E" d="M374.3,53.5c0.1-1.4,0.8-2.8,2.4-4.5c2.4-2.6,10.4-4.7,17.5-0.6
		v5.5c-0.8-0.7-2.1-1.8-3.1-2.4c-3.7-2.3-10.2-3-13.2-0.1c-0.7,0.7-1.4,1.9-1.6,2.6C376.1,54.9,374.2,54.5,374.3,53.5z"/>
	<path fill-rule="evenodd" clip-rule="evenodd" fill="#49443E" d="M401.3,57.1c0.1,1.8-1,5.9-5.8,6.1c-0.5,0-1.1,0.1-1.5-0.2
		c1.8-0.9,2-2.6,2.2-5.6c0,0,0-34.6,0-36c-0.3-6.9,4.3-7.1,5.1-7.1C401.3,14.4,401.3,46.7,401.3,57.1z"/>
	<path fill-rule="evenodd" clip-rule="evenodd" fill="#49443E" d="M409.9,37.5c-1,0-1.9-0.5-1.9-1.2c0-0.7,0.6-1.2,1.3-1.2
		c4.2,0,5.9-2.6,6.1-5.8c0.3-3.5-3.2-7.2-7.8-7.6c-27.5-2.2-31.8,40.9-54.6,40.9c-5,0-12.4-2.6-10.7-10.5c0.2-1.1,2.4-0.8,2.6,0.1
		c0,0.4,0.1,1.3,0.1,1.9c0.5,5.8,7.9,5.7,13.5,2.9c15.2-7.7,21-39.2,46.2-39.2c1.4,0,9.4,0.4,13,6.1c1.6,2.5,1.9,6.6-0.2,9.5
		C415.7,36.1,413.1,37.5,409.9,37.5z"/>
</g>
</svg>
