<?xml version="1.0" encoding="utf-8"?>
<!-- Generator: Adobe Illustrator 18.0.0, SVG Export Plug-In . SVG Version: 6.00 Build 0)  -->
<!DOCTYPE svg PUBLIC "-//W3C//DTD SVG 1.1//EN" "http://www.w3.org/Graphics/SVG/1.1/DTD/svg11.dtd">
<svg version="1.1" id="Layer_1" xmlns="http://www.w3.org/2000/svg" xmlns:xlink="http://www.w3.org/1999/xlink" x="0px" y="0px"
	 viewBox="-11 37.4 277 94.7" enable-background="new -11 37.4 277 94.7" xml:space="preserve">
<g>
	<g>
		<path fill="#3D505A" d="M74.3,80.3v-4.6c0-0.8,0-1.5-0.6-2.2c-0.4-0.4-1-0.8-2.4-0.8c-1.3,0-2.4,0.3-3.7,1.1
			c-1.2,0.7-2.1,1.9-2.1,2.9c0,0.7,0.2,1,0.7,1c1.2,0,1.6-0.6,1.6-1.8c0-0.5-0.3-1,0.2-1.4c0.4-0.4,1.3-0.6,2-0.6
			c0.9,0,1.5,0.3,1.8,0.6c0.4,0.4,0.4,1.2,0.4,1.7V78c-0.5,0.4-2.1,1.2-3.4,1.8c-2.4,1.1-3,2.3-3,3.7c0,1.9,1.1,2.5,1.8,2.5
			c0.6,0,1.2,0,1.8-0.2c1.3-0.5,2.3-1.1,3-1.9h0.1c0.3,1.2,1.1,2.1,2.2,2.1c1.5,0,2.1-1.1,2.3-1.5c0.2-0.3,0.1-0.5,0.1-0.5l-0.3-0.2
			c-0.1-0.1-0.2-0.1-0.3,0.1c-0.2,0.2-0.6,0.5-1.1,0.5c-0.5,0-0.9-0.5-0.9-2.3L74.3,80.3L74.3,80.3z M72.1,82.7
			c0,0.8-1.6,1.9-2.5,1.9c-0.9,0-1.6-0.5-1.6-1.6c0-2.5,3-3.1,4-3.9C72.1,79,72.1,82.7,72.1,82.7z"/>
		<path fill="#3D505A" d="M90,78.8c0-1.4,0-2.9,0.1-4.3H94c0.2,0,0.2-0.1,0.3-0.2l0.3-1.1c0.1-0.1-0.1-0.3-0.2-0.3h-4.2l0.2-3
			c0-0.2-0.1-0.5-0.3-0.5c-0.2,0-0.4,0.1-0.4,0.3c-0.4,1.1-2.7,3.4-3.5,3.8c-0.4,0.2-0.5,0.3-0.5,0.5c0,0.2,0.2,0.4,0.5,0.4H88
			c-0.1,1.3-0.1,3.3-0.1,3.9V79c0,0.4-0.1,3.1-0.1,4.3c0,1.2,1.5,2.6,2.9,2.6c1.8,0,3-0.9,3.3-1.2c0.1-0.1,0.2-0.2,0.1-0.4L94,84
			c-0.1-0.1-0.2-0.2-0.4-0.1c-0.4,0.3-1.3,0.4-2,0.4c-0.5,0-1.6-0.4-1.6-2.7L90,78.8L90,78.8z"/>
		<path fill="#3D505A" d="M107.5,73.9c0-1.6,0.1-8,0.1-9.7c0-0.4-0.1-0.5-0.2-0.5c-0.2,0-0.4,0.1-0.6,0.2c-1.1,0.7-2.5,1.3-3.5,1.8
			c-0.2,0.1-0.3,0.1-0.3,0.2v0.2c0,0.1,0,0.1,0.2,0.2l0.6,0.2c1,0.3,1.5,0.8,1.5,1.8c0.1,0.8,0.1,3.6,0.1,5.7V76c0,1.8,0,7-0.1,7.9
			c-0.1,0.5-0.4,0.8-0.6,0.8h-1.5c-0.4,0-0.4,0.1-0.4,0.3v0.5c0,0.2,0.1,0.3,0.2,0.3c0.3,0,1.5-0.1,3.4-0.1c1.9,0,3.2,0.1,3.4,0.1
			c0.1,0,0.2-0.1,0.2-0.3V85c0-0.2-0.1-0.3-0.4-0.3h-1.3c-0.6,0-0.8-0.4-0.8-0.9c-0.1-0.9-0.1-5.5-0.1-7.1L107.5,73.9L107.5,73.9z"
			/>
		<path fill="#3D505A" d="M128.1,80.3v-4.6c0-0.8,0-1.5-0.6-2.2c-0.4-0.4-1-0.8-2.4-0.8c-1.3,0-2.4,0.3-3.7,1.1
			c-1.2,0.7-2.1,1.9-2.1,2.9c0,0.7,0.2,1,0.7,1c1.2,0,1.6-0.6,1.6-1.8c0-0.5-0.3-1,0.2-1.4c0.4-0.4,1.3-0.6,2-0.6
			c0.9,0,1.5,0.3,1.8,0.6c0.4,0.4,0.4,1.2,0.4,1.7V78c-0.5,0.4-2.1,1.2-3.4,1.8c-2.4,1.1-3,2.3-3,3.7c0,1.9,1.1,2.5,1.8,2.5
			c0.6,0,1.2,0,1.8-0.2c1.3-0.5,2.3-1.1,3-1.9h0.1c0.3,1.2,1.1,2.1,2.2,2.1c1.5,0,2.1-1.1,2.3-1.5c0.2-0.3,0.1-0.5,0.1-0.5l-0.3-0.2
			c-0.1-0.1-0.2-0.1-0.3,0.1c-0.2,0.2-0.6,0.5-1.1,0.5c-0.5,0-0.9-0.5-0.9-2.3L128.1,80.3L128.1,80.3z M125.9,82.7
			c0,0.8-1.6,1.9-2.5,1.9c-0.9,0-1.6-0.5-1.6-1.6c0-2.5,3-3.1,4-3.9V82.7z"/>
		<path fill="#3D505A" d="M143.7,86c2.6,0,4.6-1.5,4.6-4c0-2.3-1.4-3.3-3.6-3.9c-1.5-0.4-2.9-0.8-2.9-2.5c0-1.3,1.2-2,2.3-2
			c1.2,0,1.8,0.6,2.1,1.2l1.1,1.4c0.1,0.2,0.2,0.2,0.3,0.2l0.4-0.1c0.2-0.1,0.2-0.2,0.2-0.3l-0.5-2.1c0-0.2-0.1-0.4-0.5-0.5
			c-0.5-0.3-1.3-0.6-2.8-0.6c-2.3,0-4.2,1.6-4.2,3.7c0,2.4,1.8,3.3,3.6,3.9c2.3,0.6,2.9,1.4,2.9,2.8c0,1.4-1.3,2.1-2.4,2.1
			c-1.6,0-2.1-0.8-2.6-1.9l-0.8-1.5c-0.1-0.2-0.2-0.2-0.3-0.2l-0.4,0.1c-0.1,0.1-0.2,0.1-0.2,0.2l0.5,2.9c0,0.2,0,0.4,0.2,0.4
			C141,85.4,142.3,86,143.7,86z"/>
		<path fill="#3D505A" d="M167.1,86.9c0,3,0,4.6-0.1,5.3c-0.1,0.5-0.1,0.8-0.6,0.8h-1.2c-0.3,0-0.4,0.1-0.4,0.3v0.5
			c0,0.2,0.1,0.3,0.3,0.3c0.2,0,1.3-0.1,3-0.1c1.9,0,3,0.1,3.1,0.1c0.2,0,0.3-0.1,0.3-0.3v-0.5c0-0.2,0-0.3-0.3-0.3h-1.3
			c-0.5,0-0.6-0.2-0.6-1v-6.4c0.9,0.4,2.2,0.5,3,0.5c3.8,0,6.6-3.2,6.6-7.1c0-2.3-0.5-3.6-1.6-4.7c-0.9-0.8-1.9-1.5-3.5-1.5
			c-2.1,0-3.6,1-4.4,2.1h-0.1l-0.1-1.5c0-0.5-0.1-0.6-0.2-0.6c-0.2,0-0.5,0.1-0.7,0.2l-2.9,1.5c-0.2,0.1-0.2,0.1-0.2,0.2v0.2
			c0,0.1,0,0.2,0.2,0.3l0.7,0.4c0.9,0.5,1.1,0.9,1.1,1.6V86.9z M169.3,76c0.7-1.2,2-1.9,3.2-1.9c2.1,0,3.9,1.7,3.9,6
			c0,3.7-1.8,5.1-3.5,5.1c-1.2,0-2.2-0.2-3-0.8c-0.6-0.4-0.6-0.9-0.6-1.6L169.3,76L169.3,76z"/>
		<path fill="#3D505A" d="M195.1,86c3.7,0,6.7-3.4,6.7-6.7c0-2-0.7-3.6-2.1-5c-0.9-0.9-2.6-1.8-4.2-1.8c-1,0-2.5,0.2-4,1.5
			c-1.8,1.4-2.6,3.3-2.6,4.9c0,2.2,0.3,3.3,1.6,5C191.8,85.4,193.6,86,195.1,86z M195.5,85.1c-1.4,0-2.3-0.6-3-1.6
			c-1-1.4-1.2-2.6-1.2-4.3c0-2.3,0.4-3.6,1.6-4.7c0.7-0.8,1.5-1,2.3-1c1.5,0,4,2.1,4,5.5C199.3,82.3,197.7,85.1,195.5,85.1z"/>
		<path fill="#3D505A" d="M218,86c3.7,0,6.7-3.4,6.7-6.7c0-2-0.7-3.6-2.1-5c-0.9-0.9-2.6-1.8-4.2-1.8c-1,0-2.5,0.2-4,1.5
			c-1.8,1.4-2.6,3.3-2.6,4.9c0,2.2,0.3,3.3,1.6,5C214.7,85.4,216.5,86,218,86z M218.4,85.1c-1.4,0-2.3-0.6-3-1.6
			c-1-1.4-1.2-2.6-1.2-4.3c0-2.3,0.4-3.6,1.6-4.7c0.7-0.8,1.5-1,2.3-1c1.5,0,4,2.1,4,5.5C222.2,82.3,220.6,85.1,218.4,85.1z"/>
		<path fill="#3D505A" d="M244.6,73.1c-0.9-0.3-2-0.5-3.2-0.5c-1.7,0-3.3,0.6-4.5,1.9c-1.4,1.4-2.1,3.3-2.1,5.2
			c0,2.1,0.4,3.4,1.9,4.9c1.4,1.5,2.6,1.4,3.6,1.4c1.5,0,3.5-0.6,4.5-1.6l0.4,1.3c0.1,0.2,0.2,0.3,0.4,0.2l3.4-1.2
			c0.2-0.1,0.2-0.2,0.2-0.4l-0.1-0.2c-0.1-0.2-0.2-0.2-0.6-0.2c-0.4,0-1.1-0.2-1.3-0.5c-0.2-0.3-0.3-1.6-0.3-2.8V74
			c0-3.9,0.1-8.3,0.1-9.8c0.1-0.4,0-0.5-0.2-0.5c-0.2,0-0.4,0.1-0.7,0.1c-0.6,0.1-2.2,0.4-3.3,0.6c-0.2,0.1-0.2,0.1-0.2,0.2v0.5
			c0,0.1,0.1,0.2,0.2,0.2c1.7,0.3,1.9,0.6,1.9,1.8L244.6,73.1L244.6,73.1z M244.6,82c0,0.4,0,0.6-0.2,1.1c-0.3,0.8-1.6,1.7-3.3,1.7
			c-1.8,0-4.1-2.5-4.1-5.9c0-1.2,0.2-2.8,1.4-4c0.8-0.8,1.8-1.1,2.8-1.1c1.8,0,2.8,0.8,3.2,1.6c0.3,0.5,0.3,1.1,0.3,1.5L244.6,82
			L244.6,82z"/>
	</g>
	<g>
		<path fill="#3D505A" d="M64.8,97.4v-0.3h1.9h1.8v0.3c-0.5,0-0.8,0-0.9,0.1c-0.1,0-0.2,0.1-0.2,0.1c-0.1,0.1-0.1,0.2-0.1,0.4
			c0,0.1,0,0.5,0,1.2v0.6c0.8,0,1.8,0.1,2.9,0.1c0.9,0,1.6,0,2.1-0.1v-0.6c0-0.4,0-0.8,0-1.1c0-0.3-0.1-0.4-0.1-0.5
			s-0.1-0.1-0.2-0.1c-0.1,0-0.4-0.1-0.9-0.1v-0.3c0.9,0,1.5,0,1.8,0c0.1,0,0.7,0,1.8,0v0.2c-0.5,0-0.8,0-0.9,0.1
			c-0.1,0-0.2,0.1-0.2,0.1c-0.1,0.1-0.1,0.2-0.1,0.4c0,0.1,0,0.5,0,1.2v1.9c0,0.4,0,0.8,0,1.1c0,0.3,0.1,0.4,0.1,0.5
			c0.1,0.1,0.1,0.1,0.2,0.1c0.1,0,0.4,0.1,0.9,0.1v0.3c-0.8,0-1.4-0.1-1.9-0.1c-0.5,0-1.1,0-1.6,0.1v-0.3c0.5,0,0.8,0,0.9-0.1
			c0.1,0,0.2-0.1,0.2-0.1c0.1-0.1,0.1-0.2,0.1-0.4c0-0.1,0-0.5,0.1-1.2v-0.9c-1.2,0-2,0-2.6,0s-1.5,0-2.5,0v0.9c0,0.4,0,0.8,0,1.1
			c0,0.3,0.1,0.4,0.1,0.5c0.1,0.1,0.1,0.1,0.2,0.1c0.1,0,0.4,0.1,0.9,0.1v0.3c-0.6,0-1.1-0.1-1.7-0.1c-0.6,0-1.3,0-1.9,0.1v-0.3
			c0.5,0,0.8,0,0.9-0.1c0.1,0,0.2-0.1,0.2-0.1c0.1-0.1,0.1-0.2,0.1-0.4c0-0.1,0-0.5,0-1.2v-1.9c0-0.4,0-0.8,0-1.1
			c0-0.3-0.1-0.4-0.1-0.5s-0.1-0.1-0.2-0.1C65.6,97.5,65.3,97.4,64.8,97.4z"/>
		<path fill="#3D505A" d="M78.7,100.2c0-0.5,0.1-0.9,0.3-1.2c0.2-0.4,0.5-0.7,1-1c0.5-0.3,0.9-0.5,1.5-0.7c0.6-0.2,1.2-0.2,1.9-0.2
			c0.6,0,1.3,0.1,1.8,0.2c0.5,0.1,1,0.3,1.3,0.5c0.4,0.2,0.6,0.5,0.8,0.7c0.2,0.2,0.3,0.4,0.4,0.7c0.1,0.2,0.1,0.5,0.1,0.8
			c0,0.9-0.5,1.8-1.4,2.4c-0.9,0.6-2.1,0.9-3.5,0.9c-0.6,0-1.2-0.1-1.8-0.2c-0.6-0.1-1.1-0.4-1.4-0.6c-0.4-0.3-0.7-0.6-0.9-1.1
			C78.9,101,78.7,100.6,78.7,100.2z M80,99.9c0,0.3,0.1,0.5,0.1,0.8c0.1,0.3,0.2,0.5,0.3,0.7c0.2,0.4,0.5,0.6,0.8,0.9
			c0.3,0.2,0.6,0.4,1.1,0.5s0.8,0.2,1.3,0.2c0.6,0,1.2-0.1,1.7-0.4c0.5-0.2,0.9-0.5,1.1-0.9c0.2-0.4,0.4-0.9,0.4-1.4
			c0-0.5-0.1-0.9-0.2-1.2c-0.1-0.2-0.2-0.4-0.4-0.6c-0.2-0.2-0.4-0.4-0.6-0.5c-0.2-0.1-0.6-0.2-0.9-0.4c-0.4-0.1-0.8-0.2-1.2-0.2
			c-0.6,0-1.2,0.1-1.7,0.3c-0.5,0.2-0.9,0.5-1.1,0.9C80.1,99,80,99.4,80,99.9z"/>
		<path fill="#3D505A" d="M92.1,97.4v-0.3c0.4,0,0.8,0,1.2,0c0.4,0,0.8,0,1.2,0c0.4,0.6,0.7,1.1,1,1.5l2.3,3.3l2.1-3
			c0.6-0.8,0.9-1.4,1.2-1.8c0.4,0,0.8,0,1.1,0s0.7,0,1.3,0v0.4c-0.5,0-0.8,0-0.9,0.1c-0.1,0-0.2,0.1-0.2,0.1
			c-0.1,0.1-0.1,0.2-0.1,0.4c0,0.1,0,0.5,0,1.2v1.9c0,0.4,0,0.8,0,1.1c0,0.3,0.1,0.4,0.1,0.5c0.1,0.1,0.1,0.1,0.2,0.1
			c0.1,0,0.4,0.1,0.9,0.1v0.3c-0.8,0-1.4-0.1-1.8-0.1c-0.3,0-0.9,0-1.8,0.1v-0.3c0.5,0,0.8,0,0.9-0.1c0.1,0,0.2-0.1,0.2-0.1
			c0.1-0.1,0.1-0.2,0.1-0.4c0-0.1,0-0.5,0-1.2V98l-2.1,3c-0.4,0.5-0.6,0.9-0.8,1.2c-0.1,0.2-0.4,0.5-0.6,1h-0.2
			c-0.1-0.1-0.1-0.2-0.2-0.2l-0.4-0.6l-2.9-4.2v3c0,0.4,0,0.8,0,1.1c0,0.3,0.1,0.4,0.1,0.5c0.1,0.1,0.1,0.1,0.2,0.1
			c0.1,0,0.4,0.1,0.9,0.1v0.3l-1.5-0.1l-1.5,0.1v-0.3c0.5,0,0.8,0,0.9-0.1c0.1,0,0.2-0.1,0.2-0.1c0.1-0.1,0.1-0.2,0.1-0.4
			c0-0.1,0-0.5,0-1.2v-1.9c0-0.4,0-0.8,0-1.1c0-0.3-0.1-0.4-0.1-0.5s-0.1-0.1-0.2-0.1C92.9,97.5,92.6,97.4,92.1,97.4z"/>
		<path fill="#3D505A" d="M107.7,103.2v-0.3c0.4,0,0.7,0,0.8-0.1c0.1,0,0.1-0.1,0.1-0.1c0.1-0.1,0.1-0.2,0.1-0.5
			c0-0.4,0.1-0.7,0.1-0.9v-2.2c0-0.4,0-0.8,0-1.1c0-0.3-0.1-0.4-0.1-0.5c-0.1-0.1-0.1-0.1-0.2-0.1c-0.1,0-0.4-0.1-0.9-0.1v-0.3h1.8
			h1.9c0.9,0,1.5,0,1.9,0c0.4,0,0.8,0,1.2,0.1c-0.1,0.2-0.1,0.3-0.1,0.4c0,0-0.1,0.3-0.1,0.9h-0.4c0-0.3,0-0.5-0.1-0.8
			c-0.2-0.1-0.5-0.1-0.8-0.1c-0.5-0.1-0.9-0.1-1.3-0.1c-0.1,0-0.3,0-0.6,0s-0.6,0-0.8,0.1c0,0.3,0,0.6-0.1,0.9v1.4
			c0.5,0,0.9,0,1.3,0c0.5,0,0.9,0,1.2-0.1c0.1,0,0.2-0.1,0.2-0.1c0.1-0.1,0.1-0.2,0.1-0.4l0.1-0.3h0.4v0.1l-0.1,0.9l0.1,1h-0.4v-0.3
			c0-0.2-0.1-0.4-0.1-0.4c-0.1-0.1-0.1-0.1-0.3-0.1c-0.2-0.1-0.7-0.1-1.3-0.1c-0.3,0-0.6,0-1.2,0c0,0.3-0.1,0.7-0.1,1.2
			c0,0.5,0,0.9,0.1,1.2c0.6,0.1,1.2,0.1,2,0.1c0.5,0,0.9,0,1.1-0.1c0.2,0,0.4-0.1,0.6-0.1c0.1-0.1,0.1-0.2,0.2-0.4
			c0.1-0.2,0.2-0.5,0.2-0.6h0.4c-0.1,0.6-0.2,1.1-0.2,1.4c-0.4,0.1-0.8,0.1-1.3,0.1l-3.7-0.1C109.3,103.2,108.7,103.2,107.7,103.2z"
			/>
		<path fill="#3D505A" d="M127,97.4v-0.3c0.6,0,1.2,0,1.6,0c0.3,0,0.9,0,1.6,0c0.8,0,1.3,0,1.6,0c0.3,0,0.6,0,0.8,0
			c0.2,0,0.5,0,0.7,0c-0.1,0.2-0.2,0.6-0.2,1.3h-0.4c-0.1-0.4-0.1-0.6-0.2-0.8c-0.2-0.1-0.5-0.1-0.8-0.1c-0.3,0-0.6-0.1-1.1-0.1
			c-0.4,0-0.8,0-1.3,0.1c0,0.2-0.1,0.3-0.1,0.4c0,0.1,0,0.4-0.1,1v0.9c0.5,0,0.9,0,1.2,0c0.5,0,0.9,0,1.2-0.1c0.1,0,0.2-0.1,0.2-0.1
			c0.1-0.1,0.1-0.2,0.1-0.4l0.1-0.2h0.4l-0.1,0.9l0.1,1.1h-0.4l-0.1-0.3c-0.1-0.3-0.1-0.5-0.1-0.5c-0.1-0.1-0.1-0.1-0.2-0.1
			c-0.2-0.1-0.8-0.1-1.6-0.1c-0.3,0-0.6,0-0.9,0v0.9c0,0.4,0,0.8,0,1.1c0,0.3,0.1,0.4,0.1,0.5c0.1,0.1,0.1,0.1,0.2,0.1
			s0.4,0.1,0.9,0.1v0.3c-0.5,0-1.1-0.1-1.6-0.1c-0.5,0-1.1,0-2.1,0.1v-0.3c0.5,0,0.8,0,0.9-0.1c0.1,0,0.2-0.1,0.2-0.1
			c0.1-0.1,0.1-0.2,0.1-0.4c0-0.1,0-0.5,0-1.2v-1.9c0-0.4,0-0.8,0-1.1c0-0.3-0.1-0.4-0.1-0.5c-0.1-0.1-0.1-0.1-0.2-0.1
			C127.8,97.5,127.5,97.4,127,97.4z"/>
		<path fill="#3D505A" d="M137.4,97.4v-0.3c0.6,0,1.3,0.1,1.9,0.1s1.2,0,1.8-0.1v0.3c-0.5,0-0.8,0-0.9,0.1c-0.1,0-0.2,0.1-0.2,0.1
			c-0.1,0.1-0.1,0.2-0.1,0.4c0,0.1,0,0.5,0,1.2v1.6c0,0.6,0.1,1,0.2,1.2c0.1,0.2,0.3,0.4,0.5,0.5c0.2,0.1,0.5,0.2,0.8,0.2
			c0.3,0.1,0.7,0.1,1.1,0.1c0.5,0,0.9-0.1,1.2-0.1c0.4-0.1,0.6-0.2,0.8-0.3c0.2-0.1,0.3-0.2,0.4-0.4c0.1-0.1,0.2-0.4,0.2-0.6
			c0.1-0.2,0.1-0.5,0.1-0.9v-1.3c0-0.4,0-0.8,0-1.1c0-0.3-0.1-0.4-0.1-0.5c-0.1-0.1-0.1-0.1-0.2-0.1c-0.1,0-0.4-0.1-0.9-0.1v-0.3
			c0.7,0,1.2,0.1,1.5,0.1s0.8,0,1.5-0.1v0.3c-0.5,0-0.8,0-0.9,0.1c-0.1,0-0.2,0.1-0.2,0.1c-0.1,0.1-0.1,0.2-0.1,0.4
			c0,0.1,0,0.5,0,1.2v1.4c0,0.7-0.1,1.2-0.2,1.5c-0.1,0.3-0.4,0.5-0.8,0.8c-0.3,0.2-0.6,0.3-1.1,0.4c-0.5,0.1-0.9,0.1-1.5,0.1
			c-0.6,0-1.2-0.1-1.6-0.2c-0.5-0.1-0.8-0.2-1.1-0.4c-0.2-0.2-0.4-0.4-0.5-0.5c-0.1-0.2-0.2-0.6-0.2-1.2v-1.9c0-0.4,0-0.8,0-1.1
			c0-0.3-0.1-0.4-0.1-0.5c-0.1-0.1-0.1-0.1-0.2-0.1C138.2,97.5,137.9,97.4,137.4,97.4z"/>
		<path fill="#3D505A" d="M150.8,97.4v-0.3c0.2,0,0.4,0,0.7,0h1.2c0.2,0,0.6,0,1.1,0c0.6,0,1,0,1.1,0c0.8,0,1.3,0.1,1.7,0.1
			c0.4,0.1,0.6,0.2,0.8,0.5c0.2,0.2,0.3,0.5,0.3,0.7s-0.1,0.5-0.3,0.7c-0.2,0.2-0.5,0.4-0.8,0.6c-0.4,0.2-0.8,0.3-1.3,0.4
			c0.1,0.1,0.4,0.3,0.7,0.6l1.5,1.4c0.5,0.4,0.7,0.6,0.8,0.6c0.1,0,0.1,0.1,0.1,0.1s0.2,0,0.4,0v0.3c-0.3,0-0.6,0-0.8,0
			c-0.2,0-0.5,0-0.9,0c-0.3-0.2-0.7-0.6-1.3-1.2c-0.4-0.4-0.6-0.6-0.9-0.9c-0.4-0.4-0.8-0.7-1.2-1.1l0.1-0.1c0.2,0,0.4,0,0.5,0
			c0.8,0,1.3-0.1,1.7-0.4c0.4-0.2,0.6-0.6,0.6-0.9s-0.2-0.6-0.5-0.8c-0.4-0.2-0.8-0.3-1.5-0.3c-0.4,0-0.8,0.1-1.2,0.1
			c0,0.2,0,0.3-0.1,0.4c0,0.1,0,0.5-0.1,1.2v1.9c0,0.4,0,0.8,0,1.1c0,0.3,0.1,0.4,0.1,0.5c0.1,0.1,0.1,0.1,0.2,0.1
			c0.1,0,0.4,0.1,0.9,0.1v0.3c-0.6,0-1.1-0.1-1.6-0.1c-0.4,0-1.1,0-2,0.1v-0.3c0.5,0,0.8,0,0.9-0.1c0.1,0,0.2-0.1,0.2-0.1
			c0.1-0.1,0.1-0.2,0.1-0.4c0-0.1,0-0.5,0-1.2v-1.8c0-0.4,0-0.8,0-1.1c0-0.3-0.1-0.4-0.1-0.5c-0.1-0.1-0.1-0.1-0.2-0.1
			C151.6,97.5,151.3,97.4,150.8,97.4z"/>
		<path fill="#3D505A" d="M162.8,103.2v-0.3c0.4,0,0.7,0,0.8-0.1c0.1,0,0.1-0.1,0.1-0.1c0.1-0.1,0.1-0.2,0.1-0.5
			c0-0.4,0.1-0.7,0.1-0.9v-3.5c0-0.1,0-0.2,0-0.2c-0.1-0.1-0.1-0.1-0.2-0.2c-0.1-0.1-0.2-0.1-0.2-0.1c-0.1,0-0.3,0-0.6,0v-0.3
			c0.7,0,1.1,0,1.3,0c0.3,0,0.6,0,0.9,0c0.4,0.3,0.6,0.5,0.8,0.7L167,99l1.9,1.5c0.6,0.5,1.1,0.9,1.4,1.2c0.2,0.2,0.4,0.4,0.6,0.5
			V99c0-0.3,0-0.6-0.1-1c0-0.2-0.1-0.4-0.1-0.4c0-0.1-0.1-0.1-0.1-0.1c-0.1-0.1-0.4-0.1-0.8-0.1v-0.3c0.5,0,1,0,1.5,0s0.9,0,1.3,0
			v0.2c-0.4,0-0.7,0-0.8,0.1c-0.1,0-0.1,0.1-0.1,0.1c-0.1,0.1-0.1,0.2-0.1,0.5c0,0.4-0.1,0.7-0.1,0.9v2.1c0,0.4,0,1.2,0.1,2.3
			l-0.6-0.1h-0.2h-0.1c0,0-0.1-0.1-0.2-0.2c-0.4-0.3-0.6-0.5-0.8-0.6l-0.8-0.7l-4.3-3.6v3.3c0,0.3,0,0.6,0.1,1
			c0,0.2,0.1,0.4,0.1,0.4c0,0.1,0.1,0.1,0.1,0.1c0.1,0.1,0.4,0.1,0.8,0.1v0.3c-0.4,0-0.8,0-1.2,0
			C163.9,103.2,163.3,103.2,162.8,103.2z"/>
		<path fill="#3D505A" d="M180.3,102.9v0.3c-0.9,0-1.5-0.1-1.7-0.1l-1.9,0.1v-0.3c0.5,0,0.8,0,0.9-0.1c0.1,0,0.2-0.1,0.2-0.1
			c0.1-0.1,0.1-0.2,0.1-0.4c0-0.1,0-0.5,0-1.2v-1.9c0-0.4,0-0.8,0-1.1c0-0.3-0.1-0.4-0.1-0.5s-0.1-0.1-0.2-0.1
			c-0.1,0-0.4-0.1-0.9-0.1v-0.3c0.8,0,1.4,0.1,1.8,0.1c0.4,0,1,0,1.8-0.1v0.3c-0.5,0-0.8,0-0.9,0.1c-0.1,0-0.2,0.1-0.2,0.1
			c-0.1,0.1-0.1,0.2-0.1,0.4c0,0.1,0,0.5,0,1.2v1.9c0,0.4,0,0.8,0,1.1c0,0.3,0.1,0.4,0.1,0.5c0.1,0.1,0.1,0.1,0.2,0.1
			C179.5,102.9,179.9,102.9,180.3,102.9z"/>
		<path fill="#3D505A" d="M184.5,103c0.1-0.3,0.1-0.7,0.1-1.3h0.4c0,0.4,0.1,0.6,0.1,0.7c0.1,0.1,0.2,0.2,0.4,0.2
			c0.2,0.1,0.4,0.2,0.7,0.2c0.3,0.1,0.6,0.1,0.9,0.1c0.4,0,0.8-0.1,1.1-0.2c0.4-0.1,0.6-0.3,0.8-0.5c0.2-0.2,0.2-0.5,0.2-0.7
			c0-0.2-0.1-0.4-0.1-0.5c-0.1-0.1-0.2-0.2-0.4-0.4c-0.2-0.1-0.4-0.1-0.6-0.2c-0.2,0-0.5-0.1-0.9-0.1c-0.5-0.1-0.8-0.1-1.2-0.1
			c-0.4-0.1-0.8-0.2-0.9-0.3c-0.2-0.1-0.4-0.3-0.5-0.5c-0.1-0.2-0.2-0.4-0.2-0.6c0-0.4,0.1-0.6,0.4-0.9c0.2-0.3,0.6-0.5,1.1-0.7
			c0.5-0.2,1.1-0.2,1.6-0.2c0.4,0,0.7,0.1,1.1,0.1c0.4,0.1,0.8,0.2,1.2,0.3c-0.1,0.2-0.1,0.4-0.1,0.5s-0.1,0.4-0.1,0.7h-0.4
			c0-0.4-0.1-0.6-0.1-0.7c-0.1-0.1-0.2-0.2-0.4-0.3c-0.4-0.2-0.9-0.2-1.3-0.2c-0.6,0-1.1,0.1-1.4,0.4c-0.4,0.2-0.5,0.6-0.5,1
			c0,0.2,0.1,0.4,0.2,0.6c0.1,0.1,0.4,0.2,0.7,0.3c0.2,0.1,0.6,0.1,1.1,0.2c0.5,0.1,1,0.1,1.4,0.2c0.4,0.1,0.6,0.2,0.9,0.3
			c0.2,0.1,0.4,0.2,0.5,0.4c0.1,0.2,0.2,0.4,0.2,0.6c0,0.6-0.4,1.1-1,1.5c-0.7,0.4-1.5,0.6-2.6,0.6
			C185.9,103.3,185.1,103.2,184.5,103z"/>
		<path fill="#3D505A" d="M194.6,97.4v-0.3h1.9h1.8v0.3c-0.5,0-0.8,0-0.9,0.1c-0.1,0-0.2,0.1-0.2,0.1c-0.1,0.1-0.1,0.2-0.1,0.4
			c0,0.1,0,0.5,0,1.2v0.6c0.8,0,1.8,0.1,2.9,0.1c0.9,0,1.6,0,2.1-0.1v-0.6c0-0.4,0-0.8,0-1.1c0-0.3-0.1-0.4-0.1-0.5
			c-0.1-0.1-0.1-0.1-0.2-0.1c-0.1,0-0.4-0.1-0.9-0.1v-0.3c0.9,0,1.5,0,1.8,0c0.1,0,0.7,0,1.8,0v0.2c-0.5,0-0.8,0-0.9,0.1
			c-0.1,0-0.2,0.1-0.2,0.1c-0.1,0.1-0.1,0.2-0.1,0.4c0,0.1,0,0.5,0,1.2v1.9c0,0.4,0,0.8,0,1.1c0,0.3,0.1,0.4,0.1,0.5
			c0.1,0.1,0.1,0.1,0.2,0.1c0.1,0,0.4,0.1,0.9,0.1v0.3c-0.8,0-1.4-0.1-1.9-0.1c-0.5,0-1.1,0-1.6,0.1v-0.3c0.5,0,0.8,0,0.9-0.1
			c0.1,0,0.2-0.1,0.2-0.1c0.1-0.1,0.1-0.2,0.1-0.4c0-0.1,0-0.5,0.1-1.2v-0.9c-1.2,0-2,0-2.6,0c-0.6,0-1.5,0-2.5,0v0.9
			c0,0.4,0,0.8,0,1.1c0,0.3,0.1,0.4,0.1,0.5c0.1,0.1,0.1,0.1,0.2,0.1c0.1,0,0.4,0.1,0.9,0.1v0.3c-0.5,0-1.1-0.1-1.7-0.1
			c-0.6,0-1.3,0-1.9,0.1v-0.3c0.5,0,0.8,0,0.9-0.1c0.1,0,0.2-0.1,0.2-0.1c0.1-0.1,0.1-0.2,0.1-0.4c0-0.1,0-0.5,0-1.2v-1.9
			c0-0.4,0-0.8,0-1.1c0-0.3-0.1-0.4-0.1-0.5s-0.1-0.1-0.2-0.1C195.3,97.5,195,97.4,194.6,97.4z"/>
		<path fill="#3D505A" d="M212.2,102.9v0.3c-0.9,0-1.5-0.1-1.7-0.1l-1.9,0.1v-0.3c0.5,0,0.8,0,0.9-0.1c0.1,0,0.2-0.1,0.2-0.1
			c0.1-0.1,0.1-0.2,0.1-0.4c0-0.1,0-0.5,0-1.2v-1.9c0-0.4,0-0.8,0-1.1c0-0.3-0.1-0.4-0.1-0.5s-0.1-0.1-0.2-0.1
			c-0.1,0-0.4-0.1-0.9-0.1v-0.3c0.8,0,1.4,0.1,1.8,0.1c0.4,0,1,0,1.8-0.1v0.3c-0.5,0-0.8,0-0.9,0.1c-0.1,0-0.2,0.1-0.2,0.1
			c-0.1,0.1-0.1,0.2-0.1,0.4c0,0.1,0,0.5-0.1,1.2v1.9c0,0.4,0,0.8,0,1.1c0,0.3,0.1,0.4,0.1,0.5c0.1,0.1,0.1,0.1,0.2,0.1
			C211.4,102.9,211.7,102.9,212.2,102.9z"/>
		<path fill="#3D505A" d="M216.4,103.2v-0.3c0.4,0,0.7,0,0.8-0.1c0.1,0,0.1-0.1,0.1-0.1c0.1-0.1,0.1-0.2,0.1-0.5
			c0-0.4,0.1-0.7,0.1-0.9v-3.5c0-0.1,0-0.2,0-0.2c-0.1-0.1-0.1-0.1-0.2-0.2c-0.1-0.1-0.2-0.1-0.2-0.1c-0.1,0-0.3,0-0.6,0v-0.3
			c0.7,0,1.1,0,1.3,0c0.3,0,0.6,0,0.9,0c0.4,0.3,0.6,0.5,0.8,0.7l1.3,1.1l1.9,1.5c0.6,0.5,1.1,0.9,1.4,1.2c0.2,0.2,0.4,0.4,0.6,0.5
			V99c0-0.3,0-0.6-0.1-1c0-0.2-0.1-0.4-0.1-0.4c-0.1-0.1-0.1-0.1-0.1-0.1c-0.1-0.1-0.4-0.1-0.8-0.1v-0.3c0.5,0,1,0,1.5,0
			s0.9,0,1.3,0v0.2c-0.4,0-0.7,0-0.8,0.1c-0.1,0-0.1,0.1-0.1,0.1c-0.1,0.1-0.1,0.2-0.1,0.5c0,0.4-0.1,0.7-0.1,0.9v2.1
			c0,0.4,0,1.2,0,2.3l-0.6-0.1h-0.2h-0.1c-0.1,0-0.1-0.1-0.2-0.2c-0.4-0.3-0.6-0.5-0.8-0.6l-0.8-0.7l-4.3-3.6v3.3c0,0.3,0,0.6,0.1,1
			c0,0.2,0.1,0.4,0.1,0.4c0,0.1,0.1,0.1,0.1,0.1c0.1,0.1,0.4,0.1,0.8,0.1v0.3c-0.4,0-0.8,0-1.2,0
			C217.4,103.2,216.9,103.2,216.4,103.2z"/>
		<path fill="#3D505A" d="M238.7,102.9c-0.6,0.2-1.1,0.2-1.5,0.3c-0.7,0.1-1.3,0.1-2,0.1c-0.9,0-1.8-0.1-2.5-0.4
			c-0.8-0.2-1.3-0.6-1.7-1.1c-0.4-0.5-0.6-1-0.6-1.6c0-0.5,0.1-1,0.4-1.4c0.3-0.4,0.6-0.7,1.1-0.9c0.4-0.2,0.9-0.4,1.3-0.5
			c0.6-0.2,1.5-0.3,2.5-0.3c0.5,0,0.9,0.1,1.4,0.1c0.5,0.1,1.1,0.2,1.7,0.3c-0.1,0.2-0.1,0.3-0.1,0.4c-0.1,0.1-0.1,0.4-0.1,0.9h-0.4
			v-0.5c0-0.1,0-0.1,0-0.2c0-0.1-0.1-0.1-0.1-0.2c-0.1-0.1-0.3-0.2-0.5-0.3c-0.4-0.1-0.8-0.2-1.1-0.2c-0.3-0.1-0.6-0.1-1-0.1
			c-0.8,0-1.5,0.1-2,0.4c-0.6,0.2-1,0.6-1.3,1c-0.3,0.4-0.4,0.9-0.4,1.4c0,0.5,0.2,1.1,0.5,1.5s0.8,0.8,1.3,1c0.6,0.2,1.2,0.4,2,0.4
			c0.4,0,0.7,0,1.1-0.1c0.4-0.1,0.6-0.1,0.9-0.2c0.1-0.1,0.1-0.3,0.1-0.5v-0.5c0-0.2,0-0.4-0.1-0.4c-0.1-0.1-0.1-0.1-0.3-0.1
			c-0.2,0-0.5-0.1-1.1-0.1v-0.2h1.9c0.4,0,0.8,0,1.1,0l0.1,0.2l-0.5,0.2c-0.1,0.3-0.1,0.6-0.1,0.8
			C238.6,102.3,238.6,102.6,238.7,102.9z"/>
		<path fill="#3D505A" d="M243.4,103c0.1-0.3,0.1-0.7,0.1-1.3h0.4c0,0.4,0.1,0.6,0.1,0.7c0.1,0.1,0.2,0.2,0.4,0.2
			c0.2,0.1,0.4,0.2,0.7,0.2c0.3,0.1,0.6,0.1,0.9,0.1c0.4,0,0.8-0.1,1.1-0.2c0.4-0.1,0.6-0.3,0.8-0.5c0.2-0.2,0.2-0.5,0.2-0.7
			c0-0.2-0.1-0.4-0.1-0.5c-0.1-0.1-0.2-0.2-0.4-0.4c-0.2-0.1-0.4-0.1-0.6-0.2c-0.2,0-0.5-0.1-0.9-0.1c-0.5-0.1-0.8-0.1-1.2-0.1
			c-0.4-0.1-0.8-0.2-0.9-0.3c-0.2-0.1-0.4-0.3-0.5-0.5c-0.1-0.2-0.2-0.4-0.2-0.6c0-0.4,0.1-0.6,0.4-0.9c0.2-0.3,0.6-0.5,1.1-0.7
			c0.5-0.2,1.1-0.2,1.6-0.2c0.4,0,0.7,0.1,1.1,0.1c0.4,0.1,0.8,0.2,1.2,0.3c-0.1,0.2-0.1,0.4-0.1,0.5s-0.1,0.4-0.1,0.7h-0.4
			c0-0.4-0.1-0.6-0.1-0.7c-0.1-0.1-0.2-0.2-0.4-0.3c-0.4-0.2-0.9-0.2-1.3-0.2c-0.6,0-1.1,0.1-1.4,0.4c-0.4,0.2-0.5,0.6-0.5,1
			c0,0.2,0.1,0.4,0.2,0.6c0.1,0.1,0.4,0.2,0.7,0.3c0.2,0.1,0.6,0.1,1.1,0.2c0.5,0.1,1,0.1,1.4,0.2c0.4,0.1,0.6,0.2,0.9,0.3
			c0.2,0.1,0.4,0.2,0.5,0.4c0.1,0.2,0.2,0.4,0.2,0.6c0,0.6-0.4,1.1-1,1.5c-0.7,0.4-1.6,0.6-2.6,0.6
			C244.8,103.3,244.1,103.2,243.4,103z"/>
	</g>
	<rect x="66.1" y="89" fill="#3D505A" width="99.8" height="0.6"/>
	<rect x="170.5" y="89" fill="#3D505A" width="78.2" height="0.6"/>
	<path fill="#3D505A" d="M23.2,89.4c0.1-0.8,0.4-1.5,1.2-2.3c1.2-1.3,5.2-2.5,8.7-0.4v2.9c-0.4-0.4-1.1-0.9-1.5-1.3
		c-1.8-1.2-5.1-1.6-6.6-0.1c-0.4,0.4-0.7,1-0.8,1.3C24.1,90.2,23.1,89.9,23.2,89.4z"/>
	<path fill="#3D505A" d="M36.6,91.3c0.1,0.9-0.5,3.1-2.9,3.2c-0.2,0-0.5,0.1-0.8-0.1c0.9-0.5,1-1.3,1.1-2.9c0,0,0-18.2,0-18.9
		c-0.1-3.6,2.1-3.7,2.5-3.7C36.6,68.8,36.6,85.8,36.6,91.3z"/>
	<path fill="#3D505A" d="M27.7,64.6h-0.9c-15.1,0-27,8.7-27,19s11.9,19,27,19h0.9c15,0,27.1-8.7,27.1-19
		C54.8,73.4,42.8,64.6,27.7,64.6z M27.8,101.1H27c-13.9,0-25.3-7.8-25.3-17.4C1.6,74.1,12.9,66.3,27,66.3h0.8
		c13.9,0,25.3,7.8,25.3,17.4S41.7,101.1,27.8,101.1z"/>
	<path fill="#3D505A" d="M40.8,81c-0.5,0-0.9-0.2-0.9-0.6c0-0.4,0.3-0.6,0.6-0.6c2.1,0,2.9-1.4,3-3c0.1-1.9-1.6-3.8-3.9-4
		c-13.6-1.2-15.7,21.5-27,21.5c-2.5,0-6.2-1.3-5.3-5.5c0.1-0.6,1.2-0.4,1.3,0.1c0,0.2,0.1,0.7,0.1,1c0.2,3,3.9,3,6.7,1.5
		c7.6-4,10.4-20.6,22.9-20.6c0.7,0,4.6,0.2,6.4,3.2c0.8,1.3,0.9,3.5-0.1,5C43.7,80.2,42.4,81,40.8,81z"/>
</g>
</svg>
