<?xml version="1.0" encoding="utf-8"?>
<!-- Generator: Adobe Illustrator 18.0.0, SVG Export Plug-In . SVG Version: 6.00 Build 0)  -->
<!DOCTYPE svg PUBLIC "-//W3C//DTD SVG 1.1//EN" "http://www.w3.org/Graphics/SVG/1.1/DTD/svg11.dtd">
<svg version="1.1" id="Layer_1" xmlns="http://www.w3.org/2000/svg" xmlns:xlink="http://www.w3.org/1999/xlink" x="0px" y="0px"
	 viewBox="0 59.5 249.1 47.5" enable-background="new 0 59.5 249.1 47.5" xml:space="preserve">
<g>
	<path fill="#445156" d="M72.2,82.7c0,0.7-1.6,1.9-2.4,1.9s-1.6-0.6-1.6-1.7c0-2.5,2.9-3.1,4-3.9C72.2,79,72.2,82.7,72.2,82.7z
		 M74.3,80.3v-4.7c0-0.7,0-1.6-0.7-2.2c-0.4-0.4-0.9-0.7-2.4-0.7c-1.4,0-2.4,0.3-3.7,1c-1.3,0.7-2.1,1.9-2.1,2.8
		c0,0.7,0.2,0.9,0.7,0.9c1.3,0,1.6-0.7,1.6-1.8c0-0.6-0.3-0.9,0.2-1.4c0.4-0.4,1.4-0.7,2-0.7c0.8,0,1.5,0.3,1.9,0.7
		c0.3,0.4,0.4,1.2,0.4,1.7v2c-0.5,0.4-2.1,1.2-3.5,1.8c-2.3,1-3,2.2-3,3.7c0,2,1,2.5,1.9,2.5c0.7,0,1.2,0,1.8-0.2
		c1.4-0.5,2.3-1,3-1.9h0.1c0.3,1.3,1,2.1,2.2,2.1c1.6,0,2.2-1,2.3-1.5c0.2-0.3,0.1-0.5,0-0.6l-0.2-0.3c-0.1-0.1-0.2,0-0.3,0.1
		c-0.2,0.2-0.7,0.5-1.1,0.5c-0.6,0-0.8-0.6-0.8-2.2L74.3,80.3L74.3,80.3L74.3,80.3z"/>
	<path fill="#445156" d="M90,78.8c0-1.4,0-2.8,0.1-4.3H94c0.2,0,0.2-0.1,0.3-0.2l0.3-1c0.1-0.1,0-0.3-0.2-0.3h-4.2l0.2-3
		c0-0.2-0.1-0.5-0.3-0.5s-0.3,0.1-0.4,0.3c-0.4,1-2.7,3.5-3.5,3.8c-0.4,0.2-0.6,0.3-0.6,0.6c0,0.2,0.2,0.4,0.5,0.4h1.7
		c0,1.4,0,3.4,0,3.9v0.7c0,0.4-0.1,3.1-0.1,4.3c0,1.2,1.5,2.5,2.9,2.5c1.9,0,3-0.8,3.4-1.2c0.1-0.1,0.2-0.2,0.1-0.3l-0.2-0.3
		c-0.1-0.1-0.2-0.2-0.4-0.1c-0.4,0.3-1.3,0.4-2,0.4c-0.6,0-1.6-0.4-1.6-2.6C90,81.8,90,78.8,90,78.8z"/>
	<path fill="#445156" d="M107.5,73.9c0-1.7,0.1-8,0.1-9.6c0-0.4,0-0.6-0.2-0.6c-0.2,0-0.4,0.1-0.6,0.2c-1,0.7-2.4,1.3-3.6,1.8
		c-0.2,0.1-0.3,0.1-0.3,0.2v0.3c0,0.1,0,0.1,0.2,0.2l0.6,0.1c0.9,0.3,1.5,0.7,1.5,1.9c0.1,0.7,0.1,3.6,0.1,5.7v2c0,1.8,0,6.9,0,7.9
		c0,0.6-0.3,0.7-0.7,0.7h-1.5c-0.3,0-0.4,0.1-0.4,0.3v0.5c0,0.2,0.1,0.3,0.2,0.3c0.3,0,1.5-0.1,3.5-0.1c1.9,0,3.2,0.1,3.5,0.1
		c0.1,0,0.2-0.1,0.2-0.3V85c0-0.2-0.1-0.3-0.3-0.3h-1.4c-0.7,0-0.7-0.4-0.7-0.9c0-0.9,0-5.6,0-7.1v-2.7H107.5z"/>
	<path fill="#445156" d="M125.8,82.7c0,0.7-1.6,1.9-2.4,1.9c-0.8,0-1.6-0.6-1.6-1.7c0-2.5,2.9-3.1,4.1-3.9L125.8,82.7
		C125.9,82.7,125.8,82.7,125.8,82.7z M128.1,80.3v-4.7c0-0.7,0-1.6-0.7-2.2c-0.4-0.4-0.9-0.7-2.4-0.7c-1.4,0-2.4,0.3-3.7,1
		c-1.3,0.7-2.1,1.9-2.1,2.8c0,0.7,0.2,0.9,0.7,0.9c1.3,0,1.6-0.7,1.6-1.8c0-0.6-0.3-0.9,0.2-1.4c0.4-0.4,1.4-0.7,2-0.7
		c0.8,0,1.5,0.3,1.9,0.7c0.3,0.4,0.4,1.2,0.4,1.7v2c-0.5,0.4-2.1,1.2-3.5,1.8c-2.3,1-3,2.2-3,3.7c0,2,1,2.5,1.9,2.5
		c0.7,0,1.2,0,1.8-0.2c1.4-0.5,2.3-1,3-1.9h0.1c0.3,1.3,1,2.1,2.2,2.1c1.6,0,2.2-1,2.3-1.5c0.2-0.3,0.1-0.5,0-0.6l-0.3-0.3
		c-0.1-0.1-0.2,0-0.3,0.1c-0.2,0.2-0.6,0.5-1,0.5c-0.6,0-0.8-0.6-0.8-2.2L128.1,80.3L128.1,80.3z"/>
	<path fill="#445156" d="M143.8,86c2.5,0,4.6-1.6,4.6-4c0-2.3-1.5-3.2-3.6-3.9c-1.5-0.4-2.9-0.7-2.9-2.5c0-1.3,1.2-2.1,2.3-2.1
		s1.8,0.6,2.2,1.2l1,1.4c0.1,0.2,0.2,0.2,0.3,0.2l0.4-0.1c0.2-0.1,0.2-0.2,0.2-0.3l-0.5-2.2c0-0.2-0.1-0.3-0.6-0.6
		c-0.6-0.3-1.4-0.7-2.7-0.7c-2.2,0-4.2,1.6-4.2,3.7c0,2.4,1.8,3.4,3.6,3.8c2.2,0.7,2.9,1.5,2.9,2.8c0,1.5-1.4,2.1-2.3,2.1
		c-1.6,0-2.1-0.7-2.6-1.9l-0.7-1.5c-0.1-0.2-0.2-0.2-0.3-0.2h-0.5c-0.1,0-0.2,0.1-0.2,0.3l0.5,2.8c0,0.2,0,0.3,0.2,0.4
		C141,85.3,142.3,86,143.8,86z"/>
	<path fill="#445156" d="M169.2,76c0.7-1.2,2-2,3.2-2c2.1,0,3.9,1.7,3.9,6c0,3.8-1.8,5-3.6,5c-1.3,0-2.1-0.2-3-0.7
		c-0.6-0.4-0.7-0.9-0.7-1.6L169.2,76L169.2,76z M167,86.8c0,2.9,0,4.6-0.1,5.2c-0.1,0.5-0.1,0.7-0.7,0.7h-1.2
		c-0.3,0-0.4,0.1-0.4,0.3v0.6c0,0.2,0.1,0.3,0.3,0.3c0.2,0,1.3-0.1,3-0.1c2,0,2.9,0.1,3.1,0.1c0.2,0,0.3-0.1,0.3-0.3v-0.5
		c0-0.2,0-0.3-0.3-0.3h-1.3c-0.5,0-0.7-0.2-0.7-0.9v-6.5c0.9,0.4,2.2,0.5,3,0.5c3.8,0,6.5-3.2,6.5-7.1c0-2.3-0.5-3.6-1.7-4.7
		c-0.8-0.7-2-1.5-3.5-1.5c-2.1,0-3.6,0.9-4.4,2.1h0.1l-0.1-1.5c0-0.5-0.1-0.6-0.2-0.6c-0.2,0-0.5,0.1-0.7,0.2l-2.9,1.5
		c-0.2,0.1-0.2,0.1-0.2,0.2v0.2c0,0.1,0,0.2,0.2,0.3l0.7,0.4c0.8,0.5,1,0.8,1,1.7V86.8z"/>
	<path fill="#445156" d="M195.4,85.1c-1.5,0-2.3-0.6-3-1.6c-0.9-1.4-1.2-2.5-1.2-4.2c0-2.3,0.4-3.6,1.6-4.8c0.7-0.7,1.5-0.9,2.3-0.9
		c1.6,0,4,2.2,4,5.5C199.2,82.2,197.6,85.1,195.4,85.1z M195,86c3.7,0,6.6-3.4,6.6-6.6c0-2-0.7-3.6-2.1-5c-0.8-0.8-2.5-1.8-4.2-1.8
		c-0.9,0-2.4,0.2-4,1.5c-1.8,1.4-2.6,3.4-2.6,4.9c0,2.2,0.3,3.4,1.7,5C191.7,85.4,193.5,86,195,86z"/>
	<path fill="#445156" d="M218.3,85.1c-1.5,0-2.3-0.6-3-1.6c-0.9-1.4-1.2-2.5-1.2-4.2c0-2.3,0.4-3.6,1.6-4.8c0.7-0.7,1.5-0.9,2.3-0.9
		c1.6,0,4,2.2,4,5.5C222,82.2,220.6,85.1,218.3,85.1z M218,86c3.7,0,6.6-3.4,6.6-6.6c0-2-0.7-3.6-2.1-5c-0.8-0.8-2.5-1.8-4.2-1.8
		c-0.9,0-2.4,0.2-4,1.5c-1.8,1.4-2.6,3.4-2.6,4.9c0,2.2,0.3,3.4,1.7,5C214.6,85.4,216.5,86,218,86z"/>
	<path fill="#445156" d="M244.4,82c0,0.3,0,0.6-0.2,1c-0.3,0.7-1.6,1.7-3.4,1.7c-1.8,0-4.1-2.4-4.1-6c0-1.2,0.2-2.7,1.4-4
		c0.7-0.7,1.9-1,2.7-1c1.8,0,2.7,0.7,3.2,1.7c0.3,0.5,0.3,1,0.3,1.5L244.4,82L244.4,82z M244.4,73c-0.8-0.3-2-0.5-3.2-0.5
		c-1.7,0-3.4,0.7-4.5,2c-1.5,1.5-2.2,3.4-2.2,5.1c0,2.1,0.4,3.5,2,4.9c1.5,1.5,2.5,1.4,3.6,1.4c1.6,0,3.6-0.7,4.5-1.7l0.4,1.4
		c0.1,0.2,0.2,0.3,0.4,0.2l3.5-1.2c0.2-0.1,0.2-0.2,0.2-0.3l-0.1-0.2c-0.1-0.2-0.2-0.2-0.6-0.2s-1-0.2-1.4-0.5
		c-0.2-0.3-0.3-1.7-0.3-2.7V74c0-3.8,0-8.3,0.1-9.7c0-0.3,0-0.6-0.2-0.6c-0.2,0-0.4,0.1-0.7,0.1c-0.6,0.1-2.1,0.4-3.4,0.7
		c-0.2,0-0.2,0.1-0.2,0.2v0.5c0,0.1,0,0.2,0.2,0.2c1.7,0.3,1.9,0.7,1.9,1.8L244.4,73L244.4,73z"/>
	<path fill="#445156" d="M64.8,97.3V97h1.9h1.8v0.3c-0.5,0-0.7,0-0.8,0c-0.1,0-0.2,0.1-0.2,0.1c-0.1,0.2-0.1,0.3-0.1,0.5
		c0,0.1,0,0.5,0,1.2v0.6c0.7,0,1.8,0,2.9,0c0.8,0,1.6,0,2.2,0v-0.6c0-0.4,0-0.7,0-1.2c0-0.3,0-0.4-0.1-0.5c0-0.1-0.1-0.1-0.2-0.1
		s-0.4,0-0.8,0V97c0.8,0,1.5,0,1.9,0c0.1,0,0.7,0,1.8,0v0.3c-0.5,0-0.7,0-0.8,0c-0.1,0-0.2,0.1-0.2,0.1c-0.1,0.1-0.1,0.2-0.1,0.4
		c0,0.1,0,0.5,0,1.2v2c0,0.4,0,0.7,0,1s0,0.4,0.1,0.5s0.1,0.1,0.2,0.1c0.1,0,0.4,0,0.8,0v0.4c-0.7,0-1.5,0-2,0s-1,0-1.7,0v-0.3
		c0.5,0,0.7,0,0.8,0s0.2-0.1,0.2-0.1c0.1-0.1,0.1-0.2,0.1-0.4c0-0.1,0-0.5,0-1.2V100c-1.2,0-2.1,0-2.6,0c-0.7,0-1.5,0-2.4,0v0.9
		c0,0.4,0,0.7,0,1c0,0.3,0,0.4,0.1,0.5c0.1,0.1,0.1,0.1,0.2,0.1c0.1,0,0.4,0,0.8,0v0.4c-0.6,0-1,0-1.7,0s-1.3,0-1.9,0v-0.3
		c0.5,0,0.7,0,0.8,0c0.1,0,0.2-0.1,0.2-0.1c0-0.1,0.1-0.2,0.1-0.4c0-0.1,0-0.5,0-1.2v-2c0-0.4,0-0.7,0-1.2c0-0.3,0-0.4-0.1-0.5
		c0-0.1-0.1-0.1-0.2-0.1C65.6,97.4,65.3,97.4,64.8,97.3z"/>
	<path fill="#445156" d="M80,99.8c0,0.3,0,0.6,0.1,0.7c0.1,0.3,0.2,0.5,0.3,0.7c0.2,0.3,0.5,0.6,0.7,0.8c0.3,0.2,0.7,0.4,1,0.5
		c0.4,0.1,0.7,0.2,1.3,0.2c0.7,0,1.3-0.1,1.8-0.3s0.8-0.5,1-0.9c0.2-0.4,0.4-0.8,0.4-1.4s-0.1-0.8-0.3-1.3c-0.1-0.2-0.3-0.5-0.4-0.6
		c-0.2-0.2-0.4-0.4-0.6-0.5c-0.2-0.1-0.6-0.3-0.9-0.4c-0.4-0.1-0.7-0.1-1.2-0.1c-0.7,0-1.3,0.1-1.8,0.3c-0.5,0.2-0.8,0.5-1,0.8
		C80.1,98.9,80,99.3,80,99.8z M78.8,100.2c0-0.5,0.1-0.8,0.3-1.3c0.2-0.4,0.5-0.7,0.9-0.9c0.5-0.3,0.9-0.5,1.6-0.7s1.2-0.2,2-0.2
		c0.7,0,1.3,0.1,1.9,0.2c0.6,0.1,0.9,0.3,1.4,0.5s0.7,0.5,0.8,0.7s0.3,0.4,0.4,0.7s0.1,0.6,0.1,0.8c0,0.9-0.5,1.8-1.4,2.3
		c-0.8,0.6-2.1,0.9-3.6,0.9c-0.7,0-1.3-0.1-1.8-0.2c-0.6-0.1-1-0.4-1.4-0.7c-0.4-0.3-0.7-0.6-0.8-1C78.9,101,78.8,100.6,78.8,100.2z
		"/>
	<path fill="#445156" d="M92.1,97.3V97c0.4,0,0.8,0,1.3,0c0.4,0,0.7,0,1.2,0c0.4,0.6,0.7,1,0.9,1.5l2.3,3.4l2.1-3
		c0.6-0.7,0.9-1.4,1.2-1.8c0.4,0,0.7,0,1,0s0.7,0,1.4,0v0.2c-0.5,0-0.7,0-0.8,0s-0.2,0.1-0.2,0.1c-0.1,0.1-0.1,0.2-0.1,0.4
		c0,0.1,0,0.5,0,1.2v2c0,0.4,0,0.7,0,1s0,0.4,0.1,0.5c0.1,0.1,0.1,0.1,0.2,0.1s0.4,0,0.8,0v0.4c-0.7,0-1.4,0-1.8,0
		c-0.3,0-0.8,0-1.9,0v-0.3c0.5,0,0.7,0,0.8,0s0.2-0.1,0.2-0.1c0.1-0.1,0.1-0.2,0.1-0.4c0-0.1,0-0.5,0-1.2v-3.1l-2.2,3
		c-0.3,0.5-0.6,0.8-0.7,1.2c-0.1,0.2-0.4,0.6-0.6,0.9h-0.2c-0.1-0.1-0.1-0.2-0.2-0.3l-0.4-0.6L93.9,98v2.9c0,0.4,0,0.7,0,1
		c0,0.3,0,0.4,0.1,0.5c0.1,0.1,0.1,0.1,0.2,0.1c0.1,0,0.4,0,0.8,0v0.3h-1.5H92v-0.3c0.5,0,0.7,0,0.8,0c0.1,0,0.2-0.1,0.2-0.1
		c0-0.1,0.1-0.2,0.1-0.4c0-0.1,0-0.5,0-1.2v-2c0-0.4,0-0.7,0-1.2c0-0.3,0-0.4-0.1-0.5c0-0.1-0.1-0.1-0.2-0.1
		C92.8,97.4,92.5,97.4,92.1,97.3z"/>
	<path fill="#445156" d="M107.7,103.1v-0.3c0.4,0,0.7,0,0.8-0.1c0.1,0,0.1,0,0.1-0.1s0.1-0.2,0.1-0.5c0-0.4,0-0.7,0-0.9v-2.2
		c0-0.4,0-0.7,0-1.2c0-0.3,0-0.4-0.1-0.5c0-0.1-0.1-0.1-0.2-0.1c-0.1,0-0.4,0-0.8,0V97h1.8h1.9c0.8,0,1.6,0,2,0s0.7,0,1.2,0
		c-0.1,0.2-0.1,0.3-0.1,0.4c0,0,0,0.3-0.1,0.8h-0.4c0-0.3,0-0.6-0.1-0.7c-0.2-0.1-0.5-0.1-0.7-0.1c-0.5,0-0.8-0.1-1.4-0.1
		c-0.1,0-0.3,0-0.7,0c-0.3,0-0.6,0-0.7,0c0,0.3,0,0.6,0,0.8v1.5c0.5,0,0.8,0,1.4,0c0.6,0,0.8,0,1.3,0c0.1,0,0.2,0,0.3-0.1
		c0,0,0.1-0.2,0.1-0.4v-0.3h0.4V99v0.8v0.9h-0.4v-0.3c0-0.2,0-0.3-0.1-0.4c0-0.1-0.1-0.1-0.3-0.1c-0.2,0-0.7-0.1-1.4-0.1
		c-0.3,0-0.7,0-1.2,0c0,0.3,0,0.7,0,1.3c0,0.5,0,0.8,0,1.2c0.6,0,1.3,0,2,0c0.5,0,0.8,0,1,0c0.2,0,0.4-0.1,0.6-0.1
		c0-0.1,0.1-0.2,0.2-0.4c0.1-0.3,0.2-0.5,0.2-0.6h0.4c-0.1,0.6-0.2,1-0.2,1.5c-0.4,0-0.7,0.1-1.3,0.1h-3.7
		C109.3,103.1,108.7,103.1,107.7,103.1z"/>
	<path fill="#445156" d="M127,97.3V97c0.6,0,1.2,0,1.6,0c0.3,0,0.8,0,1.7,0c0.7,0,1.4,0,1.6,0c0.3,0,0.6,0,0.7,0c0.3,0,0.5,0,0.7,0
		c-0.1,0.2-0.2,0.7-0.2,1.3h-0.3c0-0.3-0.1-0.6-0.2-0.7c-0.2-0.1-0.5-0.1-0.7-0.1c-0.3,0-0.7,0-1,0s-0.8,0-1.3,0.1
		c0,0.2,0,0.3,0,0.4c0,0.1,0,0.4,0,0.9v0.9c0.5,0,0.8,0,1.2,0c0.5,0,0.9,0,1.3-0.1c0.1,0,0.2,0,0.2-0.1c0,0,0.1-0.2,0.1-0.4l0.1-0.3
		h0.4v0.9v1.1h-0.4v-0.3c0-0.3-0.1-0.5-0.1-0.5s-0.1-0.1-0.2-0.1c-0.2,0-0.7-0.1-1.6-0.1c-0.3,0-0.6,0-0.8,0v0.8c0,0.4,0,0.7,0,1
		s0,0.4,0.1,0.5c0,0.1,0.1,0.1,0.2,0.1c0.1,0,0.4,0,0.8,0v0.4c-0.5,0-1,0-1.6,0c-0.6,0-1.2,0-2.1,0v-0.3c0.5,0,0.7,0,0.8,0
		s0.2-0.1,0.2-0.1c0-0.1,0.1-0.2,0.1-0.4c0-0.1,0-0.5,0-1.2v-2c0-0.4,0-0.7,0-1.2c0-0.3,0-0.4-0.1-0.5c0-0.1-0.1-0.1-0.2-0.1
		C127.8,97.4,127.5,97.4,127,97.3z"/>
	<path fill="#445156" d="M137.4,97.3V97c0.7,0,1.3,0,1.9,0c0.6,0,1.2,0,1.8,0v0.3c-0.5,0-0.7,0-0.8,0c-0.1,0-0.2,0.1-0.2,0.1
		c-0.1,0.1-0.1,0.2-0.1,0.4c0,0.1,0,0.5,0,1.2v1.6c0,0.6,0.1,0.9,0.2,1.2c0.1,0.2,0.3,0.4,0.6,0.5c0.2,0.1,0.4,0.2,0.7,0.2
		c0.3,0.1,0.7,0.1,1,0.1c0.5,0,0.8,0,1.3-0.1c0.4-0.1,0.6-0.2,0.7-0.3c0.2-0.1,0.3-0.2,0.4-0.4c0.1-0.1,0.2-0.3,0.2-0.6
		c0-0.2,0.1-0.6,0.1-0.8v-1.3c0-0.4,0-0.7,0-1.2c0-0.3,0-0.4-0.1-0.5c0-0.1-0.1-0.1-0.2-0.1c-0.1,0-0.4,0-0.8,0V97
		c0.7,0,1.2,0,1.5,0s0.7,0,1.6,0v0.3c-0.5,0-0.7,0-0.8,0c-0.1,0-0.2,0.1-0.2,0.1c-0.1,0.1-0.1,0.2-0.1,0.4c0,0.1,0,0.5,0,1.2v1.5
		c0,0.7-0.1,1.2-0.2,1.5c-0.1,0.3-0.4,0.5-0.7,0.7c-0.3,0.2-0.7,0.3-1,0.4c-0.5,0.1-0.9,0.1-1.5,0.1s-1.2,0-1.7-0.2
		c-0.5-0.1-0.7-0.2-1-0.4c-0.2-0.2-0.4-0.4-0.5-0.5c-0.1-0.2-0.2-0.6-0.2-1.2V99c0-0.4,0-0.7,0-1.2c0-0.3,0-0.4-0.1-0.5
		c0-0.1-0.1-0.1-0.2-0.1C138.2,97.4,137.9,97.4,137.4,97.3z"/>
	<path fill="#445156" d="M150.8,97.3V97c0.2,0,0.4,0,0.7,0h1.2c0.2,0,0.6,0,1,0c0.7,0,0.9,0,1,0c0.7,0,1.4,0,1.7,0.1
		c0.4,0.1,0.7,0.3,0.8,0.5c0.2,0.2,0.3,0.5,0.3,0.7c0,0.2-0.1,0.5-0.3,0.7c-0.2,0.2-0.5,0.4-0.7,0.6c-0.4,0.2-0.7,0.3-1.4,0.4
		c0.1,0.1,0.3,0.3,0.7,0.7l1.6,1.4c0.5,0.4,0.7,0.6,0.7,0.7h0.1c0.1,0,0.2,0,0.4,0v0.3c-0.3,0-0.6,0-0.7,0s-0.6,0-0.8,0
		c-0.3-0.2-0.7-0.6-1.4-1.3c-0.4-0.3-0.7-0.6-0.8-0.8c-0.4-0.4-0.8-0.7-1.3-1l0.1-0.1c0.2,0,0.4,0,0.5,0c0.7,0,1.3-0.1,1.7-0.4
		c0.4-0.2,0.6-0.6,0.6-0.9c0-0.4-0.2-0.6-0.5-0.7c-0.3-0.2-0.8-0.3-1.5-0.3c-0.4,0-0.8,0-1.3,0.1c0,0.2,0,0.3,0,0.4c0,0,0,0.5,0,1.3
		v1.9c0,0.4,0,0.7,0,1c0,0.3,0,0.4,0.1,0.5c0,0.1,0.1,0.1,0.2,0.1c0.1,0,0.4,0,0.8,0v0.3c-0.6,0-1,0-1.6,0c-0.4,0-1,0-2,0v-0.3
		c0.5,0,0.7,0,0.8,0c0.1,0,0.2-0.1,0.2-0.1c0-0.1,0.1-0.2,0.1-0.4c0-0.1,0-0.5,0-1.2v-2c0-0.4,0-0.7,0-1.2c0-0.3,0-0.4-0.1-0.5
		c0-0.1-0.1-0.1-0.2-0.1C151.5,97.4,151.2,97.4,150.8,97.3z"/>
	<path fill="#445156" d="M162.7,103.1v-0.3c0.4,0,0.7,0,0.8-0.1c0.1,0,0.1,0,0.1-0.1s0.1-0.2,0.1-0.5c0-0.4,0-0.7,0-0.9v-3.5
		c0-0.1,0-0.2,0-0.2c0-0.1-0.1-0.1-0.2-0.2c-0.1,0-0.2-0.1-0.3-0.1c-0.1,0-0.3,0-0.7,0V97c0.7,0,1,0,1.3,0c0.3,0,0.6,0,0.8,0
		c0.4,0.3,0.6,0.6,0.7,0.7l1.3,1l1.9,1.6c0.6,0.5,1,0.8,1.5,1.2c0.2,0.2,0.4,0.3,0.6,0.5v-3.1c0-0.3,0-0.6,0-0.9
		c0-0.2,0-0.4-0.1-0.4l-0.1-0.1c-0.1,0-0.4-0.1-0.8-0.1v-0.3c0.5,0,0.9,0,1.5,0c0.6,0,0.8,0,1.3,0v0.2c-0.4,0-0.7,0-0.8,0.1
		c-0.1,0-0.1,0-0.1,0.1s-0.1,0.2-0.1,0.5c0,0.4,0,0.7,0,0.9v2.2c0,0.4,0,1.2,0,2.3l-0.7-0.1h-0.1c0,0,0,0-0.1,0c0,0-0.1-0.1-0.2-0.2
		c-0.3-0.3-0.6-0.5-0.7-0.6l-0.7-0.7l-4.4-3.6v3.2c0,0.3,0,0.6,0,0.9c0,0.2,0,0.4,0.1,0.4l-0.2,0.2c0.1,0,0.4,0.1,0.8,0.1v0.3
		c-0.4,0-0.7,0-1.2,0C163.9,103.1,163.4,103.1,162.7,103.1z"/>
	<path fill="#445156" d="M180.2,102.9v0.3c-0.8,0-1.5,0-1.8,0h-1.9v-0.3c0.5,0,0.7,0,0.8,0c0.1,0,0.2-0.1,0.2-0.1
		c0.1-0.1,0.1-0.2,0.1-0.4c0-0.1,0-0.5,0-1.2v-2c0-0.4,0-0.7,0-1.2c0-0.3,0-0.4-0.1-0.5c0-0.1-0.1-0.1-0.2-0.1s-0.4,0-0.8,0v-0.3
		c0.7,0,1.4,0,1.9,0c0.4,0,0.9,0,1.8,0v0.1c-0.5,0-0.7,0-0.8,0s-0.2,0.1-0.2,0.1c0,0.1-0.1,0.2-0.1,0.4c0,0.1,0,0.5,0,1.2v2
		c0,0.4,0,0.7,0,1s0,0.4,0.1,0.5c0,0.1,0.1,0.1,0.2,0.1C179.5,102.8,179.8,102.8,180.2,102.9z"/>
	<path fill="#445156" d="M184.4,102.9c0.1-0.3,0.1-0.7,0.1-1.3h0.4c0,0.4,0.1,0.7,0.1,0.7c0.1,0.1,0.2,0.2,0.4,0.2
		c0.2,0.1,0.4,0.2,0.7,0.2c0.3,0.1,0.6,0.1,0.8,0.1c0.4,0,0.7-0.1,1.2-0.2c0.4-0.1,0.6-0.3,0.7-0.5s0.2-0.5,0.2-0.7s0-0.4-0.1-0.5
		c-0.1-0.1-0.2-0.2-0.4-0.3s-0.4-0.1-0.6-0.2c-0.2,0-0.5,0-0.8-0.1c-0.5,0-0.8-0.1-1.2-0.1c-0.4-0.1-0.7-0.2-0.9-0.3
		c-0.2-0.1-0.4-0.3-0.5-0.5c-0.1-0.2-0.2-0.4-0.2-0.7c0-0.3,0.1-0.7,0.4-0.9c0.3-0.3,0.6-0.5,1-0.7s1-0.3,1.6-0.3
		c0.4,0,0.7,0,1.2,0.1c0.4,0.1,0.7,0.2,1.2,0.3c-0.1,0.2-0.1,0.4-0.1,0.5c0,0.2,0,0.4-0.1,0.7h-0.4c0-0.4,0-0.7-0.1-0.7
		c-0.1-0.1-0.2-0.2-0.4-0.3c-0.4-0.2-0.8-0.3-1.4-0.3c-0.6,0-1,0.1-1.5,0.4c-0.4,0.3-0.5,0.6-0.5,0.9c0,0.2,0.1,0.4,0.2,0.6
		c0.1,0.1,0.4,0.2,0.7,0.3c0.2,0.1,0.6,0.1,1,0.2c0.5,0,0.9,0.1,1.4,0.2c0.4,0.1,0.7,0.2,0.8,0.3s0.3,0.3,0.5,0.4
		c0.1,0.2,0.2,0.4,0.2,0.6c0,0.6-0.3,1-0.9,1.5c-0.7,0.4-1.6,0.6-2.6,0.6C185.8,103.3,185.2,103.1,184.4,102.9z"/>
	<path fill="#445156" d="M194.5,97.3V97h1.9h1.8v0.3c-0.5,0-0.7,0-0.8,0c-0.1,0-0.2,0.1-0.2,0.1c-0.1,0.1-0.1,0.2-0.1,0.4
		c0,0.1,0,0.5,0,1.2v0.6c0.7,0,1.8,0,2.9,0c0.8,0,1.6,0,2.1,0V99c0-0.4,0-0.7,0-1.2c0-0.3,0-0.4-0.1-0.5c0-0.1-0.1-0.1-0.2-0.1
		c-0.1,0-0.4,0-0.8,0v-0.3c0.8,0,1.5,0,1.9,0c0.1,0,0.7,0,1.8,0v0.4c-0.5,0-0.7,0-0.8,0s-0.2,0.1-0.2,0.1c-0.1,0.1-0.1,0.2-0.1,0.4
		c0,0.1,0,0.5,0,1.2v2c0,0.4,0,0.7,0,1s0,0.4,0.1,0.5c0,0.1,0.1,0.1,0.2,0.1c0.1,0,0.4,0,0.8,0v0.4c-0.7,0-1.5,0-2,0s-1,0-1.7,0
		v-0.3c0.5,0,0.7,0,0.8,0s0.2-0.1,0.2-0.1c0.1-0.1,0.1-0.2,0.1-0.4c0-0.1,0-0.5,0-1.2V100c-1.2,0-2.1,0-2.6,0c-0.7,0-1.5,0-2.4,0
		v0.9c0,0.4,0,0.7,0,1c0,0.3,0,0.4,0.1,0.5c0.1,0.1,0.1,0.1,0.2,0.1s0.4,0,0.8,0v0.4c-0.6,0-1,0-1.7,0c-0.7,0-1.3,0-2,0v-0.3
		c0.5,0,0.7,0,0.8,0c0.1,0,0.2-0.1,0.2-0.1c0-0.1,0.1-0.2,0.1-0.4c0-0.1,0-0.5,0-1.2v-2c0-0.4,0-0.7,0-1.2c0-0.3,0-0.4-0.1-0.5
		c0-0.1-0.1-0.1-0.2-0.1C195.3,97.4,195,97.4,194.5,97.3z"/>
	<path fill="#445156" d="M212.1,102.9v0.3c-0.8,0-1.5,0-1.8,0h-1.9v-0.3c0.5,0,0.7,0,0.8,0s0.2-0.1,0.2-0.1c0-0.1,0.1-0.2,0.1-0.4
		c0-0.1,0-0.5,0-1.2v-2c0-0.4,0-0.7,0-1.2c0-0.3,0-0.4-0.1-0.5c0-0.1-0.1-0.1-0.2-0.1c-0.1,0-0.4,0-0.8,0v-0.3c0.7,0,1.4,0,1.9,0
		c0.4,0,0.9,0,1.8,0v0.1c-0.5,0-0.7,0-0.8,0s-0.2,0.1-0.2,0.1c-0.1,0.1-0.1,0.2-0.1,0.4c0,0.1,0,0.5,0,1.2v2c0,0.4,0,0.7,0,1
		s0,0.4,0.1,0.5c0,0.1,0.1,0.1,0.2,0.1C211.4,102.8,211.6,102.8,212.1,102.9z"/>
	<path fill="#445156" d="M216.3,103.1v-0.3c0.4,0,0.7,0,0.8-0.1c0.1,0,0.1,0,0.1-0.1s0.1-0.2,0.1-0.5c0-0.4,0-0.7,0-0.9v-3.5
		c0-0.1,0-0.2,0-0.2c0-0.1-0.1-0.1-0.2-0.2c-0.1,0-0.2-0.1-0.3-0.1c-0.1,0-0.3,0-0.7,0V97c0.7,0,1,0,1.3,0c0.3,0,0.6,0,0.8,0
		c0.4,0.3,0.6,0.6,0.7,0.7l1.3,1l1.9,1.6c0.6,0.5,1,0.8,1.5,1.2c0.2,0.2,0.4,0.3,0.6,0.5v-3.1c0-0.3,0-0.6,0-0.9
		c0-0.2,0-0.4-0.1-0.4l-0.1-0.1c-0.1,0-0.4-0.1-0.8-0.1v-0.3c0.5,0,0.9,0,1.5,0c0.6,0,0.8,0,1.3,0v0.2c-0.4,0-0.7,0-0.8,0.1
		c-0.1,0-0.1,0-0.1,0.1s-0.1,0.2-0.1,0.5c0,0.4,0,0.7,0,0.9v2.2c0,0.4,0,1.2,0,2.3l-0.7-0.1h-0.2c0,0,0,0-0.1,0c0,0-0.1-0.1-0.2-0.2
		c-0.3-0.3-0.6-0.5-0.7-0.6l-0.7-0.7l-4.4-3.6v3.2c0,0.3,0,0.6,0,0.9c0,0.2,0,0.4,0.1,0.4l0.1,0.1c0.1,0,0.4,0.1,0.8,0.1v0.3
		c-0.4,0-0.7,0-1.2,0C217.3,103.1,216.8,103.1,216.3,103.1z"/>
	<path fill="#445156" d="M238.6,102.8c-0.6,0.2-1.2,0.3-1.6,0.3c-0.7,0.1-1.4,0.1-2,0.1c-0.9,0-1.8-0.1-2.5-0.4
		c-0.7-0.3-1.3-0.6-1.7-1c-0.4-0.5-0.6-0.9-0.6-1.7c0-0.6,0.1-0.9,0.4-1.4c0.3-0.4,0.7-0.7,1-0.9c0.4-0.3,0.8-0.4,1.3-0.6
		c0.7-0.2,1.5-0.3,2.4-0.3c0.5,0,0.9,0,1.5,0.1c0.5,0.1,1,0.2,1.7,0.3c-0.1,0.1-0.1,0.3-0.1,0.4s-0.1,0.4-0.1,0.8H238v-0.5
		c0-0.1,0-0.1,0-0.2c0,0,0-0.1-0.1-0.2c-0.1-0.1-0.3-0.2-0.5-0.3c-0.4-0.1-0.7-0.2-1-0.2c-0.3,0-0.6-0.1-0.9-0.1
		c-0.7,0-1.5,0.1-2.1,0.4c-0.6,0.2-0.9,0.6-1.3,0.9c-0.4,0.4-0.4,0.8-0.4,1.4s0.2,1,0.5,1.5c0.4,0.5,0.7,0.7,1.4,0.9
		c0.6,0.2,1.3,0.4,2.1,0.4c0.4,0,0.7,0,1-0.1c0.3,0,0.6-0.1,0.8-0.2c0-0.1,0.1-0.3,0.1-0.6v-0.5c0-0.3,0-0.4-0.1-0.4
		c0,0-0.1-0.1-0.3-0.1s-0.5,0-1-0.1v-0.3h2c0.4,0,0.7,0,1.2,0v0.2l-0.5,0.2c0,0.3-0.1,0.6-0.1,0.8
		C238.6,102.3,238.6,102.5,238.6,102.8z"/>
	<path fill="#445156" d="M243.2,102.9c0.1-0.3,0.1-0.7,0.1-1.3h0.4c0,0.4,0.1,0.7,0.1,0.7s0.2,0.2,0.4,0.2c0.2,0.1,0.4,0.2,0.7,0.2
		c0.3,0.1,0.6,0.1,0.8,0.1c0.4,0,0.7-0.1,1.2-0.2c0.4-0.1,0.6-0.3,0.7-0.5c0.2-0.2,0.2-0.5,0.2-0.7s0-0.4-0.1-0.5
		c-0.1-0.1-0.2-0.2-0.4-0.3c-0.2-0.1-0.4-0.1-0.6-0.2c-0.2,0-0.5,0-0.8-0.1c-0.5,0-0.8-0.1-1.2-0.1c-0.4-0.1-0.7-0.2-0.9-0.3
		c-0.2-0.1-0.4-0.3-0.5-0.5c-0.1-0.2-0.2-0.4-0.2-0.7c0-0.3,0.1-0.7,0.4-0.9c0.3-0.3,0.6-0.5,1-0.7s1-0.3,1.6-0.3
		c0.4,0,0.7,0,1.2,0.1c0.4,0.1,0.7,0.2,1.2,0.3c-0.1,0.2-0.1,0.4-0.1,0.5c0,0.2,0,0.4-0.1,0.7h-0.3c0-0.4,0-0.7-0.1-0.7
		c-0.1-0.1-0.2-0.2-0.4-0.3c-0.4-0.2-0.8-0.3-1.4-0.3c-0.6,0-1,0.1-1.5,0.4c-0.4,0.3-0.5,0.6-0.5,0.9c0,0.2,0.1,0.4,0.2,0.6
		c0.1,0.1,0.4,0.2,0.7,0.3c0.2,0.1,0.6,0.1,1,0.2c0.5,0,0.9,0.1,1.4,0.2c0.4,0.1,0.7,0.2,0.8,0.3c0.2,0.1,0.3,0.3,0.5,0.4
		c0.1,0.2,0.2,0.4,0.2,0.6c0,0.6-0.3,1-0.9,1.5c-0.7,0.5-1.6,0.6-2.6,0.6C244.7,103.3,243.9,103.1,243.2,102.9z"/>
	<rect x="66.2" y="88.1" fill="#445156" width="99.7" height="0.6"/>
	<rect x="170.5" y="88.1" fill="#445156" width="78.1" height="0.6"/>
	<path fill="#445156" d="M23.3,89.4c0.1-0.7,0.4-1.5,1.2-2.3c1.2-1.4,5.1-2.4,8.7-0.3v2.8c-0.4-0.4-1-0.9-1.6-1.3
		c-1.9-1.2-5-1.6-6.5,0c-0.4,0.4-0.7,0.9-0.7,1.4C24.2,90.1,23.2,89.8,23.3,89.4z"/>
	<path fill="#445156" d="M36.6,91.3c0.1,0.8-0.5,3-2.8,3.2c-0.3,0-0.5,0-0.7-0.1c0.8-0.5,0.9-1.4,1-2.9c0,0,0-18.1,0-19
		c-0.1-3.6,2.2-3.7,2.5-3.7C36.6,68.8,36.6,85.7,36.6,91.3z"/>
	<path fill="#445156" d="M40.9,80.9c-0.5,0-0.8-0.3-0.8-0.7s0.3-0.7,0.7-0.7c2.1,0,2.9-1.4,3-3c0.1-1.9-1.6-3.8-3.8-4
		c-13.6-1.2-15.7,21.5-27,21.5c-2.4,0-6.2-1.4-5.2-5.5c0.1-0.6,1.2-0.4,1.3,0c0,0.2,0,0.7,0.1,0.9c0.3,3,3.9,2.9,6.6,1.5
		c7.5-4,10.4-20.5,22.8-20.5c0.7,0,4.7,0.2,6.5,3.2c0.7,1.3,0.9,3.6-0.1,5C43.8,80.2,42.4,80.9,40.9,80.9z"/>
	<path fill="#445156" d="M27.8,64.6h-0.8C11.9,64.6,0,73.3,0,83.7s11.9,19.1,26.9,19.1h0.8c15.1,0,27-8.7,27-19.1
		C54.9,73.3,42.8,64.6,27.8,64.6z M27.8,101H27c-13.9,0-25.2-7.8-25.2-17.4S13.1,66.3,27,66.3h0.7c13.9,0,25.3,7.9,25.3,17.4
		C53.1,93.3,41.8,101,27.8,101z"/>
</g>
</svg>
