<?xml version="1.0" encoding="UTF-8"?>
<svg width="18px" height="18px" viewBox="0 0 18 18" xmlns="http://www.w3.org/2000/svg" xmlns:xlink="http://www.w3.org/1999/xlink">
                                        <g id="icon_mail" stroke="none" stroke-width="1" fill="none"
                                           fill-rule="evenodd">
                                            <g id="mail_outline">
                                                <polygon id="Shape" points="0 0 18 0 18 18 0 18"></polygon>
                                                <path style="fill: gray"
                                                      d="M15,3 L3,3 C2.175,3 1.5075,3.675 1.5075,4.5 L1.5,13.5 C1.5,14.325 2.175,15 3,15 L15,15 C15.825,15 16.5,14.325 16.5,13.5 L16.5,4.5 C16.5,3.675 15.825,3 15,3 L15,3 Z M15,13.5 L3,13.5 L3,6 L9,9.75 L15,6 L15,13.5 L15,13.5 Z M9,8.25 L3,4.5 L15,4.5 L9,8.25 L9,8.25 Z"
                                                      id="Shape" fill="#996C49"></path>
                                            </g>
                                        </g>
                                    </svg>