<svg aria-labelledby="svg-profile" role="img" width="21px" height="25px" viewBox="0 0 32 35" version="1.1" xmlns="http://www.w3.org/2000/svg" xmlns:xlink="http://www.w3.org/1999/xlink">
    <title id="svg-profile">Your Account</title>
    <g id="Symbols" stroke="none" stroke-width="1" fill="none" fill-rule="evenodd">
        <g id="Nav---Black" transform="translate(-1148.000000, -10.000000)" fill="#111111" fill-rule="nonzero">
            <g id="Icons" transform="translate(1148.353846, 9.000000)">
                <g id="HNY-web-Profile" transform="translate(0.000000, 1.000000)">
                    <path d="M15.6461538,15.5076923 C11.3638229,15.5076923 7.89230769,12.0361771 7.89230769,7.75384615 C7.89230769,3.47151517 11.3638229,0 15.6461538,0 C19.9284848,0 23.4,3.47151517 23.4,7.75384615 C23.4,9.81029401 22.5830793,11.7825151 21.128951,13.2366433 C19.6748228,14.6907716 17.7026017,15.5076923 15.6461538,15.5076923 Z M15.6461538,1.66153846 C12.2814652,1.66153846 9.55384615,4.38915752 9.55384615,7.75384615 C9.55384615,11.1185348 12.2814652,13.8461538 15.6461538,13.8461538 C19.0108425,13.8461538 21.7384615,11.1185348 21.7384615,7.75384615 C21.7384615,6.13806569 21.0965952,4.58846339 19.9540659,3.44593407 C18.8115366,2.30340475 17.2619343,1.66153846 15.6461538,1.66153846 Z" id="Shape"></path>
                    <path d="M31.2923077,34.2775385 L0,34.2775385 L0,33.4467692 C0,24.8056371 7.00502168,17.8006154 15.6461538,17.8006154 C24.287286,17.8006154 31.2923077,24.8056371 31.2923077,33.4467692 L31.2923077,34.2775385 Z M1.68646154,32.616 L29.6058462,32.616 C29.1642843,25.2298193 23.0455216,19.4659253 15.6461538,19.4659253 C8.24678612,19.4659253 2.12802344,25.2298193 1.68646154,32.616 Z" id="Shape"></path>
                </g>
            </g>
        </g>
    </g>
</svg>