<?xml version="1.0" encoding="utf-8"?>
<!-- Generator: Adobe Illustrator 18.0.0, SVG Export Plug-In . SVG Version: 6.00 Build 0)  -->
<!DOCTYPE svg PUBLIC "-//W3C//DTD SVG 1.1//EN" "http://www.w3.org/Graphics/SVG/1.1/DTD/svg11.dtd">
<svg version="1.1" id="Layer_1" xmlns="http://www.w3.org/2000/svg" xmlns:xlink="http://www.w3.org/1999/xlink" x="0px" y="0px"
	 width="700px" height="775.6px" viewBox="0 0 700 775.6" enable-background="new 0 0 700 775.6" xml:space="preserve">
<rect x="-0.8" y="0.3" fill="#EDEDED" width="701.6" height="775"/>
<line fill="#FFFFFF" stroke="#464545" stroke-width="3" x1="700.8" y1="740.5" x2="-0.8" y2="740.5"/>
<g>
	<rect x="393.5" y="143" fill="#FFFFFF" stroke="#464545" stroke-width="3" width="280.2" height="389"/>
	<rect x="416.6" y="166.1" fill="none" stroke="#464545" stroke-width="3" width="234" height="342.8"/>
</g>
<g>
	<rect x="324" y="64.8" fill="#FFFFFF" stroke="#464545" stroke-width="1.612" width="362" height="13"/>
</g>
<rect x="675" y="62.8" fill="#FFFFFF" stroke="#464545" stroke-width="1.5" width="24" height="17"/>
<rect x="300.3" y="62.8" fill="#FFFFFF" stroke="#464545" stroke-width="1.5" width="24" height="17"/>
<g opacity="0.8">
	<path fill="#DADADA" stroke="#706F6F" stroke-width="0.9532" stroke-miterlimit="10" d="M493.7,751.6c0,0-7.7,8.2-15.6,8.3
		c-7.9,0.1-14.6-7.3-14.6-7.3V83c0,0,4.9,0,15.1,0c10.2,0,15.1,0,15.1,0V751.6z"/>
	<path fill="#DADADA" stroke="#706F6F" stroke-width="0.9525" stroke-miterlimit="10" d="M463.5,752.6c-6.8-2.7-10.4,1-10.4,1
		s-4.5,6.3-10.9,6.3c-8,0-13.2-7.3-13.2-7.3V83h34.5V752.6z"/>
	<path fill="#DADADA" stroke="#706F6F" stroke-width="0.9525" stroke-miterlimit="10" d="M429,752.6c-6.8-2.7-10.4,1-10.4,1
		s-4.5,6.3-10.9,6.3c-8,0-13.2-7.3-13.2-7.3V83H429V752.6z"/>
	<path fill="#DADADA" stroke="#706F6F" stroke-width="0.9525" stroke-miterlimit="10" d="M394.5,752.6c-6.8-2.7-10.4,1-10.4,1
		s-4.5,6.3-10.9,6.3c-8,0-13.2-7.3-13.2-7.3V83h34.5V752.6z"/>
	<path fill="#DADADA" stroke="#706F6F" stroke-width="0.9532" stroke-miterlimit="10" d="M523.5,751.6c0,0-7.7,8.2-15.6,8.3
		c-7.9,0.1-14.6-7.3-14.6-7.3V83c0,0,4.9,0,15.1,0s15.1,0,15.1,0V751.6z"/>
	<path fill="#DADADA" stroke="#706F6F" stroke-width="0.9532" stroke-miterlimit="10" d="M553.7,751.6c0,0-7.7,8.2-15.6,8.3
		c-7.9,0.1-14.6-7.3-14.6-7.3V83c0,0,4.9,0,15.1,0c10.2,0,15.1,0,15.1,0V751.6z"/>
	<path fill="#DADADA" stroke="#706F6F" stroke-width="0.9532" stroke-miterlimit="10" d="M583.9,751.6c0,0-7.7,8.2-15.6,8.3
		c-7.9,0.1-14.6-7.3-14.6-7.3V83c0,0,4.9,0,15.1,0c10.2,0,15.1,0,15.1,0V751.6z"/>
	<path fill="#DADADA" stroke="#706F6F" stroke-width="0.9532" stroke-miterlimit="10" d="M614.1,751.6c0,0-7.7,8.2-15.6,8.3
		c-7.9,0.1-14.6-7.3-14.6-7.3V83c0,0,4.9,0,15.1,0c10.2,0,15.1,0,15.1,0V751.6z"/>
	<path fill="#DADADA" stroke="#706F6F" stroke-width="0.9532" stroke-miterlimit="10" d="M644.3,751.6c0,0-7.7,8.2-15.6,8.3
		c-7.9,0.1-14.6-7.3-14.6-7.3V83c0,0,4.9,0,15.1,0s15.1,0,15.1,0V751.6z"/>
	<path fill="#DADADA" stroke="#706F6F" stroke-width="0.9532" stroke-miterlimit="10" d="M674.5,751.6c0,0-7.7,8.2-15.6,8.3
		c-7.9,0.1-14.6-7.3-14.6-7.3V83c0,0,4.9,0,15.1,0s15.1,0,15.1,0V751.6z"/>
	<path fill="#DADADA" stroke="#706F6F" stroke-width="0.9525" stroke-miterlimit="10" d="M360,752.6c-6.8-2.7-10.4,1-10.4,1
		s-4.5,6.3-10.9,6.3c-8,0-13.2-7.3-13.2-7.3V83H360V752.6z"/>
</g>
</svg>
