<svg width="79" height="79" xmlns="http://www.w3.org/2000/svg"><g fill="none" fill-rule="evenodd"><g fill-rule="nonzero"><path fill="#7D8288" d="M63.851 7.916L7.388 7.799l.141 56.762 56.397-.045z"/><path d="M35.976 7.247a.59.59 0 00-.59-.59H35.2a.59.59 0 00-.59.59v.742h1.371l-.005-.742zm19.442 0a.59.59 0 00-.59-.59h-.192a.59.59 0 00-.59.59v.742h1.372v-.742zm-12.866 0a.59.59 0 00-.59-.59h-.192a.59.59 0 00-.59.59v.742h1.372v-.742zm19.441 0a.59.59 0 00-.59-.59h-.191a.59.59 0 00-.59.59v.742h1.371v-.742zm-13.151 0a.59.59 0 00-.59-.59h-.191a.59.59 0 00-.59.59v.742h1.371v-.742zm-25.732 0a.59.59 0 00-.59-.59h-.191a.59.59 0 00-.59.59V7.7h1.371v-.453zm6.29 0a.59.59 0 00-.59-.59h-.191a.59.59 0 00-.59.59v.742H29.4v-.742zm-19.441 0a.59.59 0 00-.59-.59h-.192a.59.59 0 00-.59.59v.742h1.372v-.742zm6.575 0a.59.59 0 00-.59-.59h-.191a.59.59 0 00-.59.59V7.7h1.371v-.453z" fill="#4B5156"/><path fill="#4B5156" d="M7.272 7.704h56.693v1.14H7.272z"/><path d="M20.081 9.239L16.614 32.92l.186.14 5.058-24.001-1.777.18zM15.5 32.9L11.326 9.481C9.762 9.396 9.44 9.12 9.44 9.12l5.76 24.02.158-.08.142-.16z" fill="#C5C7CA"/><path d="M23.285 7.96c-3.276 1.535-7.323-.093-7.323-.093-3.407 1.845-7.655.068-7.655.068l6.584 25.724c-4.287 9.321-4.342 20.061-3.817 30.9h1.175c-.617-9.962-.86-20.512 2.88-29.061l.082-.372 1.017 3.974 1.074-3.9c.051.134.1.269.15.406 4.411 8.221 3.918 17.937 4.683 28.945h.954c-.551-16.4-.593-22.553-5.771-31L23.285 7.96zM15.2 33.14L9.553 9.249s3.26 1.21 5.641.606l.62 22.164.007.577-.621.544zm1.043-.519L16.7 9.8c.467.175 4.011.284 5.163-.739l-5.058 24-.562-.44z" fill="#4B5156"/><path d="M20.413 64.545h1.722c-.765-11.008-.272-20.724-4.683-28.945 3.08 8.545 3.004 26.155 2.961 28.945zM15.129 35.5c-3.74 8.549-3.5 19.1-2.88 29.061h1.1c-1.215-11.274.913-25.127 1.78-29.061zM39.656 9.239L36.189 32.92l.186.14 5.057-24.001-1.776.18zM35.072 32.9L30.9 9.481c-1.564-.085-1.885-.361-1.885-.361l5.759 24.02.158-.08.14-.16z" fill="#C5C7CA"/><path d="M42.681 7.944c-3.276 1.534-7.221-.077-7.221-.077-3.407 1.845-7.656.068-7.656.068l6.585 25.724C30.1 42.98 30.048 53.7 30.573 64.541h1.176c-.617-9.962-.863-20.5 2.877-29.049l.083-.372 1.016 3.98 1.074-3.9c.051.134.1.269.151.406 4.411 8.221 3.917 17.919 4.681 28.928h.956c-.551-16.4-.593-22.531-5.771-30.977l5.865-25.613zm-7.907 25.2L29.127 9.249s3.261 1.21 5.642.606l.62 22.164.007.577-.622.548zm1.044-.519L36.269 9.8c.467.175 4.012.284 5.163-.739l-5.057 24-.557-.436z" fill="#4B5156"/><path d="M39.91 64.541l1.71-.009c-.764-11.009-.259-20.711-4.67-28.932 3.08 8.545 3.002 26.151 2.96 28.941zM34.626 35.5c-3.74 8.549-3.494 19.087-2.877 29.049h1.091c-1.214-11.278.92-25.115 1.786-29.049zM59.04 9.239L55.573 32.92l.186.14 5.058-24.001-1.777.18zM54.456 32.9L50.285 9.481C48.721 9.4 48.4 9.12 48.4 9.12l5.76 24.02.158-.08.138-.16z" fill="#C5C7CA"/><path d="M62.04 7.911c-3.277 1.535-7.272-.044-7.272-.044-3.407 1.845-7.656.068-7.656.068L53.7 33.659c-4.29 9.321-4.346 20.025-3.82 30.862h1.175c-.617-9.961-.861-20.476 2.879-29.025l.083-.372 1.016 3.976 1.075-3.9.15.406c4.411 8.221 3.917 17.912 4.681 28.92l.956-.01C61.344 48.111 61.3 42 56.124 33.551l5.916-25.64zM54.159 33.14L48.512 9.249s3.26 1.21 5.641.606l.62 22.164.007.577-.621.544zm1.043-.519L55.654 9.8c.467.175 4.011.284 5.163-.739l-5.058 24-.557-.44z" fill="#4B5156"/><path d="M59.218 64.535l1.721-.015c-.764-11.008-.27-20.7-4.681-28.92 3.08 8.545 3.003 26.145 2.96 28.935zM53.934 35.5c-3.74 8.549-3.5 19.068-2.879 29.03h1.1c-1.215-11.274.913-25.096 1.779-29.03z" fill="#C5C7CA"/></g><path stroke="#D8D8D8" d="M.5.5h70v70H.5z"/></g></svg>