<svg width="79" height="79" xmlns="http://www.w3.org/2000/svg"><g fill="none" fill-rule="evenodd"><path d="M36.609 12.112l-1.073.009c.353.011.712.008 1.073-.009z"/><path d="M17.042 12.269h.02l-.021-1.659.001 1.659zm34.241-4.03a8.306 8.306 0 00-9.529.235c-4.029 3.14-10.085 1.3-11.673.322a10.641 10.641 0 00-5.218-1.618c-3.519-.229-4.03.91-7.823 1.667v1.381c3.406-.112 4.289-1.978 7.807-1.749a9.556 9.556 0 015.222 2.375c1.7.837 3.57 1.271 5.466 1.269l1.073-.009a8.937 8.937 0 005.145-1.688 7.35 7.35 0 019.43-.264c2.793.412 5.619.555 8.439.428V8.744a32.52 32.52 0 01-8.339-.505z" fill="#4B5156" fill-rule="nonzero"/><path d="M51.184 10.16a7.35 7.35 0 00-9.43.264 8.937 8.937 0 01-5.145 1.688c-.361.017-.72.02-1.073.009a12.337 12.337 0 01-5.466-1.269 9.556 9.556 0 00-5.222-2.375c-3.518-.229-4.4 1.637-7.807 1.749v.383l.021 1.659.558 51.978h42V10.683a45.125 45.125 0 01-8.436-.523z" fill="#9EA1A6" fill-rule="nonzero"/><path d="M23.212 8.534a6.785 6.785 0 00-2.41.715c-1.19.537-2.464.868-3.766.978l-.083 54.087 6.109-.067c.036-2.007.114-13.014.254-16.449.414-10.124-.104-39.264-.104-39.264zm19.448 1.24c-1.584 1.1-5.612 4.067-13.106.639 0 0-.179 27.46.724 53.834H42.6c.223-4.231.4-16.965.46-20.617.325-21.121-.4-33.856-.4-33.856zm8.575.386s-.163 15.755-.325 30.546c-.045 4.143.146 18.1.442 23.541h8.271V10.539a37.022 37.022 0 01-8.388-.379z" fill="#7D8288" fill-rule="nonzero"/><path fill="#4B5156" fill-rule="nonzero" d="M29.853 17.202h12.891v4.854H29.853z"/><path d="M20 22.045c.324.531.719.972 1.193.983.607.015.969-.382 1.31-.978L20 22.045zm10.654.008c.248.454.715.746 1.232.771.54 0 .828-.218 1.187-.765l-2.419-.006zm8.846-.012c.254.46.726.76 1.251.792a1.522 1.522 0 001.241-.792H39.5z" fill="#FFF" fill-rule="nonzero"/><path fill="#4B5156" fill-rule="nonzero" d="M51.132 17.202h12.774v4.854H51.132z"/><path d="M52.029 22.041c.254.46.726.76 1.251.792.54 0 .814-.271 1.184-.762l-2.435-.03z" fill="#FFF" fill-rule="nonzero"/><path d="M15.786 22.041h7.291l-.046-4.854h-7.078a.924.924 0 01-1.658 0 3.888 3.888 0 10-.352 4.848s.969-1.494 1.843.006z" fill="#4B5156" fill-rule="nonzero"/><path d="M21.306 24.3c1.368 0 2.477-2.013 2.477-4.495s-1.109-4.5-2.477-4.5c-.828 0-1.559.739-2.009 1.87h1.15a1.3 1.3 0 01.859-.407c.923 0 1.671 1.358 1.671 3.033 0 1.675-.768 3.232-1.691 3.232a1.655 1.655 0 01-1.269-1h-.859c.428 1.357 1.228 2.267 2.148 2.267zm10.58-9c-1.5 0-2.71 2.013-2.71 4.5s1.214 4.5 2.71 4.5c.995 0 1.862-.891 2.333-2.216H33.08a1.509 1.509 0 01-1.194.753c-1.009 0-1.828-1.358-1.828-3.033 0-1.675.819-3.032 1.828-3.032.357.015.694.173.934.438h1.28a2.661 2.661 0 00-2.214-1.91zm8.88 8.987c1.5 0 2.71-2.013 2.71-4.5s-1.213-4.5-2.71-4.5a2.661 2.661 0 00-2.211 1.9h1.278c.24-.265.576-.423.933-.438 1.01 0 1.828 1.358 1.828 3.032a4.093 4.093 0 01-.612 2.25c-.039.058-.08.114-.122.167-.042.053-.072.092-.11.132a1.364 1.364 0 01-.984.484 1.528 1.528 0 01-1.216-.783l-.007-.01h-1.125c.468 1.357 1.343 2.266 2.348 2.266zM53.27 15.3c-1.5 0-2.71 2.013-2.71 4.5s1.213 4.5 2.71 4.5c.994 0 1.861-.891 2.333-2.216h-1.139a1.509 1.509 0 01-1.194.753c-1.01 0-1.828-1.358-1.828-3.033 0-1.675.818-3.032 1.828-3.032.357.015.693.173.933.438h1.278a2.661 2.661 0 00-2.211-1.91z" fill="#CCC" fill-rule="nonzero"/><path stroke="#D8D8D8" d="M.5.5h70v70H.5z"/></g></svg>