<svg xmlns="http://www.w3.org/2000/svg" width="297.961" height="244.5" viewBox="0 0 297.961 244.5">
  <defs>
    <style>
	@font-face {
	font-family: "proximanova-nova";

	src: url('https://doopsalta2.com/Fonts/proxima-nova-three.woff2') format('woff2'),
		url('https://doopsalta2.com/Fonts/proxima-nova-three.woff') format('woff'),
		url('https://doopsalta2.com/Fonts/proxima-nova-three.otf') format('opentype');
	font-style: normal;
	}
	
      .cls-1, .cls-11, .cls-13, .cls-14, .cls-17, .cls-18, .cls-4, .cls-6, .cls-7, .cls-8 {
        fill: none;
      }

      .cls-2, .cls-3 {
        fill: #707070;
      }

      .cls-10, .cls-16, .cls-2, .cls-20 {
        font-size: 12px;
      }

      .cls-10, .cls-16, .cls-2, .cls-20, .cls-3 {
        font-family: 'proximanova-nova';
        font-weight: 200;
      }

      .cls-3 {
        font-size: 10px;
      }

      .cls-4 {
        stroke: #707070;
        stroke-width: 1.5px;
      }

      .cls-5 {
        fill: #fff;
        stroke: #454545;
        stroke-width: 1.1px;
      }

      .cls-6, .cls-7, .cls-8 {
        stroke: #f15a29;
      }

      .cls-13, .cls-17, .cls-7 {
        stroke-width: 0.8px;
      }

      .cls-14, .cls-18, .cls-8 {
        stroke-width: 1.2px;
      }

      .cls-10, .cls-9 {
        fill: #f15a29;
      }

      .cls-11 {
        stroke: #606060;
        stroke-width: 2px;
      }

      .cls-12 {
        fill: #606060;
      }

      .cls-13, .cls-14 {
        stroke: #8dc63f;
      }

      .cls-15, .cls-16 {
        fill: #8dc63f;
      }

      .cls-17, .cls-18 {
        stroke: #00aeef;
      }

      .cls-19 {
        fill: #00aeef;
      }

      .cls-20 {
        fill: #00aeef;
      }

      .cls-21, .cls-22, .cls-23, .cls-24 {
        stroke: none;
      }

      .cls-22 {
        fill: #f15a29;
      }

      .cls-23 {
        fill: #8dc63f;
      }

      .cls-24 {
        fill: #00aeef;
      }
    </style>
  </defs>
  <g id="Group_34" data-name="Group 34" transform="translate(-694.035 -245.898)">
    <rect id="Rectangle_51" data-name="Rectangle 51" class="cls-1" width="274.59" height="244.5" transform="translate(694.035 245.898)"/>
    <text id="FLOOR" class="cls-2" transform="translate(952.996 486.398)"><tspan x="0" y="0">FLOOR</tspan></text>
    <text id="CEILING" class="cls-3" transform="translate(952.996 256.898)"><tspan x="0" y="0">CEILING</tspan></text>
    <line id="Line_4" data-name="Line 4" class="cls-4" x2="201.16" transform="translate(744.297 482.398)"/>
    <line id="Line_47" data-name="Line 47" class="cls-4" x2="201.16" transform="translate(744.297 253.398)"/>
    <g id="Rectangle_4" data-name="Rectangle 4" class="cls-5" transform="translate(797.42 300.651)">
      <rect class="cls-21" width="95.067" height="131.563"/>
      <rect class="cls-1" x="0.55" y="0.55" width="93.967" height="130.463"/>
    </g>
    <g id="Rectangle_5" data-name="Rectangle 5" class="cls-5" transform="translate(805.711 308.942)">
      <rect class="cls-21" width="78.485" height="114.982"/>
      <rect class="cls-1" x="0.55" y="0.55" width="77.385" height="113.882"/>
    </g>
    <g id="Group_47" data-name="Group 47" transform="translate(718.874 263.898)">
      <line id="Line_5" data-name="Line 5" class="cls-6" y1="11.75" transform="translate(47.99 8.25)"/>
      <line id="Line_6" data-name="Line 6" class="cls-7" y1="11.75" transform="translate(203.99 8.25)"/>
      <line id="Line_7" data-name="Line 7" class="cls-8" x2="150.732" transform="translate(50.581 10.874)"/>
      <g id="Polygon_1" data-name="Polygon 1" class="cls-9" transform="translate(203.176 7.625) rotate(90)">
        <path class="cls-21" d="M 5.890729427337646 7.099999904632568 L 0.6092706918716431 7.099999904632568 L 3.25 1.006009221076965 L 5.890729427337646 7.099999904632568 Z"/>
        <path class="cls-22" d="M 3.25 2.012028694152832 L 1.218545436859131 6.699999809265137 L 5.281454086303711 6.699999809265137 L 3.25 2.012028694152832 M 3.25 0 L 6.5 7.5 L 0 7.5 L 3.25 0 Z"/>
      </g>
      <g id="Polygon_2" data-name="Polygon 2" class="cls-9" transform="translate(48.84 14.124) rotate(-90)">
        <path class="cls-21" d="M 5.890729427337646 7.099999904632568 L 0.6092706918716431 7.099999904632568 L 3.25 1.006009221076965 L 5.890729427337646 7.099999904632568 Z"/>
        <path class="cls-22" d="M 3.25 2.012028694152832 L 1.218545436859131 6.699999809265137 L 5.281454086303711 6.699999809265137 L 3.25 2.012028694152832 M 3.25 0 L 6.5 7.5 L 0 7.5 L 3.25 0 Z"/>
      </g>
      <text id="C" class="cls-10" transform="translate(121.99 5.875)"><tspan x="0" y="0">C</tspan></text>
    </g>
    <line id="Line_44" data-name="Line 44" class="cls-11" x2="158.234" transform="translate(765.387 283.898)"/>
    <circle id="Ellipse_15" data-name="Ellipse 15" class="cls-12" cx="3.5" cy="3.5" r="3.5" transform="translate(922.863 280.398)"/>
    <circle id="Ellipse_16" data-name="Ellipse 16" class="cls-12" cx="3.5" cy="3.5" r="3.5" transform="translate(759.863 280.398)"/>
    <g id="Group_31" data-name="Group 31" transform="translate(778.387 234.563) rotate(90)">
      <line id="Line_5-2" data-name="Line 5" class="cls-13" y1="9.023" transform="translate(47.99 3)"/>
      <line id="Line_7-2" data-name="Line 7" class="cls-14" x2="194.576" transform="translate(50.581 11.499)"/>
      <g id="Polygon_1-2" data-name="Polygon 1" class="cls-15" transform="translate(247.021 8.25) rotate(90)">
        <path class="cls-21" d="M 5.890729427337646 7.099999904632568 L 0.6092706918716431 7.099999904632568 L 3.25 1.006009221076965 L 5.890729427337646 7.099999904632568 Z"/>
        <path class="cls-23" d="M 3.25 2.012028694152832 L 1.218545436859131 6.699999809265137 L 5.281454086303711 6.699999809265137 L 3.25 2.012028694152832 M 3.25 0 L 6.5 7.5 L 0 7.5 L 3.25 0 Z"/>
      </g>
      <g id="Polygon_2-2" data-name="Polygon 2" class="cls-15" transform="translate(47.84 14.75) rotate(-90)">
        <path class="cls-21" d="M 5.890729427337646 7.099999904632568 L 0.6092706918716431 7.099999904632568 L 3.25 1.006009221076965 L 5.890729427337646 7.099999904632568 Z"/>
        <path class="cls-23" d="M 3.25 2.012028694152832 L 1.218545436859131 6.699999809265137 L 5.281454086303711 6.699999809265137 L 3.25 2.012028694152832 M 3.25 0 L 6.5 7.5 L 0 7.5 L 3.25 0 Z"/>
      </g>
      <text id="A" class="cls-16" transform="translate(126.085 22.75) rotate(-90)"><tspan x="0" y="0">A</tspan></text>
    </g>
    <g id="Group_46" data-name="Group 46" transform="translate(800.486 234.563) rotate(90)">
      <line id="Line_5-3" data-name="Line 5" class="cls-17" y1="9.123" transform="translate(47.99 3)"/>
      <line id="Line_6-2" data-name="Line 6" class="cls-17" y1="17" transform="translate(197.274 3)"/>
      <line id="Line_7-3" data-name="Line 7" class="cls-18" x2="144.015" transform="translate(50.581 11.499)"/>
      <g id="Polygon_1-3" data-name="Polygon 1" class="cls-19" transform="translate(196.46 8.25) rotate(90)">
        <path class="cls-21" d="M 5.890729427337646 7.099999904632568 L 0.6092706918716431 7.099999904632568 L 3.25 1.006009221076965 L 5.890729427337646 7.099999904632568 Z"/>
        <path class="cls-24" d="M 3.25 2.012028694152832 L 1.218545436859131 6.699999809265137 L 5.281454086303711 6.699999809265137 L 3.25 2.012028694152832 M 3.25 0 L 6.5 7.5 L 0 7.5 L 3.25 0 Z"/>
      </g>
      <g id="Polygon_2-3" data-name="Polygon 2" class="cls-19" transform="translate(47.84 14.75) rotate(-90)">
        <path class="cls-21" d="M 5.890729427337646 7.099999904632568 L 0.6092706918716431 7.099999904632568 L 3.25 1.006009221076965 L 5.890729427337646 7.099999904632568 Z"/>
        <path class="cls-24" d="M 3.25 2.012028694152832 L 1.218545436859131 6.699999809265137 L 5.281454086303711 6.699999809265137 L 3.25 2.012028694152832 M 3.25 0 L 6.5 7.5 L 0 7.5 L 3.25 0 Z"/>
      </g>
      <text id="B" class="cls-20" transform="translate(126.089 22.75) rotate(-90)"><tspan x="0" y="0">B</tspan></text>
    </g>
  </g>
</svg>
