<svg xmlns="http://www.w3.org/2000/svg" width="297.961" height="244.5" viewBox="0 0 297.961 244.5">
  <defs>
    <style>
	@font-face {
	font-family: "proximanova-nova";

	src: url('https://doopsalta2.com/Fonts/proxima-nova-three.woff2') format('woff2'),
		url('https://doopsalta2.com/Fonts/proxima-nova-three.woff') format('woff'),
		url('https://doopsalta2.com/Fonts/proxima-nova-three.otf') format('opentype');
	font-style: normal;
	}

      .cls-1, .cls-10, .cls-11, .cls-14, .cls-15, .cls-16, .cls-19, .cls-21, .cls-22, .cls-3, .cls-5, .cls-6, .cls-9 {
        fill: none;
      }

      .cls-2 {
        fill: #707070;
        font-size: 10px;
      }

      .cls-13, .cls-18, .cls-2, .cls-24, .cls-8 {
        font-family: 'proximanova-nova';
        font-weight: 200;
      }

      .cls-3 {
        stroke: #707070;
        stroke-width: 1.5px;
      }

      .cls-4 {
        fill: #fff;
        stroke: #454545;
        stroke-width: 1.1px;
      }

      .cls-5, .cls-6{
        stroke: #8dc63f;
      }

      .cls-11, .cls-16, .cls-22, .cls-6 {
        stroke-width: 1.2px;
      }

      .cls-7, .cls-8 {
        fill: #8dc63f;
      }

      .cls-13, .cls-18, .cls-8 {
        font-size: 12px;
      }

      .cls-10, .cls-11, .cls-9 {
        stroke: #00aeef;
      }

      .cls-10, .cls-15, .cls-21 {
        stroke-width: 0.8px;
      }

      .cls-12, .cls-13 {
        fill: #00aeef;
      }

      .cls-14, .cls-15, .cls-16{
        stroke: #f15a29;
      }

      .cls-17, .cls-18 {
        fill: #f15a29;
      }

      .cls-19, .cls-21, .cls-22, .cls-24 {
        stroke: #606060;
      }

      .cls-19 {
        stroke-width: 2px;
        stroke-dasharray: 3.5 3.5;
      }

      .cls-20, .cls-23, .cls-24 {
        fill: #606060;
      }

      .cls-24 {
        stroke-width: 0.5px;
        font-size: 7px;
      }

      .cls-25, .cls-26, .cls-27, .cls-28, .cls-29 {
        stroke: none;
      }

      .cls-26 {
        fill: #8dc63f;
      }

      .cls-27 {
        fill: #00aeef;
      }

      .cls-28 {
        fill: #f15a29;
      }

      .cls-29 {
        fill: #606060;
      }
    </style>
  </defs>
  <g id="Group_48" data-name="Group 48" transform="translate(-694.035 -245.898)">
    <rect id="Rectangle_51" data-name="Rectangle 51" class="cls-1" width="274.59" height="244.5" transform="translate(694.035 245.898)"/>
    <text id="FLOOR" class="cls-2" transform="translate(952.996 486.398)"><tspan x="0" y="0">FLOOR</tspan></text>
    <text id="CEILING" class="cls-2" transform="translate(952.996 256.898)"><tspan x="0" y="0">CEILING</tspan></text>
    <text id="ROD" class="cls-2" transform="translate(935.996 287.398)"><tspan x="0" y="0">ROD</tspan></text>
    <line id="Line_4" data-name="Line 4" class="cls-3" x2="201.16" transform="translate(744.297 482.398)"/>
    <line id="Line_47" data-name="Line 47" class="cls-3" x2="201.16" transform="translate(744.297 253.398)"/>
    <g id="Rectangle_4" data-name="Rectangle 4" class="cls-4" transform="translate(797.42 300.651)">
      <rect class="cls-25" width="95.067" height="131.563"/>
      <rect class="cls-1" x="0.55" y="0.55" width="93.967" height="130.463"/>
    </g>
    <g id="Rectangle_5" data-name="Rectangle 5" class="cls-4" transform="translate(805.711 308.942)">
      <rect class="cls-25" width="78.485" height="114.982"/>
      <rect class="cls-1" x="0.55" y="0.55" width="77.385" height="113.882"/>
    </g>
    <g id="Group_31" data-name="Group 31" transform="translate(783.486 253.145) rotate(90)">
      <line id="Line_5" data-name="Line 5" class="cls-5" y1="17" transform="translate(47.99 3)"/>
      <line id="Line_7" data-name="Line 7" class="cls-6" x2="175.994" transform="translate(50.581 11.499)"/>
      <g id="Polygon_1" data-name="Polygon 1" class="cls-7" transform="translate(228.439 8.25) rotate(90)">
        <path class="cls-25" d="M 5.890729427337646 7.099999904632568 L 0.6092706918716431 7.099999904632568 L 3.25 1.006009221076965 L 5.890729427337646 7.099999904632568 Z"/>
        <path class="cls-26" d="M 3.25 2.012028694152832 L 1.218545436859131 6.699999809265137 L 5.281454086303711 6.699999809265137 L 3.25 2.012028694152832 M 3.25 0 L 6.5 7.5 L 0 7.5 L 3.25 0 Z"/>
      </g>
      <g id="Polygon_2" data-name="Polygon 2" class="cls-7" transform="translate(48.84 14.75) rotate(-90)">
        <path class="cls-25" d="M 5.890729427337646 7.099999904632568 L 0.6092706918716431 7.099999904632568 L 3.25 1.006009221076965 L 5.890729427337646 7.099999904632568 Z"/>
        <path class="cls-26" d="M 3.25 2.012028694152832 L 1.218545436859131 6.699999809265137 L 5.281454086303711 6.699999809265137 L 3.25 2.012028694152832 M 3.25 0 L 6.5 7.5 L 0 7.5 L 3.25 0 Z"/>
      </g>
      <text id="A" class="cls-8" transform="translate(116.793 22.75) rotate(-90)"><tspan x="0" y="0">A</tspan></text>
    </g>
    <g id="Group_46" data-name="Group 46" transform="translate(800.486 253.145) rotate(90)">
      <line id="Line_5-2" data-name="Line 5" class="cls-9" y1="17" transform="translate(47.99 3)"/>
      <line id="Line_6" data-name="Line 6" class="cls-10" y1="17" transform="translate(178.692 3)"/>
      <line id="Line_7-2" data-name="Line 7" class="cls-11" x2="125.433" transform="translate(50.581 11.499)"/>
      <g id="Polygon_1-2" data-name="Polygon 1" class="cls-12" transform="translate(177.877 8.25) rotate(90)">
        <path class="cls-25" d="M 5.890729427337646 7.099999904632568 L 0.6092706918716431 7.099999904632568 L 3.25 1.006009221076965 L 5.890729427337646 7.099999904632568 Z"/>
        <path class="cls-27" d="M 3.25 2.012028694152832 L 1.218545436859131 6.699999809265137 L 5.281454086303711 6.699999809265137 L 3.25 2.012028694152832 M 3.25 0 L 6.5 7.5 L 0 7.5 L 3.25 0 Z"/>
      </g>
      <g id="Polygon_2-2" data-name="Polygon 2" class="cls-12" transform="translate(48.84 14.75) rotate(-90)">
        <path class="cls-25" d="M 5.890729427337646 7.099999904632568 L 0.6092706918716431 7.099999904632568 L 3.25 1.006009221076965 L 5.890729427337646 7.099999904632568 Z"/>
        <path class="cls-27" d="M 3.25 2.012028694152832 L 1.218545436859131 6.699999809265137 L 5.281454086303711 6.699999809265137 L 3.25 2.012028694152832 M 3.25 0 L 6.5 7.5 L 0 7.5 L 3.25 0 Z"/>
      </g>
      <text id="B" class="cls-13" transform="translate(116.797 21.75) rotate(-90)"><tspan x="0" y="0">B</tspan></text>
    </g>
    <g id="Group_47" data-name="Group 47" transform="translate(749.874 429.198)">
      <line id="Line_5-3" data-name="Line 5" class="cls-14" y1="17" transform="translate(47.99 3)"/>
      <line id="Line_6-2" data-name="Line 6" class="cls-15" y1="17" transform="translate(142.26 3)"/>
      <line id="Line_7-3" data-name="Line 7" class="cls-16" x2="89.001" transform="translate(50.581 11.499)"/>
      <g id="Polygon_1-3" data-name="Polygon 1" class="cls-17" transform="translate(141.446 8.25) rotate(90)">
        <path class="cls-25" d="M 5.890729427337646 7.099999904632568 L 0.6092706918716431 7.099999904632568 L 3.25 1.006009221076965 L 5.890729427337646 7.099999904632568 Z"/>
        <path class="cls-28" d="M 3.25 2.012028694152832 L 1.218545436859131 6.699999809265137 L 5.281454086303711 6.699999809265137 L 3.25 2.012028694152832 M 3.25 0 L 6.5 7.5 L 0 7.5 L 3.25 0 Z"/>
      </g>
      <g id="Polygon_2-3" data-name="Polygon 2" class="cls-17" transform="translate(48.84 14.75) rotate(-90)">
        <path class="cls-25" d="M 5.890729427337646 7.099999904632568 L 0.6092706918716431 7.099999904632568 L 3.25 1.006009221076965 L 5.890729427337646 7.099999904632568 Z"/>
        <path class="cls-28" d="M 3.25 2.012028694152832 L 1.218545436859131 6.699999809265137 L 5.281454086303711 6.699999809265137 L 3.25 2.012028694152832 M 3.25 0 L 6.5 7.5 L 0 7.5 L 3.25 0 Z"/>
      </g>
      <text id="E" class="cls-18" transform="translate(91.332 23.5)"><tspan x="0" y="0">C</tspan></text>
    </g>
    <line id="Line_44" data-name="Line 44" class="cls-19" x2="158.234" transform="translate(765.387 283.898)"/>
    <circle id="Ellipse_15" data-name="Ellipse 15" class="cls-20" cx="3.5" cy="3.5" r="3.5" transform="translate(922.863 280.398)"/>
    <circle id="Ellipse_16" data-name="Ellipse 16" class="cls-20" cx="3.5" cy="3.5" r="3.5" transform="translate(759.863 280.398)"/>
    <g id="Group_35" data-name="Group 35" transform="translate(855.284 235.908) rotate(90)">
      <line id="Line_6-3" data-name="Line 6" class="cls-21" y1="14.662" transform="translate(65.228 3)"/>
      <line id="Line_7-4" data-name="Line 7" class="cls-22" x2="11.969" transform="translate(50.581 10.332)"/>
      <g id="Polygon_1-4" data-name="Polygon 1" class="cls-23" transform="translate(64.414 8.332) rotate(90)">
        <path class="cls-25" d="M 3.252593278884888 2.599999904632568 L 0.747406542301178 2.599999904632568 L 1.99999988079071 0.7211099863052368 L 3.252593278884888 2.599999904632568 Z"/>
        <path class="cls-29" d="M 1.99999988079071 1.442219972610474 L 1.494813203811646 2.200000047683716 L 2.505186557769775 2.200000047683716 L 1.99999988079071 1.442219972610474 M 1.99999988079071 0 L 4 3 L -2.384185791015625e-07 3 L 1.99999988079071 0 Z"/>
      </g>
      <g id="Polygon_2-4" data-name="Polygon 2" class="cls-23" transform="translate(48.84 12.331) rotate(-90)">
        <path class="cls-25" d="M 3.252593278884888 2.599999904632568 L 0.747406542301178 2.599999904632568 L 1.99999988079071 0.7211099863052368 L 3.252593278884888 2.599999904632568 Z"/>
        <path class="cls-29" d="M 1.99999988079071 1.442219972610474 L 1.494813203811646 2.200000047683716 L 2.505186557769775 2.200000047683716 L 1.99999988079071 1.442219972610474 M 1.99999988079071 0 L 4 3 L -2.384185791015625e-07 3 L 1.99999988079071 0 Z"/>
      </g>
      <text id="_15-20cm" data-name="15-20cm" class="cls-24" transform="translate(58.49 4.422) rotate(-90)"><tspan x="0" y="0">15-20cm</tspan></text>
    </g>
  </g>
</svg>
