<?xml version="1.0" encoding="utf-8"?>
<!-- Generator: Adobe Illustrator 18.0.0, SVG Export Plug-In . SVG Version: 6.00 Build 0)  -->
<!DOCTYPE svg PUBLIC "-//W3C//DTD SVG 1.1//EN" "http://www.w3.org/Graphics/SVG/1.1/DTD/svg11.dtd">
<svg version="1.1" id="Layer_1" xmlns="http://www.w3.org/2000/svg" xmlns:xlink="http://www.w3.org/1999/xlink" x="0px" y="0px"
	 width="411px" height="687.6px" viewBox="0 0 411 687.6" enable-background="new 0 0 411 687.6" xml:space="preserve">
<g>
	<rect x="65.4" y="55" fill="#FFFFFF" stroke="#464545" stroke-width="3" width="280.2" height="389"/>
	<rect x="88.5" y="78.1" fill="none" stroke="#464545" stroke-width="3" width="234" height="342.8"/>
</g>
<g>
	<rect x="1.1" y="0" fill="#B2B2B2" stroke="#706F6F" stroke-width="1.2906" stroke-miterlimit="10" width="408.8" height="6.2"/>
</g>
<g>
	<path fill="#DADADA" stroke="#706F6F" stroke-width="0.9525" stroke-miterlimit="10" d="M205.5,491.2c0,0-7.7,8.2-15.6,8.3
		c-7.9,0.1-14.6-8.3-14.6-8.3V9.5c0,0,4.9,0,15.1,0s15.1,0,15.1,0V491.2z"/>
	<path fill="#DADADA" stroke="#706F6F" stroke-width="0.9525" stroke-miterlimit="10" d="M100.4,494.1c0,0,6.1,7.3,16.4,4.9
		s11.2-10.8,21.1-9.8V9.5c0,0-4.7,0-18.7,0s-18.7,0-18.7,0V494.1z"/>
	<path fill="#DADADA" stroke="#706F6F" stroke-width="0.9525" stroke-miterlimit="10" d="M137.9,494.1c0,0,6.1,7.3,16.4,4.9
		s11.2-10.8,21.1-9.8V9.5c0,0-4.7,0-18.7,0s-18.7,0-18.7,0V494.1z"/>
	<path fill="#DADADA" stroke="#706F6F" stroke-width="0.9525" stroke-miterlimit="10" d="M25.5,494.1c0,0,6.1,7.3,16.4,4.9
		s11.2-10.8,21.1-9.8V9.5c0,0-4.7,0-18.7,0s-18.7,0-18.7,0V494.1z"/>
	<path fill="#DADADA" stroke="#706F6F" stroke-width="0.9525" stroke-miterlimit="10" d="M63,494.1c0,0,6.1,7.3,16.4,4.9
		s11.2-10.8,21.1-9.8V9.5c0,0-4.7,0-18.7,0S63,9.5,63,9.5V494.1z"/>
</g>
</svg>
