<?xml version="1.0" encoding="utf-8"?>
<!-- Generator: Adobe Illustrator 18.0.0, SVG Export Plug-In . SVG Version: 6.00 Build 0)  -->
<!DOCTYPE svg PUBLIC "-//W3C//DTD SVG 1.1//EN" "http://www.w3.org/Graphics/SVG/1.1/DTD/svg11.dtd">
<svg version="1.1" id="Layer_1" xmlns="http://www.w3.org/2000/svg" xmlns:xlink="http://www.w3.org/1999/xlink" x="0px" y="0px"
	 width="433.9px" height="729px" viewBox="0 0 433.9 729" enable-background="new 0 0 433.9 729" xml:space="preserve">
<line fill="#FFFFFF" stroke="#464545" stroke-width="3" x1="435.5" y1="693.8" x2="1.7" y2="693.8"/>
<g>
	<rect x="88.3" y="96.4" fill="#FFFFFF" stroke="#464545" stroke-width="3" width="280.2" height="389"/>
	<rect x="111.3" y="119.5" fill="none" stroke="#464545" stroke-width="3" width="234" height="342.8"/>
</g>
<g>
	<path fill="#DADADA" stroke="#706F6F" stroke-width="0.9532" stroke-miterlimit="10" d="M220.6,705c0,0-7.7,8.2-15.6,8.3
		s-14.6-7.3-14.6-7.3V52.4c0,0,4.9,0,15.1,0s15.1,0,15.1,0V705z"/>
	<path fill="#DADADA" stroke="#706F6F" stroke-width="0.9525" stroke-miterlimit="10" d="M190.4,706c-4.6-2.4-8.1,0.5-8.1,0.5
		s-5.2,6.8-13.2,6.8s-13.2-7.3-13.2-7.3V52.4h34.5V706z"/>
	<path fill="#DADADA" stroke="#706F6F" stroke-width="0.9525" stroke-miterlimit="10" d="M155.9,706c-4.6-2.4-8.1,0.5-8.1,0.5
		s-5.2,6.8-13.2,6.8s-13.2-7.3-13.2-7.3V52.4h34.5V706z"/>
	<path fill="#DADADA" stroke="#706F6F" stroke-width="0.9525" stroke-miterlimit="10" d="M121.4,706c-4.6-2.4-8.1,0.5-8.1,0.5
		s-5.2,6.8-13.2,6.8S86.9,706,86.9,706V52.4h34.5V706z"/>
	<path fill="#DADADA" stroke="#706F6F" stroke-width="0.9525" stroke-miterlimit="10" d="M86.9,706c-4.6-2.4-8.1,0.5-8.1,0.5
		s-5.2,6.8-13.2,6.8S52.4,706,52.4,706V52.4h34.5V706z"/>
</g>
<g>
	<rect x="23.9" y="34" fill="#FFFFFF" stroke="#464545" stroke-width="1.7037" width="404.4" height="13"/>
</g>
<rect x="407.8" y="32" fill="#FFFFFF" stroke="#464545" stroke-width="1.5" width="24" height="17"/>
<rect x="2.1" y="32" fill="#FFFFFF" stroke="#464545" stroke-width="1.5" width="24" height="17"/>
</svg>
