<?xml version="1.0" encoding="utf-8"?>
<!-- Generator: Adobe Illustrator 18.0.0, SVG Export Plug-In . SVG Version: 6.00 Build 0)  -->
<!DOCTYPE svg PUBLIC "-//W3C//DTD SVG 1.1//EN" "http://www.w3.org/Graphics/SVG/1.1/DTD/svg11.dtd">
<svg version="1.1" id="Layer_1" xmlns="http://www.w3.org/2000/svg" xmlns:xlink="http://www.w3.org/1999/xlink" x="0px" y="0px"
	 width="433.9px" height="729px" viewBox="0 0 433.9 729" enable-background="new 0 0 433.9 729" xml:space="preserve">
<g>
	<rect x="88.3" y="96.4" fill="#FFFFFF" stroke="#464545" stroke-width="3" width="280.2" height="389"/>
	<rect x="111.3" y="119.5" fill="none" stroke="#464545" stroke-width="3" width="234" height="342.8"/>
</g>
<g>
	
		<rect x="23.9" y="42.8" fill="#FFFFFF" stroke="#B2B2B2" stroke-width="1.2906" stroke-miterlimit="10" width="408.8" height="6.2"/>
</g>
<rect x="408.7" y="39.8" fill="#FFFFFF" stroke="#B2B2B2" stroke-width="1.4324" stroke-miterlimit="10" width="24" height="12.3"/>
<rect x="1.7" y="39.8" fill="#FFFFFF" stroke="#B2B2B2" stroke-width="1.4324" stroke-miterlimit="10" width="24" height="12.3"/>
<g>
	<path fill="#DADADA" stroke="#706F6F" stroke-width="0.9532" stroke-miterlimit="10" d="M220.6,534c0,0-7.7,8.2-15.6,8.3
		c-7.9,0.1-14.6-7.3-14.6-7.3V52.4c0,0,4.9,0,15.1,0c10.2,0,15.1,0,15.1,0V534z"/>
	<path fill="#DADADA" stroke="#706F6F" stroke-width="0.9525" stroke-miterlimit="10" d="M190.4,535c-4.6-2.4-8.1,0.5-8.1,0.5
		s-5.2,6.8-13.2,6.8s-13.2-7.3-13.2-7.3V52.4h34.5V535z"/>
	<path fill="#DADADA" stroke="#706F6F" stroke-width="0.9525" stroke-miterlimit="10" d="M155.9,535c-4.6-2.4-8.1,0.5-8.1,0.5
		s-5.2,6.8-13.2,6.8s-13.2-7.3-13.2-7.3V52.4h34.5V535z"/>
	<path fill="#DADADA" stroke="#706F6F" stroke-width="0.9525" stroke-miterlimit="10" d="M121.4,535c-4.6-2.4-8.1,0.5-8.1,0.5
		s-5.2,6.8-13.2,6.8S86.9,535,86.9,535V52.4h34.5V535z"/>
	<path fill="#DADADA" stroke="#706F6F" stroke-width="0.9525" stroke-miterlimit="10" d="M86.9,535c-4.6-2.4-8.1,0.5-8.1,0.5
		s-5.2,6.8-13.2,6.8S52.4,535,52.4,535V52.4h34.5V535z"/>
</g>
</svg>
