<?xml version="1.0" encoding="utf-8"?>
<!-- Generator: Adobe Illustrator 18.0.0, SVG Export Plug-In . SVG Version: 6.00 Build 0)  -->
<!DOCTYPE svg PUBLIC "-//W3C//DTD SVG 1.1//EN" "http://www.w3.org/Graphics/SVG/1.1/DTD/svg11.dtd">
<svg version="1.1" id="Layer_1" xmlns="http://www.w3.org/2000/svg" xmlns:xlink="http://www.w3.org/1999/xlink" x="0px" y="0px"
	 width="700px" height="775.3px" viewBox="0 0 700 775.3" enable-background="new 0 0 700 775.3" xml:space="preserve">
<polygon fill="#EDEDED" points="697.6,774.1 2.4,775.3 2.4,0 697.6,0 "/>
<line fill="#FFFFFF" stroke="#464545" stroke-width="3" x1="700" y1="740.2" x2="0" y2="740.2"/>
<g>
	<rect x="209.9" y="142.7" fill="#FFFFFF" stroke="#464545" stroke-width="3" width="280.2" height="389"/>
	<rect x="233" y="165.8" fill="none" stroke="#464545" stroke-width="3" width="234" height="342.8"/>
</g>
<g>
	<path fill="#DADADA" stroke="#706F6F" stroke-width="0.9674" stroke-miterlimit="10" d="M218.2,751c0,0-7.7,8.5-15.6,8.6
		c-7.9,0.1-14.6-7.6-14.6-7.6V28.9c0,0,4.9,0,15.1,0s15.1,0,15.1,0V751z"/>
	<path fill="#DADADA" stroke="#706F6F" stroke-width="0.9667" stroke-miterlimit="10" d="M188,752.1c-6.8-2.7-10.4,1-10.4,1
		s-4.5,6.5-10.9,6.5c-8,0-13.2-7.6-13.2-7.6V28.9H188V752.1z"/>
	<path fill="#DADADA" stroke="#706F6F" stroke-width="0.9667" stroke-miterlimit="10" d="M153.5,752.1c-6.8-2.7-10.4,1-10.4,1
		s-4.5,6.5-10.9,6.5c-8,0-13.2-7.6-13.2-7.6V28.9h34.5V752.1z"/>
	<path fill="#DADADA" stroke="#706F6F" stroke-width="0.9667" stroke-miterlimit="10" d="M119,752.1c-6.8-2.7-10.4,1-10.4,1
		s-4.5,6.5-10.9,6.5c-8,0-13.2-7.6-13.2-7.6V28.9H119V752.1z"/>
</g>
<g>
	<path fill="#DADADA" stroke="#706F6F" stroke-width="0.9674" stroke-miterlimit="10" d="M480.1,751c0,0,7.7,8.5,15.6,8.6
		c7.9,0.1,14.6-7.6,14.6-7.6V28.9c0,0-4.9,0-15.1,0s-15.1,0-15.1,0V751z"/>
	<path fill="#DADADA" stroke="#706F6F" stroke-width="0.9667" stroke-miterlimit="10" d="M510.3,752.1c6.8-2.7,10.4,1,10.4,1
		s4.5,6.5,10.9,6.5c8,0,13.2-7.6,13.2-7.6V28.9h-34.5V752.1z"/>
	<path fill="#DADADA" stroke="#706F6F" stroke-width="0.9667" stroke-miterlimit="10" d="M544.8,752.1c6.8-2.7,10.4,1,10.4,1
		s4.5,6.5,10.9,6.5c8,0,13.2-7.6,13.2-7.6V28.9h-34.5V752.1z"/>
	<path fill="#DADADA" stroke="#706F6F" stroke-width="0.9667" stroke-miterlimit="10" d="M579.3,752.1c6.8-2.7,10.4,1,10.4,1
		s4.5,6.5,10.9,6.5c8,0,13.2-7.6,13.2-7.6V28.9h-34.5V752.1z"/>
</g>
<polygon fill="#B2B2B2" stroke="#717070" stroke-width="0.6357" stroke-miterlimit="10" enable-background="new    " points="
	678.3,41.7 687.7,41.7 700,32.1 614.1,32.1 614.2,41.7 "/>
<polygon fill="#B2B2B2" stroke="#717070" stroke-width="0.6357" stroke-miterlimit="10" enable-background="new    " points="
	84.8,41.7 84.9,32.1 0,32.1 12.3,41.7 21.7,41.7 "/>
<rect x="0" y="0" fill="#C6C6C6" stroke="#717070" stroke-width="0.748" stroke-miterlimit="10" enable-background="new    " width="700" height="32.1"/>
</svg>
