<?xml version="1.0" encoding="utf-8"?>
<!-- Generator: Adobe Illustrator 18.0.0, SVG Export Plug-In . SVG Version: 6.00 Build 0)  -->
<!DOCTYPE svg PUBLIC "-//W3C//DTD SVG 1.1//EN" "http://www.w3.org/Graphics/SVG/1.1/DTD/svg11.dtd">
<svg version="1.1" id="Layer_1" xmlns="http://www.w3.org/2000/svg" xmlns:xlink="http://www.w3.org/1999/xlink" x="0px" y="0px"
	 width="700px" height="775.6px" viewBox="0 0 700 775.6" enable-background="new 0 0 700 775.6" xml:space="preserve">
<rect x="-0.8" y="0.6" fill="#EDEDED" width="701.6" height="775"/>
<line fill="#FFFFFF" stroke="#464545" stroke-width="3" x1="700.8" y1="740.5" x2="-0.8" y2="740.5"/>
<g>
	<rect x="209.9" y="143" fill="#FFFFFF" stroke="#464545" stroke-width="3" width="280.2" height="389"/>
	<rect x="233" y="166.1" fill="none" stroke="#464545" stroke-width="3" width="234" height="342.8"/>
</g>
<g>
	<g>
		<rect x="71.5" y="64.8" fill="#FFFFFF" stroke="#464545" stroke-width="1.9994" width="557" height="13"/>
	</g>
	<rect x="628.9" y="62.8" fill="#FFFFFF" stroke="#464545" stroke-width="1.5" width="24" height="17"/>
	<rect x="47.1" y="62.8" fill="#FFFFFF" stroke="#464545" stroke-width="1.5" width="24" height="17"/>
</g>
<g>
	<path fill="#DADADA" stroke="#706F6F" stroke-width="0.9532" stroke-miterlimit="10" d="M218.2,751.6c0,0-7.7,8.2-15.6,8.3
		s-14.6-7.3-14.6-7.3V83c0,0,4.9,0,15.1,0c10.2,0,15.1,0,15.1,0V751.6z"/>
	<path fill="#DADADA" stroke="#706F6F" stroke-width="0.9525" stroke-miterlimit="10" d="M188,752.6c-6.8-2.7-10.4,1-10.4,1
		s-4.5,6.3-10.9,6.3c-8,0-13.2-7.3-13.2-7.3V83H188V752.6z"/>
	<path fill="#DADADA" stroke="#706F6F" stroke-width="0.9525" stroke-miterlimit="10" d="M153.5,752.6c-6.8-2.7-10.4,1-10.4,1
		s-4.5,6.3-10.9,6.3c-8,0-13.2-7.3-13.2-7.3V83h34.5V752.6z"/>
	<path fill="#DADADA" stroke="#706F6F" stroke-width="0.9525" stroke-miterlimit="10" d="M119,752.6c-6.8-2.7-10.4,1-10.4,1
		s-4.5,6.3-10.9,6.3c-8,0-13.2-7.3-13.2-7.3V83H119V752.6z"/>
</g>
<g>
	<path fill="#DADADA" stroke="#706F6F" stroke-width="0.9532" stroke-miterlimit="10" d="M480.1,751.6c0,0,7.7,8.2,15.6,8.3
		c7.9,0.1,14.6-7.3,14.6-7.3V83c0,0-4.9,0-15.1,0c-10.2,0-15.1,0-15.1,0V751.6z"/>
	<path fill="#DADADA" stroke="#706F6F" stroke-width="0.9525" stroke-miterlimit="10" d="M510.3,752.6c6.8-2.7,10.4,1,10.4,1
		s4.5,6.3,10.9,6.3c8,0,13.2-7.3,13.2-7.3V83h-34.5V752.6z"/>
	<path fill="#DADADA" stroke="#706F6F" stroke-width="0.9525" stroke-miterlimit="10" d="M544.8,752.6c6.8-2.7,10.4,1,10.4,1
		s4.5,6.3,10.9,6.3c8,0,13.2-7.3,13.2-7.3V83h-34.5V752.6z"/>
	<path fill="#DADADA" stroke="#706F6F" stroke-width="0.9525" stroke-miterlimit="10" d="M579.3,752.6c6.8-2.7,10.4,1,10.4,1
		s4.5,6.3,10.9,6.3c8,0,13.2-7.3,13.2-7.3V83h-34.5V752.6z"/>
</g>
</svg>
