<?xml version="1.0" encoding="utf-8"?>
<!-- Generator: Adobe Illustrator 18.0.0, SVG Export Plug-In . SVG Version: 6.00 Build 0)  -->
<!DOCTYPE svg PUBLIC "-//W3C//DTD SVG 1.1//EN" "http://www.w3.org/Graphics/SVG/1.1/DTD/svg11.dtd">
<svg version="1.1" id="Layer_1" xmlns="http://www.w3.org/2000/svg" xmlns:xlink="http://www.w3.org/1999/xlink" x="0px" y="0px"
	 width="605.9px" height="729px" viewBox="0 0 605.9 729" enable-background="new 0 0 605.9 729" xml:space="preserve">
<line fill="#FFFFFF" stroke="#464545" stroke-width="3" x1="605.9" y1="693.8" x2="1.7" y2="693.8"/>
<g>
	<rect x="162.8" y="96.4" fill="#FFFFFF" stroke="#464545" stroke-width="3" width="280.2" height="389"/>
	<rect x="185.9" y="119.5" fill="none" stroke="#464545" stroke-width="3" width="234" height="342.8"/>
</g>
<g>
	<path fill="#DADADA" stroke="#706F6F" stroke-width="0.9532" stroke-miterlimit="10" d="M164.1,705c0,0-7.7,8.2-15.6,8.3
		s-14.6-7.3-14.6-7.3V52.4c0,0,4.9,0,15.1,0c10.2,0,15.1,0,15.1,0V705z"/>
	<path fill="#DADADA" stroke="#706F6F" stroke-width="0.9525" stroke-miterlimit="10" d="M133.9,706c-4.6-2.4-8.1,0.5-8.1,0.5
		s-5.2,6.8-13.2,6.8S99.4,706,99.4,706V52.4h34.5V706z"/>
	<path fill="#DADADA" stroke="#706F6F" stroke-width="0.9525" stroke-miterlimit="10" d="M99.4,706c-4.6-2.4-8.1,0.5-8.1,0.5
		s-5.2,6.8-13.2,6.8S64.9,706,64.9,706V52.4h34.5V706z"/>
	<path fill="#DADADA" stroke="#706F6F" stroke-width="0.9525" stroke-miterlimit="10" d="M64.9,706c-4.6-2.4-8.1,0.5-8.1,0.5
		s-5.2,6.8-13.2,6.8S30.4,706,30.4,706V52.4h34.5V706z"/>
</g>
<g>
	<path fill="#DADADA" stroke="#706F6F" stroke-width="0.9532" stroke-miterlimit="10" d="M441.4,705c0,0,7.7,8.2,15.6,8.3
		c7.9,0.1,14.6-7.3,14.6-7.3V52.4c0,0-4.9,0-15.1,0c-10.2,0-15.1,0-15.1,0V705z"/>
	<path fill="#DADADA" stroke="#706F6F" stroke-width="0.9525" stroke-miterlimit="10" d="M471.6,706c4.6-2.4,8.1,0.5,8.1,0.5
		s5.2,6.8,13.2,6.8s13.2-7.3,13.2-7.3V52.4h-34.5V706z"/>
	<path fill="#DADADA" stroke="#706F6F" stroke-width="0.9525" stroke-miterlimit="10" d="M506.1,706c4.6-2.4,8.1,0.5,8.1,0.5
		s5.2,6.8,13.2,6.8s13.2-7.3,13.2-7.3V52.4h-34.5V706z"/>
	<path fill="#DADADA" stroke="#706F6F" stroke-width="0.9525" stroke-miterlimit="10" d="M540.6,706c4.6-2.4,8.1,0.5,8.1,0.5
		s5.2,6.8,13.2,6.8s13.2-7.3,13.2-7.3V52.4h-34.5V706z"/>
</g>
<g>
	<rect x="1.3" y="-1.4" fill="#FFFFFF" stroke="#464545" stroke-width="3.5219" width="603.2" height="61.6"/>
</g>
</svg>
