<?xml version="1.0" encoding="utf-8"?>
<!-- Generator: Adobe Illustrator 18.0.0, SVG Export Plug-In . SVG Version: 6.00 Build 0)  -->
<!DOCTYPE svg PUBLIC "-//W3C//DTD SVG 1.1//EN" "http://www.w3.org/Graphics/SVG/1.1/DTD/svg11.dtd">
<svg version="1.1" id="Layer_1" xmlns="http://www.w3.org/2000/svg" xmlns:xlink="http://www.w3.org/1999/xlink" x="0px" y="0px"
	 width="605.9px" height="729px" viewBox="0 0 605.9 729" enable-background="new 0 0 605.9 729" xml:space="preserve">
<line fill="#FFFFFF" stroke="#464545" stroke-width="3" x1="605.9" y1="693.8" x2="1.7" y2="693.8"/>
<g>
	<rect x="162.8" y="96.4" fill="#FFFFFF" stroke="#464545" stroke-width="3" width="280.2" height="389"/>
	<rect x="185.9" y="119.5" fill="none" stroke="#464545" stroke-width="3" width="234" height="342.8"/>
</g>
<g>
	<path fill="#DADADA" stroke="#706F6F" stroke-width="0.9532" stroke-miterlimit="10" d="M200.7,705c0,0-7.7,8.2-15.6,8.3
		s-14.6-7.3-14.6-7.3V29.4c0,0,4.9,0,15.1,0s15.1,0,15.1,0V705z"/>
	<path fill="#DADADA" stroke="#706F6F" stroke-width="0.9525" stroke-miterlimit="10" d="M170.5,706c-4.6-2.4-8.1,0.5-8.1,0.5
		s-5.2,6.8-13.2,6.8S136,706,136,706V29.4h34.5V706z"/>
	<path fill="#DADADA" stroke="#706F6F" stroke-width="0.9525" stroke-miterlimit="10" d="M136,706c-4.6-2.4-8.1,0.5-8.1,0.5
		s-5.2,6.8-13.2,6.8s-13.2-7.3-13.2-7.3V29.4H136V706z"/>
	<path fill="#DADADA" stroke="#706F6F" stroke-width="0.9525" stroke-miterlimit="10" d="M101.5,706c-4.6-2.4-8.1,0.5-8.1,0.5
		s-5.2,6.8-13.2,6.8S67,706,67,706V29.4h34.5V706z"/>
</g>
<g>
	<rect x="24.4" y="11" fill="#FFFFFF" stroke="#464545" stroke-width="1.9994" width="557" height="13"/>
</g>
<rect x="581.8" y="9" fill="#FFFFFF" stroke="#464545" stroke-width="1.5" width="24" height="17"/>
<rect x="0" y="9" fill="#FFFFFF" stroke="#464545" stroke-width="1.5" width="24" height="17"/>
<g>
	<path fill="#DADADA" stroke="#706F6F" stroke-width="0.9532" stroke-miterlimit="10" d="M404.8,705c0,0,7.7,8.2,15.6,8.3
		c7.9,0.1,14.6-7.3,14.6-7.3V29.4c0,0-4.9,0-15.1,0c-10.2,0-15.1,0-15.1,0V705z"/>
	<path fill="#DADADA" stroke="#706F6F" stroke-width="0.9525" stroke-miterlimit="10" d="M435,706c4.6-2.4,8.1,0.5,8.1,0.5
		s5.2,6.8,13.2,6.8s13.2-7.3,13.2-7.3V29.4H435V706z"/>
	<path fill="#DADADA" stroke="#706F6F" stroke-width="0.9525" stroke-miterlimit="10" d="M469.5,706c4.6-2.4,8.1,0.5,8.1,0.5
		s5.2,6.8,13.2,6.8S504,706,504,706V29.4h-34.5V706z"/>
	<path fill="#DADADA" stroke="#706F6F" stroke-width="0.9525" stroke-miterlimit="10" d="M504,706c4.6-2.4,8.1,0.5,8.1,0.5
		s5.2,6.8,13.2,6.8s13.2-7.3,13.2-7.3V29.4H504V706z"/>
</g>
<rect x="39.1" y="0" fill="#FFFFFF" stroke="#464545" stroke-width="1.5" width="17" height="24"/>
<rect x="550.1" y="0" fill="#FFFFFF" stroke="#464545" stroke-width="1.5" width="17" height="24"/>
</svg>
