<?xml version="1.0" encoding="utf-8"?>
<!-- Generator: Adobe Illustrator 18.0.0, SVG Export Plug-In . SVG Version: 6.00 Build 0)  -->
<!DOCTYPE svg PUBLIC "-//W3C//DTD SVG 1.1//EN" "http://www.w3.org/Graphics/SVG/1.1/DTD/svg11.dtd">
<svg version="1.1" id="Layer_1" xmlns="http://www.w3.org/2000/svg" xmlns:xlink="http://www.w3.org/1999/xlink" x="0px" y="0px"
	 width="700px" height="775.3px" viewBox="0 0 700 775.3" enable-background="new 0 0 700 775.3" xml:space="preserve">
<polygon fill="#EDEDED" points="697.4,773.6 1.1,775.3 1.1,0 697.4,0 "/>
<line fill="#FFFFFF" stroke="#464545" stroke-width="3" x1="700" y1="740.2" x2="1.1" y2="740.2"/>
<g>
	<rect x="209.9" y="142.7" fill="#FFFFFF" stroke="#464545" stroke-width="3" width="280.2" height="389"/>
	<rect x="233" y="165.8" fill="none" stroke="#464545" stroke-width="3" width="234" height="342.8"/>
</g>
<g>
	<path fill="#DADADA" stroke="#706F6F" stroke-width="0.9668" stroke-miterlimit="10" d="M218.2,751c0,0-7.7,8.5-15.6,8.6
		c-7.9,0.1-14.6-7.5-14.6-7.5V28.6c0,0,4.9,0,15.1,0s15.1,0,15.1,0V751z"/>
	<path fill="#DADADA" stroke="#706F6F" stroke-width="0.9662" stroke-miterlimit="10" d="M188,752.1c-6.8-2.7-10.4,1-10.4,1
		s-4.5,6.5-10.9,6.5c-8,0-13.2-7.5-13.2-7.5V28.6H188V752.1z"/>
	<path fill="#DADADA" stroke="#706F6F" stroke-width="0.9662" stroke-miterlimit="10" d="M153.5,752.1c-6.8-2.7-10.4,1-10.4,1
		s-4.5,6.5-10.9,6.5c-8,0-13.2-7.5-13.2-7.5V28.6h34.5V752.1z"/>
	<path fill="#DADADA" stroke="#706F6F" stroke-width="0.9662" stroke-miterlimit="10" d="M119,752.1c-6.8-2.7-10.4,1-10.4,1
		s-4.5,6.5-10.9,6.5c-8,0-13.2-7.5-13.2-7.5V28.6H119V752.1z"/>
</g>
<g>
	<path fill="#DADADA" stroke="#706F6F" stroke-width="0.9668" stroke-miterlimit="10" d="M480.1,751c0,0,7.7,8.5,15.6,8.6
		c7.9,0.1,14.6-7.5,14.6-7.5V28.6c0,0-4.9,0-15.1,0c-10.2,0-15.1,0-15.1,0V751z"/>
	<path fill="#DADADA" stroke="#706F6F" stroke-width="0.9662" stroke-miterlimit="10" d="M510.3,752.1c6.8-2.7,10.4,1,10.4,1
		s4.5,6.5,10.9,6.5c8,0,13.2-7.5,13.2-7.5V28.6h-34.5V752.1z"/>
	<path fill="#DADADA" stroke="#706F6F" stroke-width="0.9662" stroke-miterlimit="10" d="M544.8,752.1c6.8-2.7,10.4,1,10.4,1
		s4.5,6.5,10.9,6.5c8,0,13.2-7.5,13.2-7.5V28.6h-34.5V752.1z"/>
	<path fill="#DADADA" stroke="#706F6F" stroke-width="0.9662" stroke-miterlimit="10" d="M579.3,752.1c6.8-2.7,10.4,1,10.4,1
		s4.5,6.5,10.9,6.5c8,0,13.2-7.5,13.2-7.5V28.6h-34.5V752.1z"/>
</g>
<g>
	<g>
		<rect x="71.5" y="11" fill="#FFFFFF" stroke="#464545" stroke-width="1.9994" width="557" height="13"/>
	</g>
	<rect x="628.9" y="9" fill="#FFFFFF" stroke="#464545" stroke-width="1.5" width="24" height="17"/>
	<rect x="47.1" y="9" fill="#FFFFFF" stroke="#464545" stroke-width="1.5" width="24" height="17"/>
	<rect x="88.7" y="0" fill="#FFFFFF" stroke="#464545" stroke-width="1.2603" width="12" height="24"/>
	<rect x="599.7" y="0" fill="#FFFFFF" stroke="#464545" stroke-width="1.2603" width="12" height="24"/>
</g>
</svg>
