<?xml version="1.0" encoding="utf-8"?>
<!-- Generator: Adobe Illustrator 18.0.0, SVG Export Plug-In . SVG Version: 6.00 Build 0)  -->
<!DOCTYPE svg PUBLIC "-//W3C//DTD SVG 1.1//EN" "http://www.w3.org/Graphics/SVG/1.1/DTD/svg11.dtd">
<svg version="1.1" id="Layer_1" xmlns="http://www.w3.org/2000/svg" xmlns:xlink="http://www.w3.org/1999/xlink" x="0px" y="0px"
	 width="710px" height="729px" viewBox="0 0 710 729" enable-background="new 0 0 710 729" xml:space="preserve">
<g>
	<g>
		<rect x="214.9" y="96.4" fill="#FFFFFF" stroke="#464545" stroke-width="3" width="280.2" height="389"/>
		<rect x="238" y="119.5" fill="none" stroke="#464545" stroke-width="3" width="234" height="342.8"/>
	</g>
	<g>
		<rect x="162" y="34.5" fill="#FFFFFF" stroke="#464545" stroke-width="1.7037" width="404.4" height="13"/>
	</g>
	<rect x="545.8" y="32.5" fill="#FFFFFF" stroke="#464545" stroke-width="1.5" width="24" height="17"/>
	<rect x="140.1" y="32.5" fill="#FFFFFF" stroke="#464545" stroke-width="1.5" width="24" height="17"/>
	<g>
		<path fill="#DADADA" stroke="#706F6F" stroke-width="0.9532" stroke-miterlimit="10" d="M327.8,675c0,0,7.7,8.2,15.6,8.3
			c7.9,0.1,14.6-7.3,14.6-7.3V52.4c0,0-4.9,0-15.1,0c-10.2,0-15.1,0-15.1,0V675z"/>
		<path fill="#DADADA" stroke="#706F6F" stroke-width="0.9525" stroke-miterlimit="10" d="M358,676c4.6-2.4,8.1,0.5,8.1,0.5
			s5.2,6.8,13.2,6.8s13.2-7.3,13.2-7.3V52.4H358V676z"/>
		<path fill="#DADADA" stroke="#706F6F" stroke-width="0.9525" stroke-miterlimit="10" d="M392.5,676c4.6-2.4,8.1,0.5,8.1,0.5
			s5.2,6.8,13.2,6.8S427,676,427,676V52.4h-34.5V676z"/>
		<path fill="#DADADA" stroke="#706F6F" stroke-width="0.9525" stroke-miterlimit="10" d="M427,676c4.6-2.4,8.1,0.5,8.1,0.5
			s5.2,6.8,13.2,6.8s13.2-7.3,13.2-7.3V52.4H427V676z"/>
		<path fill="#DADADA" stroke="#706F6F" stroke-width="0.9525" stroke-miterlimit="10" d="M461.5,676c4.6-2.4,8.1,0.5,8.1,0.5
			s5.2,6.8,13.2,6.8S496,676,496,676V52.4h-34.5V676z"/>
		<path fill="#DADADA" stroke="#706F6F" stroke-width="0.9525" stroke-miterlimit="10" d="M495.3,676c4.6-2.4,8.1,0.5,8.1,0.5
			s5.2,6.8,13.2,6.8s13.2-7.3,13.2-7.3V52.4h-34.5V676z"/>
	</g>
</g>
</svg>
