<?xml version="1.0" encoding="utf-8"?>
<!-- Generator: Adobe Illustrator 18.0.0, SVG Export Plug-In . SVG Version: 6.00 Build 0)  -->
<!DOCTYPE svg PUBLIC "-//W3C//DTD SVG 1.1//EN" "http://www.w3.org/Graphics/SVG/1.1/DTD/svg11.dtd">
<svg version="1.1" id="Layer_1" xmlns="http://www.w3.org/2000/svg" xmlns:xlink="http://www.w3.org/1999/xlink" x="0px" y="0px"
	 width="440px" height="672px" viewBox="0 0 440 672" enable-background="new 0 0 440 672" xml:space="preserve">
<g>
	<g>
		<rect x="79.5" y="72.8" fill="#FFFFFF" stroke="#464545" stroke-width="3" width="280.2" height="389"/>
		<rect x="102.6" y="95.9" fill="none" stroke="#464545" stroke-width="3" width="234" height="342.8"/>
	</g>
	<g>
		<rect x="26.6" y="10.9" fill="#FFFFFF" stroke="#464545" stroke-width="1.7037" width="404.4" height="13"/>
	</g>
	<rect x="410.5" y="8.9" fill="#FFFFFF" stroke="#464545" stroke-width="1.5" width="24" height="17"/>
	<rect x="4.7" y="8.9" fill="#FFFFFF" stroke="#464545" stroke-width="1.5" width="24" height="17"/>
	<g>
		<path fill="#DADADA" stroke="#706F6F" stroke-width="0.9532" stroke-miterlimit="10" d="M248.7,650.4c0,0-7.7,8.2-15.6,8.3
			c-7.9,0.1-14.6-7.3-14.6-7.3V28.8c0,0,4.9,0,15.1,0s15.1,0,15.1,0V650.4z"/>
		<path fill="#DADADA" stroke="#706F6F" stroke-width="0.9525" stroke-miterlimit="10" d="M218.5,651.4c-4.6-2.4-8.1,0.5-8.1,0.5
			s-5.2,6.8-13.2,6.8s-13.2-7.3-13.2-7.3V28.8h34.5V651.4z"/>
		<path fill="#DADADA" stroke="#706F6F" stroke-width="0.9525" stroke-miterlimit="10" d="M184,651.4c-4.6-2.4-8.1,0.5-8.1,0.5
			s-5.2,6.8-13.2,6.8s-13.2-7.3-13.2-7.3V28.8H184V651.4z"/>
		<path fill="#DADADA" stroke="#706F6F" stroke-width="0.9525" stroke-miterlimit="10" d="M149.5,651.4c-4.6-2.4-8.1,0.5-8.1,0.5
			s-5.2,6.8-13.2,6.8s-13.2-7.3-13.2-7.3V28.8h34.5V651.4z"/>
		<path fill="#DADADA" stroke="#706F6F" stroke-width="0.9525" stroke-miterlimit="10" d="M115,651.4c-4.6-2.4-8.1,0.5-8.1,0.5
			s-5.2,6.8-13.2,6.8s-13.2-7.3-13.2-7.3V28.8H115V651.4z"/>
		<path fill="#DADADA" stroke="#706F6F" stroke-width="0.9525" stroke-miterlimit="10" d="M80.5,651.4c-4.6-2.4-8.1,0.5-8.1,0.5
			s-5.2,6.8-13.2,6.8S46,651.4,46,651.4V28.8h34.5V651.4z"/>
	</g>
</g>
</svg>
