<?xml version="1.0" encoding="utf-8"?>
<!-- Generator: Adobe Illustrator 18.0.0, SVG Export Plug-In . SVG Version: 6.00 Build 0)  -->
<!DOCTYPE svg PUBLIC "-//W3C//DTD SVG 1.1//EN" "http://www.w3.org/Graphics/SVG/1.1/DTD/svg11.dtd">
<svg version="1.1" id="Layer_1" xmlns="http://www.w3.org/2000/svg" xmlns:xlink="http://www.w3.org/1999/xlink" x="0px" y="0px"
	 width="710px" height="729px" viewBox="0 0 710 729" enable-background="new 0 0 710 729" xml:space="preserve">
<g>
	<rect x="195" y="96.4" fill="none" stroke="#464545" stroke-width="2.8284" width="320" height="389"/>
	<rect x="216.3" y="119.5" fill="none" stroke="#464545" stroke-width="2.8813" width="277.4" height="342.8"/>
</g>
<g>
	<g>
		<g>
			<rect x="120" y="34.5" fill="#FFFFFF" width="470" height="13"/>
			<rect x="120" y="34.5" fill="none" stroke="#464545" stroke-width="1.7037" width="470" height="13"/>
		</g>
	</g>
</g>
<rect x="590" y="32.5" fill="#FFFFFF" stroke="#464545" stroke-width="1.5" width="24" height="17"/>
<rect x="96" y="32.5" fill="#FFFFFF" stroke="#464545" stroke-width="1.5" width="24" height="17"/>
<g>
	<g>
		<line fill="none" stroke="#464545" stroke-width="3.1051" x1="229.9" y1="220" x2="480.1" y2="220"/>
		<g>
			<polygon fill="#464545" points="232.6,229.2 216.5,220 232.6,210.7 			"/>
		</g>
		<g>
			<polygon fill="#464545" points="477.4,229.2 493.5,220 477.4,210.7 			"/>
		</g>
	</g>
</g>
<g>
	<path fill="#DADADA" stroke="#706F6F" stroke-width="0.9532" stroke-miterlimit="10" d="M255.8,675c0,0,7.7,8.2,15.6,8.3
		c7.9,0.1,14.6-7.3,14.6-7.3V52.4c0,0-4.9,0-15.1,0c-10.2,0-15.1,0-15.1,0V675z"/>
	<path fill="#DADADA" stroke="#706F6F" stroke-width="0.9525" stroke-miterlimit="10" d="M286,676c4.6-2.4,8.1,0.5,8.1,0.5
		s5.2,6.8,13.2,6.8s13.2-7.3,13.2-7.3V52.4H286V676z"/>
	<path fill="#DADADA" stroke="#706F6F" stroke-width="0.9525" stroke-miterlimit="10" d="M320.5,676c4.6-2.4,8.1,0.5,8.1,0.5
		s5.2,6.8,13.2,6.8S355,676,355,676V52.4h-34.5V676z"/>
	<path fill="#DADADA" stroke="#706F6F" stroke-width="0.9525" stroke-miterlimit="10" d="M355,676c4.6-2.4,8.1,0.5,8.1,0.5
		s5.2,6.8,13.2,6.8s13.2-7.3,13.2-7.3V52.4H355V676z"/>
	<path fill="#DADADA" stroke="#706F6F" stroke-width="0.9525" stroke-miterlimit="10" d="M389.5,676c4.6-2.4,8.1,0.5,8.1,0.5
		s5.2,6.8,13.2,6.8S424,676,424,676V52.4h-34.5V676z"/>
	<path fill="#DADADA" stroke="#706F6F" stroke-width="0.9532" stroke-miterlimit="10" d="M424,675c0,0,7.7,8.2,15.6,8.3
		c7.9,0.1,14.6-7.3,14.6-7.3V52.4c0,0-4.9,0-15.1,0c-10.2,0-15.1,0-15.1,0V675z"/>
</g>
</svg>
