<svg xmlns="http://www.w3.org/2000/svg" xmlns:xlink="http://www.w3.org/1999/xlink" width="240" height="211.869" viewBox="0 0 240 211.869">
  <defs>
    <style>
      .cls-1, .cls-4, .cls-7, .cls-8 {
        fill: none;
      }

      .cls-2, .cls-5, .cls-6 {
        fill: #fff;
      }

      .cls-2 {
        stroke: #454545;
        stroke-width: 1.1px;
      }

      .cls-3 {
        fill: #e2e2e2;
      }

      .cls-4 {
        stroke: rgba(112,112,112,0.7);
      }

      .cls-4, .cls-8 {
        stroke-width: 2px;
      }

      .cls-5, .cls-7 {
        stroke: rgba(123,123,123,0.7);
      }

      .cls-8 {
        stroke: #606060;
      }

      .cls-9 {
        fill: #606060;
      }

      .cls-10 {
        stroke: none;
      }

      .cls-11 {
        filter: url(#Rectangle_49-8);
      }

      .cls-12 {
        filter: url(#Rectangle_49-7);
      }

      .cls-13 {
        filter: url(#Rectangle_46-8);
      }

      .cls-14 {
        filter: url(#Rectangle_46-7);
      }

      .cls-15 {
        filter: url(#Rectangle_43-8);
      }

      .cls-16 {
        filter: url(#Rectangle_43-7);
      }

      .cls-17 {
        filter: url(#Rectangle_13-8);
      }

      .cls-18 {
        filter: url(#Rectangle_13-7);
      }

      .cls-19 {
        filter: url(#Rectangle_49-6);
      }

      .cls-20 {
        filter: url(#Rectangle_49-5);
      }

      .cls-21 {
        filter: url(#Rectangle_46-6);
      }

      .cls-22 {
        filter: url(#Rectangle_46-5);
      }

      .cls-23 {
        filter: url(#Rectangle_43-6);
      }

      .cls-24 {
        filter: url(#Rectangle_43-5);
      }

      .cls-25 {
        filter: url(#Rectangle_13-6);
      }

      .cls-26 {
        filter: url(#Rectangle_13-5);
      }

      .cls-27 {
        filter: url(#Rectangle_49-4);
      }

      .cls-28 {
        filter: url(#Rectangle_49-3);
      }

      .cls-29 {
        filter: url(#Rectangle_46-4);
      }

      .cls-30 {
        filter: url(#Rectangle_46-3);
      }

      .cls-31 {
        filter: url(#Rectangle_43-4);
      }

      .cls-32 {
        filter: url(#Rectangle_43-3);
      }

      .cls-33 {
        filter: url(#Rectangle_13-4);
      }

      .cls-34 {
        filter: url(#Rectangle_13-3);
      }

      .cls-35 {
        filter: url(#Rectangle_49-2);
      }

      .cls-36 {
        filter: url(#Rectangle_49);
      }

      .cls-37 {
        filter: url(#Rectangle_46-2);
      }

      .cls-38 {
        filter: url(#Rectangle_46);
      }

      .cls-39 {
        filter: url(#Rectangle_43-2);
      }

      .cls-40 {
        filter: url(#Rectangle_43);
      }

      .cls-41 {
        filter: url(#Rectangle_13-2);
      }

      .cls-42 {
        filter: url(#Rectangle_13);
      }
    </style>
    <filter id="Rectangle_13" x="181" y="0" width="23" height="211.482" filterUnits="userSpaceOnUse">
      <feOffset input="SourceAlpha"/>
      <feGaussianBlur stdDeviation="3" result="blur"/>
      <feFlood flood-opacity="0.161"/>
      <feComposite operator="in" in2="blur"/>
    </filter>
    <filter id="Rectangle_13-2" x="181" y="0" width="23" height="211.482" filterUnits="userSpaceOnUse">
      <feOffset dx="-0.01" input="SourceAlpha"/>
      <feGaussianBlur stdDeviation="1.2" result="blur-2"/>
      <feFlood result="color"/>
      <feComposite operator="out" in="SourceGraphic" in2="blur-2"/>
      <feComposite operator="in" in="color"/>
      <feComposite operator="in" in2="SourceGraphic"/>
    </filter>
    <filter id="Rectangle_43" x="192" y="0" width="23" height="211.482" filterUnits="userSpaceOnUse">
      <feOffset input="SourceAlpha"/>
      <feGaussianBlur stdDeviation="3" result="blur-3"/>
      <feFlood flood-opacity="0.161"/>
      <feComposite operator="in" in2="blur-3"/>
    </filter>
    <filter id="Rectangle_43-2" x="192" y="0" width="23" height="211.482" filterUnits="userSpaceOnUse">
      <feOffset dx="-0.01" input="SourceAlpha"/>
      <feGaussianBlur stdDeviation="1.2" result="blur-4"/>
      <feFlood result="color-2"/>
      <feComposite operator="out" in="SourceGraphic" in2="blur-4"/>
      <feComposite operator="in" in="color-2"/>
      <feComposite operator="in" in2="SourceGraphic"/>
    </filter>
    <filter id="Rectangle_46" x="203" y="0" width="23" height="211.482" filterUnits="userSpaceOnUse">
      <feOffset input="SourceAlpha"/>
      <feGaussianBlur stdDeviation="3" result="blur-5"/>
      <feFlood flood-opacity="0.161"/>
      <feComposite operator="in" in2="blur-5"/>
    </filter>
    <filter id="Rectangle_46-2" x="203" y="0" width="23" height="211.482" filterUnits="userSpaceOnUse">
      <feOffset dx="-0.01" input="SourceAlpha"/>
      <feGaussianBlur stdDeviation="1.2" result="blur-6"/>
      <feFlood result="color-3"/>
      <feComposite operator="out" in="SourceGraphic" in2="blur-6"/>
      <feComposite operator="in" in="color-3"/>
      <feComposite operator="in" in2="SourceGraphic"/>
    </filter>
    <filter id="Rectangle_49" x="214" y="0" width="23" height="211.482" filterUnits="userSpaceOnUse">
      <feOffset input="SourceAlpha"/>
      <feGaussianBlur stdDeviation="3" result="blur-7"/>
      <feFlood flood-opacity="0.161"/>
      <feComposite operator="in" in2="blur-7"/>
    </filter>
    <filter id="Rectangle_49-2" x="214" y="0" width="23" height="211.482" filterUnits="userSpaceOnUse">
      <feOffset dx="-0.01" input="SourceAlpha"/>
      <feGaussianBlur stdDeviation="1.2" result="blur-8"/>
      <feFlood result="color-4"/>
      <feComposite operator="out" in="SourceGraphic" in2="blur-8"/>
      <feComposite operator="in" in="color-4"/>
      <feComposite operator="in" in2="SourceGraphic"/>
    </filter>
    <filter id="Rectangle_13-3" x="3" y="0" width="23" height="211.482" filterUnits="userSpaceOnUse">
      <feOffset input="SourceAlpha"/>
      <feGaussianBlur stdDeviation="3" result="blur-9"/>
      <feFlood flood-opacity="0.161"/>
      <feComposite operator="in" in2="blur-9"/>
    </filter>
    <filter id="Rectangle_13-4" x="3" y="0" width="23" height="211.482" filterUnits="userSpaceOnUse">
      <feOffset dx="-0.01" input="SourceAlpha"/>
      <feGaussianBlur stdDeviation="1.2" result="blur-10"/>
      <feFlood result="color-5"/>
      <feComposite operator="out" in="SourceGraphic" in2="blur-10"/>
      <feComposite operator="in" in="color-5"/>
      <feComposite operator="in" in2="SourceGraphic"/>
    </filter>
    <filter id="Rectangle_43-3" x="14" y="0" width="23" height="211.482" filterUnits="userSpaceOnUse">
      <feOffset input="SourceAlpha"/>
      <feGaussianBlur stdDeviation="3" result="blur-11"/>
      <feFlood flood-opacity="0.161"/>
      <feComposite operator="in" in2="blur-11"/>
    </filter>
    <filter id="Rectangle_43-4" x="14" y="0" width="23" height="211.482" filterUnits="userSpaceOnUse">
      <feOffset dx="-0.01" input="SourceAlpha"/>
      <feGaussianBlur stdDeviation="1.2" result="blur-12"/>
      <feFlood result="color-6"/>
      <feComposite operator="out" in="SourceGraphic" in2="blur-12"/>
      <feComposite operator="in" in="color-6"/>
      <feComposite operator="in" in2="SourceGraphic"/>
    </filter>
    <filter id="Rectangle_46-3" x="25" y="0" width="23" height="211.482" filterUnits="userSpaceOnUse">
      <feOffset input="SourceAlpha"/>
      <feGaussianBlur stdDeviation="3" result="blur-13"/>
      <feFlood flood-opacity="0.161"/>
      <feComposite operator="in" in2="blur-13"/>
    </filter>
    <filter id="Rectangle_46-4" x="25" y="0" width="23" height="211.482" filterUnits="userSpaceOnUse">
      <feOffset dx="-0.01" input="SourceAlpha"/>
      <feGaussianBlur stdDeviation="1.2" result="blur-14"/>
      <feFlood result="color-7"/>
      <feComposite operator="out" in="SourceGraphic" in2="blur-14"/>
      <feComposite operator="in" in="color-7"/>
      <feComposite operator="in" in2="SourceGraphic"/>
    </filter>
    <filter id="Rectangle_49-3" x="36" y="0" width="23" height="211.482" filterUnits="userSpaceOnUse">
      <feOffset input="SourceAlpha"/>
      <feGaussianBlur stdDeviation="3" result="blur-15"/>
      <feFlood flood-opacity="0.161"/>
      <feComposite operator="in" in2="blur-15"/>
    </filter>
    <filter id="Rectangle_49-4" x="36" y="0" width="23" height="211.482" filterUnits="userSpaceOnUse">
      <feOffset dx="-0.01" input="SourceAlpha"/>
      <feGaussianBlur stdDeviation="1.2" result="blur-16"/>
      <feFlood result="color-8"/>
      <feComposite operator="out" in="SourceGraphic" in2="blur-16"/>
      <feComposite operator="in" in="color-8"/>
      <feComposite operator="in" in2="SourceGraphic"/>
    </filter>
    <filter id="Rectangle_13-5" x="62" y="0" width="23" height="211.482" filterUnits="userSpaceOnUse">
      <feOffset input="SourceAlpha"/>
      <feGaussianBlur stdDeviation="3" result="blur-17"/>
      <feFlood flood-opacity="0.161"/>
      <feComposite operator="in" in2="blur-17"/>
    </filter>
    <filter id="Rectangle_13-6" x="62" y="0" width="23" height="211.482" filterUnits="userSpaceOnUse">
      <feOffset dx="-0.01" input="SourceAlpha"/>
      <feGaussianBlur stdDeviation="1.2" result="blur-18"/>
      <feFlood result="color-9"/>
      <feComposite operator="out" in="SourceGraphic" in2="blur-18"/>
      <feComposite operator="in" in="color-9"/>
      <feComposite operator="in" in2="SourceGraphic"/>
    </filter>
    <filter id="Rectangle_43-5" x="73" y="0" width="23" height="211.482" filterUnits="userSpaceOnUse">
      <feOffset input="SourceAlpha"/>
      <feGaussianBlur stdDeviation="3" result="blur-19"/>
      <feFlood flood-opacity="0.161"/>
      <feComposite operator="in" in2="blur-19"/>
    </filter>
    <filter id="Rectangle_43-6" x="73" y="0" width="23" height="211.482" filterUnits="userSpaceOnUse">
      <feOffset dx="-0.01" input="SourceAlpha"/>
      <feGaussianBlur stdDeviation="1.2" result="blur-20"/>
      <feFlood result="color-10"/>
      <feComposite operator="out" in="SourceGraphic" in2="blur-20"/>
      <feComposite operator="in" in="color-10"/>
      <feComposite operator="in" in2="SourceGraphic"/>
    </filter>
    <filter id="Rectangle_46-5" x="84" y="0" width="23" height="211.482" filterUnits="userSpaceOnUse">
      <feOffset input="SourceAlpha"/>
      <feGaussianBlur stdDeviation="3" result="blur-21"/>
      <feFlood flood-opacity="0.161"/>
      <feComposite operator="in" in2="blur-21"/>
    </filter>
    <filter id="Rectangle_46-6" x="84" y="0" width="23" height="211.482" filterUnits="userSpaceOnUse">
      <feOffset dx="-0.01" input="SourceAlpha"/>
      <feGaussianBlur stdDeviation="1.2" result="blur-22"/>
      <feFlood result="color-11"/>
      <feComposite operator="out" in="SourceGraphic" in2="blur-22"/>
      <feComposite operator="in" in="color-11"/>
      <feComposite operator="in" in2="SourceGraphic"/>
    </filter>
    <filter id="Rectangle_49-5" x="95" y="0" width="23" height="211.482" filterUnits="userSpaceOnUse">
      <feOffset input="SourceAlpha"/>
      <feGaussianBlur stdDeviation="3" result="blur-23"/>
      <feFlood flood-opacity="0.161"/>
      <feComposite operator="in" in2="blur-23"/>
    </filter>
    <filter id="Rectangle_49-6" x="95" y="0" width="23" height="211.482" filterUnits="userSpaceOnUse">
      <feOffset dx="-0.01" input="SourceAlpha"/>
      <feGaussianBlur stdDeviation="1.2" result="blur-24"/>
      <feFlood result="color-12"/>
      <feComposite operator="out" in="SourceGraphic" in2="blur-24"/>
      <feComposite operator="in" in="color-12"/>
      <feComposite operator="in" in2="SourceGraphic"/>
    </filter>
    <filter id="Rectangle_13-7" x="122" y="0" width="23" height="211.482" filterUnits="userSpaceOnUse">
      <feOffset input="SourceAlpha"/>
      <feGaussianBlur stdDeviation="3" result="blur-25"/>
      <feFlood flood-opacity="0.161"/>
      <feComposite operator="in" in2="blur-25"/>
    </filter>
    <filter id="Rectangle_13-8" x="122" y="0" width="23" height="211.482" filterUnits="userSpaceOnUse">
      <feOffset dx="-0.01" input="SourceAlpha"/>
      <feGaussianBlur stdDeviation="1.2" result="blur-26"/>
      <feFlood result="color-13"/>
      <feComposite operator="out" in="SourceGraphic" in2="blur-26"/>
      <feComposite operator="in" in="color-13"/>
      <feComposite operator="in" in2="SourceGraphic"/>
    </filter>
    <filter id="Rectangle_43-7" x="133" y="0" width="23" height="211.482" filterUnits="userSpaceOnUse">
      <feOffset input="SourceAlpha"/>
      <feGaussianBlur stdDeviation="3" result="blur-27"/>
      <feFlood flood-opacity="0.161"/>
      <feComposite operator="in" in2="blur-27"/>
    </filter>
    <filter id="Rectangle_43-8" x="133" y="0" width="23" height="211.482" filterUnits="userSpaceOnUse">
      <feOffset dx="-0.01" input="SourceAlpha"/>
      <feGaussianBlur stdDeviation="1.2" result="blur-28"/>
      <feFlood result="color-14"/>
      <feComposite operator="out" in="SourceGraphic" in2="blur-28"/>
      <feComposite operator="in" in="color-14"/>
      <feComposite operator="in" in2="SourceGraphic"/>
    </filter>
    <filter id="Rectangle_46-7" x="144" y="0" width="23" height="211.482" filterUnits="userSpaceOnUse">
      <feOffset input="SourceAlpha"/>
      <feGaussianBlur stdDeviation="3" result="blur-29"/>
      <feFlood flood-opacity="0.161"/>
      <feComposite operator="in" in2="blur-29"/>
    </filter>
    <filter id="Rectangle_46-8" x="144" y="0" width="23" height="211.482" filterUnits="userSpaceOnUse">
      <feOffset dx="-0.01" input="SourceAlpha"/>
      <feGaussianBlur stdDeviation="1.2" result="blur-30"/>
      <feFlood result="color-15"/>
      <feComposite operator="out" in="SourceGraphic" in2="blur-30"/>
      <feComposite operator="in" in="color-15"/>
      <feComposite operator="in" in2="SourceGraphic"/>
    </filter>
    <filter id="Rectangle_49-7" x="155" y="0" width="23" height="211.482" filterUnits="userSpaceOnUse">
      <feOffset input="SourceAlpha"/>
      <feGaussianBlur stdDeviation="3" result="blur-31"/>
      <feFlood flood-opacity="0.161"/>
      <feComposite operator="in" in2="blur-31"/>
    </filter>
    <filter id="Rectangle_49-8" x="155" y="0" width="23" height="211.482" filterUnits="userSpaceOnUse">
      <feOffset dx="-0.01" input="SourceAlpha"/>
      <feGaussianBlur stdDeviation="1.2" result="blur-32"/>
      <feFlood result="color-16"/>
      <feComposite operator="out" in="SourceGraphic" in2="blur-32"/>
      <feComposite operator="in" in="color-16"/>
      <feComposite operator="in" in2="SourceGraphic"/>
    </filter>
  </defs>
  <g id="Group_42" data-name="Group 42" transform="translate(-773.625 -273.529)">
    <rect id="Rectangle_51" data-name="Rectangle 51" class="cls-1" width="232.562" height="206" transform="translate(777.625 279.398)"/>
    <g id="Rectangle_4" data-name="Rectangle 4" class="cls-2" transform="translate(797.42 300.651)">
      <rect class="cls-10" width="192.629" height="131.563"/>
      <rect class="cls-1" x="0.55" y="0.55" width="191.529" height="130.463"/>
    </g>
    <g id="Rectangle_5" data-name="Rectangle 5" class="cls-2" transform="translate(805.711 308.942)">
      <rect class="cls-10" width="176.048" height="114.982"/>
      <rect class="cls-1" x="0.55" y="0.55" width="174.948" height="113.882"/>
    </g>
    <g id="Group_3" data-name="Group 3" transform="translate(963.626 282)">
      <rect id="wrapper1" class="cls-3" width="37.789" height="193.611" transform="translate(0.211)"/>
      <line id="Line_12" data-name="Line 12" class="cls-4" x2="1.658" transform="translate(4.54 4.185)"/>
      <line id="Line_34" data-name="Line 34" class="cls-4" x2="1.658" transform="translate(15.54 4.185)"/>
      <line id="Line_38" data-name="Line 38" class="cls-4" x2="1.658" transform="translate(26.54 4.185)"/>
      <line id="Line_30" data-name="Line 30" class="cls-4" x2="1.658" transform="translate(4.422 192.485)"/>
      <line id="Line_33" data-name="Line 33" class="cls-4" x2="1.658" transform="translate(15.422 192.485)"/>
      <line id="Line_37" data-name="Line 37" class="cls-4" x2="1.658" transform="translate(26.422 192.485)"/>
      <line id="Line_13" data-name="Line 13" class="cls-4" x2="1.658" transform="translate(9.514 4.185)"/>
      <line id="Line_32" data-name="Line 32" class="cls-4" x2="1.658" transform="translate(20.514 4.185)"/>
      <line id="Line_36" data-name="Line 36" class="cls-4" x2="1.658" transform="translate(31.514 4.185)"/>
      <line id="Line_29" data-name="Line 29" class="cls-4" x2="1.658" transform="translate(9.396 192.485)"/>
      <line id="Line_31" data-name="Line 31" class="cls-4" x2="1.658" transform="translate(20.396 192.485)"/>
      <line id="Line_35" data-name="Line 35" class="cls-4" x2="1.658" transform="translate(31.396 192.485)"/>
      <g data-type="innerShadowGroup">
        <g class="cls-42" transform="matrix(1, 0, 0, 1, -190, -8.47)">
          <g id="Rectangle_13-9" data-name="Rectangle 13" class="cls-5" transform="translate(190 9)">
            <rect class="cls-10" width="5" height="193.482" rx="2.5"/>
            <rect class="cls-1" x="0.5" y="0.5" width="4" height="192.482" rx="2"/>
          </g>
        </g>
        <rect id="Rectangle_13-10" data-name="Rectangle 13" class="cls-6" width="5" height="193.482" rx="2.5" transform="translate(0 0.529)"/>
        <g class="cls-41" transform="matrix(1, 0, 0, 1, -190, -8.47)">
          <rect id="Rectangle_13-11" data-name="Rectangle 13" class="cls-6" width="5" height="193.482" rx="2.5" transform="translate(190 9)"/>
        </g>
        <g id="Rectangle_13-12" data-name="Rectangle 13" class="cls-7" transform="translate(0 0.529)">
          <rect class="cls-10" width="5" height="193.482" rx="2.5"/>
          <rect class="cls-1" x="0.5" y="0.5" width="4" height="192.482" rx="2"/>
        </g>
      </g>
      <g data-type="innerShadowGroup">
        <g class="cls-40" transform="matrix(1, 0, 0, 1, -190, -8.47)">
          <g id="Rectangle_43-9" data-name="Rectangle 43" class="cls-5" transform="translate(201 9)">
            <rect class="cls-10" width="5" height="193.482" rx="2.5"/>
            <rect class="cls-1" x="0.5" y="0.5" width="4" height="192.482" rx="2"/>
          </g>
        </g>
        <rect id="Rectangle_43-10" data-name="Rectangle 43" class="cls-6" width="5" height="193.482" rx="2.5" transform="translate(11 0.529)"/>
        <g class="cls-39" transform="matrix(1, 0, 0, 1, -190, -8.47)">
          <rect id="Rectangle_43-11" data-name="Rectangle 43" class="cls-6" width="5" height="193.482" rx="2.5" transform="translate(201 9)"/>
        </g>
        <g id="Rectangle_43-12" data-name="Rectangle 43" class="cls-7" transform="translate(11 0.529)">
          <rect class="cls-10" width="5" height="193.482" rx="2.5"/>
          <rect class="cls-1" x="0.5" y="0.5" width="4" height="192.482" rx="2"/>
        </g>
      </g>
      <g data-type="innerShadowGroup">
        <g class="cls-38" transform="matrix(1, 0, 0, 1, -190, -8.47)">
          <g id="Rectangle_46-9" data-name="Rectangle 46" class="cls-5" transform="translate(212 9)">
            <rect class="cls-10" width="5" height="193.482" rx="2.5"/>
            <rect class="cls-1" x="0.5" y="0.5" width="4" height="192.482" rx="2"/>
          </g>
        </g>
        <rect id="Rectangle_46-10" data-name="Rectangle 46" class="cls-6" width="5" height="193.482" rx="2.5" transform="translate(22 0.529)"/>
        <g class="cls-37" transform="matrix(1, 0, 0, 1, -190, -8.47)">
          <rect id="Rectangle_46-11" data-name="Rectangle 46" class="cls-6" width="5" height="193.482" rx="2.5" transform="translate(212 9)"/>
        </g>
        <g id="Rectangle_46-12" data-name="Rectangle 46" class="cls-7" transform="translate(22 0.529)">
          <rect class="cls-10" width="5" height="193.482" rx="2.5"/>
          <rect class="cls-1" x="0.5" y="0.5" width="4" height="192.482" rx="2"/>
        </g>
      </g>
      <g data-type="innerShadowGroup">
        <g class="cls-36" transform="matrix(1, 0, 0, 1, -190, -8.47)">
          <g id="Rectangle_49-9" data-name="Rectangle 49" class="cls-5" transform="translate(223 9)">
            <rect class="cls-10" width="5" height="193.482" rx="2.5"/>
            <rect class="cls-1" x="0.5" y="0.5" width="4" height="192.482" rx="2"/>
          </g>
        </g>
        <rect id="Rectangle_49-10" data-name="Rectangle 49" class="cls-6" width="5" height="193.482" rx="2.5" transform="translate(33 0.529)"/>
        <g class="cls-35" transform="matrix(1, 0, 0, 1, -190, -8.47)">
          <rect id="Rectangle_49-11" data-name="Rectangle 49" class="cls-6" width="5" height="193.482" rx="2.5" transform="translate(223 9)"/>
        </g>
        <g id="Rectangle_49-12" data-name="Rectangle 49" class="cls-7" transform="translate(33 0.529)">
          <rect class="cls-10" width="5" height="193.482" rx="2.5"/>
          <rect class="cls-1" x="0.5" y="0.5" width="4" height="192.482" rx="2"/>
        </g>
      </g>
      <g id="Rectangle_14" data-name="Rectangle 14" class="cls-5" transform="translate(5.645 0.529)">
        <rect class="cls-10" width="4.422" height="193.482"/>
        <rect class="cls-1" x="0.5" y="0.5" width="3.422" height="192.482"/>
      </g>
      <g id="Rectangle_42" data-name="Rectangle 42" class="cls-5" transform="translate(16.645 0.529)">
        <rect class="cls-10" width="4.422" height="193.482"/>
        <rect class="cls-1" x="0.5" y="0.5" width="3.422" height="192.482"/>
      </g>
      <g id="Rectangle_45" data-name="Rectangle 45" class="cls-5" transform="translate(27.645 0.529)">
        <rect class="cls-10" width="4.422" height="193.482"/>
        <rect class="cls-1" x="0.5" y="0.5" width="3.422" height="192.482"/>
      </g>
    </g>
    <g id="Group_43" data-name="Group 43" transform="translate(785.626 282)">
      <rect id="wrapper1-2" data-name="wrapper1" class="cls-3" width="37.789" height="193.611" transform="translate(0.211)"/>
      <line id="Line_12-2" data-name="Line 12" class="cls-4" x2="1.658" transform="translate(4.54 4.185)"/>
      <line id="Line_34-2" data-name="Line 34" class="cls-4" x2="1.658" transform="translate(15.54 4.185)"/>
      <line id="Line_38-2" data-name="Line 38" class="cls-4" x2="1.658" transform="translate(26.54 4.185)"/>
      <line id="Line_30-2" data-name="Line 30" class="cls-4" x2="1.658" transform="translate(4.422 192.485)"/>
      <line id="Line_33-2" data-name="Line 33" class="cls-4" x2="1.658" transform="translate(15.422 192.485)"/>
      <line id="Line_37-2" data-name="Line 37" class="cls-4" x2="1.658" transform="translate(26.422 192.485)"/>
      <line id="Line_13-2" data-name="Line 13" class="cls-4" x2="1.658" transform="translate(9.514 4.185)"/>
      <line id="Line_32-2" data-name="Line 32" class="cls-4" x2="1.658" transform="translate(20.514 4.185)"/>
      <line id="Line_36-2" data-name="Line 36" class="cls-4" x2="1.658" transform="translate(31.514 4.185)"/>
      <line id="Line_29-2" data-name="Line 29" class="cls-4" x2="1.658" transform="translate(9.396 192.485)"/>
      <line id="Line_31-2" data-name="Line 31" class="cls-4" x2="1.658" transform="translate(20.396 192.485)"/>
      <line id="Line_35-2" data-name="Line 35" class="cls-4" x2="1.658" transform="translate(31.396 192.485)"/>
      <g data-type="innerShadowGroup">
        <g class="cls-34" transform="matrix(1, 0, 0, 1, -12, -8.47)">
          <g id="Rectangle_13-13" data-name="Rectangle 13" class="cls-5" transform="translate(12 9)">
            <rect class="cls-10" width="5" height="193.482" rx="2.5"/>
            <rect class="cls-1" x="0.5" y="0.5" width="4" height="192.482" rx="2"/>
          </g>
        </g>
        <rect id="Rectangle_13-14" data-name="Rectangle 13" class="cls-6" width="5" height="193.482" rx="2.5" transform="translate(0 0.529)"/>
        <g class="cls-33" transform="matrix(1, 0, 0, 1, -12, -8.47)">
          <rect id="Rectangle_13-15" data-name="Rectangle 13" class="cls-6" width="5" height="193.482" rx="2.5" transform="translate(12 9)"/>
        </g>
        <g id="Rectangle_13-16" data-name="Rectangle 13" class="cls-7" transform="translate(0 0.529)">
          <rect class="cls-10" width="5" height="193.482" rx="2.5"/>
          <rect class="cls-1" x="0.5" y="0.5" width="4" height="192.482" rx="2"/>
        </g>
      </g>
      <g data-type="innerShadowGroup">
        <g class="cls-32" transform="matrix(1, 0, 0, 1, -12, -8.47)">
          <g id="Rectangle_43-13" data-name="Rectangle 43" class="cls-5" transform="translate(23 9)">
            <rect class="cls-10" width="5" height="193.482" rx="2.5"/>
            <rect class="cls-1" x="0.5" y="0.5" width="4" height="192.482" rx="2"/>
          </g>
        </g>
        <rect id="Rectangle_43-14" data-name="Rectangle 43" class="cls-6" width="5" height="193.482" rx="2.5" transform="translate(11 0.529)"/>
        <g class="cls-31" transform="matrix(1, 0, 0, 1, -12, -8.47)">
          <rect id="Rectangle_43-15" data-name="Rectangle 43" class="cls-6" width="5" height="193.482" rx="2.5" transform="translate(23 9)"/>
        </g>
        <g id="Rectangle_43-16" data-name="Rectangle 43" class="cls-7" transform="translate(11 0.529)">
          <rect class="cls-10" width="5" height="193.482" rx="2.5"/>
          <rect class="cls-1" x="0.5" y="0.5" width="4" height="192.482" rx="2"/>
        </g>
      </g>
      <g data-type="innerShadowGroup">
        <g class="cls-30" transform="matrix(1, 0, 0, 1, -12, -8.47)">
          <g id="Rectangle_46-13" data-name="Rectangle 46" class="cls-5" transform="translate(34 9)">
            <rect class="cls-10" width="5" height="193.482" rx="2.5"/>
            <rect class="cls-1" x="0.5" y="0.5" width="4" height="192.482" rx="2"/>
          </g>
        </g>
        <rect id="Rectangle_46-14" data-name="Rectangle 46" class="cls-6" width="5" height="193.482" rx="2.5" transform="translate(22 0.529)"/>
        <g class="cls-29" transform="matrix(1, 0, 0, 1, -12, -8.47)">
          <rect id="Rectangle_46-15" data-name="Rectangle 46" class="cls-6" width="5" height="193.482" rx="2.5" transform="translate(34 9)"/>
        </g>
        <g id="Rectangle_46-16" data-name="Rectangle 46" class="cls-7" transform="translate(22 0.529)">
          <rect class="cls-10" width="5" height="193.482" rx="2.5"/>
          <rect class="cls-1" x="0.5" y="0.5" width="4" height="192.482" rx="2"/>
        </g>
      </g>
      <g data-type="innerShadowGroup">
        <g class="cls-28" transform="matrix(1, 0, 0, 1, -12, -8.47)">
          <g id="Rectangle_49-13" data-name="Rectangle 49" class="cls-5" transform="translate(45 9)">
            <rect class="cls-10" width="5" height="193.482" rx="2.5"/>
            <rect class="cls-1" x="0.5" y="0.5" width="4" height="192.482" rx="2"/>
          </g>
        </g>
        <rect id="Rectangle_49-14" data-name="Rectangle 49" class="cls-6" width="5" height="193.482" rx="2.5" transform="translate(33 0.529)"/>
        <g class="cls-27" transform="matrix(1, 0, 0, 1, -12, -8.47)">
          <rect id="Rectangle_49-15" data-name="Rectangle 49" class="cls-6" width="5" height="193.482" rx="2.5" transform="translate(45 9)"/>
        </g>
        <g id="Rectangle_49-16" data-name="Rectangle 49" class="cls-7" transform="translate(33 0.529)">
          <rect class="cls-10" width="5" height="193.482" rx="2.5"/>
          <rect class="cls-1" x="0.5" y="0.5" width="4" height="192.482" rx="2"/>
        </g>
      </g>
      <g id="Rectangle_14-2" data-name="Rectangle 14" class="cls-5" transform="translate(5.645 0.529)">
        <rect class="cls-10" width="4.422" height="193.482"/>
        <rect class="cls-1" x="0.5" y="0.5" width="3.422" height="192.482"/>
      </g>
      <g id="Rectangle_42-2" data-name="Rectangle 42" class="cls-5" transform="translate(16.645 0.529)">
        <rect class="cls-10" width="4.422" height="193.482"/>
        <rect class="cls-1" x="0.5" y="0.5" width="3.422" height="192.482"/>
      </g>
      <g id="Rectangle_45-2" data-name="Rectangle 45" class="cls-5" transform="translate(27.645 0.529)">
        <rect class="cls-10" width="4.422" height="193.482"/>
        <rect class="cls-1" x="0.5" y="0.5" width="3.422" height="192.482"/>
      </g>
    </g>
    <g id="Group_95" data-name="Group 95" transform="translate(844.625 282)">
      <rect id="wrapper1-3" data-name="wrapper1" class="cls-3" width="37.789" height="193.611" transform="translate(0.211)"/>
      <line id="Line_12-3" data-name="Line 12" class="cls-4" x2="1.658" transform="translate(4.54 4.185)"/>
      <line id="Line_34-3" data-name="Line 34" class="cls-4" x2="1.658" transform="translate(15.54 4.185)"/>
      <line id="Line_38-3" data-name="Line 38" class="cls-4" x2="1.658" transform="translate(26.54 4.185)"/>
      <line id="Line_30-3" data-name="Line 30" class="cls-4" x2="1.658" transform="translate(4.422 192.485)"/>
      <line id="Line_33-3" data-name="Line 33" class="cls-4" x2="1.658" transform="translate(15.422 192.485)"/>
      <line id="Line_37-3" data-name="Line 37" class="cls-4" x2="1.658" transform="translate(26.422 192.485)"/>
      <line id="Line_13-3" data-name="Line 13" class="cls-4" x2="1.658" transform="translate(9.514 4.185)"/>
      <line id="Line_32-3" data-name="Line 32" class="cls-4" x2="1.658" transform="translate(20.514 4.185)"/>
      <line id="Line_36-3" data-name="Line 36" class="cls-4" x2="1.658" transform="translate(31.514 4.185)"/>
      <line id="Line_29-3" data-name="Line 29" class="cls-4" x2="1.658" transform="translate(9.396 192.485)"/>
      <line id="Line_31-3" data-name="Line 31" class="cls-4" x2="1.658" transform="translate(20.396 192.485)"/>
      <line id="Line_35-3" data-name="Line 35" class="cls-4" x2="1.658" transform="translate(31.396 192.485)"/>
      <g data-type="innerShadowGroup">
        <g class="cls-26" transform="matrix(1, 0, 0, 1, -71, -8.47)">
          <g id="Rectangle_13-17" data-name="Rectangle 13" class="cls-5" transform="translate(71 9)">
            <rect class="cls-10" width="5" height="193.482" rx="2.5"/>
            <rect class="cls-1" x="0.5" y="0.5" width="4" height="192.482" rx="2"/>
          </g>
        </g>
        <rect id="Rectangle_13-18" data-name="Rectangle 13" class="cls-6" width="5" height="193.482" rx="2.5" transform="translate(0 0.529)"/>
        <g class="cls-25" transform="matrix(1, 0, 0, 1, -71, -8.47)">
          <rect id="Rectangle_13-19" data-name="Rectangle 13" class="cls-6" width="5" height="193.482" rx="2.5" transform="translate(71 9)"/>
        </g>
        <g id="Rectangle_13-20" data-name="Rectangle 13" class="cls-7" transform="translate(0 0.529)">
          <rect class="cls-10" width="5" height="193.482" rx="2.5"/>
          <rect class="cls-1" x="0.5" y="0.5" width="4" height="192.482" rx="2"/>
        </g>
      </g>
      <g data-type="innerShadowGroup">
        <g class="cls-24" transform="matrix(1, 0, 0, 1, -71, -8.47)">
          <g id="Rectangle_43-17" data-name="Rectangle 43" class="cls-5" transform="translate(82 9)">
            <rect class="cls-10" width="5" height="193.482" rx="2.5"/>
            <rect class="cls-1" x="0.5" y="0.5" width="4" height="192.482" rx="2"/>
          </g>
        </g>
        <rect id="Rectangle_43-18" data-name="Rectangle 43" class="cls-6" width="5" height="193.482" rx="2.5" transform="translate(11 0.529)"/>
        <g class="cls-23" transform="matrix(1, 0, 0, 1, -71, -8.47)">
          <rect id="Rectangle_43-19" data-name="Rectangle 43" class="cls-6" width="5" height="193.482" rx="2.5" transform="translate(82 9)"/>
        </g>
        <g id="Rectangle_43-20" data-name="Rectangle 43" class="cls-7" transform="translate(11 0.529)">
          <rect class="cls-10" width="5" height="193.482" rx="2.5"/>
          <rect class="cls-1" x="0.5" y="0.5" width="4" height="192.482" rx="2"/>
        </g>
      </g>
      <g data-type="innerShadowGroup">
        <g class="cls-22" transform="matrix(1, 0, 0, 1, -71, -8.47)">
          <g id="Rectangle_46-17" data-name="Rectangle 46" class="cls-5" transform="translate(93 9)">
            <rect class="cls-10" width="5" height="193.482" rx="2.5"/>
            <rect class="cls-1" x="0.5" y="0.5" width="4" height="192.482" rx="2"/>
          </g>
        </g>
        <rect id="Rectangle_46-18" data-name="Rectangle 46" class="cls-6" width="5" height="193.482" rx="2.5" transform="translate(22 0.529)"/>
        <g class="cls-21" transform="matrix(1, 0, 0, 1, -71, -8.47)">
          <rect id="Rectangle_46-19" data-name="Rectangle 46" class="cls-6" width="5" height="193.482" rx="2.5" transform="translate(93 9)"/>
        </g>
        <g id="Rectangle_46-20" data-name="Rectangle 46" class="cls-7" transform="translate(22 0.529)">
          <rect class="cls-10" width="5" height="193.482" rx="2.5"/>
          <rect class="cls-1" x="0.5" y="0.5" width="4" height="192.482" rx="2"/>
        </g>
      </g>
      <g data-type="innerShadowGroup">
        <g class="cls-20" transform="matrix(1, 0, 0, 1, -71, -8.47)">
          <g id="Rectangle_49-17" data-name="Rectangle 49" class="cls-5" transform="translate(104 9)">
            <rect class="cls-10" width="5" height="193.482" rx="2.5"/>
            <rect class="cls-1" x="0.5" y="0.5" width="4" height="192.482" rx="2"/>
          </g>
        </g>
        <rect id="Rectangle_49-18" data-name="Rectangle 49" class="cls-6" width="5" height="193.482" rx="2.5" transform="translate(33 0.529)"/>
        <g class="cls-19" transform="matrix(1, 0, 0, 1, -71, -8.47)">
          <rect id="Rectangle_49-19" data-name="Rectangle 49" class="cls-6" width="5" height="193.482" rx="2.5" transform="translate(104 9)"/>
        </g>
        <g id="Rectangle_49-20" data-name="Rectangle 49" class="cls-7" transform="translate(33 0.529)">
          <rect class="cls-10" width="5" height="193.482" rx="2.5"/>
          <rect class="cls-1" x="0.5" y="0.5" width="4" height="192.482" rx="2"/>
        </g>
      </g>
      <g id="Rectangle_14-3" data-name="Rectangle 14" class="cls-5" transform="translate(5.645 0.529)">
        <rect class="cls-10" width="4.422" height="193.482"/>
        <rect class="cls-1" x="0.5" y="0.5" width="3.422" height="192.482"/>
      </g>
      <g id="Rectangle_42-3" data-name="Rectangle 42" class="cls-5" transform="translate(16.645 0.529)">
        <rect class="cls-10" width="4.422" height="193.482"/>
        <rect class="cls-1" x="0.5" y="0.5" width="3.422" height="192.482"/>
      </g>
      <g id="Rectangle_45-3" data-name="Rectangle 45" class="cls-5" transform="translate(27.645 0.529)">
        <rect class="cls-10" width="4.422" height="193.482"/>
        <rect class="cls-1" x="0.5" y="0.5" width="3.422" height="192.482"/>
      </g>
    </g>
    <g id="Group_96" data-name="Group 96" transform="translate(904.626 282)">
      <rect id="wrapper1-4" data-name="wrapper1" class="cls-3" width="37.789" height="193.611" transform="translate(0.211)"/>
      <line id="Line_12-4" data-name="Line 12" class="cls-4" x2="1.658" transform="translate(4.54 4.185)"/>
      <line id="Line_34-4" data-name="Line 34" class="cls-4" x2="1.658" transform="translate(15.54 4.185)"/>
      <line id="Line_38-4" data-name="Line 38" class="cls-4" x2="1.658" transform="translate(26.54 4.185)"/>
      <line id="Line_30-4" data-name="Line 30" class="cls-4" x2="1.658" transform="translate(4.422 192.485)"/>
      <line id="Line_33-4" data-name="Line 33" class="cls-4" x2="1.658" transform="translate(15.422 192.485)"/>
      <line id="Line_37-4" data-name="Line 37" class="cls-4" x2="1.658" transform="translate(26.422 192.485)"/>
      <line id="Line_13-4" data-name="Line 13" class="cls-4" x2="1.658" transform="translate(9.514 4.185)"/>
      <line id="Line_32-4" data-name="Line 32" class="cls-4" x2="1.658" transform="translate(20.514 4.185)"/>
      <line id="Line_36-4" data-name="Line 36" class="cls-4" x2="1.658" transform="translate(31.514 4.185)"/>
      <line id="Line_29-4" data-name="Line 29" class="cls-4" x2="1.658" transform="translate(9.396 192.485)"/>
      <line id="Line_31-4" data-name="Line 31" class="cls-4" x2="1.658" transform="translate(20.396 192.485)"/>
      <line id="Line_35-4" data-name="Line 35" class="cls-4" x2="1.658" transform="translate(31.396 192.485)"/>
      <g data-type="innerShadowGroup">
        <g class="cls-18" transform="matrix(1, 0, 0, 1, -131, -8.47)">
          <g id="Rectangle_13-21" data-name="Rectangle 13" class="cls-5" transform="translate(131 9)">
            <rect class="cls-10" width="5" height="193.482" rx="2.5"/>
            <rect class="cls-1" x="0.5" y="0.5" width="4" height="192.482" rx="2"/>
          </g>
        </g>
        <rect id="Rectangle_13-22" data-name="Rectangle 13" class="cls-6" width="5" height="193.482" rx="2.5" transform="translate(0 0.529)"/>
        <g class="cls-17" transform="matrix(1, 0, 0, 1, -131, -8.47)">
          <rect id="Rectangle_13-23" data-name="Rectangle 13" class="cls-6" width="5" height="193.482" rx="2.5" transform="translate(131 9)"/>
        </g>
        <g id="Rectangle_13-24" data-name="Rectangle 13" class="cls-7" transform="translate(0 0.529)">
          <rect class="cls-10" width="5" height="193.482" rx="2.5"/>
          <rect class="cls-1" x="0.5" y="0.5" width="4" height="192.482" rx="2"/>
        </g>
      </g>
      <g data-type="innerShadowGroup">
        <g class="cls-16" transform="matrix(1, 0, 0, 1, -131, -8.47)">
          <g id="Rectangle_43-21" data-name="Rectangle 43" class="cls-5" transform="translate(142 9)">
            <rect class="cls-10" width="5" height="193.482" rx="2.5"/>
            <rect class="cls-1" x="0.5" y="0.5" width="4" height="192.482" rx="2"/>
          </g>
        </g>
        <rect id="Rectangle_43-22" data-name="Rectangle 43" class="cls-6" width="5" height="193.482" rx="2.5" transform="translate(11 0.529)"/>
        <g class="cls-15" transform="matrix(1, 0, 0, 1, -131, -8.47)">
          <rect id="Rectangle_43-23" data-name="Rectangle 43" class="cls-6" width="5" height="193.482" rx="2.5" transform="translate(142 9)"/>
        </g>
        <g id="Rectangle_43-24" data-name="Rectangle 43" class="cls-7" transform="translate(11 0.529)">
          <rect class="cls-10" width="5" height="193.482" rx="2.5"/>
          <rect class="cls-1" x="0.5" y="0.5" width="4" height="192.482" rx="2"/>
        </g>
      </g>
      <g data-type="innerShadowGroup">
        <g class="cls-14" transform="matrix(1, 0, 0, 1, -131, -8.47)">
          <g id="Rectangle_46-21" data-name="Rectangle 46" class="cls-5" transform="translate(153 9)">
            <rect class="cls-10" width="5" height="193.482" rx="2.5"/>
            <rect class="cls-1" x="0.5" y="0.5" width="4" height="192.482" rx="2"/>
          </g>
        </g>
        <rect id="Rectangle_46-22" data-name="Rectangle 46" class="cls-6" width="5" height="193.482" rx="2.5" transform="translate(22 0.529)"/>
        <g class="cls-13" transform="matrix(1, 0, 0, 1, -131, -8.47)">
          <rect id="Rectangle_46-23" data-name="Rectangle 46" class="cls-6" width="5" height="193.482" rx="2.5" transform="translate(153 9)"/>
        </g>
        <g id="Rectangle_46-24" data-name="Rectangle 46" class="cls-7" transform="translate(22 0.529)">
          <rect class="cls-10" width="5" height="193.482" rx="2.5"/>
          <rect class="cls-1" x="0.5" y="0.5" width="4" height="192.482" rx="2"/>
        </g>
      </g>
      <g data-type="innerShadowGroup">
        <g class="cls-12" transform="matrix(1, 0, 0, 1, -131, -8.47)">
          <g id="Rectangle_49-21" data-name="Rectangle 49" class="cls-5" transform="translate(164 9)">
            <rect class="cls-10" width="5" height="193.482" rx="2.5"/>
            <rect class="cls-1" x="0.5" y="0.5" width="4" height="192.482" rx="2"/>
          </g>
        </g>
        <rect id="Rectangle_49-22" data-name="Rectangle 49" class="cls-6" width="5" height="193.482" rx="2.5" transform="translate(33 0.529)"/>
        <g class="cls-11" transform="matrix(1, 0, 0, 1, -131, -8.47)">
          <rect id="Rectangle_49-23" data-name="Rectangle 49" class="cls-6" width="5" height="193.482" rx="2.5" transform="translate(164 9)"/>
        </g>
        <g id="Rectangle_49-24" data-name="Rectangle 49" class="cls-7" transform="translate(33 0.529)">
          <rect class="cls-10" width="5" height="193.482" rx="2.5"/>
          <rect class="cls-1" x="0.5" y="0.5" width="4" height="192.482" rx="2"/>
        </g>
      </g>
      <g id="Rectangle_14-4" data-name="Rectangle 14" class="cls-5" transform="translate(5.645 0.529)">
        <rect class="cls-10" width="4.422" height="193.482"/>
        <rect class="cls-1" x="0.5" y="0.5" width="3.422" height="192.482"/>
      </g>
      <g id="Rectangle_42-4" data-name="Rectangle 42" class="cls-5" transform="translate(16.645 0.529)">
        <rect class="cls-10" width="4.422" height="193.482"/>
        <rect class="cls-1" x="0.5" y="0.5" width="3.422" height="192.482"/>
      </g>
      <g id="Rectangle_45-4" data-name="Rectangle 45" class="cls-5" transform="translate(27.645 0.529)">
        <rect class="cls-10" width="4.422" height="193.482"/>
        <rect class="cls-1" x="0.5" y="0.5" width="3.422" height="192.482"/>
      </g>
    </g>
    <g id="Group_25" data-name="Group 25" transform="translate(773.625 279)">
      <line id="Line_1" data-name="Line 1" class="cls-8" x2="225.186" transform="translate(7.5 3.982)"/>
      <circle id="Ellipse_36" data-name="Ellipse 36" class="cls-9" cx="3.869" cy="3.869" r="3.869" transform="translate(232.262)"/>
      <circle id="Ellipse_35" data-name="Ellipse 35" class="cls-9" cx="3.869" cy="3.869" r="3.869" transform="translate(0)"/>
    </g>
  </g>
</svg>
