<?xml version="1.0" encoding="utf-8"?>
<!-- Generator: Adobe Illustrator 18.0.0, SVG Export Plug-In . SVG Version: 6.00 Build 0)  -->
<!DOCTYPE svg PUBLIC "-//W3C//DTD SVG 1.1//EN" "http://www.w3.org/Graphics/SVG/1.1/DTD/svg11.dtd">
<svg version="1.1" id="Layer_1" xmlns="http://www.w3.org/2000/svg" xmlns:xlink="http://www.w3.org/1999/xlink" x="0px" y="0px"
	 width="710px" height="729px" viewBox="0 0 710 729" enable-background="new 0 0 710 729" xml:space="preserve">
<rect x="75.6" y="96.4" fill="none" stroke="#464545" stroke-width="3" width="560.4" height="389"/>
<rect x="98.6" y="119.5" fill="none" stroke="#464545" stroke-width="3" width="514.2" height="342.8"/>
<g>
	<g>
		<g>
			<rect x="22.6" y="34.5" fill="#FFFFFF" width="667.2" height="13"/>
			<rect x="22.6" y="34.5" fill="none" stroke="#464545" stroke-width="1.7037" width="667.2" height="13"/>
		</g>
	</g>
</g>
<rect x="685.2" y="32.5" fill="#FFFFFF" stroke="#464545" stroke-width="1.5" width="24" height="17"/>
<rect x="0.8" y="32.5" fill="#FFFFFF" stroke="#464545" stroke-width="1.5" width="24" height="17"/>
<g>
	<path fill="#DADADA" stroke="#706F6F" stroke-width="0.9532" stroke-miterlimit="10" d="M138.9,674c0,0-7.7,8.2-15.6,8.3
		c-7.9,0.1-14.6-7.3-14.6-7.3V52.4c0,0,4.9,0,15.1,0s15.1,0,15.1,0V674z"/>
	<path fill="#DADADA" stroke="#706F6F" stroke-width="0.9525" stroke-miterlimit="10" d="M108.7,675c-4.6-2.4-8.1,0.5-8.1,0.5
		s-5.2,6.8-13.2,6.8S74.2,675,74.2,675V52.4h34.5V675z"/>
	<path fill="#DADADA" stroke="#706F6F" stroke-width="0.9525" stroke-miterlimit="10" d="M74.2,675c-4.6-2.4-8.1,0.5-8.1,0.5
		s-5.2,6.8-13.2,6.8S39.7,675,39.7,675V52.4h34.5V675z"/>
</g>
<g>
	<path fill="#DADADA" stroke="#706F6F" stroke-width="0.9532" stroke-miterlimit="10" d="M571,675c0,0,7.7,8.2,15.6,8.3
		c7.9,0.1,14.6-7.3,14.6-7.3V52.4c0,0-4.9,0-15.1,0c-10.2,0-15.1,0-15.1,0V675z"/>
	<path fill="#DADADA" stroke="#706F6F" stroke-width="0.9525" stroke-miterlimit="10" d="M601.2,676c4.6-2.4,8.1,0.5,8.1,0.5
		s5.2,6.8,13.2,6.8s13.2-7.3,13.2-7.3V52.4h-34.5V676z"/>
	<path fill="#DADADA" stroke="#706F6F" stroke-width="0.9525" stroke-miterlimit="10" d="M635.7,676c4.6-2.4,8.1,0.5,8.1,0.5
		s5.2,6.8,13.2,6.8s13.2-7.3,13.2-7.3V52.4h-34.5V676z"/>
</g>
<g>
	<path fill="#DADADA" stroke="#706F6F" stroke-width="0.9525" stroke-miterlimit="10" d="M283.7,676c-4.6-2.4-8.1,0.5-8.1,0.5
		s-5.2,6.8-13.2,6.8s-13.2-7.3-13.2-7.3V52.4h34.5V676z"/>
	<path fill="#DADADA" stroke="#706F6F" stroke-width="0.9525" stroke-miterlimit="10" d="M249.2,676c-4.6-2.4-8.1,0.5-8.1,0.5
		s-5.2,6.8-13.2,6.8s-13.2-7.3-13.2-7.3V52.4h34.5V676z"/>
	<path fill="#DADADA" stroke="#706F6F" stroke-width="0.9525" stroke-miterlimit="10" d="M318.2,676c-4.6-2.4-8.1,0.5-8.1,0.5
		s-5.2,6.8-13.2,6.8s-13.2-7.3-13.2-7.3V52.4h34.5V676z"/>
</g>
<g>
	<path fill="#DADADA" stroke="#706F6F" stroke-width="0.9525" stroke-miterlimit="10" d="M426.3,676c4.6-2.4,8.1,0.5,8.1,0.5
		s5.2,6.8,13.2,6.8s13.2-7.3,13.2-7.3V52.4h-34.5V676z"/>
	<path fill="#DADADA" stroke="#706F6F" stroke-width="0.9525" stroke-miterlimit="10" d="M460.8,676c4.6-2.4,8.1,0.5,8.1,0.5
		s5.2,6.8,13.2,6.8s13.2-7.3,13.2-7.3V52.4h-34.5V676z"/>
	<path fill="#DADADA" stroke="#706F6F" stroke-width="0.9525" stroke-miterlimit="10" d="M391.8,676c4.6-2.4,8.1,0.5,8.1,0.5
		s5.2,6.8,13.2,6.8s13.2-7.3,13.2-7.3V52.4h-34.5V676z"/>
</g>
</svg>
