<?xml version="1.0" encoding="utf-8"?>
<!-- Generator: Adobe Illustrator 18.0.0, SVG Export Plug-In . SVG Version: 6.00 Build 0)  -->
<!DOCTYPE svg PUBLIC "-//W3C//DTD SVG 1.1//EN" "http://www.w3.org/Graphics/SVG/1.1/DTD/svg11.dtd">
<svg version="1.1" id="Layer_1" xmlns="http://www.w3.org/2000/svg" xmlns:xlink="http://www.w3.org/1999/xlink" x="0px" y="0px"
	 width="530px" height="672px" viewBox="0 0 530 672" enable-background="new 0 0 530 672" xml:space="preserve">
<g>
	<rect x="105" y="72.8" fill="none" stroke="#464545" stroke-width="2.8284" width="320" height="389"/>
	<rect x="126.3" y="95.9" fill="none" stroke="#464545" stroke-width="2.8813" width="277.4" height="342.8"/>
</g>
<g>
	<g>
		<g>
			<rect x="30" y="10.9" fill="#FFFFFF" width="470" height="13"/>
			<rect x="30" y="10.9" fill="none" stroke="#464545" stroke-width="1.7037" width="470" height="13"/>
		</g>
	</g>
</g>
<rect x="500" y="8.9" fill="#FFFFFF" stroke="#464545" stroke-width="1.5" width="24" height="17"/>
<rect x="6" y="8.9" fill="#FFFFFF" stroke="#464545" stroke-width="1.5" width="24" height="17"/>
<g>
	<g>
		<line fill="none" stroke="#464545" stroke-width="3.1051" x1="139.9" y1="196.4" x2="390.1" y2="196.4"/>
		<g>
			<polygon fill="#464545" points="142.6,205.7 126.5,196.4 142.6,187.1 			"/>
		</g>
		<g>
			<polygon fill="#464545" points="387.4,205.7 403.5,196.4 387.4,187.1 			"/>
		</g>
	</g>
</g>
<g>
	<path fill="#DADADA" stroke="#706F6F" stroke-width="0.9532" stroke-miterlimit="10" d="M165.8,651.4c0,0,7.7,8.2,15.6,8.3
		c7.9,0.1,14.6-7.3,14.6-7.3V28.8c0,0-4.9,0-15.1,0s-15.1,0-15.1,0V651.4z"/>
	<path fill="#DADADA" stroke="#706F6F" stroke-width="0.9525" stroke-miterlimit="10" d="M196,652.4c4.6-2.4,8.1,0.5,8.1,0.5
		s5.2,6.8,13.2,6.8s13.2-7.3,13.2-7.3V28.8H196V652.4z"/>
	<path fill="#DADADA" stroke="#706F6F" stroke-width="0.9525" stroke-miterlimit="10" d="M230.5,652.4c4.6-2.4,8.1,0.5,8.1,0.5
		s5.2,6.8,13.2,6.8c8,0,13.2-7.3,13.2-7.3V28.8h-34.5V652.4z"/>
	<path fill="#DADADA" stroke="#706F6F" stroke-width="0.9525" stroke-miterlimit="10" d="M265,652.4c4.6-2.4,8.1,0.5,8.1,0.5
		s5.2,6.8,13.2,6.8s13.2-7.3,13.2-7.3V28.8H265V652.4z"/>
	<path fill="#DADADA" stroke="#706F6F" stroke-width="0.9525" stroke-miterlimit="10" d="M299.5,652.4c4.6-2.4,8.1,0.5,8.1,0.5
		s5.2,6.8,13.2,6.8s13.2-7.3,13.2-7.3V28.8h-34.5V652.4z"/>
	<path fill="#DADADA" stroke="#706F6F" stroke-width="0.9532" stroke-miterlimit="10" d="M334,651.4c0,0,7.7,8.2,15.6,8.3
		c7.9,0.1,14.6-7.3,14.6-7.3V28.8c0,0-4.9,0-15.1,0c-10.2,0-15.1,0-15.1,0V651.4z"/>
</g>
</svg>
