<?xml version="1.0" encoding="utf-8"?>
<!-- Generator: Adobe Illustrator 18.0.0, SVG Export Plug-In . SVG Version: 6.00 Build 0)  -->
<!DOCTYPE svg PUBLIC "-//W3C//DTD SVG 1.1//EN" "http://www.w3.org/Graphics/SVG/1.1/DTD/svg11.dtd">
<svg version="1.1" id="Layer_1" xmlns="http://www.w3.org/2000/svg" xmlns:xlink="http://www.w3.org/1999/xlink" x="0px" y="0px"
	 width="710px" height="672px" viewBox="0 0 710 672" enable-background="new 0 0 710 672" xml:space="preserve">
<g>
	<g>
		<g>
			<g>
				<rect x="111.8" y="14" fill="#FFFFFF" width="485.2" height="13"/>
				<rect x="111.8" y="14" fill="none" stroke="#464545" stroke-width="1.6782" width="485.2" height="13"/>
			</g>
		</g>
	</g>
	<rect x="597.2" y="12" fill="#FFFFFF" stroke="#464545" stroke-width="1.5" width="24" height="17"/>
	<rect x="88.8" y="12" fill="#FFFFFF" stroke="#464545" stroke-width="1.5" width="24" height="17"/>
</g>
<g>
	<rect x="163.8" y="75.9" fill="none" stroke="#464545" stroke-width="3" width="383.4" height="389"/>
	<rect x="179.6" y="99" fill="none" stroke="#464545" stroke-width="3" width="351.8" height="342.8"/>
</g>
<path fill="#DADADA" stroke="#706F6F" stroke-width="0.9532" stroke-miterlimit="10" d="M227.5,653.5c0,0-7.7,8.2-15.6,8.3
	c-7.9,0.1-14.6-7.3-14.6-7.3V31.9c0,0,4.9,0,15.1,0c10.2,0,15.1,0,15.1,0V653.5z"/>
<path fill="#DADADA" stroke="#706F6F" stroke-width="0.9525" stroke-miterlimit="10" d="M197.3,654.5c-4.6-2.4-8.1,0.5-8.1,0.5
	s-5.2,6.8-13.2,6.8s-13.2-7.3-13.2-7.3V31.9h34.5V654.5z"/>
<path fill="#DADADA" stroke="#706F6F" stroke-width="0.9525" stroke-miterlimit="10" d="M162.8,654.5c-4.6-2.4-8.1,0.5-8.1,0.5
	s-5.2,6.8-13.2,6.8s-13.2-7.3-13.2-7.3V31.9h34.5V654.5z"/>
<g>
	<path fill="#DADADA" stroke="#706F6F" stroke-width="0.9532" stroke-miterlimit="10" d="M482.5,654.5c0,0,7.7,8.2,15.6,8.3
		c7.9,0.1,14.6-7.3,14.6-7.3V31.9c0,0-4.9,0-15.1,0c-10.2,0-15.1,0-15.1,0V654.5z"/>
	<path fill="#DADADA" stroke="#706F6F" stroke-width="0.9525" stroke-miterlimit="10" d="M512.7,655.5c4.6-2.4,8.1,0.5,8.1,0.5
		s5.2,6.8,13.2,6.8s13.2-7.3,13.2-7.3V31.9h-34.5V655.5z"/>
	<path fill="#DADADA" stroke="#706F6F" stroke-width="0.9525" stroke-miterlimit="10" d="M547.2,655.5c4.6-2.4,8.1,0.5,8.1,0.5
		s5.2,6.8,13.2,6.8s13.2-7.3,13.2-7.3V31.9h-34.5V655.5z"/>
</g>
<path fill="#DADADA" stroke="#706F6F" stroke-width="0.9525" stroke-miterlimit="10" d="M337.7,655.5c4.6-2.4,8.1,0.5,8.1,0.5
	s5.2,6.8,13.2,6.8s13.2-7.3,13.2-7.3V31.9h-34.5V655.5z"/>
<path fill="#DADADA" stroke="#706F6F" stroke-width="0.9525" stroke-miterlimit="10" d="M337.7,655.5c-4.6-2.4-8.1,0.5-8.1,0.5
	s-5.2,6.8-13.2,6.8s-13.2-7.3-13.2-7.3V31.9h34.5V655.5z"/>
<path fill="#DADADA" stroke="#706F6F" stroke-width="0.9525" stroke-miterlimit="10" d="M372.2,655.5c4.6-2.4,8.1,0.5,8.1,0.5
	s5.2,6.8,13.2,6.8s13.2-7.3,13.2-7.3V31.9h-34.5V655.5z"/>
</svg>
