<?xml version="1.0" encoding="utf-8"?>
<!-- Generator: Adobe Illustrator 18.0.0, SVG Export Plug-In . SVG Version: 6.00 Build 0)  -->
<!DOCTYPE svg PUBLIC "-//W3C//DTD SVG 1.1//EN" "http://www.w3.org/Graphics/SVG/1.1/DTD/svg11.dtd">
<svg version="1.1" id="Layer_1" xmlns="http://www.w3.org/2000/svg" xmlns:xlink="http://www.w3.org/1999/xlink" x="0px" y="0px"
	 width="80px" height="80px" viewBox="0 0 80 80" enable-background="new 0 0 80 80" xml:space="preserve">
<rect y="-0.1" fill="none" stroke="#717070" stroke-width="1.0046" stroke-miterlimit="10" enable-background="new    " width="80" height="80.2"/>
<g>
	<path fill="#D2D2D3" stroke="#717070" stroke-width="0.7624" stroke-miterlimit="10" enable-background="new    " d="M7.5,27.2H6.7
		c-0.7,0-1.2-0.5-1.2-1.2V6.2C5.5,5.5,6,5,6.7,5h0.8c0.7,0,1.2,0.5,1.2,1.2V26C8.7,26.6,8.1,27.2,7.5,27.2z"/>
	<path fill="#D2D2D3" stroke="#717070" stroke-width="0.7624" stroke-miterlimit="10" enable-background="new    " d="M13.5,27.2
		h-0.8c-0.7,0-1.2-0.5-1.2-1.2V6.2C11.5,5.5,12,5,12.7,5h0.8c0.7,0,1.2,0.5,1.2,1.2V26C14.7,26.6,14.1,27.2,13.5,27.2z"/>
	<path fill="#D2D2D3" stroke="#717070" stroke-width="0.7624" stroke-miterlimit="10" enable-background="new    " d="M10.2,27.7
		H9.9c-0.7,0-1.2-0.5-1.2-1.2V6.7c0-0.7,0.5-1.2,1.2-1.2h0.4c0.7,0,1.2,0.5,1.2,1.2v19.8C11.4,27.1,10.9,27.7,10.2,27.7z"/>
	<path fill="#D2D2D3" stroke="#717070" stroke-width="0.7624" stroke-miterlimit="10" enable-background="new    " d="M16.2,27.7
		h-0.4c-0.7,0-1.2-0.5-1.2-1.2V6.7c0-0.7,0.5-1.2,1.2-1.2h0.4c0.7,0,1.2,0.5,1.2,1.2v19.8C17.4,27.1,16.9,27.7,16.2,27.7z"/>
	<path fill="#D2D2D3" stroke="#717070" stroke-width="0.7624" stroke-miterlimit="10" enable-background="new    " d="M19.5,27.2
		h-0.8c-0.7,0-1.2-0.5-1.2-1.2V6.2C17.5,5.5,18,5,18.7,5h0.8c0.7,0,1.2,0.5,1.2,1.2V26C20.7,26.6,20.1,27.2,19.5,27.2z"/>
	<path fill="#D2D2D3" stroke="#717070" stroke-width="0.7624" stroke-miterlimit="10" enable-background="new    " d="M25.5,27.2
		h-0.8c-0.7,0-1.2-0.5-1.2-1.2V6.2C23.5,5.5,24,5,24.7,5h0.8c0.7,0,1.2,0.5,1.2,1.2V26C26.6,26.6,26.1,27.2,25.5,27.2z"/>
	<path fill="#D2D2D3" stroke="#717070" stroke-width="0.7624" stroke-miterlimit="10" enable-background="new    " d="M22.2,27.7
		h-0.4c-0.7,0-1.2-0.5-1.2-1.2V6.7c0-0.7,0.5-1.2,1.2-1.2h0.4c0.7,0,1.2,0.5,1.2,1.2v19.8C23.4,27.1,22.9,27.7,22.2,27.7z"/>
	<path fill="#D2D2D3" stroke="#717070" stroke-width="0.7624" stroke-miterlimit="10" enable-background="new    " d="M28.2,27.7
		h-0.4c-0.7,0-1.2-0.5-1.2-1.2V6.7c0-0.7,0.5-1.2,1.2-1.2h0.4c0.7,0,1.2,0.5,1.2,1.2v19.8C29.4,27.1,28.9,27.7,28.2,27.7z"/>
	<path fill="#D2D2D3" stroke="#717070" stroke-width="0.7624" stroke-miterlimit="10" enable-background="new    " d="M31.5,27.2
		h-0.8c-0.7,0-1.2-0.5-1.2-1.2V6.2C29.5,5.5,30,5,30.7,5h0.8c0.7,0,1.2,0.5,1.2,1.2V26C32.6,26.6,32.1,27.2,31.5,27.2z"/>
	<path fill="#D2D2D3" stroke="#717070" stroke-width="0.7624" stroke-miterlimit="10" enable-background="new    " d="M37.4,27.2
		h-0.8c-0.7,0-1.2-0.5-1.2-1.2V6.2C35.5,5.5,36,5,36.7,5h0.8c0.7,0,1.2,0.5,1.2,1.2V26C38.6,26.6,38.1,27.2,37.4,27.2z"/>
	<path fill="#D2D2D3" stroke="#717070" stroke-width="0.7624" stroke-miterlimit="10" enable-background="new    " d="M34.2,27.7
		h-0.4c-0.7,0-1.2-0.5-1.2-1.2V6.7c0-0.7,0.5-1.2,1.2-1.2h0.4c0.7,0,1.2,0.5,1.2,1.2v19.8C35.4,27.1,34.9,27.7,34.2,27.7z"/>
	<path fill="#D2D2D3" stroke="#717070" stroke-width="0.7624" stroke-miterlimit="10" enable-background="new    " d="M40.2,27.7
		h-0.4c-0.7,0-1.2-0.5-1.2-1.2V6.7c0-0.7,0.5-1.2,1.2-1.2h0.4c0.7,0,1.2,0.5,1.2,1.2v19.8C41.4,27.1,40.9,27.7,40.2,27.7z"/>
	<path fill="#D2D2D3" stroke="#717070" stroke-width="0.7624" stroke-miterlimit="10" enable-background="new    " d="M43.4,27.2
		h-0.8c-0.7,0-1.2-0.5-1.2-1.2V6.2C41.5,5.5,42,5,42.7,5h0.8c0.7,0,1.2,0.5,1.2,1.2V26C44.6,26.6,44.1,27.2,43.4,27.2z"/>
	<path fill="#D2D2D3" stroke="#717070" stroke-width="0.7624" stroke-miterlimit="10" enable-background="new    " d="M49.4,27.2
		h-0.8c-0.7,0-1.2-0.5-1.2-1.2V6.2C47.5,5.5,48,5,48.7,5h0.8c0.7,0,1.2,0.5,1.2,1.2V26C50.6,26.6,50.1,27.2,49.4,27.2z"/>
	<path fill="#D2D2D3" stroke="#717070" stroke-width="0.7624" stroke-miterlimit="10" enable-background="new    " d="M46.2,27.7
		h-0.4c-0.7,0-1.2-0.5-1.2-1.2V6.7c0-0.7,0.5-1.2,1.2-1.2h0.4c0.7,0,1.2,0.5,1.2,1.2v19.8C47.4,27.1,46.9,27.7,46.2,27.7z"/>
	<path fill="#D2D2D3" stroke="#717070" stroke-width="0.7624" stroke-miterlimit="10" enable-background="new    " d="M52.2,27.7
		h-0.4c-0.7,0-1.2-0.5-1.2-1.2V6.7c0-0.7,0.5-1.2,1.2-1.2h0.4c0.7,0,1.2,0.5,1.2,1.2v19.8C53.4,27.1,52.9,27.7,52.2,27.7z"/>
	<path fill="#D2D2D3" stroke="#717070" stroke-width="0.7624" stroke-miterlimit="10" enable-background="new    " d="M55.4,27.2
		h-0.8c-0.7,0-1.2-0.5-1.2-1.2V6.2C53.5,5.5,54,5,54.6,5h0.8c0.7,0,1.2,0.5,1.2,1.2V26C56.6,26.6,56.1,27.2,55.4,27.2z"/>
	<path fill="#D2D2D3" stroke="#717070" stroke-width="0.7624" stroke-miterlimit="10" enable-background="new    " d="M61.4,27.2
		h-0.8c-0.7,0-1.2-0.5-1.2-1.2V6.2C59.5,5.5,60,5,60.6,5h0.8c0.7,0,1.2,0.5,1.2,1.2V26C62.6,26.6,62.1,27.2,61.4,27.2z"/>
	<path fill="#D2D2D3" stroke="#717070" stroke-width="0.7624" stroke-miterlimit="10" enable-background="new    " d="M58.2,27.7
		h-0.4c-0.7,0-1.2-0.5-1.2-1.2V6.7c0-0.7,0.5-1.2,1.2-1.2h0.4c0.7,0,1.2,0.5,1.2,1.2v19.8C59.4,27.1,58.9,27.7,58.2,27.7z"/>
	<path fill="#D2D2D3" stroke="#717070" stroke-width="0.7624" stroke-miterlimit="10" enable-background="new    " d="M64.2,27.7
		h-0.4c-0.7,0-1.2-0.5-1.2-1.2V6.7c0-0.7,0.5-1.2,1.2-1.2h0.4c0.7,0,1.2,0.5,1.2,1.2v19.8C65.4,27.1,64.9,27.7,64.2,27.7z"/>
	<path fill="#D2D2D3" stroke="#717070" stroke-width="0.7624" stroke-miterlimit="10" enable-background="new    " d="M67.4,27.2
		h-0.8c-0.7,0-1.2-0.5-1.2-1.2V6.2C65.4,5.5,66,5,66.6,5h0.8c0.7,0,1.2,0.5,1.2,1.2V26C68.6,26.6,68.1,27.2,67.4,27.2z"/>
	<path fill="#D2D2D3" stroke="#717070" stroke-width="0.7624" stroke-miterlimit="10" enable-background="new    " d="M73.4,27.2
		h-0.8c-0.7,0-1.2-0.5-1.2-1.2V6.2C71.4,5.5,72,5,72.6,5h0.8c0.7,0,1.2,0.5,1.2,1.2V26C74.6,26.6,74.1,27.2,73.4,27.2z"/>
	<path fill="#D2D2D3" stroke="#717070" stroke-width="0.7624" stroke-miterlimit="10" enable-background="new    " d="M70.2,27.7
		h-0.4c-0.7,0-1.2-0.5-1.2-1.2V6.7c0-0.7,0.5-1.2,1.2-1.2h0.4c0.7,0,1.2,0.5,1.2,1.2v19.8C71.4,27.1,70.9,27.7,70.2,27.7z"/>
	<rect x="5" y="21.2" fill="#D2D2D2" width="70" height="53.8"/>
	<path fill="none" stroke="#717070" stroke-width="1.0292" stroke-miterlimit="10" d="M10.1,21.4c0,0,2.5,18.7,0.8,29.8
		c-1.1,7.3-0.8,23.6-0.8,23.6"/>
	<path fill="none" stroke="#717070" stroke-width="1.0292" stroke-miterlimit="10" d="M23.5,68.2c-0.4,1,0.7-8.5-1.6-23.2
		c-1.2-7.7-1.1-7,0.5-23.6"/>
	<path fill="none" stroke="#717070" stroke-width="1.0292" stroke-miterlimit="10" d="M30.1,21.5c0,0,1.7,18.7-0.5,29.8
		c-1.4,7.2-1.8,23.6-1.8,23.6"/>
	<path fill="none" stroke="#717070" stroke-width="1.0292" stroke-miterlimit="10" d="M40.1,71.9c-0.4,1,2.3-9.1-0.1-19.3
		c-4.5-18.9-0.7-31.3-0.7-31.3"/>
	<path fill="none" stroke="#717070" stroke-width="1.0292" stroke-miterlimit="10" d="M59.5,64.9c-0.4,1-2.8-8.6-1.5-19.9
		c1.2-10.7,0.5-23.6,0.5-23.6"/>
	<path fill="none" stroke="#717070" stroke-width="1.0292" stroke-miterlimit="10" d="M69.2,21.5c0,0,1.7,18.7-0.5,29.8
		C67.3,58.4,67,74.8,67,74.8"/>
	<path fill="none" stroke="#717070" stroke-width="1.0292" stroke-miterlimit="10" d="M49.6,74.7c-0.4,1-1-11.7,0-22.1
		c1.1-11.6-0.7-31.3-0.7-31.3"/>
</g>
</svg>
