<?xml version="1.0" encoding="utf-8"?>
<!-- Generator: Adobe Illustrator 18.0.0, SVG Export Plug-In . SVG Version: 6.00 Build 0)  -->
<!DOCTYPE svg PUBLIC "-//W3C//DTD SVG 1.1//EN" "http://www.w3.org/Graphics/SVG/1.1/DTD/svg11.dtd">
<svg version="1.1" id="Layer_1" xmlns="http://www.w3.org/2000/svg" xmlns:xlink="http://www.w3.org/1999/xlink" x="0px" y="0px"
	 width="80px" height="80px" viewBox="0 0 80 80" enable-background="new 0 0 80 80" xml:space="preserve">
<rect y="-0.1" fill="none" stroke="#717070" stroke-width="1.0046" stroke-miterlimit="10" enable-background="new    " width="80" height="80.2"/>
<rect x="9.7" y="9.2" fill="#D2D2D2" width="60.3" height="15.8"/>
<path fill="none" stroke="#717070" stroke-width="0.7132" stroke-miterlimit="10" d="M10.9,26.2L10.9,26.2c-0.6,0-1.1-0.5-1.1-1V9.8
	c0-0.6,0.5-1,1-1h0.1c0.6,0,1,0.5,1,1v15.4C11.9,25.8,11.4,26.2,10.9,26.2z"/>
<path fill="none" stroke="#717070" stroke-width="0.7132" stroke-miterlimit="10" d="M15,26.2L15,26.2c-0.6,0-1.1-0.5-1.1-1V9.8
	c0-0.6,0.5-1,1-1H15c0.6,0,1,0.5,1,1v15.4C16,25.8,15.6,26.2,15,26.2z"/>
<path fill="none" stroke="#717070" stroke-width="0.7132" stroke-miterlimit="10" d="M19.2,26.2L19.2,26.2c-0.6,0-1.1-0.5-1.1-1V9.8
	c0-0.6,0.5-1,1-1h0.1c0.6,0,1,0.5,1,1v15.4C20.2,25.8,19.7,26.2,19.2,26.2z"/>
<path fill="none" stroke="#717070" stroke-width="0.7132" stroke-miterlimit="10" d="M23.3,26.2L23.3,26.2c-0.6,0-1.1-0.5-1.1-1V9.8
	c0-0.6,0.5-1,1-1h0.1c0.6,0,1,0.5,1,1v15.4C24.4,25.8,23.9,26.2,23.3,26.2z"/>
<path fill="none" stroke="#717070" stroke-width="0.7132" stroke-miterlimit="10" d="M27.5,26.2L27.5,26.2c-0.6,0-1.1-0.5-1.1-1V9.8
	c0-0.6,0.5-1,1-1h0.1c0.6,0,1,0.5,1,1v15.4C28.5,25.8,28.1,26.2,27.5,26.2z"/>
<path fill="none" stroke="#717070" stroke-width="0.7132" stroke-miterlimit="10" d="M31.7,26.2L31.7,26.2c-0.6,0-1.1-0.5-1.1-1V9.8
	c0-0.6,0.5-1,1-1h0.1c0.6,0,1,0.5,1,1v15.4C32.7,25.8,32.2,26.2,31.7,26.2z"/>
<path fill="none" stroke="#717070" stroke-width="0.7132" stroke-miterlimit="10" d="M35.8,26.2L35.8,26.2c-0.6,0-1.1-0.5-1.1-1V9.8
	c0-0.6,0.5-1,1-1h0.1c0.6,0,1,0.5,1,1v15.4C36.8,25.8,36.4,26.2,35.8,26.2z"/>
<path fill="none" stroke="#717070" stroke-width="0.7132" stroke-miterlimit="10" d="M40,26.2L40,26.2c-0.6,0-1.1-0.5-1.1-1V9.8
	c0-0.6,0.5-1,1-1H40c0.6,0,1,0.5,1,1v15.4C41,25.8,40.5,26.2,40,26.2z"/>
<path fill="none" stroke="#717070" stroke-width="0.7132" stroke-miterlimit="10" d="M44.1,26.2L44.1,26.2c-0.6,0-1.1-0.5-1.1-1V9.8
	c0-0.6,0.5-1,1-1h0.1c0.6,0,1,0.5,1,1v15.4C45.1,25.8,44.7,26.2,44.1,26.2z"/>
<path fill="none" stroke="#717070" stroke-width="0.7132" stroke-miterlimit="10" d="M48.3,26.2L48.3,26.2c-0.6,0-1.1-0.5-1.1-1V9.8
	c0-0.6,0.5-1,1-1h0.1c0.6,0,1,0.5,1,1v15.4C49.3,25.8,48.8,26.2,48.3,26.2z"/>
<path fill="none" stroke="#717070" stroke-width="0.7132" stroke-miterlimit="10" d="M52.4,26.2L52.4,26.2c-0.6,0-1.1-0.5-1.1-1V9.8
	c0-0.6,0.5-1,1-1h0.1c0.6,0,1,0.5,1,1v15.4C53.4,25.8,53,26.2,52.4,26.2z"/>
<path fill="none" stroke="#717070" stroke-width="0.7132" stroke-miterlimit="10" d="M56.6,26.2L56.6,26.2c-0.6,0-1.1-0.5-1.1-1V9.8
	c0-0.6,0.5-1,1-1h0.1c0.6,0,1,0.5,1,1v15.4C57.6,25.8,57.1,26.2,56.6,26.2z"/>
<path fill="none" stroke="#717070" stroke-width="0.7132" stroke-miterlimit="10" d="M60.7,26.2L60.7,26.2c-0.6,0-1.1-0.5-1.1-1V9.8
	c0-0.6,0.5-1,1-1h0.1c0.6,0,1,0.5,1,1v15.4C61.7,25.8,61.3,26.2,60.7,26.2z"/>
<path fill="none" stroke="#717070" stroke-width="0.7132" stroke-miterlimit="10" d="M64.9,26.2L64.9,26.2c-0.6,0-1.1-0.5-1.1-1V9.8
	c0-0.6,0.5-1,1-1h0.1c0.6,0,1,0.5,1,1v15.4C65.9,25.8,65.4,26.2,64.9,26.2z"/>
<path fill="none" stroke="#717070" stroke-width="0.7132" stroke-miterlimit="10" d="M69,26.2L69,26.2c-0.6,0-1.1-0.5-1.1-1V9.8
	c0-0.6,0.5-1,1-1H69c0.6,0,1,0.5,1,1v15.4C70.1,25.8,69.6,26.2,69,26.2z"/>
<rect x="9.4" y="22.8" fill="#D2D2D2" width="60.9" height="46.9"/>
<path fill="none" stroke="#717070" stroke-width="0.6529" stroke-miterlimit="10" d="M22.3,62.9c-0.3,0.9-1.9-10-0.5-19.7
	c0.9-6.3,0.4-20.6,0.4-20.6"/>
<path fill="none" stroke="#717070" stroke-width="0.6529" stroke-miterlimit="10" d="M47.7,66.6c-0.3,0.9,1.2-7.8,0.1-16.8
	c-0.9-7.4-0.6-27.3-0.6-27.3"/>
<path fill="none" stroke="#717070" stroke-width="0.6529" stroke-miterlimit="10" d="M57.6,59.9c-0.3,0.9,0.5-4.2-0.6-16.7
	c-0.6-6.4,0.4-20.6,0.4-20.6"/>
<path fill="none" stroke="#717070" stroke-width="0.6529" stroke-miterlimit="10" d="M30.6,65.8c-0.3,0.9,1.3-5.8,0.6-15.7
	c-0.5-7.4-0.6-27.3-0.6-27.3"/>
<rect x="9.4" y="8.2" fill="#FFFFFF" width="61.2" height="2.7"/>
<path fill="none" stroke="#717070" stroke-width="0.6529" stroke-miterlimit="10" d="M14,22.6c0,0,1.6,16.3,0.6,23.3"/>
<path fill="none" stroke="#717070" stroke-width="0.6529" stroke-miterlimit="10" d="M38.9,49.4c0,0,1.4-15.7-0.1-26.6"/>
<path fill="none" stroke="#717070" stroke-width="0.6529" stroke-miterlimit="10" d="M65.9,22.6c0,0,1.6,16.3,0.6,23.3"/>
</svg>
