<svg width="79" height="79" xmlns="http://www.w3.org/2000/svg"><g fill="none" fill-rule="evenodd"><path fill="#4B5156" fill-rule="nonzero" d="M64.213 10.77l-56.368-.116.906 31.588-.677 22.572 55.197-.044-.92-24.304z"/><path d="M44.409 10.891c.288-.006.568-.009.845-.009a6.48 6.48 0 00-.487-.04 6.082 6.082 0 00-1.088.066l.727-.055.003.038z"/><path d="M39.813 40.655c0-.042 1.445-16.185 2.2-29.215-.277.042-.555.07-.835.084-.279.011-2.571-.666-2.571-.666s-.75-.04-1.063-.047l-.611-.011c-.181 13.236-.182 29.4-.182 30.756-.4.022-.847.032-1.35.029a9.863 9.863 0 01-1.293-.092c.035-2.07.388-17.573.562-30.508-.543.028-4.185-.1-4.5-.093l-.605.014c.415 13.658 1.566 30.884 1.581 30.932.08 2.544-.182 13.561-.755 22.978l9.732-.044c-.445-10.829-.309-24.121-.31-24.117z" fill="#7D8288" fill-rule="nonzero"/><path d="M38.517 10.661l-.759 32.523.462.6.592-.482 1.705-32.094-2-.547zm-5.505.277l.435 31.911-.473.597-.581-.487-1.386-32.107 2.005.086z" fill="#C5C7CA" fill-rule="nonzero"/><path d="M53.926 40.655c0-.042 1.444-16.752 2.2-29.782-.277.043-.556.07-.836.084-.278.011-3.321-.139-3.633-.146l-.611-.011c-.182 13.236-.182 29.4-.182 30.756-.4.022-.847.032-1.351.029a9.847 9.847 0 01-1.292-.092c.035-2.07.388-17.573.561-30.508-.542.028-4.184-.1-4.5-.093l-.606.014c.415 13.658 1.566 30.884 1.581 30.932.081 2.544.1 13.561-.471 22.978l9.448-.044c-.444-10.829-.307-24.121-.308-24.117z" fill="#7D8288" fill-rule="nonzero"/><path d="M52.63 10.661l-.759 32.523.461.6.592-.482 1.706-32.661-2 .02zm-5.505-.055l.435 32.243-.474.597-.581-.487-1.385-32.107 2.005-.246z" fill="#C5C7CA" fill-rule="nonzero"/><path d="M62.333 41.491c.035-2.07.389-17.573.562-30.508-.542.028-4.824-.086-5.1-.08.415 13.659 1.566 30.885 1.581 30.933.08 2.544.1 13.561-.471 22.978l4.369-.044-.941-23.279z" fill="#7D8288" fill-rule="nonzero"/><path fill="#C5C7CA" fill-rule="nonzero" d="M61.237 10.322l.435 32.527-.473.597-.581-.487-1.385-32.107z"/><path d="M26.082 40.655c0-.042 1.445-17.036 2.2-30.065a8.1 8.1 0 01-.836.084c-.279.011-2.6.053-2.6.053s-.722.091-1.035.084L23.2 10.8c-.182 13.236-.183 29.4-.183 30.756-.4.022-.847.032-1.35.029a9.863 9.863 0 01-1.293-.092c.035-2.07.388-17.856.562-30.791a13.133 13.133 0 00-2.436-.283 16.57 16.57 0 00-2.66.485c.415 13.658 1.566 30.884 1.581 30.932.08 2.544-.182 13.561-.755 22.978l10.015-.044c-.45-10.827-.598-24.119-.599-24.115z" fill="#7D8288" fill-rule="nonzero"/><path d="M24.786 10.661l-.759 32.523.462.6.592-.482 1.705-32.661-2 .02zm-5.505-.339l.435 32.527-.473.597-.581-.487-1.385-32.39 2.004-.247z" fill="#C5C7CA" fill-rule="nonzero"/><path d="M12.709 64.77c-.447-10.827-.594-24.119-.595-24.115 0-.042 1.444-16.469 2.195-29.5-.277.042-.555.07-.835.084-.279.011-2.571-.383-2.571-.383s-.751-.04-1.063-.047l-.606-.009c-.181 13.236-.517 28.914-.517 30.267l-.643 23.747 4.635-.044z" fill="#7D8288" fill-rule="nonzero"/><path fill="#C5C7CA" fill-rule="nonzero" d="M10.818 10.661l-.759 32.523.461.6.592-.482 1.706-32.094z"/><path d="M63.929 10.044V8.131a.586.586 0 00-.586-.586h-.191a.586.586 0 00-.586.586v1.857a21.265 21.265 0 00-3.926.221c-.51.036-1.021.033-1.53-.009V8.131a.586.586 0 00-.586-.586h-.191a.586.586 0 00-.586.586v1.953a10.97 10.97 0 00-2.1-.04c-1.092.107-2.23.286-3.356.432V8.131a.586.586 0 00-.587-.586h-.19a.586.586 0 00-.587.586V10.6h.3-.024c-1.681.174-3.165-.529-4.844-.593a5.872 5.872 0 00-.89.044v-1.92a.586.586 0 00-.587-.586H42.7a.586.586 0 00-.587.586V10.3a13.37 13.37 0 01-1.954.336c-1 .069-1.94-.657-2.88-.665h-.621v-1.84a.586.586 0 00-.587-.586h-.19a.586.586 0 00-.587.586v1.924c-.152.018-.3.035-.46.059a23 23 0 01-4.995-.221V8.131a.586.586 0 00-.587-.586h-.19a.586.586 0 00-.586.586v1.72c-1.126.006-2.252-.027-3.372-.023-.699.032-1.394.107-2.084.223v-1.92a.586.586 0 00-.586-.586h-.191a.586.586 0 00-.586.586v1.921c-.946-.092-1.865-.344-2.808-.47a7.512 7.512 0 00-2.649.228V8.131a.586.586 0 00-.586-.586h-.19a.586.586 0 00-.587.586v1.963a9.07 9.07 0 01-.833.111 43.48 43.48 0 01-4.608.2h-.017V8.131a.586.586 0 00-.587-.586H8.6a.586.586 0 00-.587.586v2.163l-.2.01.046 1.429c1.114.251.916-.338 1.931-.307a43.5 43.5 0 004.609-.2c1.673-.127 3.153-.847 4.844-.622 1.057.14 2.082.452 3.151.5 1.069.048 2.055-.254 3.1-.258 1.219 0 2.447.039 3.672.024 1.938-.026 4.156.563 6.058.262.81-.117 1.627-.165 2.445-.144.939.009 1.879.734 2.88.666 1.423-.1 2.781-.678 4.208-.624 1.679.063 3.163.766 4.844.593 1.471-.153 3-.42 4.441-.562 1.673-.164 3.265.281 4.992.165 1.7-.24 3.424-.25 5.126-.026l.132-1.135-.363-.021z" fill="#4B5156" fill-rule="nonzero"/><path stroke="#D8D8D8" d="M.5.5h70v70H.5z"/></g></svg>