<svg xmlns="http://www.w3.org/2000/svg" width="261.59" height="218" viewBox="0 0 261.59 218">
<defs>
    <style>
	
	@font-face {
	font-family: "proximanova-nova";

	src: url('https://doopsalta2.com/Fonts/proxima-nova-three.woff2') format('woff2'),
		url('https://doopsalta2.com/Fonts/proxima-nova-three.woff') format('woff'),
		url('https://doopsalta2.com/Fonts/proxima-nova-three.otf') format('opentype');
	font-style: normal;
	}
	</style>
	</defs>
  <g id="Group_34" data-name="Group 34" transform="translate(-710.035 -273.398)">
    <rect id="Rectangle_51" data-name="Rectangle 51" width="260.59" height="151.816" transform="translate(710.035 280.398)" fill="none"/>
    <text id="FLOOR" transform="translate(932.625 486.398)" fill="#707070" stroke="rgba(0,0,0,0.5)" stroke-width="1" font-size="11" font-family='proximanova-nova,sans-serif' font-weight="200"><tspan x="0" y="0">FLOOR</tspan></text>
    <line id="Line_4" data-name="Line 4" x2="175.262" transform="translate(753.232 482.398)" fill="none" stroke="#707070" stroke-width="1.5"/>
    <g id="Rectangle_4" data-name="Rectangle 4" transform="translate(797.42 300.651)" fill="#fff" stroke="#454545" stroke-width="1.1">
      <rect width="95.067" height="131.563" stroke="none"/>
      <rect x="0.55" y="0.55" width="93.967" height="130.463" fill="none"/>
    </g>
    <g id="Rectangle_5" data-name="Rectangle 5" transform="translate(805.711 308.942)" fill="#fff" stroke="#454545" stroke-width="1.1">
      <rect width="78.485" height="114.982" stroke="none"/>
      <rect x="0.55" y="0.55" width="77.385" height="113.882" fill="none"/>
    </g>
    <g id="Group_40" data-name="Group 40" transform="translate(4)">
      <rect id="Rectangle_52" data-name="Rectangle 52" width="122" height="23" transform="translate(779.863 273.398)" fill="#fff"/>
      <line id="Line_44" data-name="Line 44" x2="130" transform="translate(775.863 283.898)" fill="none" stroke="#606060" stroke-width="2"/>
      <circle id="Ellipse_15" data-name="Ellipse 15" cx="3.5" cy="3.5" r="3.5" transform="translate(902.863 280.398)" fill="#606060"/>
      <circle id="Ellipse_16" data-name="Ellipse 16" cx="3.5" cy="3.5" r="3.5" transform="translate(772.863 280.398)" fill="#606060"/>
    </g>
    <g id="Group_31" data-name="Group 31" transform="translate(803.454 235.908) rotate(90)">
      <line id="Line_5" data-name="Line 5" y1="18.591" transform="translate(47.99 3)" fill="none" stroke="#606060" stroke-width="1"/>
      <line id="Line_6" data-name="Line 6" y1="18.591" transform="translate(246.49 3)" fill="none" stroke="#606060" stroke-width="0.8"/>
      <line id="Line_7" data-name="Line 7" x2="193.232" transform="translate(50.581 17.31)" fill="none" stroke="#606060" stroke-width="1.2"/>
      <g id="Polygon_1" data-name="Polygon 1" transform="translate(245.676 14.061) rotate(90)" fill="#606060">
        <path d="M 5.890729427337646 7.099999904632568 L 0.6092706918716431 7.099999904632568 L 3.25 1.006009221076965 L 5.890729427337646 7.099999904632568 Z" stroke="none"/>
        <path d="M 3.25 2.012028694152832 L 1.218545436859131 6.699999809265137 L 5.281454086303711 6.699999809265137 L 3.25 2.012028694152832 M 3.25 0 L 6.5 7.5 L 0 7.5 L 3.25 0 Z" stroke="none" fill="#606060"/>
      </g>
      <g id="Polygon_2" data-name="Polygon 2" transform="translate(48.84 20.56) rotate(-90)" fill="#606060">
        <path d="M 5.890729427337646 7.099999904632568 L 0.6092706918716431 7.099999904632568 L 3.25 1.006009221076965 L 5.890729427337646 7.099999904632568 Z" stroke="none"/>
        <path d="M 3.25 2.012028694152832 L 1.218545436859131 6.699999809265137 L 5.281454086303711 6.699999809265137 L 3.25 2.012028694152832 M 3.25 0 L 6.5 7.5 L 0 7.5 L 3.25 0 Z" stroke="none" fill="#606060"/>
      </g>
    </g>
  </g>
</svg>
