<?xml version="1.0" encoding="utf-8"?>
<!-- Generator: Adobe Illustrator 18.0.0, SVG Export Plug-In . SVG Version: 6.00 Build 0)  -->
<!DOCTYPE svg PUBLIC "-//W3C//DTD SVG 1.1//EN" "http://www.w3.org/Graphics/SVG/1.1/DTD/svg11.dtd">
<svg version="1.1" id="Layer_1" xmlns="http://www.w3.org/2000/svg" xmlns:xlink="http://www.w3.org/1999/xlink" x="0px" y="0px"
	 width="435px" height="571px" viewBox="0 0 435 571" enable-background="new 0 0 435 571" xml:space="preserve">
<rect x="0" fill="#FFFFFF" width="435" height="571"/>
<g enable-background="new    ">
	<rect x="0" y="0" fill="#B2B2B2" stroke="#717070" stroke-width="0.7496" stroke-miterlimit="10" width="435" height="6.2"/>
</g>
<rect x="137.2" y="88" fill="none" stroke="#878787" stroke-width="1.5113" stroke-miterlimit="10" width="243.8" height="440.9"/>
<rect x="149.5" y="101.4" fill="none" stroke="#878787" stroke-width="1.4032" stroke-miterlimit="10" width="219.2" height="389.7"/>
<circle fill="#878787" stroke="#878787" stroke-miterlimit="10" cx="404.8" cy="13.5" r="2.4"/>
<circle fill="#878787" stroke="#878787" stroke-miterlimit="10" cx="404.8" cy="23.2" r="2.4"/>
<circle fill="#878787" stroke="#878787" stroke-miterlimit="10" cx="404.8" cy="32.8" r="2.4"/>
<circle fill="#878787" stroke="#878787" stroke-miterlimit="10" cx="404.8" cy="42.5" r="2.4"/>
<circle fill="#878787" stroke="#878787" stroke-miterlimit="10" cx="404.8" cy="52.1" r="2.4"/>
<circle fill="#878787" stroke="#878787" stroke-miterlimit="10" cx="404.8" cy="61.8" r="2.4"/>
<circle fill="#878787" stroke="#878787" stroke-miterlimit="10" cx="404.8" cy="71.5" r="2.4"/>
<circle fill="#878787" stroke="#878787" stroke-miterlimit="10" cx="404.8" cy="81.1" r="2.4"/>
<circle fill="#878787" stroke="#878787" stroke-miterlimit="10" cx="404.8" cy="90.8" r="2.4"/>
<circle fill="#878787" stroke="#878787" stroke-miterlimit="10" cx="404.8" cy="100.4" r="2.4"/>
<circle fill="#878787" stroke="#878787" stroke-miterlimit="10" cx="404.8" cy="110.1" r="2.4"/>
<circle fill="#878787" stroke="#878787" stroke-miterlimit="10" cx="404.8" cy="119.7" r="2.4"/>
<circle fill="#878787" stroke="#878787" stroke-miterlimit="10" cx="404.8" cy="129.4" r="2.4"/>
<circle fill="#878787" stroke="#878787" stroke-miterlimit="10" cx="404.8" cy="139.1" r="2.4"/>
<circle fill="#878787" stroke="#878787" stroke-miterlimit="10" cx="404.8" cy="148.7" r="2.4"/>
<circle fill="#878787" stroke="#878787" stroke-miterlimit="10" cx="404.8" cy="158.4" r="2.4"/>
<circle fill="#878787" stroke="#878787" stroke-miterlimit="10" cx="404.8" cy="168" r="2.4"/>
<circle fill="#878787" stroke="#878787" stroke-miterlimit="10" cx="404.8" cy="177.7" r="2.4"/>
<circle fill="#878787" stroke="#878787" stroke-miterlimit="10" cx="404.8" cy="187.3" r="2.4"/>
<circle fill="#878787" stroke="#878787" stroke-miterlimit="10" cx="404.8" cy="197" r="2.4"/>
<circle fill="#878787" stroke="#878787" stroke-miterlimit="10" cx="404.8" cy="206.7" r="2.4"/>
<circle fill="#878787" stroke="#878787" stroke-miterlimit="10" cx="404.8" cy="216.3" r="2.4"/>
<circle fill="#878787" stroke="#878787" stroke-miterlimit="10" cx="404.8" cy="226" r="2.4"/>
<circle fill="#878787" stroke="#878787" stroke-miterlimit="10" cx="404.8" cy="235.6" r="2.4"/>
<circle fill="#878787" stroke="#878787" stroke-miterlimit="10" cx="404.8" cy="245.3" r="2.4"/>
<circle fill="#878787" stroke="#878787" stroke-miterlimit="10" cx="404.8" cy="255" r="2.4"/>
<circle fill="#878787" stroke="#878787" stroke-miterlimit="10" cx="404.8" cy="264.6" r="2.4"/>
<circle fill="#878787" stroke="#878787" stroke-miterlimit="10" cx="404.8" cy="274.3" r="2.4"/>
<circle fill="#878787" stroke="#878787" stroke-miterlimit="10" cx="404.8" cy="283.9" r="2.4"/>
<circle fill="#878787" stroke="#878787" stroke-miterlimit="10" cx="404.8" cy="293.6" r="2.4"/>
<circle fill="#878787" stroke="#878787" stroke-miterlimit="10" cx="404.8" cy="303.2" r="2.4"/>
<path fill="#FFFFFF" stroke="#878787" stroke-width="1.5" stroke-miterlimit="10" d="M404.8,346L404.8,346c-2.6,0-4.6-2.1-4.6-4.6
	v-25.5c0-2.6,2.1-4.6,4.6-4.6l0,0c2.6,0,4.6,2.1,4.6,4.6v25.5C409.4,343.9,407.3,346,404.8,346z"/>
<line fill="#FFFFFF" stroke="#878787" stroke-width="4.2976" stroke-linecap="round" stroke-miterlimit="10" x1="421.4" y1="10.2" x2="421.4" y2="311.2"/>
<path fill="#FFFFFF" stroke="#878787" stroke-width="1.5" stroke-miterlimit="10" d="M421.4,346L421.4,346c-2.6,0-4.6-2.1-4.6-4.6
	v-25.5c0-2.6,2.1-4.6,4.6-4.6l0,0c2.6,0,4.6,2.1,4.6,4.6v25.5C426,343.9,423.9,346,421.4,346z"/>
<g>
	<g>
		<g>
			<path fill="#DADADA" stroke="#706F6F" stroke-miterlimit="10" d="M58.7,11.1v545.1h0.2c1.2,3.1,8.1,5.6,16.5,5.6
				s15.3-2.4,16.5-5.6h0.2V11.1H58.7z"/>
		</g>
		<path fill="#DADADA" stroke="#706F6F" stroke-miterlimit="10" d="M58.7,40.7c0,0,13.3,6.8,33.4,0"/>
	</g>
	<g>
		<g>
			<path fill="#DADADA" stroke="#706F6F" stroke-miterlimit="10" d="M92.2,11.1v545.1h0.2c1.2,3.1,8.1,5.6,16.5,5.6
				s15.3-2.4,16.5-5.6h0.2V11.1H92.2z"/>
		</g>
		<path fill="#DADADA" stroke="#706F6F" stroke-miterlimit="10" d="M92.2,40.7c0,0,13.3,6.8,33.4,0"/>
	</g>
	<g>
		<g>
			<path fill="#DADADA" stroke="#706F6F" stroke-miterlimit="10" d="M125.8,11.1v545.1h0.2c1.2,3.1,8.1,5.6,16.5,5.6
				c8.4,0,15.3-2.4,16.5-5.6h0.2V11.1H125.8z"/>
		</g>
		<path fill="#DADADA" stroke="#706F6F" stroke-miterlimit="10" d="M125.8,40.7c0,0,13.3,6.8,33.4,0"/>
	</g>
	<g>
		<g>
			<path fill="#DADADA" stroke="#706F6F" stroke-miterlimit="10" d="M192.8,11.1v545.1h0.2c1.2,3.1,8.1,5.6,16.5,5.6
				s15.3-2.4,16.5-5.6h0.2V11.1H192.8z"/>
		</g>
		<path fill="#DADADA" stroke="#706F6F" stroke-miterlimit="10" d="M192.8,40.7c0,0,13.3,6.8,33.4,0"/>
	</g>
	<g>
		<g>
			<path fill="#DADADA" stroke="#706F6F" stroke-miterlimit="10" d="M226.3,11.1v545.1h0.2c1.2,3.1,8.1,5.6,16.5,5.6
				s15.3-2.4,16.5-5.6h0.2V11.1H226.3z"/>
		</g>
		<path fill="#DADADA" stroke="#706F6F" stroke-miterlimit="10" d="M226.3,40.7c0,0,13.3,6.8,33.4,0"/>
	</g>
	<g>
		<g>
			<path fill="#DADADA" stroke="#706F6F" stroke-miterlimit="10" d="M259.8,11.1v545.1h0.2c1.2,3.1,8.1,5.6,16.5,5.6
				s15.3-2.4,16.5-5.6h0.2V11.1H259.8z"/>
		</g>
		<path fill="#DADADA" stroke="#706F6F" stroke-miterlimit="10" d="M259.8,40.7c0,0,13.3,6.8,33.4,0"/>
	</g>
	<g>
		<g>
			<path fill="#DADADA" stroke="#706F6F" stroke-miterlimit="10" d="M293.4,11.1v545.1h0.2c1.2,3.1,8.1,5.6,16.5,5.6
				s15.3-2.4,16.5-5.6h0.2V11.1H293.4z"/>
		</g>
		<path fill="#DADADA" stroke="#706F6F" stroke-miterlimit="10" d="M293.4,40.7c0,0,13.3,6.8,33.4,0"/>
	</g>
	<g>
		<g>
			<path fill="#DADADA" stroke="#706F6F" stroke-miterlimit="10" d="M326.9,11.1v545.1h0.2c1.2,3.1,8.1,5.6,16.5,5.6
				s15.3-2.4,16.5-5.6h0.2V11.1H326.9z"/>
		</g>
		<path fill="#DADADA" stroke="#706F6F" stroke-miterlimit="10" d="M326.9,40.7c0,0,13.3,6.8,33.4,0"/>
	</g>
	<g>
		<g>
			<path fill="#DADADA" stroke="#706F6F" stroke-miterlimit="10" d="M360.4,11.1v545.1h0.2c1.2,3.1,8.1,5.6,16.5,5.6
				s15.3-2.4,16.5-5.6h0.2V11.1H360.4z"/>
		</g>
		<path fill="#DADADA" stroke="#706F6F" stroke-miterlimit="10" d="M360.4,40.7c0,0,13.3,6.8,33.4,0"/>
	</g>
	<g>
		<g>
			<path fill="#DADADA" stroke="#706F6F" stroke-miterlimit="10" d="M159.3,11.1v545.1h0.2c1.2,3.1,8.1,5.6,16.5,5.6
				s15.3-2.4,16.5-5.6h0.2V11.1H159.3z"/>
		</g>
		<path fill="#DADADA" stroke="#706F6F" stroke-miterlimit="10" d="M159.3,40.7c0,0,13.3,6.8,33.4,0"/>
	</g>
	<g>
		<g>
			<path fill="#DADADA" stroke="#706F6F" stroke-miterlimit="10" d="M25.2,11.1v545.1h0.2c1.2,3.1,8.1,5.6,16.5,5.6
				s15.3-2.4,16.5-5.6h0.2V11.1H25.2z"/>
		</g>
		<path fill="#DADADA" stroke="#706F6F" stroke-miterlimit="10" d="M25.2,40.7c0,0,13.3,6.8,33.4,0"/>
	</g>
</g>
</svg>
