<?xml version="1.0" encoding="utf-8"?>
<!-- Generator: Adobe Illustrator 18.0.0, SVG Export Plug-In . SVG Version: 6.00 Build 0)  -->
<!DOCTYPE svg PUBLIC "-//W3C//DTD SVG 1.1//EN" "http://www.w3.org/Graphics/SVG/1.1/DTD/svg11.dtd">
<svg version="1.1" id="Layer_1" xmlns="http://www.w3.org/2000/svg" xmlns:xlink="http://www.w3.org/1999/xlink" x="0px" y="0px"
	 width="435px" height="571px" viewBox="0 0 435 571" enable-background="new 0 0 435 571" xml:space="preserve">
<rect x="0" fill="#FFFFFF" width="435" height="571"/>
<g enable-background="new    ">
	<rect x="0" y="0" fill="#B2B2B2" stroke="#717070" stroke-width="0.7496" stroke-miterlimit="10" width="435" height="6.2"/>
</g>
<rect x="137.2" y="88" fill="none" stroke="#878787" stroke-width="1.5113" stroke-miterlimit="10" width="243.8" height="440.9"/>
<rect x="149.5" y="101.4" fill="none" stroke="#878787" stroke-width="1.4032" stroke-miterlimit="10" width="219.2" height="389.7"/>
<rect x="117.4" y="68.7" fill="none" stroke="#878787" stroke-width="3.0984" stroke-miterlimit="10" width="283.5" height="479.5"/>
<g>
	<g>
		<path fill="#DADADA" stroke="#706F6F" stroke-miterlimit="10" d="M74.9,11.1v545.1h0.2c1.2,3.1,8.1,5.6,16.5,5.6
			s15.3-2.4,16.5-5.6h0.2V11.1H74.9z"/>
	</g>
	<path fill="#DADADA" stroke="#706F6F" stroke-miterlimit="10" d="M74.9,40.7c0,0,13.3,6.8,33.4,0"/>
</g>
<g>
	<g>
		<path fill="#DADADA" stroke="#706F6F" stroke-miterlimit="10" d="M108.4,11.1v545.1h0.2c1.2,3.1,8.1,5.6,16.5,5.6
			s15.3-2.4,16.5-5.6h0.2V11.1H108.4z"/>
	</g>
	<path fill="#DADADA" stroke="#706F6F" stroke-miterlimit="10" d="M108.4,40.7c0,0,13.3,6.8,33.4,0"/>
</g>
<g>
	<g>
		<path fill="#DADADA" stroke="#706F6F" stroke-miterlimit="10" d="M141.9,11.1v545.1h0.2c1.2,3.1,8.1,5.6,16.5,5.6
			s15.3-2.4,16.5-5.6h0.2V11.1H141.9z"/>
	</g>
	<path fill="#DADADA" stroke="#706F6F" stroke-miterlimit="10" d="M141.9,40.7c0,0,13.3,6.8,33.4,0"/>
</g>
<g>
	<g>
		<path fill="#DADADA" stroke="#706F6F" stroke-miterlimit="10" d="M208.9,11.1v545.1h0.2c1.2,3.1,8.1,5.6,16.5,5.6
			c8.4,0,15.3-2.4,16.5-5.6h0.2V11.1H208.9z"/>
	</g>
	<path fill="#DADADA" stroke="#706F6F" stroke-miterlimit="10" d="M208.9,40.7c0,0,13.3,6.8,33.4,0"/>
</g>
<g>
	<g>
		<path fill="#DADADA" stroke="#706F6F" stroke-miterlimit="10" d="M242.4,11.1v545.1h0.2c1.2,3.1,8.1,5.6,16.5,5.6
			c8.4,0,15.3-2.4,16.5-5.6h0.2V11.1H242.4z"/>
	</g>
	<path fill="#DADADA" stroke="#706F6F" stroke-miterlimit="10" d="M242.4,40.7c0,0,13.3,6.8,33.4,0"/>
</g>
<g>
	<g>
		<path fill="#DADADA" stroke="#706F6F" stroke-miterlimit="10" d="M275.9,11.1v545.1h0.2c1.2,3.1,8.1,5.6,16.5,5.6
			s15.3-2.4,16.5-5.6h0.2V11.1H275.9z"/>
	</g>
	<path fill="#DADADA" stroke="#706F6F" stroke-miterlimit="10" d="M275.9,40.7c0,0,13.3,6.8,33.4,0"/>
</g>
<g>
	<g>
		<path fill="#DADADA" stroke="#706F6F" stroke-miterlimit="10" d="M309.4,11.1v545.1h0.2c1.2,3.1,8.1,5.6,16.5,5.6
			s15.3-2.4,16.5-5.6h0.2V11.1H309.4z"/>
	</g>
	<path fill="#DADADA" stroke="#706F6F" stroke-miterlimit="10" d="M309.4,40.7c0,0,13.3,6.8,33.4,0"/>
</g>
<g>
	<g>
		<path fill="#DADADA" stroke="#706F6F" stroke-miterlimit="10" d="M342.9,11.1v545.1h0.2c1.2,3.1,8.1,5.6,16.5,5.6
			s15.3-2.4,16.5-5.6h0.2V11.1H342.9z"/>
	</g>
	<path fill="#DADADA" stroke="#706F6F" stroke-miterlimit="10" d="M342.9,40.7c0,0,13.3,6.8,33.4,0"/>
</g>
<g>
	<g>
		<path fill="#DADADA" stroke="#706F6F" stroke-miterlimit="10" d="M376.4,11.1v545.1h0.2c1.2,3.1,8.1,5.6,16.5,5.6
			s15.3-2.4,16.5-5.6h0.2V11.1H376.4z"/>
	</g>
	<path fill="#DADADA" stroke="#706F6F" stroke-miterlimit="10" d="M376.4,40.7c0,0,13.3,6.8,33.4,0"/>
</g>
<circle fill="#878787" stroke="#878787" stroke-miterlimit="10" cx="29.2" cy="13.5" r="2.4"/>
<circle fill="#878787" stroke="#878787" stroke-miterlimit="10" cx="29.2" cy="23.2" r="2.4"/>
<circle fill="#878787" stroke="#878787" stroke-miterlimit="10" cx="29.2" cy="32.8" r="2.4"/>
<circle fill="#878787" stroke="#878787" stroke-miterlimit="10" cx="29.2" cy="42.5" r="2.4"/>
<circle fill="#878787" stroke="#878787" stroke-miterlimit="10" cx="29.2" cy="52.1" r="2.4"/>
<circle fill="#878787" stroke="#878787" stroke-miterlimit="10" cx="29.2" cy="61.8" r="2.4"/>
<circle fill="#878787" stroke="#878787" stroke-miterlimit="10" cx="29.2" cy="71.5" r="2.4"/>
<circle fill="#878787" stroke="#878787" stroke-miterlimit="10" cx="29.2" cy="81.1" r="2.4"/>
<circle fill="#878787" stroke="#878787" stroke-miterlimit="10" cx="29.2" cy="90.8" r="2.4"/>
<circle fill="#878787" stroke="#878787" stroke-miterlimit="10" cx="29.2" cy="100.4" r="2.4"/>
<circle fill="#878787" stroke="#878787" stroke-miterlimit="10" cx="29.2" cy="110.1" r="2.4"/>
<circle fill="#878787" stroke="#878787" stroke-miterlimit="10" cx="29.2" cy="119.7" r="2.4"/>
<circle fill="#878787" stroke="#878787" stroke-miterlimit="10" cx="29.2" cy="129.4" r="2.4"/>
<circle fill="#878787" stroke="#878787" stroke-miterlimit="10" cx="29.2" cy="139.1" r="2.4"/>
<circle fill="#878787" stroke="#878787" stroke-miterlimit="10" cx="29.2" cy="148.7" r="2.4"/>
<circle fill="#878787" stroke="#878787" stroke-miterlimit="10" cx="29.2" cy="158.4" r="2.4"/>
<circle fill="#878787" stroke="#878787" stroke-miterlimit="10" cx="29.2" cy="168" r="2.4"/>
<circle fill="#878787" stroke="#878787" stroke-miterlimit="10" cx="29.2" cy="177.7" r="2.4"/>
<circle fill="#878787" stroke="#878787" stroke-miterlimit="10" cx="29.2" cy="187.3" r="2.4"/>
<circle fill="#878787" stroke="#878787" stroke-miterlimit="10" cx="29.2" cy="197" r="2.4"/>
<circle fill="#878787" stroke="#878787" stroke-miterlimit="10" cx="29.2" cy="206.7" r="2.4"/>
<circle fill="#878787" stroke="#878787" stroke-miterlimit="10" cx="29.2" cy="216.3" r="2.4"/>
<circle fill="#878787" stroke="#878787" stroke-miterlimit="10" cx="29.2" cy="226" r="2.4"/>
<circle fill="#878787" stroke="#878787" stroke-miterlimit="10" cx="29.2" cy="235.6" r="2.4"/>
<circle fill="#878787" stroke="#878787" stroke-miterlimit="10" cx="29.2" cy="245.3" r="2.4"/>
<circle fill="#878787" stroke="#878787" stroke-miterlimit="10" cx="29.2" cy="255" r="2.4"/>
<circle fill="#878787" stroke="#878787" stroke-miterlimit="10" cx="29.2" cy="264.6" r="2.4"/>
<circle fill="#878787" stroke="#878787" stroke-miterlimit="10" cx="29.2" cy="274.3" r="2.4"/>
<circle fill="#878787" stroke="#878787" stroke-miterlimit="10" cx="29.2" cy="283.9" r="2.4"/>
<circle fill="#878787" stroke="#878787" stroke-miterlimit="10" cx="29.2" cy="293.6" r="2.4"/>
<circle fill="#878787" stroke="#878787" stroke-miterlimit="10" cx="29.2" cy="303.2" r="2.4"/>
<path fill="#FFFFFF" stroke="#878787" stroke-width="1.5" stroke-miterlimit="10" d="M29.2,346L29.2,346c2.6,0,4.6-2.1,4.6-4.6
	v-25.5c0-2.6-2.1-4.6-4.6-4.6h0c-2.6,0-4.6,2.1-4.6,4.6v25.5C24.6,343.9,26.7,346,29.2,346z"/>
<line fill="#FFFFFF" stroke="#878787" stroke-width="4.2976" stroke-linecap="round" stroke-miterlimit="10" x1="12.6" y1="10.2" x2="12.6" y2="311.2"/>
<path fill="#FFFFFF" stroke="#878787" stroke-width="1.5" stroke-miterlimit="10" d="M12.6,346L12.6,346c2.6,0,4.6-2.1,4.6-4.6
	v-25.5c0-2.6-2.1-4.6-4.6-4.6h0c-2.6,0-4.6,2.1-4.6,4.6v25.5C8,343.9,10.1,346,12.6,346z"/>
<g>
	<g>
		<path fill="#DADADA" stroke="#706F6F" stroke-miterlimit="10" d="M175.4,11.1v545.1h0.2c1.2,3.1,8.1,5.6,16.5,5.6
			s15.3-2.4,16.5-5.6h0.2V11.1H175.4z"/>
	</g>
	<path fill="#DADADA" stroke="#706F6F" stroke-miterlimit="10" d="M175.4,40.7c0,0,13.3,6.8,33.4,0"/>
</g>
<g>
	<g>
		<path fill="#DADADA" stroke="#706F6F" stroke-miterlimit="10" d="M41.2,11.1v545.1h0.2c1.2,3.1,8.1,5.6,16.5,5.6
			s15.3-2.4,16.5-5.6h0.2V11.1H41.2z"/>
	</g>
	<path fill="#DADADA" stroke="#706F6F" stroke-miterlimit="10" d="M41.2,40.7c0,0,13.3,6.8,33.4,0"/>
</g>
</svg>
