<?xml version="1.0" encoding="utf-8"?>
<!-- Generator: Adobe Illustrator 18.0.0, SVG Export Plug-In . SVG Version: 6.00 Build 0)  -->
<!DOCTYPE svg PUBLIC "-//W3C//DTD SVG 1.1//EN" "http://www.w3.org/Graphics/SVG/1.1/DTD/svg11.dtd">
<svg version="1.1" id="Layer_1" xmlns="http://www.w3.org/2000/svg" xmlns:xlink="http://www.w3.org/1999/xlink" x="0px" y="0px"
	 width="450px" height="570px" viewBox="0 0 450 570" enable-background="new 0 0 450 570" xml:space="preserve">
<g>
	<rect x="84.9" y="116.9" fill="none" stroke="#616261" stroke-width="3" stroke-miterlimit="10" width="280.2" height="389"/>
	<rect x="108" y="140" fill="none" stroke="#616261" stroke-width="3" stroke-miterlimit="10" width="234" height="342.8"/>
</g>
<g>
	<g>
		<line fill="none" stroke="#464545" stroke-width="3" x1="120.9" y1="313.4" x2="329.1" y2="313.4"/>
		<g>
			<polygon fill="#464545" points="123.5,322.4 108,313.4 123.5,304.4 			"/>
		</g>
		<g>
			<polygon fill="#464545" points="326.5,322.4 342,313.4 326.5,304.4 			"/>
		</g>
	</g>
</g>
<g>
	<text transform="matrix(1 0 0 1 398.4498 174.4321)" fill="#464545" font-family="'ProximaNova-Regular'" font-size="26">A</text>
</g>
<g>
	<text transform="matrix(1 0 0 1 398.8243 321.0276)" fill="#464545" font-family="'ProximaNova-Regular'" font-size="26">B</text>
</g>
<g>
	<text transform="matrix(1 0 0 1 398.215 461.4321)" fill="#464545" font-family="'ProximaNova-Regular'" font-size="26">C</text>
</g>
<g>
	<g>
		<line fill="none" stroke="#464545" stroke-width="3" x1="120.9" y1="166.8" x2="329.1" y2="166.8"/>
		<g>
			<polygon fill="#464545" points="123.5,175.8 108,166.8 123.5,157.8 			"/>
		</g>
		<g>
			<polygon fill="#464545" points="326.5,175.8 342,166.8 326.5,157.8 			"/>
		</g>
	</g>
</g>
<g>
	<g>
		<line fill="none" stroke="#464545" stroke-width="3" x1="120.9" y1="453.8" x2="329.1" y2="453.8"/>
		<g>
			<polygon fill="#464545" points="123.5,462.8 108,453.8 123.5,444.8 			"/>
		</g>
		<g>
			<polygon fill="#464545" points="326.5,462.8 342,453.8 326.5,444.8 			"/>
		</g>
	</g>
</g>
</svg>
