<?xml version="1.0" encoding="utf-8"?>
<!-- Generator: Adobe Illustrator 18.0.0, SVG Export Plug-In . SVG Version: 6.00 Build 0)  -->
<!DOCTYPE svg PUBLIC "-//W3C//DTD SVG 1.1//EN" "http://www.w3.org/Graphics/SVG/1.1/DTD/svg11.dtd">
<svg version="1.1" id="Layer_1" xmlns="http://www.w3.org/2000/svg" xmlns:xlink="http://www.w3.org/1999/xlink" x="0px" y="0px"
	 width="540px" height="650px" viewBox="0 0 540 650" enable-background="new 0 0 540 650" xml:space="preserve">
	 <defs>
		<style>
			@font-face {
			font-family: "proximanova-nova";

			src: url('https://doopsalta2.com/Fonts/proxima-nova-three.woff2') format('woff2'),
				url('https://doopsalta2.com/Fonts/proxima-nova-three.woff') format('woff'),
				url('https://doopsalta2.com/Fonts/proxima-nova-three.otf') format('opentype');
			font-style: normal;
			}
		</style>
	</defs>
<g>
	
		<polygon opacity="0.8" fill="#B2B2B2" stroke="#717070" stroke-width="0.6174" stroke-miterlimit="10" enable-background="new    " points="
		450.5,111.2 460,101.6 0.3,101.6 9.2,111.2 449.2,111.2 	"/>
	
		<rect x="0" y="69.5" fill="#C6C6C6" stroke="#717070" stroke-width="0.5848" stroke-miterlimit="10" enable-background="new    " width="460" height="32.1"/>
</g>
<g>
	<rect x="89.9" y="176.5" fill="none" stroke="#616261" stroke-width="3" stroke-miterlimit="10" width="280.2" height="389"/>
	<rect x="113" y="199.5" fill="none" stroke="#616261" stroke-width="3" stroke-miterlimit="10" width="234" height="342.8"/>
</g>
<g>
	<g>
		<line fill="none" stroke="#464545" stroke-width="3" x1="321.2" y1="82.4" x2="321.2" y2="552.5"/>
		<g>
			<polygon fill="#464545" points="312.2,85 321.2,69.5 330.2,85 			"/>
		</g>
		<g>
			<polygon fill="#464545" points="312.2,549.9 321.2,565.5 330.2,549.9 			"/>
		</g>
	</g>
</g>
<g>
	<g>
		<line fill="none" stroke="#464545" stroke-width="3" x1="230" y1="82.4" x2="230" y2="552.5"/>
		<g>
			<polygon fill="#464545" points="221,85 230,69.5 239,85 			"/>
		</g>
		<g>
			<polygon fill="#464545" points="221,549.9 230,565.5 239,549.9 			"/>
		</g>
	</g>
</g>
<g>
	<g>
		<line fill="none" stroke="#464545" stroke-width="3" x1="139.8" y1="82.4" x2="139.8" y2="552.5"/>
		<g>
			<polygon fill="#464545" points="130.9,85 139.8,69.5 148.8,85 			"/>
		</g>
		<g>
			<polygon fill="#464545" points="130.9,549.9 139.8,565.5 148.8,549.9 			"/>
		</g>
	</g>
</g>
<line fill="none" stroke="#464545" stroke-width="2.9678" x1="0" y1="639.2" x2="460" y2="639.2"/>
<g>
	<g>
		<path fill="#464545" d="M486,640.8c-0.2,0-0.3,0-0.5,0c-0.2,0-0.3,0-0.5,0c-0.6,0-1.2-0.2-1.7-0.4c-0.5-0.2-0.9-0.5-1.1-0.9
			c-0.5-0.7-0.7-1.5-0.5-2.5c0.1-0.5,0.2-0.9,0.4-1.3c0.2-0.4,0.4-0.8,0.6-1.1c0.3-0.4,0.6-0.6,0.9-0.8c0.3-0.2,0.7-0.3,1.1-0.3
			c0.4,0,0.8,0.1,1.2,0.3s0.7,0.5,1.1,0.8c0.3,0.3,0.5,0.7,0.8,1.1s0.4,0.9,0.5,1.4c0.1,0.5,0.2,1,0.3,1.5s0.1,1,0,1.6h0
			c0,0,0,0.1,0,0.3c0,0.2-0.1,0.4-0.1,0.7c-0.1,0.3-0.1,0.6-0.3,1c-0.1,0.4-0.3,0.7-0.5,1.1c-0.2,0.5-0.5,0.9-0.8,1.2
			s-0.7,0.7-1,0.9c-0.5,0.3-1,0.6-1.6,0.8c-0.6,0.2-1.2,0.2-1.9,0.2h0c-1.1,0-2.1-0.2-3-0.7c-0.5-0.2-0.9-0.5-1.2-0.8
			c-0.4-0.3-0.6-0.7-0.9-1.1c-0.3-0.5-0.5-1-0.6-1.6c-0.1-0.6-0.2-1.2-0.1-1.9c0-0.7,0.2-1.4,0.4-2.1c0.2-0.7,0.5-1.4,0.9-2.2
			l1.5,0.8c-0.3,0.6-0.6,1.2-0.8,1.7c-0.2,0.6-0.3,1.1-0.4,1.6s0,1,0,1.4s0.2,0.9,0.5,1.2c0.3,0.6,0.8,1,1.5,1.3s1.4,0.4,2.2,0.4h0
			c0.6,0,1.1,0,1.6-0.2s0.9-0.5,1.3-0.8c0.4-0.4,0.7-0.8,0.9-1.3c0.2-0.5,0.4-1,0.5-1.5c-0.1,0-0.3,0-0.4,0
			C486.3,640.8,486.2,640.8,486,640.8z M484.2,630.6l-1.4,1.4l-1.4-1.4l1.4-1.4L484.2,630.6z M484.8,635.2c-0.2,0-0.4,0.2-0.7,0.5
			c-0.2,0.2-0.3,0.4-0.4,0.7s-0.2,0.6-0.3,0.9c-0.1,0.5,0,0.9,0.2,1.2c0.1,0.1,0.2,0.2,0.3,0.3c0.1,0.1,0.3,0.1,0.4,0.2
			c0.1,0,0.3,0.1,0.4,0.1c0.1,0,0.3,0,0.4,0c0.4,0,0.7,0,1,0c0.3,0,0.6,0,0.8,0c0-0.4-0.1-0.7-0.1-1.1c-0.1-0.3-0.2-0.6-0.3-0.9
			c-0.1-0.3-0.2-0.5-0.4-0.8c-0.1-0.2-0.3-0.4-0.4-0.6c-0.1-0.1-0.3-0.3-0.4-0.4C485.2,635.3,485,635.2,484.8,635.2z M487.8,630.6
			l-1.4,1.4l-1.4-1.4l1.4-1.4L487.8,630.6z"/>
		<path fill="#464545" d="M495.1,640.8c-0.6,0-1.2-0.1-1.6-0.2c-0.5-0.2-0.8-0.4-1.2-0.7c-0.2-0.2-0.3-0.4-0.4-0.6
			c-0.1-0.2-0.2-0.4-0.2-0.7s-0.1-0.4-0.1-0.6s0-0.4,0-0.5v-0.2c0,0,0-0.1,0-0.3s0-0.5,0-0.8s0-0.8,0-1.2s0-0.9,0-1.5
			c0-0.5,0-1,0-1.6s0-1.1-0.1-1.6c0-0.5-0.1-1-0.1-1.4c0-0.4-0.1-0.8-0.1-1l1.7-0.3c0.1,0.3,0.1,0.7,0.1,1.1c0,0.4,0.1,0.9,0.1,1.4
			c0,0.5,0,1,0.1,1.6c0,0.5,0,1.1,0,1.6c0,0.5,0,1,0,1.5s0,0.9,0,1.3s0,0.7,0,0.9c0,0.2,0,0.4,0,0.4v0.2c0,0.3,0,0.5,0,0.7
			c0,0.2,0.1,0.4,0.2,0.5c0.3,0.3,0.8,0.4,1.5,0.4h0.1c0.1,0,0.2,0,0.3,0.1c0.1,0,0.2,0.1,0.3,0.2s0.1,0.2,0.2,0.3s0.1,0.2,0.1,0.3
			c0,0.2-0.1,0.4-0.3,0.6C495.6,640.7,495.4,640.8,495.1,640.8z"/>
		<path fill="#464545" d="M493.9,640c0-0.2,0.1-0.4,0.2-0.6c0.2-0.2,0.4-0.2,0.6-0.2h1c0.2,0,0.4,0,0.7,0s0.5,0,0.7,0
			c0.2,0,0.5-0.1,0.7-0.1c0.2,0,0.5-0.1,0.6-0.2c0.2-0.1,0.4-0.2,0.5-0.3c0.2-0.1,0.3-0.3,0.3-0.4c0.1-0.2,0.1-0.6,0.1-1.1
			s-0.2-1-0.4-1.6c-0.1-0.2-0.1-0.4-0.2-0.6c-0.1-0.2-0.2-0.4-0.2-0.6c-0.1-0.2-0.2-0.4-0.3-0.7l1.5-0.8c0,0,0,0.1,0.1,0.2
			c0.1,0.1,0.1,0.3,0.2,0.5s0.2,0.4,0.3,0.7c0.1,0.3,0.2,0.5,0.3,0.8c0.5,1.7,0.6,3,0.2,3.9c-0.4,0.9-1.1,1.5-2.2,1.8
			c-0.2,0-0.4,0.1-0.6,0.1c-0.2,0-0.5,0-0.7,0.1c-0.3,0-0.5,0-0.7,0c-0.2,0-0.4,0-0.5,0h-1.3h-0.1c-0.2,0-0.4-0.1-0.6-0.2
			C494,640.4,493.9,640.2,493.9,640z M498.4,630l-1.4,1.4l-1.4-1.4l1.4-1.4L498.4,630z M502,630l-1.4,1.4l-1.4-1.4l1.4-1.4L502,630z
			"/>
		<path fill="#464545" d="M505.3,627.1c0.3,2.4,0.4,4.5,0.4,6.3c0.1,3.1,0,5.6-0.1,7.5l-1.7-0.1c0.2-2.6,0.2-4.7,0.2-6.5
			c-0.1-2.8-0.3-5.1-0.5-7L505.3,627.1z"/>
		<path fill="#464545" d="M529.1,638.7C529,638.7,529,638.8,529.1,638.7c-0.1,0.1-0.1,0.2-0.2,0.2c0.4,0.1,0.7,0.1,1.1,0.2
			c0.4,0,0.7,0.1,1.1,0.1c0.2,0,0.4,0.1,0.6,0.2c0.2,0.2,0.3,0.4,0.3,0.6c0,0.1,0,0.2-0.1,0.3c0,0.1-0.1,0.2-0.2,0.3
			s-0.2,0.1-0.3,0.2c-0.1,0-0.2,0.1-0.3,0.1c-0.7,0-1.5-0.1-2.2-0.2c-0.7-0.1-1.3-0.3-1.9-0.5c-0.1,0-0.2,0.1-0.3,0.1
			c-0.1,0-0.2,0.1-0.3,0.1c-0.3,0.1-0.6,0.2-1,0.3s-0.8,0.1-1.3,0.2c-0.5,0.1-1,0.1-1.5,0.1c-0.5,0-1,0-1.6,0
			c-1.8,0-3.2-0.2-4.4-0.7c-1.2-0.4-2-1.1-2.5-2c-0.2-0.4-0.4-0.8-0.5-1.2c-0.1-0.4-0.1-0.8-0.1-1.2c0-0.4,0.1-0.7,0.1-1.1
			s0.2-0.6,0.3-0.9c0.1-0.3,0.2-0.5,0.3-0.6s0.1-0.3,0.1-0.3l1.5,0.8c0,0,0,0.1-0.1,0.2c-0.1,0.1-0.1,0.3-0.2,0.4
			c-0.1,0.2-0.1,0.4-0.2,0.6c-0.1,0.2-0.1,0.5-0.1,0.7c0,0.3,0,0.5,0,0.8s0.1,0.5,0.3,0.8c0.2,0.3,0.4,0.5,0.7,0.8s0.6,0.4,1,0.6
			c0.4,0.1,0.9,0.3,1.4,0.3s1.2,0.1,1.9,0.1c0.5,0,1,0,1.4,0c0.4,0,0.8,0,1.1-0.1c0.3,0,0.6-0.1,0.9-0.1s0.5-0.1,0.7-0.1
			c-0.8-0.7-1.2-1.4-1.2-2.3c0-0.5,0.1-1.1,0.2-1.5c0.2-0.5,0.4-0.9,0.7-1.3c0.3-0.4,0.7-0.7,1.1-0.9c0.4-0.2,0.8-0.3,1.3-0.3
			c0.4,0,0.8,0.1,1.1,0.2c0.3,0.1,0.7,0.4,0.9,0.6c0.1,0.1,0.2,0.2,0.3,0.4c0.1,0.2,0.2,0.3,0.3,0.6c0.1,0.2,0.2,0.5,0.2,0.7
			s0.1,0.6,0.1,0.9C529.8,637.2,529.6,638,529.1,638.7z M526.9,638.3c0.2-0.1,0.5-0.3,0.6-0.5c0.2-0.2,0.3-0.3,0.4-0.5
			c0.1-0.2,0.1-0.4,0.2-0.6c0-0.2,0-0.4,0-0.6c0-0.4-0.1-0.7-0.2-1c-0.1-0.2-0.2-0.4-0.4-0.5c-0.1-0.1-0.3-0.2-0.4-0.2s-0.2,0-0.3,0
			c-0.2,0-0.3,0.1-0.5,0.2c-0.2,0.1-0.4,0.3-0.5,0.5c-0.2,0.2-0.3,0.5-0.4,0.7c-0.1,0.3-0.2,0.6-0.2,1c0,0.3,0.1,0.5,0.4,0.8
			c0.3,0.3,0.6,0.5,1.1,0.7L526.9,638.3z M528.3,629.2l-1.4,1.4l-1.4-1.4l1.4-1.4L528.3,629.2z"/>
		<path fill="#464545" d="M530.2,640c0-0.2,0.1-0.4,0.3-0.6s0.4-0.2,0.7-0.2h0.9c0.3,0,0.7,0,1.1,0s0.7,0,1.1-0.1
			c0.3-0.1,0.7-0.2,0.9-0.3c0.3-0.1,0.5-0.3,0.7-0.6c0.2-0.3,0.3-0.6,0.3-0.9c0-0.3,0-0.7-0.1-1.1c-0.1-0.2-0.2-0.5-0.5-0.9
			c-0.3-0.4-0.6-0.8-0.9-1.2c-0.4-0.4-0.8-0.9-1.2-1.3s-0.9-0.9-1.4-1.2l0.2-1.8l7.1-3.1l0.7,1.6l-6.2,2.6c0.3,0.2,0.6,0.5,0.9,0.8
			c0.3,0.3,0.7,0.6,1,1c0.4,0.5,0.8,1,1.1,1.4s0.5,0.9,0.7,1.3c0.2,0.4,0.3,0.8,0.3,1.1s0.1,0.7,0,1c0,0.3-0.1,0.6-0.2,0.9
			s-0.2,0.5-0.3,0.7c-0.5,0.9-1.4,1.5-2.6,1.7c-0.2,0-0.5,0.1-0.8,0.1h-2.8c-0.3,0-0.5-0.1-0.7-0.2
			C530.3,640.4,530.2,640.2,530.2,640z"/>
	</g>
</g>
<g>
	<g>
		<path fill="#464545" d="M328.2,6c0.1,0.7,0.2,1.3,0.3,1.9c0.1,0.6,0.1,1.1,0.1,1.6c0,1.5-0.3,2.7-1,3.5c-0.3,0.4-0.7,0.6-1.1,0.8
			c-0.4,0.2-0.9,0.3-1.4,0.3c-0.2,0-0.4,0-0.6-0.1c-0.2,0-0.5-0.1-0.7-0.2c-0.2-0.1-0.5-0.3-0.7-0.5c-0.2-0.2-0.4-0.4-0.6-0.7
			l-0.2,0.4c-0.4,0.4-0.8,0.8-1.3,1c-0.5,0.2-1,0.3-1.6,0.3c-0.3,0-0.6,0-0.8-0.1c-0.2,0-0.5-0.1-0.7-0.2c0,0.1,0,0.2,0,0.3
			c0,0.1,0,0.2,0,0.3c0.1,0.8,0.2,1.6,0.2,2.4c0.1,0.8,0.1,1.6,0.1,2.4c0,0.8,0.1,1.6,0.1,2.4c0,0.8,0,1.5,0,2.3h-2.4
			c0-0.3,0-0.7,0-1c0-0.4,0-0.7,0-1c0-1.2,0-2.3-0.1-3.4c-0.1-1.1-0.2-2.2-0.4-3.3c-0.2-1-0.4-2-0.6-3c-0.2-1-0.5-1.9-0.9-2.7
			c0,0,0-0.1-0.1-0.2c0,0,0-0.1,0-0.1c-0.1-0.3-0.3-0.6-0.4-0.9c-0.1-0.3-0.3-0.6-0.5-0.9l2.2-1.3c0.1,0.1,0.1,0.2,0.2,0.4
			c0.1,0.1,0.2,0.3,0.2,0.5c0.1,0.2,0.2,0.3,0.2,0.5c0.1,0.2,0.2,0.3,0.2,0.5c0.2,0.4,0.4,0.8,0.6,1.2c0.2,0.5,0.4,0.9,0.6,1.3
			s0.3,0.6,0.5,0.8c0.2,0.2,0.4,0.4,0.6,0.5c0.2,0.1,0.5,0.1,0.9,0.1c0.3,0,0.5,0,0.6-0.1s0.3-0.2,0.4-0.4c0.2-0.3,0.4-0.6,0.5-1.1
			c0.1-0.5,0.2-1.1,0.2-1.7c0-0.1,0-0.2,0-0.5c0-0.2,0-0.5,0-0.7c0-0.2,0-0.5,0-0.7s0-0.3,0-0.4l2.4-0.3c0,0,0,0.1,0,0.1
			c0,0,0,0.1,0,0.1c0,0.1,0,0.2,0.1,0.4c0,0.2,0,0.4,0.1,0.7c0,0.5,0.1,1,0.2,1.6c0.1,0.6,0.2,1,0.3,1.5c0.1,0.3,0.2,0.5,0.3,0.7
			c0.1,0.2,0.2,0.3,0.3,0.4c0.1,0.1,0.2,0.1,0.3,0.2c0.1,0,0.1,0,0.2,0c0.2,0,0.4,0,0.5-0.1c0.1-0.1,0.2-0.1,0.2-0.2
			c0,0,0.1-0.1,0.1-0.2c0.1-0.1,0.1-0.2,0.1-0.4s0.1-0.4,0.1-0.6s0-0.5,0-0.8c0-0.4,0-0.8-0.1-1.3c-0.1-0.5-0.1-1.1-0.3-1.8L328.2,6
			z"/>
	</g>
</g>
<g>
	<g>
		<path fill="#464545" d="M235.1,6.2c0,0,0,0.1,0,0.2c0,0.1,0,0.3,0.1,0.6s0,0.5,0.1,0.8c0,0.3,0,0.6,0,0.9c0,1.9-0.5,3.3-1.3,4.3v0
			c-0.4,0.5-0.9,0.9-1.5,1.1c-0.6,0.3-1.2,0.4-1.9,0.4c-0.4,0-0.7,0-1-0.1c-0.3-0.1-0.6-0.1-0.9-0.3c0,0.1,0,0.2,0,0.3
			c0,0.1,0,0.2,0,0.3c0.1,0.8,0.2,1.5,0.2,2.4c0.1,0.8,0.1,1.6,0.1,2.4c0,0.8,0.1,1.6,0.1,2.4s0,1.5,0,2.2h-2.4c0-1.3,0-2.6,0-3.9
			c0-1.3-0.1-2.5-0.2-3.7s-0.3-2.4-0.5-3.5c-0.2-1.1-0.5-2.1-0.9-3c-0.2-0.4-0.4-0.8-0.5-1.2c-0.2-0.4-0.4-0.8-0.7-1.2l2-1.3
			c0.1,0.2,0.3,0.4,0.4,0.6c0.1,0.2,0.2,0.4,0.3,0.7c0.1,0.2,0.2,0.5,0.3,0.7s0.2,0.5,0.4,0.8c0.2,0.4,0.4,0.8,0.6,1.2
			c0.2,0.3,0.4,0.6,0.6,0.9s0.5,0.4,0.8,0.6c0.3,0.1,0.7,0.2,1.2,0.2c0.3,0,0.6-0.1,0.9-0.2s0.5-0.3,0.6-0.5
			c0.2-0.2,0.3-0.4,0.4-0.6c0.1-0.2,0.2-0.5,0.2-0.8c0.1-0.3,0.1-0.5,0.1-0.8s0-0.6,0-0.8c0-0.3,0-0.7-0.1-1c0-0.3-0.1-0.6-0.1-0.8
			L235.1,6.2z"/>
	</g>
</g>
<g>
	<g>
		<path fill="#464545" d="M139.7,24.3c0-1.6,0-3.2-0.1-4.7c-0.1-1.6-0.2-3.1-0.4-4.5s-0.5-2.8-0.8-4s-0.8-2.4-1.5-3.3l2-1.3
			c0.7,1.1,1.2,2.3,1.7,3.7c0.4,1.4,0.8,3,1,4.8c0.1,0.8,0.2,1.5,0.2,2.4c0.1,0.8,0.1,1.6,0.1,2.4c0,0.8,0.1,1.6,0.1,2.4
			c0,0.8,0,1.5,0,2.2H139.7z"/>
	</g>
</g>
</svg>
