<?xml version="1.0" encoding="utf-8"?>
<!-- Generator: Adobe Illustrator 18.0.0, SVG Export Plug-In . SVG Version: 6.00 Build 0)  -->
<!DOCTYPE svg PUBLIC "-//W3C//DTD SVG 1.1//EN" "http://www.w3.org/Graphics/SVG/1.1/DTD/svg11.dtd">
<svg version="1.1" id="Layer_1" xmlns="http://www.w3.org/2000/svg" xmlns:xlink="http://www.w3.org/1999/xlink" x="0px" y="0px"
	 width="317.8px" height="451.5px" viewBox="0 0 317.8 451.5" enable-background="new 0 0 317.8 451.5" xml:space="preserve">
	 <defs>
		<style>
			@font-face {
			font-family: "proximanova-nova";

			src: url('https://doopsalta2.com/Fonts/proxima-nova-three.woff2') format('woff2'),
				url('https://doopsalta2.com/Fonts/proxima-nova-three.woff') format('woff'),
				url('https://doopsalta2.com/Fonts/proxima-nova-three.otf') format('opentype');
			font-style: normal;
			}
		</style>
	</defs>
<g>
	<rect x="16.9" y="54" fill="none" stroke="#616261" stroke-width="3" stroke-miterlimit="10" width="280.2" height="389"/>
	<rect x="40" y="77" fill="none" stroke="#616261" stroke-width="3" stroke-miterlimit="10" width="234" height="342.8"/>
</g>
<g>
	<g>
		<line fill="none" stroke="#464545" stroke-width="2.989" x1="72.1" y1="405.5" x2="72.1" y2="90.9"/>
		<g>
			<polygon fill="#464545" points="81.1,402.9 72.1,418.4 63.2,402.9 			"/>
		</g>
		<g>
			<polygon fill="#464545" points="81.1,93.5 72.1,78 63.2,93.5 			"/>
		</g>
	</g>
</g>
<g>
	<g>
		<line fill="none" stroke="#464545" stroke-width="2.989" x1="157" y1="405.5" x2="157" y2="90.9"/>
		<g>
			<polygon fill="#464545" points="166,402.9 157,418.4 148.1,402.9 			"/>
		</g>
		<g>
			<polygon fill="#464545" points="166,93.5 157,78 148.1,93.5 			"/>
		</g>
	</g>
</g>
<g>
	<g>
		<line fill="none" stroke="#464545" stroke-width="2.989" x1="240.5" y1="405.5" x2="240.5" y2="90.9"/>
		<g>
			<polygon fill="#464545" points="249.4,402.9 240.5,418.4 231.6,402.9 			"/>
		</g>
		<g>
			<polygon fill="#464545" points="249.4,93.5 240.5,78 231.6,93.5 			"/>
		</g>
	</g>
</g>
<g>
	<g>
		<path fill="#464545" d="M247.5,4.2c0.1,0.7,0.2,1.3,0.3,1.9c0.1,0.6,0.1,1.1,0.1,1.6c0,1.5-0.3,2.7-1,3.5
			c-0.3,0.4-0.7,0.6-1.1,0.8c-0.4,0.2-0.9,0.3-1.4,0.3c-0.2,0-0.4,0-0.6-0.1c-0.2,0-0.5-0.1-0.7-0.2c-0.2-0.1-0.5-0.3-0.7-0.5
			c-0.2-0.2-0.4-0.4-0.6-0.7l-0.2,0.4c-0.4,0.4-0.8,0.8-1.3,1s-1,0.3-1.6,0.3c-0.3,0-0.6,0-0.8-0.1c-0.2,0-0.5-0.1-0.7-0.2
			c0,0.1,0,0.2,0,0.3s0,0.2,0,0.3c0.1,0.8,0.2,1.6,0.2,2.4c0.1,0.8,0.1,1.6,0.1,2.4c0,0.8,0.1,1.6,0.1,2.4s0,1.5,0,2.3h-2.4
			c0-0.3,0-0.7,0-1c0-0.4,0-0.7,0-1c0-1.2,0-2.3-0.1-3.4c-0.1-1.1-0.2-2.2-0.4-3.3s-0.4-2-0.6-3c-0.2-1-0.5-1.9-0.9-2.7
			c0,0,0-0.1-0.1-0.2c0,0,0-0.1,0-0.1c-0.1-0.3-0.3-0.6-0.4-0.9c-0.1-0.3-0.3-0.6-0.5-0.9l2.2-1.3c0.1,0.1,0.1,0.2,0.2,0.4
			c0.1,0.1,0.2,0.3,0.2,0.5c0.1,0.2,0.2,0.3,0.2,0.5c0.1,0.2,0.2,0.3,0.2,0.5c0.2,0.4,0.4,0.8,0.6,1.2c0.2,0.5,0.4,0.9,0.6,1.3
			s0.3,0.6,0.5,0.8c0.2,0.2,0.4,0.4,0.6,0.5c0.2,0.1,0.5,0.1,0.9,0.1c0.3,0,0.5,0,0.6-0.1s0.3-0.2,0.4-0.4c0.2-0.3,0.4-0.6,0.5-1.1
			c0.1-0.5,0.2-1.1,0.2-1.7c0-0.1,0-0.2,0-0.5c0-0.2,0-0.5,0-0.7c0-0.2,0-0.5,0-0.7c0-0.2,0-0.3,0-0.4l2.4-0.3c0,0,0,0.1,0,0.1
			s0,0.1,0,0.1c0,0.1,0,0.2,0.1,0.4c0,0.2,0,0.4,0.1,0.7c0,0.5,0.1,1,0.2,1.6c0.1,0.6,0.2,1,0.3,1.5c0.1,0.3,0.2,0.5,0.3,0.7
			s0.2,0.3,0.3,0.4c0.1,0.1,0.2,0.1,0.3,0.2c0.1,0,0.1,0,0.2,0c0.2,0,0.4,0,0.5-0.1s0.2-0.1,0.2-0.2c0,0,0.1-0.1,0.1-0.2
			c0.1-0.1,0.1-0.2,0.1-0.4s0.1-0.4,0.1-0.6c0-0.2,0-0.5,0-0.8c0-0.4,0-0.8-0.1-1.3s-0.1-1.1-0.3-1.8L247.5,4.2z"/>
	</g>
</g>
<g>
	<g>
		<path fill="#464545" d="M162.2,4.3c0,0,0,0.1,0,0.2s0,0.3,0.1,0.6c0,0.2,0,0.5,0.1,0.8c0,0.3,0,0.6,0,0.9c0,1.9-0.5,3.3-1.3,4.3v0
			c-0.4,0.5-0.9,0.9-1.5,1.1c-0.6,0.3-1.2,0.4-1.9,0.4c-0.4,0-0.7,0-1-0.1c-0.3-0.1-0.6-0.1-0.9-0.3c0,0.1,0,0.2,0,0.3
			c0,0.1,0,0.2,0,0.3c0.1,0.8,0.2,1.5,0.2,2.4c0.1,0.8,0.1,1.6,0.1,2.4c0,0.8,0.1,1.6,0.1,2.4s0,1.5,0,2.2h-2.4c0-1.3,0-2.6,0-3.9
			c0-1.3-0.1-2.5-0.2-3.7c-0.1-1.2-0.3-2.4-0.5-3.5c-0.2-1.1-0.5-2.1-0.9-3c-0.2-0.4-0.4-0.8-0.5-1.2s-0.4-0.8-0.7-1.2l2-1.3
			c0.1,0.2,0.3,0.4,0.4,0.6c0.1,0.2,0.2,0.4,0.3,0.7c0.1,0.2,0.2,0.5,0.3,0.7s0.2,0.5,0.4,0.8c0.2,0.4,0.4,0.8,0.6,1.2
			s0.4,0.6,0.6,0.9c0.2,0.3,0.5,0.4,0.8,0.6c0.3,0.1,0.7,0.2,1.2,0.2c0.3,0,0.6,0,0.9-0.2s0.5-0.3,0.6-0.5c0.2-0.2,0.3-0.4,0.4-0.6
			c0.1-0.2,0.2-0.5,0.2-0.8c0.1-0.3,0.1-0.5,0.1-0.8c0-0.3,0-0.6,0-0.8c0-0.3,0-0.7-0.1-1c0-0.3-0.1-0.6-0.1-0.8L162.2,4.3z"/>
	</g>
</g>
<g>
	<g>
		<path fill="#464545" d="M72,22.4c0-1.6,0-3.2-0.1-4.7c-0.1-1.6-0.2-3.1-0.4-4.5c-0.2-1.4-0.5-2.8-0.8-4c-0.4-1.2-0.8-2.4-1.5-3.3
			l2-1.3c0.7,1.1,1.2,2.3,1.7,3.7s0.8,3,1,4.8c0.1,0.8,0.2,1.6,0.2,2.4c0.1,0.8,0.1,1.6,0.1,2.4s0.1,1.6,0.1,2.4c0,0.8,0,1.5,0,2.2
			H72z"/>
	</g>
</g>
</svg>
