<?xml version="1.0" encoding="utf-8"?>
<!-- Generator: Adobe Illustrator 18.0.0, SVG Export Plug-In . SVG Version: 6.00 Build 0)  -->
<!DOCTYPE svg PUBLIC "-//W3C//DTD SVG 1.1//EN" "http://www.w3.org/Graphics/SVG/1.1/DTD/svg11.dtd">
<svg version="1.1" id="Layer_1" xmlns="http://www.w3.org/2000/svg" xmlns:xlink="http://www.w3.org/1999/xlink" x="0px" y="0px"
	 width="346.5px" height="412.5px" viewBox="0 0 346.5 412.5" enable-background="new 0 0 346.5 412.5" xml:space="preserve">
	 <defs>
		<style>
			@font-face {
			font-family: "proximanova-nova";

			src: url('https://doopsalta2.com/Fonts/proxima-nova-three.woff2') format('woff2'),
				url('https://doopsalta2.com/Fonts/proxima-nova-three.woff') format('woff'),
				url('https://doopsalta2.com/Fonts/proxima-nova-three.otf') format('opentype');
			font-style: normal;
			}
		</style>
	</defs>
<g>
	<rect x="12.3" y="14.5" fill="none" stroke="#616261" stroke-width="3" stroke-miterlimit="10" width="280.2" height="389"/>
	<rect x="35.4" y="37.6" fill="none" stroke="#616261" stroke-width="3" stroke-miterlimit="10" width="234" height="342.8"/>
</g>
<g>
	<g>
		<line fill="none" stroke="#464545" stroke-width="3" x1="48.3" y1="211" x2="256.5" y2="211"/>
		<g>
			<polygon fill="#464545" points="51,220 35.4,211 51,202 			"/>
		</g>
		<g>
			<polygon fill="#464545" points="253.9,220 269.4,211 253.9,202 			"/>
		</g>
	</g>
</g>
<g>
	<g>
		<path fill="#464545" d="M325,74.3l8.1-19.8h3.1l7.9,19.8h-2.9l-1.7-4.5h-9.9l-1.9,4.5H325z M330.3,67.7h8.4l-4.2-10.7L330.3,67.7z
			"/>
	</g>
</g>
<g>
	<g>
		<path fill="#464545" d="M327.4,220.5v-19.8h8.8c1.7,0,3.1,0.5,4.1,1.4c1,1,1.5,2.1,1.5,3.7c0,1.2-0.4,2.2-1,3
			c-0.6,0.7-1.5,1.4-2.5,1.5c1,0.1,2,0.7,2.7,1.7c0.7,1,1.1,2,1.1,3.2c0,1.6-0.5,3-1.5,3.8c-1,1-2.5,1.5-4.2,1.5H327.4z
			 M329.9,209.2h6c1.1,0,2-0.2,2.5-0.9c0.5-0.6,0.9-1.4,0.9-2.2c0-0.9-0.2-1.7-0.9-2.4c-0.6-0.6-1.5-0.9-2.5-0.9h-6V209.2z
			 M329.9,218.3h6.1c1.1,0,2-0.2,2.7-0.9c0.7-0.6,1-1.5,1-2.5c0-1-0.4-1.7-1-2.5c-0.6-0.7-1.5-1-2.7-1h-6.1V218.3z"/>
	</g>
</g>
<g>
	<g>
		<path fill="#464545" d="M326.9,355.5c-0.5-1.2-0.7-2.6-0.7-4.1s0.2-2.7,0.7-4.1s1.2-2.3,2-3.1c0.8-0.8,1.9-1.6,3.1-2
			c1.2-0.5,2.5-0.7,3.8-0.7c3.1,0,5.5,1.3,7.3,3.8l-2,1.1c-0.6-0.8-1.3-1.6-2.3-2c-1-0.5-1.9-0.7-3-0.7c-2.2,0-3.8,0.7-5.3,2.2
			c-1.4,1.4-2.2,3.3-2.2,5.6c0,1.4,0.4,2.9,1,4.1c0.6,1.2,1.6,2.2,2.6,2.7c1.1,0.6,2.4,1,3.7,1c1.1,0,2-0.2,3-0.7
			c1-0.5,1.7-1.2,2.3-2l2,1.1c-1.9,2.5-4.3,3.8-7.3,3.8c-1.3,0-2.6-0.2-3.8-0.7c-1.2-0.5-2.3-1.2-3.1-2
			C328,357.7,327.4,356.7,326.9,355.5z"/>
	</g>
</g>
<g>
	<g>
		<line fill="none" stroke="#464545" stroke-width="3" x1="48.3" y1="64.4" x2="256.5" y2="64.4"/>
		<g>
			<polygon fill="#464545" points="51,73.4 35.4,64.4 51,55.4 			"/>
		</g>
		<g>
			<polygon fill="#464545" points="253.9,73.4 269.4,64.4 253.9,55.4 			"/>
		</g>
	</g>
</g>
<g>
	<g>
		<line fill="none" stroke="#464545" stroke-width="3" x1="48.3" y1="351.4" x2="256.5" y2="351.4"/>
		<g>
			<polygon fill="#464545" points="51,360.4 35.4,351.4 51,342.4 			"/>
		</g>
		<g>
			<polygon fill="#464545" points="253.9,360.4 269.4,351.4 253.9,342.4 			"/>
		</g>
	</g>
</g>
</svg>
