<?xml version="1.0" encoding="utf-8"?>
<!-- Generator: Adobe Illustrator 18.0.0, SVG Export Plug-In . SVG Version: 6.00 Build 0)  -->
<!DOCTYPE svg PUBLIC "-//W3C//DTD SVG 1.1//EN" "http://www.w3.org/Graphics/SVG/1.1/DTD/svg11.dtd">
<svg version="1.1" id="Layer_1" xmlns="http://www.w3.org/2000/svg" xmlns:xlink="http://www.w3.org/1999/xlink" x="0px" y="0px"
	 width="540px" height="650px" viewBox="0 0 540 650" enable-background="new 0 0 540 650" xml:space="preserve">
	 <defs>
		<style>
			@font-face {
			font-family: "proximanova-nova";

			src: url('https://doopsalta2.com/Fonts/proxima-nova-three.woff2') format('woff2'),
				url('https://doopsalta2.com/Fonts/proxima-nova-three.woff') format('woff'),
				url('https://doopsalta2.com/Fonts/proxima-nova-three.otf') format('opentype');
			font-style: normal;
			}
		</style>
	</defs>
<line fill="none" stroke="#464545" stroke-width="2.9679" x1="0" y1="638.3" x2="460" y2="638.3"/>
<g>
	<rect x="89.9" y="176.5" fill="none" stroke="#616261" stroke-width="3" stroke-miterlimit="10" width="280.2" height="389"/>
	<rect x="113" y="199.5" fill="none" stroke="#616261" stroke-width="3" stroke-miterlimit="10" width="234" height="342.8"/>
</g>
<g>
	<g>
		<g>
			<line fill="none" stroke="#464545" stroke-width="2.7851" x1="320.7" y1="81.4" x2="320.7" y2="553.5"/>
			<g>
				<polygon fill="#464545" points="312.3,83.9 320.7,69.5 329,83.9 				"/>
			</g>
			<g>
				<polygon fill="#464545" points="312.3,551 320.7,565.5 329,551 				"/>
			</g>
		</g>
	</g>
	<g>
		<g>
			<line fill="none" stroke="#464545" stroke-width="2.7851" x1="229.5" y1="81.4" x2="229.5" y2="553.5"/>
			<g>
				<polygon fill="#464545" points="221.1,83.9 229.5,69.5 237.8,83.9 				"/>
			</g>
			<g>
				<polygon fill="#464545" points="221.1,551 229.5,565.5 237.8,551 				"/>
			</g>
		</g>
	</g>
	<g>
		<g>
			<line fill="none" stroke="#464545" stroke-width="2.7851" x1="139.3" y1="81.4" x2="139.3" y2="553.5"/>
			<g>
				<polygon fill="#464545" points="131,83.9 139.3,69.5 147.7,83.9 				"/>
			</g>
			<g>
				<polygon fill="#464545" points="131,551 139.3,565.5 147.7,551 				"/>
			</g>
		</g>
	</g>
</g>
<line fill="none" stroke="#464545" stroke-width="2.9679" x1="0" y1="69.5" x2="460" y2="69.5"/>
<g>
	<g>
		<path fill="#464545" d="M327.7,6c0.1,0.7,0.2,1.3,0.3,1.9c0.1,0.6,0.1,1.1,0.1,1.6c0,1.6-0.3,2.7-1,3.5c-0.3,0.4-0.7,0.6-1.1,0.8
			c-0.4,0.2-0.9,0.3-1.4,0.3c-0.2,0-0.4,0-0.6-0.1c-0.2,0-0.5-0.1-0.7-0.2c-0.2-0.1-0.5-0.3-0.7-0.5c-0.2-0.2-0.4-0.4-0.6-0.7
			l-0.2,0.4c-0.4,0.4-0.8,0.8-1.3,1c-0.5,0.2-1,0.3-1.6,0.3c-0.3,0-0.6,0-0.8-0.1c-0.2,0-0.5-0.1-0.7-0.2c0,0.1,0,0.2,0,0.3
			c0,0.1,0,0.2,0,0.3c0.1,0.8,0.2,1.6,0.2,2.4c0.1,0.8,0.1,1.6,0.1,2.4c0,0.8,0.1,1.6,0.1,2.4s0,1.5,0,2.3h-2.4c0-0.3,0-0.7,0-1
			c0-0.4,0-0.7,0-1c0-1.2,0-2.3-0.1-3.4c-0.1-1.1-0.2-2.2-0.4-3.3s-0.4-2-0.6-3s-0.5-1.9-0.9-2.7c0,0,0-0.1-0.1-0.2c0,0,0-0.1,0-0.1
			c-0.1-0.3-0.3-0.6-0.4-0.9c-0.1-0.3-0.3-0.6-0.5-0.9l2.2-1.3c0.1,0.1,0.1,0.2,0.2,0.4c0.1,0.1,0.2,0.3,0.2,0.5s0.2,0.3,0.2,0.5
			c0.1,0.2,0.2,0.3,0.2,0.5c0.2,0.4,0.4,0.8,0.6,1.2c0.2,0.5,0.4,0.9,0.6,1.3s0.3,0.6,0.5,0.8c0.2,0.2,0.4,0.4,0.6,0.5
			c0.2,0.1,0.5,0.1,0.9,0.1c0.3,0,0.5,0,0.6-0.1s0.3-0.2,0.4-0.4c0.2-0.3,0.4-0.6,0.5-1.1s0.2-1.1,0.2-1.7c0-0.1,0-0.2,0-0.5
			c0-0.2,0-0.5,0-0.7c0-0.2,0-0.5,0-0.7c0-0.2,0-0.3,0-0.4l2.4-0.3c0,0,0,0.1,0,0.1s0,0.1,0,0.1c0,0.1,0,0.2,0.1,0.4
			c0,0.2,0,0.4,0.1,0.7c0,0.5,0.1,1,0.2,1.6c0.1,0.6,0.2,1,0.3,1.5c0.1,0.3,0.2,0.5,0.3,0.7s0.2,0.3,0.3,0.4
			c0.1,0.1,0.2,0.1,0.3,0.2c0.1,0,0.1,0,0.2,0c0.2,0,0.4,0,0.5-0.1s0.2-0.1,0.2-0.2c0,0,0.1-0.1,0.1-0.2c0.1-0.1,0.1-0.2,0.1-0.4
			s0.1-0.4,0.1-0.6s0-0.5,0-0.8c0-0.4,0-0.8-0.1-1.3c-0.1-0.5-0.1-1.1-0.3-1.8L327.7,6z"/>
	</g>
</g>
<g>
	<g>
		<path fill="#464545" d="M234.6,6.2c0,0,0,0.1,0,0.2c0,0.1,0,0.3,0.1,0.6c0,0.2,0,0.5,0.1,0.8c0,0.3,0,0.6,0,0.9
			c0,1.9-0.5,3.3-1.3,4.3v0c-0.4,0.5-0.9,0.9-1.5,1.1c-0.6,0.3-1.2,0.4-1.9,0.4c-0.4,0-0.7,0-1-0.1c-0.3-0.1-0.6-0.1-0.9-0.3
			c0,0.1,0,0.2,0,0.3c0,0.1,0,0.2,0,0.3c0.1,0.8,0.2,1.5,0.2,2.4c0.1,0.8,0.1,1.6,0.1,2.4s0.1,1.6,0.1,2.4c0,0.8,0,1.5,0,2.2h-2.4
			c0-1.3,0-2.6,0-3.9c0-1.3-0.1-2.5-0.2-3.7s-0.3-2.4-0.5-3.5s-0.5-2.1-0.9-3c-0.2-0.4-0.4-0.8-0.5-1.2c-0.2-0.4-0.4-0.8-0.7-1.2
			l2-1.3c0.1,0.2,0.3,0.4,0.4,0.6c0.1,0.2,0.2,0.4,0.3,0.7s0.2,0.5,0.3,0.7c0.1,0.3,0.2,0.5,0.4,0.8c0.2,0.4,0.4,0.8,0.6,1.2
			s0.4,0.6,0.6,0.9c0.2,0.3,0.5,0.4,0.8,0.6c0.3,0.1,0.7,0.2,1.2,0.2c0.3,0,0.6-0.1,0.9-0.2c0.2-0.1,0.5-0.3,0.6-0.5
			c0.2-0.2,0.3-0.4,0.4-0.6c0.1-0.2,0.2-0.5,0.2-0.8c0.1-0.3,0.1-0.5,0.1-0.8s0-0.6,0-0.8c0-0.3,0-0.7-0.1-1c0-0.3-0.1-0.6-0.1-0.8
			L234.6,6.2z"/>
	</g>
</g>
<g>
	<g>
		<path fill="#464545" d="M139.1,24.3c0-1.6,0-3.2-0.1-4.7c-0.1-1.6-0.2-3.1-0.4-4.5s-0.5-2.8-0.8-4s-0.8-2.4-1.5-3.3l2-1.3
			c0.7,1.1,1.2,2.3,1.7,3.7s0.8,3,1,4.8c0.1,0.8,0.2,1.6,0.2,2.4c0.1,0.8,0.1,1.6,0.1,2.4c0,0.8,0.1,1.6,0.1,2.4c0,0.8,0,1.5,0,2.2
			H139.1z"/>
	</g>
</g>
<g>
	<g>
		<path fill="#464545" d="M486.4,69C486.4,69,486.4,69.1,486.4,69c-0.1,0.1-0.1,0.2-0.2,0.2c0.4,0.1,0.7,0.1,1.1,0.2
			c0.4,0,0.7,0.1,1.1,0.1c0.2,0,0.4,0.1,0.6,0.2c0.2,0.2,0.3,0.4,0.3,0.6c0,0.1,0,0.2-0.1,0.3c0,0.1-0.1,0.2-0.2,0.3
			s-0.2,0.1-0.3,0.2c-0.1,0-0.2,0.1-0.3,0.1c-0.7,0-1.5-0.1-2.2-0.2c-0.7-0.1-1.3-0.3-1.9-0.5c-0.1,0-0.2,0.1-0.3,0.1
			c-0.1,0-0.2,0.1-0.3,0.1c-0.3,0.1-0.6,0.2-1,0.3s-0.8,0.1-1.3,0.2c-0.5,0.1-1,0.1-1.5,0.1c-0.5,0-1,0-1.6,0
			c-1.8,0-3.2-0.2-4.4-0.7c-1.2-0.4-2-1.1-2.5-2c-0.2-0.4-0.4-0.8-0.5-1.2c-0.1-0.4-0.1-0.8-0.1-1.2c0-0.4,0.1-0.7,0.1-1.1
			s0.2-0.6,0.3-0.9c0.1-0.3,0.2-0.5,0.3-0.6s0.1-0.3,0.1-0.3l1.5,0.8c0,0,0,0.1-0.1,0.2c-0.1,0.1-0.1,0.3-0.2,0.4
			c-0.1,0.2-0.1,0.4-0.2,0.6c-0.1,0.2-0.1,0.5-0.1,0.7c0,0.3,0,0.5,0,0.8s0.1,0.5,0.3,0.8c0.2,0.3,0.4,0.5,0.7,0.8s0.6,0.4,1,0.6
			c0.4,0.1,0.9,0.3,1.4,0.3s1.2,0.1,1.9,0.1c0.5,0,1,0,1.4,0c0.4,0,0.8,0,1.1-0.1c0.3,0,0.6-0.1,0.9-0.1s0.5-0.1,0.7-0.1
			c-0.8-0.7-1.2-1.4-1.2-2.3c0-0.5,0.1-1.1,0.2-1.5c0.2-0.5,0.4-0.9,0.7-1.3c0.3-0.4,0.7-0.7,1.1-0.9c0.4-0.2,0.8-0.3,1.3-0.3
			c0.4,0,0.8,0.1,1.1,0.2c0.3,0.1,0.7,0.4,0.9,0.6c0.1,0.1,0.2,0.2,0.3,0.4c0.1,0.2,0.2,0.3,0.3,0.6c0.1,0.2,0.2,0.5,0.2,0.7
			s0.1,0.6,0.1,0.9C487.2,67.5,486.9,68.3,486.4,69z M484.3,68.6c0.2-0.1,0.5-0.3,0.6-0.5c0.2-0.2,0.3-0.3,0.4-0.5
			c0.1-0.2,0.1-0.4,0.2-0.6c0-0.2,0-0.4,0-0.6c0-0.4-0.1-0.7-0.2-1c-0.1-0.2-0.2-0.4-0.4-0.5c-0.1-0.1-0.3-0.2-0.4-0.2s-0.2,0-0.3,0
			c-0.2,0-0.3,0.1-0.5,0.2c-0.2,0.1-0.4,0.3-0.5,0.5c-0.2,0.2-0.3,0.5-0.4,0.7c-0.1,0.3-0.2,0.6-0.2,1c0,0.3,0.1,0.5,0.4,0.8
			c0.3,0.3,0.6,0.5,1.1,0.7L484.3,68.6z M485.6,59.5l-1.4,1.4l-1.4-1.4l1.4-1.4L485.6,59.5z"/>
		<path fill="#464545" d="M487.6,70.3c0-0.1,0-0.2,0.1-0.3c0-0.1,0.1-0.2,0.2-0.3c0.1-0.1,0.2-0.1,0.3-0.2c0.1,0,0.2-0.1,0.3-0.1
			c0.2,0,0.4,0,0.7,0s0.5,0,0.7,0s0.4,0,0.6,0c0.2,0,0.4,0,0.5-0.1c-0.8-0.7-1.1-1.4-1.1-2.2c0-0.5,0.1-1.1,0.2-1.5
			c0.2-0.5,0.4-0.9,0.7-1.3s0.7-0.7,1.1-0.9c0.4-0.2,0.8-0.3,1.2-0.3c0.5,0,1,0.1,1.4,0.4c0.4,0.2,0.7,0.5,1,0.9s0.4,0.7,0.6,1.2
			c0.1,0.4,0.2,0.9,0.2,1.3c0,0.5-0.1,0.9-0.3,1.3c-0.2,0.4-0.4,0.8-0.7,1.2c0.2,0,0.4,0.1,0.6,0.1c0.2,0,0.4,0,0.6,0.1
			c0.2,0,0.4,0,0.7,0s0.4,0,0.6,0c0.2,0,0.4,0.1,0.6,0.2s0.2,0.4,0.2,0.6c0,0.1,0,0.2-0.1,0.3s-0.1,0.2-0.2,0.3s-0.2,0.1-0.3,0.2
			c-0.1,0-0.2,0.1-0.3,0.1h-0.1c-0.2,0-0.4,0-0.6,0s-0.4,0-0.6,0s-0.4,0-0.6,0c-0.2,0-0.4,0-0.6-0.1c-0.3-0.1-0.7-0.1-1-0.2
			s-0.6-0.2-0.9-0.3c-0.3,0.1-0.6,0.2-0.9,0.3c-0.4,0.1-0.7,0.1-1.2,0.2c-0.4,0.1-0.8,0.1-1.3,0.1c-0.4,0-0.9,0-1.3,0h-0.1
			c-0.2,0-0.4-0.1-0.6-0.2C487.7,70.7,487.6,70.5,487.6,70.3z M492.7,59.6l-1.4,1.4l-1.4-1.4l1.4-1.4L492.7,59.6z M493.1,64.7
			c-0.2,0-0.3,0.1-0.5,0.2c-0.2,0.1-0.4,0.3-0.5,0.5c-0.2,0.2-0.3,0.5-0.4,0.7c-0.1,0.3-0.2,0.6-0.2,1c0,0.3,0.1,0.5,0.4,0.8
			c0.3,0.3,0.6,0.5,1.1,0.7l0.1,0.1c0.3-0.2,0.6-0.4,0.8-0.6c0.2-0.3,0.3-0.5,0.4-0.8c0.1-0.3,0.1-0.6,0-0.9c0-0.3-0.1-0.6-0.2-0.8
			s-0.3-0.4-0.4-0.6C493.5,64.8,493.3,64.7,493.1,64.7z M496.3,59.6l-1.4,1.4l-1.4-1.4l1.4-1.4L496.3,59.6z"/>
		<path fill="#464545" d="M496.9,70.3c0-0.1,0-0.2,0.1-0.3s0.1-0.2,0.2-0.3c0.1-0.1,0.2-0.1,0.3-0.2c0.1,0,0.2-0.1,0.3-0.1
			c0.3,0,0.7-0.1,0.9-0.2c0.3-0.1,0.5-0.3,0.7-0.5c0.2-0.2,0.4-0.5,0.6-0.8s0.3-0.6,0.4-0.9c0.1-0.3,0.2-0.6,0.3-1
			c0.1-0.3,0.1-0.6,0.2-0.9l1.7,0.4c0,0.1-0.1,0.3-0.2,0.5c-0.1,0.2-0.1,0.5-0.2,0.7c-0.1,0.3-0.1,0.5-0.2,0.8S502,68,502,68.3
			c0,0.2,0,0.3,0,0.5c0,0.1,0.1,0.3,0.1,0.4c0.1,0.1,0.2,0.2,0.3,0.3s0.3,0.1,0.5,0.1c0.3,0,0.6-0.1,0.8-0.2
			c0.2-0.2,0.4-0.4,0.6-0.6c0.2-0.3,0.3-0.6,0.5-0.9s0.2-0.7,0.3-1c0.1-0.3,0.2-0.7,0.2-1c0.1-0.3,0.1-0.6,0.1-0.8l1.7,0.3
			c-0.1,0.4-0.1,0.7-0.2,1s-0.1,0.6-0.1,0.9c0,0.3-0.1,0.6-0.1,0.8c0,0.2,0,0.4,0,0.6c0,0.2,0.1,0.4,0.2,0.5
			c0.1,0.1,0.2,0.3,0.3,0.4c0.1,0.1,0.3,0.2,0.4,0.2c0.3,0,0.5,0,0.7,0c0.2,0,0.3-0.1,0.4-0.2s0.2-0.1,0.2-0.2s0.1-0.1,0.1-0.2h0
			c0.1-0.1,0.1-0.3,0.2-0.4c0-0.2,0-0.3,0-0.5c0-0.3,0-0.7-0.1-1.1s-0.2-0.8-0.3-1.1c-0.1-0.4-0.3-0.7-0.4-1
			c-0.1-0.3-0.3-0.6-0.3-0.8l1.5-0.8c0,0.1,0.1,0.2,0.2,0.3c0.1,0.2,0.2,0.4,0.3,0.6c0.1,0.2,0.2,0.5,0.3,0.8c0.1,0.3,0.2,0.6,0.3,1
			c0.1,0.3,0.2,0.7,0.2,1c0.1,0.3,0.1,0.7,0.1,1c0,0.5-0.1,1-0.2,1.4c-0.1,0.4-0.3,0.7-0.6,1c-0.3,0.3-0.6,0.5-1,0.7
			c-0.4,0.2-0.9,0.2-1.5,0.2c-0.2,0-0.4,0-0.7-0.1c-0.2-0.1-0.4-0.2-0.6-0.3c-0.2-0.1-0.4-0.3-0.6-0.4s-0.3-0.3-0.4-0.5
			c-0.3,0.4-0.7,0.7-1.2,1c-0.4,0.2-0.9,0.4-1.4,0.4c-0.2,0-0.4,0-0.7-0.1s-0.4-0.1-0.7-0.2c-0.2-0.1-0.4-0.2-0.6-0.4
			s-0.3-0.4-0.4-0.6c-0.3,0.4-0.7,0.7-1.2,0.9c-0.4,0.2-1,0.3-1.6,0.3h-0.1c-0.1,0-0.2,0-0.3-0.1c-0.1,0-0.2-0.1-0.3-0.2
			c-0.1-0.1-0.1-0.2-0.2-0.3S496.9,70.4,496.9,70.3z"/>
	</g>
</g>
<g>
	<g>
		<path fill="#464545" d="M482.7,640c-0.2,0-0.3,0-0.5,0c-0.2,0-0.3,0-0.5,0c-0.6,0-1.2-0.2-1.7-0.4c-0.5-0.2-0.9-0.5-1.1-0.9
			c-0.5-0.7-0.7-1.5-0.5-2.5c0.1-0.5,0.2-0.9,0.4-1.3c0.2-0.4,0.4-0.8,0.6-1.1c0.3-0.4,0.6-0.6,0.9-0.8s0.7-0.3,1.1-0.3
			c0.4,0,0.8,0.1,1.2,0.3s0.7,0.5,1.1,0.8c0.3,0.3,0.5,0.7,0.8,1.1c0.2,0.4,0.4,0.9,0.5,1.4c0.1,0.5,0.2,1,0.3,1.5
			c0.1,0.5,0.1,1,0,1.6h0c0,0,0,0.1,0,0.3c0,0.2-0.1,0.4-0.1,0.7c-0.1,0.3-0.1,0.6-0.3,1c-0.1,0.4-0.3,0.7-0.5,1.1
			c-0.2,0.5-0.5,0.9-0.8,1.2s-0.7,0.7-1,0.9c-0.5,0.3-1,0.6-1.6,0.8c-0.6,0.2-1.2,0.2-1.9,0.2h0c-1.1,0-2.1-0.2-3-0.7
			c-0.5-0.2-0.9-0.5-1.2-0.8c-0.4-0.3-0.6-0.7-0.9-1.1c-0.3-0.5-0.5-1-0.6-1.6c-0.1-0.6-0.2-1.2-0.1-1.9c0-0.7,0.2-1.4,0.4-2.1
			s0.5-1.4,0.9-2.2l1.5,0.8c-0.3,0.6-0.6,1.2-0.8,1.7c-0.2,0.6-0.3,1.1-0.4,1.6c-0.1,0.5,0,1,0,1.4c0.1,0.4,0.2,0.9,0.5,1.2
			c0.3,0.6,0.8,1,1.5,1.3c0.6,0.3,1.4,0.4,2.2,0.4h0c0.6,0,1.1,0,1.6-0.2s0.9-0.5,1.3-0.8c0.4-0.4,0.7-0.8,0.9-1.3
			c0.2-0.5,0.4-1,0.5-1.5c-0.1,0-0.3,0-0.4,0C483,640,482.9,640,482.7,640z M480.9,629.8l-1.4,1.4l-1.4-1.4l1.4-1.4L480.9,629.8z
			 M481.5,634.3c-0.2,0-0.4,0.2-0.7,0.5c-0.2,0.2-0.3,0.4-0.4,0.7s-0.2,0.6-0.3,0.9c-0.1,0.5,0,0.9,0.2,1.2c0.1,0.1,0.2,0.2,0.3,0.3
			c0.1,0.1,0.3,0.1,0.4,0.2c0.1,0,0.3,0.1,0.4,0.1c0.1,0,0.3,0,0.4,0c0.4,0,0.7,0,1,0c0.3,0,0.6,0,0.8,0c0-0.4-0.1-0.7-0.1-1.1
			s-0.2-0.6-0.3-0.9c-0.1-0.3-0.2-0.5-0.4-0.8c-0.1-0.2-0.3-0.4-0.4-0.6c-0.1-0.1-0.3-0.3-0.4-0.4
			C481.9,634.4,481.7,634.3,481.5,634.3z M484.5,629.8l-1.4,1.4l-1.4-1.4l1.4-1.4L484.5,629.8z"/>
		<path fill="#464545" d="M491.8,640c-0.6,0-1.2-0.1-1.6-0.2c-0.5-0.2-0.8-0.4-1.2-0.7c-0.2-0.2-0.3-0.4-0.4-0.6
			c-0.1-0.2-0.2-0.4-0.2-0.7c0-0.2-0.1-0.4-0.1-0.6s0-0.4,0-0.5v-0.2c0,0,0-0.1,0-0.3c0-0.2,0-0.5,0-0.8c0-0.4,0-0.8,0-1.2
			c0-0.5,0-0.9,0-1.5c0-0.5,0-1,0-1.6c0-0.5,0-1.1-0.1-1.6c0-0.5-0.1-1-0.1-1.4c0-0.4-0.1-0.8-0.1-1l1.7-0.3
			c0.1,0.3,0.1,0.7,0.1,1.1s0.1,0.9,0.1,1.4c0,0.5,0,1,0.1,1.6c0,0.5,0,1.1,0,1.6c0,0.5,0,1,0,1.5c0,0.5,0,0.9,0,1.3s0,0.7,0,0.9
			c0,0.2,0,0.4,0,0.4v0.2c0,0.3,0,0.5,0,0.7c0,0.2,0.1,0.4,0.2,0.5c0.3,0.3,0.8,0.4,1.5,0.4h0.1c0.1,0,0.2,0,0.3,0.1
			c0.1,0,0.2,0.1,0.3,0.2s0.1,0.2,0.2,0.3s0.1,0.2,0.1,0.3c0,0.2-0.1,0.4-0.3,0.6C492.2,639.9,492,640,491.8,640z"/>
		<path fill="#464545" d="M490.6,639.1c0-0.2,0.1-0.4,0.2-0.6c0.2-0.2,0.4-0.2,0.6-0.2h1c0.2,0,0.4,0,0.7,0c0.2,0,0.5,0,0.7,0
			c0.2,0,0.5-0.1,0.7-0.1c0.2,0,0.5-0.1,0.6-0.2c0.2-0.1,0.4-0.2,0.5-0.3s0.3-0.3,0.3-0.4c0.1-0.2,0.1-0.6,0.1-1.1
			c0-0.5-0.2-1-0.4-1.6c-0.1-0.2-0.1-0.4-0.2-0.6s-0.2-0.4-0.2-0.6c-0.1-0.2-0.2-0.4-0.3-0.7l1.5-0.8c0,0,0,0.1,0.1,0.2
			c0.1,0.1,0.1,0.3,0.2,0.5s0.2,0.4,0.3,0.7s0.2,0.5,0.3,0.8c0.5,1.7,0.6,3,0.2,3.9c-0.4,0.9-1.1,1.5-2.2,1.8
			c-0.2,0-0.4,0.1-0.6,0.1c-0.2,0-0.5,0-0.7,0.1c-0.3,0-0.5,0-0.7,0c-0.2,0-0.4,0-0.5,0h-1.3h-0.1c-0.2,0-0.4-0.1-0.6-0.2
			C490.7,639.6,490.6,639.4,490.6,639.1z M495.1,629.1l-1.4,1.4l-1.4-1.4l1.4-1.4L495.1,629.1z M498.7,629.1l-1.4,1.4l-1.4-1.4
			l1.4-1.4L498.7,629.1z"/>
		<path fill="#464545" d="M502,626.2c0.3,2.4,0.4,4.5,0.4,6.3c0.1,3.1,0,5.6-0.1,7.5l-1.7-0.1c0.2-2.6,0.2-4.7,0.2-6.5
			c-0.1-2.8-0.3-5.1-0.5-7L502,626.2z"/>
		<path fill="#464545" d="M525.8,637.9C525.7,637.9,525.7,637.9,525.8,637.9c-0.1,0.1-0.1,0.2-0.2,0.2c0.4,0.1,0.7,0.1,1.1,0.2
			c0.4,0,0.7,0.1,1.1,0.1c0.2,0,0.4,0.1,0.6,0.2c0.2,0.2,0.3,0.4,0.3,0.6c0,0.1,0,0.2-0.1,0.3s-0.1,0.2-0.2,0.3
			c-0.1,0.1-0.2,0.1-0.3,0.2c-0.1,0-0.2,0.1-0.3,0.1c-0.7,0-1.5-0.1-2.2-0.2c-0.7-0.1-1.3-0.3-1.9-0.5c-0.1,0-0.2,0.1-0.3,0.1
			c-0.1,0-0.2,0.1-0.3,0.1c-0.3,0.1-0.6,0.2-1,0.3s-0.8,0.1-1.3,0.2c-0.5,0.1-1,0.1-1.5,0.1s-1,0-1.6,0c-1.8,0-3.2-0.2-4.4-0.7
			c-1.2-0.4-2-1.1-2.5-2c-0.2-0.4-0.4-0.8-0.5-1.2s-0.1-0.8-0.1-1.2s0.1-0.7,0.1-1.1c0.1-0.3,0.2-0.6,0.3-0.9
			c0.1-0.3,0.2-0.5,0.3-0.6c0.1-0.2,0.1-0.2,0.1-0.3l1.5,0.8c0,0,0,0.1-0.1,0.2c-0.1,0.1-0.1,0.3-0.2,0.4c-0.1,0.2-0.1,0.4-0.2,0.6
			c-0.1,0.2-0.1,0.5-0.1,0.7s0,0.5,0,0.8s0.1,0.5,0.3,0.8c0.2,0.3,0.4,0.5,0.7,0.8c0.3,0.2,0.6,0.4,1,0.6c0.4,0.1,0.9,0.3,1.4,0.3
			c0.5,0.1,1.2,0.1,1.9,0.1c0.5,0,1,0,1.4,0c0.4,0,0.8,0,1.1-0.1s0.6-0.1,0.9-0.1c0.3,0,0.5-0.1,0.7-0.1c-0.8-0.7-1.2-1.4-1.2-2.3
			c0-0.5,0.1-1.1,0.2-1.5c0.2-0.5,0.4-0.9,0.7-1.3c0.3-0.4,0.7-0.7,1.1-0.9c0.4-0.2,0.8-0.3,1.3-0.3c0.4,0,0.8,0.1,1.1,0.2
			c0.3,0.1,0.7,0.4,0.9,0.6c0.1,0.1,0.2,0.2,0.3,0.4c0.1,0.2,0.2,0.3,0.3,0.6c0.1,0.2,0.2,0.5,0.2,0.7s0.1,0.6,0.1,0.9
			C526.5,636.3,526.3,637.2,525.8,637.9z M523.6,637.5c0.2-0.1,0.5-0.3,0.6-0.5c0.2-0.2,0.3-0.3,0.4-0.5c0.1-0.2,0.1-0.4,0.2-0.6
			s0-0.4,0-0.6c0-0.4-0.1-0.7-0.2-1c-0.1-0.2-0.2-0.4-0.4-0.5s-0.3-0.2-0.4-0.2c-0.1,0-0.2,0-0.3,0c-0.2,0-0.3,0.1-0.5,0.2
			s-0.4,0.3-0.5,0.5c-0.2,0.2-0.3,0.4-0.4,0.7c-0.1,0.3-0.2,0.6-0.2,1c0,0.3,0.1,0.5,0.4,0.8c0.3,0.3,0.6,0.5,1.1,0.7L523.6,637.5z
			 M525,628.4l-1.4,1.4l-1.4-1.4l1.4-1.4L525,628.4z"/>
		<path fill="#464545" d="M526.8,639.1c0-0.2,0.1-0.4,0.3-0.6s0.4-0.2,0.7-0.2h0.9c0.3,0,0.7,0,1.1,0s0.7,0,1.1-0.1
			c0.3-0.1,0.7-0.2,0.9-0.3c0.3-0.1,0.5-0.3,0.7-0.6c0.2-0.3,0.3-0.6,0.3-0.9c0-0.3,0-0.7-0.1-1.1c-0.1-0.2-0.2-0.5-0.5-0.9
			c-0.3-0.4-0.6-0.8-0.9-1.2c-0.4-0.4-0.8-0.9-1.2-1.3c-0.5-0.4-0.9-0.9-1.4-1.2l0.2-1.8l7.1-3.1l0.7,1.6l-6.2,2.6
			c0.3,0.2,0.6,0.5,0.9,0.8c0.3,0.3,0.7,0.6,1,1c0.4,0.5,0.8,1,1.1,1.4s0.5,0.9,0.7,1.3c0.2,0.4,0.3,0.8,0.3,1.1s0.1,0.7,0,1
			c0,0.3-0.1,0.6-0.2,0.9s-0.2,0.5-0.3,0.7c-0.5,0.9-1.4,1.5-2.6,1.7c-0.2,0-0.5,0.1-0.8,0.1h-2.8c-0.3,0-0.5-0.1-0.7-0.2
			S526.8,639.4,526.8,639.1z"/>
	</g>
</g>
</svg>
