<?xml version="1.0" encoding="utf-8"?>
<!-- Generator: Adobe Illustrator 18.0.0, SVG Export Plug-In . SVG Version: 6.00 Build 0)  -->
<!DOCTYPE svg PUBLIC "-//W3C//DTD SVG 1.1//EN" "http://www.w3.org/Graphics/SVG/1.1/DTD/svg11.dtd">
<svg version="1.1" id="Layer_1" xmlns="http://www.w3.org/2000/svg" xmlns:xlink="http://www.w3.org/1999/xlink" x="0px" y="0px"
	 width="450px" height="570px" viewBox="0 0 450 570" enable-background="new 0 0 450 570" xml:space="preserve">
<g>
	<rect x="84.9" y="116.9" fill="none" stroke="#616261" stroke-width="3" stroke-miterlimit="10" width="280.2" height="389"/>
	<rect x="108" y="140" fill="none" stroke="#616261" stroke-width="3" stroke-miterlimit="10" width="234" height="342.8"/>
</g>
<g>
	<g>
		<line fill="none" stroke="#464545" stroke-width="2.989" x1="140.1" y1="468.5" x2="140.1" y2="153.9"/>
		<g>
			<polygon fill="#464545" points="149.1,465.8 140.1,481.3 131.2,465.8 			"/>
		</g>
		<g>
			<polygon fill="#464545" points="149.1,156.5 140.1,141 131.2,156.5 			"/>
		</g>
	</g>
</g>
<g>
	<g>
		<line fill="none" stroke="#464545" stroke-width="2.989" x1="225" y1="468.5" x2="225" y2="153.9"/>
		<g>
			<polygon fill="#464545" points="233.9,465.8 225,481.3 216.1,465.8 			"/>
		</g>
		<g>
			<polygon fill="#464545" points="233.9,156.5 225,141 216.1,156.5 			"/>
		</g>
	</g>
</g>
<g>
	<g>
		<line fill="none" stroke="#464545" stroke-width="2.989" x1="308.5" y1="468.5" x2="308.5" y2="153.9"/>
		<g>
			<polygon fill="#464545" points="317.4,465.8 308.5,481.3 299.5,465.8 			"/>
		</g>
		<g>
			<polygon fill="#464545" points="317.4,156.5 308.5,141 299.5,156.5 			"/>
		</g>
	</g>
</g>
<g>
	<text transform="matrix(1 0 0 1 131.5885 84.0844)" fill="#464545" font-family="'ProximaNova-Regular'" font-size="26">A</text>
</g>
<g>
	<text transform="matrix(1 0 0 1 216.8238 84.0844)" fill="#464545" font-family="'ProximaNova-Regular'" font-size="26">B</text>
</g>
<g>
	<text transform="matrix(1 0 0 1 299.702 84.0844)" fill="#464545" font-family="'ProximaNova-Regular'" font-size="26">C</text>
</g>
</svg>
