<?xml version="1.0" encoding="utf-8"?>
<!-- Generator: Adobe Illustrator 18.0.0, SVG Export Plug-In . SVG Version: 6.00 Build 0)  -->
<!DOCTYPE svg PUBLIC "-//W3C//DTD SVG 1.1//EN" "http://www.w3.org/Graphics/SVG/1.1/DTD/svg11.dtd">
<svg version="1.1" id="Layer_1" xmlns="http://www.w3.org/2000/svg" xmlns:xlink="http://www.w3.org/1999/xlink" x="0px" y="0px"
	 width="540px" height="650px" viewBox="0 0 540 650" enable-background="new 0 0 540 650" xml:space="preserve">
<g>
	
		<polygon opacity="0.8" fill="#B2B2B2" stroke="#717070" stroke-width="0.6174" stroke-miterlimit="10" enable-background="new    " points="
		450.5,111.2 460,101.6 0.3,101.6 9.2,111.2 449.2,111.2 	"/>
	
		<rect x="0" y="69.5" fill="#C6C6C6" stroke="#717070" stroke-width="0.5848" stroke-miterlimit="10" enable-background="new    " width="460" height="32.1"/>
</g>
<line fill="none" stroke="#464545" stroke-width="2.9678" x1="0" y1="645" x2="460" y2="645"/>
<g>
	<path fill="#464545" d="M476.6,648v-13.3h8.7v1.5h-7.1v4.3h6.9v1.5h-6.9v6.1H476.6z"/>
	<path fill="#464545" d="M487.4,648v-13.3h1.7v11.9h6.2v1.5H487.4z"/>
	<path fill="#464545" d="M497.7,644.8c-0.5-1-0.8-2.2-0.8-3.5s0.3-2.5,0.8-3.5c0.5-1,1.3-1.9,2.3-2.5s2.2-0.9,3.5-0.9
		c1.3,0,2.4,0.3,3.5,0.9c1,0.6,1.8,1.4,2.4,2.5s0.8,2.2,0.8,3.5s-0.3,2.5-0.8,3.5s-1.3,1.9-2.4,2.5c-1,0.6-2.2,0.9-3.5,0.9
		c-1.3,0-2.4-0.3-3.5-0.9S498.3,645.9,497.7,644.8z M498.6,641.3c0,1,0.2,2,0.6,2.8c0.4,0.8,1,1.5,1.7,1.9s1.6,0.7,2.6,0.7
		s1.8-0.2,2.6-0.7s1.3-1.1,1.7-1.9s0.6-1.7,0.6-2.8c0-1.6-0.5-2.9-1.4-3.9c-0.9-1-2.1-1.5-3.6-1.5c-1.5,0-2.7,0.5-3.6,1.5
		S498.6,639.7,498.6,641.3z"/>
	<path fill="#464545" d="M513,644.8c-0.5-1-0.8-2.2-0.8-3.5s0.3-2.5,0.8-3.5c0.5-1,1.3-1.9,2.3-2.5s2.2-0.9,3.5-0.9
		c1.3,0,2.4,0.3,3.5,0.9c1,0.6,1.8,1.4,2.4,2.5s0.8,2.2,0.8,3.5s-0.3,2.5-0.8,3.5s-1.3,1.9-2.4,2.5c-1,0.6-2.2,0.9-3.5,0.9
		c-1.3,0-2.4-0.3-3.5-0.9S513.6,645.9,513,644.8z M513.9,641.3c0,1,0.2,2,0.6,2.8c0.4,0.8,1,1.5,1.7,1.9s1.6,0.7,2.6,0.7
		s1.8-0.2,2.6-0.7s1.3-1.1,1.7-1.9s0.6-1.7,0.6-2.8c0-1.6-0.5-2.9-1.4-3.9c-0.9-1-2.1-1.5-3.6-1.5c-1.5,0-2.7,0.5-3.6,1.5
		S513.9,639.7,513.9,641.3z"/>
	<path fill="#464545" d="M528,648v-13.3h5.4c1.2,0,2.2,0.4,3,1.1s1.2,1.7,1.2,2.9c0,0.6-0.1,1.1-0.3,1.6c-0.2,0.5-0.5,0.9-0.8,1.2
		c-0.3,0.3-0.7,0.6-1.1,0.8c-0.4,0.2-0.9,0.3-1.3,0.3l3.6,5.4h-2l-3.4-5.3h-2.7v5.3H528z M529.7,641.2h3.5c0.8,0,1.4-0.2,1.9-0.7
		c0.5-0.5,0.8-1.1,0.8-1.8s-0.2-1.4-0.7-1.8s-1.1-0.7-1.9-0.7h-3.5V641.2z"/>
</g>
<text transform="matrix(1 0 0 1 131.296 23.338)" fill="#464545" font-family="'ProximaNova-Regular'" font-size="26">A</text>
<text transform="matrix(1 0 0 1 221.8246 23.338)" fill="#464545" font-family="'ProximaNova-Regular'" font-size="26">B</text>
<text transform="matrix(1 0 0 1 312.4214 23.338)" fill="#464545" font-family="'ProximaNova-Regular'" font-size="26">C</text>
<g>
	<rect x="89.9" y="176.5" fill="none" stroke="#616261" stroke-width="3" stroke-miterlimit="10" width="280.2" height="389"/>
	<rect x="113" y="199.5" fill="none" stroke="#616261" stroke-width="3" stroke-miterlimit="10" width="234" height="342.8"/>
</g>
<g>
	<g>
		<g>
			<line fill="none" stroke="#464545" stroke-width="3" x1="320.7" y1="82.4" x2="320.7" y2="632"/>
			<g>
				<polygon fill="#464545" points="311.7,85 320.7,69.5 329.7,85 				"/>
			</g>
			<g>
				<polygon fill="#464545" points="311.7,629.4 320.7,645 329.7,629.4 				"/>
			</g>
		</g>
	</g>
	<g>
		<g>
			<line fill="none" stroke="#464545" stroke-width="3" x1="229.5" y1="82.4" x2="229.5" y2="632"/>
			<g>
				<polygon fill="#464545" points="220.5,85 229.5,69.5 238.4,85 				"/>
			</g>
			<g>
				<polygon fill="#464545" points="220.5,629.4 229.5,645 238.4,629.4 				"/>
			</g>
		</g>
	</g>
	<g>
		<g>
			<line fill="none" stroke="#464545" stroke-width="3" x1="139.3" y1="82.4" x2="139.3" y2="632"/>
			<g>
				<polygon fill="#464545" points="130.3,85 139.3,69.5 148.3,85 				"/>
			</g>
			<g>
				<polygon fill="#464545" points="130.3,629.4 139.3,645 148.3,629.4 				"/>
			</g>
		</g>
	</g>
</g>
</svg>
