<?xml version="1.0" encoding="utf-8"?>
<!-- Generator: Adobe Illustrator 18.0.0, SVG Export Plug-In . SVG Version: 6.00 Build 0)  -->
<!DOCTYPE svg PUBLIC "-//W3C//DTD SVG 1.1//EN" "http://www.w3.org/Graphics/SVG/1.1/DTD/svg11.dtd">
<svg version="1.1" id="Layer_1" xmlns="http://www.w3.org/2000/svg" xmlns:xlink="http://www.w3.org/1999/xlink" x="0px" y="0px"
	 width="411px" height="571px" viewBox="0 0 411 571" enable-background="new 0 0 411 571" xml:space="preserve">
<g>
	<rect x="65.4" y="55" fill="#FFFFFF" stroke="#464545" stroke-width="3" width="280.2" height="389"/>
	<rect x="88.5" y="78.1" fill="none" stroke="#464545" stroke-width="3" width="234" height="342.8"/>
</g>
<g>
	<rect x="1.1" y="0" fill="#B2B2B2" stroke="#706F6F" stroke-width="1.2906" stroke-miterlimit="10" width="408.8" height="6.2"/>
</g>
<g>
	<g>
		<path fill="#DADADA" stroke="#706F6F" stroke-miterlimit="10" d="M25.5,9.5v547.1h0.2c1.1,3,7.2,5.3,14.7,5.3s13.6-2.3,14.7-5.3
			h0.2V9.5H25.5z"/>
	</g>
	<path fill="#DADADA" stroke="#878787" stroke-miterlimit="10" d="M25.5,37.7c0,0,11.8,6.5,29.8,0"/>
</g>
<g>
	<g>
		<path fill="#DADADA" stroke="#706F6F" stroke-miterlimit="10" d="M55.2,9.5v547.1h0.2c1.1,3,7.2,5.3,14.7,5.3s13.6-2.3,14.7-5.3
			H85V9.5H55.2z"/>
	</g>
	<path fill="#DADADA" stroke="#878787" stroke-miterlimit="10" d="M55.2,37.7c0,0,11.8,6.5,29.8,0"/>
</g>
<g>
	<g>
		<path fill="#DADADA" stroke="#706F6F" stroke-miterlimit="10" d="M85,9.5v547.1h0.2c1.1,3,7.2,5.3,14.7,5.3s13.6-2.3,14.7-5.3h0.2
			V9.5H85z"/>
	</g>
	<path fill="#DADADA" stroke="#878787" stroke-miterlimit="10" d="M85,37.7c0,0,11.8,6.5,29.8,0"/>
</g>
<g>
	<g>
		<path fill="#DADADA" stroke="#706F6F" stroke-miterlimit="10" d="M114.8,9.5v547.1h0.2c1.1,3,7.2,5.3,14.7,5.3s13.6-2.3,14.7-5.3
			h0.2V9.5H114.8z"/>
	</g>
	<path fill="#DADADA" stroke="#878787" stroke-miterlimit="10" d="M114.8,37.7c0,0,11.8,6.5,29.8,0"/>
</g>
<g>
	<g>
		<path fill="#DADADA" stroke="#706F6F" stroke-miterlimit="10" d="M144.5,9.5v547.1h0.2c1.1,3,7.2,5.3,14.7,5.3s13.6-2.3,14.7-5.3
			h0.2V9.5H144.5z"/>
	</g>
	<path fill="#DADADA" stroke="#878787" stroke-miterlimit="10" d="M144.5,37.7c0,0,11.8,6.5,29.8,0"/>
</g>
<g>
	<g>
		<path fill="#DADADA" stroke="#706F6F" stroke-miterlimit="10" d="M174.3,9.5v547.1h0.2c1.1,3,7.2,5.3,14.7,5.3s13.6-2.3,14.7-5.3
			h0.2V9.5H174.3z"/>
	</g>
	<path fill="#DADADA" stroke="#878787" stroke-miterlimit="10" d="M174.3,37.7c0,0,11.8,6.5,29.8,0"/>
</g>
</svg>
