<?xml version="1.0" encoding="utf-8"?>
<!-- Generator: Adobe Illustrator 18.0.0, SVG Export Plug-In . SVG Version: 6.00 Build 0)  -->
<!DOCTYPE svg PUBLIC "-//W3C//DTD SVG 1.1//EN" "http://www.w3.org/Graphics/SVG/1.1/DTD/svg11.dtd">
<svg version="1.1" id="Layer_1" xmlns="http://www.w3.org/2000/svg" xmlns:xlink="http://www.w3.org/1999/xlink" x="0px" y="0px"
	 width="453.5px" height="686px" viewBox="0 0 453.5 686" enable-background="new 0 0 453.5 686" xml:space="preserve">
<rect x="0" y="0" fill="#FFFFFF" width="453.5" height="686"/>
<rect x="86.7" y="100.3" fill="#FFFFFF" stroke="#464545" stroke-width="3" width="280.2" height="389"/>
<rect x="109.8" y="123.4" fill="none" stroke="#464545" stroke-width="3" width="234" height="342.8"/>
<g>
	
		<rect x="7.1" y="36.7" fill="#B2B2B2" stroke="#706F6F" stroke-width="1.2756" stroke-miterlimit="10" width="399.4" height="6.2"/>
</g>
<g>
	<g>
		<path fill="#DADADA" stroke="#706F6F" stroke-width="0.8084" stroke-miterlimit="10" d="M25.5,47.2v493.1h0.2
			c1.1,3,7.2,5.3,14.7,5.3s13.6-2.3,14.7-5.3h0.2V47.2H25.5z"/>
	</g>
	<path fill="#DADADA" stroke="#878787" stroke-width="0.8084" stroke-miterlimit="10" d="M25.5,75.3c0,0,11.8,6.5,29.8,0"/>
</g>
<g>
	<g>
		<path fill="#DADADA" stroke="#706F6F" stroke-width="0.8084" stroke-miterlimit="10" d="M55.2,47.2v493.1h0.2
			c1.1,3,7.2,5.3,14.7,5.3s13.6-2.3,14.7-5.3H85V47.2H55.2z"/>
	</g>
	<path fill="#DADADA" stroke="#878787" stroke-width="0.8084" stroke-miterlimit="10" d="M55.2,75.3c0,0,11.8,6.5,29.8,0"/>
</g>
<g>
	<g>
		<path fill="#DADADA" stroke="#706F6F" stroke-width="0.8084" stroke-miterlimit="10" d="M85,47.2v493.1h0.2
			c1.1,3,7.2,5.3,14.7,5.3c7.5,0,13.6-2.3,14.7-5.3h0.2V47.2H85z"/>
	</g>
	<path fill="#DADADA" stroke="#878787" stroke-width="0.8084" stroke-miterlimit="10" d="M85,75.3c0,0,11.8,6.5,29.8,0"/>
</g>
<g>
	<g>
		<path fill="#DADADA" stroke="#706F6F" stroke-width="0.8084" stroke-miterlimit="10" d="M114.8,47.2v493.1h0.2
			c1.1,3,7.2,5.3,14.7,5.3c7.5,0,13.6-2.3,14.7-5.3h0.2V47.2H114.8z"/>
	</g>
	<path fill="#DADADA" stroke="#878787" stroke-width="0.8084" stroke-miterlimit="10" d="M114.8,75.3c0,0,11.8,6.5,29.8,0"/>
</g>
<g>
	<g>
		<path fill="#DADADA" stroke="#706F6F" stroke-width="0.8084" stroke-miterlimit="10" d="M144.5,47.2v493.1h0.2
			c1.1,3,7.2,5.3,14.7,5.3c7.5,0,13.6-2.3,14.7-5.3h0.2V47.2H144.5z"/>
	</g>
	<path fill="#DADADA" stroke="#878787" stroke-width="0.8084" stroke-miterlimit="10" d="M144.5,75.3c0,0,11.8,6.5,29.8,0"/>
</g>
<g>
	<g>
		<path fill="#DADADA" stroke="#706F6F" stroke-width="0.8084" stroke-miterlimit="10" d="M174.3,47.2v493.1h0.2
			c1.1,3,7.2,5.3,14.7,5.3s13.6-2.3,14.7-5.3h0.2V47.2H174.3z"/>
	</g>
	<path fill="#DADADA" stroke="#878787" stroke-width="0.8084" stroke-miterlimit="10" d="M174.3,75.3c0,0,11.8,6.5,29.8,0"/>
</g>
</svg>
