<?xml version="1.0" encoding="utf-8"?>
<!-- Generator: Adobe Illustrator 18.0.0, SVG Export Plug-In . SVG Version: 6.00 Build 0)  -->
<!DOCTYPE svg PUBLIC "-//W3C//DTD SVG 1.1//EN" "http://www.w3.org/Graphics/SVG/1.1/DTD/svg11.dtd">
<svg version="1.1" id="Layer_1" xmlns="http://www.w3.org/2000/svg" xmlns:xlink="http://www.w3.org/1999/xlink" x="0px" y="0px"
	 width="203px" height="227px" viewBox="0 0 540 606.3" enable-background="new 0 0 540 606.3" xml:space="preserve">
	 <defs>
		<style>
			@font-face {
			font-family: "proximanova-nova";

			src: url('https://doopsalta2.com/Fonts/proxima-nova-three.woff2') format('woff2'),
				url('https://doopsalta2.com/Fonts/proxima-nova-three.woff') format('woff'),
				url('https://doopsalta2.com/Fonts/proxima-nova-three.otf') format('opentype');
			font-style: normal;
			}
		</style>
	</defs>
<g>
	<g>
		<line fill="none" stroke="#464545" stroke-width="2.9846" x1="35.9" y1="25.2" x2="35.9" y2="580.4"/>
		<g>
			<polygon fill="#464545" points="26.9,27.8 35.9,12.3 44.8,27.8 			"/>
		</g>
		<g>
			<polygon fill="#464545" points="26.9,577.8 35.9,593.3 44.8,577.8 			"/>
		</g>
	</g>
</g>
<line fill="none" stroke="#464545" stroke-width="2.9679" x1="1.3" y1="593.3" x2="461.3" y2="593.3"/>
<g>
	<rect x="91.2" y="133" fill="none" stroke="#616261" stroke-width="3" stroke-miterlimit="10" width="280.2" height="389"/>
	<rect x="114.3" y="156.1" fill="none" stroke="#616261" stroke-width="3" stroke-miterlimit="10" width="234" height="342.8"/>
</g>
<line fill="none" stroke="#464545" stroke-width="2.9679" x1="1.3" y1="11" x2="461.3" y2="11"/>
<line fill="none" stroke="#464545" stroke-width="2.6256" x1="51.3" y1="88" x2="411.3" y2="88"/>
<g>
	<g>
		<path fill="#464545" d="M486.6,594.8c-0.1,0-0.3,0-0.4,0s-0.3,0-0.4,0c-0.6,0-1.1-0.2-1.5-0.3s-0.8-0.4-1-0.8
			c-0.5-0.6-0.6-1.4-0.5-2.3c0.1-0.4,0.2-0.8,0.3-1.2c0.2-0.4,0.3-0.7,0.6-1c0.3-0.3,0.5-0.6,0.9-0.8c0.3-0.2,0.6-0.3,1-0.3
			c0.4,0,0.7,0.1,1.1,0.3c0.3,0.2,0.7,0.4,1,0.8c0.3,0.3,0.5,0.6,0.7,1s0.4,0.8,0.5,1.2c0.1,0.4,0.2,0.9,0.3,1.4c0,0.5,0,0.9,0,1.4
			h0c0,0,0,0.1,0,0.3c0,0.2,0,0.4-0.1,0.6c-0.1,0.3-0.1,0.5-0.2,0.9s-0.2,0.7-0.4,1c-0.2,0.4-0.5,0.8-0.7,1.1s-0.6,0.6-0.9,0.8
			c-0.4,0.3-0.9,0.5-1.4,0.7c-0.5,0.1-1.1,0.2-1.7,0.2h0c-1,0-1.9-0.2-2.7-0.6c-0.4-0.2-0.8-0.5-1.1-0.7c-0.3-0.3-0.6-0.6-0.8-1
			c-0.3-0.4-0.5-0.9-0.6-1.5c-0.1-0.5-0.2-1.1-0.1-1.7c0-0.6,0.2-1.2,0.4-1.9c0.2-0.6,0.5-1.3,0.8-1.9l1.4,0.7
			c-0.3,0.5-0.5,1.1-0.7,1.6c-0.2,0.5-0.3,1-0.3,1.5s0,0.9,0,1.3s0.2,0.8,0.4,1.1c0.3,0.5,0.7,0.9,1.3,1.2s1.2,0.4,2,0.4h0
			c0.5,0,1,0,1.5-0.2c0.4-0.2,0.8-0.4,1.2-0.8c0.3-0.3,0.6-0.7,0.8-1.1c0.2-0.4,0.4-0.9,0.5-1.3c-0.1,0-0.2,0-0.4,0
			C486.9,594.8,486.7,594.8,486.6,594.8z M485,585.6l-1.3,1.3l-1.3-1.3l1.3-1.3L485,585.6z M485.5,589.7c-0.2,0-0.4,0.1-0.6,0.4
			c-0.2,0.2-0.3,0.4-0.4,0.7s-0.2,0.5-0.2,0.8c-0.1,0.5,0,0.8,0.2,1.1c0.1,0.1,0.2,0.2,0.3,0.3s0.2,0.1,0.4,0.2s0.3,0.1,0.4,0.1
			c0.1,0,0.2,0,0.3,0c0.3,0,0.6,0,0.9,0c0.3,0,0.5,0,0.7,0c0-0.3-0.1-0.6-0.1-0.9c-0.1-0.3-0.1-0.6-0.2-0.8
			c-0.1-0.3-0.2-0.5-0.3-0.7c-0.1-0.2-0.2-0.4-0.4-0.5c-0.1-0.1-0.2-0.2-0.4-0.3C485.8,589.8,485.7,589.7,485.5,589.7z M488.2,585.6
			l-1.3,1.3l-1.3-1.3l1.3-1.3L488.2,585.6z"/>
		<path fill="#464545" d="M494.8,594.8c-0.6,0-1.1-0.1-1.5-0.2c-0.4-0.1-0.8-0.3-1-0.6c-0.2-0.2-0.3-0.4-0.4-0.6
			c-0.1-0.2-0.2-0.4-0.2-0.6c0-0.2-0.1-0.4-0.1-0.6c0-0.2,0-0.3,0-0.5v-0.1c0,0,0-0.1,0-0.3c0-0.2,0-0.4,0-0.8c0-0.3,0-0.7,0-1.1
			s0-0.8,0-1.3c0-0.4,0-0.9,0-1.4c0-0.5,0-1,0-1.4c0-0.5,0-0.9-0.1-1.3s-0.1-0.7-0.1-0.9l1.5-0.3c0,0.3,0.1,0.6,0.1,1
			c0,0.4,0.1,0.8,0.1,1.3s0,0.9,0.1,1.4c0,0.5,0,1,0,1.4c0,0.5,0,0.9,0,1.3c0,0.4,0,0.8,0,1.1c0,0.3,0,0.6,0,0.8s0,0.3,0,0.4v0.1
			c0,0.2,0,0.4,0,0.6s0.1,0.3,0.2,0.4c0.2,0.2,0.7,0.4,1.3,0.4h0.1c0.1,0,0.2,0,0.3,0.1c0.1,0,0.2,0.1,0.2,0.2s0.1,0.2,0.2,0.2
			s0.1,0.2,0.1,0.3c0,0.2-0.1,0.4-0.2,0.5C495.2,594.7,495,594.8,494.8,594.8z"/>
		<path fill="#464545" d="M493.7,594c0-0.2,0.1-0.4,0.2-0.5c0.1-0.1,0.3-0.2,0.5-0.2h0.9c0.2,0,0.4,0,0.6,0c0.2,0,0.4,0,0.6,0
			c0.2,0,0.4-0.1,0.6-0.1c0.2,0,0.4-0.1,0.6-0.2s0.3-0.2,0.5-0.3s0.2-0.2,0.3-0.4c0.1-0.2,0.1-0.5,0.1-1c0-0.4-0.2-0.9-0.3-1.5
			c-0.1-0.2-0.1-0.3-0.2-0.5c-0.1-0.2-0.2-0.4-0.2-0.5c-0.1-0.2-0.2-0.4-0.3-0.6l1.4-0.7c0,0,0,0.1,0.1,0.2c0,0.1,0.1,0.2,0.2,0.4
			s0.2,0.4,0.2,0.6c0.1,0.2,0.2,0.5,0.3,0.7c0.5,1.5,0.5,2.7,0.2,3.5c-0.4,0.8-1,1.4-2,1.7c-0.1,0-0.3,0.1-0.5,0.1
			c-0.2,0-0.4,0-0.7,0.1s-0.4,0-0.7,0s-0.4,0-0.5,0h-1.1h-0.1c-0.2,0-0.4-0.1-0.5-0.2C493.8,594.4,493.7,594.2,493.7,594z
			 M497.8,585l-1.3,1.3l-1.3-1.3l1.3-1.3L497.8,585z M501,585l-1.3,1.3l-1.3-1.3l1.3-1.3L501,585z"/>
		<path fill="#464545" d="M503.9,582.4c0.2,2.1,0.4,4,0.4,5.7c0.1,2.8,0,5-0.1,6.7l-1.5-0.1c0.2-2.3,0.2-4.3,0.2-5.8
			c-0.1-2.5-0.2-4.6-0.4-6.3L503.9,582.4z"/>
		<path fill="#464545" d="M525.3,592.9C525.3,592.9,525.3,592.9,525.3,592.9c-0.1,0.1-0.1,0.1-0.2,0.2c0.3,0.1,0.6,0.1,1,0.1
			c0.3,0,0.7,0.1,1,0.1c0.2,0,0.4,0.1,0.5,0.2c0.2,0.1,0.2,0.3,0.2,0.5c0,0.1,0,0.2-0.1,0.3c0,0.1-0.1,0.2-0.2,0.2
			c-0.1,0.1-0.2,0.1-0.2,0.2c-0.1,0-0.2,0.1-0.3,0.1c-0.7,0-1.3,0-1.9-0.1c-0.6-0.1-1.2-0.2-1.7-0.4c-0.1,0-0.2,0.1-0.2,0.1
			s-0.1,0.1-0.2,0.1c-0.3,0.1-0.6,0.2-0.9,0.3s-0.8,0.1-1.2,0.2s-0.9,0.1-1.3,0.1c-0.5,0-0.9,0-1.4,0c-1.6,0-2.9-0.2-4-0.6
			c-1.1-0.4-1.8-1-2.3-1.8c-0.2-0.3-0.4-0.7-0.4-1.1c-0.1-0.4-0.1-0.7-0.1-1.1s0.1-0.7,0.1-1c0.1-0.3,0.1-0.6,0.2-0.8
			c0.1-0.2,0.2-0.4,0.2-0.6c0.1-0.1,0.1-0.2,0.1-0.2l1.4,0.7c0,0,0,0.1-0.1,0.2s-0.1,0.2-0.2,0.4c-0.1,0.2-0.1,0.4-0.2,0.6
			s-0.1,0.4-0.1,0.7c0,0.2,0,0.5,0,0.7c0,0.2,0.1,0.5,0.3,0.7c0.2,0.3,0.4,0.5,0.6,0.7c0.2,0.2,0.6,0.4,0.9,0.5s0.8,0.2,1.3,0.3
			c0.5,0.1,1.1,0.1,1.7,0.1c0.5,0,0.9,0,1.3,0s0.7,0,1,0c0.3,0,0.6-0.1,0.8-0.1c0.2,0,0.5-0.1,0.7-0.1c-0.7-0.6-1.1-1.3-1.1-2.1
			c0-0.5,0.1-0.9,0.2-1.4c0.1-0.4,0.4-0.8,0.6-1.2c0.3-0.3,0.6-0.6,1-0.8c0.4-0.2,0.7-0.3,1.1-0.3c0.4,0,0.7,0.1,1,0.2
			s0.6,0.3,0.8,0.6c0.1,0.1,0.2,0.2,0.3,0.4c0.1,0.1,0.2,0.3,0.3,0.5c0.1,0.2,0.1,0.4,0.2,0.7s0.1,0.5,0.1,0.8
			C526,591.5,525.8,592.3,525.3,592.9z M523.4,592.5c0.2-0.1,0.4-0.3,0.5-0.4c0.1-0.2,0.2-0.3,0.3-0.5c0.1-0.2,0.1-0.3,0.1-0.5
			c0-0.2,0-0.4,0-0.5c0-0.4,0-0.7-0.1-0.9c-0.1-0.2-0.2-0.4-0.3-0.5c-0.1-0.1-0.2-0.2-0.4-0.2c-0.1,0-0.2,0-0.3,0
			c-0.1,0-0.3,0-0.5,0.1c-0.2,0.1-0.3,0.2-0.5,0.4c-0.1,0.2-0.3,0.4-0.3,0.7c-0.1,0.3-0.1,0.6-0.1,0.9c0,0.2,0.1,0.5,0.3,0.7
			c0.2,0.2,0.6,0.5,1,0.7L523.4,592.5z M524.6,584.3l-1.3,1.3l-1.3-1.3l1.3-1.3L524.6,584.3z"/>
		<path fill="#464545" d="M526.3,594c0-0.2,0.1-0.4,0.2-0.6c0.2-0.1,0.4-0.2,0.6-0.2h0.8c0.3,0,0.6,0,1,0c0.3,0,0.7,0,1-0.1
			s0.6-0.1,0.8-0.3c0.3-0.1,0.5-0.3,0.6-0.5c0.2-0.3,0.3-0.5,0.3-0.9c0-0.3,0-0.6-0.1-1c-0.1-0.2-0.2-0.5-0.4-0.8
			c-0.2-0.3-0.5-0.7-0.8-1.1c-0.3-0.4-0.7-0.8-1.1-1.2s-0.8-0.8-1.3-1.1l0.2-1.6l6.4-2.8l0.6,1.4l-5.6,2.4c0.3,0.2,0.5,0.5,0.8,0.7
			c0.3,0.3,0.6,0.6,0.9,0.9c0.4,0.4,0.7,0.9,1,1.3s0.5,0.8,0.6,1.1c0.1,0.4,0.2,0.7,0.3,1s0.1,0.6,0,0.9c0,0.3-0.1,0.5-0.2,0.8
			c-0.1,0.2-0.2,0.5-0.3,0.7c-0.5,0.8-1.2,1.3-2.4,1.5c-0.2,0-0.4,0.1-0.7,0.1h-2.5c-0.2,0-0.5-0.1-0.6-0.2
			C526.4,594.4,526.3,594.2,526.3,594z"/>
	</g>
</g>
<g>
	<g>
		<path fill="#464545" d="M490.6,10.6C490.6,10.6,490.5,10.7,490.6,10.6c-0.1,0.1-0.1,0.1-0.2,0.2c0.3,0.1,0.6,0.1,1,0.1
			c0.3,0,0.7,0.1,1,0.1c0.2,0,0.4,0.1,0.5,0.2c0.2,0.1,0.2,0.3,0.2,0.5c0,0.1,0,0.2-0.1,0.3c0,0.1-0.1,0.2-0.2,0.2
			c-0.1,0.1-0.2,0.1-0.2,0.2c-0.1,0-0.2,0.1-0.3,0.1c-0.7,0-1.3,0-1.9-0.1s-1.2-0.2-1.7-0.4c-0.1,0-0.2,0.1-0.2,0.1
			s-0.1,0.1-0.2,0.1c-0.3,0.1-0.6,0.2-0.9,0.3c-0.4,0.1-0.8,0.1-1.2,0.2c-0.4,0-0.9,0.1-1.3,0.1s-0.9,0-1.4,0c-1.6,0-2.9-0.2-4-0.6
			c-1.1-0.4-1.8-1-2.3-1.8c-0.2-0.3-0.4-0.7-0.4-1.1c-0.1-0.4-0.1-0.7-0.1-1.1c0-0.3,0.1-0.7,0.1-1c0.1-0.3,0.1-0.6,0.2-0.8
			s0.2-0.4,0.2-0.6s0.1-0.2,0.1-0.2l1.4,0.7c0,0,0,0.1-0.1,0.2s-0.1,0.2-0.2,0.4s-0.1,0.4-0.2,0.6c-0.1,0.2-0.1,0.4-0.1,0.7
			c0,0.2,0,0.5,0,0.7c0,0.2,0.1,0.5,0.3,0.7c0.2,0.3,0.4,0.5,0.6,0.7c0.2,0.2,0.6,0.4,0.9,0.5c0.4,0.1,0.8,0.2,1.3,0.3
			c0.5,0.1,1.1,0.1,1.7,0.1c0.5,0,0.9,0,1.3,0s0.7,0,1,0c0.3,0,0.6-0.1,0.8-0.1c0.2,0,0.5-0.1,0.7-0.1c-0.7-0.6-1.1-1.3-1.1-2.1
			c0-0.5,0.1-0.9,0.2-1.4c0.1-0.4,0.4-0.8,0.6-1.2c0.3-0.3,0.6-0.6,1-0.8c0.4-0.2,0.7-0.3,1.1-0.3c0.4,0,0.7,0.1,1,0.2
			c0.3,0.1,0.6,0.3,0.8,0.6c0.1,0.1,0.2,0.2,0.3,0.4s0.2,0.3,0.3,0.5c0.1,0.2,0.1,0.4,0.2,0.7c0,0.2,0.1,0.5,0.1,0.8
			C491.3,9.2,491,10,490.6,10.6z M488.7,10.3c0.2-0.1,0.4-0.3,0.5-0.4s0.2-0.3,0.3-0.5c0.1-0.2,0.1-0.3,0.1-0.5c0-0.2,0-0.4,0-0.5
			c0-0.4,0-0.7-0.1-0.9s-0.2-0.4-0.3-0.5c-0.1-0.1-0.2-0.2-0.4-0.2s-0.2,0-0.3,0c-0.1,0-0.3,0-0.5,0.1c-0.2,0.1-0.3,0.2-0.5,0.4
			s-0.3,0.4-0.3,0.7s-0.1,0.6-0.1,0.9c0,0.2,0.1,0.5,0.3,0.7c0.2,0.2,0.6,0.5,1,0.7L488.7,10.3z M489.9,2.1l-1.3,1.3L487.3,2
			l1.3-1.3L489.9,2.1z"/>
		<path fill="#464545" d="M491.6,11.7c0-0.1,0-0.2,0.1-0.3c0-0.1,0.1-0.2,0.2-0.2c0.1-0.1,0.2-0.1,0.2-0.2s0.2-0.1,0.3-0.1
			c0.2,0,0.4,0,0.6,0c0.2,0,0.4,0,0.6,0c0.2,0,0.4,0,0.6,0c0.2,0,0.3,0,0.5,0c-0.7-0.6-1-1.3-1-2c0-0.5,0.1-0.9,0.2-1.4
			c0.1-0.4,0.4-0.8,0.6-1.2s0.6-0.6,1-0.8c0.4-0.2,0.7-0.3,1.1-0.3c0.5,0,0.9,0.1,1.2,0.3s0.6,0.5,0.9,0.8c0.2,0.3,0.4,0.7,0.5,1.1
			c0.1,0.4,0.2,0.8,0.1,1.2c0,0.4-0.1,0.8-0.3,1.2c-0.1,0.4-0.4,0.7-0.6,1.1c0.2,0,0.3,0.1,0.5,0.1c0.2,0,0.4,0,0.6,0.1s0.4,0,0.6,0
			s0.4,0,0.6,0c0.2,0,0.4,0.1,0.6,0.2c0.1,0.1,0.2,0.3,0.2,0.5c0,0.1,0,0.2-0.1,0.3c0,0.1-0.1,0.2-0.2,0.2c-0.1,0.1-0.2,0.1-0.2,0.2
			c-0.1,0-0.2,0.1-0.3,0.1h-0.1c-0.2,0-0.3,0-0.5,0c-0.2,0-0.4,0-0.6,0c-0.2,0-0.4,0-0.6,0s-0.3,0-0.5-0.1c-0.3-0.1-0.6-0.1-0.9-0.2
			c-0.3-0.1-0.6-0.1-0.8-0.2c-0.2,0.1-0.5,0.2-0.9,0.2c-0.3,0.1-0.7,0.1-1,0.2c-0.4,0-0.8,0.1-1.2,0.1c-0.4,0-0.8,0-1.2,0h-0.1
			c-0.2,0-0.4-0.1-0.5-0.2C491.7,12.1,491.6,12,491.6,11.7z M496.2,2.1L495,3.4l-1.3-1.3l1.3-1.3L496.2,2.1z M496.6,6.7
			c-0.1,0-0.3,0.1-0.5,0.2c-0.2,0.1-0.3,0.2-0.5,0.4c-0.1,0.2-0.3,0.4-0.3,0.7s-0.1,0.6-0.1,0.9c0,0.2,0.1,0.5,0.3,0.7
			s0.6,0.5,1,0.7l0.1,0.1c0.3-0.1,0.5-0.3,0.7-0.6c0.2-0.2,0.3-0.5,0.3-0.7c0.1-0.3,0.1-0.5,0-0.8c0-0.3-0.1-0.5-0.2-0.7
			s-0.2-0.4-0.4-0.5C496.9,6.8,496.8,6.7,496.6,6.7z M499.4,2.1l-1.3,1.3l-1.3-1.3l1.3-1.3L499.4,2.1z"/>
		<path fill="#464545" d="M500,11.7c0-0.1,0-0.2,0.1-0.3c0-0.1,0.1-0.2,0.2-0.2c0.1-0.1,0.1-0.1,0.2-0.2c0.1,0,0.2-0.1,0.3-0.1
			c0.3,0,0.6-0.1,0.8-0.2c0.2-0.1,0.5-0.3,0.7-0.5s0.4-0.4,0.5-0.7s0.3-0.5,0.4-0.8c0.1-0.3,0.2-0.6,0.3-0.9
			c0.1-0.3,0.1-0.6,0.2-0.8l1.5,0.3c0,0.1-0.1,0.3-0.2,0.5s-0.1,0.4-0.2,0.6c-0.1,0.2-0.1,0.5-0.1,0.7c0,0.2-0.1,0.5-0.1,0.7
			c0,0.1,0,0.3,0,0.4c0,0.1,0.1,0.3,0.1,0.4s0.1,0.2,0.3,0.2c0.1,0.1,0.2,0.1,0.4,0.1c0.3,0,0.5-0.1,0.7-0.2s0.4-0.3,0.6-0.6
			c0.2-0.2,0.3-0.5,0.4-0.8c0.1-0.3,0.2-0.6,0.3-0.9c0.1-0.3,0.2-0.6,0.2-0.9c0.1-0.3,0.1-0.5,0.1-0.8l1.5,0.3
			c-0.1,0.3-0.1,0.6-0.1,0.9S509,8.5,509,8.8c0,0.3,0,0.5,0,0.7c0,0.2,0,0.4,0,0.6c0,0.2,0.1,0.3,0.1,0.5c0.1,0.1,0.2,0.2,0.3,0.3
			s0.2,0.1,0.4,0.2c0.2,0,0.4,0,0.6,0c0.2,0,0.3-0.1,0.4-0.1c0.1-0.1,0.2-0.1,0.2-0.2c0-0.1,0.1-0.1,0.1-0.1h0
			c0.1-0.1,0.1-0.2,0.2-0.4c0-0.1,0-0.3,0-0.5c0-0.3,0-0.6-0.1-1c-0.1-0.3-0.2-0.7-0.3-1c-0.1-0.3-0.2-0.6-0.4-0.9s-0.2-0.5-0.3-0.7
			l1.4-0.7c0,0.1,0.1,0.2,0.1,0.3s0.2,0.3,0.3,0.5c0.1,0.2,0.2,0.5,0.3,0.7s0.2,0.6,0.3,0.9s0.2,0.6,0.2,0.9
			c0.1,0.3,0.1,0.6,0.1,0.9c0,0.4-0.1,0.9-0.2,1.2c-0.1,0.4-0.3,0.7-0.6,0.9c-0.3,0.3-0.6,0.5-0.9,0.6c-0.4,0.1-0.8,0.2-1.3,0.2
			c-0.2,0-0.4,0-0.6-0.1s-0.4-0.1-0.6-0.3c-0.2-0.1-0.4-0.2-0.5-0.4c-0.2-0.1-0.3-0.3-0.4-0.5c-0.3,0.4-0.7,0.7-1.1,0.9
			s-0.8,0.3-1.3,0.3c-0.2,0-0.4,0-0.6-0.1s-0.4-0.1-0.6-0.2c-0.2-0.1-0.4-0.2-0.5-0.4c-0.2-0.1-0.3-0.3-0.4-0.5
			c-0.3,0.3-0.7,0.6-1.1,0.8c-0.4,0.2-0.9,0.3-1.4,0.3h-0.1c-0.1,0-0.2,0-0.3-0.1s-0.2-0.1-0.2-0.2c-0.1-0.1-0.1-0.1-0.2-0.2
			C500,11.9,500,11.8,500,11.7z"/>
	</g>
</g>
</svg>
