<?xml version="1.0" encoding="utf-8"?>
<!-- Generator: Adobe Illustrator 18.0.0, SVG Export Plug-In . SVG Version: 6.00 Build 0)  -->
<!DOCTYPE svg PUBLIC "-//W3C//DTD SVG 1.1//EN" "http://www.w3.org/Graphics/SVG/1.1/DTD/svg11.dtd">
<svg version="1.1" id="Layer_1" xmlns="http://www.w3.org/2000/svg" xmlns:xlink="http://www.w3.org/1999/xlink" x="0px" y="0px"
	 width="211px" height="244px" viewBox="0 0 562 650" enable-background="new 0 0 562 650" xml:space="preserve">
	 <defs>
		<style>
			@font-face {
			font-family: "proximanova-nova";

			src: url('https://doopsalta2.com/Fonts/proxima-nova-three.woff2') format('woff2'),
				url('https://doopsalta2.com/Fonts/proxima-nova-three.woff') format('woff'),
				url('https://doopsalta2.com/Fonts/proxima-nova-three.otf') format('opentype');
			font-style: normal;
			}
		</style>
	</defs>
<line fill="none" stroke="#464545" stroke-width="2.9679" x1="-1" y1="636.1" x2="459" y2="636.1"/>
<g>
	<rect x="88.9" y="176.7" fill="none" stroke="#616261" stroke-width="3" stroke-miterlimit="10" width="280.2" height="389"/>
	<rect x="112" y="199.8" fill="none" stroke="#616261" stroke-width="3" stroke-miterlimit="10" width="234" height="342.8"/>
</g>
<g>
	<g>
		<g>
			<line fill="none" stroke="#464545" stroke-width="2.9762" x1="319.7" y1="82.5" x2="319.7" y2="623.3"/>
			<g>
				<polygon fill="#464545" points="310.8,85.1 319.7,69.7 328.6,85.1 				"/>
			</g>
			<g>
				<polygon fill="#464545" points="310.8,620.7 319.7,636.1 328.6,620.7 				"/>
			</g>
		</g>
	</g>
	<g>
		<g>
			<line fill="none" stroke="#464545" stroke-width="2.9762" x1="228.5" y1="82.5" x2="228.5" y2="623.3"/>
			<g>
				<polygon fill="#464545" points="219.6,85.1 228.5,69.7 237.4,85.1 				"/>
			</g>
			<g>
				<polygon fill="#464545" points="219.6,620.7 228.5,636.1 237.4,620.7 				"/>
			</g>
		</g>
	</g>
	<g>
		<g>
			<line fill="none" stroke="#464545" stroke-width="2.9762" x1="138.3" y1="82.5" x2="138.3" y2="623.3"/>
			<g>
				<polygon fill="#464545" points="129.4,85.1 138.3,69.7 147.2,85.1 				"/>
			</g>
			<g>
				<polygon fill="#464545" points="129.4,620.7 138.3,636.1 147.2,620.7 				"/>
			</g>
		</g>
	</g>
</g>
<line fill="none" stroke="#464545" stroke-width="2.9679" x1="-1" y1="69.7" x2="459" y2="69.7"/>
<g>
	<g>
		<path fill="#464545" d="M138.8,22.8c0-2,0-3.9-0.1-5.9c-0.1-2-0.3-3.7-0.5-5.6s-0.5-3.5-1.1-4.9c-0.4-1.6-1.1-2.9-1.9-4.1l2.5-1.6
			c0.8,1.3,1.5,2.8,2,4.5s0.9,3.7,1.2,5.9c0.1,0.9,0.3,1.9,0.3,2.9c0.1,1.1,0.1,2,0.1,3.1c0,1.1,0.1,2,0.1,2.9c0,0.9,0,1.9,0,2.8
			C141.4,22.8,138.8,22.8,138.8,22.8z"/>
	</g>
</g>
<g>
	<g>
		<path fill="#464545" d="M235.6,0.4c0,0,0,0.1,0,0.3s0,0.4,0.1,0.7c0,0.3,0,0.7,0.1,0.9c0,0.4,0,0.8,0,1.2c0,2.3-0.5,4.1-1.6,5.3
			l0,0c-0.5,0.7-1.1,1.1-1.9,1.3c-0.7,0.3-1.5,0.5-2.4,0.5c-0.5,0-0.9,0-1.3-0.1c-0.4,0-0.8-0.1-1.2-0.3c0,0.1,0,0.3,0,0.4
			c0,0.1,0,0.3,0,0.4c0.1,0.9,0.3,1.9,0.3,2.9c0.1,1.1,0.1,2,0.1,2.9c0,1.1,0.1,2,0.1,2.9c0,0.9,0,1.9,0,2.8H225c0-1.6,0-3.2,0-4.8
			c0-1.6-0.1-3.1-0.3-4.7c-0.1-1.5-0.3-2.9-0.5-4.3c-0.3-1.3-0.7-2.7-1.1-3.7c-0.3-0.5-0.4-1.1-0.7-1.6c-0.3-0.5-0.5-1.1-0.8-1.5
			l2.5-1.6c0.1,0.3,0.3,0.5,0.4,0.8s0.3,0.5,0.4,0.8s0.3,0.5,0.4,0.9c0.1,0.4,0.3,0.7,0.5,1.1c0.3,0.5,0.4,1.1,0.7,1.5
			c0.3,0.4,0.5,0.8,0.8,1.1c0.3,0.3,0.7,0.5,1.1,0.7c0.4,0.1,0.8,0.3,1.5,0.3c0.4,0,0.8,0,1.1-0.1c0.3-0.1,0.5-0.3,0.8-0.5
			c0.1-0.3,0.4-0.5,0.5-0.8c0.1-0.3,0.3-0.7,0.3-0.9c0.1-0.3,0.1-0.7,0.1-1.1s0-0.7,0-1.1s0-0.8-0.1-1.2c0-0.4-0.1-0.7-0.1-0.9
			L235.6,0.4z"/>
	</g>
</g>
<g>
	<path fill="#464545" d="M328.8,0.2c0.1,0.8,0.3,1.6,0.4,2.4c0.1,0.7,0.1,1.5,0.1,2c0,1.9-0.4,3.3-1.2,4.4c-0.4,0.4-0.8,0.8-1.3,1.1
		c-0.5,0.3-1.1,0.4-1.7,0.4c-0.3,0-0.5,0-0.8-0.1c-0.3,0-0.5-0.1-0.8-0.3c-0.3-0.1-0.5-0.3-0.8-0.5c-0.3-0.3-0.5-0.5-0.8-0.9
		L321.6,9c-0.5,0.5-1.1,0.9-1.6,1.2c-0.5,0.3-1.2,0.4-2,0.4c-0.4,0-0.7,0-0.9-0.1c-0.3,0-0.5-0.1-0.9-0.3c0,0.1,0,0.3,0,0.4
		c0,0.1,0,0.3,0,0.4c0.1,0.9,0.3,2,0.3,2.9s0.1,2,0.1,2.9s0.1,2,0.1,2.9c0,0.9,0,1.9,0,2.8h-2.9c0-0.4,0-0.8,0-1.3
		c0-0.4,0-0.9,0-1.3c0-1.5,0-2.9-0.1-4.3c-0.1-1.3-0.3-2.8-0.4-4c-0.1-1.3-0.4-2.5-0.8-3.7c-0.3-1.2-0.7-2.3-1.1-3.3
		c0,0,0-0.1-0.1-0.3V4.2c-0.1-0.4-0.4-0.8-0.5-1.2c-0.1-0.4-0.4-0.8-0.7-1.1l2.7-1.6c0.1,0.1,0.1,0.3,0.3,0.4
		c0.1,0.1,0.1,0.4,0.3,0.5c0.1,0.3,0.3,0.4,0.3,0.7c0.1,0.3,0.3,0.4,0.3,0.7c0.3,0.5,0.5,0.9,0.7,1.5c0.3,0.7,0.5,1.2,0.7,1.6
		c0.1,0.4,0.4,0.8,0.7,1.1c0.3,0.3,0.5,0.4,0.8,0.5c0.3,0.1,0.7,0.1,1.1,0.1c0.3,0,0.5,0,0.8-0.1c0.3-0.1,0.4-0.3,0.5-0.5
		c0.3-0.3,0.5-0.8,0.7-1.3c0.1-0.7,0.3-1.3,0.3-2.1c0-0.1,0-0.3,0-0.5c0-0.3,0-0.5,0-0.8c0-0.3,0-0.5,0-0.8s0-0.4,0-0.5l2.9-0.4v0.1
		v0.1c0,0.1,0,0.3,0.1,0.5c0,0.3,0,0.5,0.1,0.8c0,0.7,0.1,1.2,0.3,2c0.1,0.7,0.3,1.3,0.4,1.9c0.1,0.4,0.3,0.7,0.4,0.8
		c0.1,0.3,0.3,0.4,0.4,0.4c0.1,0.1,0.3,0.1,0.3,0.1c0.1,0,0.1,0,0.3,0c0.3,0,0.4,0,0.5-0.1c0.1,0,0.1-0.1,0.3-0.3
		c0,0,0.1-0.1,0.1-0.3c0-0.1,0.1-0.3,0.1-0.5c0-0.1,0.1-0.4,0.1-0.7c0-0.3,0-0.7,0-1.1s0-0.9-0.1-1.6s-0.1-1.3-0.4-2.3L328.8,0.2z"
		/>
</g>
<g>
	<g>
		<path fill="#464545" d="M485.4,639.3c-0.1,0-0.4,0-0.6,0c-0.1,0-0.4,0-0.6,0c-0.9,0-1.6-0.3-2.1-0.4c-0.6-0.1-1.1-0.6-1.4-1.1
			c-0.7-0.9-0.9-2-0.7-3.3c0.1-0.6,0.3-1.1,0.4-1.7s0.4-1,0.9-1.4c0.4-0.4,0.7-0.9,1.3-1.1c0.4-0.3,0.9-0.4,1.4-0.4s1,0.1,1.6,0.4
			c0.4,0.3,1,0.6,1.4,1.1c0.4,0.4,0.7,0.9,1,1.4s0.6,1.1,0.7,1.7c0.1,0.6,0.3,1.3,0.4,2c0,0.7,0,1.3,0,2l0,0c0,0,0,0.1,0,0.4
			c0,0.3,0,0.6-0.1,0.9c-0.1,0.4-0.1,0.7-0.3,1.3c-0.1,0.4-0.3,1-0.6,1.4c-0.3,0.6-0.7,1.1-1,1.6c-0.4,0.4-0.9,0.9-1.3,1.1
			c-0.6,0.4-1.3,0.7-2,1c-0.7,0.1-1.6,0.3-2.4,0.3l0,0c-1.4,0-2.7-0.3-3.8-0.9c-0.6-0.3-1.1-0.7-1.6-1c-0.4-0.4-0.9-0.9-1.1-1.4
			c-0.4-0.6-0.7-1.3-0.9-2.1c-0.1-0.7-0.3-1.6-0.1-2.4c0-0.9,0.3-1.7,0.6-2.7c0.3-0.9,0.7-1.8,1.1-2.7l2,1c-0.4,0.7-0.7,1.6-1,2.3
			c-0.3,0.7-0.4,1.4-0.4,2.1c0,0.7,0,1.3,0,1.8c0,0.6,0.3,1.1,0.6,1.6c0.4,0.7,1,1.3,1.8,1.7c0.9,0.4,1.7,0.6,2.8,0.6l0,0
			c0.7,0,1.4,0,2.1-0.3c0.6-0.3,1.1-0.6,1.7-1.1c0.4-0.4,0.9-1,1.1-1.6c0.3-0.6,0.6-1.3,0.7-1.8c-0.1,0-0.3,0-0.6,0
			S485.6,639.3,485.4,639.3z M483,626.2l-1.8,1.8l-1.8-1.8l1.8-1.8L483,626.2z M483.9,632c-0.3,0-0.6,0.1-0.9,0.6
			c-0.3,0.3-0.4,0.6-0.6,1c-0.1,0.4-0.3,0.7-0.3,1.1c-0.1,0.7,0,1.1,0.3,1.6c0.1,0.1,0.3,0.3,0.4,0.4c0.1,0.1,0.3,0.1,0.6,0.3
			c0.1,0,0.4,0.1,0.6,0.1c0.1,0,0.3,0,0.4,0c0.4,0,0.9,0,1.3,0s0.7,0,1,0c0-0.4-0.1-0.9-0.1-1.3c-0.1-0.4-0.1-0.9-0.3-1.1
			c-0.1-0.4-0.3-0.7-0.4-1s-0.3-0.6-0.6-0.7c-0.1-0.1-0.3-0.3-0.6-0.4C484.3,632.2,484,632,483.9,632z M487.7,626.2l-1.8,1.8
			l-1.8-1.8l1.8-1.8L487.7,626.2z"/>
		<path fill="#464545" d="M497,639.3c-0.9,0-1.6-0.1-2.1-0.3s-1.1-0.4-1.4-0.9c-0.3-0.3-0.4-0.6-0.6-0.9s-0.3-0.6-0.3-0.9
			c0-0.3-0.1-0.6-0.1-0.9c0-0.3,0-0.4,0-0.7v-0.1c0,0,0-0.1,0-0.4s0-0.6,0-1.1c0-0.4,0-1,0-1.6s0-1.1,0-1.8c0-0.6,0-1.3,0-2
			c0-0.7,0-1.4,0-2c0-0.7,0-1.3-0.1-1.8c0-0.6-0.1-1-0.1-1.3l2.1-0.4c0,0.4,0.1,0.9,0.1,1.4s0.1,1.1,0.1,1.8c0,0.7,0,1.3,0.1,2
			c0,0.7,0,1.4,0,2c0,0.7,0,1.3,0,1.8c0,0.6,0,1.1,0,1.6c0,0.4,0,0.9,0,1.1c0,0.3,0,0.4,0,0.6v0.1c0,0.3,0,0.6,0,0.9
			c0,0.3,0.1,0.4,0.3,0.6c0.3,0.3,1,0.6,1.8,0.6h0.1c0.1,0,0.3,0,0.4,0.1c0.1,0,0.3,0.1,0.3,0.3c0.1,0.1,0.1,0.3,0.3,0.3
			c0,0.1,0.1,0.3,0.1,0.4c0,0.3-0.1,0.6-0.3,0.7C497.6,639.1,497.3,639.3,497,639.3z"/>
		<path fill="#464545" d="M495.5,638.1c0-0.3,0.1-0.6,0.3-0.7c0.1-0.1,0.4-0.3,0.7-0.3h1.3c0.3,0,0.6,0,0.9,0c0.3,0,0.6,0,0.9,0
			c0.3,0,0.6-0.1,0.9-0.1c0.3,0,0.6-0.1,0.9-0.3c0.3-0.1,0.4-0.3,0.7-0.4c0.1-0.1,0.3-0.3,0.4-0.6c0.1-0.3,0.1-0.7,0.1-1.4
			s-0.1-1.3-0.4-2.1c-0.1-0.3-0.1-0.4-0.3-0.7c-0.1-0.3-0.1-0.6-0.3-0.7c-0.1-0.3-0.3-0.6-0.4-0.9l2-1c0,0,0,0.1,0.1,0.3
			c0,0.1,0.1,0.3,0.3,0.6c0.1,0.3,0.3,0.6,0.3,0.9c0.1,0.3,0.3,0.7,0.4,1c0.7,2.1,0.7,3.8,0.3,5c-0.6,1.1-1.4,2-2.8,2.4
			c-0.1,0-0.4,0.1-0.7,0.1s-0.6,0-1,0.1c-0.4,0.1-0.6,0-1,0c-0.3,0-0.6,0-0.7,0h-1.6h-0.1c-0.3,0-0.6-0.1-0.7-0.3
			C495.6,638.7,495.5,638.6,495.5,638.1z M501.2,625.5l-1.8,1.8l-1.8-1.8l1.8-1.8L501.2,625.5z M505.7,625.5l-1.8,1.8l-1.8-1.8
			l1.8-1.8L505.7,625.5z"/>
		<path fill="#464545" d="M509.9,621.7c0.3,3,0.6,5.7,0.6,8.1c0.1,4,0,7.1-0.1,9.5l-2.1-0.1c0.3-3.3,0.3-6.1,0.3-8.2
			c-0.1-3.5-0.3-6.5-0.6-8.9L509.9,621.7z"/>
		<path fill="#464545" d="M540.3,636.6C540.3,636.6,540.3,636.7,540.3,636.6c-0.1,0.1-0.1,0.1-0.3,0.3c0.4,0.1,0.9,0.1,1.4,0.1
			c0.4,0,1,0.1,1.4,0.1c0.3,0,0.6,0.1,0.7,0.3c0.3,0.1,0.3,0.4,0.3,0.7c0,0.1,0,0.3-0.1,0.4c0,0.1-0.1,0.3-0.3,0.3
			c-0.1,0.1-0.3,0.1-0.3,0.3c-0.1,0-0.3,0.1-0.4,0.1c-1,0-1.8,0-2.7-0.1c-0.9-0.1-1.7-0.3-2.4-0.6c-0.1,0-0.3,0.1-0.3,0.1
			s-0.1,0.1-0.3,0.1c-0.4,0.1-0.9,0.3-1.3,0.4c-0.6,0.1-1.1,0.1-1.7,0.3c-0.6,0-1.3,0.1-1.8,0.1c-0.6,0-1.3,0-2,0
			c-2.3,0-4.1-0.3-5.7-0.9c-1.6-0.6-2.6-1.4-3.3-2.6c-0.3-0.4-0.6-1-0.6-1.6c-0.1-0.6-0.1-1-0.1-1.6c0-0.4,0.1-1,0.1-1.4
			c0.1-0.4,0.1-0.9,0.3-1.1c0.1-0.3,0.3-0.6,0.3-0.9c0-0.3,0.1-0.3,0.1-0.3l2,1c0,0,0,0.1-0.1,0.3c-0.1,0.1-0.1,0.3-0.3,0.6
			s-0.1,0.6-0.3,0.9c-0.1,0.3-0.1,0.6-0.1,1c0,0.3,0,0.7,0,1s0.1,0.7,0.4,1c0.3,0.4,0.6,0.7,0.9,1c0.3,0.3,0.9,0.6,1.3,0.7
			c0.6,0.1,1.1,0.3,1.8,0.4c0.7,0.1,1.6,0.1,2.4,0.1c0.7,0,1.3,0,1.8,0c0.6,0,1,0,1.4,0s0.9-0.1,1.1-0.1c0.3,0,0.7-0.1,1-0.1
			c-1-0.9-1.6-1.8-1.6-3c0-0.7,0.1-1.3,0.3-2c0.1-0.6,0.6-1.1,0.9-1.7c0.4-0.4,0.9-0.9,1.4-1.1c0.6-0.3,1-0.4,1.6-0.4
			c0.6,0,1,0.1,1.4,0.3c0.4,0.1,0.9,0.4,1.1,0.9c0.1,0.1,0.3,0.3,0.4,0.6c0.1,0.3,0.3,0.4,0.4,0.7c0.1,0.3,0.1,0.6,0.3,1
			c0,0.3,0.1,0.7,0.1,1.1C541.3,634.6,541,635.7,540.3,636.6z M537.6,636.2c0.3-0.1,0.6-0.4,0.7-0.6c0.1-0.1,0.3-0.4,0.4-0.7
			c0.1-0.3,0.1-0.4,0.1-0.7c0-0.3,0-0.6,0-0.7c0-0.6,0-1-0.1-1.3c-0.1-0.3-0.3-0.6-0.4-0.7c-0.1-0.1-0.3-0.3-0.6-0.3
			c-0.3,0-0.3,0-0.4,0c-0.1,0-0.4,0-0.7,0.1c-0.3,0.1-0.4,0.3-0.7,0.6c-0.3,0.3-0.4,0.6-0.4,1c0,0.4-0.1,0.9-0.1,1.3
			c0,0.3,0.1,0.7,0.4,1c0.3,0.3,0.9,0.7,1.4,1H537.6z M539.3,624.5l-1.8,1.8l-1.8-1.8l1.8-1.8L539.3,624.5z"/>
		<path fill="#464545" d="M541.7,638.1c0-0.3,0.1-0.6,0.3-0.9c0.3-0.1,0.6-0.3,0.9-0.3h1.1c0.4,0,0.9,0,1.4,0c0.4,0,1,0,1.4-0.1
			s0.9-0.1,1.1-0.4c0.4-0.1,0.7-0.4,0.9-0.7c0.3-0.4,0.4-0.7,0.4-1.3c0-0.4,0-0.9-0.1-1.4c-0.1-0.3-0.3-0.7-0.6-1.1
			c-0.3-0.4-0.7-1-1.1-1.6c-0.4-0.6-1-1.1-1.6-1.7c-0.6-0.6-1.1-1.1-1.8-1.6l0.3-2.3l9.1-4l0.9,2l-7.9,3.4c0.4,0.3,0.7,0.7,1.1,1
			c0.4,0.4,0.9,0.9,1.3,1.3c0.6,0.6,1,1.3,1.4,1.8c0.4,0.6,0.7,1.1,0.9,1.6c0.1,0.6,0.3,1,0.4,1.4c0.1,0.4,0.1,0.9,0,1.3
			c0,0.4-0.1,0.7-0.3,1.1c-0.1,0.3-0.3,0.7-0.4,1c-0.7,1.1-1.7,1.8-3.4,2.1c-0.3,0-0.6,0.1-1,0.1h-3.5c-0.4,0-0.7-0.1-0.9-0.3
			C541.8,638.7,541.7,638.6,541.7,638.1z"/>
	</g>
</g>
<g>
	<g>
		<path fill="#464545" d="M493.4,70.9C493.3,70.9,493.3,70.9,493.4,70.9c-0.1,0.1-0.1,0.1-0.3,0.3c0.4,0.1,0.8,0.1,1.4,0.1
			c0.4,0,1,0.1,1.4,0.1c0.3,0,0.6,0.1,0.7,0.3c0.3,0.1,0.3,0.4,0.3,0.7c0,0.1,0,0.3-0.1,0.4c0,0.1-0.1,0.3-0.3,0.3
			c-0.1,0.1-0.3,0.1-0.3,0.3c-0.1,0-0.3,0.1-0.4,0.1c-1,0-1.8,0-2.7-0.1s-1.7-0.3-2.4-0.6c-0.1,0-0.3,0.1-0.3,0.1s-0.1,0.1-0.3,0.1
			c-0.4,0.1-0.8,0.3-1.3,0.4c-0.6,0.1-1.1,0.1-1.7,0.3c-0.6,0-1.3,0.1-1.8,0.1c-0.6,0-1.3,0-2,0c-2.2,0-4.1-0.3-5.6-0.8
			s-2.5-1.4-3.2-2.5c-0.3-0.4-0.6-1-0.6-1.5c-0.1-0.6-0.1-1-0.1-1.5c0-0.4,0.1-1,0.1-1.4c0.1-0.4,0.1-0.8,0.3-1.1
			c0.1-0.3,0.3-0.6,0.3-0.8c0-0.3,0.1-0.3,0.1-0.3l2,1c0,0,0,0.1-0.1,0.3c-0.1,0.1-0.1,0.3-0.3,0.6s-0.1,0.6-0.3,0.8
			c-0.1,0.3-0.1,0.6-0.1,1c0,0.3,0,0.7,0,1c0,0.3,0.1,0.7,0.4,1c0.3,0.4,0.6,0.7,0.8,1c0.3,0.3,0.8,0.6,1.3,0.7
			c0.6,0.1,1.1,0.3,1.8,0.4c0.7,0.1,1.5,0.1,2.4,0.1c0.7,0,1.3,0,1.8,0c0.6,0,1,0,1.4,0s0.8-0.1,1.1-0.1c0.3,0,0.7-0.1,1-0.1
			c-1-0.8-1.5-1.8-1.5-3c0-0.7,0.1-1.3,0.3-2c0.1-0.6,0.6-1.1,0.8-1.7c0.4-0.4,0.8-0.8,1.4-1.1c0.6-0.3,1-0.4,1.5-0.4
			c0.6,0,1,0.1,1.4,0.3c0.4,0.1,0.8,0.4,1.1,0.8c0.1,0.1,0.3,0.3,0.4,0.6c0.1,0.3,0.3,0.4,0.4,0.7c0.1,0.3,0.1,0.6,0.3,1
			c0,0.3,0.1,0.7,0.1,1.1C494.3,68.9,494,70,493.4,70.9z M490.6,70.3c0.3-0.1,0.6-0.4,0.7-0.6c0.1-0.1,0.3-0.4,0.4-0.7
			c0.1-0.3,0.1-0.4,0.1-0.7s0-0.6,0-0.7c0-0.6,0-1-0.1-1.3s-0.3-0.6-0.4-0.7c-0.1-0.1-0.3-0.3-0.6-0.3s-0.3,0-0.4,0
			c-0.1,0-0.4,0-0.7,0.1c-0.3,0.1-0.4,0.3-0.7,0.6s-0.4,0.6-0.4,1s-0.1,0.8-0.1,1.3c0,0.3,0.1,0.7,0.4,1c0.3,0.3,0.8,0.7,1.4,1
			L490.6,70.3z M492.3,58.8l-1.8,1.8l-1.8-1.8l1.8-1.8L492.3,58.8z"/>
		<path fill="#464545" d="M494.8,72.4c0-0.1,0-0.3,0.1-0.4c0-0.1,0.1-0.3,0.3-0.3c0.1-0.1,0.3-0.1,0.3-0.3s0.3-0.1,0.4-0.1
			c0.3,0,0.6,0,0.8,0c0.3,0,0.6,0,0.8,0c0.3,0,0.6,0,0.8,0c0.3,0,0.4,0,0.7,0c-1-0.8-1.4-1.8-1.4-2.8c0-0.7,0.1-1.3,0.3-2
			c0.1-0.6,0.6-1.1,0.8-1.7c0.3-0.6,0.8-0.8,1.4-1.1c0.6-0.3,1-0.4,1.5-0.4c0.7,0,1.3,0.1,1.7,0.4c0.4,0.3,0.8,0.7,1.3,1.1
			c0.3,0.4,0.6,1,0.7,1.5c0.1,0.6,0.3,1.1,0.1,1.7c0,0.6-0.1,1.1-0.4,1.7c-0.1,0.6-0.6,1-0.8,1.5c0.3,0,0.4,0.1,0.7,0.1
			c0.3,0,0.6,0,0.8,0.1c0.3,0.1,0.6,0,0.8,0c0.3,0,0.6,0,0.8,0c0.3,0,0.6,0.1,0.8,0.3c0.1,0.1,0.3,0.4,0.3,0.7c0,0.1,0,0.3-0.1,0.4
			c0,0.1-0.1,0.3-0.3,0.3c-0.1,0.1-0.3,0.1-0.3,0.3c-0.1,0-0.3,0.1-0.4,0.1h-0.1c-0.3,0-0.4,0-0.7,0c-0.3,0-0.6,0-0.8,0
			s-0.6,0-0.8,0c-0.3,0-0.4,0-0.7-0.1c-0.4-0.1-0.8-0.1-1.3-0.3c-0.4-0.1-0.8-0.1-1.1-0.3c-0.3,0.1-0.7,0.3-1.3,0.3
			c-0.4,0.1-1,0.1-1.4,0.3c-0.6,0-1.1,0.1-1.7,0.1s-1.1,0-1.7,0h-0.1c-0.3,0-0.6-0.1-0.7-0.3C495,73,494.8,72.7,494.8,72.4z
			 M501.3,58.9l-1.8,1.8l-1.8-1.8l1.8-1.8L501.3,58.9z M501.9,65.4c-0.1,0-0.4,0.1-0.7,0.3c-0.3,0.1-0.4,0.3-0.7,0.6
			c-0.1,0.3-0.4,0.6-0.4,1s-0.1,0.8-0.1,1.3c0,0.3,0.1,0.7,0.4,1c0.3,0.3,0.8,0.7,1.4,1l0.1,0.1c0.4-0.1,0.7-0.4,1-0.8
			c0.3-0.3,0.4-0.7,0.4-1c0.1-0.4,0.1-0.7,0-1.1c0-0.4-0.1-0.7-0.3-1c-0.1-0.3-0.3-0.6-0.6-0.7C502.3,65.5,502,65.4,501.9,65.4z
			 M505.8,58.9l-1.8,1.8l-1.8-1.8l1.8-1.8L505.8,58.9z"/>
		<path fill="#464545" d="M506.6,72.4c0-0.1,0-0.3,0.1-0.4c0-0.1,0.1-0.3,0.3-0.3c0.1-0.1,0.1-0.1,0.3-0.3c0.1,0,0.3-0.1,0.4-0.1
			c0.4,0,0.8-0.1,1.1-0.3c0.3-0.1,0.7-0.4,1-0.7c0.3-0.3,0.6-0.6,0.7-1c0.1-0.4,0.4-0.7,0.6-1.1c0.1-0.4,0.3-0.8,0.4-1.3
			c0.1-0.4,0.1-0.8,0.3-1.1l2.1,0.4c0,0.1-0.1,0.4-0.3,0.7c-0.1,0.3-0.1,0.6-0.3,0.8c-0.1,0.3-0.1,0.7-0.1,1c0,0.3-0.1,0.7-0.1,1
			c0,0.1,0,0.4,0,0.6c0,0.1,0.1,0.4,0.1,0.6s0.1,0.3,0.4,0.3c0.1,0.1,0.3,0.1,0.6,0.1c0.4,0,0.7-0.1,1-0.3c0.3-0.1,0.6-0.4,0.8-0.8
			c0.3-0.3,0.4-0.7,0.6-1.1c0.1-0.4,0.3-0.8,0.4-1.3c0.1-0.4,0.3-0.8,0.3-1.3c0.1-0.4,0.1-0.7,0.1-1.1l2.1,0.4
			c-0.1,0.4-0.1,0.8-0.1,1.3c0,0.4-0.1,0.7-0.1,1.1c0,0.4,0,0.7,0,1c0,0.3,0,0.6,0,0.8s0.1,0.4,0.1,0.7c0.1,0.1,0.3,0.3,0.4,0.4
			s0.3,0.1,0.6,0.3c0.3,0,0.6,0,0.8,0c0.3,0,0.4-0.1,0.6-0.1c0.1-0.1,0.3-0.1,0.3-0.3c0-0.1,0.1-0.1,0.1-0.1l0,0
			c0.1-0.1,0.1-0.3,0.3-0.6c0-0.1,0-0.4,0-0.7c0-0.4,0-0.8-0.1-1.4c-0.1-0.4-0.3-1-0.4-1.4c-0.1-0.4-0.3-0.8-0.6-1.3
			c-0.3-0.4-0.3-0.7-0.4-1l2-1c0,0.1,0.1,0.3,0.1,0.4c0,0.1,0.3,0.4,0.4,0.7c0.1,0.3,0.3,0.7,0.4,1c0.1,0.3,0.3,0.8,0.4,1.3
			c0.1,0.4,0.3,0.8,0.3,1.3c0.1,0.4,0.1,0.8,0.1,1.3c0,0.6-0.1,1.3-0.3,1.7c-0.1,0.6-0.4,1-0.8,1.3s-0.8,0.7-1.3,0.8
			c-0.6,0.1-1.1,0.3-1.8,0.3c-0.3,0-0.6,0-0.8-0.1c-0.3-0.1-0.6-0.1-0.8-0.4c-0.3-0.1-0.6-0.3-0.7-0.6c-0.3-0.1-0.4-0.4-0.6-0.7
			c-0.4,0.6-1,1-1.5,1.3c-0.6,0.3-1.1,0.4-1.8,0.4c-0.3,0-0.6,0-0.8-0.1c-0.3-0.1-0.6-0.1-0.8-0.3s-0.6-0.3-0.7-0.6
			c-0.3-0.1-0.4-0.4-0.6-0.7c-0.4,0.4-1,0.8-1.5,1.1c-0.6,0.3-1.3,0.4-2,0.4h-0.1c-0.1,0-0.3,0-0.4-0.1c-0.1-0.1-0.3-0.1-0.3-0.3
			c-0.1-0.1-0.1-0.1-0.3-0.3C506.6,72.7,506.6,72.5,506.6,72.4z"/>
	</g>
</g>
</svg>
