<?xml version="1.0" encoding="utf-8"?>
<!-- Generator: Adobe Illustrator 18.0.0, SVG Export Plug-In . SVG Version: 6.00 Build 0)  -->
<!DOCTYPE svg PUBLIC "-//W3C//DTD SVG 1.1//EN" "http://www.w3.org/Graphics/SVG/1.1/DTD/svg11.dtd">
<svg version="1.1" id="Layer_1" xmlns="http://www.w3.org/2000/svg" xmlns:xlink="http://www.w3.org/1999/xlink" x="0px" y="0px"
	 width="203px" height="194px" viewBox="0 0 540 518.3" enable-background="new 0 0 540 518.3" xml:space="preserve">
<g>
	<line fill="none" stroke="#464545" stroke-width="3" x1="87.7" y1="19.5" x2="41.3" y2="19.5"/>
	<g>
		<g>
			<line fill="none" stroke="#464545" stroke-width="3" x1="64.5" y1="34.2" x2="64.5" y2="497.6"/>
			<g>
				<polygon fill="#464545" points="55.5,36.8 64.5,21.3 73.5,36.8 				"/>
			</g>
			<g>
				<polygon fill="#464545" points="55.5,495 64.5,510.5 73.5,495 				"/>
			</g>
		</g>
	</g>
</g>
<line fill="none" stroke="#464545" stroke-width="2.9679" x1="0" y1="513.5" x2="460" y2="513.5"/>
<g>
	<path fill="#464545" d="M484.1,516.5v-12h7.9v1.3h-6.4v3.9h6.2v1.3h-6.2v5.5H484.1z"/>
	<path fill="#464545" d="M493.8,516.5v-12h1.5v10.7h5.6v1.3H493.8z"/>
	<path fill="#464545" d="M503.2,513.7c-0.5-0.9-0.7-2-0.7-3.2s0.2-2.2,0.7-3.2s1.2-1.7,2.1-2.2c0.9-0.5,1.9-0.8,3.1-0.8
		c1.2,0,2.2,0.3,3.1,0.8c0.9,0.5,1.6,1.3,2.1,2.2s0.7,2,0.7,3.2s-0.2,2.2-0.7,3.2s-1.2,1.7-2.1,2.2c-0.9,0.5-2,0.8-3.1,0.8
		c-1.2,0-2.2-0.3-3.1-0.8C504.4,515.4,503.7,514.6,503.2,513.7z M504,510.5c0,0.9,0.2,1.8,0.5,2.5c0.4,0.7,0.9,1.3,1.5,1.7
		c0.7,0.4,1.5,0.6,2.3,0.6c0.9,0,1.7-0.2,2.3-0.6c0.7-0.4,1.2-1,1.6-1.7c0.4-0.7,0.5-1.6,0.5-2.5c0-1.4-0.4-2.6-1.2-3.5
		c-0.8-0.9-1.9-1.4-3.2-1.4c-1.3,0-2.4,0.5-3.2,1.4C504.4,507.9,504,509.1,504,510.5z"/>
	<path fill="#464545" d="M516.9,513.7c-0.5-0.9-0.7-2-0.7-3.2s0.2-2.2,0.7-3.2s1.2-1.7,2.1-2.2c0.9-0.5,1.9-0.8,3.1-0.8
		c1.2,0,2.2,0.3,3.1,0.8c0.9,0.5,1.6,1.3,2.1,2.2s0.7,2,0.7,3.2s-0.2,2.2-0.7,3.2s-1.2,1.7-2.1,2.2c-0.9,0.5-2,0.8-3.1,0.8
		c-1.2,0-2.2-0.3-3.1-0.8C518.1,515.4,517.4,514.6,516.9,513.7z M517.7,510.5c0,0.9,0.2,1.8,0.5,2.5c0.4,0.7,0.9,1.3,1.5,1.7
		c0.7,0.4,1.5,0.6,2.3,0.6c0.9,0,1.7-0.2,2.3-0.6c0.7-0.4,1.2-1,1.6-1.7c0.4-0.7,0.5-1.6,0.5-2.5c0-1.4-0.4-2.6-1.2-3.5
		c-0.8-0.9-1.9-1.4-3.2-1.4c-1.3,0-2.4,0.5-3.2,1.4C518.1,507.9,517.7,509.1,517.7,510.5z"/>
	<path fill="#464545" d="M530.4,516.5v-12h4.8c1.1,0,2,0.3,2.7,1c0.7,0.7,1.1,1.5,1.1,2.6c0,0.5-0.1,1-0.3,1.4s-0.4,0.8-0.7,1.1
		s-0.6,0.5-1,0.7s-0.8,0.3-1.2,0.3l3.2,4.9h-1.8l-3-4.7h-2.4v4.7H530.4z M531.9,510.4h3.1c0.7,0,1.3-0.2,1.7-0.6s0.7-1,0.7-1.7
		s-0.2-1.2-0.7-1.7s-1-0.6-1.7-0.6h-3.1V510.4z"/>
</g>
<g>
	<rect x="89.9" y="19.5" fill="none" stroke="#616261" stroke-width="3" stroke-miterlimit="10" width="280.2" height="389"/>
	<rect x="113" y="42.6" fill="none" stroke="#616261" stroke-width="3" stroke-miterlimit="10" width="234" height="342.8"/>
</g>
</svg>
