<?xml version="1.0" encoding="utf-8"?>
<!-- Generator: Adobe Illustrator 18.0.0, SVG Export Plug-In . SVG Version: 6.00 Build 0)  -->
<!DOCTYPE svg PUBLIC "-//W3C//DTD SVG 1.1//EN" "http://www.w3.org/Graphics/SVG/1.1/DTD/svg11.dtd">
<svg version="1.1" id="Layer_1" xmlns="http://www.w3.org/2000/svg" xmlns:xlink="http://www.w3.org/1999/xlink" x="0px" y="0px"
	 width="209px" height="244px" viewBox="0 0 557 650" enable-background="new 0 0 557 650" xml:space="preserve">
	 <defs>
		<style>
			@font-face {
			font-family: "proximanova-nova";

			src: url('https://doopsalta2.com/Fonts/proxima-nova-three.woff2') format('woff2'),
				url('https://doopsalta2.com/Fonts/proxima-nova-three.woff') format('woff'),
				url('https://doopsalta2.com/Fonts/proxima-nova-three.otf') format('opentype');
			font-style: normal;
			}
		</style>
	</defs>
<g>
	
		<polygon opacity="0.8" fill="#B2B2B2" stroke="#717070" stroke-width="0.6174" stroke-miterlimit="10" enable-background="new    " points="
		452.5,111.4 462,101.8 2.3,101.8 11.2,111.4 451.2,111.4 	"/>
	<rect x="2" y="69.7" fill="#C6C6C6" stroke="#717070" stroke-width="0.5848" stroke-miterlimit="10" width="460" height="32.1"/>
</g>
<g>
	<g>
		<path fill="#464545" d="M142.3,23.8c0-2,0-3.9-0.1-5.9s-0.3-3.7-0.5-5.6c-0.3-1.7-0.5-3.5-1.1-4.9c-0.4-1.6-1.1-2.9-1.9-4.1
			l2.5-1.6c0.8,1.3,1.5,2.8,2,4.5s0.9,3.7,1.2,5.9c0.1,0.9,0.3,1.9,0.3,2.9c0.1,1.1,0.1,2,0.1,3.1s0.1,2,0.1,2.9s0,1.9,0,2.8
			C144.9,23.8,142.3,23.8,142.3,23.8z"/>
	</g>
</g>
<g>
	<g>
		<path fill="#464545" d="M239,1.4c0,0,0,0.1,0,0.3s0,0.4,0.1,0.7c0,0.3,0,0.7,0.1,0.9c0,0.4,0,0.8,0,1.2c0,2.3-0.5,4.1-1.6,5.3l0,0
			c-0.5,0.7-1.1,1.1-1.9,1.3c-0.7,0.3-1.5,0.5-2.4,0.5c-0.5,0-0.9,0-1.3-0.1c-0.4,0-0.8-0.1-1.2-0.3c0,0.1,0,0.3,0,0.4
			c0,0.1,0,0.3,0,0.4c0.1,0.9,0.3,1.9,0.3,2.9c0.1,1.1,0.1,2,0.1,2.9c0,1.1,0.1,2,0.1,2.9s0,1.9,0,2.8h-2.9c0-1.6,0-3.2,0-4.8
			s-0.1-3.1-0.3-4.7c-0.1-1.5-0.3-2.9-0.5-4.3S226.9,7,226.5,6c-0.3-0.5-0.4-1.1-0.7-1.6s-0.5-1.1-0.8-1.5l2.5-1.6
			c0.1,0.3,0.3,0.5,0.4,0.8c0.1,0.3,0.3,0.5,0.4,0.8c0.1,0.3,0.3,0.5,0.4,0.9c0.1,0.4,0.3,0.7,0.5,1.1c0.3,0.5,0.4,1.1,0.7,1.5
			s0.5,0.8,0.8,1.1c0.3,0.3,0.7,0.5,1.1,0.7c0.4,0.1,0.8,0.3,1.5,0.3c0.4,0,0.8,0,1.1-0.1s0.5-0.3,0.8-0.5c0.1-0.3,0.4-0.5,0.5-0.8
			s0.3-0.7,0.3-0.9c0.1-0.3,0.1-0.7,0.1-1.1s0-0.7,0-1.1s0-0.8-0.1-1.2c0-0.4-0.1-0.7-0.1-0.9L239,1.4z"/>
	</g>
</g>
<g>
	<path fill="#464545" d="M332.3,1.2c0.1,0.8,0.3,1.6,0.4,2.4c0.1,0.7,0.1,1.5,0.1,2c0,1.9-0.4,3.3-1.2,4.4c-0.4,0.4-0.8,0.8-1.3,1.1
		s-1.1,0.4-1.7,0.4c-0.3,0-0.5,0-0.8-0.1c-0.3,0-0.5-0.1-0.8-0.3c-0.3-0.1-0.5-0.3-0.8-0.5c-0.3-0.3-0.5-0.5-0.8-0.9l-0.3,0.4
		c-0.5,0.5-1.1,0.9-1.6,1.2s-1.2,0.4-2,0.4c-0.4,0-0.7,0-0.9-0.1c-0.3,0-0.5-0.1-0.9-0.3c0,0.1,0,0.3,0,0.4c0,0.1,0,0.3,0,0.4
		c0.1,0.9,0.3,2,0.3,2.9s0.1,2,0.1,2.9s0.1,2,0.1,2.9s0,1.9,0,2.8h-2.9c0-0.4,0-0.8,0-1.3c0-0.4,0-0.9,0-1.3c0-1.5,0-2.9-0.1-4.3
		c-0.1-1.3-0.3-2.8-0.4-4c-0.1-1.3-0.4-2.5-0.8-3.7c-0.3-1.2-0.7-2.3-1.1-3.3c0,0,0-0.1-0.1-0.3V5.2c-0.1-0.4-0.4-0.8-0.5-1.2
		s-0.4-0.8-0.7-1.1l2.7-1.6c0.1,0.1,0.1,0.3,0.3,0.4c0.1,0.1,0.1,0.4,0.3,0.5c0.1,0.3,0.3,0.4,0.3,0.7c0.1,0.3,0.3,0.4,0.3,0.7
		c0.3,0.5,0.5,0.9,0.7,1.5c0.3,0.7,0.5,1.2,0.7,1.6c0.1,0.4,0.4,0.8,0.7,1.1c0.3,0.3,0.5,0.4,0.8,0.5s0.7,0.1,1.1,0.1
		c0.3,0,0.5,0,0.8-0.1s0.4-0.3,0.5-0.5c0.3-0.3,0.5-0.8,0.7-1.3c0.1-0.7,0.3-1.3,0.3-2.1c0-0.1,0-0.3,0-0.5c0-0.3,0-0.5,0-0.8
		s0-0.5,0-0.8s0-0.4,0-0.5l2.9-0.4v0.1v0.1c0,0.1,0,0.3,0.1,0.5c0,0.3,0,0.5,0.1,0.8c0,0.7,0.1,1.2,0.3,2c0.1,0.7,0.3,1.3,0.4,1.9
		c0.1,0.4,0.3,0.7,0.4,0.8c0.1,0.3,0.3,0.4,0.4,0.4c0.1,0.1,0.3,0.1,0.3,0.1c0.1,0,0.1,0,0.3,0c0.3,0,0.4,0,0.5-0.1
		c0.1,0,0.1-0.1,0.3-0.3c0,0,0.1-0.1,0.1-0.3c0-0.1,0.1-0.3,0.1-0.5c0-0.1,0.1-0.4,0.1-0.7c0-0.3,0-0.7,0-1.1s0-0.9-0.1-1.6
		s-0.1-1.3-0.4-2.3H332.3z"/>
</g>
<g>
	<g>
		<rect x="91.9" y="176.7" fill="none" stroke="#616261" stroke-width="3" stroke-miterlimit="10" width="280.2" height="389"/>
		<rect x="115" y="199.8" fill="none" stroke="#616261" stroke-width="3" stroke-miterlimit="10" width="234" height="342.8"/>
	</g>
	<g>
		<g>
			<line fill="none" stroke="#464545" stroke-width="3" x1="323.2" y1="82.6" x2="323.2" y2="552.8"/>
			<g>
				<polygon fill="#464545" points="314.2,85.2 323.2,69.7 332.2,85.2 				"/>
			</g>
			<g>
				<polygon fill="#464545" points="314.2,550.1 323.2,565.7 332.2,550.1 				"/>
			</g>
		</g>
	</g>
	<g>
		<g>
			<line fill="none" stroke="#464545" stroke-width="3" x1="232" y1="82.6" x2="232" y2="552.8"/>
			<g>
				<polygon fill="#464545" points="223,85.2 232,69.7 241,85.2 				"/>
			</g>
			<g>
				<polygon fill="#464545" points="223,550.1 232,565.7 241,550.1 				"/>
			</g>
		</g>
	</g>
	<g>
		<g>
			<line fill="none" stroke="#464545" stroke-width="3" x1="141.8" y1="82.6" x2="141.8" y2="552.8"/>
			<g>
				<polygon fill="#464545" points="132.9,85.2 141.8,69.7 150.8,85.2 				"/>
			</g>
			<g>
				<polygon fill="#464545" points="132.9,550.1 141.8,565.7 150.8,550.1 				"/>
			</g>
		</g>
	</g>
</g>
<line fill="none" stroke="#464545" stroke-width="2.9678" x1="2" y1="635.1" x2="462" y2="635.1"/>
<g>
	<g>
		<path fill="#464545" d="M483.9,640.6c-0.1,0-0.4,0-0.6,0c-0.1,0-0.4,0-0.6,0c-0.9,0-1.6-0.3-2.1-0.4c-0.6-0.1-1.1-0.6-1.4-1.1
			c-0.7-0.9-0.9-2-0.7-3.2c0.1-0.6,0.3-1.1,0.4-1.7c0.1-0.6,0.4-1,0.9-1.4s0.7-0.9,1.2-1.1c0.4-0.3,0.9-0.4,1.4-0.4s1,0.1,1.6,0.4
			c0.4,0.3,1,0.6,1.4,1.1c0.4,0.4,0.7,0.9,1,1.4c0.3,0.6,0.6,1.1,0.7,1.7c0.1,0.6,0.3,1.2,0.4,2c0,0.7,0,1.2,0,2l0,0
			c0,0,0,0.1,0,0.4s0,0.6-0.1,0.9c-0.1,0.4-0.1,0.7-0.3,1.2c-0.1,0.4-0.3,1-0.6,1.4c-0.3,0.6-0.7,1.1-1,1.6
			c-0.4,0.4-0.9,0.9-1.2,1.1c-0.6,0.4-1.2,0.7-2,1c-0.7,0.1-1.6,0.3-2.3,0.3l0,0c-1.4,0-2.7-0.3-3.8-0.9c-0.6-0.3-1.1-0.7-1.6-1
			c-0.4-0.4-0.9-0.9-1.1-1.4c-0.4-0.6-0.7-1.2-0.9-2.1c-0.1-0.7-0.3-1.6-0.1-2.3c0-0.9,0.3-1.7,0.6-2.7c0.3-0.9,0.7-1.8,1.1-2.7l2,1
			c-0.4,0.7-0.7,1.6-1,2.2s-0.4,1.4-0.4,2.1c0,0.7,0,1.2,0,1.8c0,0.6,0.3,1.1,0.6,1.6c0.4,0.7,1,1.2,1.8,1.7
			c0.9,0.4,1.7,0.6,2.8,0.6l0,0c0.7,0,1.4,0,2.1-0.3c0.6-0.3,1.1-0.6,1.7-1.1c0.4-0.4,0.9-1,1.1-1.6c0.3-0.6,0.6-1.2,0.7-1.8
			c-0.1,0-0.3,0-0.6,0C484.8,640.8,484.2,640.6,483.9,640.6z M481.6,627.7l-1.8,1.8l-1.8-1.8l1.8-1.8L481.6,627.7z M482.3,633.5
			c-0.3,0-0.6,0.1-0.9,0.6c-0.3,0.3-0.4,0.6-0.6,1c-0.1,0.4-0.3,0.7-0.3,1.1c-0.1,0.7,0,1.1,0.3,1.6c0.1,0.1,0.3,0.3,0.4,0.4
			c0.1,0.1,0.3,0.1,0.6,0.3c0.1,0,0.4,0.1,0.6,0.1c0.1,0,0.3,0,0.4,0c0.4,0,0.9,0,1.2,0c0.3,0,0.7,0,1,0c0-0.4-0.1-0.9-0.1-1.2
			c-0.1-0.4-0.1-0.9-0.3-1.1c-0.1-0.4-0.3-0.7-0.4-1c-0.1-0.3-0.3-0.6-0.6-0.7c-0.1-0.1-0.3-0.3-0.6-0.4
			C482.9,633.6,482.6,633.5,482.3,633.5z M486.1,627.7l-1.8,1.8l-1.8-1.8l1.8-1.8L486.1,627.7z"/>
		<path fill="#464545" d="M495.3,640.6c-0.9,0-1.6-0.1-2.1-0.3c-0.6-0.1-1.1-0.4-1.4-0.9c-0.3-0.3-0.4-0.6-0.6-0.9
			c-0.1-0.3-0.3-0.6-0.3-0.9c0-0.3-0.1-0.6-0.1-0.9c0-0.3,0-0.4,0-0.7v-0.1c0,0,0-0.1,0-0.4c0-0.3,0-0.6,0-1.1c0-0.4,0-1,0-1.6
			c0-0.6,0-1.1,0-1.8c0-0.6,0-1.2,0-2c0-0.7,0-1.4,0-2c0-0.7,0-1.2-0.1-1.8c0-0.6-0.1-1-0.1-1.2l2.1-0.4c0,0.4,0.1,0.9,0.1,1.4
			c0,0.6,0.1,1.1,0.1,1.8s0,1.2,0.1,2c0,0.7,0,1.4,0,2c0,0.7,0,1.2,0,1.8c0,0.6,0,1.1,0,1.6c0,0.4,0,0.9,0,1.1c0,0.3,0,0.4,0,0.6
			v0.1c0,0.3,0,0.6,0,0.9c0,0.3,0.1,0.4,0.3,0.6c0.3,0.3,1,0.6,1.8,0.6h0.1c0.1,0,0.3,0,0.4,0.1c0.1,0,0.3,0.1,0.3,0.3
			c0.1,0.1,0.1,0.3,0.3,0.3c0,0.1,0.1,0.3,0.1,0.4c0,0.3-0.1,0.6-0.3,0.7C495.9,640.5,495.7,640.6,495.3,640.6z"/>
		<path fill="#464545" d="M493.9,639.5c0-0.3,0.1-0.6,0.3-0.7c0.1-0.1,0.4-0.3,0.7-0.3h1.2c0.3,0,0.6,0,0.9,0s0.6,0,0.9,0
			s0.6-0.1,0.9-0.1c0.3,0,0.6-0.1,0.9-0.3c0.3-0.1,0.4-0.3,0.7-0.4c0.1-0.1,0.3-0.3,0.4-0.6c0.1-0.3,0.1-0.7,0.1-1.4
			c0-0.7-0.1-1.2-0.4-2.1c-0.1-0.3-0.1-0.4-0.3-0.7c-0.1-0.3-0.1-0.6-0.3-0.7c-0.1-0.3-0.3-0.6-0.4-0.9l2-1c0,0,0,0.1,0.1,0.3
			c0,0.1,0.1,0.3,0.3,0.6c0.1,0.3,0.3,0.6,0.3,0.9c0.1,0.3,0.3,0.7,0.4,1c0.7,2.1,0.7,3.8,0.3,4.9c-0.6,1.1-1.4,2-2.8,2.3
			c-0.1,0-0.4,0.1-0.7,0.1s-0.6,0-1,0.1c-0.4,0.1-0.6,0-1,0c-0.3,0-0.6,0-0.7,0h-1.6l0,0c-0.3,0-0.6-0.1-0.7-0.3
			C494,640.1,493.9,639.9,493.9,639.5z M499.6,627l-1.8,1.8L496,627l1.8-1.8L499.6,627z M504.1,627l-1.8,1.8l-1.8-1.8l1.8-1.8
			L504.1,627z"/>
		<path fill="#464545" d="M508.3,623.2c0.3,2.9,0.6,5.6,0.6,8c0.1,3.9,0,7-0.1,9.4l-2.1-0.1c0.3-3.2,0.3-6,0.3-8.1
			c-0.1-3.5-0.3-6.5-0.6-8.8L508.3,623.2z"/>
		<path fill="#464545" d="M538.3,637.9C538.2,637.9,538.2,638.2,538.3,637.9c-0.1,0.1-0.1,0.1-0.3,0.3c0.4,0.1,0.9,0.1,1.4,0.1
			c0.4,0,1,0.1,1.4,0.1c0.3,0,0.6,0.1,0.7,0.3c0.3,0.1,0.3,0.4,0.3,0.7c0,0.1,0,0.3-0.1,0.4c0,0.1-0.1,0.3-0.3,0.3
			c-0.1,0.1-0.3,0.1-0.3,0.3c-0.1,0-0.3,0.1-0.4,0.1c-1,0-1.8,0-2.7-0.1c-0.9-0.1-1.7-0.3-2.3-0.6c-0.1,0-0.3,0.1-0.3,0.1
			s-0.1,0.1-0.3,0.1c-0.4,0.1-0.9,0.3-1.2,0.4c-0.6,0.1-1.1,0.1-1.7,0.3c-0.6,0-1.2,0.1-1.8,0.1c-0.6,0-1.2,0-2,0
			c-2.2,0-4.1-0.3-5.6-0.9c-1.6-0.6-2.6-1.4-3.2-2.6c-0.3-0.4-0.6-1-0.6-1.6c-0.1-0.6-0.1-1-0.1-1.6c0-0.4,0.1-1,0.1-1.4
			c0.1-0.4,0.1-0.9,0.3-1.1c0.1-0.3,0.3-0.6,0.3-0.9c0-0.3,0.1-0.3,0.1-0.3l2,1c0,0,0,0.1-0.1,0.3c-0.1,0.1-0.1,0.3-0.3,0.6
			c-0.1,0.3-0.1,0.6-0.3,0.9c-0.1,0.3-0.1,0.6-0.1,1c0,0.3,0,0.7,0,1c0,0.3,0.1,0.7,0.4,1c0.3,0.4,0.6,0.7,0.9,1
			c0.3,0.3,0.9,0.6,1.2,0.7c0.6,0.1,1.1,0.3,1.8,0.4c0.7,0.1,1.6,0.1,2.3,0.1c0.7,0,1.2,0,1.8,0c0.6,0,1,0,1.4,0
			c0.4,0,0.9-0.1,1.1-0.1c0.3,0,0.7-0.1,1-0.1c-1-0.9-1.6-1.8-1.6-2.9c0-0.7,0.1-1.2,0.3-2c0.1-0.6,0.6-1.1,0.9-1.7
			c0.4-0.4,0.9-0.9,1.4-1.1c0.6-0.3,1-0.4,1.6-0.4c0.6,0,1,0.1,1.4,0.3c0.4,0.1,0.9,0.4,1.1,0.9c0.1,0.1,0.3,0.3,0.4,0.6
			c0.1,0.3,0.3,0.4,0.4,0.7c0.1,0.3,0.1,0.6,0.3,1c0,0.3,0.1,0.7,0.1,1.1C539.2,636,538.9,637.2,538.3,637.9z M535.6,637.6
			c0.3-0.1,0.6-0.4,0.7-0.6c0.1-0.1,0.3-0.4,0.4-0.7c0.1-0.3,0.1-0.4,0.1-0.7c0-0.3,0-0.6,0-0.7c0-0.6,0-1-0.1-1.2
			c-0.1-0.3-0.3-0.6-0.4-0.7c-0.1-0.1-0.3-0.3-0.6-0.3c-0.3,0-0.3,0-0.4,0c-0.1,0-0.4,0-0.7,0.1c-0.3,0.1-0.4,0.3-0.7,0.6
			c-0.3,0.3-0.4,0.6-0.4,1c0,0.4-0.1,0.9-0.1,1.2c0,0.3,0.1,0.7,0.4,1c0.3,0.3,0.9,0.7,1.4,1h0.3V637.6z M537.3,626l-1.8,1.8
			l-1.8-1.8l1.8-1.8L537.3,626z"/>
		<path fill="#464545" d="M539.8,639.5c0-0.3,0.1-0.6,0.3-0.9c0.3-0.1,0.6-0.3,0.9-0.3h1.1c0.4,0,0.9,0,1.4,0c0.4,0,1,0,1.4-0.1
			s0.9-0.1,1.1-0.4c0.4-0.1,0.7-0.4,0.9-0.7c0.3-0.4,0.4-0.7,0.4-1.2c0-0.4,0-0.9-0.1-1.4c-0.1-0.3-0.3-0.7-0.6-1.1
			c-0.3-0.4-0.7-1-1.1-1.6c-0.4-0.6-1-1.1-1.6-1.7c-0.6-0.6-1.1-1.1-1.8-1.6l0.3-2.2l9-3.9l0.9,2l-7.9,3.3c0.4,0.3,0.7,0.7,1.1,1
			c0.4,0.4,0.9,0.9,1.2,1.2c0.6,0.6,1,1.2,1.4,1.8c0.4,0.6,0.7,1.1,0.9,1.6c0.1,0.6,0.3,1,0.4,1.4c0.1,0.4,0.1,0.9,0,1.2
			c0,0.4-0.1,0.7-0.3,1.1c-0.1,0.3-0.3,0.7-0.4,1c-0.7,1.1-1.7,1.8-3.3,2.1c-0.3,0-0.6,0.1-1,0.1h-3.5c-0.4,0-0.7-0.1-0.9-0.3
			C539.8,640.1,539.8,639.9,539.8,639.5z"/>
	</g>
</g>
</svg>
