<?xml version="1.0" encoding="utf-8"?>
<!-- Generator: Adobe Illustrator 18.0.0, SVG Export Plug-In . SVG Version: 6.00 Build 0)  -->
<!DOCTYPE svg PUBLIC "-//W3C//DTD SVG 1.1//EN" "http://www.w3.org/Graphics/SVG/1.1/DTD/svg11.dtd">
<svg version="1.1" id="Layer_1" xmlns="http://www.w3.org/2000/svg" xmlns:xlink="http://www.w3.org/1999/xlink" x="0px" y="0px"
	 width="203px" height="244px" viewBox="0 0 540 650" enable-background="new 0 0 540 650" xml:space="preserve">
<g>
	
		<polygon opacity="0.8" fill="#B2B2B2" stroke="#717070" stroke-width="0.6174" stroke-miterlimit="10" enable-background="new    " points="
		450.5,111.4 460,101.8 0.3,101.8 9.2,111.4 449.2,111.4 	"/>
	
		<rect x="0" y="69.7" fill="#C6C6C6" stroke="#717070" stroke-width="0.5848" stroke-miterlimit="10" enable-background="new    " width="460" height="32.1"/>
</g>
<line fill="none" stroke="#464545" stroke-width="2.9678" x1="0" y1="645.2" x2="460" y2="645.2"/>
<g>
	<path fill="#464545" d="M479.6,648.2v-12h7.9v1.3h-6.4v3.9h6.2v1.3h-6.2v5.5H479.6z"/>
	<path fill="#464545" d="M489.3,648.2v-12h1.5v10.7h5.6v1.3H489.3z"/>
	<path fill="#464545" d="M498.6,645.4c-0.5-0.9-0.7-2-0.7-3.2s0.2-2.2,0.7-3.2s1.2-1.7,2.1-2.2s1.9-0.8,3.1-0.8s2.2,0.3,3.1,0.8
		c0.9,0.5,1.6,1.3,2.1,2.2c0.5,0.9,0.7,2,0.7,3.2s-0.2,2.2-0.7,3.2c-0.5,0.9-1.2,1.7-2.1,2.2c-0.9,0.5-2,0.8-3.1,0.8
		s-2.2-0.3-3.1-0.8C499.8,647.1,499.1,646.3,498.6,645.4z M499.4,642.2c0,0.9,0.2,1.8,0.5,2.5c0.4,0.7,0.9,1.3,1.5,1.7
		c0.7,0.4,1.5,0.6,2.3,0.6s1.7-0.2,2.3-0.6c0.7-0.4,1.2-1,1.6-1.7c0.4-0.7,0.5-1.6,0.5-2.5c0-1.4-0.4-2.6-1.2-3.5
		c-0.8-0.9-1.9-1.4-3.2-1.4c-1.3,0-2.4,0.5-3.2,1.4S499.4,640.8,499.4,642.2z"/>
	<path fill="#464545" d="M512.4,645.4c-0.5-0.9-0.7-2-0.7-3.2s0.2-2.2,0.7-3.2s1.2-1.7,2.1-2.2s1.9-0.8,3.1-0.8s2.2,0.3,3.1,0.8
		c0.9,0.5,1.6,1.3,2.1,2.2c0.5,0.9,0.7,2,0.7,3.2s-0.2,2.2-0.7,3.2c-0.5,0.9-1.2,1.7-2.1,2.2c-0.9,0.5-2,0.8-3.1,0.8
		s-2.2-0.3-3.1-0.8C513.6,647.1,512.9,646.3,512.4,645.4z M513.2,642.2c0,0.9,0.2,1.8,0.5,2.5c0.4,0.7,0.9,1.3,1.5,1.7
		c0.7,0.4,1.5,0.6,2.3,0.6s1.7-0.2,2.3-0.6c0.7-0.4,1.2-1,1.6-1.7c0.4-0.7,0.5-1.6,0.5-2.5c0-1.4-0.4-2.6-1.2-3.5
		c-0.8-0.9-1.9-1.4-3.2-1.4c-1.3,0-2.4,0.5-3.2,1.4S513.2,640.8,513.2,642.2z"/>
	<path fill="#464545" d="M525.9,648.2v-12h4.8c1.1,0,2,0.3,2.7,1c0.7,0.7,1.1,1.5,1.1,2.6c0,0.5-0.1,1-0.3,1.4s-0.4,0.8-0.7,1.1
		s-0.6,0.5-1,0.7s-0.8,0.3-1.2,0.3l3.2,4.9h-1.8l-3-4.7h-2.4v4.7H525.9z M527.4,642.1h3.1c0.7,0,1.3-0.2,1.7-0.6s0.7-1,0.7-1.7
		s-0.2-1.2-0.7-1.7s-1-0.6-1.7-0.6h-3.1V642.1z"/>
</g>
<g>
	<text transform="matrix(1 0 0 1 131.9526 18.692)" fill="#464545" font-family="'ProximaNova-Regular'" font-size="24">A</text>
	<text transform="matrix(1 0 0 1 222.4533 18.692)" fill="#464545" font-family="'ProximaNova-Regular'" font-size="24">B</text>
	<text transform="matrix(1 0 0 1 313.097 18.692)" fill="#464545" font-family="'ProximaNova-Regular'" font-size="24">C</text>
	<g>
		<rect x="89.9" y="176.7" fill="none" stroke="#616261" stroke-width="3" stroke-miterlimit="10" width="280.2" height="389"/>
		<rect x="113" y="199.8" fill="none" stroke="#616261" stroke-width="3" stroke-miterlimit="10" width="234" height="342.8"/>
	</g>
	<g>
		<g>
			<g>
				<line fill="none" stroke="#464545" stroke-width="3" x1="320.7" y1="82.6" x2="320.7" y2="632.3"/>
				<g>
					<polygon fill="#464545" points="311.7,85.2 320.7,69.7 329.7,85.2 					"/>
				</g>
				<g>
					<polygon fill="#464545" points="311.7,629.6 320.7,645.2 329.7,629.6 					"/>
				</g>
			</g>
		</g>
		<g>
			<g>
				<line fill="none" stroke="#464545" stroke-width="3" x1="229.5" y1="82.6" x2="229.5" y2="632.3"/>
				<g>
					<polygon fill="#464545" points="220.5,85.2 229.5,69.7 238.4,85.2 					"/>
				</g>
				<g>
					<polygon fill="#464545" points="220.5,629.6 229.5,645.2 238.4,629.6 					"/>
				</g>
			</g>
		</g>
		<g>
			<g>
				<line fill="none" stroke="#464545" stroke-width="3" x1="139.3" y1="82.6" x2="139.3" y2="632.3"/>
				<g>
					<polygon fill="#464545" points="130.3,85.2 139.3,69.7 148.3,85.2 					"/>
				</g>
				<g>
					<polygon fill="#464545" points="130.3,629.6 139.3,645.2 148.3,629.6 					"/>
				</g>
			</g>
		</g>
	</g>
</g>
</svg>
