<?xml version="1.0" encoding="utf-8"?>
<!-- Generator: Adobe Illustrator 18.0.0, SVG Export Plug-In . SVG Version: 6.00 Build 0)  -->
<!DOCTYPE svg PUBLIC "-//W3C//DTD SVG 1.1//EN" "http://www.w3.org/Graphics/SVG/1.1/DTD/svg11.dtd">
<svg version="1.1" id="Layer_1" xmlns="http://www.w3.org/2000/svg" xmlns:xlink="http://www.w3.org/1999/xlink" x="0px" y="0px"
	 width="176px" height="243px" viewBox="0 0 470.6 648.7" enable-background="new 0 0 470.6 648.7" xml:space="preserve">
<g>
	<rect x="79.9" y="176.7" fill="none" stroke="#616261" stroke-width="3" stroke-miterlimit="10" width="280.2" height="389"/>
	<rect x="103" y="199.8" fill="none" stroke="#616261" stroke-width="3" stroke-miterlimit="10" width="234" height="342.8"/>
</g>
<g>
	
		<polygon opacity="0.8" fill="#B2B2B2" stroke="#717070" stroke-width="0.6262" stroke-miterlimit="10" enable-background="new    " points="
		459.2,111.4 469,101.8 0.3,101.8 9.4,111.4 457.9,111.4 	"/>
	
		<rect x="0" y="69.7" fill="#C6C6C6" stroke="#717070" stroke-width="0.5931" stroke-miterlimit="10" enable-background="new    " width="469" height="32.1"/>
</g>
<text transform="matrix(1 0 0 1 121.9528 18.692)" fill="#464545" font-family="'ProximaNova-Regular'" font-size="24">A</text>
<text transform="matrix(1 0 0 1 212.4535 18.692)" fill="#464545" font-family="'ProximaNova-Regular'" font-size="24">B</text>
<text transform="matrix(1 0 0 1 303.0972 18.692)" fill="#464545" font-family="'ProximaNova-Regular'" font-size="24">C</text>
<g>
	<g>
		<line fill="none" stroke="#464545" stroke-width="3" x1="311.2" y1="82.6" x2="311.2" y2="632.3"/>
		<g>
			<polygon fill="#464545" points="302.2,85.2 311.2,69.7 320.2,85.2 			"/>
		</g>
		<g>
			<polygon fill="#464545" points="302.2,629.6 311.2,645.2 320.2,629.6 			"/>
		</g>
	</g>
</g>
<g>
	<g>
		<line fill="none" stroke="#464545" stroke-width="3" x1="220" y1="82.6" x2="220" y2="632.3"/>
		<g>
			<polygon fill="#464545" points="211,85.2 220,69.7 229,85.2 			"/>
		</g>
		<g>
			<polygon fill="#464545" points="211,629.6 220,645.2 229,629.6 			"/>
		</g>
	</g>
</g>
<g>
	<g>
		<line fill="none" stroke="#464545" stroke-width="3" x1="129.8" y1="82.6" x2="129.8" y2="632.3"/>
		<g>
			<polygon fill="#464545" points="120.9,85.2 129.8,69.7 138.8,85.2 			"/>
		</g>
		<g>
			<polygon fill="#464545" points="120.9,629.6 129.8,645.2 138.8,629.6 			"/>
		</g>
	</g>
</g>
<line fill="none" stroke="#464545" stroke-width="3" x1="4" y1="645.2" x2="417.6" y2="645.2"/>
<g>
	<path fill="#464545" d="M424.6,648.2v-9.3h6.1v1h-5v3h4.9v1h-4.9v4.3H424.6z"/>
	<path fill="#464545" d="M432.1,648.2v-9.3h1.2v8.3h4.3v1H432.1z"/>
	<path fill="#464545" d="M439.4,646c-0.4-0.7-0.6-1.6-0.6-2.5s0.2-1.7,0.6-2.5c0.4-0.7,0.9-1.3,1.6-1.7c0.7-0.4,1.5-0.6,2.4-0.6
		c0.9,0,1.7,0.2,2.4,0.6c0.7,0.4,1.3,1,1.6,1.7c0.4,0.7,0.6,1.6,0.6,2.5s-0.2,1.7-0.6,2.5c-0.4,0.7-0.9,1.3-1.6,1.7
		c-0.7,0.4-1.5,0.6-2.4,0.6c-0.9,0-1.7-0.2-2.4-0.6C440.3,647.3,439.7,646.7,439.4,646z M440,643.5c0,0.7,0.1,1.4,0.4,1.9
		s0.7,1,1.2,1.4c0.5,0.3,1.1,0.5,1.8,0.5c0.7,0,1.3-0.2,1.8-0.5c0.5-0.3,0.9-0.8,1.2-1.4s0.4-1.2,0.4-1.9c0-1.1-0.3-2-1-2.7
		c-0.6-0.7-1.5-1.1-2.5-1.1c-1,0-1.9,0.4-2.5,1.1S440,642.4,440,643.5z"/>
	<path fill="#464545" d="M450.1,646c-0.4-0.7-0.6-1.6-0.6-2.5s0.2-1.7,0.6-2.5c0.4-0.7,0.9-1.3,1.6-1.7c0.7-0.4,1.5-0.6,2.4-0.6
		c0.9,0,1.7,0.2,2.4,0.6c0.7,0.4,1.3,1,1.6,1.7c0.4,0.7,0.6,1.6,0.6,2.5s-0.2,1.7-0.6,2.5c-0.4,0.7-0.9,1.3-1.6,1.7
		c-0.7,0.4-1.5,0.6-2.4,0.6c-0.9,0-1.7-0.2-2.4-0.6C451,647.3,450.4,646.7,450.1,646z M450.7,643.5c0,0.7,0.1,1.4,0.4,1.9
		s0.7,1,1.2,1.4c0.5,0.3,1.1,0.5,1.8,0.5c0.7,0,1.3-0.2,1.8-0.5c0.5-0.3,0.9-0.8,1.2-1.4s0.4-1.2,0.4-1.9c0-1.1-0.3-2-1-2.7
		c-0.6-0.7-1.5-1.1-2.5-1.1c-1,0-1.9,0.4-2.5,1.1S450.7,642.4,450.7,643.5z"/>
	<path fill="#464545" d="M460.6,648.2v-9.3h3.8c0.9,0,1.6,0.3,2.1,0.8c0.5,0.5,0.8,1.2,0.8,2c0,0.4-0.1,0.8-0.2,1.1
		c-0.1,0.3-0.3,0.6-0.5,0.8s-0.5,0.4-0.8,0.5c-0.3,0.1-0.6,0.2-0.9,0.2l2.5,3.8H466l-2.4-3.7h-1.9v3.7H460.6z M461.7,643.5h2.4
		c0.6,0,1-0.2,1.4-0.5s0.5-0.8,0.5-1.3s-0.2-1-0.5-1.3c-0.3-0.3-0.8-0.5-1.4-0.5h-2.4V643.5z"/>
</g>
</svg>
