<?xml version="1.0" encoding="utf-8"?>
<!-- Generator: Adobe Illustrator 18.0.0, SVG Export Plug-In . SVG Version: 6.00 Build 0)  -->
<!DOCTYPE svg PUBLIC "-//W3C//DTD SVG 1.1//EN" "http://www.w3.org/Graphics/SVG/1.1/DTD/svg11.dtd">
<svg version="1.1" id="Layer_1" xmlns="http://www.w3.org/2000/svg" xmlns:xlink="http://www.w3.org/1999/xlink" x="0px" y="0px"
	 width="572.8px" height="610px" viewBox="0 0 572.8 610" enable-background="new 0 0 572.8 610" xml:space="preserve">
<line fill="none" stroke="#464545" stroke-width="2.9679" x1="2" y1="598.1" x2="462" y2="598.1"/>
<g>
	<rect x="91.9" y="123.1" fill="none" stroke="#616261" stroke-width="3" stroke-miterlimit="10" width="280.2" height="389"/>
	<rect x="115" y="146.2" fill="none" stroke="#616261" stroke-width="3" stroke-miterlimit="10" width="234" height="342.8"/>
</g>
<line fill="none" stroke="#464545" stroke-width="2.9679" x1="2" y1="13.1" x2="462" y2="13.1"/>
<line fill="none" stroke="#464545" stroke-width="2.5888" x1="57" y1="78.1" x2="407" y2="78.1"/>
<g>
	<g>
		<line fill="none" stroke="#464545" stroke-width="3" x1="358.1" y1="537.5" x2="105.9" y2="537.5"/>
		<g>
			<polygon fill="#464545" points="355.4,528.5 371,537.5 355.4,546.5 			"/>
		</g>
		<g>
			<polygon fill="#464545" points="108.6,528.5 93,537.5 108.6,546.5 			"/>
		</g>
	</g>
</g>
<line fill="none" stroke="#464545" stroke-width="2.6287" x1="372.1" y1="520" x2="372.1" y2="555"/>
<line fill="none" stroke="#464545" stroke-width="2.6287" x1="91.9" y1="520" x2="91.9" y2="555"/>
<g>
	<g>
		<line fill="none" stroke="#464545" stroke-width="3" x1="66" y1="137.5" x2="66" y2="497.7"/>
		<g>
			<polygon fill="#464545" points="57,140.1 66,124.6 75,140.1 			"/>
		</g>
		<g>
			<polygon fill="#464545" points="57,495.1 66,510.6 75,495.1 			"/>
		</g>
	</g>
</g>
<line fill="none" stroke="#464545" stroke-width="2.6287" x1="48.5" y1="123.1" x2="83.5" y2="123.1"/>
<line fill="none" stroke="#464545" stroke-width="2.6287" x1="48.5" y1="512.1" x2="83.5" y2="512.1"/>
<g>
	<g>
		<line fill="none" stroke="#464545" stroke-width="2.9481" x1="25.7" y1="137.3" x2="25.7" y2="590.9"/>
		<g>
			<polygon fill="#464545" points="16.8,139.9 25.6,124.6 34.5,139.9 			"/>
		</g>
		<g>
			<polygon fill="#464545" points="16.8,588.3 25.6,603.6 34.5,588.3 			"/>
		</g>
	</g>
</g>
<line fill="none" stroke="#464545" stroke-width="2.6287" x1="8.2" y1="123.1" x2="43.2" y2="123.1"/>
<g>
	<g>
		<line fill="none" stroke="#464545" stroke-width="1.9825" x1="232" y1="87.8" x2="232" y2="112.7"/>
		<g>
			<polygon fill="#464545" points="226.1,89.6 232,79.3 237.9,89.6 			"/>
		</g>
		<g>
			<polygon fill="#464545" points="226.1,111 232,121.2 237.9,111 			"/>
		</g>
	</g>
</g>
<g>
	<path fill="#464545" d="M181.7,106.2c0-1.2,0-2.4-0.1-3.5c0-1.2-0.1-2.3-0.3-3.4c-0.1-1.1-0.4-2.1-0.6-3s-0.6-1.8-1.1-2.5l1.5-1
		c0.5,0.8,0.9,1.7,1.2,2.8c0.3,1.1,0.6,2.2,0.8,3.6c0.1,0.6,0.1,1.2,0.2,1.8c0,0.6,0.1,1.2,0.1,1.8c0,0.6,0,1.2,0.1,1.8
		c0,0.6,0,1.1,0,1.7H181.7z"/>
	<path fill="#464545" d="M189.7,92.8c0.2,0.2,0.4,0.4,0.6,0.6c0.3,0.3,0.5,0.5,0.8,0.9c0.3,0.3,0.6,0.7,0.9,1
		c0.3,0.4,0.6,0.8,0.9,1.2c1.3,1.9,2,3.5,2,4.9c0,0.5-0.1,1-0.3,1.5c-0.2,0.5-0.4,1-0.7,1.4c-0.1,0.2-0.3,0.4-0.5,0.6
		c-0.2,0.2-0.5,0.4-0.8,0.5s-0.6,0.3-1,0.4c-0.4,0.1-0.8,0.2-1.3,0.2c-0.7,0-1.4-0.1-2-0.4c-0.6-0.2-1-0.6-1.4-1
		c-0.3-0.3-0.5-0.6-0.6-1c-0.2-0.3-0.3-0.7-0.4-1c-0.1-0.3-0.1-0.7-0.2-1c0-0.3,0-0.6,0-0.9c0.1-0.6,0.2-1.2,0.5-1.8
		c0.2-0.6,0.5-1.3,0.9-1.9c0.3-0.4,0.5-0.8,0.8-1.2c0.3-0.4,0.6-0.7,0.9-1.1c-0.2-0.2-0.4-0.4-0.5-0.5L189.7,92.8z M190.4,104.2
		c0.9,0,1.6-0.3,2.1-0.9c0.2-0.3,0.4-0.6,0.5-0.9c0.1-0.3,0.1-0.6,0.1-0.9c0-0.5-0.1-1.1-0.4-1.7c-0.3-0.7-0.7-1.4-1.2-2.1
		c-0.2-0.3-0.4-0.5-0.6-0.8c-0.2-0.3-0.4-0.5-0.6-0.7c-0.3,0.3-0.6,0.7-0.9,1.1c-0.3,0.4-0.5,0.8-0.8,1.2c-0.2,0.4-0.4,0.9-0.6,1.3
		s-0.3,0.9-0.3,1.3c0,0.1,0,0.3,0,0.5c0,0.2,0,0.4,0.1,0.6c0,0.2,0.1,0.5,0.2,0.7c0.1,0.2,0.2,0.4,0.4,0.6c0.2,0.3,0.5,0.5,0.8,0.6
		C189.5,104.1,189.9,104.2,190.4,104.2z"/>
	<path fill="#464545" d="M196.3,101v-1.6h5.3v1.6H196.3z"/>
	<path fill="#464545" d="M211.1,92.6c0,0,0,0.1,0,0.2s0,0.2,0.1,0.4c0,0.2,0,0.4,0,0.6c0,0.2,0,0.5,0,0.7c0,1.4-0.4,2.5-1,3.2v0
		c-0.3,0.4-0.7,0.7-1.1,0.8s-0.9,0.3-1.4,0.3c-0.3,0-0.5,0-0.8-0.1c-0.2,0-0.5-0.1-0.7-0.2c0,0.1,0,0.2,0,0.3s0,0.2,0,0.3
		c0.1,0.6,0.1,1.2,0.2,1.8c0,0.6,0.1,1.2,0.1,1.8s0,1.2,0.1,1.8c0,0.6,0,1.1,0,1.7h-1.8c0-1,0-1.9,0-2.9c0-1-0.1-1.9-0.1-2.8
		c-0.1-0.9-0.2-1.8-0.4-2.6c-0.2-0.8-0.4-1.6-0.6-2.3c-0.1-0.3-0.3-0.6-0.4-0.9c-0.1-0.3-0.3-0.6-0.5-0.9l1.5-1
		c0.1,0.2,0.2,0.3,0.3,0.5c0.1,0.2,0.2,0.3,0.2,0.5c0.1,0.2,0.2,0.4,0.2,0.6c0.1,0.2,0.2,0.4,0.3,0.6c0.1,0.3,0.3,0.6,0.4,0.9
		c0.1,0.3,0.3,0.5,0.5,0.7c0.2,0.2,0.4,0.3,0.6,0.4c0.2,0.1,0.5,0.2,0.9,0.2c0.3,0,0.5,0,0.7-0.1s0.3-0.2,0.5-0.4
		c0.1-0.1,0.2-0.3,0.3-0.5c0.1-0.2,0.1-0.4,0.2-0.6c0-0.2,0.1-0.4,0.1-0.6c0-0.2,0-0.4,0-0.6c0-0.3,0-0.5,0-0.8
		c0-0.2-0.1-0.4-0.1-0.6L211.1,92.6z"/>
	<path fill="#464545" d="M214.1,101c0-0.4,0.1-0.8,0.2-1.2c0.2-0.4,0.4-0.7,0.7-1s0.6-0.5,1-0.7c0.4-0.2,0.8-0.2,1.2-0.2
		c0.4,0,0.8,0.1,1.2,0.2c0.4,0.2,0.7,0.4,1,0.7c0.3,0.3,0.5,0.6,0.7,1c0.2,0.4,0.2,0.8,0.2,1.2c0,0.4-0.1,0.8-0.2,1.2
		c-0.2,0.4-0.4,0.7-0.7,1c-0.3,0.3-0.6,0.5-1,0.7c-0.4,0.2-0.8,0.2-1.2,0.2c-0.4,0-0.8-0.1-1.2-0.2c-0.4-0.2-0.7-0.4-1-0.7
		c-0.3-0.3-0.5-0.6-0.7-1C214.1,101.9,214.1,101.5,214.1,101z M215.5,101c0,0.2,0,0.4,0.1,0.6c0.1,0.2,0.2,0.4,0.3,0.5
		c0.1,0.1,0.3,0.3,0.5,0.3c0.2,0.1,0.4,0.1,0.6,0.1s0.4,0,0.6-0.1c0.2-0.1,0.4-0.2,0.5-0.3c0.1-0.1,0.3-0.3,0.3-0.5
		c0.1-0.2,0.1-0.4,0.1-0.6c0-0.2,0-0.4-0.1-0.6c-0.1-0.2-0.2-0.4-0.3-0.5c-0.1-0.1-0.3-0.3-0.5-0.3c-0.2-0.1-0.4-0.1-0.6-0.1
		s-0.4,0-0.6,0.1c-0.2,0.1-0.4,0.2-0.5,0.3c-0.1,0.1-0.3,0.3-0.3,0.5C215.6,100.6,215.5,100.8,215.5,101z"/>
</g>
<g>
	<g>
		<path fill="#464545" d="M494.5,12.7C494.4,12.7,494.4,12.7,494.5,12.7c-0.1,0.1-0.1,0.2-0.2,0.2c0.4,0.1,0.7,0.1,1.1,0.2
			c0.4,0,0.7,0.1,1.1,0.1c0.2,0,0.4,0.1,0.6,0.2c0.2,0.2,0.3,0.4,0.3,0.6c0,0.1,0,0.2-0.1,0.3c0,0.1-0.1,0.2-0.2,0.3
			c-0.1,0.1-0.2,0.1-0.3,0.2s-0.2,0.1-0.3,0.1c-0.7,0-1.5-0.1-2.2-0.2c-0.7-0.1-1.3-0.3-1.9-0.5c-0.1,0-0.2,0.1-0.3,0.1
			s-0.2,0.1-0.3,0.1c-0.3,0.1-0.6,0.2-1,0.3s-0.8,0.1-1.3,0.2c-0.5,0.1-1,0.1-1.5,0.1c-0.5,0-1,0-1.6,0c-1.8,0-3.2-0.2-4.4-0.7
			c-1.2-0.4-2-1.1-2.5-2c-0.2-0.4-0.4-0.8-0.5-1.2c-0.1-0.4-0.1-0.8-0.1-1.2c0-0.4,0.1-0.7,0.1-1.1c0.1-0.3,0.2-0.6,0.3-0.9
			c0.1-0.3,0.2-0.5,0.3-0.6c0.1-0.2,0.1-0.3,0.1-0.3l1.5,0.8c0,0,0,0.1-0.1,0.2c-0.1,0.1-0.1,0.3-0.2,0.4c-0.1,0.2-0.1,0.4-0.2,0.6
			c-0.1,0.2-0.1,0.5-0.1,0.7c0,0.3,0,0.5,0,0.8s0.1,0.5,0.3,0.8c0.2,0.3,0.4,0.5,0.7,0.8c0.3,0.2,0.6,0.4,1,0.6
			c0.4,0.1,0.9,0.3,1.4,0.3c0.5,0.1,1.2,0.1,1.9,0.1c0.5,0,1,0,1.4,0c0.4,0,0.8,0,1.1-0.1c0.3,0,0.6-0.1,0.9-0.1
			c0.3,0,0.5-0.1,0.7-0.1c-0.8-0.7-1.2-1.4-1.2-2.3c0-0.5,0.1-1.1,0.2-1.5c0.2-0.5,0.4-0.9,0.7-1.3c0.3-0.4,0.7-0.7,1.1-0.9
			c0.4-0.2,0.8-0.3,1.3-0.3c0.4,0,0.8,0.1,1.1,0.2c0.3,0.1,0.7,0.4,0.9,0.6c0.1,0.1,0.2,0.2,0.3,0.4c0.1,0.2,0.2,0.3,0.3,0.6
			c0.1,0.2,0.2,0.5,0.2,0.7s0.1,0.6,0.1,0.9C495.2,11.1,495,12,494.5,12.7z M492.3,12.3c0.2-0.1,0.5-0.3,0.6-0.5
			c0.2-0.2,0.3-0.3,0.4-0.5c0.1-0.2,0.1-0.4,0.2-0.6c0-0.2,0-0.4,0-0.6c0-0.4-0.1-0.7-0.2-1c-0.1-0.2-0.2-0.4-0.4-0.5
			c-0.1-0.1-0.3-0.2-0.4-0.2c-0.1,0-0.2,0-0.3,0c-0.2,0-0.3,0.1-0.5,0.2c-0.2,0.1-0.4,0.3-0.5,0.5c-0.2,0.2-0.3,0.4-0.4,0.7
			c-0.1,0.3-0.2,0.6-0.2,1c0,0.3,0.1,0.5,0.4,0.8c0.3,0.3,0.6,0.5,1.1,0.7L492.3,12.3z M493.7,3.2l-1.4,1.4l-1.4-1.4l1.4-1.4
			L493.7,3.2z"/>
		<path fill="#464545" d="M495.6,13.9c0-0.1,0-0.2,0.1-0.3c0-0.1,0.1-0.2,0.2-0.3c0.1-0.1,0.2-0.1,0.3-0.2c0.1,0,0.2-0.1,0.3-0.1
			c0.2,0,0.4,0,0.7,0s0.5,0,0.7,0c0.2,0,0.4,0,0.6,0c0.2,0,0.4,0,0.5-0.1c-0.8-0.7-1.1-1.4-1.1-2.2c0-0.5,0.1-1.1,0.2-1.5
			c0.2-0.5,0.4-0.9,0.7-1.3c0.3-0.4,0.7-0.7,1.1-0.9c0.4-0.2,0.8-0.3,1.2-0.3c0.5,0,1,0.1,1.4,0.4c0.4,0.2,0.7,0.5,1,0.9
			c0.3,0.3,0.4,0.7,0.6,1.2c0.1,0.4,0.2,0.9,0.2,1.3c0,0.5-0.1,0.9-0.3,1.3c-0.2,0.4-0.4,0.8-0.7,1.2c0.2,0,0.4,0.1,0.6,0.1
			c0.2,0,0.4,0,0.6,0.1c0.2,0,0.4,0,0.7,0s0.4,0,0.6,0c0.2,0,0.4,0.1,0.6,0.2c0.2,0.2,0.2,0.4,0.2,0.6c0,0.1,0,0.2-0.1,0.3
			c0,0.1-0.1,0.2-0.2,0.3c-0.1,0.1-0.2,0.1-0.3,0.2s-0.2,0.1-0.3,0.1h-0.1c-0.2,0-0.4,0-0.6,0c-0.2,0-0.4,0-0.6,0s-0.4,0-0.6,0
			c-0.2,0-0.4,0-0.6-0.1c-0.3-0.1-0.7-0.1-1-0.2s-0.6-0.2-0.9-0.3c-0.3,0.1-0.6,0.2-0.9,0.3c-0.4,0.1-0.7,0.1-1.2,0.2
			c-0.4,0.1-0.8,0.1-1.3,0.1c-0.4,0-0.9,0-1.3,0h-0.1c-0.2,0-0.4-0.1-0.6-0.2C495.7,14.4,495.6,14.2,495.6,13.9z M500.7,3.2
			l-1.4,1.4l-1.4-1.4l1.4-1.4L500.7,3.2z M501.1,8.3c-0.2,0-0.3,0.1-0.5,0.2c-0.2,0.1-0.4,0.3-0.5,0.5c-0.2,0.2-0.3,0.5-0.4,0.7
			c-0.1,0.3-0.2,0.6-0.2,1c0,0.3,0.1,0.5,0.4,0.8c0.3,0.3,0.6,0.5,1.1,0.7l0.1,0.1c0.3-0.2,0.6-0.4,0.8-0.6c0.2-0.3,0.3-0.5,0.4-0.8
			c0.1-0.3,0.1-0.6,0-0.9c0-0.3-0.1-0.6-0.2-0.8c-0.1-0.2-0.3-0.4-0.4-0.6C501.5,8.4,501.3,8.3,501.1,8.3z M504.3,3.2l-1.4,1.4
			l-1.4-1.4l1.4-1.4L504.3,3.2z"/>
		<path fill="#464545" d="M504.9,13.9c0-0.1,0-0.2,0.1-0.3c0-0.1,0.1-0.2,0.2-0.3c0.1-0.1,0.2-0.1,0.3-0.2s0.2-0.1,0.3-0.1
			c0.3,0,0.7-0.1,0.9-0.2c0.3-0.1,0.5-0.3,0.7-0.5c0.2-0.2,0.4-0.5,0.6-0.8c0.2-0.3,0.3-0.6,0.4-0.9c0.1-0.3,0.2-0.6,0.3-1
			c0.1-0.3,0.1-0.6,0.2-0.9l1.7,0.4c0,0.1-0.1,0.3-0.2,0.5c-0.1,0.2-0.1,0.5-0.2,0.7c-0.1,0.3-0.1,0.5-0.2,0.8s-0.1,0.5-0.1,0.7
			c0,0.2,0,0.3,0,0.5c0,0.1,0.1,0.3,0.1,0.4c0.1,0.1,0.2,0.2,0.3,0.3c0.1,0.1,0.3,0.1,0.5,0.1c0.3,0,0.6-0.1,0.8-0.2
			c0.2-0.2,0.4-0.4,0.6-0.6c0.2-0.3,0.3-0.6,0.5-0.9c0.1-0.3,0.2-0.7,0.3-1c0.1-0.3,0.2-0.7,0.2-1s0.1-0.6,0.1-0.8l1.7,0.3
			c-0.1,0.4-0.1,0.7-0.2,1s-0.1,0.6-0.1,0.9c0,0.3-0.1,0.6-0.1,0.8c0,0.2,0,0.4,0,0.6c0,0.2,0.1,0.4,0.2,0.5
			c0.1,0.1,0.2,0.3,0.3,0.4c0.1,0.1,0.3,0.2,0.4,0.2c0.3,0,0.5,0,0.7,0s0.3-0.1,0.4-0.2c0.1-0.1,0.2-0.1,0.2-0.2
			c0-0.1,0.1-0.1,0.1-0.2h0c0.1-0.1,0.1-0.3,0.2-0.4c0-0.2,0-0.3,0-0.5c0-0.3,0-0.7-0.1-1.1c-0.1-0.4-0.2-0.8-0.3-1.1
			c-0.1-0.4-0.3-0.7-0.4-1s-0.3-0.6-0.3-0.8l1.5-0.8c0,0.1,0.1,0.2,0.2,0.3c0.1,0.2,0.2,0.4,0.3,0.6c0.1,0.2,0.2,0.5,0.3,0.8
			c0.1,0.3,0.2,0.6,0.3,1c0.1,0.3,0.2,0.7,0.2,1c0.1,0.3,0.1,0.7,0.1,1c0,0.5-0.1,0.9-0.2,1.4s-0.3,0.7-0.6,1
			c-0.3,0.3-0.6,0.5-1,0.7c-0.4,0.2-0.9,0.2-1.5,0.2c-0.2,0-0.4,0-0.7-0.1c-0.2-0.1-0.4-0.2-0.6-0.3c-0.2-0.1-0.4-0.3-0.6-0.4
			c-0.2-0.2-0.3-0.3-0.4-0.5c-0.3,0.4-0.7,0.7-1.2,1s-0.9,0.4-1.4,0.4c-0.2,0-0.4,0-0.7-0.1c-0.2-0.1-0.4-0.1-0.7-0.2
			c-0.2-0.1-0.4-0.2-0.6-0.4s-0.3-0.4-0.4-0.6c-0.3,0.4-0.7,0.7-1.2,0.9c-0.4,0.2-1,0.3-1.6,0.3h-0.1c-0.1,0-0.2,0-0.3-0.1
			s-0.2-0.1-0.3-0.2c-0.1-0.1-0.1-0.2-0.2-0.3C505,14.2,504.9,14,504.9,13.9z"/>
	</g>
</g>
<g>
	<g>
		<path fill="#464545" d="M420.3,85.4c-0.5,0-1,0-1.6-0.1s-1.1-0.1-1.6-0.3c-0.5-0.2-1-0.4-1.4-0.6c-0.4-0.3-0.8-0.6-1-1.1
			c-0.6-0.9-0.9-2.1-0.8-3.6c0-0.8,0.2-1.7,0.4-2.6c0.2-0.9,0.6-2,1.1-3.1l1.6,0.6c-0.7,1.8-1.2,3.4-1.3,4.7c-0.1,1.3,0,2.3,0.5,3
			c0.2,0.3,0.5,0.6,0.9,0.8s0.7,0.3,1.1,0.4c0.4,0.1,0.8,0.1,1.1,0.1s0.7,0,1,0c0.2,0,0.4,0,0.7,0c0.3,0,0.6-0.1,1-0.1
			c0.4-0.1,0.7-0.1,1.1-0.3c0.4-0.1,0.7-0.2,1-0.4c0.3-0.2,0.6-0.3,0.7-0.6c0.2-0.2,0.3-0.5,0.3-0.7c0-0.1,0-0.2-0.1-0.2
			c-0.1-0.1-0.2-0.2-0.3-0.3c-0.1-0.1-0.3-0.2-0.6-0.3c-0.2-0.1-0.5-0.2-0.8-0.4c-0.2-0.1-0.4-0.1-0.6-0.2s-0.4-0.1-0.6-0.2
			c-0.2,0-0.3-0.1-0.5-0.1c-0.1,0-0.3-0.1-0.4-0.1l-0.2,0l0.1-1.7l6.7,0c0.2,0,0.4,0.1,0.6,0.2c0.2,0.2,0.3,0.4,0.3,0.6
			c0,0.2-0.1,0.4-0.3,0.6c-0.2,0.2-0.4,0.2-0.6,0.2h-2.1c0.2,0.2,0.4,0.3,0.5,0.5c0.1,0.2,0.2,0.3,0.3,0.5c0.1,0.2,0.1,0.3,0.1,0.5
			c0,0.1,0,0.3,0,0.4c0,0.5-0.1,0.9-0.3,1.3s-0.5,0.7-0.9,1s-0.8,0.5-1.2,0.7s-0.9,0.4-1.4,0.5c-0.5,0.1-1,0.2-1.4,0.3
			C421.1,85.4,420.7,85.4,420.3,85.4z"/>
		<path fill="#464545" d="M426.8,78.9c0-0.2,0.1-0.4,0.3-0.6s0.4-0.2,0.7-0.2h0.9c0.3,0,0.7,0,1.1,0s0.7,0,1.1-0.1s0.7-0.2,0.9-0.3
			c0.3-0.1,0.5-0.3,0.7-0.6c0.2-0.3,0.3-0.6,0.3-0.9c0-0.3,0-0.7-0.1-1.1c-0.1-0.2-0.2-0.5-0.5-0.9c-0.3-0.4-0.6-0.8-0.9-1.2
			s-0.8-0.9-1.2-1.3c-0.5-0.4-0.9-0.9-1.4-1.2l0.2-1.8l7.1-3.1l0.7,1.6l-6.2,2.6c0.3,0.2,0.6,0.5,0.9,0.8s0.7,0.6,1,1
			c0.4,0.5,0.8,1,1.1,1.4s0.5,0.9,0.7,1.3c0.2,0.4,0.3,0.8,0.3,1.1s0.1,0.7,0,1s-0.1,0.6-0.2,0.9s-0.2,0.5-0.3,0.7
			c-0.5,0.9-1.4,1.5-2.6,1.7c-0.2,0-0.5,0.1-0.8,0.1h-2.8c-0.3,0-0.5-0.1-0.7-0.2C426.9,79.4,426.8,79.2,426.8,78.9z"/>
		<path fill="#464545" d="M448.7,72.1c0.4-0.1,0.8-0.1,1.1-0.1c0.4,0,0.7,0.1,1,0.1c0.3,0.1,0.5,0.1,0.7,0.2
			c0.2,0.1,0.3,0.1,0.3,0.1l-0.8,1.6c-0.2-0.1-0.4-0.1-0.6-0.2s-0.4-0.1-0.6-0.1c-0.2,0-0.5,0-0.7,0.1c-0.2,0-0.5,0.1-0.8,0.2
			c-0.3,0.1-0.5,0.3-0.8,0.5c-0.2,0.2-0.5,0.4-0.7,0.7c-0.2,0.3-0.4,0.5-0.5,0.8c-0.1,0.3-0.2,0.6-0.3,0.8c0,0.3,0,0.6,0.1,0.8
			c0.1,0.2,0.2,0.4,0.4,0.5c0.2,0.1,0.4,0.2,0.7,0.3c0.3,0.1,0.5,0.2,0.8,0.2c0.3,0.1,0.6,0.1,0.9,0.2c0.3,0.1,0.6,0.2,0.8,0.3
			c0.3,0.1,0.5,0.3,0.7,0.5c0.2,0.2,0.3,0.5,0.4,0.8s0.1,0.7,0,1.1c-0.1,0.6-0.4,1.1-0.8,1.6c-0.4,0.5-0.9,0.9-1.6,1.2
			c-0.6,0.3-1.4,0.6-2.2,0.7c-0.8,0.2-1.7,0.3-2.6,0.3c-1.1,0-2.1-0.2-2.9-0.5c-0.8-0.3-1.5-0.8-2.1-1.4c-0.5-0.5-0.8-1.2-1-1.9
			c-0.2-0.7-0.2-1.5-0.1-2.4c0-0.4,0.1-0.8,0.2-1.2c0.1-0.4,0.2-0.8,0.3-1.2s0.2-0.7,0.3-1.1c0.1-0.3,0.2-0.7,0.3-0.9
			s0.2-0.5,0.2-0.6c0.1-0.2,0.1-0.3,0.1-0.3l1.7,0.6c-0.3,0.8-0.5,1.6-0.7,2.4c-0.2,0.8-0.4,1.6-0.5,2.5c0,0.2,0,0.4,0,0.7
			s0,0.5,0.1,0.7c0,0.3,0.1,0.5,0.2,0.7s0.3,0.5,0.4,0.7c0.4,0.4,0.9,0.7,1.5,0.9c0.6,0.2,1.3,0.3,2.2,0.3c0.8,0,1.6-0.1,2.2-0.2
			c0.7-0.1,1.2-0.3,1.7-0.5c0.5-0.2,0.8-0.5,1.1-0.7s0.4-0.6,0.4-0.9c0-0.1,0-0.3-0.1-0.3c-0.1-0.1-0.3-0.2-0.5-0.2
			c-0.2-0.1-0.4-0.1-0.7-0.2c-0.3-0.1-0.5-0.1-0.8-0.2s-0.5-0.2-0.8-0.3c-0.3-0.1-0.5-0.2-0.8-0.4c-0.2-0.2-0.4-0.4-0.6-0.6
			c-0.2-0.2-0.3-0.5-0.4-0.8c-0.1-0.5-0.1-0.9-0.1-1.4c0-0.5,0.2-0.9,0.3-1.3c0.2-0.4,0.4-0.8,0.6-1.2c0.3-0.4,0.6-0.7,0.9-1
			c0.3-0.3,0.7-0.6,1.1-0.8C447.8,72.4,448.3,72.2,448.7,72.1z"/>
		<path fill="#464545" d="M456.8,79.8c-0.3,0-0.6,0-1-0.1c-0.4-0.1-0.8-0.2-1.1-0.3c-0.4-0.1-0.7-0.2-1-0.4
			c-0.3-0.1-0.5-0.3-0.7-0.4l0.7-1.6c0.2,0.1,0.5,0.3,0.8,0.4c0.3,0.1,0.6,0.2,1,0.3c0.3,0.1,0.7,0.2,1.1,0.2s0.7,0.1,1,0
			c0.3,0,0.6-0.1,0.9-0.2c0.3-0.1,0.5-0.3,0.7-0.5c0.2-0.2,0.2-0.5,0.1-1c-0.1-0.3-0.2-0.6-0.3-0.9s-0.3-0.6-0.5-0.9
			s-0.4-0.6-0.7-0.9c-0.2-0.3-0.5-0.6-0.8-0.8c-0.3-0.3-0.5-0.5-0.8-0.7c-0.3-0.2-0.5-0.4-0.8-0.5l0.7-1.6c0.3,0.2,0.7,0.4,1,0.6
			c0.3,0.2,0.7,0.5,1,0.8s0.6,0.7,0.9,1c0.3,0.4,0.6,0.7,0.8,1.1c0.2,0.4,0.5,0.8,0.6,1.2c0.2,0.4,0.3,0.8,0.4,1.1
			c0.1,0.3,0.1,0.6,0.1,0.9c0,0.3,0,0.5-0.1,0.7c0,0.2-0.1,0.4-0.2,0.5c-0.1,0.2-0.2,0.3-0.3,0.4c-0.5,0.6-1.3,1.1-2.2,1.3
			c-0.2,0.1-0.5,0.1-0.7,0.1C457.3,79.8,457.1,79.8,456.8,79.8z"/>
		<path fill="#464545" d="M471.7,79.8c0,0-0.1,0-0.2,0c-0.1,0-0.3,0-0.4,0c-0.2,0-0.4-0.1-0.6-0.1c-0.2-0.1-0.4-0.1-0.6-0.2
			c-0.6-0.3-1-0.6-1.3-1c-0.3-0.4-0.4-1-0.4-1.6c0-1,0.5-2.1,1.4-3.3c0.2-0.2,0.4-0.4,0.6-0.6c0.2-0.2,0.3-0.3,0.5-0.5
			c-0.2-0.2-0.3-0.3-0.4-0.4c-0.1-0.1-0.2-0.1-0.2-0.1l1.1-1.3c0,0,0.1,0.1,0.2,0.2c0.1,0.1,0.3,0.2,0.5,0.4
			c0.2,0.2,0.4,0.4,0.6,0.6c0.2,0.2,0.5,0.5,0.7,0.8c0.7,0.8,1.2,1.6,1.6,2.3c0.4,0.7,0.5,1.4,0.5,2c0,0.6-0.1,1.1-0.4,1.6
			c-0.3,0.4-0.7,0.8-1.2,1c-0.2,0.1-0.4,0.2-0.6,0.2c-0.2,0.1-0.4,0.1-0.5,0.1s-0.3,0.1-0.5,0.1C472,79.8,471.8,79.8,471.7,79.8z
			 M471.8,73.7c-0.2,0.2-0.4,0.3-0.6,0.6s-0.4,0.5-0.6,0.8c-0.2,0.3-0.4,0.6-0.5,0.9s-0.2,0.6-0.2,0.9c0,0.1,0,0.2,0,0.3
			c0,0.1,0,0.2,0.1,0.3c0,0.1,0.1,0.2,0.2,0.3s0.2,0.2,0.4,0.2c0.1,0.1,0.2,0.1,0.3,0.1c0.1,0,0.2,0.1,0.3,0.1s0.2,0,0.3,0
			c0.1,0,0.1,0,0.2,0c0.1,0,0.1,0,0.2,0s0.2,0,0.3,0c0.1,0,0.2,0,0.3-0.1c0.1,0,0.2-0.1,0.3-0.1c0.2-0.1,0.4-0.3,0.5-0.4
			c0.1-0.2,0.1-0.4,0.1-0.6c0-0.4-0.1-0.8-0.4-1.4C472.8,74.9,472.4,74.3,471.8,73.7C471.9,73.7,471.9,73.7,471.8,73.7
			C471.9,73.7,471.9,73.7,471.8,73.7z"/>
		<path fill="#464545" d="M480.9,79.8c-0.3,0-0.6,0-1-0.1c-0.4-0.1-0.8-0.2-1.1-0.3c-0.4-0.1-0.7-0.2-1-0.4
			c-0.3-0.1-0.5-0.3-0.7-0.4l0.7-1.6c0.2,0.1,0.5,0.3,0.8,0.4c0.3,0.1,0.6,0.2,1,0.3c0.3,0.1,0.7,0.2,1.1,0.2s0.7,0.1,1,0
			c0.3,0,0.6-0.1,0.9-0.2c0.3-0.1,0.5-0.3,0.7-0.5c0.2-0.2,0.2-0.5,0.1-1c-0.1-0.3-0.2-0.6-0.3-0.9s-0.3-0.6-0.5-0.9
			s-0.4-0.6-0.7-0.9c-0.2-0.3-0.5-0.6-0.8-0.8c-0.3-0.3-0.5-0.5-0.8-0.7c-0.3-0.2-0.5-0.4-0.8-0.5l0.7-1.6c0.3,0.2,0.7,0.4,1,0.6
			c0.3,0.2,0.7,0.5,1,0.8s0.6,0.7,0.9,1c0.3,0.4,0.6,0.7,0.8,1.1c0.2,0.4,0.5,0.8,0.6,1.2c0.2,0.4,0.3,0.8,0.4,1.1
			c0.1,0.3,0.1,0.6,0.1,0.9c0,0.3,0,0.5-0.1,0.7c0,0.2-0.1,0.4-0.2,0.5c-0.1,0.2-0.2,0.3-0.3,0.4c-0.5,0.6-1.3,1.1-2.2,1.3
			c-0.2,0.1-0.5,0.1-0.7,0.1C481.4,79.8,481.1,79.8,480.9,79.8z"/>
		<path fill="#464545" d="M491.4,79.2c0,0.5-0.1,1-0.2,1.5c-0.1,0.5-0.4,0.9-0.6,1.4c-0.3,0.4-0.6,0.9-0.9,1.3
			c-0.4,0.4-0.8,0.8-1.2,1.1c-0.4,0.4-0.9,0.7-1.3,1c-0.5,0.3-1,0.6-1.4,0.8l-0.7-1.5c0.4-0.2,0.8-0.4,1.2-0.7s0.8-0.5,1.2-0.8
			c0.4-0.3,0.7-0.6,1-0.9s0.6-0.7,0.8-1c0.2-0.4,0.4-0.7,0.5-1.1c0.1-0.4,0.1-0.8,0.1-1.2v0c0-0.3-0.1-0.7-0.2-1.1
			c-0.1-0.4-0.2-0.8-0.3-1.1c-0.1-0.4-0.2-0.7-0.3-1s-0.2-0.6-0.2-0.8l1.6-0.5c0.2,0.7,0.4,1.2,0.6,1.7c0.2,0.5,0.4,0.9,0.7,1.2
			c0.2,0.3,0.5,0.5,0.7,0.7c0.2,0.1,0.5,0.2,0.8,0.2h0c0.1,0,0.2,0,0.3,0.1c0.1,0,0.2,0.1,0.3,0.2c0.1,0.1,0.1,0.2,0.2,0.3
			s0.1,0.2,0.1,0.3c0,0.2-0.1,0.4-0.2,0.6c-0.2,0.2-0.4,0.2-0.6,0.2h0c-0.1,0-0.2,0-0.3,0c-0.1,0-0.3,0-0.4-0.1
			c-0.2,0-0.3-0.1-0.5-0.2C491.7,79.4,491.5,79.3,491.4,79.2L491.4,79.2z"/>
		<path fill="#464545" d="M492.2,78.9c0-0.2,0.1-0.4,0.2-0.6c0.2-0.2,0.4-0.2,0.6-0.2h1c0.2,0,0.4,0,0.7,0c0.2,0,0.5,0,0.7,0
			c0.2,0,0.5-0.1,0.7-0.1c0.2,0,0.5-0.1,0.6-0.2c0.2-0.1,0.4-0.2,0.5-0.3c0.2-0.1,0.3-0.3,0.3-0.4c0.1-0.2,0.1-0.6,0.1-1.1
			c0-0.5-0.2-1-0.4-1.6c-0.1-0.2-0.1-0.4-0.2-0.6c-0.1-0.2-0.2-0.4-0.2-0.6c-0.1-0.2-0.2-0.4-0.3-0.7l1.5-0.8c0,0,0,0.1,0.1,0.2
			c0.1,0.1,0.1,0.3,0.2,0.5s0.2,0.4,0.3,0.7c0.1,0.3,0.2,0.5,0.3,0.8c0.5,1.7,0.6,3,0.2,3.9c-0.4,0.9-1.1,1.5-2.2,1.8
			c-0.2,0-0.4,0.1-0.6,0.1c-0.2,0-0.5,0-0.7,0.1c-0.3,0-0.5,0-0.7,0c-0.2,0-0.4,0-0.5,0h-1.3H493c-0.2,0-0.4-0.1-0.6-0.2
			C492.3,79.4,492.2,79.2,492.2,78.9z M494.4,81.4l1.4,1.4l-1.4,1.4l-1.4-1.4L494.4,81.4z M496.3,84.1l1.3,1.3l-1.3,1.3l-1.3-1.3
			L496.3,84.1z M498.2,81.4l1.4,1.4l-1.4,1.4l-1.4-1.4L498.2,81.4z"/>
		<path fill="#464545" d="M507.4,86.1l-0.3-8.1c0,0,0-0.1,0-0.2s0-0.3,0.1-0.4c0-0.2,0.1-0.3,0.2-0.5s0.2-0.3,0.4-0.5
			c0.1-0.1,0.2-0.1,0.3-0.2c0.1-0.1,0.2-0.1,0.4-0.1c0.1,0,0.3,0,0.5,0c0.2,0,0.4,0,0.6,0.1c0.1-0.2,0.1-0.4,0.2-0.6
			c0.1-0.2,0.2-0.4,0.3-0.7c0.2-0.3,0.4-0.6,0.5-0.9c0.2-0.3,0.4-0.5,0.6-0.7c0.6-0.6,1.2-0.9,1.9-0.8c0.5,0,0.9,0.1,1.3,0.3
			c0.4,0.2,0.7,0.5,1,0.8c0.2,0.3,0.4,0.6,0.5,1c0.1,0.4,0.2,0.8,0.2,1.2s0,0.8,0,1.2s-0.2,0.8-0.3,1.1c-0.2,0.4-0.4,0.8-0.7,1
			c-0.3,0.3-0.6,0.4-0.9,0.5c-0.2,0-0.3,0-0.5,0c-0.2,0-0.4-0.1-0.7-0.2c-0.3-0.1-0.5-0.2-0.9-0.3c-0.3-0.1-0.7-0.3-1.1-0.4
			c-0.3-0.1-0.6-0.3-1-0.4s-0.6-0.2-0.9-0.3c-0.1,0-0.1,0-0.1,0c0,0-0.1,0-0.1,0c0,0.1,0,0.2,0,0.2l0.3,8.1H507.4z M511.6,77
			c0.3,0.1,0.5,0.2,0.8,0.3c0.3,0.1,0.5,0.2,0.7,0.3c0.2,0.1,0.4,0.1,0.6,0.2s0.3,0.1,0.3,0.1c0.1-0.1,0.2-0.3,0.2-0.5
			s0.1-0.4,0.1-0.7c0-0.2,0-0.5,0-0.7s0-0.4-0.1-0.6c-0.1-0.3-0.2-0.5-0.3-0.7c-0.1-0.2-0.3-0.3-0.4-0.4c-0.1-0.1-0.2-0.1-0.4-0.1
			c-0.1,0-0.2,0-0.3,0c-0.2,0-0.4,0.1-0.7,0.4c-0.2,0.3-0.5,0.6-0.7,1.1c-0.1,0.2-0.2,0.4-0.3,0.6c-0.1,0.2-0.1,0.4-0.2,0.5
			L511.6,77z"/>
		<path fill="#464545" d="M522.4,79.2c0,0.5-0.1,1-0.2,1.5c-0.1,0.5-0.4,0.9-0.6,1.4c-0.3,0.4-0.6,0.9-0.9,1.3
			c-0.4,0.4-0.8,0.8-1.2,1.1c-0.4,0.4-0.9,0.7-1.3,1c-0.5,0.3-1,0.6-1.4,0.8l-0.7-1.5c0.4-0.2,0.8-0.4,1.2-0.7s0.8-0.5,1.2-0.8
			c0.4-0.3,0.7-0.6,1-0.9s0.6-0.7,0.8-1c0.2-0.4,0.4-0.7,0.5-1.1c0.1-0.4,0.1-0.8,0.1-1.2v0c0-0.3-0.1-0.7-0.2-1.1
			c-0.1-0.4-0.2-0.8-0.3-1.1c-0.1-0.4-0.2-0.7-0.3-1s-0.2-0.6-0.2-0.8l1.6-0.5c0.2,0.7,0.4,1.2,0.6,1.7c0.2,0.5,0.4,0.9,0.7,1.2
			c0.2,0.3,0.5,0.5,0.7,0.7c0.2,0.1,0.5,0.2,0.8,0.2h0c0.1,0,0.2,0,0.3,0.1c0.1,0,0.2,0.1,0.3,0.2c0.1,0.1,0.1,0.2,0.2,0.3
			s0.1,0.2,0.1,0.3c0,0.2-0.1,0.4-0.2,0.6c-0.2,0.2-0.4,0.2-0.6,0.2h0c-0.1,0-0.2,0-0.3,0c-0.1,0-0.3,0-0.4-0.1
			c-0.2,0-0.3-0.1-0.5-0.2C522.7,79.4,522.5,79.3,522.4,79.2L522.4,79.2z M521.7,70.7l-1.4,1.4l-1.4-1.4l1.4-1.4L521.7,70.7z"/>
		<path fill="#464545" d="M523.3,78.9c0-0.2,0.1-0.4,0.2-0.6c0.2-0.2,0.4-0.2,0.6-0.2h0.7c0.5,0,1,0,1.4-0.1
			c0.4-0.1,0.8-0.2,1.2-0.3c0.3-0.2,0.6-0.4,0.8-0.6c0.2-0.3,0.3-0.6,0.3-1c0-0.3,0-0.7-0.1-1c0-0.3-0.1-0.7-0.3-1.2l1.6-0.5
			c0.1,0.2,0.1,0.4,0.1,0.6s0.1,0.5,0.1,0.7s0.1,0.5,0.1,0.7c0,0.2,0,0.5,0.1,0.7c0,0.2,0,0.4,0.1,0.7c0,0.2,0.1,0.5,0.2,0.7
			c0.1,0.2,0.2,0.4,0.4,0.5s0.4,0.2,0.7,0.2c0.2,0,0.4,0.1,0.6,0.2c0.2,0.2,0.3,0.4,0.3,0.6c0,0.1,0,0.2-0.1,0.3
			c0,0.1-0.1,0.2-0.2,0.3c-0.1,0.1-0.2,0.1-0.3,0.2c-0.1,0-0.2,0.1-0.3,0.1c-0.6,0-1.1-0.1-1.5-0.3c-0.4-0.2-0.7-0.5-0.9-0.8
			c-0.2,0.2-0.5,0.4-0.8,0.5s-0.7,0.3-1.1,0.3c-0.4,0.1-0.8,0.2-1.2,0.2c-0.4,0-0.9,0.1-1.3,0.1h-0.7c-0.2,0-0.4-0.1-0.6-0.2
			C523.4,79.4,523.3,79.2,523.3,78.9z M526.9,83.1l-1.4,1.4l-1.4-1.4l1.4-1.4L526.9,83.1z M530.5,83.1l-1.4,1.4l-1.4-1.4l1.4-1.4
			L530.5,83.1z"/>
		<path fill="#464545" d="M530.8,78.9c0-0.2,0.1-0.4,0.2-0.6c0.2-0.2,0.4-0.2,0.6-0.2h0.9c0.3,0,0.6,0,0.9,0c0.3,0,0.5-0.1,0.8-0.1
			c0.2-0.1,0.4-0.2,0.6-0.3c0.2-0.1,0.3-0.3,0.4-0.6c0.1-0.2,0.1-0.6,0.1-1.1c0-0.5-0.2-1-0.4-1.6c-0.1-0.2-0.1-0.4-0.2-0.6
			c-0.1-0.2-0.2-0.4-0.2-0.6c-0.1-0.2-0.2-0.4-0.3-0.7l1.5-0.8c0,0,0,0.1,0.1,0.2c0.1,0.1,0.1,0.3,0.2,0.5s0.2,0.4,0.3,0.7
			c0.1,0.3,0.2,0.5,0.3,0.8c0.5,1.7,0.6,3,0.2,3.9c-0.4,0.9-1.1,1.5-2.2,1.8c-0.3,0.1-0.6,0.1-0.9,0.2c-0.3,0-0.6,0-0.8,0h-1.2h-0.1
			c-0.2,0-0.4-0.1-0.6-0.2C530.9,79.4,530.8,79.2,530.8,78.9z M536,68.9l-1.4,1.4l-1.4-1.4l1.4-1.4L536,68.9z"/>
		<path fill="#464545" d="M543.3,79.8c-0.6,0-1.2-0.1-1.6-0.2s-0.8-0.4-1.2-0.7c-0.2-0.2-0.3-0.4-0.4-0.6s-0.2-0.4-0.2-0.7
			c0-0.2-0.1-0.4-0.1-0.6s0-0.4,0-0.5v-0.2c0,0,0-0.1,0-0.3c0-0.2,0-0.5,0-0.8c0-0.4,0-0.8,0-1.2c0-0.5,0-0.9,0-1.5c0-0.5,0-1,0-1.6
			c0-0.5,0-1.1-0.1-1.6c0-0.5-0.1-1-0.1-1.4c0-0.4-0.1-0.8-0.1-1l1.7-0.3c0.1,0.3,0.1,0.7,0.1,1.1c0,0.4,0.1,0.9,0.1,1.4
			c0,0.5,0,1,0.1,1.6c0,0.5,0,1.1,0,1.6c0,0.5,0,1,0,1.5c0,0.5,0,0.9,0,1.3s0,0.7,0,0.9s0,0.4,0,0.4v0.2c0,0.3,0,0.5,0,0.7
			c0,0.2,0.1,0.4,0.2,0.5c0.3,0.3,0.8,0.4,1.5,0.4h0.1c0.1,0,0.2,0,0.3,0.1s0.2,0.1,0.3,0.2s0.1,0.2,0.2,0.3s0.1,0.2,0.1,0.3
			c0,0.2-0.1,0.4-0.3,0.6C543.7,79.7,543.5,79.8,543.3,79.8z"/>
		<path fill="#464545" d="M542.4,78.9c0-0.1,0-0.2,0.1-0.3s0.1-0.2,0.2-0.3s0.2-0.1,0.3-0.2s0.2-0.1,0.3-0.1h0.1h2.9
			c0.2,0,0.5,0,0.7-0.1c0.2-0.1,0.4-0.2,0.6-0.4c0.2-0.2,0.3-0.3,0.5-0.5c0.1-0.2,0.2-0.4,0.2-0.6c0-0.3,0-0.7-0.1-1
			c-0.1-0.4-0.3-0.7-0.5-1.1s-0.5-0.7-0.7-1.1s-0.6-0.7-0.9-1c-0.3-0.3-0.6-0.6-0.9-0.9c-0.3-0.3-0.6-0.5-0.9-0.7l0.2-1.9l7.7-3.3
			l0.7,1.6l-6.9,2.9c0.4,0.4,0.8,0.7,1.2,1.1c0.3,0.4,0.6,0.7,0.9,1.1s0.5,0.7,0.7,1.1c0.2,0.4,0.4,0.7,0.6,1.1
			c0.2,0.4,0.4,0.7,0.6,1.1s0.4,0.7,0.6,1.1c0.2,0.3,0.3,0.5,0.5,0.8c0.2,0.2,0.4,0.4,0.6,0.6c0.2,0.2,0.5,0.3,0.7,0.4
			c0.3,0.1,0.6,0.1,0.9,0.1h0.4c0.2,0,0.4,0.1,0.6,0.2c0.2,0.2,0.2,0.4,0.2,0.6c0,0.2-0.1,0.4-0.2,0.6c-0.2,0.2-0.4,0.2-0.6,0.2
			h-0.1c-0.4,0-0.8,0-1.1-0.1c-0.3-0.1-0.6-0.1-0.9-0.2c-0.4-0.2-0.8-0.4-1.1-0.7c-0.3-0.3-0.7-0.6-0.9-0.9c-0.2,0.4-0.5,0.7-0.7,1
			c-0.2,0.2-0.4,0.3-0.6,0.4c-0.2,0.1-0.4,0.2-0.7,0.3s-0.5,0.1-0.7,0.2c-0.2,0-0.5,0.1-0.7,0.1h-2.8c-0.2,0-0.4-0.1-0.6-0.2
			C542.5,79.4,542.4,79.2,542.4,78.9z"/>
		<path fill="#464545" d="M552.9,78.9c0-0.2,0.1-0.4,0.2-0.6c0.2-0.2,0.4-0.2,0.6-0.3h0c0.5,0,0.9-0.1,1.2-0.2
			c0.3-0.2,0.6-0.4,0.9-0.6c0.2-0.3,0.5-0.6,0.7-0.9c0.2-0.3,0.4-0.7,0.5-1c0.2-0.3,0.3-0.6,0.5-0.9c0.2-0.3,0.3-0.5,0.5-0.8
			c0.5-0.6,1.2-1,1.9-1c0.9,0,1.6,0.4,2.2,1.1c0.5,0.6,0.7,1.3,0.8,2.1c0.1,0.4,0.1,0.8,0,1.2c0,0.4-0.1,0.7-0.3,1.1
			c-0.2,0.4-0.4,0.8-0.7,1s-0.6,0.5-1,0.6c-0.6,0.2-1.4,0.1-2.2-0.2c-0.6-0.2-1.2-0.6-1.8-1c0,0-0.1,0.1-0.1,0.1
			c-0.9,0.9-2,1.3-3.3,1.3h0c-0.2,0-0.4-0.1-0.6-0.2C553,79.4,552.9,79.2,552.9,78.9z M558.2,76.9c0.5,0.4,1,0.7,1.4,0.8
			c0.4,0.2,0.8,0.2,1.1,0.1c0.1,0,0.2-0.1,0.3-0.2c0.1-0.1,0.2-0.3,0.2-0.4c0.1-0.2,0.1-0.4,0.1-0.6c0-0.2,0-0.5,0-0.7
			c0,0,0-0.1,0-0.2c0-0.1-0.1-0.2-0.1-0.3c0-0.1-0.1-0.2-0.2-0.4c-0.1-0.1-0.2-0.2-0.3-0.4c-0.1-0.1-0.2-0.2-0.3-0.3
			c-0.1-0.1-0.3-0.1-0.5-0.1c-0.1,0-0.2,0-0.3,0.1c-0.1,0.1-0.2,0.2-0.3,0.3c-0.1,0.1-0.2,0.3-0.3,0.5c-0.1,0.2-0.2,0.5-0.4,0.7
			L558.2,76.9z"/>
	</g>
</g>
<g>
	<g>
		<path fill="#464545" d="M490.7,599.6c-0.2,0-0.3,0-0.5,0c-0.2,0-0.3,0-0.5,0c-0.6,0-1.2-0.2-1.7-0.4c-0.5-0.2-0.9-0.5-1.1-0.9
			c-0.5-0.7-0.7-1.5-0.5-2.5c0.1-0.5,0.2-0.9,0.4-1.3c0.2-0.4,0.4-0.8,0.6-1.1c0.3-0.4,0.6-0.6,0.9-0.8c0.3-0.2,0.7-0.3,1.1-0.3
			c0.4,0,0.8,0.1,1.2,0.3s0.7,0.5,1.1,0.8c0.3,0.3,0.5,0.7,0.8,1.1c0.2,0.4,0.4,0.9,0.5,1.4c0.1,0.5,0.2,1,0.3,1.5
			c0.1,0.5,0.1,1,0,1.6h0c0,0,0,0.1,0,0.3c0,0.2-0.1,0.4-0.1,0.7c-0.1,0.3-0.1,0.6-0.3,1c-0.1,0.4-0.3,0.7-0.5,1.1
			c-0.2,0.5-0.5,0.9-0.8,1.2s-0.7,0.7-1,0.9c-0.5,0.3-1,0.6-1.6,0.8c-0.6,0.2-1.2,0.2-1.9,0.2h0c-1.1,0-2.1-0.2-3-0.7
			c-0.5-0.2-0.9-0.5-1.2-0.8c-0.4-0.3-0.6-0.7-0.9-1.1c-0.3-0.5-0.5-1-0.6-1.6c-0.1-0.6-0.2-1.2-0.1-1.9c0-0.7,0.2-1.4,0.4-2.1
			c0.2-0.7,0.5-1.4,0.9-2.2l1.5,0.8c-0.3,0.6-0.6,1.2-0.8,1.7c-0.2,0.6-0.3,1.1-0.4,1.6c-0.1,0.5,0,1,0,1.4c0.1,0.4,0.2,0.9,0.5,1.2
			c0.3,0.6,0.8,1,1.5,1.3c0.6,0.3,1.4,0.4,2.2,0.4h0c0.6,0,1.1,0,1.6-0.2s0.9-0.5,1.3-0.8c0.4-0.4,0.7-0.8,0.9-1.3
			c0.2-0.5,0.4-1,0.5-1.5c-0.1,0-0.3,0-0.4,0C491,599.6,490.9,599.6,490.7,599.6z M488.9,589.4l-1.4,1.4l-1.4-1.4l1.4-1.4
			L488.9,589.4z M489.5,594c-0.2,0-0.4,0.2-0.7,0.5c-0.2,0.2-0.3,0.4-0.4,0.7s-0.2,0.6-0.3,0.9c-0.1,0.5,0,0.9,0.2,1.2
			c0.1,0.1,0.2,0.2,0.3,0.3c0.1,0.1,0.3,0.1,0.4,0.2s0.3,0.1,0.4,0.1c0.1,0,0.3,0,0.4,0c0.4,0,0.7,0,1,0c0.3,0,0.6,0,0.8,0
			c0-0.4-0.1-0.7-0.1-1.1c-0.1-0.3-0.2-0.6-0.3-0.9c-0.1-0.3-0.2-0.5-0.4-0.8s-0.3-0.4-0.4-0.6c-0.1-0.1-0.3-0.3-0.4-0.4
			C489.9,594,489.7,594,489.5,594z M492.5,589.4l-1.4,1.4l-1.4-1.4l1.4-1.4L492.5,589.4z"/>
		<path fill="#464545" d="M499.8,599.6c-0.6,0-1.2-0.1-1.6-0.2s-0.8-0.4-1.2-0.7c-0.2-0.2-0.3-0.4-0.4-0.6s-0.2-0.4-0.2-0.7
			c0-0.2-0.1-0.4-0.1-0.6s0-0.4,0-0.5v-0.2c0,0,0-0.1,0-0.3c0-0.2,0-0.5,0-0.8c0-0.4,0-0.8,0-1.2c0-0.5,0-0.9,0-1.5c0-0.5,0-1,0-1.6
			c0-0.5,0-1.1-0.1-1.6c0-0.5-0.1-1-0.1-1.4c0-0.4-0.1-0.8-0.1-1l1.7-0.3c0.1,0.3,0.1,0.7,0.1,1.1c0,0.4,0.1,0.9,0.1,1.4
			c0,0.5,0,1,0.1,1.6c0,0.5,0,1.1,0,1.6c0,0.5,0,1,0,1.5c0,0.5,0,0.9,0,1.3s0,0.7,0,0.9s0,0.4,0,0.4v0.2c0,0.3,0,0.5,0,0.7
			c0,0.2,0.1,0.4,0.2,0.5c0.3,0.3,0.8,0.4,1.5,0.4h0.1c0.1,0,0.2,0,0.3,0.1s0.2,0.1,0.3,0.2s0.1,0.2,0.2,0.3s0.1,0.2,0.1,0.3
			c0,0.2-0.1,0.4-0.3,0.6C500.3,599.5,500.1,599.6,499.8,599.6z"/>
		<path fill="#464545" d="M498.7,598.8c0-0.2,0.1-0.4,0.2-0.6c0.2-0.2,0.4-0.2,0.6-0.2h1c0.2,0,0.4,0,0.7,0c0.2,0,0.5,0,0.7,0
			c0.2,0,0.5-0.1,0.7-0.1c0.2,0,0.5-0.1,0.6-0.2c0.2-0.1,0.4-0.2,0.5-0.3c0.2-0.1,0.3-0.3,0.3-0.4c0.1-0.2,0.1-0.6,0.1-1.1
			c0-0.5-0.2-1-0.4-1.6c-0.1-0.2-0.1-0.4-0.2-0.6c-0.1-0.2-0.2-0.4-0.2-0.6c-0.1-0.2-0.2-0.4-0.3-0.7l1.5-0.8c0,0,0,0.1,0.1,0.2
			c0.1,0.1,0.1,0.3,0.2,0.5s0.2,0.4,0.3,0.7c0.1,0.3,0.2,0.5,0.3,0.8c0.5,1.7,0.6,3,0.2,3.9c-0.4,0.9-1.1,1.5-2.2,1.8
			c-0.2,0-0.4,0.1-0.6,0.1c-0.2,0-0.5,0-0.7,0.1c-0.3,0-0.5,0-0.7,0c-0.2,0-0.4,0-0.5,0h-1.3h-0.1c-0.2,0-0.4-0.1-0.6-0.2
			C498.7,599.2,498.7,599,498.7,598.8z M503.1,588.8l-1.4,1.4l-1.4-1.4l1.4-1.4L503.1,588.8z M506.7,588.8l-1.4,1.4l-1.4-1.4
			l1.4-1.4L506.7,588.8z"/>
		<path fill="#464545" d="M510,585.9c0.3,2.4,0.4,4.5,0.4,6.3c0.1,3.1,0,5.6-0.1,7.5l-1.7-0.1c0.2-2.6,0.2-4.7,0.2-6.5
			c-0.1-2.8-0.3-5.1-0.5-7L510,585.9z"/>
		<path fill="#464545" d="M533.8,597.5C533.8,597.5,533.7,597.6,533.8,597.5c-0.1,0.1-0.1,0.2-0.2,0.2c0.4,0.1,0.7,0.1,1.1,0.2
			c0.4,0,0.7,0.1,1.1,0.1c0.2,0,0.4,0.1,0.6,0.2c0.2,0.2,0.3,0.4,0.3,0.6c0,0.1,0,0.2-0.1,0.3c0,0.1-0.1,0.2-0.2,0.3
			c-0.1,0.1-0.2,0.1-0.3,0.2s-0.2,0.1-0.3,0.1c-0.7,0-1.5-0.1-2.2-0.2c-0.7-0.1-1.3-0.3-1.9-0.5c-0.1,0-0.2,0.1-0.3,0.1
			s-0.2,0.1-0.3,0.1c-0.3,0.1-0.6,0.2-1,0.3s-0.8,0.1-1.3,0.2c-0.5,0.1-1,0.1-1.5,0.1c-0.5,0-1,0-1.6,0c-1.8,0-3.2-0.2-4.4-0.7
			c-1.2-0.4-2-1.1-2.5-2c-0.2-0.4-0.4-0.8-0.5-1.2c-0.1-0.4-0.1-0.8-0.1-1.2c0-0.4,0.1-0.7,0.1-1.1c0.1-0.3,0.2-0.6,0.3-0.9
			c0.1-0.3,0.2-0.5,0.3-0.6c0.1-0.2,0.1-0.3,0.1-0.3l1.5,0.8c0,0,0,0.1-0.1,0.2c-0.1,0.1-0.1,0.3-0.2,0.4c-0.1,0.2-0.1,0.4-0.2,0.6
			c-0.1,0.2-0.1,0.5-0.1,0.7c0,0.3,0,0.5,0,0.8s0.1,0.5,0.3,0.8c0.2,0.3,0.4,0.5,0.7,0.8c0.3,0.2,0.6,0.4,1,0.6
			c0.4,0.1,0.9,0.3,1.4,0.3c0.5,0.1,1.2,0.1,1.9,0.1c0.5,0,1,0,1.4,0c0.4,0,0.8,0,1.1-0.1c0.3,0,0.6-0.1,0.9-0.1
			c0.3,0,0.5-0.1,0.7-0.1c-0.8-0.7-1.2-1.4-1.2-2.3c0-0.5,0.1-1.1,0.2-1.5c0.2-0.5,0.4-0.9,0.7-1.3c0.3-0.4,0.7-0.7,1.1-0.9
			c0.4-0.2,0.8-0.3,1.3-0.3c0.4,0,0.8,0.1,1.1,0.2c0.3,0.1,0.7,0.4,0.9,0.6c0.1,0.1,0.2,0.2,0.3,0.4c0.1,0.2,0.2,0.3,0.3,0.6
			c0.1,0.2,0.2,0.5,0.2,0.7s0.1,0.6,0.1,0.9C534.5,596,534.3,596.8,533.8,597.5z M531.6,597.1c0.2-0.1,0.5-0.3,0.6-0.5
			c0.2-0.2,0.3-0.3,0.4-0.5c0.1-0.2,0.1-0.4,0.2-0.6c0-0.2,0-0.4,0-0.6c0-0.4-0.1-0.7-0.2-1c-0.1-0.2-0.2-0.4-0.4-0.5
			c-0.1-0.1-0.3-0.2-0.4-0.2c-0.1,0-0.2,0-0.3,0c-0.2,0-0.3,0.1-0.5,0.2c-0.2,0.1-0.4,0.3-0.5,0.5c-0.2,0.2-0.3,0.4-0.4,0.7
			c-0.1,0.3-0.2,0.6-0.2,1c0,0.3,0.1,0.5,0.4,0.8c0.3,0.3,0.6,0.5,1.1,0.7L531.6,597.1z M533,588l-1.4,1.4l-1.4-1.4l1.4-1.4L533,588
			z"/>
		<path fill="#464545" d="M534.9,598.8c0-0.2,0.1-0.4,0.3-0.6s0.4-0.2,0.7-0.2h0.9c0.3,0,0.7,0,1.1,0s0.7,0,1.1-0.1s0.7-0.2,0.9-0.3
			c0.3-0.1,0.5-0.3,0.7-0.6c0.2-0.3,0.3-0.6,0.3-0.9c0-0.3,0-0.7-0.1-1.1c-0.1-0.2-0.2-0.5-0.5-0.9c-0.3-0.4-0.6-0.8-0.9-1.2
			s-0.8-0.9-1.2-1.3c-0.5-0.4-0.9-0.9-1.4-1.2l0.2-1.8l7.1-3.1l0.7,1.6l-6.2,2.6c0.3,0.2,0.6,0.5,0.9,0.8s0.7,0.6,1,1
			c0.4,0.5,0.8,1,1.1,1.4s0.5,0.9,0.7,1.3c0.2,0.4,0.3,0.8,0.3,1.1s0.1,0.7,0,1s-0.1,0.6-0.2,0.9s-0.2,0.5-0.3,0.7
			c-0.5,0.9-1.4,1.5-2.6,1.7c-0.2,0-0.5,0.1-0.8,0.1h-2.8c-0.3,0-0.5-0.1-0.7-0.2C535,599.2,534.9,599,534.9,598.8z"/>
	</g>
</g>
<g>
	<g>
		<path fill="#464545" d="M237.3,545.5c0.1,0.5,0.2,1,0.2,1.5c0.1,0.4,0.1,0.9,0.1,1.2c0,1.2-0.2,2-0.7,2.6
			c-0.2,0.3-0.5,0.5-0.8,0.6c-0.3,0.1-0.7,0.2-1.1,0.2c-0.2,0-0.3,0-0.5-0.1c-0.2,0-0.3-0.1-0.5-0.2c-0.2-0.1-0.4-0.2-0.5-0.3
			c-0.2-0.1-0.3-0.3-0.5-0.5l-0.2,0.3c-0.3,0.3-0.6,0.6-0.9,0.7c-0.3,0.2-0.7,0.3-1.2,0.3c-0.2,0-0.4,0-0.6,0s-0.4-0.1-0.5-0.1
			c0,0.1,0,0.2,0,0.2s0,0.1,0,0.2c0.1,0.6,0.1,1.2,0.2,1.8c0,0.6,0.1,1.2,0.1,1.8c0,0.6,0,1.2,0.1,1.8c0,0.6,0,1.1,0,1.7H228
			c0-0.2,0-0.5,0-0.8c0-0.3,0-0.5,0-0.8c0-0.9,0-1.7-0.1-2.6c-0.1-0.8-0.2-1.7-0.3-2.4s-0.3-1.5-0.5-2.3s-0.4-1.4-0.6-2
			c0,0,0-0.1-0.1-0.1c0,0,0,0,0-0.1c-0.1-0.2-0.2-0.5-0.3-0.7c-0.1-0.2-0.2-0.5-0.4-0.7l1.7-1c0,0.1,0.1,0.2,0.2,0.3
			c0.1,0.1,0.1,0.2,0.2,0.3c0.1,0.1,0.1,0.2,0.2,0.4c0.1,0.1,0.1,0.3,0.2,0.4c0.1,0.3,0.3,0.6,0.4,0.9c0.2,0.4,0.3,0.7,0.4,0.9
			c0.1,0.3,0.3,0.5,0.4,0.6s0.3,0.3,0.5,0.3c0.2,0.1,0.4,0.1,0.7,0.1c0.2,0,0.4,0,0.5-0.1s0.2-0.2,0.3-0.3c0.2-0.2,0.3-0.5,0.4-0.8
			c0.1-0.4,0.2-0.8,0.2-1.3c0-0.1,0-0.2,0-0.4c0-0.2,0-0.3,0-0.5s0-0.4,0-0.5c0-0.2,0-0.3,0-0.3l1.8-0.2c0,0,0,0,0,0.1s0,0.1,0,0.1
			c0,0.1,0,0.2,0,0.3c0,0.1,0,0.3,0,0.5c0,0.4,0.1,0.8,0.2,1.2c0.1,0.4,0.1,0.8,0.2,1.1c0.1,0.2,0.2,0.4,0.2,0.5s0.2,0.2,0.2,0.3
			c0.1,0.1,0.1,0.1,0.2,0.1c0.1,0,0.1,0,0.1,0c0.2,0,0.3,0,0.3-0.1c0.1,0,0.1-0.1,0.2-0.1c0,0,0.1-0.1,0.1-0.2
			c0-0.1,0.1-0.2,0.1-0.3c0-0.1,0.1-0.3,0.1-0.4s0-0.4,0-0.6c0-0.3,0-0.6-0.1-1s-0.1-0.8-0.2-1.4L237.3,545.5z"/>
	</g>
</g>
<g>
	<g>
		<path fill="#464545" d="M59.4,306c0,0,0,0.1,0,0.2c0,0.1,0,0.2,0.1,0.4c0,0.2,0,0.4,0,0.6c0,0.2,0,0.5,0,0.7c0,1.4-0.4,2.5-1,3.2
			v0c-0.3,0.4-0.7,0.7-1.1,0.8c-0.4,0.2-0.9,0.3-1.4,0.3c-0.3,0-0.5,0-0.8-0.1c-0.2,0-0.5-0.1-0.7-0.2c0,0.1,0,0.2,0,0.3
			s0,0.2,0,0.3c0.1,0.6,0.1,1.2,0.2,1.8c0,0.6,0.1,1.2,0.1,1.8c0,0.6,0,1.2,0.1,1.8c0,0.6,0,1.1,0,1.7h-1.8c0-1,0-1.9,0-2.9
			c0-1-0.1-1.9-0.1-2.8s-0.2-1.8-0.4-2.6c-0.2-0.8-0.4-1.6-0.6-2.3c-0.1-0.3-0.3-0.6-0.4-0.9s-0.3-0.6-0.5-0.9l1.5-1
			c0.1,0.2,0.2,0.3,0.3,0.5c0.1,0.2,0.2,0.3,0.2,0.5s0.2,0.4,0.2,0.6c0.1,0.2,0.2,0.4,0.3,0.6c0.1,0.3,0.3,0.6,0.4,0.9
			c0.1,0.3,0.3,0.5,0.5,0.7c0.2,0.2,0.4,0.3,0.6,0.4s0.5,0.2,0.9,0.2c0.3,0,0.5,0,0.7-0.1s0.3-0.2,0.5-0.4c0.1-0.1,0.2-0.3,0.3-0.5
			c0.1-0.2,0.1-0.4,0.2-0.6c0-0.2,0.1-0.4,0.1-0.6c0-0.2,0-0.4,0-0.6c0-0.3,0-0.5,0-0.8c0-0.2-0.1-0.4-0.1-0.6L59.4,306z"/>
	</g>
</g>
<g>
	<g>
		<path fill="#464545" d="M14.4,319.6c0-1.2,0-2.4-0.1-3.5c0-1.2-0.1-2.3-0.3-3.4c-0.1-1.1-0.4-2.1-0.6-3c-0.3-0.9-0.6-1.8-1.1-2.5
			l1.5-1c0.5,0.8,0.9,1.7,1.2,2.8c0.3,1.1,0.6,2.2,0.8,3.6c0.1,0.6,0.1,1.2,0.2,1.8c0,0.6,0.1,1.2,0.1,1.8c0,0.6,0,1.2,0.1,1.8
			c0,0.6,0,1.1,0,1.7H14.4z"/>
	</g>
</g>
<g>
	<g>
		<path fill="#464545" d="M127.7,103.5c0,0.4-0.1,0.8-0.2,1.2c-0.1,0.4-0.3,0.7-0.5,1.1c-0.2,0.4-0.5,0.7-0.8,1
			c-0.3,0.3-0.6,0.6-0.9,0.9c-0.3,0.3-0.7,0.5-1.1,0.8s-0.8,0.5-1.2,0.7l-0.6-1.2c0.3-0.2,0.7-0.4,1-0.6c0.3-0.2,0.6-0.4,0.9-0.7
			c0.3-0.2,0.6-0.5,0.8-0.8c0.2-0.3,0.5-0.5,0.6-0.8s0.3-0.6,0.4-0.9c0.1-0.3,0.1-0.6,0.1-1v0c0-0.3-0.1-0.5-0.1-0.9
			c-0.1-0.3-0.1-0.6-0.2-0.9c-0.1-0.3-0.2-0.6-0.2-0.8c-0.1-0.3-0.1-0.5-0.2-0.6l1.3-0.4c0.2,0.5,0.3,1,0.5,1.4
			c0.2,0.4,0.3,0.7,0.5,0.9c0.2,0.2,0.4,0.4,0.6,0.5s0.4,0.2,0.6,0.2h0c0.1,0,0.2,0,0.3,0.1s0.2,0.1,0.2,0.1s0.1,0.1,0.1,0.2
			c0,0.1,0.1,0.2,0.1,0.3c0,0.2-0.1,0.4-0.2,0.5c-0.1,0.1-0.3,0.2-0.5,0.2h0c-0.1,0-0.1,0-0.3,0c-0.1,0-0.2,0-0.3-0.1
			c-0.1,0-0.3-0.1-0.4-0.2C127.9,103.7,127.8,103.6,127.7,103.5L127.7,103.5z"/>
		<path fill="#464545" d="M128.3,103.3c0-0.2,0.1-0.4,0.2-0.5c0.1-0.1,0.3-0.2,0.5-0.2h0.5c0.4,0,0.8,0,1.1-0.1
			c0.4,0,0.7-0.1,0.9-0.3c0.3-0.1,0.5-0.3,0.6-0.5c0.2-0.2,0.2-0.5,0.2-0.8c0-0.3,0-0.5-0.1-0.8c0-0.3-0.1-0.6-0.2-1l1.3-0.4
			c0,0.2,0.1,0.3,0.1,0.5c0,0.2,0.1,0.4,0.1,0.5s0.1,0.4,0.1,0.6c0,0.2,0,0.4,0,0.6c0,0.2,0,0.4,0.1,0.5c0,0.2,0.1,0.4,0.2,0.5
			c0.1,0.2,0.2,0.3,0.3,0.4c0.1,0.1,0.3,0.2,0.6,0.2c0.2,0,0.4,0.1,0.5,0.2c0.1,0.1,0.2,0.3,0.2,0.5c0,0.1,0,0.2-0.1,0.3
			c0,0.1-0.1,0.2-0.1,0.2c-0.1,0.1-0.1,0.1-0.2,0.1s-0.2,0.1-0.3,0.1c-0.5,0-0.9-0.1-1.2-0.3c-0.3-0.2-0.6-0.4-0.8-0.6
			c-0.2,0.2-0.4,0.3-0.6,0.4c-0.3,0.1-0.6,0.2-0.9,0.3c-0.3,0.1-0.7,0.1-1,0.2c-0.3,0-0.7,0-1,0h-0.5c-0.2,0-0.4-0.1-0.5-0.2
			S128.3,103.5,128.3,103.3z M131.8,96.4l-1.1,1.1l-1.1-1.1l1.1-1.1L131.8,96.4z M134.6,96.4l-1.1,1.1l-1.1-1.1l1.1-1.1L134.6,96.4z
			"/>
		<path fill="#464545" d="M143.2,102.6c0.2,0,0.4,0.1,0.5,0.2c0.1,0.1,0.2,0.3,0.2,0.5c0,0.2-0.1,0.4-0.2,0.5
			c-0.1,0.1-0.3,0.2-0.5,0.2c-0.7,0-1.2-0.2-1.6-0.7c-0.4,0.5-0.9,0.7-1.4,0.6c-0.9-0.1-1.8-0.5-2.7-1.1c-0.1,0.2-0.3,0.4-0.6,0.6
			c-0.5,0.4-1.2,0.6-1.9,0.6c-0.2,0-0.4-0.1-0.5-0.2c-0.1-0.1-0.2-0.3-0.2-0.5c0-0.2,0.1-0.3,0.2-0.5c0.1-0.1,0.3-0.2,0.5-0.2
			c0.7,0,1.2-0.3,1.7-1c0.2-0.2,0.3-0.5,0.5-0.8c0.1-0.1,0.1-0.2,0.2-0.4l0-0.1l0-0.1c0-0.1,0.1-0.1,0.1-0.1l0.2-0.3
			c0.1-0.1,0.1-0.2,0.2-0.3c0.1-0.2,0.3-0.4,0.4-0.6c0.4-0.4,0.8-0.6,1.4-0.6c0.6,0,1.2,0.3,1.6,0.8c0.4,0.5,0.7,1.1,0.8,1.8
			c0,0.2,0,0.4,0,0.7c0,0.3,0.1,0.6,0.3,0.8C142.7,102.5,142.9,102.6,143.2,102.6z M140,102.6c0.4,0.1,0.6,0,0.8-0.2
			c0.1-0.2,0.2-0.4,0.2-0.8c0-0.1,0-0.2,0-0.3l0-0.1c0-0.4-0.2-0.8-0.4-1.1c-0.2-0.3-0.5-0.5-0.8-0.5c-0.2,0-0.5,0.3-0.8,0.8
			c-0.1,0.2-0.2,0.4-0.3,0.7l-0.1,0.2l-0.1,0.2c-0.1,0.1-0.1,0.2-0.1,0.3C139,102.2,139.6,102.5,140,102.6z"/>
		<path fill="#464545" d="M142.5,103.3c0-0.2,0.1-0.4,0.2-0.5c0.1-0.1,0.3-0.2,0.5-0.2h0.5c0.4,0,0.8,0,1.1-0.1
			c0.4,0,0.7-0.1,0.9-0.3c0.3-0.1,0.5-0.3,0.6-0.5c0.2-0.2,0.2-0.5,0.2-0.8c0-0.3,0-0.5-0.1-0.8c0-0.3-0.1-0.6-0.2-1l1.3-0.4
			c0,0.2,0.1,0.3,0.1,0.5c0,0.2,0.1,0.4,0.1,0.5s0.1,0.4,0.1,0.6c0,0.2,0,0.4,0,0.6c0,0.2,0,0.4,0.1,0.5c0,0.2,0.1,0.4,0.2,0.5
			c0.1,0.2,0.2,0.3,0.3,0.4c0.1,0.1,0.3,0.2,0.6,0.2c0.2,0,0.4,0.1,0.5,0.2c0.1,0.1,0.2,0.3,0.2,0.5c0,0.1,0,0.2-0.1,0.3
			c0,0.1-0.1,0.2-0.1,0.2c-0.1,0.1-0.1,0.1-0.2,0.1s-0.2,0.1-0.3,0.1c-0.5,0-0.9-0.1-1.2-0.3c-0.3-0.2-0.6-0.4-0.8-0.6
			c-0.2,0.2-0.4,0.3-0.6,0.4c-0.3,0.1-0.6,0.2-0.9,0.3c-0.3,0.1-0.7,0.1-1,0.2c-0.3,0-0.7,0-1,0h-0.5c-0.2,0-0.4-0.1-0.5-0.2
			S142.5,103.5,142.5,103.3z M145.4,106.6l-1.1,1.1l-1.1-1.1l1.1-1.1L145.4,106.6z M148.2,106.6l-1.1,1.1l-1.1-1.1l1.1-1.1
			L148.2,106.6z"/>
		<path fill="#464545" d="M148.5,103.3c0-0.2,0.1-0.4,0.2-0.5c0.1-0.1,0.3-0.2,0.5-0.2h0.5c0.4,0,0.8,0,1.1-0.1
			c0.4,0,0.7-0.1,0.9-0.3c0.3-0.1,0.5-0.3,0.6-0.5c0.2-0.2,0.2-0.5,0.2-0.8c0-0.3,0-0.5-0.1-0.8c0-0.3-0.1-0.6-0.2-1l1.3-0.4
			c0,0.2,0.1,0.3,0.1,0.5c0,0.2,0.1,0.4,0.1,0.5s0.1,0.4,0.1,0.6c0,0.2,0,0.4,0,0.6c0,0.2,0,0.4,0.1,0.5c0,0.2,0.1,0.4,0.2,0.5
			c0.1,0.2,0.2,0.3,0.3,0.4c0.1,0.1,0.3,0.2,0.6,0.2c0.2,0,0.4,0.1,0.5,0.2c0.1,0.1,0.2,0.3,0.2,0.5c0,0.1,0,0.2-0.1,0.3
			c0,0.1-0.1,0.2-0.1,0.2c-0.1,0.1-0.1,0.1-0.2,0.1s-0.2,0.1-0.3,0.1c-0.5,0-0.9-0.1-1.2-0.3c-0.3-0.2-0.6-0.4-0.8-0.6
			c-0.2,0.2-0.4,0.3-0.6,0.4c-0.3,0.1-0.6,0.2-0.9,0.3c-0.3,0.1-0.7,0.1-1,0.2c-0.3,0-0.7,0-1,0h-0.5c-0.2,0-0.4-0.1-0.5-0.2
			S148.5,103.5,148.5,103.3z M152,96.4l-1.1,1.1l-1.1-1.1l1.1-1.1L152,96.4z M154.9,96.4l-1.1,1.1l-1.1-1.1l1.1-1.1L154.9,96.4z"/>
		<path fill="#464545" d="M154.5,103.3c0-0.2,0.1-0.4,0.2-0.5s0.3-0.2,0.5-0.2h0.7c0.2,0,0.5,0,0.7,0c0.2,0,0.4,0,0.6-0.1
			s0.4-0.1,0.5-0.3s0.3-0.3,0.4-0.5c0.1-0.2,0.1-0.5,0.1-0.9c0-0.4-0.1-0.8-0.3-1.3c-0.1-0.1-0.1-0.3-0.2-0.5s-0.1-0.3-0.2-0.5
			c-0.1-0.2-0.2-0.4-0.2-0.5l1.2-0.6c0,0,0,0.1,0.1,0.1c0,0.1,0.1,0.2,0.2,0.4c0.1,0.2,0.1,0.3,0.2,0.5c0.1,0.2,0.2,0.4,0.2,0.6
			c0.4,1.3,0.5,2.4,0.2,3.1c-0.3,0.7-0.9,1.2-1.8,1.5c-0.3,0.1-0.5,0.1-0.7,0.1c-0.2,0-0.5,0-0.7,0h-1h-0.1c-0.2,0-0.4-0.1-0.5-0.2
			S154.5,103.5,154.5,103.3z M158.7,95.3l-1.1,1.1l-1.1-1.1l1.1-1.1L158.7,95.3z"/>
		<path fill="#464545" d="M164.5,104c-0.5,0-0.9-0.1-1.3-0.2s-0.7-0.3-0.9-0.6c-0.2-0.2-0.3-0.3-0.4-0.5s-0.1-0.4-0.2-0.5
			c0-0.2-0.1-0.3-0.1-0.5c0-0.2,0-0.3,0-0.4v-0.1c0,0,0-0.1,0-0.3c0-0.2,0-0.4,0-0.7c0-0.3,0-0.6,0-1c0-0.4,0-0.8,0-1.2
			c0-0.4,0-0.8,0-1.2s0-0.8,0-1.3c0-0.4,0-0.8-0.1-1.1c0-0.3-0.1-0.6-0.1-0.8l1.4-0.3c0,0.2,0.1,0.5,0.1,0.9c0,0.3,0.1,0.7,0.1,1.1
			c0,0.4,0,0.8,0,1.3c0,0.4,0,0.9,0,1.3c0,0.4,0,0.8,0,1.2s0,0.7,0,1c0,0.3,0,0.5,0,0.7c0,0.2,0,0.3,0,0.3v0.1c0,0.2,0,0.4,0,0.5
			s0.1,0.3,0.2,0.4c0.2,0.2,0.6,0.3,1.2,0.3h0.1c0.1,0,0.2,0,0.3,0.1s0.2,0.1,0.2,0.1c0.1,0.1,0.1,0.1,0.1,0.2s0.1,0.2,0.1,0.3
			c0,0.2-0.1,0.4-0.2,0.5C164.9,103.9,164.7,104,164.5,104z"/>
		<path fill="#464545" d="M163.9,103.3c0-0.1,0-0.2,0-0.3c0-0.1,0.1-0.2,0.1-0.2c0.1-0.1,0.1-0.1,0.2-0.1c0.1,0,0.2-0.1,0.3-0.1
			c0.3,0,0.5-0.1,0.7-0.2c0.2-0.1,0.4-0.2,0.6-0.4c0.2-0.2,0.3-0.4,0.4-0.6s0.2-0.5,0.3-0.7c0.1-0.3,0.2-0.5,0.2-0.8
			s0.1-0.5,0.2-0.7l1.4,0.3c0,0.1-0.1,0.3-0.1,0.4s-0.1,0.4-0.2,0.6c-0.1,0.2-0.1,0.4-0.1,0.6s-0.1,0.4-0.1,0.6c0,0.1,0,0.2,0,0.4
			c0,0.1,0.1,0.2,0.1,0.3s0.1,0.2,0.2,0.2c0.1,0.1,0.2,0.1,0.4,0.1c0.2,0,0.4-0.1,0.6-0.2s0.4-0.3,0.5-0.5c0.1-0.2,0.3-0.4,0.4-0.7
			c0.1-0.3,0.2-0.5,0.3-0.8c0.1-0.3,0.1-0.5,0.2-0.8c0.1-0.3,0.1-0.5,0.1-0.7l1.3,0.2c-0.1,0.3-0.1,0.6-0.1,0.8s-0.1,0.4-0.1,0.7
			c0,0.2,0,0.5,0,0.7c0,0.2,0,0.3,0,0.5s0.1,0.3,0.1,0.4c0.1,0.1,0.1,0.2,0.2,0.3s0.2,0.1,0.4,0.1c0.2,0,0.4,0,0.5,0
			c0.1,0,0.3-0.1,0.3-0.1s0.1-0.1,0.2-0.2c0-0.1,0.1-0.1,0.1-0.1h0c0.1-0.1,0.1-0.2,0.1-0.3s0-0.3,0-0.4c0-0.3,0-0.5-0.1-0.9
			c-0.1-0.3-0.2-0.6-0.3-0.9c-0.1-0.3-0.2-0.6-0.3-0.8c-0.1-0.3-0.2-0.5-0.3-0.6l1.2-0.6c0,0,0.1,0.1,0.1,0.3s0.1,0.3,0.2,0.5
			c0.1,0.2,0.2,0.4,0.3,0.7c0.1,0.2,0.2,0.5,0.2,0.8c0.1,0.3,0.1,0.5,0.2,0.8c0,0.3,0.1,0.5,0.1,0.8c0,0.4-0.1,0.8-0.2,1.1
			s-0.3,0.6-0.5,0.8s-0.5,0.4-0.8,0.5c-0.3,0.1-0.7,0.2-1.2,0.2c-0.2,0-0.4,0-0.5-0.1s-0.3-0.1-0.5-0.2c-0.2-0.1-0.3-0.2-0.5-0.3
			s-0.3-0.3-0.4-0.4c-0.3,0.3-0.6,0.6-0.9,0.8c-0.4,0.2-0.7,0.3-1.1,0.3c-0.2,0-0.3,0-0.5-0.1c-0.2,0-0.4-0.1-0.5-0.2
			c-0.2-0.1-0.3-0.2-0.5-0.3c-0.1-0.1-0.2-0.3-0.3-0.5c-0.3,0.3-0.6,0.5-0.9,0.7c-0.4,0.2-0.8,0.3-1.3,0.3h-0.1
			c-0.1,0-0.2,0-0.3-0.1c-0.1,0-0.1-0.1-0.2-0.1s-0.1-0.1-0.1-0.2C163.9,103.5,163.9,103.4,163.9,103.3z"/>
	</g>
</g>
</svg>
