<?xml version="1.0" encoding="utf-8"?>
<!-- Generator: Adobe Illustrator 18.0.0, SVG Export Plug-In . SVG Version: 6.00 Build 0)  -->
<!DOCTYPE svg PUBLIC "-//W3C//DTD SVG 1.1//EN" "http://www.w3.org/Graphics/SVG/1.1/DTD/svg11.dtd">
<svg version="1.1" id="Layer_1" xmlns="http://www.w3.org/2000/svg" xmlns:xlink="http://www.w3.org/1999/xlink" x="0px" y="0px"
	 width="176px" height="243px" viewBox="0 0 470.3 648.7" enable-background="new 0 0 470.3 648.7" xml:space="preserve">
<g>
	<rect x="79.9" y="176.7" fill="none" stroke="#616261" stroke-width="3" stroke-miterlimit="10" width="280.2" height="389"/>
	<rect x="103" y="199.8" fill="none" stroke="#616261" stroke-width="3" stroke-miterlimit="10" width="234" height="342.8"/>
</g>
<text transform="matrix(1 0 0 1 121.9527 18.692)" fill="#464545" font-family="'ProximaNova-Regular'" font-size="24">A</text>
<text transform="matrix(1 0 0 1 212.4534 18.692)" fill="#464545" font-family="'ProximaNova-Regular'" font-size="24">B</text>
<text transform="matrix(1 0 0 1 303.0972 18.692)" fill="#464545" font-family="'ProximaNova-Regular'" font-size="24">C</text>
<g>
	<g>
		<line fill="none" stroke="#464545" stroke-width="3" x1="311.2" y1="82.6" x2="311.2" y2="552.8"/>
		<g>
			<polygon fill="#464545" points="302.2,85.2 311.2,69.7 320.2,85.2 			"/>
		</g>
		<g>
			<polygon fill="#464545" points="302.2,550.1 311.2,565.7 320.2,550.1 			"/>
		</g>
	</g>
</g>
<g>
	<g>
		<line fill="none" stroke="#464545" stroke-width="3" x1="220" y1="82.6" x2="220" y2="552.8"/>
		<g>
			<polygon fill="#464545" points="211,85.2 220,69.7 229,85.2 			"/>
		</g>
		<g>
			<polygon fill="#464545" points="211,550.1 220,565.7 229,550.1 			"/>
		</g>
	</g>
</g>
<g>
	<g>
		<line fill="none" stroke="#464545" stroke-width="3" x1="129.8" y1="82.6" x2="129.8" y2="552.8"/>
		<g>
			<polygon fill="#464545" points="120.9,85.2 129.8,69.7 138.8,85.2 			"/>
		</g>
		<g>
			<polygon fill="#464545" points="120.9,550.1 129.8,565.7 138.8,550.1 			"/>
		</g>
	</g>
</g>
<line fill="none" stroke="#464545" stroke-width="3" x1="0" y1="645.2" x2="419.3" y2="645.2"/>
<g>
	<path fill="#464545" d="M425.6,648.2v-9.3h6.1v1h-5v3h4.9v1h-4.9v4.3H425.6z"/>
	<path fill="#464545" d="M433.1,648.2v-9.3h1.2v8.3h4.3v1H433.1z"/>
	<path fill="#464545" d="M440.4,646c-0.4-0.7-0.6-1.6-0.6-2.5s0.2-1.7,0.6-2.5c0.4-0.7,0.9-1.3,1.6-1.7c0.7-0.4,1.5-0.6,2.4-0.6
		c0.9,0,1.7,0.2,2.4,0.6c0.7,0.4,1.3,1,1.6,1.7c0.4,0.7,0.6,1.6,0.6,2.5s-0.2,1.7-0.6,2.5c-0.4,0.7-0.9,1.3-1.6,1.7
		c-0.7,0.4-1.5,0.6-2.4,0.6c-0.9,0-1.7-0.2-2.4-0.6C441.3,647.3,440.7,646.7,440.4,646z M441,643.5c0,0.7,0.1,1.4,0.4,1.9
		s0.7,1,1.2,1.4c0.5,0.3,1.1,0.5,1.8,0.5c0.7,0,1.3-0.2,1.8-0.5c0.5-0.3,0.9-0.8,1.2-1.4s0.4-1.2,0.4-1.9c0-1.1-0.3-2-1-2.7
		c-0.6-0.7-1.5-1.1-2.5-1.1c-1,0-1.9,0.4-2.5,1.1S441,642.4,441,643.5z"/>
	<path fill="#464545" d="M451.1,646c-0.4-0.7-0.6-1.6-0.6-2.5s0.2-1.7,0.6-2.5c0.4-0.7,0.9-1.3,1.6-1.7c0.7-0.4,1.5-0.6,2.4-0.6
		c0.9,0,1.7,0.2,2.4,0.6c0.7,0.4,1.3,1,1.6,1.7c0.4,0.7,0.6,1.6,0.6,2.5s-0.2,1.7-0.6,2.5c-0.4,0.7-0.9,1.3-1.6,1.7
		c-0.7,0.4-1.5,0.6-2.4,0.6c-0.9,0-1.7-0.2-2.4-0.6C452,647.3,451.4,646.7,451.1,646z M451.7,643.5c0,0.7,0.1,1.4,0.4,1.9
		s0.7,1,1.2,1.4c0.5,0.3,1.1,0.5,1.8,0.5c0.7,0,1.3-0.2,1.8-0.5c0.5-0.3,0.9-0.8,1.2-1.4s0.4-1.2,0.4-1.9c0-1.1-0.3-2-1-2.7
		c-0.6-0.7-1.5-1.1-2.5-1.1c-1,0-1.9,0.4-2.5,1.1S451.7,642.4,451.7,643.5z"/>
	<path fill="#464545" d="M461.6,648.2v-9.3h3.8c0.9,0,1.6,0.3,2.1,0.8c0.5,0.5,0.8,1.2,0.8,2c0,0.4-0.1,0.8-0.2,1.1
		c-0.1,0.3-0.3,0.6-0.5,0.8s-0.5,0.4-0.8,0.5c-0.3,0.1-0.6,0.2-0.9,0.2l2.5,3.8H467l-2.4-3.7h-1.9v3.7H461.6z M462.7,643.5h2.4
		c0.6,0,1-0.2,1.4-0.5s0.5-0.8,0.5-1.3s-0.2-1-0.5-1.3c-0.3-0.3-0.8-0.5-1.4-0.5h-2.4V643.5z"/>
</g>
<line fill="none" stroke="#464545" stroke-width="3" x1="0" y1="67.7" x2="412.1" y2="67.7"/>
<g>
	<path fill="#464545" d="M415.6,69.6c-0.3-0.6-0.4-1.4-0.4-2.1s0.1-1.5,0.4-2.1c0.3-0.6,0.6-1.2,1.1-1.6c0.5-0.4,1-0.8,1.6-1.1
		c0.6-0.3,1.3-0.4,2-0.4c1.6,0,2.9,0.7,3.8,2l-1,0.6c-0.3-0.4-0.7-0.8-1.2-1.1c-0.5-0.3-1-0.4-1.6-0.4c-1.1,0-2,0.4-2.8,1.1
		c-0.7,0.8-1.1,1.7-1.1,2.9c0,0.8,0.2,1.5,0.5,2.1c0.3,0.6,0.8,1.1,1.4,1.5c0.6,0.3,1.2,0.5,2,0.5c0.6,0,1.1-0.1,1.6-0.4
		s0.9-0.6,1.2-1.1l1,0.6c-1,1.3-2.2,2-3.8,2c-0.7,0-1.4-0.1-2-0.4c-0.6-0.3-1.2-0.6-1.6-1.1C416.3,70.8,415.9,70.2,415.6,69.6z"/>
	<path fill="#464545" d="M425.8,72.4v-10h6.6v1.1H427v3.2h5.2v1.1H427v3.4h5.3v1.1H425.8z"/>
	<path fill="#464545" d="M434.3,72.4v-10h1.2v10H434.3z"/>
	<path fill="#464545" d="M437.7,72.4v-10h1.2v8.9h4.7v1.1H437.7z"/>
	<path fill="#464545" d="M445.3,72.4v-10h1.2v10H445.3z"/>
	<path fill="#464545" d="M448.9,72.4v-10h1.3l5.8,7.8v-7.8h1.2v10h-1.2l-5.8-8v8H448.9z"/>
	<path fill="#464545" d="M459.5,69.6c-0.3-0.7-0.4-1.4-0.4-2.1s0.1-1.5,0.4-2.1c0.3-0.7,0.6-1.2,1.1-1.6c0.5-0.4,1-0.8,1.6-1
		c0.6-0.2,1.3-0.4,2-0.4c1.6,0,2.9,0.6,3.9,1.9l-1,0.6c-0.3-0.4-0.7-0.8-1.3-1c-0.5-0.2-1.1-0.4-1.6-0.4c-1.1,0-2,0.4-2.8,1.1
		c-0.7,0.8-1.1,1.7-1.1,2.9c0,0.8,0.2,1.5,0.5,2.1c0.3,0.6,0.8,1.1,1.4,1.5c0.6,0.3,1.2,0.5,2,0.5c0.6,0,1.1-0.1,1.5-0.3
		c0.5-0.2,0.9-0.5,1.2-0.8v-2h-3.4v-1.1h4.7v3.6c-0.5,0.5-1.1,1-1.7,1.3c-0.7,0.3-1.4,0.5-2.2,0.5c-0.7,0-1.4-0.1-2-0.4
		c-0.6-0.3-1.2-0.6-1.6-1C460.1,70.8,459.7,70.2,459.5,69.6z"/>
</g>
</svg>
