<?xml version="1.0" encoding="utf-8"?>
<!-- Generator: Adobe Illustrator 18.0.0, SVG Export Plug-In . SVG Version: 6.00 Build 0)  -->
<!DOCTYPE svg PUBLIC "-//W3C//DTD SVG 1.1//EN" "http://www.w3.org/Graphics/SVG/1.1/DTD/svg11.dtd">
<svg version="1.1" id="Layer_1" xmlns="http://www.w3.org/2000/svg" xmlns:xlink="http://www.w3.org/1999/xlink" x="0px" y="0px"
	 width="142px" height="168px" viewBox="0 0 379.5 448.5" enable-background="new 0 0 379.5 448.5" xml:space="preserve">
<line fill="none" stroke="#464545" stroke-width="3" x1="8.3" y1="8.9" x2="373.3" y2="8.9"/>
<g>
	<g>
		<line fill="none" stroke="#464545" stroke-width="2.0618" x1="40.4" y1="30.3" x2="20.1" y2="30.3"/>
		<g>
			<polygon fill="#464545" points="38.6,24.1 49.3,30.3 38.6,36.5 			"/>
		</g>
		<g>
			<polygon fill="#464545" points="21.9,24.1 11.2,30.3 21.9,36.5 			"/>
		</g>
	</g>
</g>
<line fill="none" stroke="#464545" stroke-width="3" x1="9.7" y1="9.7" x2="9.7" y2="49"/>
<line fill="none" stroke="#464545" stroke-width="3" x1="50.7" y1="9.7" x2="50.7" y2="49"/>
<g>
	<g>
		<line fill="none" stroke="#464545" stroke-width="2" x1="361.9" y1="30.3" x2="341.2" y2="30.3"/>
		<g>
			<polygon fill="#464545" points="360.1,24.3 370.5,30.3 360.1,36.3 			"/>
		</g>
		<g>
			<polygon fill="#464545" points="343,24.3 332.6,30.3 343,36.3 			"/>
		</g>
	</g>
</g>
<line fill="none" stroke="#464545" stroke-width="3" x1="330.9" y1="9.7" x2="330.9" y2="49"/>
<line fill="none" stroke="#464545" stroke-width="3" x1="371.8" y1="9.7" x2="371.8" y2="49"/>
<g>
	<rect x="50.7" y="49.9" fill="none" stroke="#616261" stroke-width="3" stroke-miterlimit="10" width="280.2" height="389"/>
	<rect x="73.8" y="73" fill="none" stroke="#616261" stroke-width="3" stroke-miterlimit="10" width="234" height="342.8"/>
</g>
</svg>
