<?xml version="1.0" encoding="utf-8"?>
<!-- Generator: Adobe Illustrator 18.0.0, SVG Export Plug-In . SVG Version: 6.00 Build 0)  -->
<!DOCTYPE svg PUBLIC "-//W3C//DTD SVG 1.1//EN" "http://www.w3.org/Graphics/SVG/1.1/DTD/svg11.dtd">
<svg version="1.1" id="Layer_1" xmlns="http://www.w3.org/2000/svg" xmlns:xlink="http://www.w3.org/1999/xlink" x="0px" y="0px"
	 width="209px" height="194px" viewBox="0 0 557 518.3" enable-background="new 0 0 557 518.3" xml:space="preserve">
	 <defs>
		<style>
			@font-face {
			font-family: "proximanova-nova";

			src: url('https://doopsalta2.com/Fonts/proxima-nova-three.woff2') format('woff2'),
				url('https://doopsalta2.com/Fonts/proxima-nova-three.woff') format('woff'),
				url('https://doopsalta2.com/Fonts/proxima-nova-three.otf') format('opentype');
			font-style: normal;
			}
		</style>
	</defs>
<g>
	<line fill="none" stroke="#464545" stroke-width="2.9862" x1="39.9" y1="19.5" x2="86.3" y2="19.5"/>
	<g>
		<g>
			<line fill="none" stroke="#464545" stroke-width="2.9862" x1="63.1" y1="34.1" x2="63.1" y2="493.1"/>
			<g>
				<polygon fill="#464545" points="54.1,36.7 63.1,21.2 72,36.7 				"/>
			</g>
			<g>
				<polygon fill="#464545" points="54.1,490.5 63.1,506 72,490.5 				"/>
			</g>
		</g>
	</g>
</g>
<line fill="none" stroke="#464545" stroke-width="2.9679" x1="460" y1="506" x2="0" y2="506"/>
<g>
	<rect x="89.9" y="19.5" fill="none" stroke="#616261" stroke-width="3" stroke-miterlimit="10" width="280.2" height="389"/>
	<rect x="113" y="42.6" fill="none" stroke="#616261" stroke-width="3" stroke-miterlimit="10" width="234" height="342.8"/>
</g>
<g>
	<g>
		<path fill="#464545" d="M485.2,509.2c-0.1,0-0.4,0-0.6,0c-0.1,0-0.4,0-0.6,0c-0.9,0-1.6-0.3-2.1-0.4s-1.1-0.6-1.4-1.1
			c-0.7-0.9-0.9-2-0.7-3.3c0.1-0.6,0.3-1.1,0.4-1.7c0.1-0.6,0.4-1,0.9-1.4c0.4-0.4,0.7-0.9,1.3-1.1c0.4-0.3,0.9-0.4,1.4-0.4
			s1,0.1,1.6,0.4c0.4,0.3,1,0.6,1.4,1.1c0.4,0.4,0.7,0.9,1,1.4c0.3,0.6,0.6,1.1,0.7,1.7c0.1,0.6,0.3,1.3,0.4,2c0,0.7,0,1.3,0,2l0,0
			c0,0,0,0.1,0,0.4c0,0.3,0,0.6-0.1,0.9c-0.1,0.4-0.1,0.7-0.3,1.3c-0.1,0.4-0.3,1-0.6,1.4c-0.3,0.6-0.7,1.1-1,1.6
			c-0.4,0.4-0.9,0.9-1.3,1.1c-0.6,0.4-1.3,0.7-2,1c-0.7,0.1-1.6,0.3-2.4,0.3l0,0c-1.4,0-2.7-0.3-3.8-0.9c-0.6-0.3-1.1-0.7-1.6-1
			c-0.4-0.4-0.9-0.9-1.1-1.4c-0.4-0.6-0.7-1.3-0.9-2.1c-0.1-0.7-0.3-1.6-0.1-2.4c0-0.9,0.3-1.7,0.6-2.7c0.3-0.9,0.7-1.8,1.1-2.7l2,1
			c-0.4,0.7-0.7,1.6-1,2.3c-0.3,0.7-0.4,1.4-0.4,2.1s0,1.3,0,1.8s0.3,1.1,0.6,1.6c0.4,0.7,1,1.3,1.8,1.7c0.9,0.4,1.7,0.6,2.8,0.6
			l0,0c0.7,0,1.4,0,2.1-0.3c0.6-0.3,1.1-0.6,1.7-1.1c0.4-0.4,0.9-1,1.1-1.6c0.3-0.6,0.6-1.3,0.7-1.8c-0.1,0-0.3,0-0.6,0
			S485.3,509.2,485.2,509.2z M482.8,496.1l-1.8,1.8l-1.8-1.8l1.8-1.8L482.8,496.1z M483.6,501.9c-0.3,0-0.6,0.1-0.9,0.6
			c-0.3,0.3-0.4,0.6-0.6,1c-0.1,0.4-0.3,0.7-0.3,1.1c-0.1,0.7,0,1.1,0.3,1.6c0.1,0.1,0.3,0.3,0.4,0.4c0.1,0.1,0.3,0.1,0.6,0.3
			c0.1,0,0.4,0.1,0.6,0.1c0.1,0,0.3,0,0.4,0c0.4,0,0.9,0,1.3,0c0.4,0,0.7,0,1,0c0-0.4-0.1-0.9-0.1-1.3c-0.1-0.4-0.1-0.9-0.3-1.1
			c-0.1-0.4-0.3-0.7-0.4-1c-0.1-0.3-0.3-0.6-0.6-0.7c-0.1-0.1-0.3-0.3-0.6-0.4C484,502.1,483.8,501.9,483.6,501.9z M487.3,496.1
			l-1.8,1.8l-1.8-1.8l1.8-1.8L487.3,496.1z"/>
		<path fill="#464545" d="M496.8,509.2c-0.9,0-1.6-0.1-2.1-0.3c-0.6-0.1-1.1-0.4-1.4-0.9c-0.3-0.3-0.4-0.6-0.6-0.9
			c-0.1-0.3-0.3-0.6-0.3-0.9s-0.1-0.6-0.1-0.9s0-0.4,0-0.7v-0.1c0,0,0-0.1,0-0.4s0-0.6,0-1.1c0-0.4,0-1,0-1.6s0-1.1,0-1.8
			c0-0.6,0-1.3,0-2c0-0.7,0-1.4,0-2c0-0.7,0-1.3-0.1-1.8c0-0.6-0.1-1-0.1-1.3l2.1-0.4c0,0.4,0.1,0.9,0.1,1.4c0,0.6,0.1,1.1,0.1,1.8
			c0,0.7,0,1.3,0.1,2c0,0.7,0,1.4,0,2c0,0.7,0,1.3,0,1.8s0,1.1,0,1.6c0,0.4,0,0.9,0,1.1c0,0.3,0,0.4,0,0.6v0.1c0,0.3,0,0.6,0,0.9
			s0.1,0.4,0.3,0.6c0.3,0.3,1,0.6,1.8,0.6h0.1c0.1,0,0.3,0,0.4,0.1c0.1,0,0.3,0.1,0.3,0.3c0.1,0.1,0.1,0.3,0.3,0.3
			c0,0.1,0.1,0.3,0.1,0.4c0,0.3-0.1,0.6-0.3,0.7C497.4,509,497.1,509.2,496.8,509.2z"/>
		<path fill="#464545" d="M495.2,508c0-0.3,0.1-0.6,0.3-0.7c0.1-0.1,0.4-0.3,0.7-0.3h1.3c0.3,0,0.6,0,0.9,0s0.6,0,0.9,0
			s0.6-0.1,0.9-0.1s0.6-0.1,0.9-0.3c0.3-0.1,0.4-0.3,0.7-0.4c0.1-0.1,0.3-0.3,0.4-0.6c0.1-0.3,0.1-0.7,0.1-1.4
			c0-0.7-0.1-1.3-0.4-2.1c-0.1-0.3-0.1-0.4-0.3-0.7s-0.1-0.6-0.3-0.7c-0.1-0.3-0.3-0.6-0.4-0.9l2-1c0,0,0,0.1,0.1,0.3
			c0,0.1,0.1,0.3,0.3,0.6c0.1,0.3,0.3,0.6,0.3,0.9c0.1,0.3,0.3,0.7,0.4,1c0.7,2.1,0.7,3.8,0.3,5c-0.6,1.1-1.4,2-2.8,2.4
			c-0.1,0-0.4,0.1-0.7,0.1c-0.3,0-0.6,0-1,0.1c-0.4,0.1-0.6,0-1,0c-0.3,0-0.6,0-0.7,0h-1.6h-0.1c-0.3,0-0.6-0.1-0.7-0.3
			C495.4,508.6,495.2,508.5,495.2,508z M500.9,495.4l-1.8,1.8l-1.8-1.8l1.8-1.8L500.9,495.4z M505.4,495.4l-1.8,1.8l-1.8-1.8
			l1.8-1.8L505.4,495.4z"/>
		<path fill="#464545" d="M509.7,491.6c0.3,3,0.6,5.7,0.6,8.1c0.1,4,0,7.1-0.1,9.5L508,509c0.3-3.3,0.3-6.1,0.3-8.2
			c-0.1-3.5-0.3-6.5-0.6-8.9L509.7,491.6z"/>
		<path fill="#464545" d="M540,506.5C540,506.5,540,506.6,540,506.5c-0.1,0.1-0.1,0.1-0.3,0.3c0.4,0.1,0.9,0.1,1.4,0.1
			c0.4,0,1,0.1,1.4,0.1c0.3,0,0.6,0.1,0.7,0.3c0.3,0.1,0.3,0.4,0.3,0.7c0,0.1,0,0.3-0.1,0.4c0,0.1-0.1,0.3-0.3,0.3
			c-0.1,0.1-0.3,0.1-0.3,0.3c-0.1,0-0.3,0.1-0.4,0.1c-1,0-1.8,0-2.7-0.1c-0.9-0.1-1.7-0.3-2.4-0.6c-0.1,0-0.3,0.1-0.3,0.1
			s-0.1,0.1-0.3,0.1c-0.4,0.1-0.9,0.3-1.3,0.4c-0.6,0.1-1.1,0.1-1.7,0.3c-0.6,0-1.3,0.1-1.8,0.1s-1.3,0-2,0c-2.3,0-4.1-0.3-5.7-0.9
			s-2.6-1.4-3.3-2.6c-0.3-0.4-0.6-1-0.6-1.6c-0.1-0.6-0.1-1-0.1-1.6c0-0.4,0.1-1,0.1-1.4c0.1-0.4,0.1-0.9,0.3-1.1s0.3-0.6,0.3-0.9
			s0.1-0.3,0.1-0.3l2,1c0,0,0,0.1-0.1,0.3c-0.1,0.1-0.1,0.3-0.3,0.6c-0.1,0.3-0.1,0.6-0.3,0.9c-0.1,0.3-0.1,0.6-0.1,1
			c0,0.3,0,0.7,0,1c0,0.3,0.1,0.7,0.4,1c0.3,0.4,0.6,0.7,0.9,1c0.3,0.3,0.9,0.6,1.3,0.7c0.6,0.1,1.1,0.3,1.8,0.4
			c0.7,0.1,1.6,0.1,2.4,0.1c0.7,0,1.3,0,1.8,0c0.6,0,1,0,1.4,0s0.9-0.1,1.1-0.1c0.3,0,0.7-0.1,1-0.1c-1-0.9-1.6-1.8-1.6-3
			c0-0.7,0.1-1.3,0.3-2c0.1-0.6,0.6-1.1,0.9-1.7c0.4-0.4,0.9-0.9,1.4-1.1c0.6-0.3,1-0.4,1.6-0.4c0.6,0,1,0.1,1.4,0.3
			c0.4,0.1,0.9,0.4,1.1,0.9c0.1,0.1,0.3,0.3,0.4,0.6c0.1,0.3,0.3,0.4,0.4,0.7c0.1,0.3,0.1,0.6,0.3,1c0,0.3,0.1,0.7,0.1,1.1
			C541,504.5,540.7,505.6,540,506.5z M537.3,506.1c0.3-0.1,0.6-0.4,0.7-0.6c0.1-0.1,0.3-0.4,0.4-0.7s0.1-0.4,0.1-0.7s0-0.6,0-0.7
			c0-0.6,0-1-0.1-1.3s-0.3-0.6-0.4-0.7c-0.1-0.1-0.3-0.3-0.6-0.3c-0.3,0-0.3,0-0.4,0c-0.1,0-0.4,0-0.7,0.1c-0.3,0.1-0.4,0.3-0.7,0.6
			c-0.3,0.3-0.4,0.6-0.4,1c0,0.4-0.1,0.9-0.1,1.3c0,0.3,0.1,0.7,0.4,1c0.3,0.3,0.9,0.7,1.4,1L537.3,506.1z M539,494.4l-1.8,1.8
			l-1.8-2l1.8-1.8L539,494.4z"/>
		<path fill="#464545" d="M541.4,508c0-0.3,0.1-0.6,0.3-0.9c0.3-0.1,0.6-0.3,0.9-0.3h1.1c0.4,0,0.9,0,1.4,0c0.4,0,1,0,1.4-0.1
			s0.9-0.1,1.1-0.4c0.4-0.1,0.7-0.4,0.9-0.7c0.3-0.4,0.4-0.7,0.4-1.3c0-0.4,0-0.9-0.1-1.4c-0.1-0.3-0.3-0.7-0.6-1.1
			c-0.3-0.4-0.7-1-1.1-1.6c-0.4-0.6-1-1.1-1.6-1.7c-0.6-0.6-1.1-1.1-1.8-1.6l0.3-2.3l9.1-4l0.9,2l-7.9,3.4c0.4,0.3,0.7,0.7,1.1,1
			c0.4,0.4,0.9,0.9,1.3,1.3c0.6,0.6,1,1.3,1.4,1.8c0.4,0.6,0.7,1.1,0.9,1.6c0.1,0.6,0.3,1,0.4,1.4c0.1,0.4,0.1,0.9,0,1.3
			c0,0.4-0.1,0.7-0.3,1.1c-0.1,0.3-0.3,0.7-0.4,1c-0.7,1.1-1.7,1.8-3.4,2.1c-0.3,0-0.6,0.1-1,0.1h-3.5c-0.4,0-0.7-0.1-0.9-0.3
			C541.6,508.6,541.4,508.5,541.4,508z"/>
	</g>
</g>
</svg>
