<?xml version="1.0" encoding="utf-8"?>
<!-- Generator: Adobe Illustrator 18.0.0, SVG Export Plug-In . SVG Version: 6.00 Build 0)  -->
<!DOCTYPE svg PUBLIC "-//W3C//DTD SVG 1.1//EN" "http://www.w3.org/Graphics/SVG/1.1/DTD/svg11.dtd">
<svg version="1.1" id="Layer_1" xmlns="http://www.w3.org/2000/svg" xmlns:xlink="http://www.w3.org/1999/xlink" x="0px" y="0px"
	 width="180px" height="228px" viewBox="0 0 472.8 600" enable-background="new 0 0 472.8 600" xml:space="preserve">
<g>
	<rect x="79.9" y="103.5" fill="none" stroke="#616261" stroke-width="3" stroke-miterlimit="10" width="280.2" height="389"/>
	<rect x="103" y="126.6" fill="none" stroke="#616261" stroke-width="3" stroke-miterlimit="10" width="234" height="342.8"/>
</g>
<line fill="none" stroke="#464545" stroke-width="3" x1="0" y1="597" x2="420.3" y2="597"/>
<g>
	<path fill="#464545" d="M426.6,600v-9.3h6.1v1h-5v3h4.9v1h-4.9v4.3H426.6z"/>
	<path fill="#464545" d="M434.1,600v-9.3h1.2v8.3h4.3v1H434.1z"/>
	<path fill="#464545" d="M441.4,597.8c-0.4-0.7-0.6-1.6-0.6-2.5s0.2-1.7,0.6-2.5s0.9-1.3,1.6-1.7c0.7-0.4,1.5-0.6,2.4-0.6
		c0.9,0,1.7,0.2,2.4,0.6c0.7,0.4,1.3,1,1.6,1.7c0.4,0.7,0.6,1.6,0.6,2.5s-0.2,1.7-0.6,2.5c-0.4,0.7-0.9,1.3-1.6,1.7
		c-0.7,0.4-1.5,0.6-2.4,0.6c-0.9,0-1.7-0.2-2.4-0.6C442.3,599.1,441.7,598.5,441.4,597.8z M442,595.3c0,0.7,0.1,1.4,0.4,1.9
		s0.7,1,1.2,1.4c0.5,0.3,1.1,0.5,1.8,0.5c0.7,0,1.3-0.2,1.8-0.5c0.5-0.3,0.9-0.8,1.2-1.4s0.4-1.2,0.4-1.9c0-1.1-0.3-2-1-2.7
		c-0.6-0.7-1.5-1.1-2.5-1.1c-1,0-1.9,0.4-2.5,1.1S442,594.2,442,595.3z"/>
	<path fill="#464545" d="M452.1,597.8c-0.4-0.7-0.6-1.6-0.6-2.5s0.2-1.7,0.6-2.5s0.9-1.3,1.6-1.7c0.7-0.4,1.5-0.6,2.4-0.6
		c0.9,0,1.7,0.2,2.4,0.6c0.7,0.4,1.3,1,1.6,1.7c0.4,0.7,0.6,1.6,0.6,2.5s-0.2,1.7-0.6,2.5c-0.4,0.7-0.9,1.3-1.6,1.7
		c-0.7,0.4-1.5,0.6-2.4,0.6c-0.9,0-1.7-0.2-2.4-0.6C453,599.1,452.4,598.5,452.1,597.8z M452.7,595.3c0,0.7,0.1,1.4,0.4,1.9
		s0.7,1,1.2,1.4c0.5,0.3,1.1,0.5,1.8,0.5c0.7,0,1.3-0.2,1.8-0.5c0.5-0.3,0.9-0.8,1.2-1.4s0.4-1.2,0.4-1.9c0-1.1-0.3-2-1-2.7
		c-0.6-0.7-1.5-1.1-2.5-1.1c-1,0-1.9,0.4-2.5,1.1S452.7,594.2,452.7,595.3z"/>
	<path fill="#464545" d="M462.6,600v-9.3h3.8c0.9,0,1.6,0.3,2.1,0.8c0.5,0.5,0.8,1.2,0.8,2c0,0.4-0.1,0.8-0.2,1.1
		c-0.1,0.3-0.3,0.6-0.5,0.8s-0.5,0.4-0.8,0.5c-0.3,0.1-0.6,0.2-0.9,0.2l2.5,3.8H468l-2.4-3.7h-1.9v3.7H462.6z M463.7,595.3h2.4
		c0.6,0,1-0.2,1.4-0.5s0.5-0.8,0.5-1.3s-0.2-1-0.5-1.3c-0.3-0.3-0.8-0.5-1.4-0.5h-2.4V595.3z"/>
</g>
<line fill="none" stroke="#464545" stroke-width="3" x1="0" y1="5.7" x2="412.1" y2="5.7"/>
<g>
	<path fill="#464545" d="M416.6,7.6c-0.3-0.6-0.4-1.4-0.4-2.1s0.1-1.5,0.4-2.1c0.3-0.6,0.6-1.2,1.1-1.6c0.5-0.4,1-0.8,1.6-1.1
		c0.6-0.3,1.3-0.4,2-0.4c1.6,0,2.9,0.7,3.8,2l-1,0.6c-0.3-0.4-0.7-0.8-1.2-1.1c-0.5-0.3-1-0.4-1.6-0.4c-1.1,0-2,0.4-2.8,1.1
		c-0.7,0.8-1.1,1.7-1.1,2.9c0,0.8,0.2,1.5,0.5,2.1c0.3,0.6,0.8,1.1,1.4,1.5c0.6,0.3,1.2,0.5,2,0.5c0.6,0,1.1-0.1,1.6-0.4
		c0.5-0.3,0.9-0.6,1.2-1.1l1,0.6c-1,1.3-2.2,2-3.8,2c-0.7,0-1.4-0.1-2-0.4c-0.6-0.3-1.2-0.6-1.6-1.1C417.3,8.8,416.9,8.3,416.6,7.6z
		"/>
	<path fill="#464545" d="M426.8,10.5v-10h6.6v1.1H428v3.2h5.2v1.1H428v3.4h5.3v1.1H426.8z"/>
	<path fill="#464545" d="M435.3,10.5v-10h1.2v10H435.3z"/>
	<path fill="#464545" d="M438.7,10.5v-10h1.2v8.9h4.7v1.1H438.7z"/>
	<path fill="#464545" d="M446.3,10.5v-10h1.2v10H446.3z"/>
	<path fill="#464545" d="M449.9,10.5v-10h1.3l5.8,7.8V0.5h1.2v10h-1.2l-5.8-8v8H449.9z"/>
	<path fill="#464545" d="M460.5,7.6c-0.3-0.7-0.4-1.4-0.4-2.1s0.1-1.5,0.4-2.1c0.3-0.7,0.6-1.2,1.1-1.6s1-0.8,1.6-1
		c0.6-0.2,1.3-0.4,2-0.4c1.6,0,2.9,0.6,3.9,1.9l-1,0.6c-0.3-0.4-0.7-0.8-1.3-1c-0.5-0.2-1.1-0.4-1.6-0.4c-1.1,0-2,0.4-2.8,1.1
		c-0.7,0.8-1.1,1.7-1.1,2.9c0,0.8,0.2,1.5,0.5,2.1c0.3,0.6,0.8,1.1,1.4,1.5s1.2,0.5,2,0.5c0.6,0,1.1-0.1,1.5-0.3
		c0.5-0.2,0.9-0.5,1.2-0.8v-2h-3.4V5.4h4.7V9c-0.5,0.5-1.1,1-1.7,1.3c-0.7,0.3-1.4,0.5-2.2,0.5c-0.7,0-1.4-0.1-2-0.4
		c-0.6-0.3-1.2-0.6-1.6-1S460.7,8.3,460.5,7.6z"/>
</g>
<g>
	<g>
		<line fill="none" stroke="#464545" stroke-width="3" x1="35.7" y1="20.7" x2="35.7" y2="581.8"/>
		<g>
			<polygon fill="#464545" points="26.7,23.3 35.7,7.7 44.7,23.3 			"/>
		</g>
		<g>
			<polygon fill="#464545" points="26.7,579.2 35.7,594.7 44.7,579.2 			"/>
		</g>
	</g>
</g>
</svg>
