<?xml version="1.0" encoding="utf-8"?>
<!-- Generator: Adobe Illustrator 18.0.0, SVG Export Plug-In . SVG Version: 6.00 Build 0)  -->
<!DOCTYPE svg PUBLIC "-//W3C//DTD SVG 1.1//EN" "http://www.w3.org/Graphics/SVG/1.1/DTD/svg11.dtd">
<svg version="1.1" id="Layer_1" xmlns="http://www.w3.org/2000/svg" xmlns:xlink="http://www.w3.org/1999/xlink" x="0px" y="0px"
	 width="210px" height="246px" viewBox="0 0 559 657.3" enable-background="new 0 0 559 657.3" xml:space="preserve">
	 <defs>
		<style>
			@font-face {
			font-family: "proximanova-nova";

			src: url('https://doopsalta2.com/Fonts/proxima-nova-three.woff2') format('woff2'),
				url('https://doopsalta2.com/Fonts/proxima-nova-three.woff') format('woff'),
				url('https://doopsalta2.com/Fonts/proxima-nova-three.otf') format('opentype');
			font-style: normal;
			}
		</style>
	</defs>
<g>
	
		<polygon opacity="0.8" fill="#B2B2B2" stroke="#717070" stroke-width="0.6174" stroke-miterlimit="10" enable-background="new    " points="
		450.5,111.4 460,101.8 0.3,101.8 9.2,111.4 449.2,111.4 	"/>
	<rect y="69.7" fill="#C6C6C6" stroke="#717070" stroke-width="0.5848" stroke-miterlimit="10" width="460" height="32.1"/>
</g>
<g>
	<g>
		<path fill="#464545" d="M140.3,21.8c0-2,0-3.9-0.1-5.9c-0.1-2-0.3-3.7-0.5-5.6c-0.3-1.7-0.5-3.5-1.1-4.9c-0.4-1.6-1.1-2.9-1.9-4.1
			l2.5-1.6c0.8,1.3,1.5,2.8,2,4.5s0.9,3.7,1.2,5.9c0.1,0.9,0.3,1.9,0.3,2.9c0.1,1.1,0.1,2,0.1,3.1c0,1.1,0.1,2,0.1,2.9
			c0,0.9,0,1.9,0,2.8C142.9,21.8,140.3,21.8,140.3,21.8z"/>
	</g>
</g>
<g>
	<g>
		<path fill="#464545" d="M238.3-0.6c0,0,0,0.1,0,0.3s0,0.4,0.1,0.7c0,0.3,0,0.7,0.1,0.9c0,0.4,0,0.8,0,1.2c0,2.3-0.5,4.1-1.6,5.3
			l0,0c-0.5,0.7-1.1,1.1-1.9,1.3c-0.7,0.3-1.5,0.5-2.4,0.5c-0.5,0-0.9,0-1.3-0.1c-0.4,0-0.8-0.1-1.2-0.3c0,0.1,0,0.3,0,0.4
			c0,0.1,0,0.3,0,0.4c0.1,0.9,0.3,1.9,0.3,2.9c0.1,1.1,0.1,2,0.1,2.9c0,1.1,0.1,2,0.1,2.9c0,0.9,0,1.9,0,2.8h-2.9c0-1.6,0-3.2,0-4.8
			c0-1.6-0.1-3.1-0.3-4.7c-0.1-1.5-0.3-2.9-0.5-4.3c-0.3-1.3-0.7-2.7-1.1-3.7c-0.3-0.5-0.4-1.1-0.7-1.6s-0.5-1.1-0.8-1.5l2.5-1.6
			c0.1,0.3,0.3,0.5,0.4,0.8s0.3,0.5,0.4,0.8c0.1,0.3,0.3,0.5,0.4,0.9c0.1,0.4,0.3,0.7,0.5,1.1c0.3,0.5,0.4,1.1,0.7,1.5
			c0.3,0.4,0.5,0.8,0.8,1.1c0.3,0.3,0.7,0.5,1.1,0.7c0.4,0.1,0.8,0.3,1.5,0.3c0.4,0,0.8,0,1.1-0.1c0.3-0.1,0.5-0.3,0.8-0.5
			c0.1-0.3,0.4-0.5,0.5-0.8c0.1-0.3,0.3-0.7,0.3-0.9c0.1-0.3,0.1-0.7,0.1-1.1s0-0.7,0-1.1s0-0.8-0.1-1.2c0-0.4-0.1-0.7-0.1-0.9
			L238.3-0.6z"/>
	</g>
</g>
<g>
	<path fill="#464545" d="M330.3-0.8c0.1,0.8,0.3,1.6,0.4,2.4c0.1,0.7,0.1,1.5,0.1,2c0,1.9-0.4,3.3-1.2,4.4c-0.4,0.4-0.8,0.8-1.3,1.1
		c-0.5,0.3-1.1,0.4-1.7,0.4c-0.3,0-0.5,0-0.8-0.1c-0.3,0-0.5-0.1-0.8-0.3c-0.3-0.1-0.5-0.3-0.8-0.5c-0.3-0.3-0.5-0.5-0.8-0.9
		L323.1,8c-0.5,0.5-1.1,0.9-1.6,1.2c-0.5,0.3-1.2,0.4-2,0.4c-0.4,0-0.7,0-0.9-0.1c-0.3,0-0.5-0.1-0.9-0.3c0,0.1,0,0.3,0,0.4
		c0,0.1,0,0.3,0,0.4c0.1,0.9,0.3,2,0.3,2.9s0.1,2,0.1,2.9s0.1,2,0.1,2.9c0,0.9,0,1.9,0,2.8h-2.9c0-0.4,0-0.8,0-1.3
		c0-0.4,0-0.9,0-1.3c0-1.5,0-2.9-0.1-4.3s-0.3-2.8-0.4-4c-0.1-1.3-0.4-2.5-0.8-3.7c-0.3-1.2-0.7-2.3-1.1-3.3c0,0,0-0.1-0.1-0.3V3.2
		c-0.1-0.4-0.4-0.8-0.5-1.2c-0.1-0.4-0.4-0.8-0.7-1.1l2.7-1.6c0.1,0.1,0.1,0.3,0.3,0.4c0.1,0.1,0.1,0.4,0.3,0.5
		c0.1,0.3,0.3,0.4,0.3,0.7c0.1,0.3,0.3,0.4,0.3,0.7c0.3,0.5,0.5,0.9,0.7,1.5c0.3,0.7,0.5,1.2,0.7,1.6c0.1,0.4,0.4,0.8,0.7,1.1
		c0.3,0.3,0.5,0.4,0.8,0.5c0.3,0.1,0.7,0.1,1.1,0.1c0.3,0,0.5,0,0.8-0.1c0.3-0.1,0.4-0.3,0.5-0.5c0.3-0.3,0.5-0.8,0.7-1.3
		c0.1-0.5,0.3-1.3,0.3-2.1c0-0.1,0-0.3,0-0.5s0-0.5,0-0.8s0-0.5,0-0.8c0-0.3,0-0.4,0-0.5l2.9-0.4v0.1v0.1c0,0.1,0,0.3,0.1,0.5
		c0.1,0.3,0,0.5,0.1,0.8c0,0.7,0.1,1.2,0.3,2c0.1,0.7,0.3,1.3,0.4,1.9c0.1,0.4,0.3,0.7,0.4,0.8c0.1,0.3,0.3,0.4,0.4,0.4
		c0.1,0,0.3,0.1,0.3,0.1s0.1,0,0.3,0c0.3,0,0.4,0,0.5-0.1c0.1,0,0.1-0.1,0.3-0.3c0,0,0.1-0.1,0.1-0.3c0-0.1,0.1-0.3,0.1-0.5
		c0-0.1,0.1-0.4,0.1-0.7c0-0.3,0-0.7,0-1.1s0-0.9-0.1-1.6c-0.1-0.7-0.1-1.3-0.4-2.3L330.3-0.8z"/>
</g>
<g>
	<rect x="89.9" y="176.7" fill="none" stroke="#616261" stroke-width="3" stroke-miterlimit="10" width="280.2" height="389"/>
	<rect x="113" y="199.8" fill="none" stroke="#616261" stroke-width="3" stroke-miterlimit="10" width="234" height="342.8"/>
</g>
<g>
	<g>
		<line fill="none" stroke="#464545" stroke-width="3.2101" x1="321.2" y1="83.5" x2="321.2" y2="623.8"/>
		<g>
			<polygon fill="#464545" points="311.6,86.3 321.2,69.7 330.8,86.3 			"/>
		</g>
		<g>
			<polygon fill="#464545" points="311.6,621 321.2,637.6 330.8,621 			"/>
		</g>
	</g>
</g>
<g>
	<g>
		<line fill="none" stroke="#464545" stroke-width="3.2101" x1="230" y1="83.5" x2="230" y2="623.8"/>
		<g>
			<polygon fill="#464545" points="220.4,86.3 230,69.7 239.6,86.3 			"/>
		</g>
		<g>
			<polygon fill="#464545" points="220.4,621 230,637.6 239.6,621 			"/>
		</g>
	</g>
</g>
<g>
	<g>
		<line fill="none" stroke="#464545" stroke-width="3.2101" x1="139.8" y1="83.5" x2="139.8" y2="623.8"/>
		<g>
			<polygon fill="#464545" points="130.2,86.3 139.8,69.7 149.4,86.3 			"/>
		</g>
		<g>
			<polygon fill="#464545" points="130.2,621 139.8,637.6 149.4,621 			"/>
		</g>
	</g>
</g>
<line fill="none" stroke="#464545" stroke-width="2.9678" x1="0" y1="636.1" x2="460" y2="636.1"/>
<g>
	<g>
		<path fill="#464545" d="M482.4,641.8c-0.1,0-0.4,0-0.6,0c-0.1,0-0.4,0-0.6,0c-0.9,0-1.6-0.3-2.1-0.4c-0.6-0.1-1.1-0.6-1.4-1.1
			c-0.7-0.9-0.9-2-0.7-3.3c0.1-0.6,0.3-1.1,0.4-1.7c0.3-0.6,0.4-1,0.9-1.4s0.7-0.9,1.3-1.1c0.4-0.3,0.9-0.4,1.4-0.4s1,0.1,1.6,0.4
			c0.4,0.3,1,0.6,1.4,1.1c0.4,0.4,0.7,0.9,1,1.4c0.3,0.6,0.6,1.1,0.7,1.7c0.1,0.6,0.3,1.3,0.4,2c0,0.7,0,1.3,0,2l0,0
			c0,0,0,0.1,0,0.4c0,0.3,0,0.6-0.1,0.9c-0.1,0.4-0.1,0.7-0.3,1.3c-0.1,0.4-0.3,1-0.6,1.4c-0.3,0.6-0.7,1.1-1,1.6
			c-0.4,0.4-0.9,0.9-1.3,1.1c-0.6,0.4-1.3,0.7-2,1c-0.7,0.1-1.6,0.3-2.4,0.3l0,0c-1.4,0-2.7-0.3-3.8-0.9c-0.6-0.3-1.1-0.7-1.6-1
			c-0.4-0.4-0.9-0.9-1.1-1.4c-0.4-0.6-0.7-1.3-0.9-2.1c-0.1-0.9-0.3-1.6-0.1-2.4c0-0.9,0.3-1.7,0.6-2.7c0.3-0.9,0.7-1.8,1.1-2.7l2,1
			c-0.4,0.7-0.7,1.6-1,2.3s-0.4,1.4-0.4,2.1s0,1.3,0,1.8s0.3,1.1,0.6,1.6c0.4,0.7,1,1.3,1.8,1.7c0.9,0.4,1.7,0.6,2.8,0.6l0,0
			c0.7,0,1.4,0,2.1-0.3c0.6-0.3,1.1-0.6,1.7-1.1c0.4-0.4,0.9-1,1.1-1.6c0.3-0.6,0.6-1.3,0.7-1.8c-0.1,0-0.3,0-0.6,0
			C482.7,641.8,482.5,641.8,482.4,641.8z M480,628.7l-1.8,1.8l-1.8-1.8l1.8-1.8L480,628.7z M480.8,634.5c-0.3,0-0.6,0.1-0.9,0.6
			c-0.3,0.3-0.4,0.6-0.6,1c-0.1,0.4-0.3,0.7-0.3,1.1c-0.1,0.7,0,1.1,0.3,1.6c0.1,0.1,0.3,0.3,0.4,0.4c0.1,0.1,0.3,0.1,0.6,0.3
			c0.1,0,0.4,0.1,0.6,0.1c0.1,0,0.3,0,0.4,0c0.4,0,0.9,0,1.3,0c0.4,0,0.7,0,1,0c0-0.4-0.1-0.9-0.1-1.3c-0.1-0.4-0.1-0.9-0.3-1.1
			c-0.1-0.3-0.3-0.7-0.4-1c-0.1-0.3-0.3-0.6-0.6-0.7c-0.1-0.1-0.3-0.3-0.6-0.4C481.2,634.7,481,634.5,480.8,634.5z M484.6,628.7
			l-1.8,1.8l-1.8-1.8l1.8-1.8L484.6,628.7z"/>
		<path fill="#464545" d="M494,641.8c-0.9,0-1.6-0.1-2.1-0.3c-0.6-0.1-1.1-0.4-1.4-0.9c-0.3-0.3-0.4-0.6-0.6-0.9
			c-0.1-0.3-0.3-0.6-0.3-0.9c0-0.3-0.1-0.6-0.1-0.9c0-0.3,0-0.4,0-0.7v-0.1c0,0,0-0.1,0-0.4c0-0.3,0-0.6,0-1.1c0-0.4,0-1,0-1.6
			c0-0.6,0-1.1,0-1.8c0-0.6,0-1.3,0-2s0-1.4,0-2c0-0.7,0-1.3-0.1-1.8c0-0.6-0.1-1-0.1-1.3l2.1-0.4c0,0.4,0.1,0.9,0.1,1.4
			s0.1,1.1,0.1,1.8s0,1.3,0.1,2c0,0.7,0,1.4,0,2c0,0.7,0,1.3,0,1.8c0,0.6,0,1.1,0,1.6s0,0.9,0,1.1c0,0.3,0,0.4,0,0.6v0.1
			c0,0.3,0,0.6,0,0.9c0,0.3,0.1,0.4,0.3,0.6c0.3,0.3,1,0.6,1.8,0.6h0.1c0.1,0,0.3,0,0.4,0.1c0.1,0,0.3,0.1,0.3,0.3
			c0.1,0.1,0.1,0.3,0.3,0.3c0,0.1,0.1,0.3,0.1,0.4c0,0.3-0.1,0.6-0.3,0.7C494.6,641.6,494.3,641.8,494,641.8z"/>
		<path fill="#464545" d="M492.4,640.6c0-0.3,0.1-0.6,0.3-0.7c0.1-0.1,0.4-0.3,0.7-0.3h1.3c0.3,0,0.6,0,0.9,0s0.6,0,0.9,0
			c0.3,0,0.6-0.1,0.9-0.1c0.3,0,0.6-0.1,0.9-0.3c0.3-0.1,0.4-0.3,0.7-0.4c0.1-0.1,0.3-0.3,0.4-0.6c0.1-0.3,0.1-0.7,0.1-1.4
			c0-0.6-0.1-1.3-0.4-2.1c-0.1-0.3-0.1-0.4-0.3-0.7c-0.1-0.3-0.1-0.6-0.3-0.7c-0.1-0.3-0.3-0.6-0.4-0.9l2-1c0,0,0,0.1,0.1,0.3
			c0,0.1,0.1,0.3,0.3,0.6c0.1,0.3,0.3,0.6,0.3,0.9c0.1,0.3,0.3,0.7,0.3,1c0.7,2.1,0.7,3.8,0.3,5c-0.6,1.1-1.4,2-2.8,2.4
			c-0.1,0-0.4,0.1-0.7,0.1c-0.3,0-0.6,0-1,0.1c-0.4,0.1-0.6,0-1,0c-0.3,0-0.6,0-0.7,0h-1.6h-0.1c-0.3,0-0.6-0.1-0.7-0.3
			C492.6,641.2,492.4,641.1,492.4,640.6z M498.1,628l-1.8,1.8l-1.8-1.8l1.8-1.8L498.1,628z M502.6,628l-1.8,1.8L499,628l1.8-1.8
			L502.6,628z"/>
		<path fill="#464545" d="M506.9,624.2c0.3,3,0.6,5.7,0.6,8.1c0.1,4,0,7.1-0.1,9.5l-2.1-0.1c0.3-3.3,0.3-6.1,0.3-8.2
			c-0.1-3.5-0.3-6.5-0.6-8.9L506.9,624.2z"/>
		<path fill="#464545" d="M537.2,639.1C537.2,639.1,537.2,639.2,537.2,639.1c-0.1,0.1-0.1,0.1-0.3,0.3c0.4,0.1,0.9,0.1,1.4,0.1
			c0.6,0,1,0.1,1.4,0.1c0.3,0,0.6,0.1,0.7,0.3c0.3,0.1,0.3,0.4,0.3,0.7c0,0.1,0,0.3-0.1,0.4c-0.1,0.1-0.1,0.3-0.3,0.3
			c-0.1,0.1-0.3,0.1-0.3,0.3s-0.3,0.1-0.4,0.1c-1,0-1.8,0-2.7-0.1c-0.9-0.1-1.7-0.3-2.4-0.6c-0.1,0-0.3,0.1-0.3,0.1
			s-0.1,0.1-0.3,0.1c-0.4,0.1-0.9,0.3-1.3,0.4c-0.6,0.1-1.1,0.1-1.7,0.3c-0.6,0-1.3,0.1-1.8,0.1c-0.7,0-1.3,0-2,0
			c-2.3,0-4.1-0.3-5.7-0.9c-1.6-0.6-2.6-1.4-3.3-2.6c-0.3-0.4-0.6-1-0.6-1.6c-0.1-0.6-0.1-1-0.1-1.6c0-0.4,0.1-1,0.1-1.4
			c0.1-0.4,0.1-0.9,0.3-1.1c0.1-0.3,0.3-0.6,0.3-0.9c0.1-0.1,0.1-0.3,0.1-0.3l2,1c0,0,0,0.1-0.1,0.3c-0.1,0.1-0.1,0.3-0.3,0.6
			c-0.1,0.3-0.1,0.6-0.3,0.9c-0.1,0.3-0.1,0.6-0.1,1c0,0.3,0,0.7,0,1c0,0.3,0.1,0.7,0.4,1c0.3,0.4,0.6,0.7,0.9,1
			c0.3,0.3,0.9,0.6,1.3,0.7c0.6,0.1,1.1,0.3,1.8,0.4s1.4,0.1,2.4,0.1c0.7,0,1.3,0,1.8,0c0.6,0,1,0,1.4,0s0.9-0.1,1.1-0.1
			c0.3,0,0.7-0.1,1-0.1c-1-0.9-1.6-1.8-1.6-3c0-0.7,0.1-1.3,0.3-2s0.6-1.1,0.9-1.7c0.4-0.4,0.9-0.9,1.4-1.1c0.6-0.3,1-0.4,1.6-0.4
			c0.6,0,1,0.1,1.4,0.3c0.4,0.1,0.9,0.4,1.1,0.9c0.1,0.1,0.3,0.3,0.4,0.6c0.1,0.1,0.3,0.4,0.4,0.7c0.1,0.3,0.1,0.6,0.3,1
			c0,0.3,0.1,0.7,0.1,1.1C538.2,637.1,537.9,638.2,537.2,639.1z M534.5,638.7c0.3-0.1,0.6-0.4,0.7-0.6c0.1-0.3,0.3-0.4,0.4-0.7
			c0.1-0.3,0.1-0.4,0.1-0.7s0-0.6,0-0.7c0-0.6,0-1-0.1-1.3c-0.1-0.3-0.3-0.6-0.4-0.7c-0.1-0.1-0.3-0.3-0.6-0.3c-0.1,0-0.3,0-0.4,0
			c-0.1,0-0.4,0-0.7,0.1c-0.3,0.1-0.4,0.3-0.7,0.6c-0.1,0.3-0.4,0.6-0.4,1c-0.1,0.4-0.1,0.9-0.1,1.3c0,0.3,0.1,0.7,0.4,1
			c0.3,0.3,0.9,0.7,1.4,1H534.5z M536.2,627l-1.8,1.8l-1.8-1.8l1.8-1.8L536.2,627z"/>
		<path fill="#464545" d="M538.6,640.6c0-0.3,0.1-0.6,0.3-0.9c0.3-0.1,0.6-0.3,0.9-0.3h1.1c0.4,0,0.9,0,1.4,0s1,0,1.4-0.1
			c0.4-0.1,0.9-0.1,1.1-0.4c0.4-0.1,0.7-0.4,0.9-0.7c0.3-0.4,0.4-0.7,0.4-1.3c0-0.4,0-0.9-0.1-1.4c-0.1-0.3-0.3-0.7-0.6-1.1
			c-0.3-0.4-0.7-1-1.1-1.6c-0.4-0.6-1-1.1-1.6-1.7c-0.6-0.6-1.1-1.1-1.8-1.6l0.3-2.3l9.1-4l0.9,2l-7.9,3.4c0.4,0.3,0.7,0.7,1.1,1
			c0.4,0.4,0.9,0.9,1.3,1.3c0.6,0.6,1,1.3,1.4,1.8c0.4,0.6,0.7,1.1,0.9,1.6c0.1,0.6,0.3,1,0.4,1.4c0.1,0.4,0.1,0.9,0,1.3
			c0,0.4-0.1,0.7-0.3,1.1c-0.1,0.4-0.3,0.7-0.4,1c-0.7,1.1-1.7,1.8-3.4,2.1c-0.3,0-0.6,0.1-1,0.1h-3.5c-0.4,0-0.7-0.1-0.9-0.3
			C538.8,641.2,538.6,641.1,538.6,640.6z"/>
	</g>
</g>
</svg>
