<?xml version="1.0" encoding="utf-8"?>
<!-- Generator: Adobe Illustrator 18.0.0, SVG Export Plug-In . SVG Version: 6.00 Build 0)  -->
<!DOCTYPE svg PUBLIC "-//W3C//DTD SVG 1.1//EN" "http://www.w3.org/Graphics/SVG/1.1/DTD/svg11.dtd">
<svg version="1.1" id="Layer_1" xmlns="http://www.w3.org/2000/svg" xmlns:xlink="http://www.w3.org/1999/xlink" x="0px" y="0px"
	 width="209px" height="234px" viewBox="0 -7.7 557.6 625" enable-background="new 0 -7.7 557.6 625" xml:space="preserve">
	 <defs>
		<style>
			@font-face {
			font-family: "proximanova-nova";

			src: url('https://doopsalta2.com/Fonts/proxima-nova-three.woff2') format('woff2'),
				url('https://doopsalta2.com/Fonts/proxima-nova-three.woff') format('woff'),
				url('https://doopsalta2.com/Fonts/proxima-nova-three.otf') format('opentype');
			font-style: normal;
			}
		</style>
	</defs>
<g>
	<g>
		<line fill="none" stroke="#464545" stroke-width="2.9846" x1="35.9" y1="25.2" x2="35.9" y2="580.4"/>
		<g>
			<polygon fill="#464545" points="26.9,27.8 35.9,12.3 44.8,27.8 			"/>
		</g>
		<g>
			<polygon fill="#464545" points="26.9,577.8 35.9,593.3 44.8,577.8 			"/>
		</g>
	</g>
</g>
<line fill="none" stroke="#464545" stroke-width="2.9679" x1="1.3" y1="593.3" x2="461.3" y2="593.3"/>
<g>
	<rect x="91.2" y="133" fill="none" stroke="#616261" stroke-width="3" stroke-miterlimit="10" width="280.2" height="389"/>
	<rect x="114.3" y="156.1" fill="none" stroke="#616261" stroke-width="3" stroke-miterlimit="10" width="234" height="342.8"/>
</g>
<line fill="none" stroke="#464545" stroke-width="2.9679" x1="1.3" y1="11" x2="461.3" y2="11"/>
<line fill="none" stroke="#464545" stroke-width="2.6256" x1="51.3" y1="88" x2="411.3" y2="88"/>
<g>
	<g>
		<path fill="#464545" d="M488.9,599c-0.1,0-0.4,0-0.6,0c-0.1,0-0.4,0-0.6,0c-0.9,0-1.6-0.3-2.1-0.4c-0.6-0.1-1.1-0.6-1.4-1.1
			c-0.7-0.9-0.9-2-0.7-3.3c0.1-0.6,0.3-1.1,0.4-1.7c0.3-0.6,0.4-1,0.9-1.4c0.4-0.4,0.7-0.9,1.3-1.1c0.4-0.3,0.9-0.4,1.4-0.4
			s1,0.1,1.6,0.4c0.4,0.3,1,0.6,1.4,1.1c0.4,0.4,0.7,0.9,1,1.4c0.3,0.6,0.6,1.1,0.7,1.7c0.1,0.6,0.3,1.3,0.4,2c0,0.7,0,1.3,0,2l0,0
			c0,0,0,0.1,0,0.4c0,0.3,0,0.6-0.1,0.9c-0.1,0.4-0.1,0.7-0.3,1.3c-0.1,0.6-0.3,1-0.6,1.4c-0.3,0.6-0.7,1.1-1,1.6s-0.9,0.9-1.3,1.1
			c-0.6,0.4-1.3,0.7-2,1c-0.7,0.1-1.6,0.3-2.4,0.3l0,0c-1.4,0-2.7-0.3-3.8-0.9c-0.6-0.3-1.1-0.7-1.6-1c-0.4-0.4-0.9-0.9-1.1-1.4
			c-0.4-0.6-0.7-1.3-0.9-2.1c-0.1-0.7-0.3-1.6-0.1-2.4c0-0.9,0.3-1.7,0.6-2.7c0.3-0.9,0.7-1.8,1.1-2.7l2,1c-0.4,0.7-0.7,1.6-1,2.3
			c-0.3,0.7-0.4,1.4-0.4,2.1s0,1.3,0,1.8s0.3,1.1,0.6,1.6c0.4,0.7,1,1.3,1.8,1.7c0.9,0.4,1.7,0.6,2.8,0.6l0,0c0.7,0,1.4,0,2.1-0.3
			c0.6-0.3,1.1-0.6,1.7-1.1c0.4-0.4,0.9-1,1.1-1.6c0.3-0.6,0.6-1.3,0.7-1.8c-0.1,0-0.3,0-0.6,0C489.3,599,489,599,488.9,599z
			 M486.6,585.9l-1.8,1.8l-1.8-1.8l1.8-1.8L486.6,585.9z M487.3,591.7c-0.3,0-0.6,0.1-0.9,0.6c-0.3,0.3-0.4,0.6-0.6,1
			c-0.1,0.4-0.3,0.7-0.3,1.1c-0.1,0.7,0,1.1,0.3,1.6c0.1,0.1,0.3,0.3,0.4,0.4c0.1,0.1,0.3,0.1,0.6,0.3s0.4,0.1,0.6,0.1s0.3,0,0.4,0
			c0.4,0,0.9,0,1.3,0c0.4,0,0.7,0,1,0c0-0.4-0.1-0.9-0.1-1.3c-0.1-0.4-0.1-0.9-0.3-1.1c-0.1-0.4-0.3-0.7-0.4-1
			c-0.1-0.3-0.3-0.6-0.6-0.7c-0.1-0.1-0.3-0.3-0.6-0.4C487.8,591.9,487.6,591.7,487.3,591.7z M491.2,585.9l-1.8,1.8l-1.8-1.8
			l1.8-1.8L491.2,585.9z"/>
		<path fill="#464545" d="M500.5,599c-0.9,0-1.6-0.1-2.1-0.3c-0.6-0.1-1.1-0.4-1.4-0.9c-0.3-0.3-0.4-0.6-0.6-0.9
			c-0.1-0.3-0.3-0.6-0.3-0.9c0-0.3-0.1-0.6-0.1-0.9c0-0.3,0-0.4,0-0.7v-0.1c0,0,0-0.1,0-0.4c0-0.3,0-0.6,0-1.1c0-0.4,0-1,0-1.6
			c0-0.6,0-1.1,0-1.8c0-0.6,0-1.3,0-2s0-1.4,0-2c0-0.7,0-1.3-0.1-1.8c-0.1-0.6-0.1-1-0.1-1.3l2.1-0.4c0,0.4,0.1,0.9,0.1,1.4
			s0.1,1.1,0.1,1.8s0,1.3,0.1,2c0,0.7,0,1.4,0,2c0,0.7,0,1.3,0,1.8c0,0.6,0,1.1,0,1.6s0,0.9,0,1.1c0,0.3,0,0.4,0,0.6v0.1
			c0,0.3,0,0.6,0,0.9s0.1,0.4,0.3,0.6c0.3,0.3,1,0.6,1.8,0.6h0.1c0.1,0,0.3,0,0.4,0.1c0.1,0,0.3,0.1,0.3,0.3s0.1,0.3,0.3,0.3
			c0.1,0,0.1,0.3,0.1,0.4c0,0.3-0.1,0.6-0.3,0.7C501.1,598.8,500.8,599,500.5,599z"/>
		<path fill="#464545" d="M499,597.8c0-0.3,0.1-0.6,0.3-0.7c0.1-0.1,0.4-0.3,0.7-0.3h1.3c0.3,0,0.6,0,0.9,0s0.6,0,0.9,0
			s0.6-0.1,0.9-0.1s0.6-0.1,0.9-0.3s0.4-0.3,0.7-0.4c0.3-0.1,0.3-0.3,0.4-0.6c0.1-0.3,0.1-0.7,0.1-1.4c0-0.6-0.3-1.3-0.4-2.1
			c-0.1-0.3-0.1-0.4-0.3-0.7c-0.1-0.3-0.3-0.6-0.3-0.7c-0.1-0.3-0.3-0.6-0.4-0.9l2-1c0,0,0,0.1,0.1,0.3c0,0.1,0.1,0.3,0.3,0.6
			c0.1,0.3,0.3,0.6,0.3,0.9c0.1,0.3,0.3,0.7,0.4,1c0.7,2.1,0.7,3.8,0.3,5c-0.6,1.1-1.4,2-2.8,2.4c-0.1,0-0.4,0.1-0.7,0.1
			c-0.3,0-0.6,0-1,0.1c-0.4,0.1-0.6,0-1,0s-0.6,0-0.7,0h-1.6H500c-0.3,0-0.6-0.1-0.7-0.3C499.1,598.4,499,598.1,499,597.8z
			 M504.8,585.1l-1.8,1.8l-1.8-1.8l1.8-1.8L504.8,585.1z M509.3,585.1l-1.8,1.8l-1.8-1.8l1.8-1.8L509.3,585.1z"/>
		<path fill="#464545" d="M513.4,581.4c0.3,3,0.6,5.7,0.6,8.1c0.1,4,0,7.1-0.1,9.5l-2.1-0.1c0.3-3.3,0.3-6.1,0.3-8.2
			c-0.1-3.5-0.3-6.5-0.6-8.9L513.4,581.4z"/>
		<path fill="#464545" d="M543.7,596.3L543.7,596.3c-0.1,0.1-0.1,0.1-0.3,0.3c0.4,0.1,0.9,0.1,1.4,0.1c0.4,0,1,0.1,1.4,0.1
			c0.3,0,0.6,0.1,0.7,0.3c0.3,0.1,0.3,0.4,0.3,0.7c0,0.1,0,0.3-0.1,0.4c0,0.1-0.1,0.3-0.3,0.3c-0.1,0.1-0.3,0.1-0.3,0.3
			c-0.1,0-0.3,0.1-0.4,0.1c-1,0-1.8,0-2.7-0.1c-0.9-0.1-1.7-0.3-2.4-0.6c-0.1,0-0.3,0.1-0.3,0.1s-0.1,0.1-0.3,0.1
			c-0.4,0.1-0.9,0.3-1.3,0.4c-0.4,0.1-1.1,0.1-1.7,0.3c-0.6,0.1-1.3,0.1-1.8,0.1c-0.7,0-1.3,0-2,0c-2.3,0-4.1-0.3-5.7-0.9
			c-1.6-0.6-2.6-1.4-3.3-2.6c-0.3-0.4-0.6-1-0.6-1.6c-0.1-0.6-0.1-1-0.1-1.6c0-0.6,0.1-1,0.1-1.4c0.1-0.4,0.1-0.9,0.3-1.1
			c0.1-0.3,0.3-0.6,0.3-0.9c0.1-0.1,0.1-0.3,0.1-0.3l2,1c0,0,0,0.1-0.1,0.3c-0.1,0.1-0.1,0.3-0.3,0.6c-0.1,0.3-0.1,0.6-0.3,0.9
			s-0.1,0.6-0.1,1c0,0.3,0,0.7,0,1c0,0.3,0.1,0.7,0.4,1c0.3,0.4,0.6,0.7,0.9,1c0.3,0.3,0.9,0.6,1.3,0.7c0.4,0.1,1.1,0.3,1.8,0.4
			c0.7,0.1,1.6,0.1,2.4,0.1c0.7,0,1.3,0,1.8,0s1,0,1.4,0c0.4,0,0.9-0.1,1.1-0.1c0.3,0,0.7-0.1,1-0.1c-1-0.9-1.6-1.8-1.6-3
			c0-0.7,0.1-1.3,0.3-2c0.1-0.6,0.6-1.1,0.9-1.7c0.4-0.4,0.9-0.9,1.4-1.1c0.6-0.3,1-0.4,1.6-0.4c0.6,0,1,0.1,1.4,0.3
			c0.4,0.1,0.9,0.4,1.1,0.9c0.1,0.1,0.3,0.3,0.4,0.6c0.1,0.1,0.3,0.4,0.4,0.7c0.1,0.3,0.1,0.6,0.3,1s0.1,0.7,0.1,1.1
			C544.7,594.3,544.5,595.4,543.7,596.3z M541.1,595.7c0.3-0.1,0.6-0.4,0.7-0.6c0.1-0.3,0.3-0.4,0.4-0.7c0.1-0.3,0.1-0.4,0.1-0.7
			s0-0.6,0-0.7c0-0.6,0-1-0.1-1.3c-0.1-0.3-0.3-0.6-0.4-0.7c-0.1-0.1-0.3-0.3-0.6-0.3c-0.1,0-0.3,0-0.4,0c-0.1,0-0.4,0-0.7,0.1
			c-0.3,0.1-0.4,0.3-0.7,0.6c-0.1,0.3-0.4,0.6-0.4,1c-0.1,0.4-0.1,0.9-0.1,1.3c0,0.3,0.1,0.7,0.4,1c0.3,0.3,0.9,0.7,1.4,1H541.1z
			 M542.8,584.1l-1.8,1.8l-1.8-1.8l1.8-1.8L542.8,584.1z"/>
		<path fill="#464545" d="M545.2,597.8c0-0.3,0.1-0.6,0.3-0.9c0.3-0.1,0.6-0.3,0.9-0.3h1.1c0.4,0,0.9,0,1.4,0c0.4,0,1,0,1.4-0.1
			c0.4-0.1,0.9-0.1,1.1-0.4c0.4-0.1,0.7-0.4,0.9-0.7c0.3-0.4,0.4-0.7,0.4-1.3c0-0.4,0-0.9-0.1-1.4c-0.1-0.3-0.3-0.7-0.6-1.1
			c-0.3-0.4-0.7-1-1.1-1.6c-0.4-0.6-1-1.1-1.6-1.7s-1.1-1.1-1.8-1.6l0.3-2.3l9.1-4l0.9,2l-7.9,3.4c0.4,0.3,0.7,0.7,1.1,1
			c0.4,0.4,0.9,0.9,1.3,1.3c0.6,0.6,1,1.3,1.4,1.8s0.7,1.1,0.9,1.6c0.1,0.6,0.3,1,0.4,1.4c0.1,0.4,0.1,0.9,0,1.3
			c0,0.4-0.1,0.7-0.3,1.1c-0.1,0.3-0.3,0.7-0.4,1c-0.7,1.1-1.7,1.8-3.4,2.1c-0.3,0-0.6,0.1-1,0.1h-3.5c-0.3,0-0.7-0.1-0.9-0.3
			C545.3,598.4,545.2,598.1,545.2,597.8z"/>
	</g>
</g>
<g>
	<g>
		<path fill="#464545" d="M496.9,10.9C496.9,10.9,496.8,11,496.9,10.9c-0.1,0.1-0.1,0.1-0.3,0.3c0.4,0.1,0.8,0.1,1.4,0.1
			c0.4,0,1,0.1,1.4,0.1c0.3,0,0.6,0.1,0.7,0.3c0.3,0.1,0.3,0.4,0.3,0.7c0,0.1,0,0.3-0.1,0.4c0,0.1-0.1,0.3-0.3,0.3
			c-0.1,0.1-0.3,0.1-0.3,0.3c-0.1,0-0.3,0.1-0.4,0.1c-1,0-1.8,0-2.7-0.1c-0.8-0.1-1.7-0.3-2.4-0.6c-0.1,0-0.3,0.1-0.3,0.1
			s-0.1,0.1-0.3,0.1c-0.4,0.1-0.8,0.3-1.3,0.4c-0.6,0.1-1.1,0.1-1.7,0.3c-0.6,0-1.3,0.1-1.8,0.1c-0.6,0-1.3,0-2,0
			c-2.2,0-4.1-0.3-5.6-0.8c-1.5-0.6-2.5-1.4-3.2-2.5c-0.3-0.4-0.6-1-0.6-1.5c-0.1-0.6-0.1-1-0.1-1.5c0-0.4,0.1-1,0.1-1.4
			c0.1-0.4,0.1-0.8,0.3-1.1s0.3-0.6,0.3-0.8s0.1-0.3,0.1-0.3l2,1c0,0,0,0.1-0.1,0.3c-0.1,0.1-0.1,0.3-0.3,0.6
			c-0.1,0.3-0.1,0.6-0.3,0.8c-0.1,0.3-0.1,0.6-0.1,1c0,0.3,0,0.7,0,1c0,0.3,0.1,0.7,0.4,1c0.3,0.4,0.6,0.7,0.8,1
			c0.3,0.3,0.8,0.6,1.3,0.7c0.6,0.1,1.1,0.3,1.8,0.4c0.7,0.1,1.5,0.1,2.4,0.1c0.7,0,1.3,0,1.8,0c0.6,0,1,0,1.4,0s0.8-0.1,1.1-0.1
			c0.3,0,0.7-0.1,1-0.1c-1-0.8-1.5-1.8-1.5-3c0-0.7,0.1-1.3,0.3-2c0.1-0.6,0.6-1.1,0.8-1.7c0.4-0.4,0.8-0.8,1.4-1.1s1-0.4,1.5-0.4
			c0.6,0,1,0.1,1.4,0.3c0.4,0.1,0.8,0.4,1.1,0.8c0.1,0.1,0.3,0.3,0.4,0.6s0.3,0.4,0.4,0.7c0.1,0.3,0.1,0.6,0.3,1
			c0,0.3,0.1,0.7,0.1,1.1C497.9,8.9,497.5,10.1,496.9,10.9z M494.2,10.5c0.3-0.1,0.6-0.4,0.7-0.6c0.1-0.1,0.3-0.4,0.4-0.7
			c0.1-0.3,0.1-0.4,0.1-0.7c0-0.3,0-0.6,0-0.7c0-0.6,0-1-0.1-1.3c-0.1-0.3-0.3-0.6-0.4-0.7c-0.1-0.1-0.3-0.3-0.6-0.3s-0.3,0-0.4,0
			c-0.1,0-0.4,0-0.7,0.1c-0.3,0.1-0.4,0.3-0.7,0.6s-0.4,0.6-0.4,1c0,0.4-0.1,0.8-0.1,1.3c0,0.3,0.1,0.7,0.4,1c0.3,0.3,0.8,0.7,1.4,1
			H494.2z M495.9-1l-1.8,1.8l-1.8-2l1.8-1.8L495.9-1z"/>
		<path fill="#464545" d="M498.3,12.5c0-0.1,0-0.3,0.1-0.4c0-0.1,0.1-0.3,0.3-0.3c0.1-0.1,0.3-0.1,0.3-0.3s0.3-0.1,0.4-0.1
			c0.3,0,0.6,0,0.8,0c0.3,0,0.6,0,0.8,0c0.3,0,0.6,0,0.8,0s0.4,0,0.7,0c-1-0.8-1.4-1.8-1.4-2.8c0-0.7,0.1-1.3,0.3-2
			c0.1-0.6,0.6-1.1,0.8-1.7c0.3-0.6,0.8-0.8,1.4-1.1c0.6-0.3,1-0.4,1.5-0.4c0.7,0,1.3,0.1,1.7,0.4s0.8,0.7,1.3,1.1
			c0.3,0.4,0.6,1,0.7,1.5c0.1,0.6,0.3,1.1,0.1,1.7c0,0.6-0.1,1.1-0.4,1.7c-0.1,0.6-0.6,1-0.8,1.5c0.3,0,0.4,0.1,0.7,0.1
			c0.3,0,0.6,0,0.8,0.1c0.3,0.1,0.6,0,0.8,0c0.3,0,0.6,0,0.8,0c0.3,0,0.6,0.1,0.8,0.3c0.1,0.1,0.3,0.4,0.3,0.7c0,0.1,0,0.3-0.1,0.4
			c0,0.1-0.1,0.3-0.3,0.3c-0.1,0.1-0.3,0.1-0.3,0.3c-0.1,0-0.3,0.1-0.4,0.1H511c-0.3,0-0.4,0-0.7,0c-0.3,0-0.6,0-0.8,0s-0.6,0-0.8,0
			c-0.3,0-0.4,0-0.7-0.1c-0.4-0.1-0.8-0.1-1.3-0.3c-0.4-0.1-0.8-0.1-1.1-0.3c-0.3,0.1-0.7,0.3-1.3,0.3c-0.4,0.1-1,0.1-1.4,0.3
			c-0.6,0-1.1,0.1-1.7,0.1c-0.6,0-1.1,0-1.7,0h-0.1c-0.3,0-0.6-0.1-0.7-0.3C498.4,13,498.3,12.9,498.3,12.5z M504.8-1l-1.7,1.8
			L501.3-1l1.8-1.8L504.8-1z M505.3,5.4c-0.1,0-0.4,0.1-0.7,0.3c-0.3,0.1-0.4,0.3-0.7,0.6c-0.1,0.3-0.4,0.6-0.4,1s-0.1,0.8-0.1,1.3
			c0,0.3,0.1,0.7,0.4,1c0.3,0.3,0.8,0.7,1.4,1l0.1,0.1c0.4-0.1,0.7-0.4,1-0.8c0.3-0.3,0.4-0.7,0.4-1c0.1-0.4,0.1-0.7,0-1.1
			c0-0.4-0.1-0.7-0.3-1c-0.1-0.3-0.3-0.6-0.6-0.7C505.8,5.6,505.6,5.4,505.3,5.4z M509.3-1l-1.8,1.8L505.6-1l1.8-1.8L509.3-1z"/>
		<path fill="#464545" d="M510.1,12.5c0-0.1,0-0.3,0.1-0.4c0-0.1,0.1-0.3,0.3-0.3c0.1-0.1,0.1-0.1,0.3-0.3c0.1,0,0.3-0.1,0.4-0.1
			c0.4,0,0.8-0.1,1.1-0.3c0.3-0.1,0.7-0.4,1-0.7c0.3-0.3,0.6-0.6,0.7-1c0.1-0.4,0.4-0.7,0.6-1.1c0.1-0.4,0.3-0.8,0.4-1.3
			c0.1-0.4,0.1-0.8,0.3-1.1l2.1,0.4c0,0.1-0.1,0.4-0.3,0.7c-0.1,0.3-0.1,0.6-0.3,0.8c-0.1,0.3-0.1,0.7-0.1,1c0,0.3-0.1,0.7-0.1,1
			c0,0.1,0,0.4,0,0.6c0,0.1,0.1,0.4,0.1,0.6s0.1,0.3,0.4,0.3c0.1,0.1,0.3,0.1,0.6,0.1c0.4,0,0.7-0.1,1-0.3s0.6-0.4,0.8-0.8
			c0.3-0.3,0.4-0.7,0.6-1.1c0.1-0.4,0.3-0.8,0.4-1.3c0.1-0.4,0.3-0.8,0.3-1.3c0.1-0.4,0.1-0.7,0.1-1.1l2.1,0.4
			c-0.1,0.4-0.1,0.8-0.1,1.3s-0.1,0.8-0.1,1.3c0,0.4,0,0.7,0,1c0,0.3,0,0.6,0,0.8c0,0.3,0.1,0.4,0.1,0.7c0.1,0.1,0.3,0.3,0.4,0.4
			c0.1,0.1,0.3,0.1,0.6,0.3c0.3,0,0.6,0,0.8,0s0.4-0.1,0.6-0.1c0.1-0.1,0.3-0.1,0.3-0.3c0-0.1,0.1-0.1,0.1-0.1l0,0
			c0.1-0.1,0.1-0.3,0.3-0.6c0-0.1,0-0.4,0-0.7c0-0.4,0-0.8-0.1-1.4c-0.1-0.4-0.3-1-0.4-1.4c-0.1-0.4-0.3-0.8-0.6-1.3
			c-0.3-0.4-0.3-0.7-0.4-1l2-1c0,0.1,0.1,0.3,0.1,0.4s0.3,0.4,0.4,0.7c0.1,0.3,0.3,0.7,0.4,1c0.1,0.3,0.3,0.8,0.4,1.3
			c0.1,0.4,0.3,0.8,0.3,1.3c0.1,0.4,0.1,0.8,0.1,1.3c0,0.6-0.1,1.3-0.3,1.7c-0.1,0.6-0.4,1-0.8,1.3c-0.4,0.4-0.8,0.7-1.3,0.8
			c-0.6,0.1-1.1,0.3-1.8,0.3c-0.3,0-0.6,0-0.8-0.1s-0.6-0.1-0.8-0.4c-0.3-0.1-0.6-0.3-0.7-0.6c-0.3-0.1-0.4-0.4-0.6-0.7
			c-0.4,0.6-1,1-1.5,1.3c-0.6,0.3-1.1,0.4-1.8,0.4c-0.3,0-0.6,0-0.8-0.1c-0.3-0.1-0.6-0.1-0.8-0.3c-0.3-0.1-0.6-0.3-0.7-0.6
			c-0.3-0.1-0.4-0.4-0.6-0.7c-0.4,0.4-1,0.8-1.5,1.1c-0.6,0.3-1.3,0.4-2,0.4h-0.1c-0.1,0-0.3,0-0.4-0.1c-0.1-0.1-0.3-0.1-0.3-0.3
			c-0.1-0.1-0.1-0.1-0.3-0.3C510.1,12.7,510.1,12.6,510.1,12.5z"/>
	</g>
</g>
</svg>
