<?xml version="1.0" encoding="utf-8"?>
<!-- Generator: Adobe Illustrator 18.0.0, SVG Export Plug-In . SVG Version: 6.00 Build 0)  -->
<!DOCTYPE svg PUBLIC "-//W3C//DTD SVG 1.1//EN" "http://www.w3.org/Graphics/SVG/1.1/DTD/svg11.dtd">
<svg version="1.1" id="Layer_1" xmlns="http://www.w3.org/2000/svg" xmlns:xlink="http://www.w3.org/1999/xlink" x="0px" y="0px"
	 width="165px" height="190px" viewBox="0 0 440 507.1" enable-background="new 0 0 440 507.1" xml:space="preserve">
<line fill="none" stroke="#464545" stroke-width="3" x1="79.2" y1="10.6" x2="32.8" y2="10.6"/>
<g>
	<rect x="79.9" y="10.6" fill="none" stroke="#616261" stroke-width="3" stroke-miterlimit="10" width="280.2" height="389"/>
	<rect x="103" y="33.7" fill="none" stroke="#616261" stroke-width="3" stroke-miterlimit="10" width="234" height="342.8"/>
</g>
<g>
	<g>
		<line fill="none" stroke="#464545" stroke-width="3" x1="56" y1="25.3" x2="56" y2="488.7"/>
		<g>
			<polygon fill="#464545" points="47,27.9 56,12.4 64.9,27.9 			"/>
		</g>
		<g>
			<polygon fill="#464545" points="47,486.1 56,501.6 64.9,486.1 			"/>
		</g>
	</g>
</g>
<line fill="none" stroke="#464545" stroke-width="3" x1="0" y1="503.1" x2="390.3" y2="503.1"/>
<g>
	<path fill="#464545" d="M396.6,506.1v-9.3h6.1v1h-5v3h4.9v1h-4.9v4.3H396.6z"/>
	<path fill="#464545" d="M404.1,506.1v-9.3h1.2v8.3h4.3v1H404.1z"/>
	<path fill="#464545" d="M411.4,503.9c-0.4-0.7-0.6-1.6-0.6-2.5s0.2-1.7,0.6-2.5c0.4-0.7,0.9-1.3,1.6-1.7c0.7-0.4,1.5-0.6,2.4-0.6
		s1.7,0.2,2.4,0.6c0.7,0.4,1.3,1,1.6,1.7s0.6,1.6,0.6,2.5s-0.2,1.7-0.6,2.5s-0.9,1.3-1.6,1.7c-0.7,0.4-1.5,0.6-2.4,0.6
		s-1.7-0.2-2.4-0.6C412.3,505.2,411.7,504.7,411.4,503.9z M412,501.5c0,0.7,0.1,1.4,0.4,1.9c0.3,0.6,0.7,1,1.2,1.4
		c0.5,0.3,1.1,0.5,1.8,0.5s1.3-0.2,1.8-0.5c0.5-0.3,0.9-0.8,1.2-1.4c0.3-0.6,0.4-1.2,0.4-1.9c0-1.1-0.3-2-1-2.7
		c-0.6-0.7-1.5-1.1-2.5-1.1c-1,0-1.9,0.4-2.5,1.1S412,500.4,412,501.5z"/>
	<path fill="#464545" d="M422.1,503.9c-0.4-0.7-0.6-1.6-0.6-2.5s0.2-1.7,0.6-2.5c0.4-0.7,0.9-1.3,1.6-1.7c0.7-0.4,1.5-0.6,2.4-0.6
		s1.7,0.2,2.4,0.6c0.7,0.4,1.3,1,1.6,1.7s0.6,1.6,0.6,2.5s-0.2,1.7-0.6,2.5s-0.9,1.3-1.6,1.7c-0.7,0.4-1.5,0.6-2.4,0.6
		s-1.7-0.2-2.4-0.6C423,505.2,422.4,504.7,422.1,503.9z M422.7,501.5c0,0.7,0.1,1.4,0.4,1.9c0.3,0.6,0.7,1,1.2,1.4
		c0.5,0.3,1.1,0.5,1.8,0.5s1.3-0.2,1.8-0.5c0.5-0.3,0.9-0.8,1.2-1.4c0.3-0.6,0.4-1.2,0.4-1.9c0-1.1-0.3-2-1-2.7
		c-0.6-0.7-1.5-1.1-2.5-1.1c-1,0-1.9,0.4-2.5,1.1S422.7,500.4,422.7,501.5z"/>
	<path fill="#464545" d="M432.6,506.1v-9.3h3.8c0.9,0,1.6,0.3,2.1,0.8c0.5,0.5,0.8,1.2,0.8,2c0,0.4-0.1,0.8-0.2,1.1
		c-0.1,0.3-0.3,0.6-0.5,0.8c-0.2,0.2-0.5,0.4-0.8,0.5c-0.3,0.1-0.6,0.2-0.9,0.2l2.5,3.8H438l-2.4-3.7h-1.9v3.7H432.6z M433.7,501.4
		h2.4c0.6,0,1-0.2,1.4-0.5c0.4-0.3,0.5-0.8,0.5-1.3s-0.2-1-0.5-1.3s-0.8-0.5-1.4-0.5h-2.4V501.4z"/>
</g>
</svg>
