<?xml version="1.0" encoding="utf-8"?>
<!-- Generator: Adobe Illustrator 18.0.0, SVG Export Plug-In . SVG Version: 6.00 Build 0)  -->
<!DOCTYPE svg PUBLIC "-//W3C//DTD SVG 1.1//EN" "http://www.w3.org/Graphics/SVG/1.1/DTD/svg11.dtd">
<svg version="1.1" id="Layer_1" xmlns="http://www.w3.org/2000/svg" xmlns:xlink="http://www.w3.org/1999/xlink" x="0px" y="0px"
	 width="212px" height="244px" viewBox="0 0 565 650" enable-background="new 0 0 565 650" xml:space="preserve">
	 <defs>
		<style>
			@font-face {
			font-family: "proximanova-nova";

			src: url('https://doopsalta2.com/Fonts/proxima-nova-three.woff2') format('woff2'),
				url('https://doopsalta2.com/Fonts/proxima-nova-three.woff') format('woff'),
				url('https://doopsalta2.com/Fonts/proxima-nova-three.otf') format('opentype');
			font-style: normal;
			}
		</style>
	</defs>
<g>
	
		<polygon opacity="0.8" fill="#B2B2B2" stroke="#717070" stroke-width="0.6174" stroke-miterlimit="10" enable-background="new    " points="
		450.5,111.4 460,101.8 0.3,101.8 9.2,111.4 449.2,111.4 	"/>
	<rect y="69.7" fill="#C6C6C6" stroke="#717070" stroke-width="0.5848" stroke-miterlimit="10" width="460" height="32.1"/>
</g>
<line fill="none" stroke="#464545" stroke-width="2.9678" x1="0" y1="645.2" x2="460" y2="645.2"/>
<g>
	<path fill="#464545" d="M130.1,20.3l7.8-19.1h3l7.7,19.1h-2.7l-1.7-4.3h-9.6l-1.7,4.3H130.1z M135.2,13.9h8.1l-4.1-10.3L135.2,13.9
		z"/>
</g>
<g>
	<path fill="#464545" d="M223.1,20.3V1.1h8.5c1.7,0,3,0.5,3.9,1.3c1,1,1.4,2,1.4,3.6c0,1.2-0.4,2.2-1,2.9c-0.6,0.7-1.4,1.3-2.4,1.4
		c1,0.1,1.9,0.7,2.6,1.7c0.7,1,1.1,1.9,1.1,3.1c0,1.6-0.5,2.9-1.4,3.7c-1,1-2.4,1.4-4.1,1.4H223.1z M225.5,9.4h5.7
		c1.1,0,1.9-0.2,2.4-0.8c0.5-0.6,0.8-1.3,0.8-2.2s-0.2-1.7-0.8-2.3c-0.6-0.6-1.4-0.8-2.4-0.8h-5.7V9.4z M225.5,18.1h5.9
		c1.1,0,1.9-0.2,2.6-0.8c0.6-0.6,1-1.4,1-2.4s-0.4-1.7-1-2.4c-0.6-0.7-1.4-1-2.6-1h-5.9V18.1z"/>
</g>
<g>
	<path fill="#464545" d="M314.6,14.8c-0.5-1.2-0.7-2.6-0.7-4.1s0.2-2.7,0.7-4.1s1.2-2.3,2-3.1c0.8-0.8,1.9-1.6,3.1-2
		s2.5-0.7,3.8-0.7c3.1,0,5.5,1.3,7.3,3.8l-1.9,1.1c-0.6-0.8-1.3-1.6-2.3-2c-1-0.5-1.9-0.7-3-0.7c-2.2,0-3.8,0.7-5.3,2.2
		c-1.4,1.4-2.2,3.3-2.2,5.6c0,1.4,0.4,2.9,1,4.1c0.6,1.2,1.6,2.2,2.6,2.7c1.1,0.7,2.4,1,3.7,1c1.1,0,2-0.2,3-0.7
		c1-0.5,1.7-1.2,2.3-2l2,1.1c-1.9,2.5-4.3,3.8-7.3,3.8c-1.3,0-2.6-0.2-3.8-0.7c-1.2-0.5-2.3-1.2-3.1-2C315.7,17,315,16,314.6,14.8z"
		/>
</g>
<g>
	<rect x="89.9" y="176.7" fill="none" stroke="#616261" stroke-width="3" stroke-miterlimit="10" width="280.2" height="389"/>
	<rect x="113" y="199.8" fill="none" stroke="#616261" stroke-width="3" stroke-miterlimit="10" width="234" height="342.8"/>
</g>
<g>
	<g>
		<g>
			<line fill="none" stroke="#464545" stroke-width="3" x1="320.7" y1="82.6" x2="320.7" y2="632.3"/>
			<g>
				<polygon fill="#464545" points="311.7,85.2 320.7,69.7 329.7,85.2 				"/>
			</g>
			<g>
				<polygon fill="#464545" points="311.7,629.6 320.7,645.2 329.7,629.6 				"/>
			</g>
		</g>
	</g>
	<g>
		<g>
			<line fill="none" stroke="#464545" stroke-width="3" x1="229.5" y1="82.6" x2="229.5" y2="632.3"/>
			<g>
				<polygon fill="#464545" points="220.5,85.2 229.5,69.7 238.4,85.2 				"/>
			</g>
			<g>
				<polygon fill="#464545" points="220.5,629.6 229.5,645.2 238.4,629.6 				"/>
			</g>
		</g>
	</g>
	<g>
		<g>
			<line fill="none" stroke="#464545" stroke-width="3" x1="139.3" y1="82.6" x2="139.3" y2="632.3"/>
			<g>
				<polygon fill="#464545" points="130.3,85.2 139.3,69.7 148.3,85.2 				"/>
			</g>
			<g>
				<polygon fill="#464545" points="130.3,629.6 139.3,645.2 148.3,629.6 				"/>
			</g>
		</g>
	</g>
</g>
<g>
	<g>
		<path fill="#454545" d="M473.7,645.9v-15.3h10.1v1.7h-8.1v4.9h8v1.7h-8v7H473.7z"/>
		<path fill="#454545" d="M488.4,645.9v-15.3h1.9v13.6h7.1v1.7H488.4z"/>
		<path fill="#454545" d="M502.6,642.3c-0.6-1.2-0.9-2.6-0.9-4.1s0.3-2.8,0.9-4.1c0.6-1.2,1.5-2.2,2.7-2.8s2.5-1,4-1
			c1.5,0,2.8,0.3,4,1c1.2,0.7,2.1,1.6,2.7,2.8c0.6,1.2,1,2.6,1,4.1s-0.3,2.8-1,4.1c-0.6,1.2-1.5,2.2-2.7,2.8c-1.2,0.7-2.5,1-4,1
			c-1.5,0-2.8-0.3-4-1S503.2,643.5,502.6,642.3z M503.6,638.3c0,1.2,0.2,2.2,0.7,3.2c0.5,0.9,1.1,1.7,2,2.2c0.9,0.5,1.9,0.8,3,0.8
			s2.1-0.3,3-0.8c0.9-0.5,1.5-1.3,2-2.2s0.7-2,0.7-3.2c0-1.8-0.5-3.3-1.6-4.5c-1-1.2-2.4-1.8-4.1-1.8c-1.7,0-3.1,0.6-4.1,1.8
			C504.2,634.9,503.6,636.4,503.6,638.3z"/>
		<path fill="#454545" d="M522.5,642.3c-0.6-1.2-0.9-2.6-0.9-4.1s0.3-2.8,0.9-4.1c0.6-1.2,1.5-2.2,2.7-2.8s2.5-1,4-1
			c1.5,0,2.8,0.3,4,1c1.2,0.7,2.1,1.6,2.7,2.8c0.6,1.2,1,2.6,1,4.1s-0.3,2.8-1,4.1c-0.6,1.2-1.5,2.2-2.7,2.8c-1.2,0.7-2.5,1-4,1
			c-1.5,0-2.8-0.3-4-1S523.1,643.5,522.5,642.3z M523.5,638.3c0,1.2,0.2,2.2,0.7,3.2c0.5,0.9,1.1,1.7,2,2.2c0.9,0.5,1.9,0.8,3,0.8
			s2.1-0.3,3-0.8c0.9-0.5,1.5-1.3,2-2.2s0.7-2,0.7-3.2c0-1.8-0.5-3.3-1.6-4.5c-1-1.2-2.4-1.8-4.1-1.8c-1.7,0-3.1,0.6-4.1,1.8
			C524,634.9,523.5,636.4,523.5,638.3z"/>
		<path fill="#454545" d="M542.1,645.9v-15.3h6.2c1.4,0,2.6,0.4,3.5,1.3c0.9,0.8,1.3,2,1.3,3.4c0,0.7-0.1,1.3-0.3,1.8
			c-0.2,0.6-0.5,1-0.9,1.4c-0.4,0.4-0.8,0.7-1.3,0.9s-1,0.3-1.5,0.4l4.1,6.2h-2.3l-3.9-6.1H544v6.1H542.1z M544,638.1h4
			c0.9,0,1.6-0.3,2.2-0.8c0.6-0.5,0.9-1.3,0.9-2.1s-0.3-1.6-0.9-2.1c-0.6-0.5-1.3-0.8-2.2-0.8h-4V638.1z"/>
	</g>
</g>
</svg>
