<?xml version="1.0" encoding="utf-8"?>
<!-- Generator: Adobe Illustrator 18.0.0, SVG Export Plug-In . SVG Version: 6.00 Build 0)  -->
<!DOCTYPE svg PUBLIC "-//W3C//DTD SVG 1.1//EN" "http://www.w3.org/Graphics/SVG/1.1/DTD/svg11.dtd">
<svg version="1.1" id="Layer_1" xmlns="http://www.w3.org/2000/svg" xmlns:xlink="http://www.w3.org/1999/xlink" x="0px" y="0px"
	 width="203px" height="228px" viewBox="0 0 540 606.3" enable-background="new 0 0 540 606.3" xml:space="preserve">
<g>
	<g>
		<line fill="none" stroke="#464545" stroke-width="3" x1="34.5" y1="25.3" x2="34.5" y2="586.4"/>
		<g>
			<polygon fill="#464545" points="25.5,27.9 34.5,12.3 43.5,27.9 			"/>
		</g>
		<g>
			<polygon fill="#464545" points="25.5,583.8 34.5,599.3 43.5,583.8 			"/>
		</g>
	</g>
</g>
<line fill="none" stroke="#464545" stroke-width="2.9679" x1="0" y1="601.5" x2="460" y2="601.5"/>
<g>
	<path fill="#464545" d="M484.1,604.5v-12h7.9v1.3h-6.4v3.9h6.2v1.3h-6.2v5.5H484.1z"/>
	<path fill="#464545" d="M493.8,604.5v-12h1.5v10.7h5.6v1.3H493.8z"/>
	<path fill="#464545" d="M503.2,601.7c-0.5-0.9-0.7-2-0.7-3.2s0.2-2.2,0.7-3.2s1.2-1.7,2.1-2.2s1.9-0.8,3.1-0.8s2.2,0.3,3.1,0.8
		c0.9,0.5,1.6,1.3,2.1,2.2c0.5,0.9,0.7,2,0.7,3.2s-0.2,2.2-0.7,3.2c-0.5,0.9-1.2,1.7-2.1,2.2c-0.9,0.5-2,0.8-3.1,0.8
		s-2.2-0.3-3.1-0.8C504.4,603.4,503.7,602.6,503.2,601.7z M504,598.5c0,0.9,0.2,1.8,0.5,2.5c0.4,0.7,0.9,1.3,1.5,1.7
		c0.7,0.4,1.5,0.6,2.3,0.6s1.7-0.2,2.3-0.6c0.7-0.4,1.2-1,1.6-1.7c0.4-0.7,0.5-1.6,0.5-2.5c0-1.4-0.4-2.6-1.2-3.5
		c-0.8-0.9-1.9-1.4-3.2-1.4c-1.3,0-2.4,0.5-3.2,1.4S504,597.1,504,598.5z"/>
	<path fill="#464545" d="M516.9,601.7c-0.5-0.9-0.7-2-0.7-3.2s0.2-2.2,0.7-3.2s1.2-1.7,2.1-2.2s1.9-0.8,3.1-0.8s2.2,0.3,3.1,0.8
		c0.9,0.5,1.6,1.3,2.1,2.2c0.5,0.9,0.7,2,0.7,3.2s-0.2,2.2-0.7,3.2c-0.5,0.9-1.2,1.7-2.1,2.2c-0.9,0.5-2,0.8-3.1,0.8
		s-2.2-0.3-3.1-0.8C518.1,603.4,517.4,602.6,516.9,601.7z M517.7,598.5c0,0.9,0.2,1.8,0.5,2.5c0.4,0.7,0.9,1.3,1.5,1.7
		c0.7,0.4,1.5,0.6,2.3,0.6s1.7-0.2,2.3-0.6c0.7-0.4,1.2-1,1.6-1.7c0.4-0.7,0.5-1.6,0.5-2.5c0-1.4-0.4-2.6-1.2-3.5
		c-0.8-0.9-1.9-1.4-3.2-1.4c-1.3,0-2.4,0.5-3.2,1.4S517.7,597.1,517.7,598.5z"/>
	<path fill="#464545" d="M530.4,604.5v-12h4.8c1.1,0,2,0.3,2.7,1c0.7,0.7,1.1,1.5,1.1,2.6c0,0.5-0.1,1-0.3,1.4s-0.4,0.8-0.7,1.1
		s-0.6,0.5-1,0.7s-0.8,0.3-1.2,0.3l3.2,4.9h-1.8l-3-4.7h-2.4v4.7H530.4z M531.9,598.4h3.1c0.7,0,1.3-0.2,1.7-0.6s0.7-1,0.7-1.7
		s-0.2-1.2-0.7-1.7s-1-0.6-1.7-0.6h-3.1V598.4z"/>
</g>
<g>
	<rect x="89.9" y="107.5" fill="none" stroke="#616261" stroke-width="3" stroke-miterlimit="10" width="280.2" height="389"/>
	<rect x="113" y="130.6" fill="none" stroke="#616261" stroke-width="3" stroke-miterlimit="10" width="234" height="342.8"/>
</g>
<line fill="none" stroke="#464545" stroke-width="2.9679" x1="0" y1="11" x2="460" y2="11"/>
<g>
	<path fill="#464545" d="M476,10.3c-0.3-0.8-0.5-1.6-0.5-2.5s0.2-1.7,0.5-2.5c0.3-0.8,0.8-1.4,1.3-2c0.5-0.5,1.2-1,2-1.3
		s1.6-0.5,2.4-0.5c1.9,0,3.4,0.8,4.6,2.4L485,4.6c-0.4-0.5-0.8-1-1.4-1.3s-1.2-0.5-1.9-0.5c-1.3,0-2.4,0.5-3.3,1.4
		c-0.9,0.9-1.3,2.1-1.3,3.5c0,0.9,0.2,1.8,0.6,2.5c0.4,0.7,1,1.3,1.7,1.7c0.7,0.4,1.5,0.6,2.4,0.6c0.7,0,1.3-0.2,1.9-0.5
		s1.1-0.7,1.4-1.3l1.3,0.7c-1.2,1.6-2.7,2.4-4.6,2.4c-0.9,0-1.7-0.2-2.4-0.5s-1.4-0.7-2-1.3C476.7,11.7,476.3,11.1,476,10.3z"/>
	<path fill="#464545" d="M488.1,13.8v-12h7.9v1.3h-6.4v3.9h6.2v1.3h-6.2v4.1h6.4v1.3H488.1z"/>
	<path fill="#464545" d="M498.4,13.8v-12h1.5v12H498.4z"/>
	<path fill="#464545" d="M502.5,13.8v-12h1.5v10.7h5.6v1.3H502.5z"/>
	<path fill="#464545" d="M511.5,13.8v-12h1.5v12H511.5z"/>
	<path fill="#464545" d="M515.8,13.8v-12h1.5l6.9,9.4V1.8h1.5v12h-1.4l-7-9.6v9.6H515.8z"/>
	<path fill="#464545" d="M528.6,10.3c-0.3-0.8-0.5-1.6-0.5-2.5c0-0.9,0.2-1.8,0.5-2.5c0.3-0.8,0.8-1.4,1.3-2c0.6-0.5,1.2-0.9,2-1.2
		c0.8-0.3,1.6-0.4,2.4-0.4c1.9,0,3.5,0.7,4.7,2.2l-1.2,0.8c-0.4-0.5-0.9-0.9-1.5-1.2c-0.6-0.3-1.3-0.4-2-0.4c-1.3,0-2.4,0.5-3.3,1.4
		c-0.9,0.9-1.3,2.1-1.3,3.5c0,0.9,0.2,1.8,0.6,2.5c0.4,0.8,1,1.3,1.7,1.7c0.7,0.4,1.5,0.6,2.4,0.6c0.7,0,1.3-0.1,1.9-0.4
		c0.6-0.3,1-0.6,1.4-0.9V8.9h-4.1V7.6h5.6v4.3c-0.6,0.6-1.3,1.2-2.1,1.5c-0.8,0.4-1.7,0.6-2.6,0.6c-0.8,0-1.7-0.2-2.4-0.5
		c-0.8-0.3-1.4-0.7-2-1.3C529.3,11.7,528.9,11.1,528.6,10.3z"/>
</g>
</svg>
