<?xml version="1.0" encoding="utf-8"?>
<!-- Generator: Adobe Illustrator 18.0.0, SVG Export Plug-In . SVG Version: 6.00 Build 0)  -->
<!DOCTYPE svg PUBLIC "-//W3C//DTD SVG 1.1//EN" "http://www.w3.org/Graphics/SVG/1.1/DTD/svg11.dtd">
<svg version="1.1" id="Layer_1" xmlns="http://www.w3.org/2000/svg" xmlns:xlink="http://www.w3.org/1999/xlink" x="0px" y="0px"
	 width="176px" height="244px" viewBox="0 0 470 650" enable-background="new 0 0 470 650" xml:space="preserve">
<g>
	<rect x="77.4" y="176.7" fill="none" stroke="#616261" stroke-width="3" stroke-miterlimit="10" width="280.2" height="389"/>
	<rect x="100.4" y="199.8" fill="none" stroke="#616261" stroke-width="3" stroke-miterlimit="10" width="234" height="342.8"/>
</g>
<g>
	
		<polygon opacity="0.8" fill="#B2B2B2" stroke="#717070" stroke-width="0.6241" stroke-miterlimit="10" enable-background="new    " points="
		460.3,111.4 470,101.8 0.3,101.8 9.4,111.4 459,111.4 	"/>
	
		<rect x="0" y="69.7" fill="#C6C6C6" stroke="#717070" stroke-width="0.5911" stroke-miterlimit="10" enable-background="new    " width="470" height="32.1"/>
</g>
<text transform="matrix(1 0 0 1 119.3961 18.692)" fill="#464545" font-family="'ProximaNova-Regular'" font-size="24">A</text>
<text transform="matrix(1 0 0 1 209.8969 18.692)" fill="#464545" font-family="'ProximaNova-Regular'" font-size="24">B</text>
<text transform="matrix(1 0 0 1 300.5406 18.692)" fill="#464545" font-family="'ProximaNova-Regular'" font-size="24">C</text>
<g>
	<g>
		<line fill="none" stroke="#464545" stroke-width="3" x1="308.6" y1="82.6" x2="308.6" y2="552.8"/>
		<g>
			<polygon fill="#464545" points="299.7,85.2 308.6,69.7 317.6,85.2 			"/>
		</g>
		<g>
			<polygon fill="#464545" points="299.7,550.1 308.6,565.7 317.6,550.1 			"/>
		</g>
	</g>
</g>
<g>
	<g>
		<line fill="none" stroke="#464545" stroke-width="3" x1="217.4" y1="82.6" x2="217.4" y2="552.8"/>
		<g>
			<polygon fill="#464545" points="208.5,85.2 217.4,69.7 226.4,85.2 			"/>
		</g>
		<g>
			<polygon fill="#464545" points="208.5,550.1 217.4,565.7 226.4,550.1 			"/>
		</g>
	</g>
</g>
<g>
	<g>
		<line fill="none" stroke="#464545" stroke-width="3" x1="127.3" y1="82.6" x2="127.3" y2="552.8"/>
		<g>
			<polygon fill="#464545" points="118.3,85.2 127.3,69.7 136.3,85.2 			"/>
		</g>
		<g>
			<polygon fill="#464545" points="118.3,550.1 127.3,565.7 136.3,550.1 			"/>
		</g>
	</g>
</g>
<line fill="none" stroke="#464545" stroke-width="3" x1="-2.6" y1="645.2" x2="417.3" y2="645.2"/>
<g>
	<path fill="#464545" d="M426,648.2v-9.3h6.1v1h-5v3h4.9v1h-4.9v4.3H426z"/>
	<path fill="#464545" d="M433.5,648.2v-9.3h1.2v8.3h4.3v1H433.5z"/>
	<path fill="#464545" d="M440.8,646c-0.4-0.7-0.6-1.6-0.6-2.5s0.2-1.7,0.6-2.5c0.4-0.7,0.9-1.3,1.6-1.7c0.7-0.4,1.5-0.6,2.4-0.6
		s1.7,0.2,2.4,0.6c0.7,0.4,1.3,1,1.6,1.7s0.6,1.6,0.6,2.5s-0.2,1.7-0.6,2.5s-0.9,1.3-1.6,1.7c-0.7,0.4-1.5,0.6-2.4,0.6
		s-1.7-0.2-2.4-0.6C441.7,647.3,441.2,646.7,440.8,646z M441.4,643.5c0,0.7,0.1,1.4,0.4,1.9s0.7,1,1.2,1.4c0.5,0.3,1.1,0.5,1.8,0.5
		c0.7,0,1.3-0.2,1.8-0.5c0.5-0.3,0.9-0.8,1.2-1.4s0.4-1.2,0.4-1.9c0-1.1-0.3-2-1-2.7c-0.6-0.7-1.5-1.1-2.5-1.1c-1,0-1.9,0.4-2.5,1.1
		S441.4,642.4,441.4,643.5z"/>
	<path fill="#464545" d="M451.5,646c-0.4-0.7-0.6-1.6-0.6-2.5s0.2-1.7,0.6-2.5c0.4-0.7,0.9-1.3,1.6-1.7c0.7-0.4,1.5-0.6,2.4-0.6
		s1.7,0.2,2.4,0.6c0.7,0.4,1.3,1,1.6,1.7s0.6,1.6,0.6,2.5s-0.2,1.7-0.6,2.5s-0.9,1.3-1.6,1.7c-0.7,0.4-1.5,0.6-2.4,0.6
		s-1.7-0.2-2.4-0.6C452.4,647.3,451.9,646.7,451.5,646z M452.1,643.5c0,0.7,0.1,1.4,0.4,1.9s0.7,1,1.2,1.4c0.5,0.3,1.1,0.5,1.8,0.5
		c0.7,0,1.3-0.2,1.8-0.5c0.5-0.3,0.9-0.8,1.2-1.4s0.4-1.2,0.4-1.9c0-1.1-0.3-2-1-2.7c-0.6-0.7-1.5-1.1-2.5-1.1c-1,0-1.9,0.4-2.5,1.1
		S452.1,642.4,452.1,643.5z"/>
	<path fill="#464545" d="M462,648.2v-9.3h3.8c0.9,0,1.6,0.3,2.1,0.8c0.5,0.5,0.8,1.2,0.8,2c0,0.4-0.1,0.8-0.2,1.1
		c-0.1,0.3-0.3,0.6-0.5,0.8s-0.5,0.4-0.8,0.5s-0.6,0.2-0.9,0.2l2.5,3.8h-1.4l-2.4-3.7h-1.9v3.7H462z M463.2,643.5h2.4
		c0.6,0,1-0.2,1.4-0.5s0.5-0.8,0.5-1.3s-0.2-1-0.5-1.3s-0.8-0.5-1.4-0.5h-2.4V643.5z"/>
</g>
</svg>
