<?xml version="1.0" encoding="utf-8"?>
<!-- Generator: Adobe Illustrator 18.0.0, SVG Export Plug-In . SVG Version: 6.00 Build 0)  -->
<!DOCTYPE svg PUBLIC "-//W3C//DTD SVG 1.1//EN" "http://www.w3.org/Graphics/SVG/1.1/DTD/svg11.dtd">
<svg version="1.1" id="Layer_1" xmlns="http://www.w3.org/2000/svg" xmlns:xlink="http://www.w3.org/1999/xlink" x="0px" y="0px"
	 width="176px" height="243px" viewBox="0 0 469.8 648.7" enable-background="new 0 0 469.8 648.7" xml:space="preserve">
<g>
	<rect x="79.9" y="176.7" fill="none" stroke="#616261" stroke-width="3" stroke-miterlimit="10" width="280.2" height="389"/>
	<rect x="103" y="199.8" fill="none" stroke="#616261" stroke-width="3" stroke-miterlimit="10" width="234" height="342.8"/>
</g>
<text transform="matrix(1 0 0 1 121.9528 18.692)" fill="#464545" font-family="'ProximaNova-Regular'" font-size="24">A</text>
<text transform="matrix(1 0 0 1 212.4535 18.692)" fill="#464545" font-family="'ProximaNova-Regular'" font-size="24">B</text>
<text transform="matrix(1 0 0 1 303.0974 18.692)" fill="#464545" font-family="'ProximaNova-Regular'" font-size="24">C</text>
<g>
	<g>
		<line fill="none" stroke="#464545" stroke-width="3" x1="311.2" y1="82.6" x2="311.2" y2="632.3"/>
		<g>
			<polygon fill="#464545" points="302.2,85.2 311.2,69.7 320.2,85.2 			"/>
		</g>
		<g>
			<polygon fill="#464545" points="302.2,629.6 311.2,645.2 320.2,629.6 			"/>
		</g>
	</g>
</g>
<g>
	<g>
		<line fill="none" stroke="#464545" stroke-width="3" x1="220" y1="82.6" x2="220" y2="632.3"/>
		<g>
			<polygon fill="#464545" points="211,85.2 220,69.7 229,85.2 			"/>
		</g>
		<g>
			<polygon fill="#464545" points="211,629.6 220,645.2 229,629.6 			"/>
		</g>
	</g>
</g>
<g>
	<g>
		<line fill="none" stroke="#464545" stroke-width="3" x1="129.8" y1="82.6" x2="129.8" y2="632.3"/>
		<g>
			<polygon fill="#464545" points="120.9,85.2 129.8,69.7 138.8,85.2 			"/>
		</g>
		<g>
			<polygon fill="#464545" points="120.9,629.6 129.8,645.2 138.8,629.6 			"/>
		</g>
	</g>
</g>
<line fill="none" stroke="#464545" stroke-width="3" x1="0" y1="645.2" x2="416.3" y2="645.2"/>
<g>
	<path fill="#464545" d="M422.6,648.2v-9.3h6.1v1h-5v3h4.9v1h-4.9v4.3H422.6z"/>
	<path fill="#464545" d="M430.1,648.2v-9.3h1.2v8.3h4.3v1H430.1z"/>
	<path fill="#464545" d="M437.4,646c-0.4-0.7-0.6-1.6-0.6-2.5s0.2-1.7,0.6-2.5s0.9-1.3,1.6-1.7c0.7-0.4,1.5-0.6,2.4-0.6
		s1.7,0.2,2.4,0.6c0.7,0.4,1.3,1,1.6,1.7s0.6,1.6,0.6,2.5s-0.2,1.7-0.6,2.5s-0.9,1.3-1.6,1.7c-0.7,0.4-1.5,0.6-2.4,0.6
		s-1.7-0.2-2.4-0.6C438.3,647.3,437.7,646.7,437.4,646z M438,643.5c0,0.7,0.1,1.4,0.4,1.9c0.3,0.6,0.7,1,1.2,1.4
		c0.5,0.3,1.1,0.5,1.8,0.5c0.7,0,1.3-0.2,1.8-0.5c0.5-0.3,0.9-0.8,1.2-1.4c0.3-0.6,0.4-1.2,0.4-1.9c0-1.1-0.3-2-1-2.7
		c-0.6-0.7-1.5-1.1-2.5-1.1c-1,0-1.9,0.4-2.5,1.1S438,642.4,438,643.5z"/>
	<path fill="#464545" d="M448.1,646c-0.4-0.7-0.6-1.6-0.6-2.5s0.2-1.7,0.6-2.5s0.9-1.3,1.6-1.7c0.7-0.4,1.5-0.6,2.4-0.6
		s1.7,0.2,2.4,0.6c0.7,0.4,1.3,1,1.6,1.7s0.6,1.6,0.6,2.5s-0.2,1.7-0.6,2.5s-0.9,1.3-1.6,1.7c-0.7,0.4-1.5,0.6-2.4,0.6
		s-1.7-0.2-2.4-0.6C449,647.3,448.4,646.7,448.1,646z M448.7,643.5c0,0.7,0.1,1.4,0.4,1.9c0.3,0.6,0.7,1,1.2,1.4
		c0.5,0.3,1.1,0.5,1.8,0.5c0.7,0,1.3-0.2,1.8-0.5c0.5-0.3,0.9-0.8,1.2-1.4c0.3-0.6,0.4-1.2,0.4-1.9c0-1.1-0.3-2-1-2.7
		c-0.6-0.7-1.5-1.1-2.5-1.1c-1,0-1.9,0.4-2.5,1.1S448.7,642.4,448.7,643.5z"/>
	<path fill="#464545" d="M458.6,648.2v-9.3h3.8c0.9,0,1.6,0.3,2.1,0.8c0.5,0.5,0.8,1.2,0.8,2c0,0.4-0.1,0.8-0.2,1.1
		c-0.1,0.3-0.3,0.6-0.5,0.8c-0.2,0.2-0.5,0.4-0.8,0.5c-0.3,0.1-0.6,0.2-0.9,0.2l2.5,3.8H464l-2.4-3.7h-1.9v3.7H458.6z M459.7,643.5
		h2.4c0.6,0,1-0.2,1.4-0.5c0.4-0.3,0.5-0.8,0.5-1.3s-0.2-1-0.5-1.3s-0.8-0.5-1.4-0.5h-2.4V643.5z"/>
</g>
<line fill="none" stroke="#464545" stroke-width="3" x1="0" y1="67.7" x2="408.1" y2="67.7"/>
<g>
	<path fill="#464545" d="M412.6,69.6c-0.3-0.6-0.4-1.4-0.4-2.1s0.1-1.5,0.4-2.1c0.3-0.6,0.6-1.2,1.1-1.6c0.5-0.4,1-0.8,1.6-1.1
		c0.6-0.3,1.3-0.4,2-0.4c1.6,0,2.9,0.7,3.8,2l-1,0.6c-0.3-0.4-0.7-0.8-1.2-1.1c-0.5-0.3-1-0.4-1.6-0.4c-1.1,0-2,0.4-2.8,1.1
		c-0.7,0.8-1.1,1.7-1.1,2.9c0,0.8,0.2,1.5,0.5,2.1c0.3,0.6,0.8,1.1,1.4,1.5c0.6,0.3,1.2,0.5,2,0.5c0.6,0,1.1-0.1,1.6-0.4
		c0.5-0.3,0.9-0.6,1.2-1.1l1,0.6c-1,1.3-2.2,2-3.8,2c-0.7,0-1.4-0.1-2-0.4c-0.6-0.3-1.2-0.6-1.6-1.1
		C413.3,70.8,412.9,70.2,412.6,69.6z"/>
	<path fill="#464545" d="M422.8,72.4v-10h6.6v1.1H424v3.2h5.2v1.1H424v3.4h5.3v1.1H422.8z"/>
	<path fill="#464545" d="M431.3,72.4v-10h1.2v10H431.3z"/>
	<path fill="#464545" d="M434.7,72.4v-10h1.2v8.9h4.7v1.1H434.7z"/>
	<path fill="#464545" d="M442.3,72.4v-10h1.2v10H442.3z"/>
	<path fill="#464545" d="M445.9,72.4v-10h1.3l5.8,7.8v-7.8h1.2v10h-1.2l-5.8-8v8H445.9z"/>
	<path fill="#464545" d="M456.5,69.6c-0.3-0.7-0.4-1.4-0.4-2.1s0.1-1.5,0.4-2.1c0.3-0.7,0.6-1.2,1.1-1.6c0.5-0.4,1-0.8,1.6-1
		c0.6-0.2,1.3-0.4,2-0.4c1.6,0,2.9,0.6,3.9,1.9l-1,0.6c-0.3-0.4-0.7-0.8-1.3-1c-0.5-0.2-1.1-0.4-1.6-0.4c-1.1,0-2,0.4-2.8,1.1
		c-0.7,0.8-1.1,1.7-1.1,2.9c0,0.8,0.2,1.5,0.5,2.1c0.3,0.6,0.8,1.1,1.4,1.5s1.2,0.5,2,0.5c0.6,0,1.1-0.1,1.5-0.3
		c0.5-0.2,0.9-0.5,1.2-0.8v-2h-3.4v-1.1h4.7v3.6c-0.5,0.5-1.1,1-1.7,1.3c-0.7,0.3-1.4,0.5-2.2,0.5c-0.7,0-1.4-0.1-2-0.4
		c-0.6-0.3-1.2-0.6-1.6-1S456.7,70.2,456.5,69.6z"/>
</g>
</svg>
