<?xml version="1.0" encoding="utf-8"?>
<!-- Generator: Adobe Illustrator 18.0.0, SVG Export Plug-In . SVG Version: 6.00 Build 0)  -->
<!DOCTYPE svg PUBLIC "-//W3C//DTD SVG 1.1//EN" "http://www.w3.org/Graphics/SVG/1.1/DTD/svg11.dtd">
<svg version="1.1" id="Layer_1" xmlns="http://www.w3.org/2000/svg" xmlns:xlink="http://www.w3.org/1999/xlink" x="0px" y="0px"
	 width="203px" height="244px" viewBox="0 0 540 650" enable-background="new 0 0 540 650" xml:space="preserve">
	 <defs>
		<style>
			@font-face {
			font-family: "proximanova-nova";

			src: url('https://doopsalta2.com/Fonts/proxima-nova-three.woff2') format('woff2'),
				url('https://doopsalta2.com/Fonts/proxima-nova-three.woff') format('woff'),
				url('https://doopsalta2.com/Fonts/proxima-nova-three.otf') format('opentype');
			font-style: normal;
			}
		</style>
	</defs>
<g>
	
		<polygon opacity="0.8" fill="#B2B2B2" stroke="#717070" stroke-width="0.6174" stroke-miterlimit="10" enable-background="new    " points="
		452.5,111.4 462,101.8 2.3,101.8 11.2,111.4 451.2,111.4 	"/>
	
		<rect x="2" y="69.7" fill="#C6C6C6" stroke="#717070" stroke-width="0.5848" stroke-miterlimit="10" enable-background="new    " width="460" height="32.1"/>
</g>
<g>
	<g>
		<path fill="#464545" d="M142,19c0-1.5,0-2.9-0.1-4.4c-0.1-1.5-0.2-2.8-0.4-4.2c-0.2-1.3-0.4-2.6-0.8-3.7c-0.3-1.2-0.8-2.2-1.4-3.1
			l1.9-1.2c0.6,1,1.1,2.1,1.5,3.4c0.4,1.3,0.7,2.8,0.9,4.4c0.1,0.7,0.2,1.4,0.2,2.2c0.1,0.8,0.1,1.5,0.1,2.3s0.1,1.5,0.1,2.2
			c0,0.7,0,1.4,0,2.1H142z"/>
	</g>
</g>
<g>
	<g>
		<path fill="#464545" d="M236.7,2.2c0,0,0,0.1,0,0.2s0,0.3,0.1,0.5c0,0.2,0,0.5,0.1,0.7c0,0.3,0,0.6,0,0.9c0,1.7-0.4,3.1-1.2,4v0
			c-0.4,0.5-0.8,0.8-1.4,1c-0.5,0.2-1.1,0.4-1.8,0.4c-0.4,0-0.7,0-1-0.1c-0.3,0-0.6-0.1-0.9-0.2c0,0.1,0,0.2,0,0.3s0,0.2,0,0.3
			c0.1,0.7,0.2,1.4,0.2,2.2c0.1,0.8,0.1,1.5,0.1,2.2c0,0.8,0.1,1.5,0.1,2.2c0,0.7,0,1.4,0,2.1h-2.2c0-1.2,0-2.4,0-3.6
			c0-1.2-0.1-2.3-0.2-3.5c-0.1-1.1-0.2-2.2-0.4-3.2c-0.2-1-0.5-2-0.8-2.8c-0.2-0.4-0.3-0.8-0.5-1.2c-0.2-0.4-0.4-0.8-0.6-1.1
			l1.9-1.2c0.1,0.2,0.2,0.4,0.3,0.6c0.1,0.2,0.2,0.4,0.3,0.6s0.2,0.4,0.3,0.7s0.2,0.5,0.4,0.8c0.2,0.4,0.3,0.8,0.5,1.1
			c0.2,0.3,0.4,0.6,0.6,0.8c0.2,0.2,0.5,0.4,0.8,0.5s0.6,0.2,1.1,0.2c0.3,0,0.6,0,0.8-0.1c0.2-0.1,0.4-0.2,0.6-0.4
			c0.1-0.2,0.3-0.4,0.4-0.6c0.1-0.2,0.2-0.5,0.2-0.7c0.1-0.2,0.1-0.5,0.1-0.8c0-0.3,0-0.5,0-0.8c0-0.3,0-0.6-0.1-0.9
			c0-0.3-0.1-0.5-0.1-0.7L236.7,2.2z"/>
	</g>
</g>
<g>
	<path fill="#464545" d="M329.8,2c0.1,0.6,0.2,1.2,0.3,1.8c0.1,0.5,0.1,1.1,0.1,1.5c0,1.4-0.3,2.5-0.9,3.3c-0.3,0.3-0.6,0.6-1,0.8
		c-0.4,0.2-0.8,0.3-1.3,0.3c-0.2,0-0.4,0-0.6-0.1c-0.2,0-0.4-0.1-0.6-0.2c-0.2-0.1-0.4-0.2-0.6-0.4c-0.2-0.2-0.4-0.4-0.6-0.7
		l-0.2,0.3c-0.4,0.4-0.8,0.7-1.2,0.9c-0.4,0.2-0.9,0.3-1.5,0.3c-0.3,0-0.5,0-0.7-0.1c-0.2,0-0.4-0.1-0.7-0.2c0,0.1,0,0.2,0,0.3
		s0,0.2,0,0.3c0.1,0.7,0.2,1.5,0.2,2.2s0.1,1.5,0.1,2.2s0.1,1.5,0.1,2.2c0,0.7,0,1.4,0,2.1h-2.2c0-0.3,0-0.6,0-1c0-0.3,0-0.7,0-1
		c0-1.1,0-2.2-0.1-3.2c-0.1-1-0.2-2.1-0.3-3c-0.1-1-0.3-1.9-0.6-2.8c-0.2-0.9-0.5-1.7-0.8-2.5c0,0,0-0.1-0.1-0.2c0,0,0-0.1,0-0.1
		c-0.1-0.3-0.3-0.6-0.4-0.9c-0.1-0.3-0.3-0.6-0.5-0.8l2-1.2c0.1,0.1,0.1,0.2,0.2,0.3c0.1,0.1,0.1,0.3,0.2,0.4
		c0.1,0.2,0.2,0.3,0.2,0.5c0.1,0.2,0.2,0.3,0.2,0.5c0.2,0.4,0.4,0.7,0.5,1.1c0.2,0.5,0.4,0.9,0.5,1.2s0.3,0.6,0.5,0.8
		c0.2,0.2,0.4,0.3,0.6,0.4c0.2,0.1,0.5,0.1,0.8,0.1c0.2,0,0.4,0,0.6-0.1s0.3-0.2,0.4-0.4c0.2-0.2,0.4-0.6,0.5-1
		c0.1-0.5,0.2-1,0.2-1.6c0-0.1,0-0.2,0-0.4c0-0.2,0-0.4,0-0.6c0-0.2,0-0.4,0-0.6s0-0.3,0-0.4l2.2-0.3c0,0,0,0.1,0,0.1s0,0.1,0,0.1
		c0,0.1,0,0.2,0.1,0.4c0,0.2,0,0.4,0.1,0.6c0,0.5,0.1,0.9,0.2,1.5c0.1,0.5,0.2,1,0.3,1.4c0.1,0.3,0.2,0.5,0.3,0.6
		c0.1,0.2,0.2,0.3,0.3,0.3c0.1,0.1,0.2,0.1,0.2,0.1c0.1,0,0.1,0,0.2,0c0.2,0,0.3,0,0.4-0.1c0.1,0,0.1-0.1,0.2-0.2
		c0,0,0.1-0.1,0.1-0.2c0-0.1,0.1-0.2,0.1-0.4c0-0.1,0.1-0.3,0.1-0.5c0-0.2,0-0.5,0-0.8c0-0.3,0-0.7-0.1-1.2c-0.1-0.5-0.1-1-0.3-1.7
		L329.8,2z"/>
</g>
<g>
	<g>
		<rect x="91.9" y="176.7" fill="none" stroke="#616261" stroke-width="3" stroke-miterlimit="10" width="280.2" height="389"/>
		<rect x="115" y="199.8" fill="none" stroke="#616261" stroke-width="3" stroke-miterlimit="10" width="234" height="342.8"/>
	</g>
	<g>
		<g>
			<line fill="none" stroke="#464545" stroke-width="3" x1="323.2" y1="82.6" x2="323.2" y2="552.8"/>
			<g>
				<polygon fill="#464545" points="314.2,85.2 323.2,69.7 332.2,85.2 				"/>
			</g>
			<g>
				<polygon fill="#464545" points="314.2,550.1 323.2,565.7 332.2,550.1 				"/>
			</g>
		</g>
	</g>
	<g>
		<g>
			<line fill="none" stroke="#464545" stroke-width="3" x1="232" y1="82.6" x2="232" y2="552.8"/>
			<g>
				<polygon fill="#464545" points="223,85.2 232,69.7 241,85.2 				"/>
			</g>
			<g>
				<polygon fill="#464545" points="223,550.1 232,565.7 241,550.1 				"/>
			</g>
		</g>
	</g>
	<g>
		<g>
			<line fill="none" stroke="#464545" stroke-width="3" x1="141.8" y1="82.6" x2="141.8" y2="552.8"/>
			<g>
				<polygon fill="#464545" points="132.9,85.2 141.8,69.7 150.8,85.2 				"/>
			</g>
			<g>
				<polygon fill="#464545" points="132.9,550.1 141.8,565.7 150.8,550.1 				"/>
			</g>
		</g>
	</g>
</g>
<line fill="none" stroke="#464545" stroke-width="2.9678" x1="2" y1="636.1" x2="462" y2="636.1"/>
<g>
	<g>
		<path fill="#464545" d="M487.1,637.6c-0.1,0-0.3,0-0.4,0s-0.3,0-0.4,0c-0.6,0-1.1-0.2-1.5-0.3s-0.8-0.4-1-0.8
			c-0.5-0.6-0.6-1.4-0.5-2.3c0.1-0.4,0.2-0.8,0.3-1.2s0.3-0.7,0.6-1c0.3-0.3,0.5-0.6,0.9-0.8c0.3-0.2,0.6-0.3,1-0.3
			c0.4,0,0.7,0.1,1.1,0.3c0.3,0.2,0.7,0.4,1,0.8c0.3,0.3,0.5,0.6,0.7,1s0.4,0.8,0.5,1.2c0.1,0.4,0.2,0.9,0.3,1.4c0,0.5,0,0.9,0,1.4
			h0c0,0,0,0.1,0,0.3c0,0.2,0,0.4-0.1,0.6c-0.1,0.3-0.1,0.5-0.2,0.9c-0.1,0.3-0.2,0.7-0.4,1c-0.2,0.4-0.5,0.8-0.7,1.1
			c-0.3,0.3-0.6,0.6-0.9,0.8c-0.4,0.3-0.9,0.5-1.4,0.7c-0.5,0.1-1.1,0.2-1.7,0.2h0c-1,0-1.9-0.2-2.7-0.6c-0.4-0.2-0.8-0.5-1.1-0.7
			c-0.3-0.3-0.6-0.6-0.8-1c-0.3-0.4-0.5-0.9-0.6-1.5c-0.1-0.5-0.2-1.1-0.1-1.7c0-0.6,0.2-1.2,0.4-1.9c0.2-0.6,0.5-1.3,0.8-1.9
			l1.4,0.7c-0.3,0.5-0.5,1.1-0.7,1.6c-0.2,0.5-0.3,1-0.3,1.5c0,0.5,0,0.9,0,1.3s0.2,0.8,0.4,1.1c0.3,0.5,0.7,0.9,1.3,1.2
			s1.2,0.4,2,0.4h0c0.5,0,1,0,1.5-0.2c0.4-0.2,0.8-0.4,1.2-0.8c0.3-0.3,0.6-0.7,0.8-1.1c0.2-0.4,0.4-0.9,0.5-1.3c-0.1,0-0.2,0-0.4,0
			S487.3,637.6,487.1,637.6z M485.5,628.4l-1.3,1.3l-1.3-1.3l1.3-1.3L485.5,628.4z M486,632.5c-0.2,0-0.4,0.1-0.6,0.4
			c-0.2,0.2-0.3,0.4-0.4,0.7s-0.2,0.5-0.2,0.8c-0.1,0.5,0,0.8,0.2,1.1c0.1,0.1,0.2,0.2,0.3,0.3s0.2,0.1,0.4,0.2
			c0.1,0,0.3,0.1,0.4,0.1c0.1,0,0.2,0,0.3,0c0.3,0,0.6,0,0.9,0c0.3,0,0.5,0,0.7,0c0-0.3-0.1-0.6-0.1-0.9c-0.1-0.3-0.1-0.6-0.2-0.8
			c-0.1-0.3-0.2-0.5-0.3-0.7s-0.2-0.4-0.4-0.5c-0.1-0.1-0.2-0.2-0.4-0.3C486.4,632.6,486.2,632.5,486,632.5z M488.7,628.4l-1.3,1.3
			l-1.3-1.3l1.3-1.3L488.7,628.4z"/>
		<path fill="#464545" d="M495.3,637.6c-0.6,0-1.1-0.1-1.5-0.2s-0.8-0.3-1-0.6c-0.2-0.2-0.3-0.4-0.4-0.6s-0.2-0.4-0.2-0.6
			c0-0.2-0.1-0.4-0.1-0.6s0-0.3,0-0.5v-0.1c0,0,0-0.1,0-0.3s0-0.4,0-0.8c0-0.3,0-0.7,0-1.1s0-0.8,0-1.3c0-0.4,0-0.9,0-1.4s0-1,0-1.4
			c0-0.5,0-0.9-0.1-1.3c0-0.4-0.1-0.7-0.1-0.9l1.5-0.3c0,0.3,0.1,0.6,0.1,1c0,0.4,0.1,0.8,0.1,1.3s0,0.9,0.1,1.4c0,0.5,0,1,0,1.4
			c0,0.5,0,0.9,0,1.3c0,0.4,0,0.8,0,1.1c0,0.3,0,0.6,0,0.8c0,0.2,0,0.3,0,0.4v0.1c0,0.2,0,0.4,0,0.6c0,0.2,0.1,0.3,0.2,0.4
			c0.2,0.2,0.7,0.4,1.3,0.4h0.1c0.1,0,0.2,0,0.3,0.1c0.1,0,0.2,0.1,0.2,0.2c0.1,0.1,0.1,0.2,0.2,0.2c0,0.1,0.1,0.2,0.1,0.3
			c0,0.2-0.1,0.4-0.2,0.5C495.7,637.5,495.5,637.6,495.3,637.6z"/>
		<path fill="#464545" d="M494.2,636.8c0-0.2,0.1-0.4,0.2-0.5c0.1-0.1,0.3-0.2,0.5-0.2h0.9c0.2,0,0.4,0,0.6,0c0.2,0,0.4,0,0.6,0
			c0.2,0,0.4-0.1,0.6-0.1s0.4-0.1,0.6-0.2c0.2-0.1,0.3-0.2,0.5-0.3c0.1-0.1,0.2-0.2,0.3-0.4c0.1-0.2,0.1-0.5,0.1-1s-0.1-0.9-0.3-1.5
			c-0.1-0.2-0.1-0.3-0.2-0.5c-0.1-0.2-0.1-0.4-0.2-0.5c-0.1-0.2-0.2-0.4-0.3-0.6l1.4-0.7c0,0,0,0.1,0.1,0.2c0,0.1,0.1,0.2,0.2,0.4
			s0.2,0.4,0.2,0.6c0.1,0.2,0.2,0.5,0.3,0.7c0.5,1.5,0.5,2.7,0.2,3.5c-0.4,0.8-1,1.4-2,1.7c-0.1,0-0.3,0.1-0.5,0.1
			c-0.2,0-0.4,0-0.7,0.1s-0.4,0-0.7,0c-0.2,0-0.4,0-0.5,0h-1.1H495c-0.2,0-0.4-0.1-0.5-0.2C494.3,637.2,494.2,637.1,494.2,636.8z
			 M498.3,627.9l-1.3,1.3l-1.3-1.3l1.3-1.3L498.3,627.9z M501.5,627.9l-1.3,1.3l-1.3-1.3l1.3-1.3L501.5,627.9z"/>
		<path fill="#464545" d="M504.5,625.2c0.2,2.1,0.4,4,0.4,5.7c0.1,2.8,0,5-0.1,6.7l-1.5-0.1c0.2-2.3,0.2-4.3,0.2-5.8
			c-0.1-2.5-0.2-4.6-0.4-6.3L504.5,625.2z"/>
		<path fill="#464545" d="M525.9,635.7C525.8,635.7,525.8,635.8,525.9,635.7c-0.1,0.1-0.1,0.1-0.2,0.2c0.3,0.1,0.6,0.1,1,0.1
			c0.3,0,0.7,0.1,1,0.1c0.2,0,0.4,0.1,0.5,0.2c0.2,0.1,0.2,0.3,0.2,0.5c0,0.1,0,0.2-0.1,0.3c0,0.1-0.1,0.2-0.2,0.2
			c-0.1,0.1-0.2,0.1-0.2,0.2c-0.1,0-0.2,0.1-0.3,0.1c-0.7,0-1.3,0-1.9-0.1s-1.2-0.2-1.7-0.4c-0.1,0-0.2,0.1-0.2,0.1
			s-0.1,0.1-0.2,0.1c-0.3,0.1-0.6,0.2-0.9,0.3c-0.4,0.1-0.8,0.1-1.2,0.2c-0.4,0-0.9,0.1-1.3,0.1s-0.9,0-1.4,0c-1.6,0-2.9-0.2-4-0.6
			c-1.1-0.4-1.8-1-2.3-1.8c-0.2-0.3-0.4-0.7-0.4-1.1c-0.1-0.4-0.1-0.7-0.1-1.1c0-0.3,0.1-0.7,0.1-1c0.1-0.3,0.1-0.6,0.2-0.8
			s0.2-0.4,0.2-0.6s0.1-0.2,0.1-0.2l1.4,0.7c0,0,0,0.1-0.1,0.2s-0.1,0.2-0.2,0.4s-0.1,0.4-0.2,0.6c-0.1,0.2-0.1,0.4-0.1,0.7
			c0,0.2,0,0.5,0,0.7c0,0.2,0.1,0.5,0.3,0.7c0.2,0.3,0.4,0.5,0.6,0.7c0.2,0.2,0.6,0.4,0.9,0.5c0.4,0.1,0.8,0.2,1.3,0.3
			c0.5,0.1,1.1,0.1,1.7,0.1c0.5,0,0.9,0,1.3,0s0.7,0,1,0c0.3,0,0.6-0.1,0.8-0.1c0.2,0,0.5-0.1,0.7-0.1c-0.7-0.6-1.1-1.3-1.1-2.1
			c0-0.5,0.1-0.9,0.2-1.4c0.1-0.4,0.4-0.8,0.6-1.2c0.3-0.3,0.6-0.6,1-0.8c0.4-0.2,0.7-0.3,1.1-0.3c0.4,0,0.7,0.1,1,0.2
			c0.3,0.1,0.6,0.3,0.8,0.6c0.1,0.1,0.2,0.2,0.3,0.4s0.2,0.3,0.3,0.5c0.1,0.2,0.1,0.4,0.2,0.7c0,0.2,0.1,0.5,0.1,0.8
			C526.5,634.3,526.3,635.1,525.9,635.7z M523.9,635.4c0.2-0.1,0.4-0.3,0.5-0.4s0.2-0.3,0.3-0.5c0.1-0.2,0.1-0.3,0.1-0.5
			c0-0.2,0-0.4,0-0.5c0-0.4,0-0.7-0.1-0.9s-0.2-0.4-0.3-0.5c-0.1-0.1-0.2-0.2-0.4-0.2s-0.2,0-0.3,0c-0.1,0-0.3,0-0.5,0.1
			c-0.2,0.1-0.3,0.2-0.5,0.4s-0.3,0.4-0.3,0.7s-0.1,0.6-0.1,0.9c0,0.2,0.1,0.5,0.3,0.7c0.2,0.2,0.6,0.5,1,0.7L523.9,635.4z
			 M525.2,627.2l-1.3,1.3l-1.3-1.3l1.3-1.3L525.2,627.2z"/>
		<path fill="#464545" d="M526.9,636.8c0-0.2,0.1-0.4,0.2-0.6c0.2-0.1,0.4-0.2,0.6-0.2h0.8c0.3,0,0.6,0,1,0c0.3,0,0.7,0,1-0.1
			c0.3-0.1,0.6-0.1,0.8-0.3c0.3-0.1,0.5-0.3,0.6-0.5c0.2-0.3,0.3-0.5,0.3-0.9c0-0.3,0-0.6-0.1-1c-0.1-0.2-0.2-0.5-0.4-0.8
			s-0.5-0.7-0.8-1.1c-0.3-0.4-0.7-0.8-1.1-1.2s-0.8-0.8-1.3-1.1l0.2-1.6l6.4-2.8l0.6,1.4l-5.6,2.4c0.3,0.2,0.5,0.5,0.8,0.7
			c0.3,0.3,0.6,0.6,0.9,0.9c0.4,0.4,0.7,0.9,1,1.3s0.5,0.8,0.6,1.1c0.1,0.4,0.2,0.7,0.3,1s0.1,0.6,0,0.9c0,0.3-0.1,0.5-0.2,0.8
			c-0.1,0.2-0.2,0.5-0.3,0.7c-0.5,0.8-1.2,1.3-2.4,1.5c-0.2,0-0.4,0.1-0.7,0.1h-2.5c-0.3,0-0.5-0.1-0.6-0.2
			C526.9,637.2,526.9,637.1,526.9,636.8z"/>
	</g>
</g>
</svg>
