<?xml version="1.0" encoding="utf-8"?>
<!-- Generator: Adobe Illustrator 18.0.0, SVG Export Plug-In . SVG Version: 6.00 Build 0)  -->
<!DOCTYPE svg PUBLIC "-//W3C//DTD SVG 1.1//EN" "http://www.w3.org/Graphics/SVG/1.1/DTD/svg11.dtd">
<svg version="1.1" id="Layer_1" xmlns="http://www.w3.org/2000/svg" xmlns:xlink="http://www.w3.org/1999/xlink" x="0px" y="0px"
	 width="203px" height="244px" viewBox="0 0 540 650" enable-background="new 0 0 540 650" xml:space="preserve">
	 <defs>
		<style>
			@font-face {
			font-family: "proximanova-nova";

			src: url('https://doopsalta2.com/Fonts/proxima-nova-three.woff2') format('woff2'),
				url('https://doopsalta2.com/Fonts/proxima-nova-three.woff') format('woff'),
				url('https://doopsalta2.com/Fonts/proxima-nova-three.otf') format('opentype');
			font-style: normal;
			}
		</style>
	</defs>
<line fill="none" stroke="#464545" stroke-width="2.9679" x1="-1" y1="636.1" x2="459" y2="636.1"/>
<g>
	<rect x="88.9" y="176.7" fill="none" stroke="#616261" stroke-width="3" stroke-miterlimit="10" width="280.2" height="389"/>
	<rect x="112" y="199.8" fill="none" stroke="#616261" stroke-width="3" stroke-miterlimit="10" width="234" height="342.8"/>
</g>
<g>
	<g>
		<g>
			<line fill="none" stroke="#464545" stroke-width="2.7851" x1="319.7" y1="81.7" x2="319.7" y2="553.7"/>
			<g>
				<polygon fill="#464545" points="311.3,84.1 319.7,69.7 328,84.1 				"/>
			</g>
			<g>
				<polygon fill="#464545" points="311.3,551.3 319.7,565.7 328,551.3 				"/>
			</g>
		</g>
	</g>
	<g>
		<g>
			<line fill="none" stroke="#464545" stroke-width="2.7851" x1="228.5" y1="81.7" x2="228.5" y2="553.7"/>
			<g>
				<polygon fill="#464545" points="220.1,84.1 228.5,69.7 236.8,84.1 				"/>
			</g>
			<g>
				<polygon fill="#464545" points="220.1,551.3 228.5,565.7 236.8,551.3 				"/>
			</g>
		</g>
	</g>
	<g>
		<g>
			<line fill="none" stroke="#464545" stroke-width="2.7851" x1="138.3" y1="81.7" x2="138.3" y2="553.7"/>
			<g>
				<polygon fill="#464545" points="130,84.1 138.3,69.7 146.7,84.1 				"/>
			</g>
			<g>
				<polygon fill="#464545" points="130,551.3 138.3,565.7 146.7,551.3 				"/>
			</g>
		</g>
	</g>
</g>
<line fill="none" stroke="#464545" stroke-width="2.9679" x1="-1" y1="69.7" x2="459" y2="69.7"/>
<g>
	<g>
		<path fill="#464545" d="M138,19c0-1.5,0-2.9-0.1-4.4c-0.1-1.5-0.2-2.8-0.4-4.2s-0.4-2.6-0.8-3.7c-0.3-1.2-0.8-2.2-1.4-3.1l1.9-1.2
			c0.6,1,1.1,2.1,1.5,3.4c0.4,1.3,0.7,2.8,0.9,4.4c0.1,0.7,0.2,1.4,0.2,2.2c0.1,0.8,0.1,1.5,0.1,2.3c0,0.8,0.1,1.5,0.1,2.2
			c0,0.7,0,1.4,0,2.1H138z"/>
	</g>
</g>
<g>
	<g>
		<path fill="#464545" d="M232.6,2.2c0,0,0,0.1,0,0.2s0,0.3,0.1,0.5c0,0.2,0,0.5,0.1,0.7c0,0.3,0,0.6,0,0.9c0,1.7-0.4,3.1-1.2,4v0
			c-0.4,0.5-0.8,0.8-1.4,1c-0.5,0.2-1.1,0.4-1.8,0.4c-0.4,0-0.7,0-1-0.1c-0.3,0-0.6-0.1-0.9-0.2c0,0.1,0,0.2,0,0.3s0,0.2,0,0.3
			c0.1,0.7,0.2,1.4,0.2,2.2c0.1,0.8,0.1,1.5,0.1,2.2c0,0.8,0.1,1.5,0.1,2.2c0,0.7,0,1.4,0,2.1h-2.2c0-1.2,0-2.4,0-3.6
			c0-1.2-0.1-2.3-0.2-3.5c-0.1-1.1-0.2-2.2-0.4-3.2c-0.2-1-0.5-2-0.8-2.8c-0.2-0.4-0.3-0.8-0.5-1.2c-0.2-0.4-0.4-0.8-0.6-1.1
			l1.9-1.2c0.1,0.2,0.2,0.4,0.3,0.6c0.1,0.2,0.2,0.4,0.3,0.6s0.2,0.4,0.3,0.7s0.2,0.5,0.4,0.8c0.2,0.4,0.3,0.8,0.5,1.1
			c0.2,0.3,0.4,0.6,0.6,0.8c0.2,0.2,0.5,0.4,0.8,0.5s0.6,0.2,1.1,0.2c0.3,0,0.6,0,0.8-0.1c0.2-0.1,0.4-0.2,0.6-0.4
			c0.1-0.2,0.3-0.4,0.4-0.6c0.1-0.2,0.2-0.5,0.2-0.7c0.1-0.2,0.1-0.5,0.1-0.8c0-0.3,0-0.5,0-0.8c0-0.3,0-0.6-0.1-0.9
			c0-0.3-0.1-0.5-0.1-0.7L232.6,2.2z"/>
	</g>
</g>
<g>
	<path fill="#464545" d="M326.7,2c0.1,0.6,0.2,1.2,0.3,1.8c0.1,0.5,0.1,1.1,0.1,1.5c0,1.4-0.3,2.5-0.9,3.3c-0.3,0.3-0.6,0.6-1,0.8
		c-0.4,0.2-0.8,0.3-1.3,0.3c-0.2,0-0.4,0-0.6-0.1c-0.2,0-0.4-0.1-0.6-0.2c-0.2-0.1-0.4-0.2-0.6-0.4c-0.2-0.2-0.4-0.4-0.6-0.7
		l-0.2,0.3c-0.4,0.4-0.8,0.7-1.2,0.9c-0.4,0.2-0.9,0.3-1.5,0.3c-0.3,0-0.5,0-0.7-0.1c-0.2,0-0.4-0.1-0.7-0.2c0,0.1,0,0.2,0,0.3
		s0,0.2,0,0.3c0.1,0.7,0.2,1.5,0.2,2.2s0.1,1.5,0.1,2.2s0.1,1.5,0.1,2.2c0,0.7,0,1.4,0,2.1h-2.2c0-0.3,0-0.6,0-1c0-0.3,0-0.7,0-1
		c0-1.1,0-2.2-0.1-3.2c-0.1-1-0.2-2.1-0.3-3c-0.1-1-0.3-1.9-0.6-2.8c-0.2-0.9-0.5-1.7-0.8-2.5c0,0,0-0.1-0.1-0.2c0,0,0-0.1,0-0.1
		c-0.1-0.3-0.3-0.6-0.4-0.9c-0.1-0.3-0.3-0.6-0.5-0.8l2-1.2c0.1,0.1,0.1,0.2,0.2,0.3c0.1,0.1,0.1,0.3,0.2,0.4
		c0.1,0.2,0.2,0.3,0.2,0.5c0.1,0.2,0.2,0.3,0.2,0.5c0.2,0.4,0.4,0.7,0.5,1.1c0.2,0.5,0.4,0.9,0.5,1.2s0.3,0.6,0.5,0.8
		c0.2,0.2,0.4,0.3,0.6,0.4c0.2,0.1,0.5,0.1,0.8,0.1c0.2,0,0.4,0,0.6-0.1s0.3-0.2,0.4-0.4c0.2-0.2,0.4-0.6,0.5-1
		c0.1-0.5,0.2-1,0.2-1.6c0-0.1,0-0.2,0-0.4c0-0.2,0-0.4,0-0.6c0-0.2,0-0.4,0-0.6s0-0.3,0-0.4l2.2-0.3c0,0,0,0.1,0,0.1s0,0.1,0,0.1
		c0,0.1,0,0.2,0.1,0.4c0,0.2,0,0.4,0.1,0.6c0,0.5,0.1,0.9,0.2,1.5c0.1,0.5,0.2,1,0.3,1.4c0.1,0.3,0.2,0.5,0.3,0.6
		c0.1,0.2,0.2,0.3,0.3,0.3c0.1,0.1,0.2,0.1,0.2,0.1c0.1,0,0.1,0,0.2,0c0.2,0,0.3,0,0.4-0.1c0.1,0,0.1-0.1,0.2-0.2
		c0,0,0.1-0.1,0.1-0.2c0-0.1,0.1-0.2,0.1-0.4c0-0.1,0.1-0.3,0.1-0.5c0-0.2,0-0.5,0-0.8c0-0.3,0-0.7-0.1-1.2c-0.1-0.5-0.1-1-0.3-1.7
		L326.7,2z"/>
</g>
<g>
	<g>
		<path fill="#464545" d="M487.6,637.6c-0.1,0-0.3,0-0.4,0c-0.1,0-0.3,0-0.4,0c-0.6,0-1.1-0.2-1.5-0.3c-0.4-0.2-0.8-0.4-1-0.8
			c-0.5-0.6-0.6-1.4-0.5-2.3c0.1-0.4,0.2-0.8,0.3-1.2c0.2-0.4,0.3-0.7,0.6-1c0.3-0.3,0.5-0.6,0.9-0.8s0.6-0.3,1-0.3
			c0.4,0,0.7,0.1,1.1,0.3c0.3,0.2,0.7,0.4,1,0.8c0.3,0.3,0.5,0.6,0.7,1s0.4,0.8,0.5,1.2c0.1,0.4,0.2,0.9,0.3,1.4s0,0.9,0,1.4h0
			c0,0,0,0.1,0,0.3c0,0.2,0,0.4-0.1,0.6c-0.1,0.3-0.1,0.5-0.2,0.9c-0.1,0.3-0.2,0.7-0.4,1c-0.2,0.4-0.5,0.8-0.7,1.1
			c-0.3,0.3-0.6,0.6-0.9,0.8c-0.4,0.3-0.9,0.5-1.4,0.7s-1.1,0.2-1.7,0.2h0c-1,0-1.9-0.2-2.7-0.6c-0.4-0.2-0.8-0.5-1.1-0.7
			c-0.3-0.3-0.6-0.6-0.8-1c-0.3-0.4-0.5-0.9-0.6-1.5c-0.1-0.5-0.2-1.1-0.1-1.7c0-0.6,0.2-1.2,0.4-1.9c0.2-0.6,0.5-1.3,0.8-1.9
			l1.4,0.7c-0.3,0.5-0.5,1.1-0.7,1.6s-0.3,1-0.3,1.5c0,0.5,0,0.9,0,1.3s0.2,0.8,0.4,1.1c0.3,0.5,0.7,0.9,1.3,1.2
			c0.6,0.3,1.2,0.4,2,0.4h0c0.5,0,1,0,1.5-0.2c0.4-0.2,0.8-0.4,1.2-0.8c0.3-0.3,0.6-0.7,0.8-1.1c0.2-0.4,0.4-0.9,0.5-1.3
			c-0.1,0-0.2,0-0.4,0C487.8,637.6,487.7,637.6,487.6,637.6z M485.9,628.4l-1.3,1.3l-1.3-1.3l1.3-1.3L485.9,628.4z M486.5,632.5
			c-0.2,0-0.4,0.1-0.6,0.4c-0.2,0.2-0.3,0.4-0.4,0.7c-0.1,0.3-0.2,0.5-0.2,0.8c-0.1,0.5,0,0.8,0.2,1.1c0.1,0.1,0.2,0.2,0.3,0.2
			s0.2,0.1,0.4,0.2c0.1,0,0.3,0.1,0.4,0.1c0.1,0,0.2,0,0.3,0c0.3,0,0.6,0,0.9,0c0.3,0,0.5,0,0.7,0c0-0.3-0.1-0.6-0.1-0.9
			c-0.1-0.3-0.1-0.6-0.2-0.8c-0.1-0.3-0.2-0.5-0.3-0.7c-0.1-0.2-0.2-0.4-0.4-0.5c-0.1-0.1-0.2-0.2-0.4-0.3
			C486.8,632.6,486.6,632.5,486.5,632.5z M489.2,628.4l-1.3,1.3l-1.3-1.3l1.3-1.3L489.2,628.4z"/>
		<path fill="#464545" d="M495.8,637.6c-0.6,0-1.1-0.1-1.5-0.2c-0.4-0.1-0.8-0.3-1-0.6c-0.2-0.2-0.3-0.4-0.4-0.6
			c-0.1-0.2-0.2-0.4-0.2-0.6s-0.1-0.4-0.1-0.6c0-0.2,0-0.3,0-0.5v-0.1c0,0,0-0.1,0-0.3s0-0.4,0-0.8s0-0.7,0-1.1s0-0.8,0-1.3
			c0-0.4,0-0.9,0-1.4c0-0.5,0-1,0-1.4c0-0.5,0-0.9-0.1-1.3c0-0.4-0.1-0.7-0.1-0.9l1.5-0.3c0,0.3,0.1,0.6,0.1,1s0.1,0.8,0.1,1.3
			c0,0.5,0,0.9,0.1,1.4c0,0.5,0,1,0,1.4c0,0.5,0,0.9,0,1.3s0,0.8,0,1.1s0,0.6,0,0.8c0,0.2,0,0.3,0,0.4v0.1c0,0.2,0,0.4,0,0.6
			c0,0.2,0.1,0.3,0.2,0.4c0.2,0.2,0.7,0.4,1.3,0.4h0.1c0.1,0,0.2,0,0.3,0.1c0.1,0,0.2,0.1,0.2,0.2c0.1,0.1,0.1,0.2,0.2,0.2
			c0,0.1,0.1,0.2,0.1,0.3c0,0.2-0.1,0.4-0.2,0.5C496.2,637.5,496,637.6,495.8,637.6z"/>
		<path fill="#464545" d="M494.7,636.8c0-0.2,0.1-0.4,0.2-0.5c0.1-0.1,0.3-0.2,0.5-0.2h0.9c0.2,0,0.4,0,0.6,0c0.2,0,0.4,0,0.6,0
			c0.2,0,0.4-0.1,0.6-0.1s0.4-0.1,0.6-0.2c0.2-0.1,0.3-0.2,0.5-0.3c0.1-0.1,0.2-0.2,0.3-0.4c0.1-0.2,0.1-0.5,0.1-1
			c0-0.4-0.1-0.9-0.3-1.5c-0.1-0.2-0.1-0.3-0.2-0.5s-0.1-0.4-0.2-0.5c-0.1-0.2-0.2-0.4-0.3-0.6l1.4-0.7c0,0,0,0.1,0.1,0.2
			c0,0.1,0.1,0.2,0.2,0.4s0.2,0.4,0.2,0.6c0.1,0.2,0.2,0.5,0.3,0.7c0.5,1.5,0.5,2.7,0.2,3.5c-0.4,0.8-1,1.4-2,1.7
			c-0.1,0-0.3,0.1-0.5,0.1c-0.2,0-0.4,0-0.7,0.1c-0.2,0-0.4,0-0.7,0c-0.2,0-0.4,0-0.5,0h-1.1h-0.1c-0.2,0-0.4-0.1-0.5-0.2
			C494.8,637.2,494.7,637.1,494.7,636.8z M498.7,627.9l-1.3,1.3l-1.3-1.3l1.3-1.3L498.7,627.9z M501.9,627.9l-1.3,1.3l-1.3-1.3
			l1.3-1.3L501.9,627.9z"/>
		<path fill="#464545" d="M504.9,625.2c0.2,2.1,0.4,4,0.4,5.7c0.1,2.8,0,5-0.1,6.7l-1.5-0.1c0.2-2.3,0.2-4.3,0.2-5.8
			c-0.1-2.5-0.2-4.6-0.4-6.3L504.9,625.2z"/>
		<path fill="#464545" d="M526.3,635.7C526.3,635.7,526.3,635.8,526.3,635.7c-0.1,0.1-0.1,0.1-0.2,0.2c0.3,0.1,0.6,0.1,1,0.1
			c0.3,0,0.7,0.1,1,0.1c0.2,0,0.4,0.1,0.5,0.2c0.2,0.1,0.2,0.3,0.2,0.5c0,0.1,0,0.2-0.1,0.3c0,0.1-0.1,0.2-0.2,0.2
			c-0.1,0.1-0.2,0.1-0.2,0.2c-0.1,0-0.2,0.1-0.3,0.1c-0.7,0-1.3,0-1.9-0.1c-0.6-0.1-1.2-0.2-1.7-0.4c-0.1,0-0.2,0.1-0.2,0.1
			c-0.1,0-0.1,0.1-0.2,0.1c-0.3,0.1-0.6,0.2-0.9,0.3c-0.4,0.1-0.8,0.1-1.2,0.2c-0.4,0-0.9,0.1-1.3,0.1s-0.9,0-1.4,0
			c-1.6,0-2.9-0.2-4-0.6c-1.1-0.4-1.8-1-2.3-1.8c-0.2-0.3-0.4-0.7-0.4-1.1s-0.1-0.7-0.1-1.1c0-0.3,0.1-0.7,0.1-1s0.1-0.6,0.2-0.8
			s0.2-0.4,0.2-0.6c0.1-0.1,0.1-0.2,0.1-0.2l1.4,0.7c0,0,0,0.1-0.1,0.2c0,0.1-0.1,0.2-0.2,0.4s-0.1,0.4-0.2,0.6
			c-0.1,0.2-0.1,0.4-0.1,0.7s0,0.5,0,0.7c0,0.2,0.1,0.5,0.3,0.7c0.2,0.3,0.4,0.5,0.6,0.7c0.2,0.2,0.6,0.4,0.9,0.5
			c0.4,0.1,0.8,0.2,1.3,0.3c0.5,0.1,1.1,0.1,1.7,0.1c0.5,0,0.9,0,1.3,0s0.7,0,1,0c0.3,0,0.6-0.1,0.8-0.1c0.2,0,0.5-0.1,0.7-0.1
			c-0.7-0.6-1.1-1.3-1.1-2.1c0-0.5,0.1-0.9,0.2-1.4c0.1-0.4,0.4-0.8,0.6-1.2c0.3-0.3,0.6-0.6,1-0.8c0.4-0.2,0.7-0.3,1.1-0.3
			c0.4,0,0.7,0.1,1,0.2c0.3,0.1,0.6,0.3,0.8,0.6c0.1,0.1,0.2,0.2,0.3,0.4s0.2,0.3,0.3,0.5c0.1,0.2,0.1,0.4,0.2,0.7
			c0,0.2,0.1,0.5,0.1,0.8C527,634.3,526.8,635.1,526.3,635.7z M524.4,635.4c0.2-0.1,0.4-0.3,0.5-0.4c0.1-0.2,0.2-0.3,0.3-0.5
			c0.1-0.2,0.1-0.3,0.1-0.5c0-0.2,0-0.4,0-0.5c0-0.4,0-0.7-0.1-0.9s-0.2-0.4-0.3-0.5c-0.1-0.1-0.2-0.2-0.4-0.2c-0.1,0-0.2,0-0.3,0
			c-0.1,0-0.3,0-0.5,0.1c-0.2,0.1-0.3,0.2-0.5,0.4c-0.1,0.2-0.3,0.4-0.3,0.7c-0.1,0.3-0.1,0.6-0.1,0.9c0,0.2,0.1,0.5,0.3,0.7
			c0.2,0.2,0.6,0.5,1,0.7L524.4,635.4z M525.6,627.2l-1.3,1.3l-1.3-1.3l1.3-1.3L525.6,627.2z"/>
		<path fill="#464545" d="M527.3,636.8c0-0.2,0.1-0.4,0.2-0.6c0.2-0.2,0.4-0.2,0.6-0.2h0.8c0.3,0,0.6,0,1,0c0.3,0,0.7,0,1-0.1
			c0.3-0.1,0.6-0.1,0.8-0.3c0.3-0.1,0.5-0.3,0.6-0.5c0.2-0.3,0.3-0.5,0.3-0.9s0-0.6-0.1-1c-0.1-0.2-0.2-0.5-0.4-0.8
			c-0.2-0.3-0.5-0.7-0.8-1.1c-0.3-0.4-0.7-0.8-1.1-1.2s-0.8-0.8-1.3-1.1l0.2-1.6l6.4-2.8l0.6,1.4l-5.6,2.4c0.3,0.2,0.5,0.5,0.8,0.7
			c0.3,0.3,0.6,0.6,0.9,0.9c0.4,0.4,0.7,0.9,1,1.3c0.3,0.4,0.5,0.8,0.6,1.1c0.1,0.4,0.2,0.7,0.3,1c0,0.3,0.1,0.6,0,0.9
			c0,0.3-0.1,0.5-0.2,0.8c-0.1,0.2-0.2,0.5-0.3,0.7c-0.5,0.8-1.2,1.3-2.4,1.5c-0.2,0-0.4,0.1-0.7,0.1h-2.5c-0.3,0-0.5-0.1-0.6-0.2
			C527.4,637.2,527.3,637.1,527.3,636.8z"/>
	</g>
</g>
<g>
	<g>
		<path fill="#464545" d="M489.6,67.8C489.5,67.8,489.5,67.8,489.6,67.8c-0.1,0.1-0.1,0.1-0.2,0.2c0.3,0.1,0.6,0.1,1,0.1
			c0.3,0,0.7,0.1,1,0.1c0.2,0,0.4,0.1,0.5,0.2c0.2,0.1,0.2,0.3,0.2,0.5c0,0.1,0,0.2-0.1,0.3c0,0.1-0.1,0.2-0.2,0.2
			c-0.1,0.1-0.2,0.1-0.2,0.2c-0.1,0-0.2,0.1-0.3,0.1c-0.7,0-1.3,0-1.9-0.1s-1.2-0.2-1.7-0.4c-0.1,0-0.2,0.1-0.2,0.1
			s-0.1,0.1-0.2,0.1c-0.3,0.1-0.6,0.2-0.9,0.3c-0.4,0.1-0.8,0.1-1.2,0.2c-0.4,0-0.9,0.1-1.3,0.1s-0.9,0-1.4,0c-1.6,0-2.9-0.2-4-0.6
			c-1.1-0.4-1.8-1-2.3-1.8c-0.2-0.3-0.4-0.7-0.4-1.1c-0.1-0.4-0.1-0.7-0.1-1.1c0-0.3,0.1-0.7,0.1-1c0.1-0.3,0.1-0.6,0.2-0.8
			s0.2-0.4,0.2-0.6s0.1-0.2,0.1-0.2l1.4,0.7c0,0,0,0.1-0.1,0.2s-0.1,0.2-0.2,0.4c-0.1,0.2-0.1,0.4-0.2,0.6c-0.1,0.2-0.1,0.4-0.1,0.7
			c0,0.2,0,0.5,0,0.7c0,0.2,0.1,0.5,0.3,0.7c0.2,0.3,0.4,0.5,0.6,0.7c0.2,0.2,0.6,0.4,0.9,0.5c0.4,0.1,0.8,0.2,1.3,0.3
			c0.5,0.1,1.1,0.1,1.7,0.1c0.5,0,0.9,0,1.3,0s0.7,0,1,0c0.3,0,0.6-0.1,0.8-0.1c0.2,0,0.5-0.1,0.7-0.1c-0.7-0.6-1.1-1.3-1.1-2.1
			c0-0.5,0.1-0.9,0.2-1.4c0.1-0.4,0.4-0.8,0.6-1.2c0.3-0.3,0.6-0.6,1-0.8c0.4-0.2,0.7-0.3,1.1-0.3c0.4,0,0.7,0.1,1,0.2
			c0.3,0.1,0.6,0.3,0.8,0.6c0.1,0.1,0.2,0.2,0.3,0.4s0.2,0.3,0.3,0.5c0.1,0.2,0.1,0.4,0.2,0.7c0,0.2,0.1,0.5,0.1,0.8
			C490.2,66.4,490,67.2,489.6,67.8z M487.6,67.4c0.2-0.1,0.4-0.3,0.5-0.4s0.2-0.3,0.3-0.5c0.1-0.2,0.1-0.3,0.1-0.5
			c0-0.2,0-0.4,0-0.5c0-0.4,0-0.7-0.1-0.9s-0.2-0.4-0.3-0.5c-0.1-0.1-0.2-0.2-0.4-0.2s-0.2,0-0.3,0c-0.1,0-0.3,0-0.5,0.1
			c-0.2,0.1-0.3,0.2-0.5,0.4s-0.3,0.4-0.3,0.7s-0.1,0.6-0.1,0.9c0,0.2,0.1,0.5,0.3,0.7c0.2,0.2,0.6,0.5,1,0.7L487.6,67.4z
			 M488.9,59.2l-1.3,1.3l-1.3-1.3l1.3-1.3L488.9,59.2z"/>
		<path fill="#464545" d="M490.6,68.9c0-0.1,0-0.2,0.1-0.3c0-0.1,0.1-0.2,0.2-0.2c0.1-0.1,0.2-0.1,0.2-0.2s0.2-0.1,0.3-0.1
			c0.2,0,0.4,0,0.6,0c0.2,0,0.4,0,0.6,0c0.2,0,0.4,0,0.6,0c0.2,0,0.3,0,0.5,0c-0.7-0.6-1-1.3-1-2c0-0.5,0.1-0.9,0.2-1.4
			c0.1-0.4,0.4-0.8,0.6-1.2s0.6-0.6,1-0.8c0.4-0.2,0.7-0.3,1.1-0.3c0.5,0,0.9,0.1,1.2,0.3s0.6,0.5,0.9,0.8c0.2,0.3,0.4,0.7,0.5,1.1
			c0.1,0.4,0.2,0.8,0.1,1.2c0,0.4-0.1,0.8-0.3,1.2c-0.1,0.4-0.4,0.7-0.6,1.1c0.2,0,0.3,0.1,0.5,0.1c0.2,0,0.4,0,0.6,0.1s0.4,0,0.6,0
			s0.4,0,0.6,0c0.2,0,0.4,0.1,0.6,0.2c0.1,0.1,0.2,0.3,0.2,0.5c0,0.1,0,0.2-0.1,0.3c0,0.1-0.1,0.2-0.2,0.2c-0.1,0.1-0.2,0.1-0.2,0.2
			c-0.1,0-0.2,0.1-0.3,0.1h-0.1c-0.2,0-0.3,0-0.5,0c-0.2,0-0.4,0-0.6,0c-0.2,0-0.4,0-0.6,0s-0.3,0-0.5-0.1c-0.3-0.1-0.6-0.1-0.9-0.2
			c-0.3-0.1-0.6-0.1-0.8-0.2c-0.2,0.1-0.5,0.2-0.9,0.2c-0.3,0.1-0.7,0.1-1,0.2c-0.4,0-0.8,0.1-1.2,0.1c-0.4,0-0.8,0-1.2,0h-0.1
			c-0.2,0-0.4-0.1-0.5-0.2C490.7,69.3,490.6,69.1,490.6,68.9z M495.2,59.3l-1.3,1.3l-1.3-1.3l1.3-1.3L495.2,59.3z M495.6,63.9
			c-0.1,0-0.3,0.1-0.5,0.2c-0.2,0.1-0.3,0.2-0.5,0.4c-0.1,0.2-0.3,0.4-0.3,0.7s-0.1,0.6-0.1,0.9c0,0.2,0.1,0.5,0.3,0.7
			s0.6,0.5,1,0.7l0.1,0.1c0.3-0.1,0.5-0.3,0.7-0.6c0.2-0.2,0.3-0.5,0.3-0.7c0.1-0.3,0.1-0.5,0-0.8c0-0.3-0.1-0.5-0.2-0.7
			s-0.2-0.4-0.4-0.5C495.9,64,495.8,63.9,495.6,63.9z M498.4,59.3l-1.3,1.3l-1.3-1.3l1.3-1.3L498.4,59.3z"/>
		<path fill="#464545" d="M499,68.9c0-0.1,0-0.2,0.1-0.3c0-0.1,0.1-0.2,0.2-0.2c0.1-0.1,0.1-0.1,0.2-0.2c0.1,0,0.2-0.1,0.3-0.1
			c0.3,0,0.6-0.1,0.8-0.2c0.2-0.1,0.5-0.3,0.7-0.5s0.4-0.4,0.5-0.7s0.3-0.5,0.4-0.8c0.1-0.3,0.2-0.6,0.3-0.9
			c0.1-0.3,0.1-0.6,0.2-0.8l1.5,0.3c0,0.1-0.1,0.3-0.2,0.5s-0.1,0.4-0.2,0.6c-0.1,0.2-0.1,0.5-0.1,0.7c0,0.2-0.1,0.5-0.1,0.7
			c0,0.1,0,0.3,0,0.4c0,0.1,0.1,0.3,0.1,0.4s0.1,0.2,0.3,0.2c0.1,0.1,0.2,0.1,0.4,0.1c0.3,0,0.5-0.1,0.7-0.2s0.4-0.3,0.6-0.6
			c0.2-0.2,0.3-0.5,0.4-0.8c0.1-0.3,0.2-0.6,0.3-0.9c0.1-0.3,0.2-0.6,0.2-0.9c0.1-0.3,0.1-0.5,0.1-0.8l1.5,0.3
			c-0.1,0.3-0.1,0.6-0.1,0.9S508,65.7,508,66c0,0.3,0,0.5,0,0.7c0,0.2,0,0.4,0,0.6c0,0.2,0.1,0.3,0.1,0.5c0.1,0.1,0.2,0.2,0.3,0.3
			s0.2,0.1,0.4,0.2c0.2,0,0.4,0,0.6,0c0.2,0,0.3-0.1,0.4-0.1c0.1-0.1,0.2-0.1,0.2-0.2c0-0.1,0.1-0.1,0.1-0.1h0
			c0.1-0.1,0.1-0.2,0.2-0.4c0-0.1,0-0.3,0-0.5c0-0.3,0-0.6-0.1-1c-0.1-0.3-0.2-0.7-0.3-1c-0.1-0.3-0.2-0.6-0.4-0.9
			c-0.1-0.3-0.2-0.5-0.3-0.7l1.4-0.7c0,0.1,0.1,0.2,0.1,0.3s0.2,0.3,0.3,0.5s0.2,0.5,0.3,0.7c0.1,0.3,0.2,0.6,0.3,0.9
			s0.2,0.6,0.2,0.9c0.1,0.3,0.1,0.6,0.1,0.9c0,0.4-0.1,0.9-0.2,1.2c-0.1,0.4-0.3,0.7-0.6,0.9s-0.6,0.5-0.9,0.6
			c-0.4,0.1-0.8,0.2-1.3,0.2c-0.2,0-0.4,0-0.6-0.1s-0.4-0.1-0.6-0.3c-0.2-0.1-0.4-0.2-0.5-0.4c-0.2-0.1-0.3-0.3-0.4-0.5
			c-0.3,0.4-0.7,0.7-1.1,0.9s-0.8,0.3-1.3,0.3c-0.2,0-0.4,0-0.6-0.1s-0.4-0.1-0.6-0.2c-0.2-0.1-0.4-0.2-0.5-0.4
			c-0.2-0.1-0.3-0.3-0.4-0.5c-0.3,0.3-0.7,0.6-1.1,0.8c-0.4,0.2-0.9,0.3-1.4,0.3h-0.1c-0.1,0-0.2,0-0.3-0.1s-0.2-0.1-0.2-0.2
			c-0.1-0.1-0.1-0.1-0.2-0.2C499,69.1,499,69,499,68.9z"/>
	</g>
</g>
</svg>
