<?xml version="1.0" encoding="utf-8"?>
<!-- Generator: Adobe Illustrator 18.0.0, SVG Export Plug-In . SVG Version: 6.00 Build 0)  -->
<!DOCTYPE svg PUBLIC "-//W3C//DTD SVG 1.1//EN" "http://www.w3.org/Graphics/SVG/1.1/DTD/svg11.dtd">
<svg version="1.1" id="Layer_1" xmlns="http://www.w3.org/2000/svg" xmlns:xlink="http://www.w3.org/1999/xlink" x="0px" y="0px"
	 width="216px" height="231px" viewBox="0 -10.7 577 617" enable-background="new 0 -10.7 577 617" xml:space="preserve">
	 <defs>
		<style>
			@font-face {
			font-family: "proximanova-nova";

			src: url('https://doopsalta2.com/Fonts/proxima-nova-three.woff2') format('woff2'),
				url('https://doopsalta2.com/Fonts/proxima-nova-three.woff') format('woff'),
				url('https://doopsalta2.com/Fonts/proxima-nova-three.otf') format('opentype');
			font-style: normal;
			}
		</style>
	</defs>
<g>
	<g>
		<line fill="none" stroke="#464545" stroke-width="3" x1="34.5" y1="25.3" x2="34.5" y2="586.4"/>
		<g>
			<polygon fill="#464545" points="25.5,27.9 34.5,12.3 43.5,27.9 			"/>
		</g>
		<g>
			<polygon fill="#464545" points="25.5,583.8 34.5,599.3 43.5,583.8 			"/>
		</g>
	</g>
</g>
<line fill="none" stroke="#464545" stroke-width="2.9679" x1="0" y1="601.5" x2="460" y2="601.5"/>
<g>
	<rect x="89.9" y="107.5" fill="none" stroke="#616261" stroke-width="3" stroke-miterlimit="10" width="280.2" height="389"/>
	<rect x="113" y="130.6" fill="none" stroke="#616261" stroke-width="3" stroke-miterlimit="10" width="234" height="342.8"/>
</g>
<line fill="none" stroke="#464545" stroke-width="2.9679" x1="0" y1="11" x2="460" y2="11"/>
<g>
	<g>
		<path fill="#454545" d="M477.2,6.3c-0.4-1-0.6-2.1-0.6-3.2c0-1.2,0.2-2.2,0.6-3.2c0.4-1,1-1.8,1.7-2.5c0.7-0.7,1.5-1.2,2.5-1.6
			c1-0.4,2-0.6,3.1-0.6c2.5,0,4.4,1,5.8,3L488.7-1c-0.4-0.7-1.1-1.2-1.8-1.6c-0.8-0.4-1.6-0.6-2.4-0.6c-1.7,0-3.1,0.6-4.2,1.7
			s-1.7,2.7-1.7,4.5c0,1.2,0.3,2.3,0.8,3.2s1.2,1.7,2.1,2.2c0.9,0.5,1.9,0.8,3,0.8c0.9,0,1.7-0.2,2.4-0.6s1.4-1,1.8-1.6l1.6,0.9
			c-1.5,2-3.4,3.1-5.8,3.1c-1.1,0-2.1-0.2-3.1-0.6c-1-0.4-1.8-0.9-2.5-1.6C478.2,8.1,477.7,7.3,477.2,6.3z"/>
		<path fill="#454545" d="M495.1,10.7V-4.6h10.1v1.7H497V2h8v1.7h-8V9h8.1v1.7H495.1z"/>
		<path fill="#454545" d="M510.5,10.7V-4.6h1.9v15.3H510.5z"/>
		<path fill="#454545" d="M518,10.7V-4.6h1.9V9h7.1v1.7H518z"/>
		<path fill="#454545" d="M531.9,10.7V-4.6h1.9v15.3H531.9z"/>
		<path fill="#454545" d="M539.7,10.7V-4.6h2l8.8,12v-12h1.9v15.3h-1.8l-8.9-12.2v12.2H539.7z"/>
		<path fill="#454545" d="M558.3,6.3c-0.4-1-0.6-2.1-0.6-3.3s0.2-2.3,0.6-3.3s1-1.8,1.7-2.5c0.7-0.7,1.5-1.2,2.5-1.6
			c1-0.4,2-0.6,3.1-0.6c2.4,0,4.4,1,6,2.9l-1.5,1c-0.5-0.6-1.1-1.2-1.9-1.5c-0.8-0.4-1.6-0.6-2.5-0.6c-1.7,0-3.1,0.6-4.2,1.7
			s-1.7,2.7-1.7,4.5c0,1.2,0.3,2.3,0.8,3.2c0.5,1,1.2,1.7,2.1,2.2c0.9,0.5,1.9,0.8,3,0.8c0.8,0,1.6-0.2,2.4-0.5
			c0.7-0.3,1.3-0.7,1.8-1.2V4.5h-5.3V2.8h7.2v5.5c-0.7,0.8-1.6,1.5-2.7,1.9s-2.2,0.7-3.4,0.7c-1.1,0-2.1-0.2-3.1-0.6
			c-1-0.4-1.8-0.9-2.5-1.6C559.2,8.1,558.7,7.3,558.3,6.3z"/>
	</g>
</g>
<g>
	<g>
		<path fill="#454545" d="M476.6,601.2v-15.3h10.1v1.7h-8.1v4.9h8v1.7h-8v7H476.6z"/>
		<path fill="#454545" d="M491.3,601.2v-15.3h1.9v13.6h7.1v1.7H491.3z"/>
		<path fill="#454545" d="M505.5,597.6c-0.6-1.2-0.9-2.6-0.9-4.1s0.3-2.8,0.9-4.1c0.6-1.2,1.5-2.2,2.7-2.8s2.5-1,4-1
			c1.5,0,2.8,0.3,4,1c1.2,0.7,2.1,1.6,2.7,2.8c0.6,1.2,1,2.6,1,4.1s-0.3,2.8-1,4.1c-0.6,1.2-1.5,2.2-2.7,2.8c-1.2,0.7-2.5,1-4,1
			c-1.5,0-2.8-0.3-4-1S506.2,598.8,505.5,597.6z M506.6,593.6c0,1.2,0.2,2.2,0.7,3.2c0.5,0.9,1.1,1.7,2,2.2c0.9,0.5,1.9,0.8,3,0.8
			s2.1-0.3,3-0.8c0.9-0.5,1.5-1.3,2-2.2s0.7-2,0.7-3.2c0-1.8-0.5-3.3-1.6-4.5c-1-1.2-2.4-1.8-4.1-1.8c-1.7,0-3.1,0.6-4.1,1.8
			C507.1,590.2,506.6,591.7,506.6,593.6z"/>
		<path fill="#454545" d="M525.4,597.6c-0.6-1.2-0.9-2.6-0.9-4.1s0.3-2.8,0.9-4.1c0.6-1.2,1.5-2.2,2.7-2.8s2.5-1,4-1
			c1.5,0,2.8,0.3,4,1c1.2,0.7,2.1,1.6,2.7,2.8c0.6,1.2,1,2.6,1,4.1s-0.3,2.8-1,4.1c-0.6,1.2-1.5,2.2-2.7,2.8c-1.2,0.7-2.5,1-4,1
			c-1.5,0-2.8-0.3-4-1S526.1,598.8,525.4,597.6z M526.5,593.6c0,1.2,0.2,2.2,0.7,3.2c0.5,0.9,1.1,1.7,2,2.2c0.9,0.5,1.9,0.8,3,0.8
			s2.1-0.3,3-0.8c0.9-0.5,1.5-1.3,2-2.2s0.7-2,0.7-3.2c0-1.8-0.5-3.3-1.6-4.5c-1-1.2-2.4-1.8-4.1-1.8c-1.7,0-3.1,0.6-4.1,1.8
			C527,590.2,526.5,591.7,526.5,593.6z"/>
		<path fill="#454545" d="M545,601.2v-15.3h6.2c1.4,0,2.6,0.4,3.5,1.3c0.9,0.8,1.3,2,1.3,3.4c0,0.7-0.1,1.3-0.3,1.8
			c-0.2,0.6-0.5,1-0.9,1.4c-0.4,0.4-0.8,0.7-1.3,0.9s-1,0.3-1.5,0.4l4.1,6.2h-2.3l-3.9-6.1h-3.1v6.1H545z M546.9,593.4h4
			c0.9,0,1.6-0.3,2.2-0.8c0.6-0.5,0.9-1.3,0.9-2.1s-0.3-1.6-0.9-2.1c-0.6-0.5-1.3-0.8-2.2-0.8h-4V593.4z"/>
	</g>
</g>
</svg>
