<?xml version="1.0" encoding="utf-8"?>
<!-- Generator: Adobe Illustrator 18.0.0, SVG Export Plug-In . SVG Version: 6.00 Build 0)  -->
<!DOCTYPE svg PUBLIC "-//W3C//DTD SVG 1.1//EN" "http://www.w3.org/Graphics/SVG/1.1/DTD/svg11.dtd">
<svg version="1.1" id="Layer_1" xmlns="http://www.w3.org/2000/svg" xmlns:xlink="http://www.w3.org/1999/xlink" x="0px" y="0px"
	 width="203px" height="244px" viewBox="0 0 540 650" enable-background="new 0 0 540 650" xml:space="preserve">
<g>
	<text transform="matrix(1 0 0 1 131.318 18.692)" fill="#464545" font-family="'ProximaNova-Regular'" font-size="24">A</text>
	<text transform="matrix(1 0 0 1 221.8186 18.692)" fill="#464545" font-family="'ProximaNova-Regular'" font-size="24">B</text>
	<text transform="matrix(1 0 0 1 312.4624 18.692)" fill="#464545" font-family="'ProximaNova-Regular'" font-size="24">C</text>
	<g>
		<g>
			<line fill="none" stroke="#464545" stroke-width="3" x1="320.6" y1="82.6" x2="320.6" y2="552.8"/>
			<g>
				<polygon fill="#464545" points="311.6,85.2 320.6,69.7 329.5,85.2 				"/>
			</g>
			<g>
				<polygon fill="#464545" points="311.6,550.1 320.6,565.7 329.5,550.1 				"/>
			</g>
		</g>
	</g>
	<g>
		<g>
			<line fill="none" stroke="#464545" stroke-width="3" x1="229.4" y1="82.6" x2="229.4" y2="552.8"/>
			<g>
				<polygon fill="#464545" points="220.4,85.2 229.4,69.7 238.3,85.2 				"/>
			</g>
			<g>
				<polygon fill="#464545" points="220.4,550.1 229.4,565.7 238.3,550.1 				"/>
			</g>
		</g>
	</g>
	<g>
		<g>
			<line fill="none" stroke="#464545" stroke-width="3" x1="139.2" y1="82.6" x2="139.2" y2="552.8"/>
			<g>
				<polygon fill="#464545" points="130.2,85.2 139.2,69.7 148.2,85.2 				"/>
			</g>
			<g>
				<polygon fill="#464545" points="130.2,550.1 139.2,565.7 148.2,550.1 				"/>
			</g>
		</g>
	</g>
</g>
<line fill="none" stroke="#464545" stroke-width="2.9679" x1="0" y1="645.2" x2="460" y2="645.2"/>
<g>
	<path fill="#464545" d="M484.1,648.2v-12h7.9v1.3h-6.4v3.9h6.2v1.3h-6.2v5.5H484.1z"/>
	<path fill="#464545" d="M493.8,648.2v-12h1.5v10.7h5.6v1.3H493.8z"/>
	<path fill="#464545" d="M503.2,645.4c-0.5-0.9-0.7-2-0.7-3.2s0.2-2.2,0.7-3.2s1.2-1.7,2.1-2.2s1.9-0.8,3.1-0.8s2.2,0.3,3.1,0.8
		c0.9,0.5,1.6,1.3,2.1,2.2c0.5,0.9,0.7,2,0.7,3.2s-0.2,2.2-0.7,3.2c-0.5,0.9-1.2,1.7-2.1,2.2c-0.9,0.5-2,0.8-3.1,0.8
		s-2.2-0.3-3.1-0.8C504.4,647.1,503.7,646.3,503.2,645.4z M504,642.2c0,0.9,0.2,1.8,0.5,2.5c0.4,0.7,0.9,1.3,1.5,1.7
		c0.7,0.4,1.5,0.6,2.3,0.6s1.7-0.2,2.3-0.6c0.7-0.4,1.2-1,1.6-1.7c0.4-0.7,0.5-1.6,0.5-2.5c0-1.4-0.4-2.6-1.2-3.5
		c-0.8-0.9-1.9-1.4-3.2-1.4c-1.3,0-2.4,0.5-3.2,1.4S504,640.8,504,642.2z"/>
	<path fill="#464545" d="M516.9,645.4c-0.5-0.9-0.7-2-0.7-3.2s0.2-2.2,0.7-3.2s1.2-1.7,2.1-2.2s1.9-0.8,3.1-0.8s2.2,0.3,3.1,0.8
		c0.9,0.5,1.6,1.3,2.1,2.2c0.5,0.9,0.7,2,0.7,3.2s-0.2,2.2-0.7,3.2c-0.5,0.9-1.2,1.7-2.1,2.2c-0.9,0.5-2,0.8-3.1,0.8
		s-2.2-0.3-3.1-0.8C518.1,647.1,517.4,646.3,516.9,645.4z M517.7,642.2c0,0.9,0.2,1.8,0.5,2.5c0.4,0.7,0.9,1.3,1.5,1.7
		c0.7,0.4,1.5,0.6,2.3,0.6s1.7-0.2,2.3-0.6c0.7-0.4,1.2-1,1.6-1.7c0.4-0.7,0.5-1.6,0.5-2.5c0-1.4-0.4-2.6-1.2-3.5
		c-0.8-0.9-1.9-1.4-3.2-1.4c-1.3,0-2.4,0.5-3.2,1.4S517.7,640.8,517.7,642.2z"/>
	<path fill="#464545" d="M530.4,648.2v-12h4.8c1.1,0,2,0.3,2.7,1c0.7,0.7,1.1,1.5,1.1,2.6c0,0.5-0.1,1-0.3,1.4s-0.4,0.8-0.7,1.1
		s-0.6,0.5-1,0.7s-0.8,0.3-1.2,0.3l3.2,4.9h-1.8l-3-4.7h-2.4v4.7H530.4z M531.9,642.1h3.1c0.7,0,1.3-0.2,1.7-0.6s0.7-1,0.7-1.7
		s-0.2-1.2-0.7-1.7s-1-0.6-1.7-0.6h-3.1V642.1z"/>
</g>
<g>
	<rect x="89.9" y="176.7" fill="none" stroke="#616261" stroke-width="3" stroke-miterlimit="10" width="280.2" height="389"/>
	<rect x="113" y="199.8" fill="none" stroke="#616261" stroke-width="3" stroke-miterlimit="10" width="234" height="342.8"/>
</g>
<line fill="none" stroke="#464545" stroke-width="2.9679" x1="0" y1="69.7" x2="460" y2="69.7"/>
<g>
	<path fill="#464545" d="M476,69c-0.3-0.8-0.5-1.6-0.5-2.5s0.2-1.7,0.5-2.5c0.3-0.8,0.8-1.4,1.3-2c0.5-0.5,1.2-1,2-1.3
		s1.6-0.5,2.4-0.5c1.9,0,3.4,0.8,4.6,2.4l-1.2,0.7c-0.4-0.5-0.8-1-1.4-1.3s-1.2-0.5-1.9-0.5c-1.3,0-2.4,0.5-3.3,1.4
		c-0.9,0.9-1.3,2.1-1.3,3.5c0,0.9,0.2,1.8,0.6,2.5c0.4,0.7,1,1.3,1.7,1.7c0.7,0.4,1.5,0.6,2.4,0.6c0.7,0,1.3-0.2,1.9-0.5
		s1.1-0.7,1.4-1.3l1.3,0.7c-1.2,1.6-2.7,2.4-4.6,2.4c-0.9,0-1.7-0.2-2.4-0.5s-1.4-0.7-2-1.3C476.7,70.4,476.3,69.8,476,69z"/>
	<path fill="#464545" d="M488.1,72.4v-12h7.9v1.3h-6.4v3.9h6.2V67h-6.2v4.1h6.4v1.3H488.1z"/>
	<path fill="#464545" d="M498.4,72.4v-12h1.5v12H498.4z"/>
	<path fill="#464545" d="M502.5,72.4v-12h1.5v10.7h5.6v1.3H502.5z"/>
	<path fill="#464545" d="M511.5,72.4v-12h1.5v12H511.5z"/>
	<path fill="#464545" d="M515.8,72.4v-12h1.5l6.9,9.4v-9.4h1.5v12h-1.4l-7-9.6v9.6H515.8z"/>
	<path fill="#464545" d="M528.6,69c-0.3-0.8-0.5-1.6-0.5-2.5c0-0.9,0.2-1.8,0.5-2.5c0.3-0.8,0.8-1.4,1.3-2c0.6-0.5,1.2-0.9,2-1.2
		c0.8-0.3,1.6-0.4,2.4-0.4c1.9,0,3.5,0.7,4.7,2.2l-1.2,0.8c-0.4-0.5-0.9-0.9-1.5-1.2c-0.6-0.3-1.3-0.4-2-0.4c-1.3,0-2.4,0.5-3.3,1.4
		c-0.9,0.9-1.3,2.1-1.3,3.5c0,0.9,0.2,1.8,0.6,2.5c0.4,0.8,1,1.3,1.7,1.7c0.7,0.4,1.5,0.6,2.4,0.6c0.7,0,1.3-0.1,1.9-0.4
		c0.6-0.3,1-0.6,1.4-0.9v-2.4h-4.1v-1.3h5.6v4.3c-0.6,0.6-1.3,1.2-2.1,1.5c-0.8,0.4-1.7,0.6-2.6,0.6c-0.8,0-1.7-0.2-2.4-0.5
		c-0.8-0.3-1.4-0.7-2-1.3S528.9,69.8,528.6,69z"/>
</g>
</svg>
