<?xml version="1.0" encoding="utf-8"?>
<!-- Generator: Adobe Illustrator 18.0.0, SVG Export Plug-In . SVG Version: 6.00 Build 0)  -->
<!DOCTYPE svg PUBLIC "-//W3C//DTD SVG 1.1//EN" "http://www.w3.org/Graphics/SVG/1.1/DTD/svg11.dtd">
<svg version="1.1" id="Layer_1" xmlns="http://www.w3.org/2000/svg" xmlns:xlink="http://www.w3.org/1999/xlink" x="0px" y="0px"
	 width="209px" height="231px" viewBox="0 -11.7 558 618" enable-background="new 0 -11.7 558 618" xml:space="preserve">
	 <defs>
		<style>
			@font-face {
			font-family: "proximanova-nova";

			src: url('https://doopsalta2.com/Fonts/proxima-nova-three.woff2') format('woff2'),
				url('https://doopsalta2.com/Fonts/proxima-nova-three.woff') format('woff'),
				url('https://doopsalta2.com/Fonts/proxima-nova-three.otf') format('opentype');
			font-style: normal;
			}
		</style>
	</defs>
<g>
	<g>
		<line fill="none" stroke="#464545" stroke-width="2.9884" x1="44.8" y1="25.2" x2="44.8" y2="581.9"/>
		<g>
			<polygon fill="#464545" points="35.8,27.8 44.8,12.3 53.7,27.8 			"/>
		</g>
		<g>
			<polygon fill="#464545" points="35.8,579.3 44.8,594.8 53.7,579.3 			"/>
		</g>
	</g>
</g>
<line fill="none" stroke="#464545" stroke-width="2.9679" x1="0" y1="593.3" x2="460" y2="593.3"/>
<g>
	<rect x="89.9" y="107.5" fill="none" stroke="#616261" stroke-width="3" stroke-miterlimit="10" width="280.2" height="389"/>
	<rect x="113" y="130.6" fill="none" stroke="#616261" stroke-width="3" stroke-miterlimit="10" width="234" height="342.8"/>
</g>
<line fill="none" stroke="#464545" stroke-width="2.9679" x1="0" y1="11" x2="460" y2="11"/>
<g>
	<g>
		<path fill="#464545" d="M486.8,596.5c-0.1,0-0.4,0-0.6,0c-0.1,0-0.4,0-0.6,0c-0.9,0-1.6-0.3-2.1-0.4c-0.6-0.1-1.1-0.6-1.4-1.1
			c-0.7-0.9-0.9-2-0.7-3.3c0.1-0.6,0.3-1.1,0.4-1.7s0.4-1,0.9-1.4c0.4-0.4,0.7-0.9,1.3-1.1c0.4-0.3,0.9-0.4,1.4-0.4s1,0.1,1.6,0.4
			c0.4,0.3,1,0.6,1.4,1.1c0.4,0.4,0.7,0.9,1,1.4s0.6,1.1,0.7,1.7c0.1,0.6,0.3,1.3,0.4,2c0,0.7,0,1.3,0,2l0,0c0,0,0,0.1,0,0.4
			c0,0.3,0,0.6-0.1,0.9c-0.1,0.4-0.1,0.7-0.3,1.3c-0.1,0.4-0.3,1-0.6,1.4c-0.3,0.6-0.7,1.1-1,1.6c-0.4,0.4-0.9,0.9-1.3,1.1
			c-0.6,0.4-1.3,0.7-2,1c-0.7,0.1-1.6,0.3-2.4,0.3l0,0c-1.4,0-2.7-0.3-3.8-0.9c-0.6-0.3-1.1-0.7-1.6-1c-0.4-0.4-0.9-0.9-1.1-1.4
			c-0.4-0.6-0.7-1.3-0.9-2.1c-0.1-0.7-0.3-1.6-0.1-2.4c0-0.9,0.3-1.7,0.6-2.7c0.3-0.9,0.7-1.8,1.1-2.7l2,1c-0.4,0.7-0.7,1.6-1,2.3
			c-0.3,0.7-0.4,1.4-0.4,2.1c0,0.7,0,1.3,0,1.8c0,0.6,0.3,1.1,0.6,1.6c0.4,0.7,1,1.3,1.8,1.7c0.9,0.4,1.7,0.6,2.8,0.6l0,0
			c0.7,0,1.4,0,2.1-0.3c0.6-0.3,1.1-0.6,1.7-1.1c0.4-0.4,0.9-1,1.1-1.6c0.3-0.6,0.6-1.3,0.7-1.8c-0.1,0-0.3,0-0.6,0
			S487.1,596.5,486.8,596.5z M484.5,583.4l-1.8,1.8l-1.8-1.8l1.8-1.8L484.5,583.4z M485.2,589.2c-0.3,0-0.6,0.1-0.9,0.6
			c-0.3,0.3-0.4,0.6-0.6,1c-0.1,0.4-0.3,0.7-0.3,1.1c-0.1,0.7,0,1.1,0.3,1.6c0.1,0.1,0.3,0.3,0.4,0.4c0.1,0.1,0.3,0.1,0.6,0.3
			c0.1,0,0.4,0.1,0.6,0.1c0.1,0,0.3,0,0.4,0c0.4,0,0.9,0,1.3,0s0.7,0,1,0c0-0.4-0.1-0.9-0.1-1.3c-0.1-0.4-0.1-0.9-0.3-1.1
			c-0.1-0.4-0.3-0.7-0.4-1s-0.3-0.6-0.6-0.7c-0.1-0.1-0.3-0.3-0.6-0.4C485.8,589.4,485.5,589.2,485.2,589.2z M489,583.4l-1.8,1.8
			l-1.8-1.8l1.8-1.8L489,583.4z"/>
		<path fill="#464545" d="M498.4,596.5c-0.9,0-1.6-0.1-2.1-0.3s-1.1-0.4-1.4-0.9c-0.3-0.3-0.4-0.6-0.6-0.9c-0.1-0.3-0.3-0.6-0.3-0.9
			c0-0.3-0.1-0.6-0.1-0.9c0-0.3,0-0.4,0-0.7v-0.1c0,0,0-0.1,0-0.4s0-0.6,0-1.1c0-0.4,0-1,0-1.6s0-1.1,0-1.8c0-0.6,0-1.3,0-2
			c0-0.7,0-1.4,0-2c0-0.7,0-1.3-0.1-1.8c0-0.6-0.1-1-0.1-1.3l2.1-0.4c0,0.4,0.1,0.9,0.1,1.4s0.1,1.1,0.1,1.8c0,0.7,0,1.3,0.1,2
			c0,0.7,0,1.4,0,2c0,0.7,0,1.3,0,1.8c0,0.6,0,1.1,0,1.6c0,0.4,0,0.9,0,1.1c0,0.3,0,0.4,0,0.6v0.1c0,0.3,0,0.6,0,0.9
			c0,0.3,0.1,0.4,0.3,0.6c0.3,0.3,1,0.6,1.8,0.6h0.1c0.1,0,0.3,0,0.4,0.1c0.1,0,0.3,0.1,0.3,0.3c0.1,0.1,0.1,0.3,0.3,0.3
			c0,0.1,0.1,0.3,0.1,0.4c0,0.3-0.1,0.6-0.3,0.7C499,596.3,498.7,596.5,498.4,596.5z"/>
		<path fill="#464545" d="M497,595.3c0-0.3,0.1-0.6,0.3-0.7c0.1-0.1,0.4-0.3,0.7-0.3h1.3c0.3,0,0.6,0,0.9,0s0.6,0,0.9,0
			s0.6-0.1,0.9-0.1s0.6-0.1,0.9-0.3c0.3-0.1,0.4-0.3,0.7-0.4c0.1-0.1,0.3-0.3,0.4-0.6c0.1-0.3,0.1-0.7,0.1-1.4s-0.1-1.3-0.4-2.1
			c-0.1-0.3-0.1-0.4-0.3-0.7c-0.1-0.3-0.1-0.6-0.3-0.7c-0.1-0.3-0.3-0.6-0.4-0.9l2-1c0,0,0,0.1,0.1,0.3c0,0.1,0.1,0.3,0.3,0.6
			c0.1,0.3,0.3,0.6,0.3,0.9c0.1,0.3,0.3,0.7,0.4,1c0.7,2.1,0.7,3.8,0.3,5c-0.6,1.1-1.4,2-2.8,2.4c-0.1,0-0.4,0.1-0.7,0.1
			c-0.3,0-0.6,0-1,0.1c-0.4,0.1-0.6,0-1,0c-0.3,0-0.6,0-0.7,0h-1.6H498c-0.3,0-0.6-0.1-0.7-0.3C497,595.9,497,595.6,497,595.3z
			 M502.7,582.6l-1.8,1.8l-1.8-1.8l1.8-1.8L502.7,582.6z M507.2,582.6l-1.8,1.8l-1.8-1.8l1.8-1.8L507.2,582.6z"/>
		<path fill="#464545" d="M511.4,578.9c0.3,3,0.6,5.7,0.6,8.1c0.1,4,0,7.1-0.1,9.5l-2.1-0.1c0.3-3.3,0.3-6.1,0.3-8.2
			c-0.1-3.5-0.3-6.5-0.6-8.9L511.4,578.9z"/>
		<path fill="#464545" d="M541.8,593.8C541.6,593.8,541.6,593.8,541.8,593.8c-0.1,0.1-0.1,0.1-0.3,0.3c0.4,0.1,0.9,0.1,1.4,0.1
			c0.4,0,1,0.1,1.4,0.1c0.3,0,0.6,0.1,0.7,0.3c0.3,0.1,0.3,0.4,0.3,0.7c0,0.1,0,0.3-0.1,0.4c0,0.1-0.1,0.3-0.3,0.3
			c-0.1,0.1-0.3,0.1-0.3,0.3c-0.1,0-0.3,0.1-0.4,0.1c-1,0-1.8,0-2.7-0.1c-0.9-0.1-1.7-0.3-2.4-0.6c-0.1,0-0.3,0.1-0.3,0.1
			s-0.1,0.1-0.3,0.1c-0.4,0.1-0.9,0.3-1.3,0.4c-0.6,0.1-1.1,0.1-1.7,0.3c-0.6,0-1.3,0.1-1.8,0.1c-0.6,0-1.3,0-2,0
			c-2.3,0-4.1-0.3-5.7-0.9c-1.6-0.6-2.6-1.4-3.3-2.6c-0.3-0.4-0.6-1-0.6-1.6c-0.1-0.6-0.1-1-0.1-1.6c0-0.4,0.1-1,0.1-1.4
			c0.1-0.4,0.1-0.9,0.3-1.1c0.1-0.3,0.3-0.6,0.3-0.9c0-0.3,0.1-0.3,0.1-0.3l2,1c0,0,0,0.1-0.1,0.3c-0.1,0.1-0.1,0.3-0.3,0.6
			c-0.1,0.3-0.1,0.6-0.3,0.9c-0.1,0.3-0.1,0.6-0.1,1c0,0.3,0,0.7,0,1s0.1,0.7,0.4,1c0.3,0.4,0.6,0.7,0.9,1c0.3,0.3,0.9,0.6,1.3,0.7
			c0.6,0.1,1.1,0.3,1.8,0.4c0.7,0.1,1.6,0.1,2.4,0.1c0.7,0,1.3,0,1.8,0s1,0,1.4,0c0.4,0,0.9-0.1,1.1-0.1c0.3,0,0.7-0.1,1-0.1
			c-1-0.9-1.6-1.8-1.6-3c0-0.7,0.1-1.3,0.3-2c0.1-0.6,0.6-1.1,0.9-1.7c0.4-0.4,0.9-0.9,1.4-1.1c0.6-0.3,1-0.4,1.6-0.4
			c0.6,0,1,0.1,1.4,0.3c0.4,0.1,0.9,0.4,1.1,0.9c0.1,0.1,0.3,0.3,0.4,0.6c0.1,0.3,0.3,0.4,0.4,0.7c0.1,0.3,0.1,0.6,0.3,1
			c0,0.3,0.1,0.7,0.1,1.1C542.8,591.8,542.3,592.9,541.8,593.8z M538.9,593.2c0.3-0.1,0.6-0.4,0.7-0.6c0.1-0.1,0.3-0.4,0.4-0.7
			c0.1-0.3,0.1-0.4,0.1-0.7c0-0.3,0-0.6,0-0.7c0-0.6,0-1-0.1-1.3c-0.1-0.3-0.3-0.6-0.4-0.7c-0.1-0.1-0.3-0.3-0.6-0.3
			c-0.3,0-0.3,0-0.4,0s-0.4,0-0.7,0.1c-0.3,0.1-0.4,0.3-0.7,0.6c-0.3,0.3-0.4,0.6-0.4,1c0,0.4-0.1,0.9-0.1,1.3c0,0.3,0.1,0.7,0.4,1
			c0.3,0.3,0.9,0.7,1.4,1H538.9z M540.8,581.6l-1.8,1.8l-1.8-1.8l1.8-1.8L540.8,581.6z"/>
		<path fill="#464545" d="M543.2,595.3c0-0.3,0.1-0.6,0.3-0.9c0.3-0.1,0.6-0.3,0.9-0.3h1.1c0.4,0,0.9,0,1.4,0c0.4,0,1,0,1.4-0.1
			s0.9-0.1,1.1-0.4c0.4-0.1,0.7-0.4,0.9-0.7c0.3-0.4,0.4-0.7,0.4-1.3c0-0.4,0-0.9-0.1-1.4c-0.1-0.3-0.3-0.7-0.6-1.1
			c-0.3-0.4-0.7-1-1.1-1.6c-0.4-0.6-1-1.1-1.6-1.7c-0.6-0.6-1.1-1.1-1.8-1.6l0.3-2.3l9.1-4l0.9,2l-7.9,3.4c0.4,0.3,0.7,0.7,1.1,1
			c0.4,0.4,0.9,0.9,1.3,1.3c0.6,0.6,1,1.3,1.4,1.8c0.4,0.6,0.7,1.1,0.9,1.6c0.1,0.6,0.3,1,0.4,1.4s0.1,0.9,0,1.3
			c0,0.4-0.1,0.7-0.3,1.1c-0.1,0.3-0.3,0.7-0.4,1c-0.7,1.1-1.7,1.8-3.4,2.1c-0.3,0-0.6,0.1-1,0.1h-3.5c-0.4,0-0.7-0.1-0.9-0.3
			C543.2,595.9,543.2,595.6,543.2,595.3z"/>
	</g>
</g>
<g>
	<g>
		<path fill="#464545" d="M494.8,12.2C494.8,12.2,494.8,12.3,494.8,12.2c-0.1,0.1-0.1,0.1-0.3,0.3c0.4,0.1,0.8,0.1,1.4,0.1
			c0.4,0,1,0.1,1.4,0.1c0.3,0,0.6,0.1,0.7,0.3c0.3,0.1,0.3,0.4,0.3,0.7c0,0.1,0,0.3-0.1,0.4c0,0.1-0.1,0.3-0.3,0.3
			c-0.1,0.1-0.3,0.1-0.3,0.3c-0.1,0-0.3,0.1-0.4,0.1c-1,0-1.8,0-2.7-0.1s-1.7-0.3-2.4-0.6c-0.1,0-0.3,0.1-0.3,0.1s-0.1,0.1-0.3,0.1
			c-0.4,0.1-0.8,0.3-1.3,0.4c-0.6,0.1-1.1,0.1-1.7,0.3c-0.6,0-1.3,0.1-1.8,0.1s-1.3,0-2,0c-2.2,0-4.1-0.3-5.6-0.8
			c-1.5-0.6-2.5-1.4-3.2-2.5c-0.3-0.4-0.6-1-0.6-1.5c-0.1-0.6-0.1-1-0.1-1.5c0-0.4,0.1-1,0.1-1.4c0.1-0.4,0.1-0.8,0.3-1.1
			c0.1-0.3,0.3-0.6,0.3-0.8c0-0.3,0.1-0.3,0.1-0.3l2,1c0,0,0,0.1-0.1,0.3c-0.1,0.1-0.1,0.3-0.3,0.6s-0.1,0.6-0.3,0.8
			c-0.1,0.3-0.1,0.6-0.1,1c0,0.3,0,0.7,0,1c0,0.3,0.1,0.7,0.4,1c0.3,0.4,0.6,0.7,0.8,1c0.3,0.3,0.8,0.6,1.3,0.7
			c0.6,0.1,1.1,0.3,1.8,0.4c0.7,0.1,1.5,0.1,2.4,0.1c0.7,0,1.3,0,1.8,0s1,0,1.4,0s0.8-0.1,1.1-0.1c0.3,0,0.7-0.1,1-0.1
			c-1-0.8-1.5-1.8-1.5-3c0-0.7,0.1-1.3,0.3-2c0.1-0.6,0.6-1.1,0.8-1.7c0.4-0.4,0.8-0.8,1.4-1.1c0.6-0.3,1-0.4,1.5-0.4
			c0.6,0,1,0.1,1.4,0.3c0.4,0.1,0.8,0.4,1.1,0.8c0.1,0.1,0.3,0.3,0.4,0.6c0.1,0.3,0.3,0.4,0.4,0.7c0.1,0.3,0.1,0.6,0.3,1
			c0,0.3,0.1,0.7,0.1,1.1C495.8,10.2,495.5,11.3,494.8,12.2z M492.1,11.7c0.3-0.1,0.6-0.4,0.7-0.6s0.3-0.4,0.4-0.7
			c0.1-0.3,0.1-0.4,0.1-0.7c0-0.3,0-0.6,0-0.7c0-0.6,0-1-0.1-1.3c-0.1-0.3-0.3-0.6-0.4-0.7c-0.1-0.1-0.3-0.3-0.6-0.3s-0.3,0-0.4,0
			c-0.1,0-0.4,0-0.7,0.1c-0.3,0.1-0.4,0.3-0.7,0.6c-0.3,0.3-0.4,0.6-0.4,1s-0.1,0.8-0.1,1.3c0,0.3,0.1,0.7,0.4,1
			c0.3,0.3,0.8,0.7,1.4,1H492.1z M493.8,0.2L492,2l-1.7-2l1.8-1.8L493.8,0.2z"/>
		<path fill="#464545" d="M496.3,13.7c0-0.1,0-0.3,0.1-0.4c0-0.1,0.1-0.3,0.3-0.3c0.1-0.1,0.3-0.1,0.3-0.3s0.3-0.1,0.4-0.1
			c0.3,0,0.6,0,0.8,0c0.3,0,0.6,0,0.8,0c0.3,0,0.6,0,0.8,0c0.3,0,0.4,0,0.7,0c-1-0.8-1.4-1.8-1.4-2.8c0-0.7,0.1-1.3,0.3-2
			c0.1-0.6,0.6-1.1,0.8-1.7s0.8-0.8,1.4-1.1c0.6-0.3,1-0.4,1.5-0.4c0.7,0,1.3,0.1,1.7,0.4c0.4,0.3,0.8,0.7,1.3,1.1
			c0.3,0.4,0.6,1,0.7,1.5s0.3,1.1,0.1,1.7c0,0.6-0.1,1.1-0.4,1.7c-0.1,0.6-0.6,1-0.8,1.5c0.3,0,0.4,0.1,0.7,0.1c0.3,0,0.6,0,0.8,0.1
			c0.3,0.1,0.6,0,0.8,0c0.3,0,0.6,0,0.8,0c0.3,0,0.6,0.1,0.8,0.3c0.1,0.1,0.3,0.4,0.3,0.7c0,0.1,0,0.3-0.1,0.4
			c0,0.1-0.1,0.3-0.3,0.3c-0.1,0.1-0.3,0.1-0.3,0.3c-0.1,0-0.3,0.1-0.4,0.1H509c-0.3,0-0.4,0-0.7,0c-0.3,0-0.6,0-0.8,0
			c-0.3,0-0.6,0-0.8,0c-0.3,0-0.4,0-0.7-0.1c-0.4-0.1-0.8-0.1-1.3-0.3c-0.4-0.1-0.8-0.1-1.1-0.3c-0.3,0.1-0.7,0.3-1.3,0.3
			c-0.4,0.1-1,0.1-1.4,0.3c-0.6,0-1.1,0.1-1.7,0.1s-1.1,0-1.7,0h-0.1c-0.3,0-0.6-0.1-0.7-0.3C496.5,14.3,496.3,14.1,496.3,13.7z
			 M502.8,0.2L501,2l-1.8-1.8l1.8-1.8L502.8,0.2z M503.2,6.7c-0.1,0-0.4,0.1-0.7,0.3c-0.3,0.1-0.4,0.3-0.7,0.6
			c-0.1,0.3-0.4,0.6-0.4,1s-0.1,0.8-0.1,1.3c0,0.3,0.1,0.7,0.4,1c0.3,0.3,0.8,0.7,1.4,1l0.1,0.1c0.4-0.1,0.7-0.4,1-0.8
			c0.3-0.3,0.4-0.7,0.4-1c0.1-0.4,0.1-0.7,0-1.1c0-0.4-0.1-0.7-0.3-1s-0.1-0.8-0.4-1C503.8,6.8,503.5,6.7,503.2,6.7z M507.3,0.2
			L505.5,2l-1.8-1.8l1.8-1.8L507.3,0.2z"/>
		<path fill="#464545" d="M508,13.7c0-0.1,0-0.3,0.1-0.4c0-0.1,0.1-0.3,0.3-0.3c0.1-0.1,0.1-0.1,0.3-0.3c0.1,0,0.3-0.1,0.4-0.1
			c0.4,0,0.8-0.1,1.1-0.3c0.3-0.1,0.7-0.4,1-0.7s0.6-0.6,0.7-1c0.1-0.4,0.4-0.7,0.6-1.1c0.1-0.4,0.3-0.8,0.4-1.3
			c0.1-0.4,0.1-0.8,0.3-1.1l2.1,0.4c0,0.1-0.1,0.4-0.3,0.7c-0.1,0.3-0.1,0.6-0.3,0.8c-0.1,0.3-0.1,0.7-0.1,1c0,0.3-0.1,0.7-0.1,1
			c0,0.1,0,0.4,0,0.6c0,0.1,0.1,0.4,0.1,0.6s0.1,0.3,0.4,0.3c0.1,0.1,0.3,0.1,0.6,0.1c0.4,0,0.7-0.1,1-0.3s0.6-0.4,0.8-0.8
			c0.3-0.3,0.4-0.7,0.6-1.1c0.1-0.4,0.3-0.8,0.4-1.3c0.1-0.4,0.3-0.8,0.3-1.3c0.1-0.4,0.1-0.7,0.1-1.1l2.1,0.4
			c-0.1,0.4-0.1,0.8-0.1,1.3s0,0.8,0,1.3c0,0.4,0,0.7,0,1c0,0.3,0,0.6,0,0.8c0,0.3,0.1,0.4,0.1,0.7c0.1,0.1,0.3,0.3,0.4,0.4
			c0.1,0.1,0.3,0.1,0.6,0.3c0.3,0,0.6,0,0.8,0c0.3,0,0.4-0.1,0.6-0.1c0.1-0.1,0.3-0.1,0.3-0.3c0-0.1,0.1-0.1,0.1-0.1l0,0
			c0.1-0.1,0.1-0.3,0.3-0.6c0-0.1,0-0.4,0-0.7c0-0.4,0-0.8-0.1-1.4c-0.1-0.4-0.3-1-0.4-1.4c-0.1-0.4-0.3-0.8-0.6-1.3
			c-0.3-0.4-0.3-0.7-0.4-1l2-1c0,0.1,0.1,0.3,0.1,0.4c0,0.1,0.3,0.4,0.4,0.7c0.1,0.3,0.3,0.7,0.4,1c0.1,0.3,0.3,0.8,0.4,1.3
			c0.1,0.4,0.3,0.8,0.3,1.3c0.1,0.4,0.1,0.8,0.1,1.3c0,0.6-0.1,1.3-0.3,1.7c-0.1,0.6-0.4,1-0.8,1.3s-0.8,0.7-1.3,0.8
			c-0.6,0.1-1.1,0.3-1.8,0.3c-0.3,0-0.6,0-0.8-0.1c-0.3-0.1-0.6-0.1-0.8-0.4c-0.3-0.1-0.6-0.3-0.7-0.6c-0.3-0.1-0.4-0.4-0.6-0.7
			c-0.4,0.6-1,1-1.5,1.3c-0.6,0.3-1.1,0.4-1.8,0.4c-0.3,0-0.6,0-0.8-0.1s-0.6-0.1-0.8-0.3c-0.3-0.1-0.6-0.3-0.7-0.6
			c-0.3-0.1-0.4-0.4-0.6-0.7c-0.4,0.4-1,0.8-1.5,1.1c-0.6,0.3-1.3,0.4-2,0.4h-0.1c-0.1,0-0.3,0-0.4-0.1c-0.1-0.1-0.3-0.1-0.3-0.3
			c-0.1-0.1-0.1-0.1-0.3-0.3C508.1,14,508,13.8,508,13.7z"/>
	</g>
</g>
</svg>
