<?xml version="1.0" encoding="utf-8"?>
<!-- Generator: Adobe Illustrator 18.0.0, SVG Export Plug-In . SVG Version: 6.00 Build 0)  -->
<!DOCTYPE svg PUBLIC "-//W3C//DTD SVG 1.1//EN" "http://www.w3.org/Graphics/SVG/1.1/DTD/svg11.dtd">
<svg version="1.1" id="Layer_1" xmlns="http://www.w3.org/2000/svg" xmlns:xlink="http://www.w3.org/1999/xlink" x="0px" y="0px"
	 width="203px" height="227px" viewBox="0 0 540 606.3" enable-background="new 0 0 540 606.3" xml:space="preserve">
	 <defs>
		<style>
			@font-face {
			font-family: "proximanova-nova";

			src: url('https://doopsalta2.com/Fonts/proxima-nova-three.woff2') format('woff2'),
				url('https://doopsalta2.com/Fonts/proxima-nova-three.woff') format('woff'),
				url('https://doopsalta2.com/Fonts/proxima-nova-three.otf') format('opentype');
			font-style: normal;
			}
		</style>
	</defs>
<g>
	<g>
		<line fill="none" stroke="#464545" stroke-width="2.9884" x1="44.8" y1="25.2" x2="44.8" y2="581.9"/>
		<g>
			<polygon fill="#464545" points="35.8,27.8 44.8,12.3 53.7,27.8 			"/>
		</g>
		<g>
			<polygon fill="#464545" points="35.8,579.3 44.8,594.8 53.7,579.3 			"/>
		</g>
	</g>
</g>
<line fill="none" stroke="#464545" stroke-width="2.9679" x1="0" y1="593.3" x2="460" y2="593.3"/>
<g>
	<rect x="89.9" y="107.5" fill="none" stroke="#616261" stroke-width="3" stroke-miterlimit="10" width="280.2" height="389"/>
	<rect x="113" y="130.6" fill="none" stroke="#616261" stroke-width="3" stroke-miterlimit="10" width="234" height="342.8"/>
</g>
<line fill="none" stroke="#464545" stroke-width="2.9679" x1="0" y1="11" x2="460" y2="11"/>
<g>
	<g>
		<path fill="#464545" d="M484.5,594.8c-0.1,0-0.3,0-0.4,0s-0.3,0-0.4,0c-0.6,0-1.1-0.2-1.5-0.3s-0.8-0.4-1-0.8
			c-0.5-0.6-0.6-1.4-0.5-2.3c0.1-0.4,0.2-0.8,0.3-1.2s0.3-0.7,0.6-1c0.3-0.3,0.5-0.6,0.9-0.8c0.3-0.2,0.6-0.3,1-0.3
			c0.4,0,0.7,0.1,1.1,0.3c0.3,0.2,0.7,0.4,1,0.8c0.3,0.3,0.5,0.6,0.7,1s0.4,0.8,0.5,1.2c0.1,0.4,0.2,0.9,0.3,1.4c0,0.5,0,0.9,0,1.4
			h0c0,0,0,0.1,0,0.3c0,0.2,0,0.4-0.1,0.6c-0.1,0.3-0.1,0.5-0.2,0.9c-0.1,0.3-0.2,0.7-0.4,1c-0.2,0.4-0.5,0.8-0.7,1.1
			c-0.3,0.3-0.6,0.6-0.9,0.8c-0.4,0.3-0.9,0.5-1.4,0.7c-0.5,0.1-1.1,0.2-1.7,0.2h0c-1,0-1.9-0.2-2.7-0.6c-0.4-0.2-0.8-0.5-1.1-0.7
			c-0.3-0.3-0.6-0.6-0.8-1c-0.3-0.4-0.5-0.9-0.6-1.5c-0.1-0.5-0.2-1.1-0.1-1.7c0-0.6,0.2-1.2,0.4-1.9c0.2-0.6,0.5-1.3,0.8-1.9
			l1.4,0.7c-0.3,0.5-0.5,1.1-0.7,1.6c-0.2,0.5-0.3,1-0.3,1.5c0,0.5,0,0.9,0,1.3s0.2,0.8,0.4,1.1c0.3,0.5,0.7,0.9,1.3,1.2
			s1.2,0.4,2,0.4h0c0.5,0,1,0,1.5-0.2c0.4-0.2,0.8-0.4,1.2-0.8c0.3-0.3,0.6-0.7,0.8-1.1c0.2-0.4,0.4-0.9,0.5-1.3c-0.1,0-0.2,0-0.4,0
			S484.7,594.8,484.5,594.8z M482.9,585.6l-1.3,1.3l-1.3-1.3l1.3-1.3L482.9,585.6z M483.4,589.7c-0.2,0-0.4,0.1-0.6,0.4
			c-0.2,0.2-0.3,0.4-0.4,0.7s-0.2,0.5-0.2,0.8c-0.1,0.5,0,0.8,0.2,1.1c0.1,0.1,0.2,0.2,0.3,0.3s0.2,0.1,0.4,0.2
			c0.1,0,0.3,0.1,0.4,0.1c0.1,0,0.2,0,0.3,0c0.3,0,0.6,0,0.9,0c0.3,0,0.5,0,0.7,0c0-0.3-0.1-0.6-0.1-0.9c-0.1-0.3-0.1-0.6-0.2-0.8
			c-0.1-0.3-0.2-0.5-0.3-0.7s-0.2-0.4-0.4-0.5c-0.1-0.1-0.2-0.2-0.4-0.3C483.8,589.8,483.6,589.7,483.4,589.7z M486.1,585.6
			l-1.3,1.3l-1.3-1.3l1.3-1.3L486.1,585.6z"/>
		<path fill="#464545" d="M492.7,594.8c-0.6,0-1.1-0.1-1.5-0.2s-0.8-0.3-1-0.6c-0.2-0.2-0.3-0.4-0.4-0.6s-0.2-0.4-0.2-0.6
			c0-0.2-0.1-0.4-0.1-0.6s0-0.3,0-0.5v-0.1c0,0,0-0.1,0-0.3s0-0.4,0-0.8c0-0.3,0-0.7,0-1.1s0-0.8,0-1.3c0-0.4,0-0.9,0-1.4s0-1,0-1.4
			c0-0.5,0-0.9-0.1-1.3c0-0.4-0.1-0.7-0.1-0.9l1.5-0.3c0,0.3,0.1,0.6,0.1,1c0,0.4,0.1,0.8,0.1,1.3s0,0.9,0.1,1.4c0,0.5,0,1,0,1.4
			c0,0.5,0,0.9,0,1.3c0,0.4,0,0.8,0,1.1c0,0.3,0,0.6,0,0.8c0,0.2,0,0.3,0,0.4v0.1c0,0.2,0,0.4,0,0.6c0,0.2,0.1,0.3,0.2,0.4
			c0.2,0.2,0.7,0.4,1.3,0.4h0.1c0.1,0,0.2,0,0.3,0.1c0.1,0,0.2,0.1,0.2,0.2c0.1,0.1,0.1,0.2,0.2,0.2c0,0.1,0.1,0.2,0.1,0.3
			c0,0.2-0.1,0.4-0.2,0.5C493.1,594.7,492.9,594.8,492.7,594.8z"/>
		<path fill="#464545" d="M491.7,594c0-0.2,0.1-0.4,0.2-0.5c0.1-0.1,0.3-0.2,0.5-0.2h0.9c0.2,0,0.4,0,0.6,0c0.2,0,0.4,0,0.6,0
			c0.2,0,0.4-0.1,0.6-0.1s0.4-0.1,0.6-0.2c0.2-0.1,0.3-0.2,0.5-0.3c0.1-0.1,0.2-0.2,0.3-0.4c0.1-0.2,0.1-0.5,0.1-1s-0.1-0.9-0.3-1.5
			c-0.1-0.2-0.1-0.3-0.2-0.5c-0.1-0.2-0.1-0.4-0.2-0.5c-0.1-0.2-0.2-0.4-0.3-0.6l1.4-0.7c0,0,0,0.1,0.1,0.2c0,0.1,0.1,0.2,0.2,0.4
			s0.2,0.4,0.2,0.6c0.1,0.2,0.2,0.5,0.3,0.7c0.5,1.5,0.5,2.7,0.2,3.5c-0.4,0.8-1,1.4-2,1.7c-0.1,0-0.3,0.1-0.5,0.1
			c-0.2,0-0.4,0-0.7,0.1s-0.4,0-0.7,0c-0.2,0-0.4,0-0.5,0h-1.1h-0.1c-0.2,0-0.4-0.1-0.5-0.2C491.7,594.4,491.7,594.2,491.7,594z
			 M495.7,585l-1.3,1.3l-1.3-1.3l1.3-1.3L495.7,585z M498.9,585l-1.3,1.3l-1.3-1.3l1.3-1.3L498.9,585z"/>
		<path fill="#464545" d="M501.9,582.4c0.2,2.1,0.4,4,0.4,5.7c0.1,2.8,0,5-0.1,6.7l-1.5-0.1c0.2-2.3,0.2-4.3,0.2-5.8
			c-0.1-2.5-0.2-4.6-0.4-6.3L501.9,582.4z"/>
		<path fill="#464545" d="M523.3,592.9C523.2,592.9,523.2,592.9,523.3,592.9c-0.1,0.1-0.1,0.1-0.2,0.2c0.3,0.1,0.6,0.1,1,0.1
			c0.3,0,0.7,0.1,1,0.1c0.2,0,0.4,0.1,0.5,0.2c0.2,0.1,0.2,0.3,0.2,0.5c0,0.1,0,0.2-0.1,0.3c0,0.1-0.1,0.2-0.2,0.2
			c-0.1,0.1-0.2,0.1-0.2,0.2c-0.1,0-0.2,0.1-0.3,0.1c-0.7,0-1.3,0-1.9-0.1s-1.2-0.2-1.7-0.4c-0.1,0-0.2,0.1-0.2,0.1
			s-0.1,0.1-0.2,0.1c-0.3,0.1-0.6,0.2-0.9,0.3c-0.4,0.1-0.8,0.1-1.2,0.2c-0.4,0-0.9,0.1-1.3,0.1s-0.9,0-1.4,0c-1.6,0-2.9-0.2-4-0.6
			c-1.1-0.4-1.8-1-2.3-1.8c-0.2-0.3-0.4-0.7-0.4-1.1c-0.1-0.4-0.1-0.7-0.1-1.1c0-0.3,0.1-0.7,0.1-1c0.1-0.3,0.1-0.6,0.2-0.8
			s0.2-0.4,0.2-0.6s0.1-0.2,0.1-0.2l1.4,0.7c0,0,0,0.1-0.1,0.2s-0.1,0.2-0.2,0.4s-0.1,0.4-0.2,0.6c-0.1,0.2-0.1,0.4-0.1,0.7
			c0,0.2,0,0.5,0,0.7c0,0.2,0.1,0.5,0.3,0.7c0.2,0.3,0.4,0.5,0.6,0.7c0.2,0.2,0.6,0.4,0.9,0.5c0.4,0.1,0.8,0.2,1.3,0.3
			c0.5,0.1,1.1,0.1,1.7,0.1c0.5,0,0.9,0,1.3,0s0.7,0,1,0c0.3,0,0.6-0.1,0.8-0.1c0.2,0,0.5-0.1,0.7-0.1c-0.7-0.6-1.1-1.3-1.1-2.1
			c0-0.5,0.1-0.9,0.2-1.4c0.1-0.4,0.4-0.8,0.6-1.2c0.3-0.3,0.6-0.6,1-0.8c0.4-0.2,0.7-0.3,1.1-0.3c0.4,0,0.7,0.1,1,0.2
			c0.3,0.1,0.6,0.3,0.8,0.6c0.1,0.1,0.2,0.2,0.3,0.4s0.2,0.3,0.3,0.5c0.1,0.2,0.1,0.4,0.2,0.7c0,0.2,0.1,0.5,0.1,0.8
			C524,591.5,523.7,592.3,523.3,592.9z M521.3,592.5c0.2-0.1,0.4-0.3,0.5-0.4s0.2-0.3,0.3-0.5c0.1-0.2,0.1-0.3,0.1-0.5
			c0-0.2,0-0.4,0-0.5c0-0.4,0-0.7-0.1-0.9s-0.2-0.4-0.3-0.5c-0.1-0.1-0.2-0.2-0.4-0.2s-0.2,0-0.3,0c-0.1,0-0.3,0-0.5,0.1
			c-0.2,0.1-0.3,0.2-0.5,0.4s-0.3,0.4-0.3,0.7s-0.1,0.6-0.1,0.9c0,0.2,0.1,0.5,0.3,0.7c0.2,0.2,0.6,0.5,1,0.7L521.3,592.5z
			 M522.6,584.3l-1.3,1.3l-1.3-1.3l1.3-1.3L522.6,584.3z"/>
		<path fill="#464545" d="M524.3,594c0-0.2,0.1-0.4,0.2-0.6c0.2-0.1,0.4-0.2,0.6-0.2h0.8c0.3,0,0.6,0,1,0c0.3,0,0.7,0,1-0.1
			c0.3-0.1,0.6-0.1,0.8-0.3c0.3-0.1,0.5-0.3,0.6-0.5c0.2-0.3,0.3-0.5,0.3-0.9c0-0.3,0-0.6-0.1-1c-0.1-0.2-0.2-0.5-0.4-0.8
			s-0.5-0.7-0.8-1.1c-0.3-0.4-0.7-0.8-1.1-1.2s-0.8-0.8-1.3-1.1l0.2-1.6l6.4-2.8l0.6,1.4l-5.6,2.4c0.3,0.2,0.5,0.5,0.8,0.7
			c0.3,0.3,0.6,0.6,0.9,0.9c0.4,0.4,0.7,0.9,1,1.3s0.5,0.8,0.6,1.1c0.1,0.4,0.2,0.7,0.3,1s0.1,0.6,0,0.9c0,0.3-0.1,0.5-0.2,0.8
			c-0.1,0.2-0.2,0.5-0.3,0.7c-0.5,0.8-1.2,1.3-2.4,1.5c-0.2,0-0.4,0.1-0.7,0.1h-2.5c-0.3,0-0.5-0.1-0.6-0.2
			C524.3,594.4,524.3,594.2,524.3,594z"/>
	</g>
</g>
<g>
	<g>
		<path fill="#464545" d="M488.5,10.6C488.5,10.6,488.5,10.7,488.5,10.6c-0.1,0.1-0.1,0.1-0.2,0.2c0.3,0.1,0.6,0.1,1,0.1
			c0.3,0,0.7,0.1,1,0.1c0.2,0,0.4,0.1,0.5,0.2c0.2,0.1,0.2,0.3,0.2,0.5c0,0.1,0,0.2-0.1,0.3c0,0.1-0.1,0.2-0.2,0.2
			c-0.1,0.1-0.2,0.1-0.2,0.2c-0.1,0-0.2,0.1-0.3,0.1c-0.7,0-1.3,0-1.9-0.1s-1.2-0.2-1.7-0.4c-0.1,0-0.2,0.1-0.2,0.1
			s-0.1,0.1-0.2,0.1c-0.3,0.1-0.6,0.2-0.9,0.3c-0.4,0.1-0.8,0.1-1.2,0.2c-0.4,0-0.9,0.1-1.3,0.1s-0.9,0-1.4,0c-1.6,0-2.9-0.2-4-0.6
			c-1.1-0.4-1.8-1-2.3-1.8c-0.2-0.3-0.4-0.7-0.4-1.1c-0.1-0.4-0.1-0.7-0.1-1.1c0-0.3,0.1-0.7,0.1-1c0.1-0.3,0.1-0.6,0.2-0.8
			s0.2-0.4,0.2-0.6s0.1-0.2,0.1-0.2l1.4,0.7c0,0,0,0.1-0.1,0.2s-0.1,0.2-0.2,0.4s-0.1,0.4-0.2,0.6c-0.1,0.2-0.1,0.4-0.1,0.7
			c0,0.2,0,0.5,0,0.7c0,0.2,0.1,0.5,0.3,0.7c0.2,0.3,0.4,0.5,0.6,0.7c0.2,0.2,0.6,0.4,0.9,0.5c0.4,0.1,0.8,0.2,1.3,0.3
			c0.5,0.1,1.1,0.1,1.7,0.1c0.5,0,0.9,0,1.3,0s0.7,0,1,0c0.3,0,0.6-0.1,0.8-0.1c0.2,0,0.5-0.1,0.7-0.1c-0.7-0.6-1.1-1.3-1.1-2.1
			c0-0.5,0.1-0.9,0.2-1.4c0.1-0.4,0.4-0.8,0.6-1.2c0.3-0.3,0.6-0.6,1-0.8c0.4-0.2,0.7-0.3,1.1-0.3c0.4,0,0.7,0.1,1,0.2
			c0.3,0.1,0.6,0.3,0.8,0.6c0.1,0.1,0.2,0.2,0.3,0.4s0.2,0.3,0.3,0.5c0.1,0.2,0.1,0.4,0.2,0.7c0,0.2,0.1,0.5,0.1,0.8
			C489.2,9.2,489,10,488.5,10.6z M486.6,10.3c0.2-0.1,0.4-0.3,0.5-0.4s0.2-0.3,0.3-0.5c0.1-0.2,0.1-0.3,0.1-0.5c0-0.2,0-0.4,0-0.5
			c0-0.4,0-0.7-0.1-0.9s-0.2-0.4-0.3-0.5c-0.1-0.1-0.2-0.2-0.4-0.2s-0.2,0-0.3,0c-0.1,0-0.3,0-0.5,0.1c-0.2,0.1-0.3,0.2-0.5,0.4
			s-0.3,0.4-0.3,0.7s-0.1,0.6-0.1,0.9c0,0.2,0.1,0.5,0.3,0.7c0.2,0.2,0.6,0.5,1,0.7L486.6,10.3z M487.8,2.1l-1.3,1.3L485.3,2
			l1.3-1.3L487.8,2.1z"/>
		<path fill="#464545" d="M489.6,11.7c0-0.1,0-0.2,0.1-0.3c0-0.1,0.1-0.2,0.2-0.2c0.1-0.1,0.2-0.1,0.2-0.2s0.2-0.1,0.3-0.1
			c0.2,0,0.4,0,0.6,0c0.2,0,0.4,0,0.6,0c0.2,0,0.4,0,0.6,0c0.2,0,0.3,0,0.5,0c-0.7-0.6-1-1.3-1-2c0-0.5,0.1-0.9,0.2-1.4
			c0.1-0.4,0.4-0.8,0.6-1.2s0.6-0.6,1-0.8c0.4-0.2,0.7-0.3,1.1-0.3c0.5,0,0.9,0.1,1.2,0.3s0.6,0.5,0.9,0.8c0.2,0.3,0.4,0.7,0.5,1.1
			c0.1,0.4,0.2,0.8,0.1,1.2c0,0.4-0.1,0.8-0.3,1.2c-0.1,0.4-0.4,0.7-0.6,1.1c0.2,0,0.3,0.1,0.5,0.1c0.2,0,0.4,0,0.6,0.1s0.4,0,0.6,0
			s0.4,0,0.6,0c0.2,0,0.4,0.1,0.6,0.2c0.1,0.1,0.2,0.3,0.2,0.5c0,0.1,0,0.2-0.1,0.3c0,0.1-0.1,0.2-0.2,0.2c-0.1,0.1-0.2,0.1-0.2,0.2
			c-0.1,0-0.2,0.1-0.3,0.1h-0.1c-0.2,0-0.3,0-0.5,0c-0.2,0-0.4,0-0.6,0c-0.2,0-0.4,0-0.6,0s-0.3,0-0.5-0.1c-0.3-0.1-0.6-0.1-0.9-0.2
			c-0.3-0.1-0.6-0.1-0.8-0.2c-0.2,0.1-0.5,0.2-0.9,0.2c-0.3,0.1-0.7,0.1-1,0.2c-0.4,0-0.8,0.1-1.2,0.1c-0.4,0-0.8,0-1.2,0h-0.1
			c-0.2,0-0.4-0.1-0.5-0.2C489.7,12.1,489.6,12,489.6,11.7z M494.2,2.1l-1.3,1.3l-1.3-1.3l1.3-1.3L494.2,2.1z M494.5,6.7
			c-0.1,0-0.3,0.1-0.5,0.2c-0.2,0.1-0.3,0.2-0.5,0.4c-0.1,0.2-0.3,0.4-0.3,0.7s-0.1,0.6-0.1,0.9c0,0.2,0.1,0.5,0.3,0.7
			s0.6,0.5,1,0.7l0.1,0.1c0.3-0.1,0.5-0.3,0.7-0.6c0.2-0.2,0.3-0.5,0.3-0.7c0.1-0.3,0.1-0.5,0-0.8c0-0.3-0.1-0.5-0.2-0.7
			S495.2,7,495,6.9C494.9,6.8,494.7,6.7,494.5,6.7z M497.4,2.1l-1.3,1.3l-1.3-1.3l1.3-1.3L497.4,2.1z"/>
		<path fill="#464545" d="M497.9,11.7c0-0.1,0-0.2,0.1-0.3c0-0.1,0.1-0.2,0.2-0.2c0.1-0.1,0.1-0.1,0.2-0.2c0.1,0,0.2-0.1,0.3-0.1
			c0.3,0,0.6-0.1,0.8-0.2c0.2-0.1,0.5-0.3,0.7-0.5s0.4-0.4,0.5-0.7s0.3-0.5,0.4-0.8c0.1-0.3,0.2-0.6,0.3-0.9
			c0.1-0.3,0.1-0.6,0.2-0.8l1.5,0.3c0,0.1-0.1,0.3-0.2,0.5s-0.1,0.4-0.2,0.6c-0.1,0.2-0.1,0.5-0.1,0.7c0,0.2-0.1,0.5-0.1,0.7
			c0,0.1,0,0.3,0,0.4c0,0.1,0.1,0.3,0.1,0.4s0.1,0.2,0.3,0.2c0.1,0.1,0.2,0.1,0.4,0.1c0.3,0,0.5-0.1,0.7-0.2s0.4-0.3,0.6-0.6
			c0.2-0.2,0.3-0.5,0.4-0.8c0.1-0.3,0.2-0.6,0.3-0.9c0.1-0.3,0.2-0.6,0.2-0.9c0.1-0.3,0.1-0.5,0.1-0.8l1.5,0.3
			c-0.1,0.3-0.1,0.6-0.1,0.9S507,8.5,507,8.8c0,0.3,0,0.5,0,0.7c0,0.2,0,0.4,0,0.6c0,0.2,0.1,0.3,0.1,0.5c0.1,0.1,0.2,0.2,0.3,0.3
			s0.2,0.1,0.4,0.2c0.2,0,0.4,0,0.6,0c0.2,0,0.3-0.1,0.4-0.1c0.1-0.1,0.2-0.1,0.2-0.2c0-0.1,0.1-0.1,0.1-0.1h0
			c0.1-0.1,0.1-0.2,0.2-0.4c0-0.1,0-0.3,0-0.5c0-0.3,0-0.6-0.1-1c-0.1-0.3-0.2-0.7-0.3-1c-0.1-0.3-0.2-0.6-0.4-0.9s-0.2-0.5-0.3-0.7
			l1.4-0.7c0,0.1,0.1,0.2,0.1,0.3s0.2,0.3,0.3,0.5s0.2,0.5,0.3,0.7s0.2,0.6,0.3,0.9s0.2,0.6,0.2,0.9c0.1,0.3,0.1,0.6,0.1,0.9
			c0,0.4-0.1,0.9-0.2,1.2c-0.1,0.4-0.3,0.7-0.6,0.9s-0.6,0.5-0.9,0.6c-0.4,0.1-0.8,0.2-1.3,0.2c-0.2,0-0.4,0-0.6-0.1
			s-0.4-0.1-0.6-0.3c-0.2-0.1-0.4-0.2-0.5-0.4c-0.2-0.1-0.3-0.3-0.4-0.5c-0.3,0.4-0.7,0.7-1.1,0.9s-0.8,0.3-1.3,0.3
			c-0.2,0-0.4,0-0.6-0.1s-0.4-0.1-0.6-0.2c-0.2-0.1-0.4-0.2-0.5-0.4c-0.2-0.1-0.3-0.3-0.4-0.5c-0.3,0.3-0.7,0.6-1.1,0.8
			c-0.4,0.2-0.9,0.3-1.4,0.3h-0.1c-0.1,0-0.2,0-0.3-0.1s-0.2-0.1-0.2-0.2c-0.1-0.1-0.1-0.1-0.2-0.2C498,11.9,497.9,11.8,497.9,11.7z
			"/>
	</g>
</g>
</svg>
