<?xml version="1.0" encoding="utf-8"?>
<!-- Generator: Adobe Illustrator 18.0.0, SVG Export Plug-In . SVG Version: 6.00 Build 0)  -->
<!DOCTYPE svg PUBLIC "-//W3C//DTD SVG 1.1//EN" "http://www.w3.org/Graphics/SVG/1.1/DTD/svg11.dtd">
<svg version="1.1" id="Layer_1" xmlns="http://www.w3.org/2000/svg" xmlns:xlink="http://www.w3.org/1999/xlink" x="0px" y="0px"
	 width="203px" height="194px" viewBox="0 0 540 518.3" enable-background="new 0 0 540 518.3" xml:space="preserve">
	 <defs>
		<style>
			@font-face {
			font-family: "proximanova-nova";

			src: url('https://doopsalta2.com/Fonts/proxima-nova-three.woff2') format('woff2'),
				url('https://doopsalta2.com/Fonts/proxima-nova-three.woff') format('woff'),
				url('https://doopsalta2.com/Fonts/proxima-nova-three.otf') format('opentype');
			font-style: normal;
			}
		</style>
	</defs>
<g>
	<line fill="none" stroke="#464545" stroke-width="2.9862" x1="39.9" y1="19.5" x2="86.3" y2="19.5"/>
	<g>
		<g>
			<line fill="none" stroke="#464545" stroke-width="2.9862" x1="63.1" y1="34.1" x2="63.1" y2="493.1"/>
			<g>
				<polygon fill="#464545" points="54.1,36.7 63.1,21.2 72,36.7 				"/>
			</g>
			<g>
				<polygon fill="#464545" points="54.1,490.5 63.1,506 72,490.5 				"/>
			</g>
		</g>
	</g>
</g>
<line fill="none" stroke="#464545" stroke-width="2.9679" x1="460" y1="506" x2="0" y2="506"/>
<g>
	<rect x="89.9" y="19.5" fill="none" stroke="#616261" stroke-width="3" stroke-miterlimit="10" width="280.2" height="389"/>
	<rect x="113" y="42.6" fill="none" stroke="#616261" stroke-width="3" stroke-miterlimit="10" width="234" height="342.8"/>
</g>
<g>
	<g>
		<path fill="#464545" d="M485.6,507.5c-0.1,0-0.3,0-0.4,0s-0.3,0-0.4,0c-0.6,0-1.1-0.2-1.5-0.3s-0.8-0.4-1-0.8
			c-0.5-0.6-0.6-1.4-0.5-2.3c0.1-0.4,0.2-0.8,0.3-1.2s0.3-0.7,0.6-1c0.3-0.3,0.5-0.6,0.9-0.8c0.3-0.2,0.6-0.3,1-0.3
			c0.4,0,0.7,0.1,1.1,0.3c0.3,0.2,0.7,0.4,1,0.8c0.3,0.3,0.5,0.6,0.7,1s0.4,0.8,0.5,1.2c0.1,0.4,0.2,0.9,0.3,1.4c0,0.5,0,0.9,0,1.4
			h0c0,0,0,0.1,0,0.3c0,0.2,0,0.4-0.1,0.6c-0.1,0.3-0.1,0.5-0.2,0.9c-0.1,0.3-0.2,0.7-0.4,1c-0.2,0.4-0.5,0.8-0.7,1.1
			c-0.3,0.3-0.6,0.6-0.9,0.8c-0.4,0.3-0.9,0.5-1.4,0.7c-0.5,0.1-1.1,0.2-1.7,0.2h0c-1,0-1.9-0.2-2.7-0.6c-0.4-0.2-0.8-0.5-1.1-0.7
			c-0.3-0.3-0.6-0.6-0.8-1c-0.3-0.4-0.5-0.9-0.6-1.5c-0.1-0.5-0.2-1.1-0.1-1.7c0-0.6,0.2-1.2,0.4-1.9c0.2-0.6,0.5-1.3,0.8-1.9
			l1.4,0.7c-0.3,0.5-0.5,1.1-0.7,1.6c-0.2,0.5-0.3,1-0.3,1.5c0,0.5,0,0.9,0,1.3s0.2,0.8,0.4,1.1c0.3,0.5,0.7,0.9,1.3,1.2
			s1.2,0.4,2,0.4h0c0.5,0,1,0,1.5-0.2c0.4-0.2,0.8-0.4,1.2-0.8c0.3-0.3,0.6-0.7,0.8-1.1c0.2-0.4,0.4-0.9,0.5-1.3c-0.1,0-0.2,0-0.4,0
			S485.7,507.5,485.6,507.5z M483.9,498.3l-1.3,1.3l-1.3-1.3l1.3-1.3L483.9,498.3z M484.5,502.4c-0.2,0-0.4,0.1-0.6,0.4
			c-0.2,0.2-0.3,0.4-0.4,0.7s-0.2,0.5-0.2,0.8c-0.1,0.5,0,0.8,0.2,1.1c0.1,0.1,0.2,0.2,0.3,0.3s0.2,0.1,0.4,0.2
			c0.1,0,0.3,0.1,0.4,0.1c0.1,0,0.2,0,0.3,0c0.3,0,0.6,0,0.9,0c0.3,0,0.5,0,0.7,0c0-0.3-0.1-0.6-0.1-0.9c-0.1-0.3-0.1-0.6-0.2-0.8
			c-0.1-0.3-0.2-0.5-0.3-0.7s-0.2-0.4-0.4-0.5c-0.1-0.1-0.2-0.2-0.4-0.3C484.8,502.5,484.6,502.4,484.5,502.4z M487.1,498.3
			l-1.3,1.3l-1.3-1.3l1.3-1.3L487.1,498.3z"/>
		<path fill="#464545" d="M493.8,507.5c-0.6,0-1.1-0.1-1.5-0.2s-0.8-0.3-1-0.6c-0.2-0.2-0.3-0.4-0.4-0.6s-0.2-0.4-0.2-0.6
			c0-0.2-0.1-0.4-0.1-0.6s0-0.3,0-0.5v-0.1c0,0,0-0.1,0-0.3s0-0.4,0-0.8c0-0.3,0-0.7,0-1.1s0-0.8,0-1.3c0-0.4,0-0.9,0-1.4s0-1,0-1.4
			c0-0.5,0-0.9-0.1-1.3c0-0.4-0.1-0.7-0.1-0.9l1.5-0.3c0,0.3,0.1,0.6,0.1,1c0,0.4,0.1,0.8,0.1,1.3s0,0.9,0.1,1.4c0,0.5,0,1,0,1.4
			c0,0.5,0,0.9,0,1.3c0,0.4,0,0.8,0,1.1c0,0.3,0,0.6,0,0.8c0,0.2,0,0.3,0,0.4v0.1c0,0.2,0,0.4,0,0.6c0,0.2,0.1,0.3,0.2,0.4
			c0.2,0.2,0.7,0.4,1.3,0.4h0.1c0.1,0,0.2,0,0.3,0.1c0.1,0,0.2,0.1,0.2,0.2c0.1,0.1,0.1,0.2,0.2,0.2c0,0.1,0.1,0.2,0.1,0.3
			c0,0.2-0.1,0.4-0.2,0.5C494.2,507.4,494,507.5,493.8,507.5z"/>
		<path fill="#464545" d="M492.7,506.7c0-0.2,0.1-0.4,0.2-0.5c0.1-0.1,0.3-0.2,0.5-0.2h0.9c0.2,0,0.4,0,0.6,0c0.2,0,0.4,0,0.6,0
			c0.2,0,0.4-0.1,0.6-0.1s0.4-0.1,0.6-0.2c0.2-0.1,0.3-0.2,0.5-0.3c0.1-0.1,0.2-0.2,0.3-0.4c0.1-0.2,0.1-0.5,0.1-1s-0.1-0.9-0.3-1.5
			c-0.1-0.2-0.1-0.3-0.2-0.5c-0.1-0.2-0.1-0.4-0.2-0.5c-0.1-0.2-0.2-0.4-0.3-0.6l1.4-0.7c0,0,0,0.1,0.1,0.2c0,0.1,0.1,0.2,0.2,0.4
			s0.2,0.4,0.2,0.6c0.1,0.2,0.2,0.5,0.3,0.7c0.5,1.5,0.5,2.7,0.2,3.5c-0.4,0.8-1,1.4-2,1.7c-0.1,0-0.3,0.1-0.5,0.1
			c-0.2,0-0.4,0-0.7,0.1s-0.4,0-0.7,0c-0.2,0-0.4,0-0.5,0h-1.1h-0.1c-0.2,0-0.4-0.1-0.5-0.2C492.8,507.1,492.7,507,492.7,506.7z
			 M496.7,497.8l-1.3,1.3l-1.3-1.3l1.3-1.3L496.7,497.8z M499.9,497.8l-1.3,1.3l-1.3-1.3l1.3-1.3L499.9,497.8z"/>
		<path fill="#464545" d="M502.9,495.1c0.2,2.1,0.4,4,0.4,5.7c0.1,2.8,0,5-0.1,6.7l-1.5-0.1c0.2-2.3,0.2-4.3,0.2-5.8
			c-0.1-2.5-0.2-4.6-0.4-6.3L502.9,495.1z"/>
		<path fill="#464545" d="M524.3,505.6C524.3,505.6,524.3,505.7,524.3,505.6c-0.1,0.1-0.1,0.1-0.2,0.2c0.3,0.1,0.6,0.1,1,0.1
			c0.3,0,0.7,0.1,1,0.1c0.2,0,0.4,0.1,0.5,0.2c0.2,0.1,0.2,0.3,0.2,0.5c0,0.1,0,0.2-0.1,0.3c0,0.1-0.1,0.2-0.2,0.2
			c-0.1,0.1-0.2,0.1-0.2,0.2c-0.1,0-0.2,0.1-0.3,0.1c-0.7,0-1.3,0-1.9-0.1s-1.2-0.2-1.7-0.4c-0.1,0-0.2,0.1-0.2,0.1
			s-0.1,0.1-0.2,0.1c-0.3,0.1-0.6,0.2-0.9,0.3c-0.4,0.1-0.8,0.1-1.2,0.2c-0.4,0-0.9,0.1-1.3,0.1s-0.9,0-1.4,0c-1.6,0-2.9-0.2-4-0.6
			c-1.1-0.4-1.8-1-2.3-1.8c-0.2-0.3-0.4-0.7-0.4-1.1c-0.1-0.4-0.1-0.7-0.1-1.1c0-0.3,0.1-0.7,0.1-1c0.1-0.3,0.1-0.6,0.2-0.8
			s0.2-0.4,0.2-0.6s0.1-0.2,0.1-0.2l1.4,0.7c0,0,0,0.1-0.1,0.2s-0.1,0.2-0.2,0.4s-0.1,0.4-0.2,0.6c-0.1,0.2-0.1,0.4-0.1,0.7
			c0,0.2,0,0.5,0,0.7c0,0.2,0.1,0.5,0.3,0.7c0.2,0.3,0.4,0.5,0.6,0.7c0.2,0.2,0.6,0.4,0.9,0.5c0.4,0.1,0.8,0.2,1.3,0.3
			c0.5,0.1,1.1,0.1,1.7,0.1c0.5,0,0.9,0,1.3,0s0.7,0,1,0c0.3,0,0.6-0.1,0.8-0.1c0.2,0,0.5-0.1,0.7-0.1c-0.7-0.6-1.1-1.3-1.1-2.1
			c0-0.5,0.1-0.9,0.2-1.4c0.1-0.4,0.4-0.8,0.6-1.2c0.3-0.3,0.6-0.6,1-0.8c0.4-0.2,0.7-0.3,1.1-0.3c0.4,0,0.7,0.1,1,0.2
			c0.3,0.1,0.6,0.3,0.8,0.6c0.1,0.1,0.2,0.2,0.3,0.4s0.2,0.3,0.3,0.5c0.1,0.2,0.1,0.4,0.2,0.7c0,0.2,0.1,0.5,0.1,0.8
			C525,504.2,524.8,505,524.3,505.6z M522.4,505.3c0.2-0.1,0.4-0.3,0.5-0.4s0.2-0.3,0.3-0.5c0.1-0.2,0.1-0.3,0.1-0.5
			c0-0.2,0-0.4,0-0.5c0-0.4,0-0.7-0.1-0.9s-0.2-0.4-0.3-0.5c-0.1-0.1-0.2-0.2-0.4-0.2s-0.2,0-0.3,0c-0.1,0-0.3,0-0.5,0.1
			c-0.2,0.1-0.3,0.2-0.5,0.4s-0.3,0.4-0.3,0.7s-0.1,0.6-0.1,0.9c0,0.2,0.1,0.5,0.3,0.7c0.2,0.2,0.6,0.5,1,0.7L522.4,505.3z
			 M523.6,497.1l-1.3,1.3L521,497l1.3-1.3L523.6,497.1z"/>
		<path fill="#464545" d="M525.3,506.7c0-0.2,0.1-0.4,0.2-0.6c0.2-0.1,0.4-0.2,0.6-0.2h0.8c0.3,0,0.6,0,1,0c0.3,0,0.7,0,1-0.1
			c0.3-0.1,0.6-0.1,0.8-0.3c0.3-0.1,0.5-0.3,0.6-0.5c0.2-0.3,0.3-0.5,0.3-0.9c0-0.3,0-0.6-0.1-1c-0.1-0.2-0.2-0.5-0.4-0.8
			s-0.5-0.7-0.8-1.1c-0.3-0.4-0.7-0.8-1.1-1.2s-0.8-0.8-1.3-1.1l0.2-1.6l6.4-2.8l0.6,1.4l-5.6,2.4c0.3,0.2,0.5,0.5,0.8,0.7
			c0.3,0.3,0.6,0.6,0.9,0.9c0.4,0.4,0.7,0.9,1,1.3s0.5,0.8,0.6,1.1c0.1,0.4,0.2,0.7,0.3,1s0.1,0.6,0,0.9c0,0.3-0.1,0.5-0.2,0.8
			c-0.1,0.2-0.2,0.5-0.3,0.7c-0.5,0.8-1.2,1.3-2.4,1.5c-0.2,0-0.4,0.1-0.7,0.1h-2.5c-0.3,0-0.5-0.1-0.6-0.2
			C525.4,507.1,525.3,507,525.3,506.7z"/>
	</g>
</g>
</svg>
