<?xml version="1.0" encoding="utf-8"?>
<!-- Generator: Adobe Illustrator 18.0.0, SVG Export Plug-In . SVG Version: 6.00 Build 0)  -->
<!DOCTYPE svg PUBLIC "-//W3C//DTD SVG 1.1//EN" "http://www.w3.org/Graphics/SVG/1.1/DTD/svg11.dtd">
<svg version="1.1" id="Layer_1" xmlns="http://www.w3.org/2000/svg" xmlns:xlink="http://www.w3.org/1999/xlink" x="0px" y="0px"
	 width="203px" height="244px" viewBox="0 0 540 650" enable-background="new 0 0 540 650" xml:space="preserve">
	 <defs>
		<style>
			@font-face {
			font-family: "proximanova-nova";

			src: url('https://doopsalta2.com/Fonts/proxima-nova-three.woff2') format('woff2'),
				url('https://doopsalta2.com/Fonts/proxima-nova-three.woff') format('woff'),
				url('https://doopsalta2.com/Fonts/proxima-nova-three.otf') format('opentype');
			font-style: normal;
			}
		</style>
	</defs>
<g>
	
		<polygon opacity="0.8" fill="#B2B2B2" stroke="#717070" stroke-width="0.6174" stroke-miterlimit="10" enable-background="new    " points="
		450.5,111.4 460,101.8 0.3,101.8 9.2,111.4 449.2,111.4 	"/>
	
		<rect x="0" y="69.7" fill="#C6C6C6" stroke="#717070" stroke-width="0.5848" stroke-miterlimit="10" enable-background="new    " width="460" height="32.1"/>
</g>
<g>
	<g>
		<path fill="#464545" d="M140,19c0-1.5,0-2.9-0.1-4.4c-0.1-1.5-0.2-2.8-0.4-4.2c-0.2-1.3-0.4-2.6-0.8-3.7c-0.3-1.2-0.8-2.2-1.4-3.1
			l1.9-1.2c0.6,1,1.1,2.1,1.5,3.4c0.4,1.3,0.7,2.8,0.9,4.4c0.1,0.7,0.2,1.4,0.2,2.2c0.1,0.8,0.1,1.5,0.1,2.3s0.1,1.5,0.1,2.2
			c0,0.7,0,1.4,0,2.1H140z"/>
	</g>
</g>
<g>
	<g>
		<path fill="#464545" d="M234.7,2.2c0,0,0,0.1,0,0.2s0,0.3,0.1,0.5c0,0.2,0,0.5,0.1,0.7c0,0.3,0,0.6,0,0.9c0,1.7-0.4,3.1-1.2,4v0
			c-0.4,0.5-0.8,0.8-1.4,1c-0.5,0.2-1.1,0.4-1.8,0.4c-0.4,0-0.7,0-1-0.1c-0.3,0-0.6-0.1-0.9-0.2c0,0.1,0,0.2,0,0.3s0,0.2,0,0.3
			c0.1,0.7,0.2,1.4,0.2,2.2c0.1,0.8,0.1,1.5,0.1,2.2c0,0.8,0.1,1.5,0.1,2.2c0,0.7,0,1.4,0,2.1h-2.2c0-1.2,0-2.4,0-3.6
			c0-1.2-0.1-2.3-0.2-3.5c-0.1-1.1-0.2-2.2-0.4-3.2c-0.2-1-0.5-2-0.8-2.8c-0.2-0.4-0.3-0.8-0.5-1.2c-0.2-0.4-0.4-0.8-0.6-1.1
			l1.9-1.2c0.1,0.2,0.2,0.4,0.3,0.6c0.1,0.2,0.2,0.4,0.3,0.6s0.2,0.4,0.3,0.7s0.2,0.5,0.4,0.8c0.2,0.4,0.3,0.8,0.5,1.1
			c0.2,0.3,0.4,0.6,0.6,0.8c0.2,0.2,0.5,0.4,0.8,0.5s0.6,0.2,1.1,0.2c0.3,0,0.6,0,0.8-0.1c0.2-0.1,0.4-0.2,0.6-0.4
			c0.1-0.2,0.3-0.4,0.4-0.6c0.1-0.2,0.2-0.5,0.2-0.7c0.1-0.2,0.1-0.5,0.1-0.8c0-0.3,0-0.5,0-0.8c0-0.3,0-0.6-0.1-0.9
			c0-0.3-0.1-0.5-0.1-0.7L234.7,2.2z"/>
	</g>
</g>
<g>
	<path fill="#464545" d="M327.8,2c0.1,0.6,0.2,1.2,0.3,1.8c0.1,0.5,0.1,1.1,0.1,1.5c0,1.4-0.3,2.5-0.9,3.3c-0.3,0.3-0.6,0.6-1,0.8
		c-0.4,0.2-0.8,0.3-1.3,0.3c-0.2,0-0.4,0-0.6-0.1c-0.2,0-0.4-0.1-0.6-0.2c-0.2-0.1-0.4-0.2-0.6-0.4c-0.2-0.2-0.4-0.4-0.6-0.7
		l-0.2,0.3c-0.4,0.4-0.8,0.7-1.2,0.9c-0.4,0.2-0.9,0.3-1.5,0.3c-0.3,0-0.5,0-0.7-0.1c-0.2,0-0.4-0.1-0.7-0.2c0,0.1,0,0.2,0,0.3
		c0,0.1,0,0.2,0,0.3c0.1,0.7,0.2,1.5,0.2,2.2s0.1,1.5,0.1,2.2s0.1,1.5,0.1,2.2c0,0.7,0,1.4,0,2.1h-2.2c0-0.3,0-0.6,0-1
		c0-0.3,0-0.7,0-1c0-1.1,0-2.2-0.1-3.2c-0.1-1-0.2-2.1-0.3-3c-0.1-1-0.3-1.9-0.6-2.8c-0.2-0.9-0.5-1.7-0.8-2.5c0,0,0-0.1-0.1-0.2
		c0,0,0-0.1,0-0.1c-0.1-0.3-0.3-0.6-0.4-0.9c-0.1-0.3-0.3-0.6-0.5-0.8l2-1.2c0.1,0.1,0.1,0.2,0.2,0.3s0.1,0.3,0.2,0.4
		c0.1,0.2,0.2,0.3,0.2,0.5c0.1,0.2,0.2,0.3,0.2,0.5c0.2,0.4,0.4,0.7,0.5,1.1c0.2,0.5,0.4,0.9,0.5,1.2s0.3,0.6,0.5,0.8
		c0.2,0.2,0.4,0.3,0.6,0.4c0.2,0.1,0.5,0.1,0.8,0.1c0.2,0,0.4,0,0.6-0.1s0.3-0.2,0.4-0.4c0.2-0.2,0.4-0.6,0.5-1s0.2-1,0.2-1.6
		c0-0.1,0-0.2,0-0.4c0-0.2,0-0.4,0-0.6c0-0.2,0-0.4,0-0.6c0-0.2,0-0.3,0-0.4l2.2-0.3c0,0,0,0.1,0,0.1s0,0.1,0,0.1
		c0,0.1,0,0.2,0.1,0.4s0,0.4,0.1,0.6c0,0.5,0.1,0.9,0.2,1.5c0.1,0.5,0.2,1,0.3,1.4c0.1,0.3,0.2,0.5,0.3,0.6c0.1,0.2,0.2,0.3,0.3,0.3
		s0.2,0.1,0.2,0.1s0.1,0,0.2,0c0.2,0,0.3,0,0.4-0.1c0.1,0,0.1-0.1,0.2-0.2c0,0,0.1-0.1,0.1-0.2c0-0.1,0.1-0.2,0.1-0.4
		c0-0.1,0.1-0.3,0.1-0.5c0-0.2,0-0.5,0-0.8c0-0.3,0-0.7-0.1-1.2c-0.1-0.5-0.1-1-0.3-1.7L327.8,2z"/>
</g>
<g>
	<rect x="89.9" y="176.7" fill="none" stroke="#616261" stroke-width="3" stroke-miterlimit="10" width="280.2" height="389"/>
	<rect x="113" y="199.8" fill="none" stroke="#616261" stroke-width="3" stroke-miterlimit="10" width="234" height="342.8"/>
</g>
<g>
	<g>
		<line fill="none" stroke="#464545" stroke-width="3.2101" x1="321.2" y1="83.5" x2="321.2" y2="623.8"/>
		<g>
			<polygon fill="#464545" points="311.6,86.3 321.2,69.7 330.8,86.3 			"/>
		</g>
		<g>
			<polygon fill="#464545" points="311.6,621 321.2,637.6 330.8,621 			"/>
		</g>
	</g>
</g>
<g>
	<g>
		<line fill="none" stroke="#464545" stroke-width="3.2101" x1="230" y1="83.5" x2="230" y2="623.8"/>
		<g>
			<polygon fill="#464545" points="220.4,86.3 230,69.7 239.6,86.3 			"/>
		</g>
		<g>
			<polygon fill="#464545" points="220.4,621 230,637.6 239.6,621 			"/>
		</g>
	</g>
</g>
<g>
	<g>
		<line fill="none" stroke="#464545" stroke-width="3.2101" x1="139.8" y1="83.5" x2="139.8" y2="623.8"/>
		<g>
			<polygon fill="#464545" points="130.2,86.3 139.8,69.7 149.4,86.3 			"/>
		</g>
		<g>
			<polygon fill="#464545" points="130.2,621 139.8,637.6 149.4,621 			"/>
		</g>
	</g>
</g>
<line fill="none" stroke="#464545" stroke-width="2.9678" x1="0" y1="636.1" x2="460" y2="636.1"/>
<g>
	<g>
		<path fill="#464545" d="M485.8,637.6c-0.1,0-0.3,0-0.4,0s-0.3,0-0.4,0c-0.6,0-1.1-0.2-1.5-0.3s-0.8-0.4-1-0.8
			c-0.5-0.6-0.6-1.4-0.5-2.3c0.1-0.4,0.2-0.8,0.3-1.2c0.2-0.4,0.3-0.7,0.6-1c0.3-0.3,0.5-0.6,0.9-0.8c0.3-0.2,0.6-0.3,1-0.3
			c0.4,0,0.7,0.1,1.1,0.3c0.3,0.2,0.7,0.4,1,0.8c0.3,0.3,0.5,0.6,0.7,1s0.4,0.8,0.5,1.2s0.2,0.9,0.3,1.4c0,0.5,0,0.9,0,1.4h0
			c0,0,0,0.1,0,0.3c0,0.2,0,0.4-0.1,0.6c-0.1,0.3-0.1,0.5-0.2,0.9c-0.1,0.3-0.2,0.7-0.4,1c-0.2,0.4-0.5,0.8-0.7,1.1
			c-0.3,0.3-0.6,0.6-0.9,0.8c-0.4,0.3-0.9,0.5-1.4,0.7c-0.5,0.1-1.1,0.2-1.7,0.2h0c-1,0-1.9-0.2-2.7-0.6c-0.4-0.2-0.8-0.5-1.1-0.7
			c-0.3-0.3-0.6-0.6-0.8-1c-0.3-0.4-0.5-0.9-0.6-1.5s-0.2-1.1-0.1-1.7c0-0.6,0.2-1.2,0.4-1.9c0.2-0.6,0.5-1.3,0.8-1.9l1.4,0.7
			c-0.3,0.5-0.5,1.1-0.7,1.6c-0.2,0.5-0.3,1-0.3,1.5c0,0.5,0,0.9,0,1.3s0.2,0.8,0.4,1.1c0.3,0.5,0.7,0.9,1.3,1.2s1.2,0.4,2,0.4h0
			c0.5,0,1,0,1.5-0.2c0.4-0.2,0.8-0.4,1.2-0.8c0.3-0.3,0.6-0.7,0.8-1.1c0.2-0.4,0.4-0.9,0.5-1.3c-0.1,0-0.2,0-0.4,0
			C486,637.6,485.9,637.6,485.8,637.6z M484.1,628.4l-1.3,1.3l-1.3-1.3l1.3-1.3L484.1,628.4z M484.7,632.5c-0.2,0-0.4,0.1-0.6,0.4
			c-0.2,0.2-0.3,0.4-0.4,0.7s-0.2,0.5-0.2,0.8c-0.1,0.5,0,0.8,0.2,1.1c0.1,0.1,0.2,0.2,0.3,0.3s0.2,0.1,0.4,0.2
			c0.1,0,0.3,0.1,0.4,0.1s0.2,0,0.3,0c0.3,0,0.6,0,0.9,0c0.3,0,0.5,0,0.7,0c0-0.3-0.1-0.6-0.1-0.9c-0.1-0.3-0.1-0.6-0.2-0.8
			s-0.2-0.5-0.3-0.7c-0.1-0.2-0.2-0.4-0.4-0.5c-0.1-0.1-0.2-0.2-0.4-0.3C485,632.6,484.8,632.5,484.7,632.5z M487.4,628.4l-1.3,1.3
			l-1.3-1.3l1.3-1.3L487.4,628.4z"/>
		<path fill="#464545" d="M494,637.6c-0.6,0-1.1-0.1-1.5-0.2c-0.4-0.1-0.8-0.3-1-0.6c-0.2-0.2-0.3-0.4-0.4-0.6
			c-0.1-0.2-0.2-0.4-0.2-0.6c0-0.2-0.1-0.4-0.1-0.6c0-0.2,0-0.3,0-0.5v-0.1c0,0,0-0.1,0-0.3c0-0.2,0-0.4,0-0.8c0-0.3,0-0.7,0-1.1
			s0-0.8,0-1.3c0-0.4,0-0.9,0-1.4c0-0.5,0-1,0-1.4c0-0.5,0-0.9-0.1-1.3c0-0.4-0.1-0.7-0.1-0.9l1.5-0.3c0,0.3,0.1,0.6,0.1,1
			c0,0.4,0.1,0.8,0.1,1.3s0,0.9,0.1,1.4c0,0.5,0,1,0,1.4c0,0.5,0,0.9,0,1.3c0,0.4,0,0.8,0,1.1c0,0.3,0,0.6,0,0.8c0,0.2,0,0.3,0,0.4
			v0.1c0,0.2,0,0.4,0,0.6c0,0.2,0.1,0.3,0.2,0.4c0.2,0.2,0.7,0.4,1.3,0.4h0.1c0.1,0,0.2,0,0.3,0.1c0.1,0,0.2,0.1,0.2,0.2
			c0.1,0.1,0.1,0.2,0.2,0.2c0,0.1,0.1,0.2,0.1,0.3c0,0.2-0.1,0.4-0.2,0.5C494.4,637.5,494.2,637.6,494,637.6z"/>
		<path fill="#464545" d="M492.9,636.8c0-0.2,0.1-0.4,0.2-0.5c0.1-0.1,0.3-0.2,0.5-0.2h0.9c0.2,0,0.4,0,0.6,0c0.2,0,0.4,0,0.6,0
			c0.2,0,0.4-0.1,0.6-0.1c0.2,0,0.4-0.1,0.6-0.2c0.2-0.1,0.3-0.2,0.5-0.3c0.1-0.1,0.2-0.2,0.3-0.4c0.1-0.2,0.1-0.5,0.1-1
			c0-0.4-0.1-0.9-0.3-1.5c-0.1-0.2-0.1-0.3-0.2-0.5c-0.1-0.2-0.1-0.4-0.2-0.5c-0.1-0.2-0.2-0.4-0.3-0.6l1.4-0.7c0,0,0,0.1,0.1,0.2
			c0,0.1,0.1,0.2,0.2,0.4s0.2,0.4,0.2,0.6c0.1,0.2,0.2,0.5,0.2,0.7c0.5,1.5,0.5,2.7,0.2,3.5c-0.4,0.8-1,1.4-2,1.7
			c-0.1,0-0.3,0.1-0.5,0.1s-0.4,0-0.7,0.1s-0.4,0-0.7,0c-0.2,0-0.4,0-0.5,0h-1.1h-0.1c-0.2,0-0.4-0.1-0.5-0.2
			C493,637.2,492.9,637.1,492.9,636.8z M496.9,627.9l-1.3,1.3l-1.3-1.3l1.3-1.3L496.9,627.9z M500.1,627.9l-1.3,1.3l-1.3-1.3
			l1.3-1.3L500.1,627.9z"/>
		<path fill="#464545" d="M503.1,625.2c0.2,2.1,0.4,4,0.4,5.7c0.1,2.8,0,5-0.1,6.7l-1.5-0.1c0.2-2.3,0.2-4.3,0.2-5.8
			c-0.1-2.5-0.2-4.6-0.4-6.3L503.1,625.2z"/>
		<path fill="#464545" d="M524.5,635.7C524.5,635.7,524.5,635.8,524.5,635.7c-0.1,0.1-0.1,0.1-0.2,0.2c0.3,0.1,0.6,0.1,1,0.1
			s0.7,0.1,1,0.1c0.2,0,0.4,0.1,0.5,0.2c0.2,0.1,0.2,0.3,0.2,0.5c0,0.1,0,0.2-0.1,0.3s-0.1,0.2-0.2,0.2c-0.1,0.1-0.2,0.1-0.2,0.2
			s-0.2,0.1-0.3,0.1c-0.7,0-1.3,0-1.9-0.1c-0.6-0.1-1.2-0.2-1.7-0.4c-0.1,0-0.2,0.1-0.2,0.1s-0.1,0.1-0.2,0.1
			c-0.3,0.1-0.6,0.2-0.9,0.3c-0.4,0.1-0.8,0.1-1.2,0.2c-0.4,0-0.9,0.1-1.3,0.1c-0.5,0-0.9,0-1.4,0c-1.6,0-2.9-0.2-4-0.6
			c-1.1-0.4-1.8-1-2.3-1.8c-0.2-0.3-0.4-0.7-0.4-1.1c-0.1-0.4-0.1-0.7-0.1-1.1c0-0.3,0.1-0.7,0.1-1c0.1-0.3,0.1-0.6,0.2-0.8
			c0.1-0.2,0.2-0.4,0.2-0.6c0.1-0.1,0.1-0.2,0.1-0.2l1.4,0.7c0,0,0,0.1-0.1,0.2s-0.1,0.2-0.2,0.4c-0.1,0.2-0.1,0.4-0.2,0.6
			c-0.1,0.2-0.1,0.4-0.1,0.7c0,0.2,0,0.5,0,0.7c0,0.2,0.1,0.5,0.3,0.7c0.2,0.3,0.4,0.5,0.6,0.7s0.6,0.4,0.9,0.5
			c0.4,0.1,0.8,0.2,1.3,0.3c0.5,0.1,1,0.1,1.7,0.1c0.5,0,0.9,0,1.3,0s0.7,0,1,0c0.3,0,0.6-0.1,0.8-0.1c0.2,0,0.5-0.1,0.7-0.1
			c-0.7-0.6-1.1-1.3-1.1-2.1c0-0.5,0.1-0.9,0.2-1.4s0.4-0.8,0.6-1.2c0.3-0.3,0.6-0.6,1-0.8c0.4-0.2,0.7-0.3,1.1-0.3
			c0.4,0,0.7,0.1,1,0.2c0.3,0.1,0.6,0.3,0.8,0.6c0.1,0.1,0.2,0.2,0.3,0.4c0.1,0.1,0.2,0.3,0.3,0.5s0.1,0.4,0.2,0.7
			c0,0.2,0.1,0.5,0.1,0.8C525.2,634.3,525,635.1,524.5,635.7z M522.6,635.4c0.2-0.1,0.4-0.3,0.5-0.4c0.1-0.2,0.2-0.3,0.3-0.5
			c0.1-0.2,0.1-0.3,0.1-0.5c0-0.2,0-0.4,0-0.5c0-0.4,0-0.7-0.1-0.9c-0.1-0.2-0.2-0.4-0.3-0.5s-0.2-0.2-0.4-0.2c-0.1,0-0.2,0-0.3,0
			c-0.1,0-0.3,0-0.5,0.1c-0.2,0.1-0.3,0.2-0.5,0.4c-0.1,0.2-0.3,0.4-0.3,0.7c-0.1,0.3-0.1,0.6-0.1,0.9c0,0.2,0.1,0.5,0.3,0.7
			s0.6,0.5,1,0.7L522.6,635.4z M523.8,627.2l-1.3,1.3l-1.3-1.3l1.3-1.3L523.8,627.2z"/>
		<path fill="#464545" d="M525.5,636.8c0-0.2,0.1-0.4,0.2-0.6c0.2-0.1,0.4-0.2,0.6-0.2h0.8c0.3,0,0.6,0,1,0s0.7,0,1-0.1
			c0.3-0.1,0.6-0.1,0.8-0.3c0.3-0.1,0.5-0.3,0.6-0.5c0.2-0.3,0.3-0.5,0.3-0.9c0-0.3,0-0.6-0.1-1c-0.1-0.2-0.2-0.5-0.4-0.8
			c-0.2-0.3-0.5-0.7-0.8-1.1c-0.3-0.4-0.7-0.8-1.1-1.2s-0.8-0.8-1.3-1.1l0.2-1.6l6.4-2.8l0.6,1.4l-5.6,2.4c0.3,0.2,0.5,0.5,0.8,0.7
			c0.3,0.3,0.6,0.6,0.9,0.9c0.4,0.4,0.7,0.9,1,1.3s0.5,0.8,0.6,1.1c0.1,0.4,0.2,0.7,0.3,1s0.1,0.6,0,0.9c0,0.3-0.1,0.5-0.2,0.8
			s-0.2,0.5-0.3,0.7c-0.5,0.8-1.2,1.3-2.4,1.5c-0.2,0-0.4,0.1-0.7,0.1h-2.5c-0.3,0-0.5-0.1-0.6-0.2
			C525.6,637.2,525.5,637.1,525.5,636.8z"/>
	</g>
</g>
</svg>
