<svg id="center" xmlns="http://www.w3.org/2000/svg" width="178.864" height="151" viewBox="0 0 178.864 151">
  <rect id="Rectangle_9" data-name="Rectangle 9" width="178.864" height="151" fill="none"/>
  <g id="Group_25" data-name="Group 25" transform="translate(-47.843 3.602)">
    <rect id="Rectangle_41" data-name="Rectangle 41" width="122" height="151" transform="translate(76.514 -3.602)" fill="none"/>
    <line id="Line_1" data-name="Line 1" x2="116" transform="translate(79.274 0.296)" fill="none" stroke="#606060" stroke-width="2"/>

    <g id="Group_29" data-name="Group 29" transform="translate(172.132 64.368) rotate(-90)">
      <line id="Line_5" data-name="Line 5" y1="22.385" transform="translate(47.99 2.52)" fill="none" stroke="#606060" stroke-width="0.8"/>
      <line id="Line_7" data-name="Line 7" x2="12.883" transform="translate(49.742 20.698)" fill="none" stroke="#606060" stroke-width="1.4"/>
      <g id="Polygon_1" data-name="Polygon 1" transform="translate(63.876 18.198) rotate(90)" fill="#606060">
        <path d="M 4.278299808502197 3.599999904632568 L 0.7217000126838684 3.599999904632568 L 2.5 0.7547199726104736 L 4.278299808502197 3.599999904632568 Z" stroke="none"/>
        <path d="M 2.5 1.509439945220947 L 1.443399906158447 3.200000047683716 L 3.556600093841553 3.200000047683716 L 2.5 1.509439945220947 M 2.5 0 L 5 4 L 0 4 L 2.5 0 Z" stroke="none" fill="#606060"/>
      </g>
      <g id="Polygon_2" data-name="Polygon 2" transform="translate(48.49 23.198) rotate(-90)" fill="#606060">
        <path d="M 4.278299808502197 3.599999904632568 L 0.7217000126838684 3.599999904632568 L 2.5 0.7547199726104736 L 4.278299808502197 3.599999904632568 Z" stroke="none"/>
        <path d="M 2.5 1.509439945220947 L 1.443399906158447 3.200000047683716 L 3.556600093841553 3.200000047683716 L 2.5 1.509439945220947 M 2.5 0 L 5 4 L 0 4 L 2.5 0 Z" stroke="none" fill="#606060"/>
      </g>
    </g>
    <g id="Group_32" data-name="Group 32" transform="translate(78.31 16.378) rotate(-90)">
      <line id="Line_5-2" data-name="Line 5" y2="22.385" transform="translate(0 0)" fill="none" stroke="#606060" stroke-width="0.8"/>
      <line id="Line_7-2" data-name="Line 7" x2="12.883" transform="translate(1.752 4.207)" fill="none" stroke="#606060" stroke-width="1.4"/>
      <g id="Polygon_1-2" data-name="Polygon 1" transform="translate(15.885 1.707) rotate(90)" fill="#606060">
        <path d="M 4.278299808502197 3.599999904632568 L 0.7217000126838684 3.599999904632568 L 2.5 0.7547199726104736 L 4.278299808502197 3.599999904632568 Z" stroke="none"/>
        <path d="M 2.5 1.509439945220947 L 1.443399906158447 3.200000047683716 L 3.556600093841553 3.200000047683716 L 2.5 1.509439945220947 M 2.5 0 L 5 4 L 0 4 L 2.5 0 Z" stroke="none" fill="#606060"/>
      </g>
      <g id="Polygon_2-2" data-name="Polygon 2" transform="translate(0.5 6.707) rotate(-90)" fill="#606060">
        <path d="M 4.278299808502197 3.599999904632568 L 0.7217000126838684 3.599999904632568 L 2.5 0.7547199726104736 L 4.278299808502197 3.599999904632568 Z" stroke="none"/>
        <path d="M 2.5 1.509439945220947 L 1.443399906158447 3.200000047683716 L 3.556600093841553 3.200000047683716 L 2.5 1.509439945220947 M 2.5 0 L 5 4 L 0 4 L 2.5 0 Z" stroke="none" fill="#606060"/>
      </g>
    </g>
    <g id="Rectangle_4" data-name="Rectangle 4" transform="translate(89.503 15.835)" fill="#fff" stroke="#606060" stroke-width="1.1">
      <rect width="95.067" height="131.563" stroke="none"/>
      <rect x="0.55" y="0.55" width="93.967" height="130.463" fill="none"/>
    </g>
    <g id="Rectangle_5" data-name="Rectangle 5" transform="translate(97.794 24.125)" fill="#fff" stroke="#606060" stroke-width="1.1">
      <rect width="78.485" height="114.982" stroke="none"/>
      <rect x="0.55" y="0.55" width="77.385" height="113.882" fill="none"/>
    </g>
  </g>
</svg>
