<?xml version="1.0" encoding="utf-8"?>
<!-- Generator: Adobe Illustrator 18.0.0, SVG Export Plug-In . SVG Version: 6.00 Build 0)  -->
<!DOCTYPE svg PUBLIC "-//W3C//DTD SVG 1.1//EN" "http://www.w3.org/Graphics/SVG/1.1/DTD/svg11.dtd">
<svg version="1.1" id="Layer_1" xmlns="http://www.w3.org/2000/svg" xmlns:xlink="http://www.w3.org/1999/xlink" x="0px" y="0px"
	 width="411px" height="571px" viewBox="0 0 411 571" enable-background="new 0 0 411 571" xml:space="preserve">
<g>
	<rect x="65.4" y="55" fill="#FFFFFF" stroke="#464545" stroke-width="3" width="280.2" height="389"/>
	<rect x="88.5" y="78.1" fill="none" stroke="#464545" stroke-width="3" width="234" height="342.8"/>
</g>
<g>
	<rect x="1.1" y="0" fill="#B2B2B2" stroke="#706F6F" stroke-width="1.2906" stroke-miterlimit="10" width="408.8" height="6.2"/>
</g>
<g>
	<g>
		<g>
			<path fill="#DADADA" stroke="#706F6F" stroke-width="0.8084" stroke-miterlimit="10" d="M202.4,9.5v438.1h0.2
				c1.1,3,7.2,5.3,14.7,5.3s13.6-2.3,14.7-5.3h0.2V9.5H202.4z"/>
		</g>
		<path fill="#DADADA" stroke="#878787" stroke-width="0.8084" stroke-miterlimit="10" d="M202.4,37.7c0,0,11.8,6.5,29.8,0"/>
	</g>
	<g>
		<g>
			<path fill="#DADADA" stroke="#706F6F" stroke-width="0.8084" stroke-miterlimit="10" d="M232.2,9.5v438.1h0.2
				c1.1,3,7.2,5.3,14.7,5.3s13.6-2.3,14.7-5.3h0.2V9.5H232.2z"/>
		</g>
		<path fill="#DADADA" stroke="#878787" stroke-width="0.8084" stroke-miterlimit="10" d="M232.2,37.7c0,0,11.8,6.5,29.8,0"/>
	</g>
	<g>
		<g>
			<path fill="#DADADA" stroke="#706F6F" stroke-width="0.8084" stroke-miterlimit="10" d="M261.9,9.5v438.1h0.2
				c1.1,3,7.2,5.3,14.7,5.3c7.5,0,13.6-2.3,14.7-5.3h0.2V9.5H261.9z"/>
		</g>
		<path fill="#DADADA" stroke="#878787" stroke-width="0.8084" stroke-miterlimit="10" d="M261.9,37.7c0,0,11.8,6.5,29.8,0"/>
	</g>
	<g>
		<g>
			<path fill="#DADADA" stroke="#706F6F" stroke-width="0.8084" stroke-miterlimit="10" d="M291.7,9.5v438.1h0.2
				c1.1,3,7.2,5.3,14.7,5.3c7.5,0,13.6-2.3,14.7-5.3h0.2V9.5H291.7z"/>
		</g>
		<path fill="#DADADA" stroke="#878787" stroke-width="0.8084" stroke-miterlimit="10" d="M291.7,37.7c0,0,11.8,6.5,29.8,0"/>
	</g>
	<g>
		<g>
			<path fill="#DADADA" stroke="#706F6F" stroke-width="0.8084" stroke-miterlimit="10" d="M321.5,9.5v438.1h0.2
				c1.1,3,7.2,5.3,14.7,5.3c7.5,0,13.6-2.3,14.7-5.3h0.2V9.5H321.5z"/>
		</g>
		<path fill="#DADADA" stroke="#878787" stroke-width="0.8084" stroke-miterlimit="10" d="M321.5,37.7c0,0,11.8,6.5,29.8,0"/>
	</g>
	<g>
		<g>
			<path fill="#DADADA" stroke="#706F6F" stroke-width="0.8084" stroke-miterlimit="10" d="M351.2,9.5v438.1h0.2
				c1.1,3,7.2,5.3,14.7,5.3c7.5,0,13.6-2.3,14.7-5.3h0.2V9.5H351.2z"/>
		</g>
		<path fill="#DADADA" stroke="#878787" stroke-width="0.8084" stroke-miterlimit="10" d="M351.2,37.7c0,0,11.8,6.5,29.8,0"/>
	</g>
</g>
</svg>
