<?xml version="1.0" encoding="utf-8"?>
<!-- Generator: Adobe Illustrator 18.0.0, SVG Export Plug-In . SVG Version: 6.00 Build 0)  -->
<!DOCTYPE svg PUBLIC "-//W3C//DTD SVG 1.1//EN" "http://www.w3.org/Graphics/SVG/1.1/DTD/svg11.dtd">
<svg version="1.1" id="Layer_1" xmlns="http://www.w3.org/2000/svg" xmlns:xlink="http://www.w3.org/1999/xlink" x="0px" y="0px"
	 width="411px" height="571px" viewBox="0 0 411 571" enable-background="new 0 0 411 571" xml:space="preserve">
<rect y="-0.5" fill="#EDEDED" width="411" height="572"/>
<rect x="32.5" y="31.9" fill="#FFFFFF" stroke="#878787" stroke-width="3.538" stroke-miterlimit="10" width="346.1" height="484.5"/>
<rect x="56.6" y="58.5" fill="#FFFFFF" stroke="#878787" stroke-width="2.4414" stroke-miterlimit="10" width="297.6" height="431"/>
<rect x="71.6" y="73.6" fill="none" stroke="#878787" stroke-width="2.4414" stroke-miterlimit="10" width="267.6" height="400.9"/>
<g>
	<g>
		<g>
			<rect x="56.6" y="61.8" fill="#B2B2B2" width="297.6" height="7.6"/>
			<rect x="56.6" y="61.8" fill="none" stroke="#717070" stroke-width="0.776" stroke-miterlimit="10" width="297.6" height="7.6"/>
		</g>
	</g>
</g>
<g>
	<g>
		<g opacity="0.78">
			<g>
				<path fill="#DADADA" stroke="#706F6F" stroke-width="1.0333" stroke-miterlimit="10" d="M63.5,72.7V479h0.2
					c1.3,3.1,8.6,5.6,17.5,5.6s16.2-2.4,17.5-5.6h0.2V72.7H63.5z"/>
			</g>
			<path fill="#DADADA" stroke="#706F6F" stroke-width="1.0333" stroke-miterlimit="10" d="M63.5,102.5c0,0,14.1,6.9,35.4,0"/>
		</g>
		<g opacity="0.78">
			<g>
				<path fill="#DADADA" stroke="#706F6F" stroke-width="1.0333" stroke-miterlimit="10" d="M99,72.7V479h0.2
					c1.3,3.1,8.6,5.6,17.5,5.6s16.2-2.4,17.5-5.6h0.2V72.7H99z"/>
			</g>
			<path fill="#DADADA" stroke="#706F6F" stroke-width="1.0333" stroke-miterlimit="10" d="M99,102.5c0,0,14.1,6.9,35.4,0"/>
		</g>
		<g opacity="0.78">
			<g>
				<path fill="#DADADA" stroke="#706F6F" stroke-width="1.0333" stroke-miterlimit="10" d="M134.4,72.7V479h0.2
					c1.3,3.1,8.6,5.6,17.5,5.6c8.9,0,16.2-2.4,17.5-5.6h0.2V72.7H134.4z"/>
			</g>
			<path fill="#DADADA" stroke="#706F6F" stroke-width="1.0333" stroke-miterlimit="10" d="M134.4,102.5c0,0,14.1,6.9,35.4,0"/>
		</g>
	</g>
	<g opacity="0.8">
		<g opacity="0.78">
			<g>
				<path fill="#DADADA" stroke="#706F6F" stroke-width="1.0333" stroke-miterlimit="10" d="M170.1,72.7V479h0.2
					c1.3,3.1,8.6,5.6,17.5,5.6c8.9,0,16.2-2.4,17.5-5.6h0.2V72.7H170.1z"/>
			</g>
			<path fill="#DADADA" stroke="#706F6F" stroke-width="1.0333" stroke-miterlimit="10" d="M170.1,102.5c0,0,14.1,6.9,35.4,0"/>
		</g>
		<g opacity="0.78">
			<g>
				<path fill="#DADADA" stroke="#706F6F" stroke-width="1.0333" stroke-miterlimit="10" d="M205.6,72.7V479h0.2
					c1.3,3.1,8.6,5.6,17.5,5.6c8.9,0,16.2-2.4,17.5-5.6h0.2V72.7H205.6z"/>
			</g>
			<path fill="#DADADA" stroke="#706F6F" stroke-width="1.0333" stroke-miterlimit="10" d="M205.6,102.5c0,0,14.1,6.9,35.4,0"/>
		</g>
		<g opacity="0.78">
			<g>
				<path fill="#DADADA" stroke="#706F6F" stroke-width="1.0333" stroke-miterlimit="10" d="M240.9,72.7V479h0.2
					c1.3,3.1,8.6,5.6,17.5,5.6c8.9,0,16.2-2.4,17.5-5.6h0.2V72.7H240.9z"/>
			</g>
			<path fill="#DADADA" stroke="#706F6F" stroke-width="1.0333" stroke-miterlimit="10" d="M240.9,102.5c0,0,14.1,6.9,35.4,0"/>
		</g>
	</g>
	<g opacity="0.8">
		<g opacity="0.78">
			<g>
				<path fill="#DADADA" stroke="#706F6F" stroke-width="1.0333" stroke-miterlimit="10" d="M276.6,72.7V479h0.2
					c1.3,3.1,8.6,5.6,17.5,5.6c8.9,0,16.2-2.4,17.5-5.6h0.2V72.7H276.6z"/>
			</g>
			<path fill="#DADADA" stroke="#706F6F" stroke-width="1.0333" stroke-miterlimit="10" d="M276.6,102.5c0,0,14.1,6.9,35.4,0"/>
		</g>
		<g opacity="0.78">
			<g>
				<path fill="#DADADA" stroke="#706F6F" stroke-width="1.0333" stroke-miterlimit="10" d="M312.1,72.7V479h0.2
					c1.3,3.1,8.6,5.6,17.5,5.6c8.9,0,16.2-2.4,17.5-5.6h0.2V72.7H312.1z"/>
			</g>
			<path fill="#DADADA" stroke="#706F6F" stroke-width="1.0333" stroke-miterlimit="10" d="M312.1,102.5c0,0,14.1,6.9,35.4,0"/>
		</g>
	</g>
</g>
</svg>
