<?xml version="1.0" encoding="utf-8"?>
<!-- Generator: Adobe Illustrator 18.0.0, SVG Export Plug-In . SVG Version: 6.00 Build 0)  -->
<!DOCTYPE svg PUBLIC "-//W3C//DTD SVG 1.1//EN" "http://www.w3.org/Graphics/SVG/1.1/DTD/svg11.dtd">
<svg version="1.1" id="Layer_1" xmlns="http://www.w3.org/2000/svg" xmlns:xlink="http://www.w3.org/1999/xlink" x="0px" y="0px"
	 width="411px" height="571px" viewBox="0 0 411 571" enable-background="new 0 0 411 571" xml:space="preserve">
<rect x="-0.2" fill="#EDEDED" width="411.4" height="569.6"/>
<rect x="83.6" y="135" fill="none" stroke="#878787" stroke-width="1.5113" stroke-miterlimit="10" width="243.8" height="414.9"/>
<rect x="95.9" y="148.4" fill="none" stroke="#878787" stroke-width="1.4032" stroke-miterlimit="10" width="219.2" height="389.7"/>
<polygon fill="#B2B2B2" stroke="#717070" stroke-width="0.6357" stroke-miterlimit="10" enable-background="new    " points="
	21.8,41.7 21.9,32.1 0,32.1 12.3,41.7 21.7,41.7 "/>
<polygon fill="#B2B2B2" stroke="#717070" stroke-width="0.6357" stroke-miterlimit="10" enable-background="new    " points="
	389.3,41.7 398.7,41.7 411,32.1 389.1,32.1 389.2,41.7 "/>
<g>
	<g>
		<path fill="#DADADA" stroke="#706F6F" stroke-miterlimit="10" d="M21.3,32.1v520.1h0.2c1.2,3.1,8.1,5.6,16.5,5.6
			s15.3-2.4,16.5-5.6h0.2V32.1H21.3z"/>
	</g>
	<path fill="#DADADA" stroke="#706F6F" stroke-miterlimit="10" d="M21.3,61.7c0,0,13.3,6.8,33.4,0"/>
</g>
<g>
	<g>
		<path fill="#DADADA" stroke="#706F6F" stroke-miterlimit="10" d="M54.8,32.1v520.1H55c1.2,3.1,8.1,5.6,16.5,5.6s15.3-2.4,16.5-5.6
			h0.2V32.1H54.8z"/>
	</g>
	<path fill="#DADADA" stroke="#706F6F" stroke-miterlimit="10" d="M54.8,61.7c0,0,13.3,6.8,33.4,0"/>
</g>
<g>
	<g>
		<path fill="#DADADA" stroke="#706F6F" stroke-miterlimit="10" d="M88.3,32.1v520.1h0.2c1.2,3.1,8.1,5.6,16.5,5.6
			s15.3-2.4,16.5-5.6h0.2V32.1H88.3z"/>
	</g>
	<path fill="#DADADA" stroke="#706F6F" stroke-miterlimit="10" d="M88.3,61.7c0,0,13.3,6.8,33.4,0"/>
</g>
<g>
	<g>
		<path fill="#DADADA" stroke="#706F6F" stroke-miterlimit="10" d="M121.8,32.1v520.1h0.2c1.2,3.1,8.1,5.6,16.5,5.6
			s15.3-2.4,16.5-5.6h0.2V32.1H121.8z"/>
	</g>
	<path fill="#DADADA" stroke="#706F6F" stroke-miterlimit="10" d="M121.8,61.7c0,0,13.3,6.8,33.4,0"/>
</g>
<g>
	<g>
		<path fill="#DADADA" stroke="#706F6F" stroke-miterlimit="10" d="M155.3,32.1v520.1h0.2c1.2,3.1,8.1,5.6,16.5,5.6
			c8.4,0,15.3-2.4,16.5-5.6h0.2V32.1H155.3z"/>
	</g>
	<path fill="#DADADA" stroke="#706F6F" stroke-miterlimit="10" d="M155.3,61.7c0,0,13.3,6.8,33.4,0"/>
</g>
<g>
	<g>
		<path fill="#DADADA" stroke="#706F6F" stroke-miterlimit="10" d="M188.8,32.1v520.1h0.2c1.2,3.1,8.1,5.6,16.5,5.6
			s15.3-2.4,16.5-5.6h0.2V32.1H188.8z"/>
	</g>
	<path fill="#DADADA" stroke="#706F6F" stroke-miterlimit="10" d="M188.8,61.7c0,0,13.3,6.8,33.4,0"/>
</g>
<g>
	<g>
		<path fill="#DADADA" stroke="#706F6F" stroke-miterlimit="10" d="M222.3,32.1v520.1h0.2c1.2,3.1,8.1,5.6,16.5,5.6
			s15.3-2.4,16.5-5.6h0.2V32.1H222.3z"/>
	</g>
	<path fill="#DADADA" stroke="#706F6F" stroke-miterlimit="10" d="M222.3,61.7c0,0,13.3,6.8,33.4,0"/>
</g>
<g>
	<g>
		<path fill="#DADADA" stroke="#706F6F" stroke-miterlimit="10" d="M255.8,32.1v520.1h0.2c1.2,3.1,8.1,5.6,16.5,5.6
			s15.3-2.4,16.5-5.6h0.2V32.1H255.8z"/>
	</g>
	<path fill="#DADADA" stroke="#706F6F" stroke-miterlimit="10" d="M255.8,61.7c0,0,13.3,6.8,33.4,0"/>
</g>
<g>
	<g>
		<path fill="#DADADA" stroke="#706F6F" stroke-miterlimit="10" d="M289.3,32.1v520.1h0.2c1.2,3.1,8.1,5.6,16.5,5.6
			s15.3-2.4,16.5-5.6h0.2V32.1H289.3z"/>
	</g>
	<path fill="#DADADA" stroke="#706F6F" stroke-miterlimit="10" d="M289.3,61.7c0,0,13.3,6.8,33.4,0"/>
</g>
<g>
	<g>
		<path fill="#DADADA" stroke="#706F6F" stroke-miterlimit="10" d="M322.8,32.1v520.1h0.2c1.2,3.1,8.1,5.6,16.5,5.6
			s15.3-2.4,16.5-5.6h0.2V32.1H322.8z"/>
	</g>
	<path fill="#DADADA" stroke="#706F6F" stroke-miterlimit="10" d="M322.8,61.7c0,0,13.3,6.8,33.4,0"/>
</g>
<g>
	<g>
		<path fill="#DADADA" stroke="#706F6F" stroke-miterlimit="10" d="M356.3,32.1v520.1h0.2c1.2,3.1,8.1,5.6,16.5,5.6
			s15.3-2.4,16.5-5.6h0.2V32.1H356.3z"/>
	</g>
	<path fill="#DADADA" stroke="#706F6F" stroke-miterlimit="10" d="M356.3,61.7c0,0,13.3,6.8,33.4,0"/>
</g>
<rect x="0" y="0" fill="#C6C6C6" stroke="#717070" stroke-width="0.5732" stroke-miterlimit="10" enable-background="new    " width="411" height="32.1"/>
</svg>
