<?xml version="1.0" encoding="utf-8"?>
<!-- Generator: Adobe Illustrator 18.0.0, SVG Export Plug-In . SVG Version: 6.00 Build 0)  -->
<!DOCTYPE svg PUBLIC "-//W3C//DTD SVG 1.1//EN" "http://www.w3.org/Graphics/SVG/1.1/DTD/svg11.dtd">
<svg version="1.1" id="Layer_1" xmlns="http://www.w3.org/2000/svg" xmlns:xlink="http://www.w3.org/1999/xlink" x="0px" y="0px"
	 width="411px" height="571px" viewBox="0 0 411 571" enable-background="new 0 0 411 571" xml:space="preserve">
<rect x="0" y="-0.5" fill="#EDEDED" width="411" height="571.4"/>
<g enable-background="new    ">
	<rect x="0" y="21.9" fill="#B2B2B2" stroke="#717070" stroke-width="0.6149" stroke-miterlimit="10" width="411" height="6.2"/>
</g>
<g>
	<g>
		<path fill="#DADADA" stroke="#706F6F" stroke-miterlimit="10" d="M21.3,33.1v519.1h0.2c1.2,3.1,8.1,5.6,16.5,5.6
			s15.3-2.4,16.5-5.6h0.2V33.1H21.3z"/>
	</g>
	<path fill="#DADADA" stroke="#706F6F" stroke-miterlimit="10" d="M21.3,62.7c0,0,13.3,6.8,33.4,0"/>
</g>
<g>
	<g>
		<path fill="#DADADA" stroke="#706F6F" stroke-miterlimit="10" d="M54.8,33.1v519.1H55c1.2,3.1,8.1,5.6,16.5,5.6s15.3-2.4,16.5-5.6
			h0.2V33.1H54.8z"/>
	</g>
	<path fill="#DADADA" stroke="#706F6F" stroke-miterlimit="10" d="M54.8,62.7c0,0,13.3,6.8,33.4,0"/>
</g>
<g>
	<g>
		<path fill="#DADADA" stroke="#706F6F" stroke-miterlimit="10" d="M88.3,33.1v519.1h0.2c1.2,3.1,8.1,5.6,16.5,5.6
			s15.3-2.4,16.5-5.6h0.2V33.1H88.3z"/>
	</g>
	<path fill="#DADADA" stroke="#706F6F" stroke-miterlimit="10" d="M88.3,62.7c0,0,13.3,6.8,33.4,0"/>
</g>
<g>
	<g>
		<path fill="#DADADA" stroke="#706F6F" stroke-miterlimit="10" d="M155.3,33.1v519.1h0.2c1.2,3.1,8.1,5.6,16.5,5.6
			s15.3-2.4,16.5-5.6h0.2V33.1H155.3z"/>
	</g>
	<path fill="#DADADA" stroke="#706F6F" stroke-miterlimit="10" d="M155.3,62.7c0,0,13.3,6.8,33.4,0"/>
</g>
<g>
	<g>
		<path fill="#DADADA" stroke="#706F6F" stroke-miterlimit="10" d="M188.8,33.1v519.1h0.2c1.2,3.1,8.1,5.6,16.5,5.6
			c8.4,0,15.3-2.4,16.5-5.6h0.2V33.1H188.8z"/>
	</g>
	<path fill="#DADADA" stroke="#706F6F" stroke-miterlimit="10" d="M188.8,62.7c0,0,13.3,6.8,33.4,0"/>
</g>
<g>
	<g>
		<path fill="#DADADA" stroke="#706F6F" stroke-miterlimit="10" d="M222.3,33.1v519.1h0.2c1.2,3.1,8.1,5.6,16.5,5.6
			s15.3-2.4,16.5-5.6h0.2V33.1H222.3z"/>
	</g>
	<path fill="#DADADA" stroke="#706F6F" stroke-miterlimit="10" d="M222.3,62.7c0,0,13.3,6.8,33.4,0"/>
</g>
<g>
	<g>
		<path fill="#DADADA" stroke="#706F6F" stroke-miterlimit="10" d="M255.8,33.1v519.1h0.2c1.2,3.1,8.1,5.6,16.5,5.6
			s15.3-2.4,16.5-5.6h0.2V33.1H255.8z"/>
	</g>
	<path fill="#DADADA" stroke="#706F6F" stroke-miterlimit="10" d="M255.8,62.7c0,0,13.3,6.8,33.4,0"/>
</g>
<g>
	<g>
		<path fill="#DADADA" stroke="#706F6F" stroke-miterlimit="10" d="M289.3,33.1v519.1h0.2c1.2,3.1,8.1,5.6,16.5,5.6
			s15.3-2.4,16.5-5.6h0.2V33.1H289.3z"/>
	</g>
	<path fill="#DADADA" stroke="#706F6F" stroke-miterlimit="10" d="M289.3,62.7c0,0,13.3,6.8,33.4,0"/>
</g>
<g>
	<g>
		<path fill="#DADADA" stroke="#706F6F" stroke-miterlimit="10" d="M322.8,33.1v519.1h0.2c1.2,3.1,8.1,5.6,16.5,5.6
			c8.4,0,15.3-2.4,16.5-5.6h0.2V33.1H322.8z"/>
	</g>
	<path fill="#DADADA" stroke="#706F6F" stroke-miterlimit="10" d="M322.8,62.7c0,0,13.3,6.8,33.4,0"/>
</g>
<g>
	<g>
		<path fill="#DADADA" stroke="#706F6F" stroke-miterlimit="10" d="M356.3,33.1v519.1h0.2c1.2,3.1,8.1,5.6,16.5,5.6
			s15.3-2.4,16.5-5.6h0.2V33.1H356.3z"/>
	</g>
	<path fill="#DADADA" stroke="#706F6F" stroke-miterlimit="10" d="M356.3,62.7c0,0,13.3,6.8,33.4,0"/>
</g>
<g>
	<g>
		<path fill="#DADADA" stroke="#706F6F" stroke-miterlimit="10" d="M121.7,33.1v519.1h0.2c1.2,3.1,8.1,5.6,16.5,5.6
			c8.4,0,15.3-2.4,16.5-5.6h0.2V33.1H121.7z"/>
	</g>
	<path fill="#DADADA" stroke="#706F6F" stroke-miterlimit="10" d="M121.7,62.7c0,0,13.3,6.8,33.4,0"/>
</g>
</svg>
